%TF.GenerationSoftware,KiCad,Pcbnew,9.0.6*%
%TF.CreationDate,2026-04-11T19:46:43-03:00*%
%TF.ProjectId,flight_comp_srad-2026,666c6967-6874-45f6-936f-6d705f737261,rev?*%
%TF.SameCoordinates,Original*%
%TF.FileFunction,Copper,L1,Top*%
%TF.FilePolarity,Positive*%
%FSLAX46Y46*%
G04 Gerber Fmt 4.6, Leading zero omitted, Abs format (unit mm)*
G04 Created by KiCad (PCBNEW 9.0.6) date 2026-04-11 19:46:43*
%MOMM*%
%LPD*%
G01*
G04 APERTURE LIST*
G04 Aperture macros list*
%AMRoundRect*
0 Rectangle with rounded corners*
0 $1 Rounding radius*
0 $2 $3 $4 $5 $6 $7 $8 $9 X,Y pos of 4 corners*
0 Add a 4 corners polygon primitive as box body*
4,1,4,$2,$3,$4,$5,$6,$7,$8,$9,$2,$3,0*
0 Add four circle primitives for the rounded corners*
1,1,$1+$1,$2,$3*
1,1,$1+$1,$4,$5*
1,1,$1+$1,$6,$7*
1,1,$1+$1,$8,$9*
0 Add four rect primitives between the rounded corners*
20,1,$1+$1,$2,$3,$4,$5,0*
20,1,$1+$1,$4,$5,$6,$7,0*
20,1,$1+$1,$6,$7,$8,$9,0*
20,1,$1+$1,$8,$9,$2,$3,0*%
G04 Aperture macros list end*
%TA.AperFunction,Conductor*%
%ADD10C,0.370000*%
%TD*%
%TA.AperFunction,SMDPad,CuDef*%
%ADD11RoundRect,0.200000X0.275000X-0.200000X0.275000X0.200000X-0.275000X0.200000X-0.275000X-0.200000X0*%
%TD*%
%TA.AperFunction,SMDPad,CuDef*%
%ADD12RoundRect,0.250000X-0.475000X0.250000X-0.475000X-0.250000X0.475000X-0.250000X0.475000X0.250000X0*%
%TD*%
%TA.AperFunction,SMDPad,CuDef*%
%ADD13RoundRect,0.250000X0.262500X0.450000X-0.262500X0.450000X-0.262500X-0.450000X0.262500X-0.450000X0*%
%TD*%
%TA.AperFunction,ComponentPad*%
%ADD14R,2.000000X2.000000*%
%TD*%
%TA.AperFunction,ComponentPad*%
%ADD15C,2.000000*%
%TD*%
%TA.AperFunction,SMDPad,CuDef*%
%ADD16RoundRect,0.250000X-0.262500X-0.450000X0.262500X-0.450000X0.262500X0.450000X-0.262500X0.450000X0*%
%TD*%
%TA.AperFunction,SMDPad,CuDef*%
%ADD17R,0.700000X1.800000*%
%TD*%
%TA.AperFunction,SMDPad,CuDef*%
%ADD18R,0.800000X1.800000*%
%TD*%
%TA.AperFunction,SMDPad,CuDef*%
%ADD19RoundRect,0.250000X0.250000X0.475000X-0.250000X0.475000X-0.250000X-0.475000X0.250000X-0.475000X0*%
%TD*%
%TA.AperFunction,SMDPad,CuDef*%
%ADD20RoundRect,0.200000X0.200000X0.275000X-0.200000X0.275000X-0.200000X-0.275000X0.200000X-0.275000X0*%
%TD*%
%TA.AperFunction,SMDPad,CuDef*%
%ADD21RoundRect,0.140000X0.170000X-0.140000X0.170000X0.140000X-0.170000X0.140000X-0.170000X-0.140000X0*%
%TD*%
%TA.AperFunction,SMDPad,CuDef*%
%ADD22C,1.000000*%
%TD*%
%TA.AperFunction,SMDPad,CuDef*%
%ADD23RoundRect,0.250000X-0.250000X-0.475000X0.250000X-0.475000X0.250000X0.475000X-0.250000X0.475000X0*%
%TD*%
%TA.AperFunction,SMDPad,CuDef*%
%ADD24RoundRect,0.050000X-0.050000X0.387500X-0.050000X-0.387500X0.050000X-0.387500X0.050000X0.387500X0*%
%TD*%
%TA.AperFunction,SMDPad,CuDef*%
%ADD25RoundRect,0.050000X-0.387500X0.050000X-0.387500X-0.050000X0.387500X-0.050000X0.387500X0.050000X0*%
%TD*%
%TA.AperFunction,HeatsinkPad*%
%ADD26C,0.600000*%
%TD*%
%TA.AperFunction,HeatsinkPad*%
%ADD27R,3.200000X3.200000*%
%TD*%
%TA.AperFunction,SMDPad,CuDef*%
%ADD28RoundRect,0.140000X-0.140000X-0.170000X0.140000X-0.170000X0.140000X0.170000X-0.140000X0.170000X0*%
%TD*%
%TA.AperFunction,SMDPad,CuDef*%
%ADD29RoundRect,0.250000X-0.450000X0.262500X-0.450000X-0.262500X0.450000X-0.262500X0.450000X0.262500X0*%
%TD*%
%TA.AperFunction,SMDPad,CuDef*%
%ADD30R,0.700000X1.100000*%
%TD*%
%TA.AperFunction,SMDPad,CuDef*%
%ADD31R,0.900000X0.930000*%
%TD*%
%TA.AperFunction,SMDPad,CuDef*%
%ADD32R,1.050000X0.780000*%
%TD*%
%TA.AperFunction,SMDPad,CuDef*%
%ADD33R,1.140000X1.830000*%
%TD*%
%TA.AperFunction,SMDPad,CuDef*%
%ADD34R,0.860000X2.800000*%
%TD*%
%TA.AperFunction,SMDPad,CuDef*%
%ADD35R,0.700000X3.330000*%
%TD*%
%TA.AperFunction,SMDPad,CuDef*%
%ADD36RoundRect,0.150000X-0.150000X0.950000X-0.150000X-0.950000X0.150000X-0.950000X0.150000X0.950000X0*%
%TD*%
%TA.AperFunction,SMDPad,CuDef*%
%ADD37RoundRect,0.537500X-1.187500X0.537500X-1.187500X-0.537500X1.187500X-0.537500X1.187500X0.537500X0*%
%TD*%
%TA.AperFunction,SMDPad,CuDef*%
%ADD38RoundRect,0.218750X0.218750X0.256250X-0.218750X0.256250X-0.218750X-0.256250X0.218750X-0.256250X0*%
%TD*%
%TA.AperFunction,SMDPad,CuDef*%
%ADD39R,1.650000X0.400000*%
%TD*%
%TA.AperFunction,SMDPad,CuDef*%
%ADD40R,0.700000X1.825000*%
%TD*%
%TA.AperFunction,SMDPad,CuDef*%
%ADD41R,1.500000X2.000000*%
%TD*%
%TA.AperFunction,SMDPad,CuDef*%
%ADD42R,2.000000X1.350000*%
%TD*%
%TA.AperFunction,HeatsinkPad*%
%ADD43O,1.700000X1.350000*%
%TD*%
%TA.AperFunction,HeatsinkPad*%
%ADD44O,1.500000X1.100000*%
%TD*%
%TA.AperFunction,SMDPad,CuDef*%
%ADD45R,2.500000X1.430000*%
%TD*%
%TA.AperFunction,SMDPad,CuDef*%
%ADD46R,1.050000X1.300000*%
%TD*%
%TA.AperFunction,SMDPad,CuDef*%
%ADD47RoundRect,0.162500X-0.162500X0.650000X-0.162500X-0.650000X0.162500X-0.650000X0.162500X0.650000X0*%
%TD*%
%TA.AperFunction,ComponentPad*%
%ADD48R,1.400000X1.400000*%
%TD*%
%TA.AperFunction,ComponentPad*%
%ADD49C,1.400000*%
%TD*%
%TA.AperFunction,SMDPad,CuDef*%
%ADD50RoundRect,0.225000X-0.225000X-0.250000X0.225000X-0.250000X0.225000X0.250000X-0.225000X0.250000X0*%
%TD*%
%TA.AperFunction,SMDPad,CuDef*%
%ADD51R,0.800000X0.650000*%
%TD*%
%TA.AperFunction,SMDPad,CuDef*%
%ADD52R,0.800000X1.600000*%
%TD*%
%TA.AperFunction,SMDPad,CuDef*%
%ADD53R,1.050000X0.650000*%
%TD*%
%TA.AperFunction,SMDPad,CuDef*%
%ADD54RoundRect,0.200000X-0.200000X-0.275000X0.200000X-0.275000X0.200000X0.275000X-0.200000X0.275000X0*%
%TD*%
%TA.AperFunction,ViaPad*%
%ADD55C,0.600000*%
%TD*%
%TA.AperFunction,Conductor*%
%ADD56C,0.500000*%
%TD*%
%TA.AperFunction,Conductor*%
%ADD57C,0.800000*%
%TD*%
%TA.AperFunction,Conductor*%
%ADD58C,0.200000*%
%TD*%
%TA.AperFunction,Conductor*%
%ADD59C,0.400000*%
%TD*%
%TA.AperFunction,Conductor*%
%ADD60C,0.300000*%
%TD*%
G04 APERTURE END LIST*
D10*
%TO.N,/RF_IN*%
X182247192Y-64702800D02*
X182247192Y-67550000D01*
X182247192Y-64702808D02*
G75*
G02*
X184475000Y-62474992I2227808J8D01*
G01*
X184480970Y-62475000D02*
X185550000Y-62475000D01*
%TD*%
D11*
%TO.P,RI2C_3,1*%
%TO.N,/RP_SCL0*%
X193660000Y-80870000D03*
%TO.P,RI2C_3,2*%
%TO.N,+3V3*%
X193660000Y-79220000D03*
%TD*%
D12*
%TO.P,CPS_1,1*%
%TO.N,VBUS*%
X214900000Y-92050000D03*
%TO.P,CPS_1,2*%
%TO.N,GND*%
X214900000Y-93950000D03*
%TD*%
D13*
%TO.P,RL_2,1*%
%TO.N,GND*%
X204625000Y-99100000D03*
%TO.P,RL_2,2*%
%TO.N,Net-(D2-K)*%
X202800000Y-99100000D03*
%TD*%
D14*
%TO.P,LS1,1*%
%TO.N,+3V3*%
X202970785Y-68400000D03*
D15*
%TO.P,LS1,2*%
%TO.N,Net-(Q1-C)*%
X197970785Y-68400000D03*
%TD*%
D16*
%TO.P,R_RST1,1*%
%TO.N,+3V3*%
X191187500Y-89300000D03*
%TO.P,R_RST1,2*%
%TO.N,/RUN*%
X193012500Y-89300000D03*
%TD*%
D11*
%TO.P,RI2C_4,1*%
%TO.N,/RP_SDA0*%
X191440000Y-79825000D03*
%TO.P,RI2C_4,2*%
%TO.N,+3V3*%
X191440000Y-78175000D03*
%TD*%
D17*
%TO.P,U5,1,GND*%
%TO.N,GND*%
X174550000Y-78787500D03*
D18*
%TO.P,U5,2,TXD*%
%TO.N,unconnected-(U5-TXD-Pad2)*%
X175650000Y-78787500D03*
%TO.P,U5,3,RXD*%
%TO.N,unconnected-(U5-RXD-Pad3)*%
X176750000Y-78787500D03*
%TO.P,U5,4,TIMEPULSE*%
%TO.N,unconnected-(U5-TIMEPULSE-Pad4)*%
X177850000Y-78787500D03*
%TO.P,U5,5,EXTINT*%
%TO.N,unconnected-(U5-EXTINT-Pad5)*%
X178950000Y-78787500D03*
%TO.P,U5,6,V_BCKP*%
%TO.N,unconnected-(U5-V_BCKP-Pad6)*%
X180050000Y-78787500D03*
%TO.P,U5,7,V_IO*%
%TO.N,+3V3*%
X181150000Y-78787500D03*
%TO.P,U5,8,VCC*%
X182250000Y-78787500D03*
D17*
%TO.P,U5,9,~{RESET}*%
%TO.N,unconnected-(U5-~{RESET}-Pad9)*%
X183350000Y-78787500D03*
%TO.P,U5,10,GND__1*%
%TO.N,GND*%
X183350000Y-69287500D03*
D18*
%TO.P,U5,11,RF_IN*%
%TO.N,/RF_IN*%
X182250000Y-69287500D03*
%TO.P,U5,12,GND__2*%
%TO.N,GND*%
X181150000Y-69287500D03*
%TO.P,U5,13,LNA_EN*%
%TO.N,unconnected-(U5-LNA_EN-Pad13)*%
X180050000Y-69287500D03*
%TO.P,U5,14,VCC_RF*%
%TO.N,unconnected-(U5-VCC_RF-Pad14)*%
X178950000Y-69287500D03*
%TO.P,U5,15,VIO_SEL*%
%TO.N,unconnected-(U5-VIO_SEL-Pad15)*%
X177850000Y-69287500D03*
%TO.P,U5,16,SDA*%
%TO.N,/RP_SDA0*%
X176750000Y-69287500D03*
%TO.P,U5,17,SCL*%
%TO.N,/RP_SCL0*%
X175650000Y-69287500D03*
D17*
%TO.P,U5,18,~{SAFEBOOT}*%
%TO.N,unconnected-(U5-~{SAFEBOOT}-Pad18)*%
X174550000Y-69287500D03*
%TD*%
D19*
%TO.P,CPS_3,1*%
%TO.N,+3V3*%
X209950000Y-90100000D03*
%TO.P,CPS_3,2*%
%TO.N,NR_Reg*%
X208050000Y-90100000D03*
%TD*%
D20*
%TO.P,R3,1*%
%TO.N,/USB_D+*%
X209855000Y-86770000D03*
%TO.P,R3,2*%
%TO.N,/USB_R+*%
X208205000Y-86770000D03*
%TD*%
D14*
%TO.P,J2,1,1*%
%TO.N,GND*%
X191320000Y-98700000D03*
D15*
%TO.P,J2,2,2*%
%TO.N,/SWDIO*%
X193860000Y-98700000D03*
%TO.P,J2,3,3*%
%TO.N,/SWCLK*%
X196400000Y-98700000D03*
%TD*%
D21*
%TO.P,C15,1*%
%TO.N,+3V3*%
X198990000Y-80430000D03*
%TO.P,C15,2*%
%TO.N,GND*%
X198990000Y-79470000D03*
%TD*%
D22*
%TO.P,TP2,1,1*%
%TO.N,GND*%
X213430000Y-74540000D03*
%TD*%
D23*
%TO.P,CGPS_1,1*%
%TO.N,+3V3*%
X182270000Y-83190000D03*
%TO.P,CGPS_1,2*%
%TO.N,GND*%
X184170000Y-83190000D03*
%TD*%
D24*
%TO.P,U3,1,IOVDD*%
%TO.N,+3V3*%
X202670000Y-82742500D03*
%TO.P,U3,2,GPIO0*%
%TO.N,/BUZZER*%
X202270000Y-82742500D03*
%TO.P,U3,3,GPIO1*%
%TO.N,unconnected-(U3-GPIO1-Pad3)*%
X201870000Y-82742500D03*
%TO.P,U3,4,GPIO2*%
%TO.N,/RP_SDA1*%
X201470000Y-82742500D03*
%TO.P,U3,5,GPIO3*%
%TO.N,/RP_SCL1*%
X201070000Y-82742500D03*
%TO.P,U3,6,GPIO4*%
%TO.N,unconnected-(U3-GPIO4-Pad6)*%
X200670000Y-82742500D03*
%TO.P,U3,7,GPIO5*%
%TO.N,unconnected-(U3-GPIO5-Pad7)*%
X200270000Y-82742500D03*
%TO.P,U3,8,GPIO6*%
%TO.N,unconnected-(U3-GPIO6-Pad8)*%
X199870000Y-82742500D03*
%TO.P,U3,9,GPIO7*%
%TO.N,unconnected-(U3-GPIO7-Pad9)*%
X199470000Y-82742500D03*
%TO.P,U3,10,IOVDD*%
%TO.N,+3V3*%
X199070000Y-82742500D03*
%TO.P,U3,11,GPIO8*%
%TO.N,/IIM_MISO1*%
X198670000Y-82742500D03*
%TO.P,U3,12,GPIO9*%
%TO.N,/IIM_CS1*%
X198270000Y-82742500D03*
%TO.P,U3,13,GPIO10*%
%TO.N,/IIM_SCLK1*%
X197870000Y-82742500D03*
%TO.P,U3,14,GPIO11*%
%TO.N,/IIM_MOSI1*%
X197470000Y-82742500D03*
D25*
%TO.P,U3,15,GPIO12*%
%TO.N,/RP_SDA0*%
X196632500Y-83580000D03*
%TO.P,U3,16,GPIO13*%
%TO.N,/RP_SCL0*%
X196632500Y-83980000D03*
%TO.P,U3,17,GPIO14*%
%TO.N,unconnected-(U3-GPIO14-Pad17)*%
X196632500Y-84380000D03*
%TO.P,U3,18,GPIO15*%
%TO.N,unconnected-(U3-GPIO15-Pad18)*%
X196632500Y-84780000D03*
%TO.P,U3,19,TESTEN*%
%TO.N,GND*%
X196632500Y-85180000D03*
%TO.P,U3,20,XIN*%
%TO.N,/XIN*%
X196632500Y-85580000D03*
%TO.P,U3,21,XOUT*%
%TO.N,/XOUT*%
X196632500Y-85980000D03*
%TO.P,U3,22,IOVDD*%
%TO.N,+3V3*%
X196632500Y-86380000D03*
%TO.P,U3,23,DVDD*%
%TO.N,+1V1*%
X196632500Y-86780000D03*
%TO.P,U3,24,SWCLK*%
%TO.N,/SWCLK*%
X196632500Y-87180000D03*
%TO.P,U3,25,SWD*%
%TO.N,/SWDIO*%
X196632500Y-87580000D03*
%TO.P,U3,26,RUN*%
%TO.N,/RUN*%
X196632500Y-87980000D03*
%TO.P,U3,27,GPIO16*%
%TO.N,/UART_Tx0*%
X196632500Y-88380000D03*
%TO.P,U3,28,GPIO17*%
%TO.N,/UART_Rx0*%
X196632500Y-88780000D03*
D24*
%TO.P,U3,29,GPIO18*%
%TO.N,/SD_CMD*%
X197470000Y-89617500D03*
%TO.P,U3,30,GPIO19*%
%TO.N,/SD_DAT0*%
X197870000Y-89617500D03*
%TO.P,U3,31,GPIO20*%
%TO.N,/SD_DAT1*%
X198270000Y-89617500D03*
%TO.P,U3,32,GPIO21*%
%TO.N,/SD_DAT2*%
X198670000Y-89617500D03*
%TO.P,U3,33,IOVDD*%
%TO.N,+3V3*%
X199070000Y-89617500D03*
%TO.P,U3,34,GPIO22*%
%TO.N,/SD_DAT3*%
X199470000Y-89617500D03*
%TO.P,U3,35,GPIO23*%
%TO.N,unconnected-(U3-GPIO23-Pad35)*%
X199870000Y-89617500D03*
%TO.P,U3,36,GPIO24*%
%TO.N,/LED_1*%
X200270000Y-89617500D03*
%TO.P,U3,37,GPIO25*%
%TO.N,/LED_2*%
X200670000Y-89617500D03*
%TO.P,U3,38,GPIO26_ADC0*%
%TO.N,unconnected-(U3-GPIO26_ADC0-Pad38)*%
X201070000Y-89617500D03*
%TO.P,U3,39,GPIO27_ADC1*%
%TO.N,unconnected-(U3-GPIO27_ADC1-Pad39)*%
X201470000Y-89617500D03*
%TO.P,U3,40,GPIO28_ADC2*%
%TO.N,/ADC_BAT*%
X201870000Y-89617500D03*
%TO.P,U3,41,GPIO29_ADC3*%
%TO.N,unconnected-(U3-GPIO29_ADC3-Pad41)*%
X202270000Y-89617500D03*
%TO.P,U3,42,IOVDD*%
%TO.N,+3V3*%
X202670000Y-89617500D03*
D25*
%TO.P,U3,43,ADC_AVDD*%
X203507500Y-88780000D03*
%TO.P,U3,44,VREG_IN*%
X203507500Y-88380000D03*
%TO.P,U3,45,VREG_VOUT*%
%TO.N,+1V1*%
X203507500Y-87980000D03*
%TO.P,U3,46,USB_DM*%
%TO.N,/USB_R-*%
X203507500Y-87580000D03*
%TO.P,U3,47,USB_DP*%
%TO.N,/USB_R+*%
X203507500Y-87180000D03*
%TO.P,U3,48,USB_VDD*%
%TO.N,+3V3*%
X203507500Y-86780000D03*
%TO.P,U3,49,IOVDD*%
X203507500Y-86380000D03*
%TO.P,U3,50,DVDD*%
%TO.N,+1V1*%
X203507500Y-85980000D03*
%TO.P,U3,51,QSPI_SD3*%
%TO.N,/QSPI_SD3*%
X203507500Y-85580000D03*
%TO.P,U3,52,QSPI_SCLK*%
%TO.N,/QSPI_SCLK*%
X203507500Y-85180000D03*
%TO.P,U3,53,QSPI_SD0*%
%TO.N,/QSPI_SD0*%
X203507500Y-84780000D03*
%TO.P,U3,54,QSPI_SD2*%
%TO.N,/QSPI_SD2*%
X203507500Y-84380000D03*
%TO.P,U3,55,QSPI_SD1*%
%TO.N,/QSPI_SD1*%
X203507500Y-83980000D03*
%TO.P,U3,56,QSPI_SS*%
%TO.N,/QSPI_SS*%
X203507500Y-83580000D03*
D26*
%TO.P,U3,57,GND*%
%TO.N,GND*%
X201420000Y-84830000D03*
X198720000Y-84830000D03*
D27*
X200070000Y-86180000D03*
D26*
X201420000Y-87530000D03*
X198720000Y-87530000D03*
%TD*%
D19*
%TO.P,CX_2,1*%
%TO.N,GND*%
X192450000Y-82700000D03*
%TO.P,CX_2,2*%
%TO.N,Net-(CX_2-Pad2)*%
X190550000Y-82700000D03*
%TD*%
D28*
%TO.P,C16,1*%
%TO.N,+3V3*%
X202660000Y-80820000D03*
%TO.P,C16,2*%
%TO.N,GND*%
X203620000Y-80820000D03*
%TD*%
D29*
%TO.P,RFLASH_1,1*%
%TO.N,+3V3*%
X211565000Y-67672500D03*
%TO.P,RFLASH_1,2*%
%TO.N,/QSPI_SS*%
X211565000Y-69497500D03*
%TD*%
D22*
%TO.P,TP1,1,1*%
%TO.N,+3V3*%
X211540000Y-64140000D03*
%TD*%
D30*
%TO.P,J1,1,DAT2*%
%TO.N,/SD_DAT2*%
X184820000Y-98865000D03*
%TO.P,J1,2,CD/DAT3^2*%
%TO.N,/SD_DAT3*%
X183720000Y-98865000D03*
%TO.P,J1,3,CMD*%
%TO.N,/SD_CMD*%
X182620000Y-98865000D03*
%TO.P,J1,4,VDD*%
%TO.N,+3V3*%
X181520000Y-98865000D03*
%TO.P,J1,5,CLK*%
%TO.N,/SD_CLK*%
X180420000Y-98865000D03*
%TO.P,J1,6,VSS*%
%TO.N,GND*%
X179320000Y-98865000D03*
%TO.P,J1,7,DAT0*%
%TO.N,/SD_DAT0*%
X178220000Y-98865000D03*
%TO.P,J1,8,DAT1*%
%TO.N,/SD_DAT1*%
X177120000Y-98865000D03*
D31*
%TO.P,J1,9,VSS__1*%
%TO.N,GND*%
X186610000Y-86400000D03*
D32*
%TO.P,J1,10,DETECT_SWITCH*%
%TO.N,/SD_DS*%
X182345000Y-86325000D03*
D33*
%TO.P,J1,P1,SHIELD*%
%TO.N,GND*%
X188700000Y-98850000D03*
D34*
%TO.P,J1,P2,SHIELD__1*%
X176040000Y-98365000D03*
D35*
%TO.P,J1,P3,SHIELD__2*%
X188920000Y-87600000D03*
%TO.P,J1,P4,SHIELD__3*%
X175960000Y-87600000D03*
%TD*%
D36*
%TO.P,U8,1,IN*%
%TO.N,VBUS*%
X212540000Y-92700000D03*
%TO.P,U8,2,OUT*%
%TO.N,+3V3*%
X211270000Y-92700000D03*
%TO.P,U8,3,GND-1*%
%TO.N,GND*%
X210000000Y-92700000D03*
%TO.P,U8,4,NR/FB*%
%TO.N,NR_Reg*%
X208730000Y-92700000D03*
%TO.P,U8,5,EN*%
%TO.N,VBUS*%
X207460000Y-92700000D03*
D37*
%TO.P,U8,6,GND*%
%TO.N,GND*%
X210000000Y-99000000D03*
%TD*%
D14*
%TO.P,J5,1,1*%
%TO.N,VBUS*%
X217680000Y-84430000D03*
D15*
%TO.P,J5,2,2*%
%TO.N,GND*%
X217680000Y-86970000D03*
%TD*%
D38*
%TO.P,D2,1,K*%
%TO.N,Net-(D2-K)*%
X204500000Y-97200000D03*
%TO.P,D2,2,A*%
%TO.N,/LED_2*%
X202925000Y-97200000D03*
%TD*%
%TO.P,D1,1,K*%
%TO.N,Net-(D1-K)*%
X200800000Y-97200000D03*
%TO.P,D1,2,A*%
%TO.N,/LED_1*%
X199225000Y-97200000D03*
%TD*%
D29*
%TO.P,RX_1,1*%
%TO.N,Net-(CX_2-Pad2)*%
X188700000Y-82487500D03*
%TO.P,RX_1,2*%
%TO.N,/XOUT*%
X188700000Y-84312500D03*
%TD*%
D39*
%TO.P,J3,1,VBUS*%
%TO.N,VBUS*%
X216475000Y-78925000D03*
%TO.P,J3,2,D-*%
%TO.N,/USB_D-*%
X216475000Y-78275000D03*
%TO.P,J3,3,D+*%
%TO.N,/USB_D+*%
X216475000Y-77625000D03*
%TO.P,J3,4,ID*%
%TO.N,unconnected-(J3-ID-Pad4)*%
X216475000Y-76975000D03*
%TO.P,J3,5,GND*%
%TO.N,GND*%
X216475000Y-76325000D03*
D40*
%TO.P,J3,6,Shield*%
X217675000Y-80575000D03*
D41*
X216375000Y-80475000D03*
D42*
X218425000Y-80355000D03*
D43*
X219355000Y-80355000D03*
D44*
X216355000Y-80045000D03*
D45*
X219625000Y-78585000D03*
X219625000Y-76665000D03*
D44*
X216355000Y-75205000D03*
D43*
X219355000Y-74895000D03*
D42*
X218425000Y-74875000D03*
D41*
X216355000Y-74725000D03*
D40*
X217675000Y-74625000D03*
%TD*%
D16*
%TO.P,RFLASH_2,1*%
%TO.N,/QSPI_SS*%
X210425000Y-71525000D03*
%TO.P,RFLASH_2,2*%
%TO.N,/~{USB_BOOT}*%
X212250000Y-71525000D03*
%TD*%
D46*
%TO.P,Y1,1*%
%TO.N,/XIN*%
X192375000Y-87150000D03*
%TO.P,Y1,2,GND*%
%TO.N,GND*%
X192375000Y-84850000D03*
%TO.P,Y1,3*%
%TO.N,Net-(CX_2-Pad2)*%
X190625000Y-84850000D03*
%TO.P,Y1,4,GND__1*%
%TO.N,GND*%
X190625000Y-87150000D03*
%TD*%
D20*
%TO.P,RSPI_3,1*%
%TO.N,/IIM_SCLK1*%
X197300000Y-79720000D03*
%TO.P,RSPI_3,2*%
%TO.N,+3V3*%
X195650000Y-79720000D03*
%TD*%
%TO.P,R4,1*%
%TO.N,/USB_D-*%
X209850000Y-88280000D03*
%TO.P,R4,2*%
%TO.N,/USB_R-*%
X208200000Y-88280000D03*
%TD*%
D47*
%TO.P,U6,1,~{CS}*%
%TO.N,/QSPI_SS*%
X211275000Y-76142500D03*
%TO.P,U6,2,DO(IO1)*%
%TO.N,/QSPI_SD1*%
X210005000Y-76142500D03*
%TO.P,U6,3,IO2*%
%TO.N,/QSPI_SD2*%
X208735000Y-76142500D03*
%TO.P,U6,4,GND*%
%TO.N,GND*%
X207465000Y-76142500D03*
%TO.P,U6,5,DI(IO0)*%
%TO.N,/QSPI_SD0*%
X207465000Y-83317500D03*
%TO.P,U6,6,CLK*%
%TO.N,/QSPI_SCLK*%
X208735000Y-83317500D03*
%TO.P,U6,7,IO3*%
%TO.N,/QSPI_SD3*%
X210005000Y-83317500D03*
%TO.P,U6,8,VCC*%
%TO.N,+3V3*%
X211275000Y-83317500D03*
%TD*%
D48*
%TO.P,U7,1,VCC*%
%TO.N,+3V3*%
X154250000Y-96400000D03*
D49*
%TO.P,U7,2,DOUT/DIO13*%
%TO.N,/UART_Rx0*%
X156250000Y-96400000D03*
%TO.P,U7,3,DIN/NCONFIG/DIO14*%
%TO.N,/UART_Tx0*%
X158250000Y-96400000D03*
%TO.P,U7,4,DIO12/SPI_MISO*%
%TO.N,unconnected-(U7-DIO12{slash}SPI_MISO-Pad4)*%
X160250000Y-96400000D03*
%TO.P,U7,5,~{RESET}*%
%TO.N,unconnected-(U7-~{RESET}-Pad5)*%
X162250000Y-96400000D03*
%TO.P,U7,6,DIO10/PWM0*%
%TO.N,unconnected-(U7-DIO10{slash}PWM0-Pad6)*%
X164250000Y-96400000D03*
%TO.P,U7,7,DIO11/PWM1*%
%TO.N,unconnected-(U7-DIO11{slash}PWM1-Pad7)*%
X166250000Y-96400000D03*
%TO.P,U7,8*%
%TO.N,N/C*%
X168250000Y-96400000D03*
%TO.P,U7,9,NDTR/SLEEP_RQ/DIO8*%
%TO.N,unconnected-(U7-NDTR{slash}SLEEP_RQ{slash}DIO8-Pad9)*%
X170250000Y-96400000D03*
%TO.P,U7,10,GND*%
%TO.N,GND*%
X172250000Y-96400000D03*
%TO.P,U7,11,DIO4/SPI_MOSI*%
%TO.N,unconnected-(U7-DIO4{slash}SPI_MOSI-Pad11)*%
X172250000Y-74400000D03*
%TO.P,U7,12,NCTS/DIO7*%
%TO.N,unconnected-(U7-NCTS{slash}DIO7-Pad12)*%
X170250000Y-74400000D03*
%TO.P,U7,13,ON_NSLEEP/DIO9*%
%TO.N,unconnected-(U7-ON_NSLEEP{slash}DIO9-Pad13)*%
X168250000Y-74400000D03*
%TO.P,U7,14,VREF*%
%TO.N,GND*%
X166250000Y-74400000D03*
%TO.P,U7,15,ASSOCIATE/DIO5*%
%TO.N,unconnected-(U7-ASSOCIATE{slash}DIO5-Pad15)*%
X164250000Y-74400000D03*
%TO.P,U7,16,NRTS/DIO6*%
%TO.N,unconnected-(U7-NRTS{slash}DIO6-Pad16)*%
X162250000Y-74400000D03*
%TO.P,U7,17,AD3/DIO3/SPI_NSSEL*%
%TO.N,unconnected-(U7-AD3{slash}DIO3{slash}SPI_NSSEL-Pad17)*%
X160250000Y-74400000D03*
%TO.P,U7,18,AD2/DIO2/SPI_CLK*%
%TO.N,unconnected-(U7-AD2{slash}DIO2{slash}SPI_CLK-Pad18)*%
X158250000Y-74400000D03*
%TO.P,U7,19,AD1/DIO1/SPI_NATTN*%
%TO.N,unconnected-(U7-AD1{slash}DIO1{slash}SPI_NATTN-Pad19)*%
X156250000Y-74400000D03*
%TO.P,U7,20,AD0/DIO0*%
%TO.N,unconnected-(U7-AD0{slash}DIO0-Pad20)*%
X154250000Y-74400000D03*
%TD*%
D50*
%TO.P,CGPS_2,1*%
%TO.N,+3V3*%
X182255000Y-81350000D03*
%TO.P,CGPS_2,2*%
%TO.N,GND*%
X183805000Y-81350000D03*
%TD*%
D13*
%TO.P,RL_1,1*%
%TO.N,GND*%
X200975000Y-99100000D03*
%TO.P,RL_1,2*%
%TO.N,Net-(D1-K)*%
X199150000Y-99100000D03*
%TD*%
D51*
%TO.P,AE1,1*%
%TO.N,/RF_IN*%
X186400000Y-62475000D03*
%TO.P,AE1,2*%
%TO.N,GND*%
X186400000Y-61525000D03*
D52*
%TO.P,AE1,3*%
X189600000Y-62000000D03*
%TD*%
D53*
%TO.P,S2,1,NO_1*%
%TO.N,/RUN*%
X191150000Y-91950000D03*
%TO.P,S2,2,NO_2*%
X195300000Y-91950000D03*
%TO.P,S2,3,COM_1*%
%TO.N,GND*%
X191150000Y-94100000D03*
%TO.P,S2,4,COM_2*%
X195300000Y-94100000D03*
%TD*%
%TO.P,S1,1,NO_1*%
%TO.N,/~{USB_BOOT}*%
X219100000Y-71400000D03*
%TO.P,S1,2,NO_2*%
X214950000Y-71400000D03*
%TO.P,S1,3,COM_1*%
%TO.N,GND*%
X219100000Y-69250000D03*
%TO.P,S1,4,COM_2*%
X214950000Y-69250000D03*
%TD*%
D54*
%TO.P,RSPI_4,1*%
%TO.N,/IIM_CS1*%
X198600000Y-77910000D03*
%TO.P,RSPI_4,2*%
%TO.N,+3V3*%
X200250000Y-77910000D03*
%TD*%
D55*
%TO.N,GND*%
X213440000Y-76140000D03*
%TO.N,+3V3*%
X193660000Y-77880000D03*
X192620000Y-79050000D03*
%TO.N,GND*%
X194160000Y-76800000D03*
X185350000Y-83180000D03*
X179611765Y-97736765D03*
X155420000Y-99340000D03*
X190420000Y-63470000D03*
X183350000Y-67400000D03*
X183920000Y-63900000D03*
X152160000Y-91360000D03*
X215070000Y-65890000D03*
X198980000Y-61410000D03*
X213980000Y-61410000D03*
X164420000Y-99340000D03*
X217350000Y-67370000D03*
X197480000Y-61410000D03*
X152160000Y-76360000D03*
X168920000Y-99340000D03*
X180670000Y-61410000D03*
X152160000Y-95860000D03*
X152160000Y-85360000D03*
X186600000Y-84875000D03*
X193720000Y-87100000D03*
X164170000Y-61410000D03*
X206480000Y-61410000D03*
X210075000Y-79600000D03*
X165670000Y-61410000D03*
X152160000Y-88360000D03*
X186100000Y-92625000D03*
X152160000Y-73360000D03*
X159670000Y-61410000D03*
X200480000Y-61410000D03*
X173170000Y-61410000D03*
X152160000Y-67360000D03*
X181040000Y-65640000D03*
X207980000Y-61410000D03*
X216150000Y-66840000D03*
X185340000Y-82340000D03*
X152160000Y-70360000D03*
X190125000Y-94100000D03*
X153920000Y-99340000D03*
X174625000Y-97250000D03*
X201980000Y-61410000D03*
X159920000Y-99340000D03*
X208925000Y-80950000D03*
X162670000Y-61410000D03*
X174375000Y-86675000D03*
X184960000Y-81360000D03*
X153610000Y-67430000D03*
X161170000Y-61410000D03*
X197647148Y-96951381D03*
X179170000Y-61410000D03*
X152160000Y-92860000D03*
X181190000Y-66970000D03*
X158140000Y-62890000D03*
X158420000Y-99340000D03*
X201950000Y-65350000D03*
X207020000Y-89070000D03*
X152150000Y-97500000D03*
X210980000Y-61410000D03*
X152160000Y-74860000D03*
X192425000Y-83775000D03*
X192870000Y-76800000D03*
X174350000Y-87925000D03*
X187320000Y-89280000D03*
X214200000Y-95400000D03*
X195980000Y-61410000D03*
X155170000Y-67240000D03*
X209075000Y-78175000D03*
X218840000Y-67460000D03*
X202000000Y-77600000D03*
X152160000Y-79360000D03*
X185630000Y-61060000D03*
X184900000Y-63650000D03*
X209825000Y-96575000D03*
X187560000Y-65100000D03*
X181125000Y-64275000D03*
X156920000Y-99340000D03*
X168670000Y-61410000D03*
X214200000Y-97800000D03*
X199670000Y-79080000D03*
X152160000Y-77860000D03*
X157450000Y-92060000D03*
X170170000Y-61410000D03*
X171920000Y-99340000D03*
X198240000Y-73590000D03*
X210850000Y-78175000D03*
X152580000Y-99060000D03*
X167420000Y-99340000D03*
X152160000Y-86860000D03*
X152160000Y-80860000D03*
X195800000Y-93375000D03*
X184940000Y-80540000D03*
X204000000Y-62750000D03*
X152160000Y-82360000D03*
X193520000Y-70270000D03*
X185600000Y-64500000D03*
X186450000Y-65100000D03*
X158600000Y-95040000D03*
X188300000Y-71640000D03*
X183360000Y-66170000D03*
X182125000Y-61850000D03*
X152160000Y-83860000D03*
X207750000Y-96600000D03*
X171670000Y-61410000D03*
X210700000Y-80950000D03*
X206310000Y-68280000D03*
%TO.N,/SD_CLK*%
X180500000Y-97600000D03*
%TO.N,+3V3*%
X211540000Y-66335000D03*
%TO.N,Net-(Q1-B)*%
X207570000Y-70350000D03*
%TO.N,/XIN*%
X195480541Y-85268008D03*
%TO.N,/XOUT*%
X195441214Y-86067042D03*
%TO.N,/SWDIO*%
X197570000Y-88230000D03*
%TO.N,/ADC_BAT*%
X201800000Y-90700000D03*
%TO.N,+3V3*%
X190380000Y-78180000D03*
%TO.N,+1V1*%
X197600000Y-86350000D03*
%TO.N,/BUZZER*%
X202070000Y-81705411D03*
%TO.N,Net-(Q1-B)*%
X202025000Y-63450000D03*
%TO.N,+3V3*%
X187310000Y-77740000D03*
X197410000Y-71820000D03*
%TO.N,/XOUT*%
X188800000Y-85400000D03*
%TO.N,+3V3*%
X195020000Y-78840000D03*
%TO.N,NR_Reg*%
X206774971Y-90374971D03*
%TO.N,+1V1*%
X202600000Y-85980000D03*
%TO.N,/UART_Tx0*%
X195200000Y-89925000D03*
%TO.N,+3V3*%
X212300000Y-88000000D03*
%TO.N,/SWCLK*%
X198537443Y-88686063D03*
%TO.N,/RP_SCL1*%
X200600000Y-79690000D03*
%TO.N,/RP_SDA1*%
X201980000Y-79970000D03*
%TO.N,+3V3*%
X200825000Y-95925000D03*
X180310000Y-81590000D03*
X186750000Y-91325000D03*
%TO.N,/SD_DAT1*%
X177125000Y-99800000D03*
%TO.N,/RP_SDA0*%
X176750000Y-71775000D03*
%TO.N,/IIM_MOSI1*%
X196690000Y-80720000D03*
%TO.N,+3V3*%
X195860000Y-71390000D03*
X180310000Y-82530000D03*
X211300000Y-89600000D03*
X203200000Y-78500000D03*
%TO.N,/SD_DAT1*%
X187575000Y-96000000D03*
%TO.N,/IIM_SCLK1*%
X197625000Y-77525000D03*
%TO.N,/RP_SCL0*%
X189380000Y-81160000D03*
%TO.N,/IIM_MISO1*%
X198870000Y-81450000D03*
%TO.N,+3V3*%
X201080000Y-70180000D03*
X196580000Y-70780000D03*
%TO.N,/IIM_CS1*%
X198610000Y-76850000D03*
%TO.N,+3V3*%
X187775000Y-91350000D03*
%TO.N,/UART_Rx0*%
X195850000Y-89425000D03*
%TO.N,+3V3*%
X202900000Y-91000000D03*
X154240000Y-90600000D03*
X181030000Y-81190000D03*
%TO.N,/SD_DAT1*%
X177100000Y-97600000D03*
%TO.N,/RP_SCL0*%
X176361000Y-73941000D03*
%TO.N,/RP_SDA0*%
X189150000Y-79750000D03*
%TO.N,+3V3*%
X212440000Y-66330000D03*
X213500000Y-88000000D03*
X204510000Y-86580000D03*
X181050000Y-82050000D03*
X181520000Y-97490000D03*
X195830000Y-80940000D03*
X199270000Y-91300000D03*
X210950000Y-85580000D03*
X213400000Y-86900000D03*
X199605354Y-81765048D03*
X203075000Y-65375000D03*
X211300000Y-90400000D03*
X201200000Y-72000000D03*
X195363235Y-86863235D03*
X203720000Y-71840000D03*
X180340000Y-83440000D03*
X181050000Y-83020000D03*
X211300000Y-91425000D03*
X202080000Y-78560000D03*
X189100000Y-74740000D03*
X202570000Y-70760000D03*
X189240000Y-72670000D03*
X211300000Y-88800000D03*
X195070000Y-70430000D03*
X190000000Y-89300000D03*
X204357067Y-88600000D03*
%TO.N,GND*%
X152160000Y-71860000D03*
X158170000Y-61410000D03*
X208125000Y-79600000D03*
X207800000Y-95150000D03*
X173420000Y-99340000D03*
X174625000Y-98475000D03*
X183425000Y-64950000D03*
X152160000Y-94360000D03*
X189600000Y-65100000D03*
X194480000Y-61410000D03*
X158050000Y-64380000D03*
X165920000Y-99340000D03*
X214300000Y-62930000D03*
X206525000Y-76150000D03*
X189950000Y-76370000D03*
X191480000Y-61410000D03*
X212480000Y-61410000D03*
X161420000Y-99340000D03*
X190400000Y-61450000D03*
X194160000Y-70260000D03*
X192980000Y-61410000D03*
X174380000Y-89280000D03*
X157520000Y-65580000D03*
X207050000Y-86180000D03*
X188600000Y-65100000D03*
X204980000Y-61410000D03*
X174670000Y-61410000D03*
X214200000Y-99000000D03*
X176410000Y-72960000D03*
X190430000Y-62480000D03*
X200230000Y-70580000D03*
X190410000Y-64400000D03*
X167170000Y-61410000D03*
X193520000Y-76810000D03*
X181450000Y-62970000D03*
X188150000Y-87525000D03*
X176170000Y-61410000D03*
X203610000Y-79240000D03*
X203480000Y-61410000D03*
X207100000Y-80950000D03*
X209480000Y-61410000D03*
X170420000Y-99340000D03*
X152160000Y-89860000D03*
X187025000Y-92625000D03*
X220090000Y-67470000D03*
X211775000Y-95125000D03*
X192870000Y-70260000D03*
X183350000Y-61425000D03*
X184525000Y-61225000D03*
X209875000Y-95125000D03*
X185340000Y-84040000D03*
X156570000Y-66660000D03*
X152160000Y-68860000D03*
%TO.N,VBUS*%
X218050000Y-90840000D03*
%TO.N,GND*%
X214925000Y-68270000D03*
%TO.N,VBUS*%
X217350000Y-89640000D03*
X220150000Y-89640000D03*
%TO.N,/SD_DAT0*%
X178200000Y-97600000D03*
%TO.N,VBUS*%
X212720000Y-91110000D03*
X205800000Y-92400000D03*
%TO.N,GND*%
X202000000Y-95100000D03*
X188440000Y-80500000D03*
%TO.N,VBUS*%
X219450000Y-90840000D03*
X203400000Y-92400000D03*
%TO.N,GND*%
X190040000Y-71080000D03*
X177670000Y-61410000D03*
%TO.N,VBUS*%
X218750000Y-89640000D03*
%TO.N,/SD_DAT0*%
X187575000Y-95100000D03*
%TO.N,GND*%
X211725000Y-96575000D03*
X162920000Y-99340000D03*
X157400000Y-94230000D03*
X214200000Y-96600000D03*
%TD*%
D56*
%TO.N,+3V3*%
X211250000Y-88800000D02*
X210545000Y-89505000D01*
X209950000Y-90100000D02*
X210690000Y-90840000D01*
X211000000Y-90100000D02*
X211300000Y-90400000D01*
X209950000Y-90100000D02*
X211000000Y-90100000D01*
D57*
X211270000Y-91420000D02*
X211270000Y-90100000D01*
D56*
X211300000Y-88800000D02*
X211250000Y-88800000D01*
D58*
%TO.N,GND*%
X213440000Y-74550000D02*
X213430000Y-74540000D01*
X213440000Y-76140000D02*
X213440000Y-74550000D01*
%TO.N,+3V3*%
X193660000Y-79220000D02*
X193660000Y-77880000D01*
X192265000Y-78175000D02*
X191440000Y-78175000D01*
X192620000Y-79050000D02*
X192620000Y-78530000D01*
X192620000Y-78530000D02*
X192265000Y-78175000D01*
%TO.N,GND*%
X197220000Y-85180000D02*
X197575000Y-84825000D01*
D56*
X188850000Y-98700000D02*
X188700000Y-98850000D01*
D58*
X207465000Y-76142500D02*
X206532500Y-76142500D01*
X203610000Y-79480000D02*
X203620000Y-79490000D01*
D59*
X185630000Y-61360000D02*
X185620000Y-61370000D01*
D58*
X200975000Y-99100000D02*
X201976000Y-100101000D01*
X205574000Y-100101000D02*
X205775000Y-99900000D01*
X197575000Y-84825000D02*
X197580000Y-84830000D01*
X191150000Y-94100000D02*
X190125000Y-94100000D01*
X201976000Y-100101000D02*
X205574000Y-100101000D01*
D59*
X185630000Y-61060000D02*
X185630000Y-61360000D01*
D58*
X188920000Y-87600000D02*
X189000000Y-87600000D01*
D60*
X183805000Y-81350000D02*
X184950000Y-81350000D01*
D56*
X186610000Y-86400000D02*
X186760000Y-86250000D01*
D58*
X192450000Y-84775000D02*
X192375000Y-84850000D01*
D60*
X184950000Y-81350000D02*
X184960000Y-81360000D01*
D58*
X203620000Y-79490000D02*
X203620000Y-80820000D01*
X203610000Y-79240000D02*
X203610000Y-79480000D01*
X209807500Y-99322501D02*
X210230000Y-98900001D01*
D59*
X176040000Y-99487000D02*
X176040000Y-98365000D01*
X185620000Y-61550000D02*
X185720000Y-61650000D01*
D56*
X186760000Y-86250000D02*
X188050000Y-86250000D01*
D59*
X179320000Y-98865000D02*
X179320000Y-98028530D01*
D58*
X195300000Y-93875000D02*
X195800000Y-93375000D01*
%TO.N,/SD_DAT2*%
X188200000Y-96400000D02*
X185735000Y-98865000D01*
X185735000Y-98865000D02*
X184820000Y-98865000D01*
X198670000Y-94330000D02*
X196600000Y-96400000D01*
X198670000Y-89617500D02*
X198670000Y-94330000D01*
D59*
%TO.N,Net-(CX_2-Pad2)*%
X190750000Y-84810000D02*
X190790000Y-84850000D01*
X189587500Y-82487500D02*
X188700000Y-82487500D01*
X190550000Y-84775000D02*
X190625000Y-84850000D01*
X190550000Y-82700000D02*
X189800000Y-82700000D01*
X190625000Y-82725000D02*
X190750000Y-82600000D01*
D58*
%TO.N,/SD_DAT2*%
X196600000Y-96400000D02*
X188200000Y-96400000D01*
D59*
%TO.N,Net-(CX_2-Pad2)*%
X189800000Y-82700000D02*
X189587500Y-82487500D01*
X190550000Y-82700000D02*
X190550000Y-84775000D01*
D58*
%TO.N,/SD_DAT1*%
X198270000Y-94162900D02*
X196432900Y-96000000D01*
%TO.N,/LED_1*%
X199225000Y-97200000D02*
X199225000Y-95250000D01*
%TO.N,/SD_DAT1*%
X177125000Y-99800000D02*
X177125000Y-98870000D01*
X177100000Y-97600000D02*
X177100000Y-98360000D01*
X198270000Y-89617500D02*
X198270000Y-94162900D01*
%TO.N,/SD_CMD*%
X186050000Y-96667836D02*
X184917836Y-97800000D01*
%TO.N,/SD_DAT3*%
X196950000Y-96800000D02*
X199871000Y-93879000D01*
%TO.N,/SD_CMD*%
X184917836Y-97800000D02*
X182800000Y-97800000D01*
%TO.N,/SD_DAT3*%
X185350000Y-99900000D02*
X188450000Y-96800000D01*
X188450000Y-96800000D02*
X196950000Y-96800000D01*
X184000000Y-99900000D02*
X185350000Y-99900000D01*
X199871000Y-93879000D02*
X199871000Y-90596000D01*
%TO.N,/LED_1*%
X200270000Y-90437100D02*
X200270000Y-89617500D01*
%TO.N,/SD_CLK*%
X180500000Y-97600000D02*
X180500000Y-98785000D01*
%TO.N,/SD_DAT3*%
X183720000Y-98865000D02*
X183720000Y-99620000D01*
%TO.N,/SD_CLK*%
X180500000Y-98785000D02*
X180420000Y-98865000D01*
%TO.N,/SD_DAT1*%
X177125000Y-98870000D02*
X177120000Y-98865000D01*
%TO.N,/SD_CMD*%
X197470000Y-89617500D02*
X197470000Y-93762900D01*
X189075000Y-95100000D02*
X188225000Y-94250000D01*
X186050000Y-95575000D02*
X186050000Y-96667836D01*
%TO.N,/SD_DAT1*%
X177100000Y-98360000D02*
X177120000Y-98380000D01*
%TO.N,/SD_CMD*%
X182620000Y-97980000D02*
X182620000Y-98865000D01*
X188225000Y-94250000D02*
X187375000Y-94250000D01*
X182800000Y-97800000D02*
X182620000Y-97980000D01*
X197470000Y-93762900D02*
X196132900Y-95100000D01*
%TO.N,/SD_DAT3*%
X199470000Y-90195000D02*
X199470000Y-89617500D01*
%TO.N,/SD_CMD*%
X196132900Y-95100000D02*
X189075000Y-95100000D01*
%TO.N,/SD_DAT3*%
X199871000Y-90596000D02*
X199470000Y-90195000D01*
%TO.N,/SD_DAT1*%
X196432900Y-96000000D02*
X187575000Y-96000000D01*
%TO.N,/SD_DAT3*%
X183720000Y-99620000D02*
X184000000Y-99900000D01*
%TO.N,/LED_1*%
X199225000Y-95250000D02*
X200275000Y-94200000D01*
X200275000Y-90442100D02*
X200270000Y-90437100D01*
X200275000Y-94200000D02*
X200275000Y-90442100D01*
%TO.N,/SD_DAT1*%
X177120000Y-98380000D02*
X177120000Y-98865000D01*
%TO.N,/SD_CMD*%
X187375000Y-94250000D02*
X186050000Y-95575000D01*
D59*
%TO.N,Net-(CX_2-Pad2)*%
X190637500Y-82487500D02*
X190750000Y-82600000D01*
D58*
%TO.N,/LED_2*%
X200825000Y-95075057D02*
X202925000Y-97175057D01*
%TO.N,/RP_SCL0*%
X190760000Y-80750000D02*
X193540000Y-80750000D01*
%TO.N,/LED_2*%
X202812500Y-97300000D02*
X202912500Y-97400000D01*
X200670000Y-90270000D02*
X200825000Y-90425000D01*
%TO.N,/RP_SCL0*%
X189420000Y-81120000D02*
X190390000Y-81120000D01*
%TO.N,/LED_2*%
X200825000Y-90425000D02*
X200825000Y-95075057D01*
X200670000Y-89617500D02*
X200670000Y-90270000D01*
%TO.N,/RP_SCL0*%
X193540000Y-80750000D02*
X193660000Y-80870000D01*
X194100000Y-82100000D02*
X194100000Y-81330000D01*
%TO.N,/LED_2*%
X202925000Y-97025000D02*
X202925000Y-97200000D01*
X202925000Y-97175057D02*
X202925000Y-97200000D01*
%TO.N,/RP_SCL0*%
X194100000Y-81330000D02*
X193660000Y-80890000D01*
X175650000Y-73230000D02*
X175650000Y-69287500D01*
X196632500Y-83980000D02*
X195980000Y-83980000D01*
X195980000Y-83980000D02*
X194100000Y-82100000D01*
X190390000Y-81120000D02*
X190760000Y-80750000D01*
%TO.N,/RP_SDA0*%
X194530000Y-79930000D02*
X191420000Y-79930000D01*
X196180000Y-83580000D02*
X195200000Y-82600000D01*
%TO.N,/LED_2*%
X202912500Y-97012500D02*
X202912500Y-97400000D01*
%TO.N,/RP_SDA0*%
X196632500Y-83580000D02*
X196180000Y-83580000D01*
X195200000Y-80600000D02*
X194530000Y-79930000D01*
X176750000Y-69287500D02*
X176750000Y-71775000D01*
%TO.N,/RP_SCL0*%
X189380000Y-81160000D02*
X189420000Y-81120000D01*
X176361000Y-73941000D02*
X175650000Y-73230000D01*
%TO.N,/RP_SDA0*%
X189150000Y-79750000D02*
X191365000Y-79750000D01*
X195200000Y-82600000D02*
X195200000Y-80600000D01*
X191365000Y-79750000D02*
X191440000Y-79825000D01*
%TO.N,/IIM_CS1*%
X198600000Y-78460000D02*
X198600000Y-77910000D01*
X198000000Y-81125000D02*
X198000000Y-79060000D01*
%TO.N,/IIM_MOSI1*%
X197470000Y-82742500D02*
X197470000Y-82430000D01*
%TO.N,/UART_Rx0*%
X195850000Y-89150000D02*
X195850000Y-89425000D01*
X196220000Y-88780000D02*
X195850000Y-89150000D01*
%TO.N,+3V3*%
X199605354Y-81765048D02*
X199509952Y-81765048D01*
X198990000Y-80430000D02*
X199605354Y-81045354D01*
%TO.N,/IIM_CS1*%
X198270000Y-81395000D02*
X198000000Y-81125000D01*
%TO.N,/IIM_SCLK1*%
X197600000Y-77550000D02*
X197625000Y-77525000D01*
X197600000Y-81475000D02*
X197600000Y-77550000D01*
%TO.N,/IIM_MISO1*%
X198670000Y-82742500D02*
X198670000Y-81650000D01*
%TO.N,/IIM_CS1*%
X198600000Y-76860000D02*
X198610000Y-76850000D01*
%TO.N,+3V3*%
X204290000Y-86580000D02*
X204090000Y-86780000D01*
X204250000Y-88570000D02*
X204327067Y-88570000D01*
X190385000Y-78175000D02*
X190380000Y-78180000D01*
X204250000Y-88570000D02*
X204040000Y-88780000D01*
X195611765Y-86863235D02*
X196075000Y-86400000D01*
%TO.N,/IIM_MOSI1*%
X197470000Y-82430000D02*
X196690000Y-81650000D01*
%TO.N,+3V3*%
X199070000Y-91100000D02*
X199270000Y-91300000D01*
%TO.N,/IIM_CS1*%
X198270000Y-82742500D02*
X198270000Y-81395000D01*
X198000000Y-79060000D02*
X198600000Y-78460000D01*
X198600000Y-77910000D02*
X198600000Y-76860000D01*
%TO.N,/IIM_MISO1*%
X198670000Y-81650000D02*
X198870000Y-81450000D01*
%TO.N,+3V3*%
X196075000Y-86400000D02*
X196125000Y-86400000D01*
X202670000Y-82742500D02*
X202670000Y-81700000D01*
%TO.N,/IIM_SCLK1*%
X197870000Y-82742500D02*
X197870000Y-81745000D01*
X197870000Y-81745000D02*
X197600000Y-81475000D01*
%TO.N,/UART_Rx0*%
X196220000Y-88780000D02*
X196632500Y-88780000D01*
%TO.N,+3V3*%
X196095000Y-86380000D02*
X196075000Y-86400000D01*
X211275000Y-85255000D02*
X210950000Y-85580000D01*
%TO.N,/IIM_MOSI1*%
X196690000Y-81650000D02*
X196690000Y-80720000D01*
%TO.N,+3V3*%
X211275000Y-83317500D02*
X211275000Y-85255000D01*
X195665000Y-80775000D02*
X195830000Y-80940000D01*
X203507500Y-88380000D02*
X204060000Y-88380000D01*
X200250000Y-77910000D02*
X201430000Y-77910000D01*
X202660000Y-79040000D02*
X203200000Y-78500000D01*
X201430000Y-77910000D02*
X202080000Y-78560000D01*
D57*
X211270000Y-90100000D02*
X211270000Y-88830000D01*
D58*
X195665000Y-79720000D02*
X195665000Y-79185000D01*
X195665000Y-79185000D02*
X195320000Y-78840000D01*
X202670000Y-81700000D02*
X202670000Y-81070000D01*
X199509952Y-81765048D02*
X199070000Y-82205000D01*
D59*
X211200000Y-89700000D02*
X211300000Y-89600000D01*
D58*
X199605354Y-81045354D02*
X199605354Y-81765048D01*
X204130000Y-86380000D02*
X203507500Y-86380000D01*
X203100000Y-78500000D02*
X203200000Y-78500000D01*
X202670000Y-90770000D02*
X202900000Y-91000000D01*
X199070000Y-89617500D02*
X199070000Y-91100000D01*
X196632500Y-86380000D02*
X196095000Y-86380000D01*
X190000000Y-89300000D02*
X191187500Y-89300000D01*
X191440000Y-78175000D02*
X190385000Y-78175000D01*
X195320000Y-78840000D02*
X195020000Y-78840000D01*
X204510000Y-86580000D02*
X204330000Y-86580000D01*
X204060000Y-88380000D02*
X204250000Y-88570000D01*
D57*
X211270000Y-92700000D02*
X211270000Y-91420000D01*
D56*
X181520000Y-98865000D02*
X181520000Y-97490000D01*
D58*
X202670000Y-89617500D02*
X202670000Y-90770000D01*
X204040000Y-88780000D02*
X203507500Y-88780000D01*
X212050000Y-67637500D02*
X212075000Y-67662500D01*
X202660000Y-80500000D02*
X202660000Y-79040000D01*
X211540000Y-66335000D02*
X211540000Y-67647500D01*
X204327067Y-88570000D02*
X204357067Y-88600000D01*
X204090000Y-86780000D02*
X203507500Y-86780000D01*
X204330000Y-86580000D02*
X204130000Y-86380000D01*
X193490000Y-79050000D02*
X193660000Y-79220000D01*
X199070000Y-82205000D02*
X199070000Y-82742500D01*
X195363235Y-86863235D02*
X195611765Y-86863235D01*
X204510000Y-86580000D02*
X204290000Y-86580000D01*
X195665000Y-79720000D02*
X195665000Y-80775000D01*
%TO.N,+1V1*%
X202970000Y-87980000D02*
X202600000Y-87610000D01*
X202600000Y-87610000D02*
X202600000Y-85980000D01*
X196632500Y-86780000D02*
X197170000Y-86780000D01*
%TO.N,/QSPI_SS*%
X209670000Y-73330000D02*
X209670000Y-71630000D01*
%TO.N,+1V1*%
X203507500Y-87980000D02*
X202970000Y-87980000D01*
%TO.N,/QSPI_SS*%
X210737500Y-69487500D02*
X212075000Y-69487500D01*
X211275000Y-74935000D02*
X211275000Y-76142500D01*
X203507500Y-83580000D02*
X204270000Y-83580000D01*
%TO.N,+1V1*%
X197170000Y-86780000D02*
X197600000Y-86350000D01*
X203507500Y-85980000D02*
X202600000Y-85980000D01*
%TO.N,/QSPI_SS*%
X210425000Y-71525000D02*
X210425000Y-69800000D01*
X204570000Y-74230000D02*
X205470000Y-73330000D01*
D59*
%TO.N,/USB_D+*%
X212700000Y-78700000D02*
X213775000Y-77625000D01*
D58*
%TO.N,/QSPI_SS*%
X205470000Y-73330000D02*
X209670000Y-73330000D01*
D59*
%TO.N,/USB_D+*%
X212700000Y-85000000D02*
X210930000Y-86770000D01*
D58*
%TO.N,/QSPI_SS*%
X209670000Y-73330000D02*
X211275000Y-74935000D01*
D59*
%TO.N,/USB_D-*%
X213301000Y-78948942D02*
X213301000Y-85298999D01*
D58*
%TO.N,/QSPI_SS*%
X210425000Y-69800000D02*
X210737500Y-69487500D01*
X209775000Y-71525000D02*
X210425000Y-71525000D01*
D59*
%TO.N,/USB_D-*%
X213974942Y-78275000D02*
X213301000Y-78948942D01*
D58*
%TO.N,/QSPI_SS*%
X204570000Y-83280000D02*
X204570000Y-74230000D01*
X204270000Y-83580000D02*
X204570000Y-83280000D01*
D59*
%TO.N,/USB_D+*%
X210930000Y-86770000D02*
X209855000Y-86770000D01*
D58*
%TO.N,/~{USB_BOOT}*%
X212250000Y-71525000D02*
X219100000Y-71525000D01*
%TO.N,/QSPI_SS*%
X209670000Y-71630000D02*
X209775000Y-71525000D01*
D59*
%TO.N,/USB_D+*%
X212700000Y-85000000D02*
X212700000Y-78700000D01*
X213775000Y-77625000D02*
X216035000Y-77625000D01*
%TO.N,/USB_D-*%
X213301000Y-85298999D02*
X210319999Y-88280000D01*
X213974942Y-78275000D02*
X216525000Y-78275000D01*
X210319999Y-88280000D02*
X209850000Y-88280000D01*
D58*
%TO.N,/SWCLK*%
X196632500Y-87180000D02*
X197592045Y-87180000D01*
%TO.N,/QSPI_SD3*%
X210005000Y-84545000D02*
X210005000Y-83317500D01*
%TO.N,/SWDIO*%
X197305000Y-87580000D02*
X197450000Y-87725000D01*
%TO.N,/XIN*%
X196005000Y-85580000D02*
X195792533Y-85580000D01*
%TO.N,/UART_Tx0*%
X195200000Y-89200000D02*
X196020000Y-88380000D01*
%TO.N,/QSPI_SCLK*%
X203507500Y-85180000D02*
X207920000Y-85180000D01*
X207920000Y-85180000D02*
X208735000Y-84365000D01*
%TO.N,/QSPI_SD1*%
X210005000Y-74965000D02*
X208970000Y-73930000D01*
%TO.N,/XIN*%
X192375000Y-87150000D02*
X192375000Y-86625000D01*
X193606992Y-85268008D02*
X192375000Y-86500000D01*
%TO.N,/XOUT*%
X188800000Y-84412500D02*
X188700000Y-84312500D01*
%TO.N,/QSPI_SD3*%
X203507500Y-85580000D02*
X208970000Y-85580000D01*
%TO.N,/SWCLK*%
X198537443Y-88347500D02*
X198537443Y-88686063D01*
%TO.N,/QSPI_SD2*%
X206075000Y-74600000D02*
X205800000Y-74875000D01*
%TO.N,/QSPI_SD0*%
X206970000Y-84780000D02*
X207465000Y-84285000D01*
X207465000Y-84285000D02*
X207465000Y-83317500D01*
%TO.N,/XOUT*%
X195528256Y-85980000D02*
X195441214Y-86067042D01*
%TO.N,/QSPI_SD0*%
X203507500Y-84780000D02*
X206970000Y-84780000D01*
%TO.N,/QSPI_SD2*%
X205070000Y-84380000D02*
X203507500Y-84380000D01*
%TO.N,/QSPI_SD1*%
X205200000Y-83500000D02*
X204720000Y-83980000D01*
%TO.N,/XIN*%
X195792533Y-85580000D02*
X195480541Y-85268008D01*
%TO.N,/SWCLK*%
X198031023Y-87841080D02*
X198537443Y-88347500D01*
%TO.N,/XOUT*%
X188800000Y-85400000D02*
X188800000Y-84412500D01*
%TO.N,/SWDIO*%
X197570000Y-87850000D02*
X197570000Y-88230000D01*
%TO.N,/XIN*%
X196632500Y-85580000D02*
X196005000Y-85580000D01*
%TO.N,/XOUT*%
X188700000Y-84312500D02*
X188700000Y-84537000D01*
%TO.N,/SWDIO*%
X197450000Y-87730000D02*
X197570000Y-87850000D01*
X197450000Y-87725000D02*
X197450000Y-87730000D01*
%TO.N,/UART_Tx0*%
X195200000Y-89200000D02*
X195200000Y-89925000D01*
%TO.N,/QSPI_SD1*%
X205770000Y-73930000D02*
X205200000Y-74500000D01*
%TO.N,/UART_Tx0*%
X196020000Y-88380000D02*
X196632500Y-88380000D01*
%TO.N,/QSPI_SCLK*%
X208735000Y-84365000D02*
X208735000Y-83317500D01*
%TO.N,/QSPI_SD2*%
X205800000Y-83650000D02*
X205070000Y-84380000D01*
%TO.N,/QSPI_SD1*%
X210005000Y-76142500D02*
X210005000Y-74965000D01*
%TO.N,/QSPI_SD2*%
X208735000Y-75095000D02*
X208240000Y-74600000D01*
%TO.N,/XIN*%
X195480541Y-85268008D02*
X193606992Y-85268008D01*
%TO.N,/SWDIO*%
X196632500Y-87580000D02*
X197305000Y-87580000D01*
%TO.N,/QSPI_SD2*%
X208240000Y-74600000D02*
X206075000Y-74600000D01*
%TO.N,/QSPI_SD1*%
X204720000Y-83980000D02*
X203507500Y-83980000D01*
%TO.N,/XOUT*%
X196632500Y-85980000D02*
X195528256Y-85980000D01*
%TO.N,/QSPI_SD2*%
X208735000Y-76142500D02*
X208735000Y-75095000D01*
%TO.N,/QSPI_SD1*%
X205200000Y-74500000D02*
X205200000Y-83500000D01*
%TO.N,/SWCLK*%
X197592045Y-87180000D02*
X198031023Y-87618978D01*
X198031023Y-87618978D02*
X198031023Y-87841080D01*
%TO.N,/XIN*%
X192375000Y-87150000D02*
X192375000Y-86500000D01*
%TO.N,/QSPI_SD2*%
X205800000Y-74875000D02*
X205800000Y-83650000D01*
%TO.N,/QSPI_SD3*%
X208970000Y-85580000D02*
X210005000Y-84545000D01*
%TO.N,/QSPI_SD1*%
X208970000Y-73930000D02*
X205770000Y-73930000D01*
%TO.N,/RUN*%
X195745000Y-87980000D02*
X196632500Y-87980000D01*
X194425000Y-89300000D02*
X195745000Y-87980000D01*
X196097226Y-87980000D02*
X196096226Y-87979000D01*
X193012500Y-89300000D02*
X193312500Y-89600000D01*
X196632500Y-87980000D02*
X196097226Y-87980000D01*
X191150000Y-91950000D02*
X192100000Y-91000000D01*
X193012500Y-89300000D02*
X194425000Y-89300000D01*
X191150000Y-91950000D02*
X191100000Y-91900000D01*
X192700000Y-91000000D02*
X193012500Y-90687500D01*
%TO.N,/ADC_BAT*%
X201870000Y-89617500D02*
X201870000Y-90630000D01*
%TO.N,/RUN*%
X195500000Y-91950000D02*
X191150000Y-91950000D01*
X192100000Y-91000000D02*
X192700000Y-91000000D01*
%TO.N,/ADC_BAT*%
X201870000Y-90630000D02*
X201800000Y-90700000D01*
%TO.N,/RUN*%
X193012500Y-90687500D02*
X193012500Y-89300000D01*
%TO.N,/USB_R-*%
X203507500Y-87580000D02*
X204680000Y-87580000D01*
%TO.N,/USB_R+*%
X204787500Y-87180000D02*
X204800000Y-87192500D01*
%TO.N,/RP_SCL1*%
X201070000Y-81970000D02*
X200640000Y-81540000D01*
%TO.N,/USB_R-*%
X208200000Y-88280000D02*
X207515000Y-88280000D01*
D60*
%TO.N,NR_Reg*%
X207950000Y-90000000D02*
X208050000Y-90100000D01*
D58*
%TO.N,/USB_R+*%
X204800000Y-87192500D02*
X207137500Y-87192500D01*
D59*
%TO.N,NR_Reg*%
X208050000Y-90850000D02*
X208730000Y-91530000D01*
D58*
%TO.N,/RP_SCL1*%
X200640000Y-79730000D02*
X200600000Y-79690000D01*
%TO.N,/USB_R-*%
X204680000Y-87580000D02*
X205000000Y-87900000D01*
%TO.N,/RP_SDA1*%
X201470000Y-82742500D02*
X201470000Y-80480000D01*
%TO.N,/USB_R-*%
X205000000Y-87900000D02*
X207135000Y-87900000D01*
%TO.N,/RP_SCL1*%
X201070000Y-82742500D02*
X201070000Y-81970000D01*
%TO.N,/USB_R+*%
X207137500Y-87192500D02*
X207560000Y-86770000D01*
%TO.N,Net-(D1-K)*%
X199087500Y-99400000D02*
X199087500Y-99100000D01*
%TO.N,Net-(D2-K)*%
X204500000Y-97400000D02*
X204500000Y-97200000D01*
X202800000Y-99100000D02*
X204500000Y-97400000D01*
%TO.N,/RP_SDA1*%
X201470000Y-80480000D02*
X201980000Y-79970000D01*
%TO.N,/USB_R+*%
X203507500Y-87180000D02*
X204787500Y-87180000D01*
%TO.N,Net-(D1-K)*%
X199150000Y-99100000D02*
X200800000Y-97450000D01*
D60*
%TO.N,NR_Reg*%
X207149942Y-90000000D02*
X207950000Y-90000000D01*
D58*
%TO.N,/USB_R-*%
X207515000Y-88280000D02*
X207135000Y-87900000D01*
%TO.N,/RP_SCL1*%
X200640000Y-81540000D02*
X200640000Y-79730000D01*
%TO.N,/USB_R+*%
X207560000Y-86770000D02*
X208205000Y-86770000D01*
D59*
%TO.N,NR_Reg*%
X208050000Y-90100000D02*
X208050000Y-90850000D01*
D58*
%TO.N,Net-(D1-K)*%
X200800000Y-97450000D02*
X200800000Y-97200000D01*
D59*
%TO.N,NR_Reg*%
X208730000Y-92700000D02*
X208730000Y-91530000D01*
D60*
X206774971Y-90374971D02*
X207149942Y-90000000D01*
D58*
%TO.N,Net-(Q1-B)*%
X207570000Y-70350000D02*
X207570000Y-64990000D01*
%TO.N,/BUZZER*%
X202270000Y-81970000D02*
X202270000Y-82742500D01*
X202070000Y-81770000D02*
X202270000Y-81970000D01*
%TO.N,Net-(Q1-B)*%
X206030000Y-63450000D02*
X207570000Y-64990000D01*
X202025000Y-63450000D02*
X206030000Y-63450000D01*
D59*
%TO.N,/RF_IN*%
X186393246Y-62468246D02*
X186400000Y-62475000D01*
D58*
%TO.N,/BUZZER*%
X202070000Y-81705411D02*
X202070000Y-81770000D01*
D59*
%TO.N,VBUS*%
X214000000Y-79100000D02*
X214000000Y-82150000D01*
X214000000Y-82150000D02*
X216280000Y-84430000D01*
X205800000Y-92400000D02*
X207160000Y-92400000D01*
X216525000Y-78925000D02*
X214175000Y-78925000D01*
X207160000Y-92400000D02*
X207460000Y-92700000D01*
X203400000Y-92400000D02*
X205800000Y-92400000D01*
X214175000Y-78925000D02*
X214000000Y-79100000D01*
X216280000Y-84430000D02*
X217680000Y-84430000D01*
D58*
%TO.N,/SD_DAT0*%
X196200000Y-95600000D02*
X188075000Y-95600000D01*
X197870000Y-93930000D02*
X196200000Y-95600000D01*
X188075000Y-95600000D02*
X187575000Y-95100000D01*
X178200000Y-98845000D02*
X178220000Y-98865000D01*
X178200000Y-97600000D02*
X178200000Y-98845000D01*
X197870000Y-89617500D02*
X197870000Y-93930000D01*
%TO.N,GND*%
X219095000Y-69370000D02*
X219095000Y-67715000D01*
D59*
X179320000Y-98028530D02*
X179611765Y-97736765D01*
D58*
X199280000Y-79470000D02*
X199670000Y-79080000D01*
X183170000Y-69107500D02*
X183350000Y-69287500D01*
X219095000Y-67715000D02*
X218840000Y-67460000D01*
D56*
X191320000Y-98700000D02*
X188850000Y-98700000D01*
D58*
X219100000Y-69375000D02*
X219095000Y-69370000D01*
X195300000Y-94100000D02*
X195300000Y-93875000D01*
X189450000Y-87150000D02*
X190790000Y-87150000D01*
D59*
X185620000Y-61370000D02*
X185620000Y-61550000D01*
D58*
X196632500Y-85180000D02*
X197220000Y-85180000D01*
X197580000Y-84830000D02*
X198720000Y-84830000D01*
X191150000Y-94100000D02*
X195300000Y-94100000D01*
D59*
X186325000Y-61525000D02*
X186400000Y-61525000D01*
D60*
X185340000Y-83190000D02*
X185350000Y-83180000D01*
X184170000Y-83190000D02*
X185340000Y-83190000D01*
D58*
X181260000Y-69177500D02*
X181150000Y-69287500D01*
D59*
X186200000Y-61650000D02*
X186325000Y-61525000D01*
D58*
X214925000Y-68270000D02*
X214925000Y-69430000D01*
X189000000Y-87600000D02*
X189450000Y-87150000D01*
X204625000Y-99100000D02*
X205600000Y-99100000D01*
D59*
X185720000Y-61650000D02*
X186200000Y-61650000D01*
D58*
X198990000Y-79470000D02*
X199280000Y-79470000D01*
X206532500Y-76142500D02*
X206525000Y-76150000D01*
X192450000Y-82700000D02*
X192450000Y-84775000D01*
%TO.N,+3V3*%
X211540000Y-66335000D02*
X211540000Y-64140000D01*
X192620000Y-79050000D02*
X193490000Y-79050000D01*
D56*
X210690000Y-90840000D02*
X210690000Y-89650000D01*
X210690000Y-90840000D02*
X211270000Y-91420000D01*
X210545000Y-89505000D02*
X209950000Y-90100000D01*
X210690000Y-89650000D02*
X210545000Y-89505000D01*
%TD*%
%TA.AperFunction,Conductor*%
%TO.N,GND*%
G36*
X189193039Y-85944685D02*
G01*
X189238794Y-85997489D01*
X189250000Y-86049000D01*
X189250000Y-89126000D01*
X189230315Y-89193039D01*
X189177511Y-89238794D01*
X189126000Y-89250000D01*
X188662356Y-89250000D01*
X188595317Y-89230315D01*
X188562816Y-89199944D01*
X187974460Y-88407926D01*
X187950284Y-88342372D01*
X187950000Y-88333982D01*
X187950000Y-86110009D01*
X187969685Y-86042970D01*
X188022489Y-85997215D01*
X188059220Y-85986893D01*
X188567642Y-85925883D01*
X188582416Y-85925000D01*
X189126000Y-85925000D01*
X189193039Y-85944685D01*
G37*
%TD.AperFunction*%
%TD*%
%TA.AperFunction,Conductor*%
%TO.N,+3V3*%
G36*
X182593039Y-78729685D02*
G01*
X182638794Y-78782489D01*
X182650000Y-78834000D01*
X182650000Y-83796000D01*
X182630315Y-83863039D01*
X182577511Y-83908794D01*
X182526000Y-83920000D01*
X180750000Y-83920000D01*
X180044000Y-83920000D01*
X179976961Y-83900315D01*
X179931206Y-83847511D01*
X179920000Y-83796000D01*
X179920000Y-80954000D01*
X179939685Y-80886961D01*
X179992489Y-80841206D01*
X180044000Y-80830000D01*
X180750000Y-80830000D01*
X180750000Y-78834000D01*
X180769685Y-78766961D01*
X180822489Y-78721206D01*
X180874000Y-78710000D01*
X182526000Y-78710000D01*
X182593039Y-78729685D01*
G37*
%TD.AperFunction*%
%TD*%
%TA.AperFunction,Conductor*%
%TO.N,GND*%
G36*
X216881330Y-94319685D02*
G01*
X216927085Y-94372489D01*
X216937029Y-94441647D01*
X216908004Y-94505203D01*
X216868093Y-94535720D01*
X216547780Y-94689974D01*
X216242000Y-94882109D01*
X215959654Y-95107271D01*
X215704294Y-95362631D01*
X215479132Y-95644977D01*
X215286997Y-95950757D01*
X215130310Y-96276121D01*
X215011036Y-96616988D01*
X215011035Y-96616990D01*
X214930676Y-96969068D01*
X214930674Y-96969080D01*
X214890242Y-97327924D01*
X214890242Y-97452067D01*
X214885176Y-97469319D01*
X214885176Y-100105500D01*
X214865491Y-100172539D01*
X214812687Y-100218294D01*
X214761176Y-100229500D01*
X205624000Y-100229500D01*
X205556961Y-100209815D01*
X205511206Y-100157011D01*
X205500000Y-100105500D01*
X205500000Y-94424000D01*
X205519685Y-94356961D01*
X205572489Y-94311206D01*
X205624000Y-94300000D01*
X209424999Y-94300000D01*
X209425000Y-94300000D01*
X210525000Y-94300000D01*
X216814291Y-94300000D01*
X216881330Y-94319685D01*
G37*
%TD.AperFunction*%
%TD*%
%TA.AperFunction,Conductor*%
%TO.N,/RF_IN*%
G36*
X182359940Y-67079685D02*
G01*
X182405695Y-67132489D01*
X182415582Y-67165959D01*
X182450002Y-67400012D01*
X182509996Y-67719984D01*
X182509999Y-67719997D01*
X182644788Y-68170095D01*
X182644853Y-68170540D01*
X182644977Y-68170733D01*
X182650000Y-68205668D01*
X182650000Y-68286000D01*
X182630315Y-68353039D01*
X182577511Y-68398794D01*
X182526000Y-68410000D01*
X181974000Y-68410000D01*
X181906961Y-68390315D01*
X181861206Y-68337511D01*
X181850000Y-68286000D01*
X181850000Y-68205692D01*
X181855225Y-68170075D01*
X181990000Y-67720636D01*
X182039998Y-67400012D01*
X182040000Y-67400000D01*
X182049133Y-67337890D01*
X182074419Y-67165958D01*
X182088906Y-67134503D01*
X182103386Y-67102797D01*
X182103561Y-67102684D01*
X182103648Y-67102496D01*
X182132930Y-67083810D01*
X182162164Y-67065023D01*
X182162431Y-67064984D01*
X182162547Y-67064911D01*
X182197099Y-67060000D01*
X182292901Y-67060000D01*
X182359940Y-67079685D01*
G37*
%TD.AperFunction*%
%TD*%
%TA.AperFunction,Conductor*%
%TO.N,GND*%
G36*
X175050000Y-85725000D02*
G01*
X175633755Y-85919585D01*
X175640481Y-85921827D01*
X175697856Y-85961701D01*
X175724564Y-86026265D01*
X175725268Y-86039090D01*
X175732127Y-88312627D01*
X175733837Y-88879611D01*
X175734625Y-89140626D01*
X175715143Y-89207724D01*
X175690055Y-89236221D01*
X175655554Y-89265000D01*
X175610000Y-89265000D01*
X175610000Y-89302999D01*
X175565429Y-89340178D01*
X175550979Y-89346451D01*
X175538717Y-89357193D01*
X175075000Y-89574999D01*
X175074999Y-89575000D01*
X175051394Y-96137332D01*
X175050000Y-96525000D01*
X175225213Y-96662667D01*
X175609999Y-96965000D01*
X175899765Y-96965000D01*
X175966804Y-96984685D01*
X176012559Y-97037489D01*
X176023760Y-97090097D01*
X176002737Y-99465792D01*
X176001088Y-99652097D01*
X175980811Y-99718960D01*
X175927604Y-99764246D01*
X175877093Y-99775000D01*
X175599999Y-99775000D01*
X175282659Y-100181773D01*
X175225903Y-100222522D01*
X175184892Y-100229500D01*
X153643751Y-100229500D01*
X153636264Y-100229274D01*
X153376339Y-100213551D01*
X153361475Y-100211746D01*
X153109034Y-100165485D01*
X153094494Y-100161901D01*
X152849480Y-100085551D01*
X152835480Y-100080242D01*
X152601444Y-99974911D01*
X152588185Y-99967952D01*
X152368556Y-99835182D01*
X152356233Y-99826676D01*
X152276547Y-99764246D01*
X152154207Y-99668398D01*
X152142999Y-99658468D01*
X151961531Y-99477000D01*
X151951601Y-99465792D01*
X151793323Y-99263766D01*
X151784821Y-99251449D01*
X151652044Y-99031808D01*
X151645091Y-99018562D01*
X151539755Y-98784516D01*
X151534448Y-98770519D01*
X151458096Y-98525498D01*
X151454514Y-98510965D01*
X151441775Y-98441452D01*
X151408253Y-98258524D01*
X151406448Y-98243660D01*
X151390726Y-97983736D01*
X151390500Y-97976249D01*
X151390500Y-95680247D01*
X153349500Y-95680247D01*
X153349500Y-97119752D01*
X153361131Y-97178229D01*
X153361132Y-97178230D01*
X153405447Y-97244552D01*
X153471769Y-97288867D01*
X153471770Y-97288868D01*
X153530247Y-97300499D01*
X153530250Y-97300500D01*
X153530252Y-97300500D01*
X154969750Y-97300500D01*
X154969751Y-97300499D01*
X154984568Y-97297552D01*
X155028229Y-97288868D01*
X155028229Y-97288867D01*
X155028231Y-97288867D01*
X155094552Y-97244552D01*
X155138867Y-97178231D01*
X155138867Y-97178229D01*
X155138868Y-97178229D01*
X155150499Y-97119752D01*
X155150500Y-97119750D01*
X155150500Y-96722080D01*
X155170185Y-96655041D01*
X155222989Y-96609286D01*
X155292147Y-96599342D01*
X155355703Y-96628367D01*
X155389061Y-96674628D01*
X155451983Y-96826541D01*
X155451990Y-96826553D01*
X155550535Y-96974034D01*
X155550538Y-96974038D01*
X155675961Y-97099461D01*
X155675965Y-97099464D01*
X155823446Y-97198009D01*
X155823459Y-97198016D01*
X155935809Y-97244552D01*
X155987334Y-97265894D01*
X155987336Y-97265894D01*
X155987341Y-97265896D01*
X156161304Y-97300499D01*
X156161307Y-97300500D01*
X156161309Y-97300500D01*
X156338693Y-97300500D01*
X156338694Y-97300499D01*
X156397174Y-97288867D01*
X156512658Y-97265896D01*
X156512661Y-97265894D01*
X156512666Y-97265894D01*
X156676547Y-97198013D01*
X156824035Y-97099464D01*
X156949464Y-96974035D01*
X157048013Y-96826547D01*
X157115894Y-96662666D01*
X157128383Y-96599882D01*
X157160768Y-96537971D01*
X157221483Y-96503397D01*
X157291253Y-96507136D01*
X157347925Y-96548003D01*
X157371617Y-96599882D01*
X157384103Y-96662658D01*
X157384106Y-96662667D01*
X157451983Y-96826540D01*
X157451990Y-96826553D01*
X157550535Y-96974034D01*
X157550538Y-96974038D01*
X157675961Y-97099461D01*
X157675965Y-97099464D01*
X157823446Y-97198009D01*
X157823459Y-97198016D01*
X157935809Y-97244552D01*
X157987334Y-97265894D01*
X157987336Y-97265894D01*
X157987341Y-97265896D01*
X158161304Y-97300499D01*
X158161307Y-97300500D01*
X158161309Y-97300500D01*
X158338693Y-97300500D01*
X158338694Y-97300499D01*
X158397174Y-97288867D01*
X158512658Y-97265896D01*
X158512661Y-97265894D01*
X158512666Y-97265894D01*
X158676547Y-97198013D01*
X158824035Y-97099464D01*
X158949464Y-96974035D01*
X159048013Y-96826547D01*
X159115894Y-96662666D01*
X159128383Y-96599882D01*
X159160768Y-96537971D01*
X159221483Y-96503397D01*
X159291253Y-96507136D01*
X159347925Y-96548003D01*
X159371617Y-96599882D01*
X159384103Y-96662658D01*
X159384106Y-96662667D01*
X159451983Y-96826540D01*
X159451990Y-96826553D01*
X159550535Y-96974034D01*
X159550538Y-96974038D01*
X159675961Y-97099461D01*
X159675965Y-97099464D01*
X159823446Y-97198009D01*
X159823459Y-97198016D01*
X159935809Y-97244552D01*
X159987334Y-97265894D01*
X159987336Y-97265894D01*
X159987341Y-97265896D01*
X160161304Y-97300499D01*
X160161307Y-97300500D01*
X160161309Y-97300500D01*
X160338693Y-97300500D01*
X160338694Y-97300499D01*
X160397174Y-97288867D01*
X160512658Y-97265896D01*
X160512661Y-97265894D01*
X160512666Y-97265894D01*
X160676547Y-97198013D01*
X160824035Y-97099464D01*
X160949464Y-96974035D01*
X161048013Y-96826547D01*
X161115894Y-96662666D01*
X161128383Y-96599882D01*
X161160768Y-96537971D01*
X161221483Y-96503397D01*
X161291253Y-96507136D01*
X161347925Y-96548003D01*
X161371617Y-96599882D01*
X161384103Y-96662658D01*
X161384106Y-96662667D01*
X161451983Y-96826540D01*
X161451990Y-96826553D01*
X161550535Y-96974034D01*
X161550538Y-96974038D01*
X161675961Y-97099461D01*
X161675965Y-97099464D01*
X161823446Y-97198009D01*
X161823459Y-97198016D01*
X161935809Y-97244552D01*
X161987334Y-97265894D01*
X161987336Y-97265894D01*
X161987341Y-97265896D01*
X162161304Y-97300499D01*
X162161307Y-97300500D01*
X162161309Y-97300500D01*
X162338693Y-97300500D01*
X162338694Y-97300499D01*
X162397174Y-97288867D01*
X162512658Y-97265896D01*
X162512661Y-97265894D01*
X162512666Y-97265894D01*
X162676547Y-97198013D01*
X162824035Y-97099464D01*
X162949464Y-96974035D01*
X163048013Y-96826547D01*
X163115894Y-96662666D01*
X163128383Y-96599882D01*
X163160768Y-96537971D01*
X163221483Y-96503397D01*
X163291253Y-96507136D01*
X163347925Y-96548003D01*
X163371617Y-96599882D01*
X163384103Y-96662658D01*
X163384106Y-96662667D01*
X163451983Y-96826540D01*
X163451990Y-96826553D01*
X163550535Y-96974034D01*
X163550538Y-96974038D01*
X163675961Y-97099461D01*
X163675965Y-97099464D01*
X163823446Y-97198009D01*
X163823459Y-97198016D01*
X163935809Y-97244552D01*
X163987334Y-97265894D01*
X163987336Y-97265894D01*
X163987341Y-97265896D01*
X164161304Y-97300499D01*
X164161307Y-97300500D01*
X164161309Y-97300500D01*
X164338693Y-97300500D01*
X164338694Y-97300499D01*
X164397174Y-97288867D01*
X164512658Y-97265896D01*
X164512661Y-97265894D01*
X164512666Y-97265894D01*
X164676547Y-97198013D01*
X164824035Y-97099464D01*
X164949464Y-96974035D01*
X165048013Y-96826547D01*
X165115894Y-96662666D01*
X165128383Y-96599882D01*
X165160768Y-96537971D01*
X165221483Y-96503397D01*
X165291253Y-96507136D01*
X165347925Y-96548003D01*
X165371617Y-96599882D01*
X165384103Y-96662658D01*
X165384106Y-96662667D01*
X165451983Y-96826540D01*
X165451990Y-96826553D01*
X165550535Y-96974034D01*
X165550538Y-96974038D01*
X165675961Y-97099461D01*
X165675965Y-97099464D01*
X165823446Y-97198009D01*
X165823459Y-97198016D01*
X165935809Y-97244552D01*
X165987334Y-97265894D01*
X165987336Y-97265894D01*
X165987341Y-97265896D01*
X166161304Y-97300499D01*
X166161307Y-97300500D01*
X166161309Y-97300500D01*
X166338693Y-97300500D01*
X166338694Y-97300499D01*
X166397174Y-97288867D01*
X166512658Y-97265896D01*
X166512661Y-97265894D01*
X166512666Y-97265894D01*
X166676547Y-97198013D01*
X166824035Y-97099464D01*
X166949464Y-96974035D01*
X167048013Y-96826547D01*
X167115894Y-96662666D01*
X167128383Y-96599882D01*
X167160768Y-96537971D01*
X167221483Y-96503397D01*
X167291253Y-96507136D01*
X167347925Y-96548003D01*
X167371617Y-96599882D01*
X167384103Y-96662658D01*
X167384106Y-96662667D01*
X167451983Y-96826540D01*
X167451990Y-96826553D01*
X167550535Y-96974034D01*
X167550538Y-96974038D01*
X167675961Y-97099461D01*
X167675965Y-97099464D01*
X167823446Y-97198009D01*
X167823459Y-97198016D01*
X167935809Y-97244552D01*
X167987334Y-97265894D01*
X167987336Y-97265894D01*
X167987341Y-97265896D01*
X168161304Y-97300499D01*
X168161307Y-97300500D01*
X168161309Y-97300500D01*
X168338693Y-97300500D01*
X168338694Y-97300499D01*
X168397174Y-97288867D01*
X168512658Y-97265896D01*
X168512661Y-97265894D01*
X168512666Y-97265894D01*
X168676547Y-97198013D01*
X168824035Y-97099464D01*
X168949464Y-96974035D01*
X169048013Y-96826547D01*
X169115894Y-96662666D01*
X169128383Y-96599882D01*
X169160768Y-96537971D01*
X169221483Y-96503397D01*
X169291253Y-96507136D01*
X169347925Y-96548003D01*
X169371617Y-96599882D01*
X169384103Y-96662658D01*
X169384106Y-96662667D01*
X169451983Y-96826540D01*
X169451990Y-96826553D01*
X169550535Y-96974034D01*
X169550538Y-96974038D01*
X169675961Y-97099461D01*
X169675965Y-97099464D01*
X169823446Y-97198009D01*
X169823459Y-97198016D01*
X169935809Y-97244552D01*
X169987334Y-97265894D01*
X169987336Y-97265894D01*
X169987341Y-97265896D01*
X170161304Y-97300499D01*
X170161307Y-97300500D01*
X170161309Y-97300500D01*
X170338693Y-97300500D01*
X170338694Y-97300499D01*
X170397174Y-97288867D01*
X170512658Y-97265896D01*
X170512661Y-97265894D01*
X170512666Y-97265894D01*
X170676547Y-97198013D01*
X170824035Y-97099464D01*
X170949464Y-96974035D01*
X171048013Y-96826547D01*
X171115894Y-96662666D01*
X171150500Y-96488691D01*
X171150500Y-96311309D01*
X171150500Y-96311306D01*
X171150499Y-96311304D01*
X171115896Y-96137341D01*
X171115893Y-96137332D01*
X171048016Y-95973459D01*
X171048009Y-95973446D01*
X170949464Y-95825965D01*
X170949461Y-95825961D01*
X170824038Y-95700538D01*
X170824034Y-95700535D01*
X170676553Y-95601990D01*
X170676540Y-95601983D01*
X170512667Y-95534106D01*
X170512658Y-95534103D01*
X170338694Y-95499500D01*
X170338691Y-95499500D01*
X170161309Y-95499500D01*
X170161306Y-95499500D01*
X169987341Y-95534103D01*
X169987332Y-95534106D01*
X169823459Y-95601983D01*
X169823446Y-95601990D01*
X169675965Y-95700535D01*
X169675961Y-95700538D01*
X169550538Y-95825961D01*
X169550535Y-95825965D01*
X169451990Y-95973446D01*
X169451983Y-95973459D01*
X169384106Y-96137332D01*
X169384104Y-96137340D01*
X169371617Y-96200118D01*
X169339232Y-96262028D01*
X169278516Y-96296603D01*
X169208747Y-96292863D01*
X169152075Y-96251996D01*
X169128383Y-96200118D01*
X169115895Y-96137340D01*
X169115894Y-96137334D01*
X169091284Y-96077919D01*
X169048016Y-95973459D01*
X169048009Y-95973446D01*
X168949464Y-95825965D01*
X168949461Y-95825961D01*
X168824038Y-95700538D01*
X168824034Y-95700535D01*
X168676553Y-95601990D01*
X168676540Y-95601983D01*
X168512667Y-95534106D01*
X168512658Y-95534103D01*
X168338694Y-95499500D01*
X168338691Y-95499500D01*
X168161309Y-95499500D01*
X168161306Y-95499500D01*
X167987341Y-95534103D01*
X167987332Y-95534106D01*
X167823459Y-95601983D01*
X167823446Y-95601990D01*
X167675965Y-95700535D01*
X167675961Y-95700538D01*
X167550538Y-95825961D01*
X167550535Y-95825965D01*
X167451990Y-95973446D01*
X167451983Y-95973459D01*
X167384106Y-96137332D01*
X167384104Y-96137340D01*
X167371617Y-96200118D01*
X167339232Y-96262028D01*
X167278516Y-96296603D01*
X167208747Y-96292863D01*
X167152075Y-96251996D01*
X167128383Y-96200118D01*
X167115895Y-96137340D01*
X167115894Y-96137334D01*
X167091284Y-96077919D01*
X167048016Y-95973459D01*
X167048009Y-95973446D01*
X166949464Y-95825965D01*
X166949461Y-95825961D01*
X166824038Y-95700538D01*
X166824034Y-95700535D01*
X166676553Y-95601990D01*
X166676540Y-95601983D01*
X166512667Y-95534106D01*
X166512658Y-95534103D01*
X166338694Y-95499500D01*
X166338691Y-95499500D01*
X166161309Y-95499500D01*
X166161306Y-95499500D01*
X165987341Y-95534103D01*
X165987332Y-95534106D01*
X165823459Y-95601983D01*
X165823446Y-95601990D01*
X165675965Y-95700535D01*
X165675961Y-95700538D01*
X165550538Y-95825961D01*
X165550535Y-95825965D01*
X165451990Y-95973446D01*
X165451983Y-95973459D01*
X165384106Y-96137332D01*
X165384104Y-96137340D01*
X165371617Y-96200118D01*
X165339232Y-96262028D01*
X165278516Y-96296603D01*
X165208747Y-96292863D01*
X165152075Y-96251996D01*
X165128383Y-96200118D01*
X165115895Y-96137340D01*
X165115894Y-96137334D01*
X165091284Y-96077919D01*
X165048016Y-95973459D01*
X165048009Y-95973446D01*
X164949464Y-95825965D01*
X164949461Y-95825961D01*
X164824038Y-95700538D01*
X164824034Y-95700535D01*
X164676553Y-95601990D01*
X164676540Y-95601983D01*
X164512667Y-95534106D01*
X164512658Y-95534103D01*
X164338694Y-95499500D01*
X164338691Y-95499500D01*
X164161309Y-95499500D01*
X164161306Y-95499500D01*
X163987341Y-95534103D01*
X163987332Y-95534106D01*
X163823459Y-95601983D01*
X163823446Y-95601990D01*
X163675965Y-95700535D01*
X163675961Y-95700538D01*
X163550538Y-95825961D01*
X163550535Y-95825965D01*
X163451990Y-95973446D01*
X163451983Y-95973459D01*
X163384106Y-96137332D01*
X163384104Y-96137340D01*
X163371617Y-96200118D01*
X163339232Y-96262028D01*
X163278516Y-96296603D01*
X163208747Y-96292863D01*
X163152075Y-96251996D01*
X163128383Y-96200118D01*
X163115895Y-96137340D01*
X163115894Y-96137334D01*
X163091284Y-96077919D01*
X163048016Y-95973459D01*
X163048009Y-95973446D01*
X162949464Y-95825965D01*
X162949461Y-95825961D01*
X162824038Y-95700538D01*
X162824034Y-95700535D01*
X162676553Y-95601990D01*
X162676540Y-95601983D01*
X162512667Y-95534106D01*
X162512658Y-95534103D01*
X162338694Y-95499500D01*
X162338691Y-95499500D01*
X162161309Y-95499500D01*
X162161306Y-95499500D01*
X161987341Y-95534103D01*
X161987332Y-95534106D01*
X161823459Y-95601983D01*
X161823446Y-95601990D01*
X161675965Y-95700535D01*
X161675961Y-95700538D01*
X161550538Y-95825961D01*
X161550535Y-95825965D01*
X161451990Y-95973446D01*
X161451983Y-95973459D01*
X161384106Y-96137332D01*
X161384104Y-96137340D01*
X161371617Y-96200118D01*
X161339232Y-96262028D01*
X161278516Y-96296603D01*
X161208747Y-96292863D01*
X161152075Y-96251996D01*
X161128383Y-96200118D01*
X161115895Y-96137340D01*
X161115894Y-96137334D01*
X161091284Y-96077919D01*
X161048016Y-95973459D01*
X161048009Y-95973446D01*
X160949464Y-95825965D01*
X160949461Y-95825961D01*
X160824038Y-95700538D01*
X160824034Y-95700535D01*
X160676553Y-95601990D01*
X160676540Y-95601983D01*
X160512667Y-95534106D01*
X160512658Y-95534103D01*
X160338694Y-95499500D01*
X160338691Y-95499500D01*
X160161309Y-95499500D01*
X160161306Y-95499500D01*
X159987341Y-95534103D01*
X159987332Y-95534106D01*
X159823459Y-95601983D01*
X159823446Y-95601990D01*
X159675965Y-95700535D01*
X159675961Y-95700538D01*
X159550538Y-95825961D01*
X159550535Y-95825965D01*
X159451990Y-95973446D01*
X159451983Y-95973459D01*
X159384106Y-96137332D01*
X159384104Y-96137340D01*
X159371617Y-96200118D01*
X159339232Y-96262028D01*
X159278516Y-96296603D01*
X159208747Y-96292863D01*
X159152075Y-96251996D01*
X159128383Y-96200118D01*
X159115895Y-96137340D01*
X159115894Y-96137334D01*
X159091284Y-96077919D01*
X159048016Y-95973459D01*
X159048009Y-95973446D01*
X158949464Y-95825965D01*
X158949461Y-95825961D01*
X158824038Y-95700538D01*
X158824034Y-95700535D01*
X158676553Y-95601990D01*
X158676540Y-95601983D01*
X158512667Y-95534106D01*
X158512658Y-95534103D01*
X158338694Y-95499500D01*
X158338691Y-95499500D01*
X158161309Y-95499500D01*
X158161306Y-95499500D01*
X157987341Y-95534103D01*
X157987332Y-95534106D01*
X157823459Y-95601983D01*
X157823446Y-95601990D01*
X157675965Y-95700535D01*
X157675961Y-95700538D01*
X157550538Y-95825961D01*
X157550535Y-95825965D01*
X157451990Y-95973446D01*
X157451983Y-95973459D01*
X157384106Y-96137332D01*
X157384104Y-96137340D01*
X157371617Y-96200118D01*
X157339232Y-96262028D01*
X157278516Y-96296603D01*
X157208747Y-96292863D01*
X157152075Y-96251996D01*
X157128383Y-96200118D01*
X157115895Y-96137340D01*
X157115894Y-96137334D01*
X157091284Y-96077919D01*
X157048016Y-95973459D01*
X157048009Y-95973446D01*
X156949464Y-95825965D01*
X156949461Y-95825961D01*
X156824038Y-95700538D01*
X156824034Y-95700535D01*
X156676553Y-95601990D01*
X156676540Y-95601983D01*
X156512667Y-95534106D01*
X156512658Y-95534103D01*
X156338694Y-95499500D01*
X156338691Y-95499500D01*
X156161309Y-95499500D01*
X156161306Y-95499500D01*
X155987341Y-95534103D01*
X155987332Y-95534106D01*
X155823459Y-95601983D01*
X155823446Y-95601990D01*
X155675965Y-95700535D01*
X155675961Y-95700538D01*
X155550538Y-95825961D01*
X155550535Y-95825965D01*
X155451990Y-95973446D01*
X155451983Y-95973459D01*
X155389061Y-96125371D01*
X155345221Y-96179775D01*
X155278927Y-96201840D01*
X155211227Y-96184561D01*
X155163616Y-96133424D01*
X155150500Y-96077919D01*
X155150500Y-95680249D01*
X155150499Y-95680247D01*
X155138868Y-95621770D01*
X155138867Y-95621769D01*
X155094552Y-95555447D01*
X155028230Y-95511132D01*
X155028229Y-95511131D01*
X154969752Y-95499500D01*
X154969748Y-95499500D01*
X153530252Y-95499500D01*
X153530247Y-95499500D01*
X153471770Y-95511131D01*
X153471769Y-95511132D01*
X153405447Y-95555447D01*
X153361132Y-95621769D01*
X153361131Y-95621770D01*
X153349500Y-95680247D01*
X151390500Y-95680247D01*
X151390500Y-90534108D01*
X153739500Y-90534108D01*
X153739500Y-90665891D01*
X153773608Y-90793187D01*
X153806554Y-90850250D01*
X153839500Y-90907314D01*
X153932686Y-91000500D01*
X154046814Y-91066392D01*
X154174108Y-91100500D01*
X154174110Y-91100500D01*
X154305890Y-91100500D01*
X154305892Y-91100500D01*
X154433186Y-91066392D01*
X154547314Y-91000500D01*
X154640500Y-90907314D01*
X154706392Y-90793186D01*
X154740500Y-90665892D01*
X154740500Y-90534108D01*
X154706392Y-90406814D01*
X154640500Y-90292686D01*
X154547314Y-90199500D01*
X154490250Y-90166554D01*
X154433187Y-90133608D01*
X154369539Y-90116554D01*
X154305892Y-90099500D01*
X154174108Y-90099500D01*
X154046812Y-90133608D01*
X153932686Y-90199500D01*
X153932683Y-90199502D01*
X153839502Y-90292683D01*
X153839500Y-90292686D01*
X153773608Y-90406812D01*
X153739500Y-90534108D01*
X151390500Y-90534108D01*
X151390500Y-85046300D01*
X159898974Y-85028721D01*
X159892704Y-85049221D01*
X159869098Y-85126394D01*
X159869088Y-85126427D01*
X159829735Y-85282257D01*
X159829725Y-85282302D01*
X159798111Y-85439961D01*
X159798111Y-85439962D01*
X159774334Y-85598984D01*
X159774331Y-85599002D01*
X159758451Y-85758974D01*
X159758449Y-85759001D01*
X159750497Y-85919585D01*
X159750000Y-86000000D01*
X159750497Y-86080414D01*
X159758449Y-86240998D01*
X159758451Y-86241025D01*
X159774331Y-86400997D01*
X159774334Y-86401013D01*
X159798112Y-86560043D01*
X159813957Y-86639065D01*
X159829725Y-86717697D01*
X159829735Y-86717742D01*
X159869088Y-86873572D01*
X159869094Y-86873594D01*
X159869098Y-86873607D01*
X159916132Y-87027373D01*
X159970713Y-87178624D01*
X160032707Y-87326992D01*
X160097188Y-87462108D01*
X160101972Y-87472131D01*
X160178315Y-87613638D01*
X160261564Y-87751201D01*
X160261580Y-87751226D01*
X160351510Y-87884472D01*
X160351533Y-87884504D01*
X160447940Y-88013137D01*
X160447973Y-88013180D01*
X160550619Y-88136883D01*
X160550622Y-88136887D01*
X160659305Y-88255411D01*
X160659316Y-88255422D01*
X160773717Y-88368418D01*
X160893552Y-88475603D01*
X160893560Y-88475610D01*
X160893586Y-88475631D01*
X161018559Y-88576747D01*
X161018562Y-88576749D01*
X161148414Y-88671585D01*
X161148431Y-88671596D01*
X161282785Y-88759874D01*
X161282792Y-88759877D01*
X161282806Y-88759887D01*
X161421393Y-88841432D01*
X161563844Y-88916023D01*
X161709810Y-88983478D01*
X161858933Y-89043633D01*
X162010848Y-89096338D01*
X162165178Y-89141465D01*
X162165179Y-89141466D01*
X162165182Y-89141466D01*
X162165183Y-89141467D01*
X162321562Y-89178908D01*
X162479601Y-89208570D01*
X162638914Y-89230379D01*
X162799110Y-89244284D01*
X162959797Y-89250249D01*
X163120583Y-89248260D01*
X163281074Y-89238322D01*
X163440878Y-89220460D01*
X163440895Y-89220457D01*
X163440897Y-89220457D01*
X163599578Y-89194720D01*
X163599584Y-89194718D01*
X163599602Y-89194716D01*
X163756859Y-89161155D01*
X163912264Y-89119857D01*
X164065436Y-89070925D01*
X164216001Y-89014478D01*
X164363590Y-88950653D01*
X164507842Y-88879608D01*
X164648405Y-88801517D01*
X164784933Y-88716569D01*
X164917094Y-88624973D01*
X165044563Y-88526954D01*
X165167028Y-88422751D01*
X165167032Y-88422748D01*
X165284176Y-88312633D01*
X165284182Y-88312627D01*
X165284191Y-88312619D01*
X165395764Y-88196828D01*
X165501473Y-88075660D01*
X165601062Y-87949413D01*
X165694285Y-87818396D01*
X165780915Y-87682928D01*
X165860739Y-87543343D01*
X165933563Y-87399980D01*
X165999207Y-87253191D01*
X166057513Y-87103336D01*
X166108336Y-86950781D01*
X166151552Y-86795899D01*
X166187056Y-86639069D01*
X166214761Y-86480675D01*
X166234598Y-86321105D01*
X166246520Y-86160749D01*
X166250498Y-86000000D01*
X166246520Y-85839251D01*
X166234598Y-85678895D01*
X166214761Y-85519325D01*
X166187056Y-85360931D01*
X166151552Y-85204101D01*
X166108336Y-85049219D01*
X166097240Y-85015914D01*
X175050000Y-84997417D01*
X175050000Y-85725000D01*
G37*
%TD.AperFunction*%
%TD*%
%TA.AperFunction,Conductor*%
%TO.N,GND*%
G36*
X185943039Y-60750185D02*
G01*
X185988794Y-60802989D01*
X186000000Y-60854500D01*
X186000000Y-61532969D01*
X185993058Y-61556608D01*
X185990282Y-61581089D01*
X185983388Y-61589542D01*
X185980315Y-61600008D01*
X185961695Y-61616141D01*
X185946124Y-61635236D01*
X185931115Y-61642639D01*
X185927511Y-61645763D01*
X185921364Y-61647449D01*
X185914472Y-61650850D01*
X185902140Y-61654874D01*
X185892517Y-61655909D01*
X185847314Y-61672767D01*
X185844850Y-61673572D01*
X185832955Y-61676809D01*
X185806972Y-61682510D01*
X185637652Y-61746005D01*
X185615359Y-61752066D01*
X185464828Y-61778245D01*
X185456342Y-61779421D01*
X185388693Y-61786419D01*
X185365273Y-61788842D01*
X185352516Y-61789500D01*
X184526370Y-61789500D01*
X184526343Y-61789492D01*
X184475000Y-61789492D01*
X184311392Y-61789492D01*
X184311387Y-61789492D01*
X183986245Y-61826127D01*
X183986233Y-61826129D01*
X183667220Y-61898941D01*
X183667208Y-61898945D01*
X183358372Y-62007012D01*
X183358358Y-62007018D01*
X183063557Y-62148987D01*
X182786494Y-62323078D01*
X182530665Y-62527094D01*
X182299290Y-62758470D01*
X182299285Y-62758475D01*
X182095272Y-63014302D01*
X181921180Y-63291369D01*
X181779213Y-63586169D01*
X181779211Y-63586173D01*
X181671139Y-63895028D01*
X181671138Y-63895030D01*
X181598327Y-64214040D01*
X181598324Y-64214057D01*
X181561692Y-64539195D01*
X181561692Y-67169058D01*
X181560372Y-67187101D01*
X181549188Y-67263146D01*
X181549183Y-67263177D01*
X181540267Y-67323801D01*
X181540106Y-67324864D01*
X181497172Y-67600185D01*
X181493428Y-67616696D01*
X181371026Y-68024879D01*
X181355077Y-68096705D01*
X181349853Y-68132319D01*
X181349852Y-68132328D01*
X181344500Y-68205682D01*
X181344500Y-68286001D01*
X181348790Y-68325906D01*
X181349028Y-68335089D01*
X181349500Y-68339160D01*
X181349500Y-68560000D01*
X181340000Y-68560000D01*
X181340000Y-67710000D01*
X177990898Y-67710000D01*
X177998272Y-60730500D01*
X185876000Y-60730500D01*
X185943039Y-60750185D01*
G37*
%TD.AperFunction*%
%TA.AperFunction,Conductor*%
G36*
X193090000Y-68560000D02*
G01*
X183150499Y-68560000D01*
X183150499Y-68339628D01*
X183150496Y-68339608D01*
X183150417Y-68338125D01*
X183151500Y-68313811D01*
X183155500Y-68286000D01*
X183155500Y-68205668D01*
X183150355Y-68133726D01*
X183145332Y-68098791D01*
X183145042Y-68097457D01*
X183144980Y-68097033D01*
X183143317Y-68089527D01*
X183130018Y-68028377D01*
X183130017Y-68028375D01*
X183129939Y-68028015D01*
X183129572Y-68026854D01*
X183003796Y-67606856D01*
X183000708Y-67594135D01*
X182949121Y-67319000D01*
X182948323Y-67314228D01*
X182940986Y-67264337D01*
X182934011Y-67216902D01*
X182932692Y-67198862D01*
X182932692Y-64780047D01*
X182932693Y-64780043D01*
X182932692Y-64707232D01*
X182933008Y-64698386D01*
X182937521Y-64635284D01*
X182947757Y-64492149D01*
X182950275Y-64474645D01*
X182993279Y-64276954D01*
X182998260Y-64259987D01*
X183068971Y-64070403D01*
X183076315Y-64054324D01*
X183173278Y-63876748D01*
X183182837Y-63861872D01*
X183304089Y-63699897D01*
X183315663Y-63686540D01*
X183458736Y-63543467D01*
X183472093Y-63531893D01*
X183634070Y-63410639D01*
X183648938Y-63401083D01*
X183826526Y-63304113D01*
X183842599Y-63296772D01*
X184032182Y-63226062D01*
X184049140Y-63221083D01*
X184246844Y-63178075D01*
X184264345Y-63175558D01*
X184470470Y-63160816D01*
X184479316Y-63160500D01*
X184552237Y-63160500D01*
X185305552Y-63160500D01*
X185322494Y-63161663D01*
X185449973Y-63179245D01*
X185454273Y-63179916D01*
X185482739Y-63184866D01*
X185626923Y-63209942D01*
X185644883Y-63214471D01*
X185825004Y-63274512D01*
X185825007Y-63274512D01*
X185825011Y-63274514D01*
X185862176Y-63283659D01*
X185867988Y-63285240D01*
X185871973Y-63286428D01*
X185892517Y-63294091D01*
X185900558Y-63294955D01*
X185911445Y-63298203D01*
X185931598Y-63311277D01*
X185953795Y-63320468D01*
X185960378Y-63329947D01*
X185970061Y-63336229D01*
X185979946Y-63358123D01*
X185993650Y-63377856D01*
X185996335Y-63394424D01*
X185998812Y-63399909D01*
X185998054Y-63405024D01*
X186000000Y-63417029D01*
X186000000Y-64750000D01*
X190000000Y-64750000D01*
X190000000Y-60854500D01*
X190019685Y-60787461D01*
X190072489Y-60741706D01*
X190124000Y-60730500D01*
X193098355Y-60730500D01*
X193090000Y-68560000D01*
G37*
%TD.AperFunction*%
%TD*%
%TA.AperFunction,Conductor*%
%TO.N,VBUS*%
G36*
X220766163Y-88799288D02*
G01*
X220833093Y-88819328D01*
X220878567Y-88872374D01*
X220889500Y-88923285D01*
X220889500Y-91576000D01*
X220869815Y-91643039D01*
X220817011Y-91688794D01*
X220765500Y-91700000D01*
X213425000Y-91700000D01*
X213424999Y-91700000D01*
X213424999Y-91700001D01*
X213174999Y-92100001D01*
X212846879Y-93646855D01*
X212813712Y-93708350D01*
X212752563Y-93742152D01*
X212719680Y-93744984D01*
X212414722Y-93730462D01*
X212348695Y-93707611D01*
X212305503Y-93652690D01*
X212296672Y-93610197D01*
X212241361Y-91701794D01*
X212241309Y-91698202D01*
X212241309Y-90823219D01*
X212260994Y-90756180D01*
X212313798Y-90710425D01*
X212364522Y-90699221D01*
X216200000Y-90675000D01*
X216200000Y-88899661D01*
X216219685Y-88832622D01*
X216272489Y-88786867D01*
X216324659Y-88775663D01*
X220766163Y-88799288D01*
G37*
%TD.AperFunction*%
%TD*%
%TA.AperFunction,Conductor*%
%TO.N,GND*%
G36*
X187588385Y-84971510D02*
G01*
X187588385Y-84971511D01*
X187588384Y-84971511D01*
X187084365Y-85971798D01*
X187036619Y-86022809D01*
X186973628Y-86040000D01*
X186224383Y-86040000D01*
X186157344Y-86020315D01*
X186114983Y-85974375D01*
X185582069Y-84975655D01*
X185475000Y-84775000D01*
X187700000Y-84750000D01*
X187588385Y-84971510D01*
G37*
%TD.AperFunction*%
%TD*%
%TA.AperFunction,Conductor*%
%TO.N,/RF_IN*%
G36*
X185993259Y-62156125D02*
G01*
X185999268Y-62162556D01*
X186000000Y-62166594D01*
X186000000Y-62784044D01*
X185996632Y-62792176D01*
X185988500Y-62795544D01*
X185984863Y-62794954D01*
X185760004Y-62720001D01*
X185760002Y-62720000D01*
X185760000Y-62720000D01*
X185698663Y-62709332D01*
X185529994Y-62679998D01*
X185249929Y-62641369D01*
X185242333Y-62636921D01*
X185240000Y-62629977D01*
X185240000Y-62320371D01*
X185243368Y-62312239D01*
X185250315Y-62308932D01*
X185530000Y-62280000D01*
X185760000Y-62240000D01*
X185984463Y-62155826D01*
X185993259Y-62156125D01*
G37*
%TD.AperFunction*%
%TD*%
%TA.AperFunction,Conductor*%
%TO.N,GND*%
G36*
X210268039Y-91669685D02*
G01*
X210313794Y-91722489D01*
X210325000Y-91774000D01*
X210325000Y-93600004D01*
X210524999Y-94299999D01*
X210525000Y-94300000D01*
X209425000Y-94300000D01*
X209675000Y-93600000D01*
X209675000Y-91774000D01*
X209694685Y-91706961D01*
X209747489Y-91661206D01*
X209799000Y-91650000D01*
X210201000Y-91650000D01*
X210268039Y-91669685D01*
G37*
%TD.AperFunction*%
%TD*%
%TA.AperFunction,Conductor*%
%TO.N,GND*%
G36*
X177990898Y-67710001D02*
G01*
X181340000Y-67710000D01*
X181340000Y-68560000D01*
X181649500Y-68560000D01*
X181649500Y-70207252D01*
X181661131Y-70265729D01*
X181661132Y-70265730D01*
X181705447Y-70332052D01*
X181771769Y-70376367D01*
X181771770Y-70376368D01*
X181830247Y-70387999D01*
X181830250Y-70388000D01*
X181830252Y-70388000D01*
X182669750Y-70388000D01*
X182669751Y-70387999D01*
X182684568Y-70385052D01*
X182728229Y-70376368D01*
X182728229Y-70376367D01*
X182728231Y-70376367D01*
X182746578Y-70364108D01*
X194569500Y-70364108D01*
X194569500Y-70495891D01*
X194603608Y-70623187D01*
X194617005Y-70646391D01*
X194669500Y-70737314D01*
X194762686Y-70830500D01*
X194859043Y-70886132D01*
X194876810Y-70896390D01*
X194876814Y-70896392D01*
X195004108Y-70930500D01*
X195004110Y-70930500D01*
X195135890Y-70930500D01*
X195135892Y-70930500D01*
X195263186Y-70896392D01*
X195377314Y-70830500D01*
X195470500Y-70737314D01*
X195536392Y-70623186D01*
X195570500Y-70495892D01*
X195570500Y-70364108D01*
X195536392Y-70236814D01*
X195470500Y-70122686D01*
X195461922Y-70114108D01*
X200579500Y-70114108D01*
X200579500Y-70245892D01*
X200590539Y-70287089D01*
X200613608Y-70373187D01*
X200646554Y-70430250D01*
X200679500Y-70487314D01*
X200772686Y-70580500D01*
X200886814Y-70646392D01*
X201014108Y-70680500D01*
X201014110Y-70680500D01*
X201145890Y-70680500D01*
X201145892Y-70680500D01*
X201273186Y-70646392D01*
X201387314Y-70580500D01*
X201480500Y-70487314D01*
X201546392Y-70373186D01*
X201580500Y-70245892D01*
X201580500Y-70114108D01*
X201546392Y-69986814D01*
X201480500Y-69872686D01*
X201387314Y-69779500D01*
X201320627Y-69740998D01*
X201273187Y-69713608D01*
X201162727Y-69684011D01*
X201145892Y-69679500D01*
X201014108Y-69679500D01*
X200886812Y-69713608D01*
X200772686Y-69779500D01*
X200772683Y-69779502D01*
X200679502Y-69872683D01*
X200679500Y-69872686D01*
X200613608Y-69986812D01*
X200588063Y-70082149D01*
X200579500Y-70114108D01*
X195461922Y-70114108D01*
X195377314Y-70029500D01*
X195303380Y-69986814D01*
X195263187Y-69963608D01*
X195195848Y-69945565D01*
X195135892Y-69929500D01*
X195004108Y-69929500D01*
X194876812Y-69963608D01*
X194762686Y-70029500D01*
X194762683Y-70029502D01*
X194669502Y-70122683D01*
X194669500Y-70122686D01*
X194603608Y-70236812D01*
X194569500Y-70364108D01*
X182746578Y-70364108D01*
X182794552Y-70332052D01*
X182838867Y-70265731D01*
X182838867Y-70265730D01*
X182838868Y-70265729D01*
X182850499Y-70207252D01*
X182850500Y-70207250D01*
X182850500Y-68560000D01*
X193090000Y-68560000D01*
X193090272Y-68305513D01*
X196770285Y-68305513D01*
X196770285Y-68494486D01*
X196799844Y-68681118D01*
X196858239Y-68860836D01*
X196939002Y-69019341D01*
X196944025Y-69029199D01*
X197055095Y-69182073D01*
X197188712Y-69315690D01*
X197341586Y-69426760D01*
X197421132Y-69467290D01*
X197509948Y-69512545D01*
X197509950Y-69512545D01*
X197509953Y-69512547D01*
X197606282Y-69543846D01*
X197689666Y-69570940D01*
X197876299Y-69600500D01*
X197876304Y-69600500D01*
X198065271Y-69600500D01*
X198251903Y-69570940D01*
X198286988Y-69559540D01*
X198431617Y-69512547D01*
X198599984Y-69426760D01*
X198752858Y-69315690D01*
X198886475Y-69182073D01*
X198997545Y-69029199D01*
X199083332Y-68860832D01*
X199141725Y-68681118D01*
X199150387Y-68626427D01*
X199171285Y-68494486D01*
X199171285Y-68305513D01*
X199141725Y-68118881D01*
X199099610Y-67989266D01*
X199083332Y-67939168D01*
X199083330Y-67939165D01*
X199083330Y-67939163D01*
X198997544Y-67770800D01*
X198886475Y-67617927D01*
X198752858Y-67484310D01*
X198609628Y-67380247D01*
X201770285Y-67380247D01*
X201770285Y-69419752D01*
X201781916Y-69478229D01*
X201781917Y-69478230D01*
X201826232Y-69544552D01*
X201892554Y-69588867D01*
X201892555Y-69588868D01*
X201951032Y-69600499D01*
X201951035Y-69600500D01*
X201951037Y-69600500D01*
X203990535Y-69600500D01*
X203990536Y-69600499D01*
X204005353Y-69597552D01*
X204049014Y-69588868D01*
X204049014Y-69588867D01*
X204049016Y-69588867D01*
X204115337Y-69544552D01*
X204159652Y-69478231D01*
X204159652Y-69478229D01*
X204159653Y-69478229D01*
X204171284Y-69419752D01*
X204171285Y-69419750D01*
X204171285Y-67380249D01*
X204171284Y-67380247D01*
X204159653Y-67321770D01*
X204159652Y-67321769D01*
X204115337Y-67255447D01*
X204049015Y-67211132D01*
X204049014Y-67211131D01*
X203990537Y-67199500D01*
X203990533Y-67199500D01*
X201951037Y-67199500D01*
X201951032Y-67199500D01*
X201892555Y-67211131D01*
X201892554Y-67211132D01*
X201826232Y-67255447D01*
X201781917Y-67321769D01*
X201781916Y-67321770D01*
X201770285Y-67380247D01*
X198609628Y-67380247D01*
X198599984Y-67373240D01*
X198592163Y-67369255D01*
X198431621Y-67287454D01*
X198251903Y-67229059D01*
X198065271Y-67199500D01*
X198065266Y-67199500D01*
X197876304Y-67199500D01*
X197876299Y-67199500D01*
X197689666Y-67229059D01*
X197509948Y-67287454D01*
X197341585Y-67373240D01*
X197271281Y-67424320D01*
X197188712Y-67484310D01*
X197188710Y-67484312D01*
X197188709Y-67484312D01*
X197055097Y-67617924D01*
X197055097Y-67617925D01*
X197055095Y-67617927D01*
X197008831Y-67681604D01*
X196944025Y-67770800D01*
X196858239Y-67939163D01*
X196799844Y-68118881D01*
X196770285Y-68305513D01*
X193090272Y-68305513D01*
X193093469Y-65309108D01*
X202574500Y-65309108D01*
X202574500Y-65440891D01*
X202608608Y-65568187D01*
X202641554Y-65625250D01*
X202674500Y-65682314D01*
X202767686Y-65775500D01*
X202881814Y-65841392D01*
X203009108Y-65875500D01*
X203009110Y-65875500D01*
X203140890Y-65875500D01*
X203140892Y-65875500D01*
X203268186Y-65841392D01*
X203382314Y-65775500D01*
X203475500Y-65682314D01*
X203541392Y-65568186D01*
X203575500Y-65440892D01*
X203575500Y-65309108D01*
X203541392Y-65181814D01*
X203475500Y-65067686D01*
X203382314Y-64974500D01*
X203325250Y-64941554D01*
X203268187Y-64908608D01*
X203204539Y-64891554D01*
X203140892Y-64874500D01*
X203009108Y-64874500D01*
X202881812Y-64908608D01*
X202767686Y-64974500D01*
X202767683Y-64974502D01*
X202674502Y-65067683D01*
X202674500Y-65067686D01*
X202608608Y-65181812D01*
X202574500Y-65309108D01*
X193093469Y-65309108D01*
X193095523Y-63384108D01*
X201524500Y-63384108D01*
X201524500Y-63515891D01*
X201558608Y-63643187D01*
X201587630Y-63693454D01*
X201624500Y-63757314D01*
X201717686Y-63850500D01*
X201831814Y-63916392D01*
X201959108Y-63950500D01*
X201959110Y-63950500D01*
X202090890Y-63950500D01*
X202090892Y-63950500D01*
X202218186Y-63916392D01*
X202332314Y-63850500D01*
X202395995Y-63786819D01*
X202457318Y-63753334D01*
X202483676Y-63750500D01*
X205854167Y-63750500D01*
X205921206Y-63770185D01*
X205941848Y-63786819D01*
X207233181Y-65078152D01*
X207266666Y-65139475D01*
X207269500Y-65165833D01*
X207269500Y-69891323D01*
X207249815Y-69958362D01*
X207233182Y-69979004D01*
X207169500Y-70042686D01*
X207103608Y-70156812D01*
X207082172Y-70236814D01*
X207069500Y-70284108D01*
X207069500Y-70415892D01*
X207079358Y-70452683D01*
X207103608Y-70543187D01*
X207128797Y-70586814D01*
X207169500Y-70657314D01*
X207262686Y-70750500D01*
X207376814Y-70816392D01*
X207504108Y-70850500D01*
X207504110Y-70850500D01*
X207635890Y-70850500D01*
X207635892Y-70850500D01*
X207763186Y-70816392D01*
X207877314Y-70750500D01*
X207970500Y-70657314D01*
X208036392Y-70543186D01*
X208070500Y-70415892D01*
X208070500Y-70284108D01*
X208036392Y-70156814D01*
X207970500Y-70042686D01*
X207906818Y-69979004D01*
X207873334Y-69917680D01*
X207870500Y-69891323D01*
X207870500Y-67355730D01*
X210664500Y-67355730D01*
X210664500Y-67989269D01*
X210667353Y-68019699D01*
X210667353Y-68019701D01*
X210709969Y-68141487D01*
X210712207Y-68147882D01*
X210792850Y-68257150D01*
X210902118Y-68337793D01*
X210932983Y-68348593D01*
X211030299Y-68382646D01*
X211060730Y-68385500D01*
X211060734Y-68385500D01*
X212069270Y-68385500D01*
X212099699Y-68382646D01*
X212099701Y-68382646D01*
X212163790Y-68360219D01*
X212227882Y-68337793D01*
X212337150Y-68257150D01*
X212417793Y-68147882D01*
X212459788Y-68027868D01*
X212462646Y-68019701D01*
X212462646Y-68019699D01*
X212465500Y-67989269D01*
X212465500Y-67355730D01*
X212462646Y-67325300D01*
X212462646Y-67325298D01*
X212422697Y-67211133D01*
X212417793Y-67197118D01*
X212337150Y-67087850D01*
X212337148Y-67087849D01*
X212337148Y-67087848D01*
X212291499Y-67054158D01*
X212249248Y-66998511D01*
X212243789Y-66928855D01*
X212276856Y-66867305D01*
X212337950Y-66833404D01*
X212365981Y-66832143D01*
X212365981Y-66830500D01*
X212505890Y-66830500D01*
X212505892Y-66830500D01*
X212633186Y-66796392D01*
X212747314Y-66730500D01*
X212840500Y-66637314D01*
X212906392Y-66523186D01*
X212940500Y-66395892D01*
X212940500Y-66264108D01*
X212906392Y-66136814D01*
X212840500Y-66022686D01*
X212747314Y-65929500D01*
X212690250Y-65896554D01*
X212633187Y-65863608D01*
X212550270Y-65841391D01*
X212505892Y-65829500D01*
X212374108Y-65829500D01*
X212246812Y-65863608D01*
X212132686Y-65929500D01*
X212075181Y-65987005D01*
X212067234Y-65991343D01*
X212061810Y-65998590D01*
X212037050Y-66007824D01*
X212013857Y-66020489D01*
X212004828Y-66019843D01*
X211996346Y-66023007D01*
X211970521Y-66017389D01*
X211944166Y-66015504D01*
X211935114Y-66009686D01*
X211928073Y-66008155D01*
X211899819Y-65987004D01*
X211876819Y-65964004D01*
X211843334Y-65902681D01*
X211840500Y-65876323D01*
X211840500Y-64847975D01*
X211860185Y-64780936D01*
X211895607Y-64744874D01*
X211986542Y-64684114D01*
X212084114Y-64586542D01*
X212160775Y-64471811D01*
X212213580Y-64344328D01*
X212240500Y-64208993D01*
X212240500Y-64071007D01*
X212240500Y-64071004D01*
X212213581Y-63935677D01*
X212213580Y-63935676D01*
X212213580Y-63935672D01*
X212178301Y-63850500D01*
X212160778Y-63808195D01*
X212160771Y-63808182D01*
X212084114Y-63693458D01*
X212084111Y-63693454D01*
X211986545Y-63595888D01*
X211986541Y-63595885D01*
X211871817Y-63519228D01*
X211871804Y-63519221D01*
X211744332Y-63466421D01*
X211744322Y-63466418D01*
X211608995Y-63439500D01*
X211608993Y-63439500D01*
X211471007Y-63439500D01*
X211471005Y-63439500D01*
X211335677Y-63466418D01*
X211335667Y-63466421D01*
X211208195Y-63519221D01*
X211208182Y-63519228D01*
X211093458Y-63595885D01*
X211093454Y-63595888D01*
X210995888Y-63693454D01*
X210995885Y-63693458D01*
X210919228Y-63808182D01*
X210919221Y-63808195D01*
X210866421Y-63935667D01*
X210866418Y-63935677D01*
X210839500Y-64071004D01*
X210839500Y-64071007D01*
X210839500Y-64208993D01*
X210839500Y-64208995D01*
X210839499Y-64208995D01*
X210866418Y-64344322D01*
X210866421Y-64344332D01*
X210919221Y-64471804D01*
X210919228Y-64471817D01*
X210995885Y-64586541D01*
X210995888Y-64586545D01*
X211093455Y-64684112D01*
X211093458Y-64684114D01*
X211184391Y-64744874D01*
X211229196Y-64798484D01*
X211239500Y-64847975D01*
X211239500Y-65876323D01*
X211219815Y-65943362D01*
X211203182Y-65964004D01*
X211139500Y-66027686D01*
X211073608Y-66141812D01*
X211057919Y-66200365D01*
X211039500Y-66269108D01*
X211039500Y-66400892D01*
X211045917Y-66424841D01*
X211073608Y-66528187D01*
X211088556Y-66554077D01*
X211139500Y-66642314D01*
X211139502Y-66642316D01*
X211203181Y-66705995D01*
X211217884Y-66732922D01*
X211234477Y-66758741D01*
X211235368Y-66764941D01*
X211236666Y-66767318D01*
X211239500Y-66793676D01*
X211239500Y-66835500D01*
X211219815Y-66902539D01*
X211167011Y-66948294D01*
X211115500Y-66959500D01*
X211060730Y-66959500D01*
X211030300Y-66962353D01*
X211030298Y-66962353D01*
X210902119Y-67007206D01*
X210902117Y-67007207D01*
X210792850Y-67087850D01*
X210712207Y-67197117D01*
X210712206Y-67197119D01*
X210667353Y-67325298D01*
X210667353Y-67325300D01*
X210664500Y-67355730D01*
X207870500Y-67355730D01*
X207870500Y-64950439D01*
X207850020Y-64874009D01*
X207850017Y-64874004D01*
X207810464Y-64805495D01*
X207810458Y-64805487D01*
X206214512Y-63209541D01*
X206214504Y-63209535D01*
X206145995Y-63169982D01*
X206145990Y-63169979D01*
X206120513Y-63163152D01*
X206069562Y-63149500D01*
X206069560Y-63149500D01*
X202483676Y-63149500D01*
X202416637Y-63129815D01*
X202395995Y-63113181D01*
X202332316Y-63049502D01*
X202332314Y-63049500D01*
X202275250Y-63016554D01*
X202218187Y-62983608D01*
X202154539Y-62966554D01*
X202090892Y-62949500D01*
X201959108Y-62949500D01*
X201831812Y-62983608D01*
X201717686Y-63049500D01*
X201717683Y-63049502D01*
X201624502Y-63142683D01*
X201624500Y-63142686D01*
X201558608Y-63256812D01*
X201524500Y-63384108D01*
X193095523Y-63384108D01*
X193098355Y-60730500D01*
X214905658Y-60730500D01*
X214972697Y-60750185D01*
X215018452Y-60802989D01*
X215029658Y-60854500D01*
X215029658Y-63275982D01*
X215031890Y-63280070D01*
X215034724Y-63306428D01*
X215034724Y-63430570D01*
X215075156Y-63789414D01*
X215075157Y-63789423D01*
X215075158Y-63789427D01*
X215079442Y-63808195D01*
X215155517Y-64141504D01*
X215155518Y-64141506D01*
X215274792Y-64482373D01*
X215431479Y-64807737D01*
X215473121Y-64874009D01*
X215623615Y-65113519D01*
X215848777Y-65395864D01*
X216104136Y-65651223D01*
X216386481Y-65876385D01*
X216692260Y-66068519D01*
X217017628Y-66225208D01*
X217358495Y-66344482D01*
X217710573Y-66424842D01*
X218069430Y-66465275D01*
X218069431Y-66465276D01*
X218069434Y-66465276D01*
X218193572Y-66465276D01*
X218210825Y-66470342D01*
X218250000Y-66470342D01*
X220765500Y-66470342D01*
X220832539Y-66490027D01*
X220878294Y-66542831D01*
X220889500Y-66594342D01*
X220889500Y-84778962D01*
X220869815Y-84846001D01*
X220817011Y-84891756D01*
X220765756Y-84902962D01*
X219004756Y-84906601D01*
X218937676Y-84887055D01*
X218891812Y-84834345D01*
X218880500Y-84782601D01*
X218880500Y-83410249D01*
X218880499Y-83410247D01*
X218868868Y-83351770D01*
X218868867Y-83351769D01*
X218824552Y-83285447D01*
X218758230Y-83241132D01*
X218758229Y-83241131D01*
X218699752Y-83229500D01*
X218699748Y-83229500D01*
X216660252Y-83229500D01*
X216660247Y-83229500D01*
X216601770Y-83241131D01*
X216601769Y-83241132D01*
X216535447Y-83285447D01*
X216491132Y-83351769D01*
X216491131Y-83351770D01*
X216479500Y-83410247D01*
X216479500Y-83763745D01*
X216459815Y-83830784D01*
X216407011Y-83876539D01*
X216337853Y-83886483D01*
X216274297Y-83857458D01*
X216267819Y-83851426D01*
X214436819Y-82020426D01*
X214403334Y-81959103D01*
X214400500Y-81932745D01*
X214400500Y-79449500D01*
X214420185Y-79382461D01*
X214472989Y-79336706D01*
X214524500Y-79325500D01*
X217319750Y-79325500D01*
X217319751Y-79325499D01*
X217334568Y-79322552D01*
X217378229Y-79313868D01*
X217378229Y-79313867D01*
X217378231Y-79313867D01*
X217444552Y-79269552D01*
X217488867Y-79203231D01*
X217488867Y-79203229D01*
X217488868Y-79203229D01*
X217499989Y-79147316D01*
X217500500Y-79144748D01*
X217500500Y-78705252D01*
X217500500Y-78705249D01*
X217500499Y-78705247D01*
X217486485Y-78634790D01*
X217487762Y-78634535D01*
X217481680Y-78577991D01*
X217488694Y-78554100D01*
X217491847Y-78538248D01*
X217500500Y-78494748D01*
X217500500Y-78055252D01*
X217500500Y-78055249D01*
X217500499Y-78055247D01*
X217486485Y-77984790D01*
X217487762Y-77984535D01*
X217481680Y-77927991D01*
X217488694Y-77904100D01*
X217497802Y-77858313D01*
X217500500Y-77844748D01*
X217500500Y-77405252D01*
X217500500Y-77405249D01*
X217500499Y-77405247D01*
X217486485Y-77334790D01*
X217487762Y-77334535D01*
X217481680Y-77277991D01*
X217488694Y-77254100D01*
X217489638Y-77249354D01*
X217500500Y-77194748D01*
X217500500Y-76755252D01*
X217500500Y-76755249D01*
X217500499Y-76755247D01*
X217488868Y-76696770D01*
X217488867Y-76696769D01*
X217444552Y-76630447D01*
X217378230Y-76586132D01*
X217378229Y-76586131D01*
X217319752Y-76574500D01*
X217319748Y-76574500D01*
X215630252Y-76574500D01*
X215630247Y-76574500D01*
X215571770Y-76586131D01*
X215571769Y-76586132D01*
X215505447Y-76630447D01*
X215461132Y-76696769D01*
X215461131Y-76696770D01*
X215449500Y-76755247D01*
X215449500Y-77100500D01*
X215429815Y-77167539D01*
X215377011Y-77213294D01*
X215325500Y-77224500D01*
X213835339Y-77224500D01*
X213835323Y-77224499D01*
X213827727Y-77224499D01*
X213722273Y-77224499D01*
X213666290Y-77239500D01*
X213620412Y-77251793D01*
X213529084Y-77304522D01*
X212379522Y-78454084D01*
X212379520Y-78454087D01*
X212345479Y-78513048D01*
X212326793Y-78545412D01*
X212310520Y-78606144D01*
X212310520Y-78606145D01*
X212299500Y-78647270D01*
X212299500Y-82176000D01*
X212279815Y-82243039D01*
X212227011Y-82288794D01*
X212175500Y-82300000D01*
X206224500Y-82300000D01*
X206157461Y-82280315D01*
X206111706Y-82227511D01*
X206100500Y-82176000D01*
X206100500Y-75050833D01*
X206109144Y-75021392D01*
X206115668Y-74991406D01*
X206119422Y-74986390D01*
X206120185Y-74983794D01*
X206136819Y-74963152D01*
X206163152Y-74936819D01*
X206224475Y-74903334D01*
X206250833Y-74900500D01*
X208064167Y-74900500D01*
X208131206Y-74920185D01*
X208151848Y-74936819D01*
X208163681Y-74948652D01*
X208197166Y-75009975D01*
X208200000Y-75036333D01*
X208200000Y-77175000D01*
X211825000Y-77175000D01*
X211825000Y-74925000D01*
X211678570Y-74925000D01*
X211611531Y-74905315D01*
X211565776Y-74852511D01*
X211558796Y-74833095D01*
X211555022Y-74819013D01*
X211555022Y-74819012D01*
X211547447Y-74805892D01*
X211515460Y-74750489D01*
X210006819Y-73241848D01*
X209973334Y-73180525D01*
X209970500Y-73154167D01*
X209970500Y-72548756D01*
X209990185Y-72481717D01*
X210042989Y-72435962D01*
X210105335Y-72425423D01*
X210105338Y-72425365D01*
X210105608Y-72425377D01*
X210106080Y-72425298D01*
X210108234Y-72425500D01*
X210741770Y-72425500D01*
X210772199Y-72422646D01*
X210772201Y-72422646D01*
X210836290Y-72400219D01*
X210900382Y-72377793D01*
X211009650Y-72297150D01*
X211090293Y-72187882D01*
X211127233Y-72082314D01*
X211135146Y-72059701D01*
X211135146Y-72059699D01*
X211138000Y-72029269D01*
X211138000Y-71020730D01*
X211537000Y-71020730D01*
X211537000Y-72029269D01*
X211539853Y-72059699D01*
X211539853Y-72059701D01*
X211579008Y-72171596D01*
X211584707Y-72187882D01*
X211665350Y-72297150D01*
X211774618Y-72377793D01*
X211817345Y-72392744D01*
X211902799Y-72422646D01*
X211933230Y-72425500D01*
X211933234Y-72425500D01*
X212566770Y-72425500D01*
X212597199Y-72422646D01*
X212597201Y-72422646D01*
X212661290Y-72400219D01*
X212725382Y-72377793D01*
X212834650Y-72297150D01*
X212915293Y-72187882D01*
X212952233Y-72082314D01*
X212960146Y-72059701D01*
X212960146Y-72059699D01*
X212963000Y-72029269D01*
X212963000Y-71949500D01*
X212982685Y-71882461D01*
X213035489Y-71836706D01*
X213087000Y-71825500D01*
X214185033Y-71825500D01*
X214252072Y-71845185D01*
X214272714Y-71861819D01*
X214280446Y-71869551D01*
X214346769Y-71913867D01*
X214346770Y-71913868D01*
X214405247Y-71925499D01*
X214405250Y-71925500D01*
X214405252Y-71925500D01*
X215494750Y-71925500D01*
X215494751Y-71925499D01*
X215509568Y-71922552D01*
X215553229Y-71913868D01*
X215553229Y-71913867D01*
X215553231Y-71913867D01*
X215619552Y-71869552D01*
X215619553Y-71869551D01*
X215627286Y-71861819D01*
X215688609Y-71828334D01*
X215714967Y-71825500D01*
X218335033Y-71825500D01*
X218402072Y-71845185D01*
X218422714Y-71861819D01*
X218430446Y-71869551D01*
X218496769Y-71913867D01*
X218496770Y-71913868D01*
X218555247Y-71925499D01*
X218555250Y-71925500D01*
X218555252Y-71925500D01*
X219644750Y-71925500D01*
X219644751Y-71925499D01*
X219659568Y-71922552D01*
X219703229Y-71913868D01*
X219703229Y-71913867D01*
X219703231Y-71913867D01*
X219769552Y-71869552D01*
X219813867Y-71803231D01*
X219813867Y-71803229D01*
X219813868Y-71803229D01*
X219825499Y-71744752D01*
X219825500Y-71744750D01*
X219825500Y-71055249D01*
X219825499Y-71055247D01*
X219813868Y-70996770D01*
X219813867Y-70996769D01*
X219769552Y-70930447D01*
X219703230Y-70886132D01*
X219703229Y-70886131D01*
X219644752Y-70874500D01*
X219644748Y-70874500D01*
X218555252Y-70874500D01*
X218555247Y-70874500D01*
X218496770Y-70886131D01*
X218496769Y-70886132D01*
X218430447Y-70930447D01*
X218386132Y-70996769D01*
X218386131Y-70996770D01*
X218374500Y-71055247D01*
X218374500Y-71100500D01*
X218354815Y-71167539D01*
X218302011Y-71213294D01*
X218250500Y-71224500D01*
X215799500Y-71224500D01*
X215732461Y-71204815D01*
X215686706Y-71152011D01*
X215675500Y-71100500D01*
X215675500Y-71055249D01*
X215675499Y-71055247D01*
X215663868Y-70996770D01*
X215663867Y-70996769D01*
X215619552Y-70930447D01*
X215553230Y-70886132D01*
X215553229Y-70886131D01*
X215494752Y-70874500D01*
X215494748Y-70874500D01*
X214405252Y-70874500D01*
X214405247Y-70874500D01*
X214346770Y-70886131D01*
X214346769Y-70886132D01*
X214280447Y-70930447D01*
X214236132Y-70996769D01*
X214236131Y-70996770D01*
X214224500Y-71055247D01*
X214224500Y-71100500D01*
X214204815Y-71167539D01*
X214152011Y-71213294D01*
X214100500Y-71224500D01*
X213087000Y-71224500D01*
X213019961Y-71204815D01*
X212974206Y-71152011D01*
X212963000Y-71100500D01*
X212963000Y-71020730D01*
X212960146Y-70990300D01*
X212960146Y-70990298D01*
X212923695Y-70886131D01*
X212915293Y-70862118D01*
X212834650Y-70752850D01*
X212725382Y-70672207D01*
X212725380Y-70672206D01*
X212597200Y-70627353D01*
X212566770Y-70624500D01*
X212566766Y-70624500D01*
X211933234Y-70624500D01*
X211933230Y-70624500D01*
X211902800Y-70627353D01*
X211902798Y-70627353D01*
X211774619Y-70672206D01*
X211774617Y-70672207D01*
X211665350Y-70752850D01*
X211584707Y-70862117D01*
X211584706Y-70862119D01*
X211539853Y-70990298D01*
X211539853Y-70990300D01*
X211537000Y-71020730D01*
X211138000Y-71020730D01*
X211135146Y-70990300D01*
X211135146Y-70990298D01*
X211098695Y-70886131D01*
X211090293Y-70862118D01*
X211009650Y-70752850D01*
X210900382Y-70672207D01*
X210900379Y-70672206D01*
X210808544Y-70640071D01*
X210789555Y-70626451D01*
X210768297Y-70616743D01*
X210761693Y-70606467D01*
X210751769Y-70599349D01*
X210743157Y-70577625D01*
X210730523Y-70557965D01*
X210727767Y-70538798D01*
X210726022Y-70534396D01*
X210725500Y-70523030D01*
X210725500Y-70275236D01*
X210745185Y-70208197D01*
X210797989Y-70162442D01*
X210867147Y-70152498D01*
X210892940Y-70160888D01*
X210893348Y-70159724D01*
X210902117Y-70162792D01*
X210902118Y-70162793D01*
X210930029Y-70172559D01*
X211030299Y-70207646D01*
X211060730Y-70210500D01*
X211060734Y-70210500D01*
X212069270Y-70210500D01*
X212099699Y-70207646D01*
X212099701Y-70207646D01*
X212163790Y-70185219D01*
X212227882Y-70162793D01*
X212337150Y-70082150D01*
X212417793Y-69972882D01*
X212452854Y-69872683D01*
X212462646Y-69844701D01*
X212462646Y-69844699D01*
X212465500Y-69814269D01*
X212465500Y-69180730D01*
X212462646Y-69150300D01*
X212462646Y-69150298D01*
X212429006Y-69054163D01*
X212417793Y-69022118D01*
X212337150Y-68912850D01*
X212227882Y-68832207D01*
X212227880Y-68832206D01*
X212099700Y-68787353D01*
X212069270Y-68784500D01*
X212069266Y-68784500D01*
X211060734Y-68784500D01*
X211060730Y-68784500D01*
X211030300Y-68787353D01*
X211030298Y-68787353D01*
X210902119Y-68832206D01*
X210902117Y-68832207D01*
X210792850Y-68912850D01*
X210712207Y-69022117D01*
X210669082Y-69145359D01*
X210628360Y-69202135D01*
X210614043Y-69211789D01*
X210552992Y-69247038D01*
X210552986Y-69247042D01*
X210184541Y-69615487D01*
X210184535Y-69615495D01*
X210144982Y-69684004D01*
X210144979Y-69684009D01*
X210124500Y-69760439D01*
X210124500Y-70523030D01*
X210104815Y-70590069D01*
X210052011Y-70635824D01*
X210041456Y-70640071D01*
X209949617Y-70672207D01*
X209840350Y-70752850D01*
X209759707Y-70862117D01*
X209759706Y-70862119D01*
X209714853Y-70990298D01*
X209714853Y-70990300D01*
X209712000Y-71020730D01*
X209712000Y-71142794D01*
X209708618Y-71154309D01*
X209709760Y-71166258D01*
X209698956Y-71187215D01*
X209692315Y-71209833D01*
X209682445Y-71219244D01*
X209677745Y-71228362D01*
X209650003Y-71250179D01*
X209632128Y-71260500D01*
X209619756Y-71267642D01*
X209590489Y-71284539D01*
X209429541Y-71445487D01*
X209429535Y-71445495D01*
X209389982Y-71514004D01*
X209389979Y-71514009D01*
X209384975Y-71532686D01*
X209371443Y-71583189D01*
X209369500Y-71590439D01*
X209369500Y-72905500D01*
X209349815Y-72972539D01*
X209297011Y-73018294D01*
X209245500Y-73029500D01*
X205430438Y-73029500D01*
X205392224Y-73039739D01*
X205354009Y-73049979D01*
X205354004Y-73049982D01*
X205285495Y-73089535D01*
X205285487Y-73089541D01*
X204329541Y-74045487D01*
X204329535Y-74045495D01*
X204289982Y-74114004D01*
X204289979Y-74114009D01*
X204269500Y-74190439D01*
X204269500Y-81176000D01*
X204249815Y-81243039D01*
X204197011Y-81288794D01*
X204145500Y-81300000D01*
X203225786Y-81300000D01*
X203158747Y-81280315D01*
X203112992Y-81227511D01*
X203103048Y-81158353D01*
X203113404Y-81123596D01*
X203133972Y-81079487D01*
X203133972Y-81079486D01*
X203140500Y-81029901D01*
X203140499Y-80610100D01*
X203133972Y-80560513D01*
X203083224Y-80451684D01*
X202998316Y-80366776D01*
X202996819Y-80365279D01*
X202963334Y-80303956D01*
X202960500Y-80277598D01*
X202960500Y-79215833D01*
X202969144Y-79186392D01*
X202975668Y-79156406D01*
X202979422Y-79151390D01*
X202980185Y-79148794D01*
X202996819Y-79128152D01*
X203088152Y-79036819D01*
X203149475Y-79003334D01*
X203175833Y-79000500D01*
X203265890Y-79000500D01*
X203265892Y-79000500D01*
X203393186Y-78966392D01*
X203507314Y-78900500D01*
X203600500Y-78807314D01*
X203666392Y-78693186D01*
X203700500Y-78565892D01*
X203700500Y-78434108D01*
X203666392Y-78306814D01*
X203600500Y-78192686D01*
X203507314Y-78099500D01*
X203438032Y-78059500D01*
X203393187Y-78033608D01*
X203329539Y-78016554D01*
X203265892Y-77999500D01*
X203134108Y-77999500D01*
X203006812Y-78033608D01*
X202892686Y-78099500D01*
X202892683Y-78099502D01*
X202799502Y-78192683D01*
X202799500Y-78192686D01*
X202730066Y-78312948D01*
X202679498Y-78361163D01*
X202610891Y-78374385D01*
X202546027Y-78348417D01*
X202515292Y-78312947D01*
X202491441Y-78271637D01*
X202480500Y-78252686D01*
X202387314Y-78159500D01*
X202308693Y-78114108D01*
X202273187Y-78093608D01*
X202196969Y-78073186D01*
X202145892Y-78059500D01*
X202055833Y-78059500D01*
X201988794Y-78039815D01*
X201968152Y-78023181D01*
X201614510Y-77669539D01*
X201602863Y-77662815D01*
X201598486Y-77660288D01*
X201545991Y-77629980D01*
X201545990Y-77629979D01*
X201520513Y-77623152D01*
X201469562Y-77609500D01*
X201469560Y-77609500D01*
X200957360Y-77609500D01*
X200890321Y-77589815D01*
X200844566Y-77537011D01*
X200839088Y-77518842D01*
X200838663Y-77518981D01*
X200835647Y-77509699D01*
X200835646Y-77509697D01*
X200835646Y-77509696D01*
X200778050Y-77396658D01*
X200778046Y-77396654D01*
X200778045Y-77396652D01*
X200688347Y-77306954D01*
X200688344Y-77306952D01*
X200688342Y-77306950D01*
X200584619Y-77254100D01*
X200575301Y-77249352D01*
X200481524Y-77234500D01*
X200018482Y-77234500D01*
X199937519Y-77247323D01*
X199924696Y-77249354D01*
X199811658Y-77306950D01*
X199811657Y-77306951D01*
X199811652Y-77306954D01*
X199721954Y-77396652D01*
X199721951Y-77396657D01*
X199664352Y-77509698D01*
X199649500Y-77603475D01*
X199649500Y-78216517D01*
X199654961Y-78250995D01*
X199664354Y-78310304D01*
X199721950Y-78423342D01*
X199721952Y-78423344D01*
X199721954Y-78423347D01*
X199811652Y-78513045D01*
X199811654Y-78513046D01*
X199811658Y-78513050D01*
X199915362Y-78565890D01*
X199924698Y-78570647D01*
X200012116Y-78584491D01*
X200018468Y-78585498D01*
X200018475Y-78585499D01*
X200018481Y-78585500D01*
X200481518Y-78585499D01*
X200575304Y-78570646D01*
X200688342Y-78513050D01*
X200778050Y-78423342D01*
X200835646Y-78310304D01*
X200835646Y-78310302D01*
X200835647Y-78310301D01*
X200838663Y-78301020D01*
X200841174Y-78301836D01*
X200864820Y-78251963D01*
X200924134Y-78215034D01*
X200957360Y-78210500D01*
X201254167Y-78210500D01*
X201321206Y-78230185D01*
X201341848Y-78246819D01*
X201543181Y-78448152D01*
X201576666Y-78509475D01*
X201578141Y-78517528D01*
X201579500Y-78526633D01*
X201579500Y-78625892D01*
X201612946Y-78750717D01*
X201613988Y-78757695D01*
X201610129Y-78785594D01*
X201609459Y-78813757D01*
X201605406Y-78819744D01*
X201604416Y-78826906D01*
X201586084Y-78848292D01*
X201570296Y-78871619D01*
X201563650Y-78874464D01*
X201558945Y-78879954D01*
X201531962Y-78888034D01*
X201506068Y-78899123D01*
X201492168Y-78899951D01*
X201492012Y-78899998D01*
X201491903Y-78899966D01*
X201491347Y-78900000D01*
X201100000Y-78900000D01*
X200597008Y-79174359D01*
X200542155Y-79188346D01*
X200542168Y-79188439D01*
X200541390Y-79188541D01*
X200537631Y-79189500D01*
X200534108Y-79189500D01*
X200406812Y-79223608D01*
X200292686Y-79289500D01*
X200193753Y-79388433D01*
X200193705Y-79388385D01*
X200193523Y-79388720D01*
X200165259Y-79409858D01*
X200027758Y-79484859D01*
X199968380Y-79500000D01*
X198424500Y-79500000D01*
X198357461Y-79480315D01*
X198311706Y-79427511D01*
X198300500Y-79376000D01*
X198300500Y-79235833D01*
X198320185Y-79168794D01*
X198336819Y-79148152D01*
X198585848Y-78899123D01*
X198840460Y-78644511D01*
X198849561Y-78628746D01*
X198900125Y-78580530D01*
X198918643Y-78572809D01*
X198925297Y-78570646D01*
X198925304Y-78570646D01*
X199038342Y-78513050D01*
X199128050Y-78423342D01*
X199185646Y-78310304D01*
X199185646Y-78310302D01*
X199185647Y-78310301D01*
X199196702Y-78240499D01*
X199200500Y-78216519D01*
X199200499Y-77603482D01*
X199185646Y-77509696D01*
X199128050Y-77396658D01*
X199128046Y-77396654D01*
X199128045Y-77396652D01*
X199033200Y-77301807D01*
X198999715Y-77240484D01*
X199004699Y-77170792D01*
X199013491Y-77152133D01*
X199076392Y-77043186D01*
X199110500Y-76915892D01*
X199110500Y-76784108D01*
X199076392Y-76656814D01*
X199010500Y-76542686D01*
X198917314Y-76449500D01*
X198847218Y-76409030D01*
X198803187Y-76383608D01*
X198739539Y-76366554D01*
X198675892Y-76349500D01*
X198544108Y-76349500D01*
X198416812Y-76383608D01*
X198302686Y-76449500D01*
X198302683Y-76449502D01*
X198209502Y-76542683D01*
X198209500Y-76542686D01*
X198143608Y-76656812D01*
X198117233Y-76755247D01*
X198109500Y-76784108D01*
X198109500Y-76915892D01*
X198128029Y-76985043D01*
X198131178Y-76996796D01*
X198129515Y-77066646D01*
X198090352Y-77124508D01*
X198026123Y-77152012D01*
X197957221Y-77140425D01*
X197935914Y-77127263D01*
X197932314Y-77124500D01*
X197818187Y-77058608D01*
X197754539Y-77041554D01*
X197690892Y-77024500D01*
X197559108Y-77024500D01*
X197431812Y-77058608D01*
X197317686Y-77124500D01*
X197317683Y-77124502D01*
X197224502Y-77217683D01*
X197224500Y-77217686D01*
X197158608Y-77331812D01*
X197131580Y-77432683D01*
X197124500Y-77459108D01*
X197124500Y-77590892D01*
X197139521Y-77646950D01*
X197158608Y-77718187D01*
X197177970Y-77751722D01*
X197224500Y-77832314D01*
X197224502Y-77832316D01*
X197263181Y-77870995D01*
X197296666Y-77932318D01*
X197299500Y-77958676D01*
X197299500Y-78920500D01*
X197279815Y-78987539D01*
X197227011Y-79033294D01*
X197175501Y-79044500D01*
X197068482Y-79044500D01*
X196994712Y-79056184D01*
X196974696Y-79059354D01*
X196861658Y-79116950D01*
X196861657Y-79116951D01*
X196861652Y-79116954D01*
X196771954Y-79206652D01*
X196771951Y-79206657D01*
X196714352Y-79319698D01*
X196699500Y-79413475D01*
X196699500Y-80026518D01*
X196708286Y-80081991D01*
X196699330Y-80151284D01*
X196654332Y-80204736D01*
X196617907Y-80221161D01*
X196548776Y-80239685D01*
X196496810Y-80253609D01*
X196393098Y-80313488D01*
X196325198Y-80329961D01*
X196259171Y-80307108D01*
X196215980Y-80252187D01*
X196209339Y-80182634D01*
X196220614Y-80149805D01*
X196235646Y-80120304D01*
X196235646Y-80120302D01*
X196235647Y-80120301D01*
X196250499Y-80026524D01*
X196250500Y-80026519D01*
X196250499Y-79413482D01*
X196235646Y-79319696D01*
X196178050Y-79206658D01*
X196178046Y-79206654D01*
X196178045Y-79206652D01*
X196088347Y-79116954D01*
X196088344Y-79116952D01*
X196088342Y-79116950D01*
X195975304Y-79059354D01*
X195975302Y-79059353D01*
X195966609Y-79054924D01*
X195967334Y-79053500D01*
X195918754Y-79020277D01*
X195907365Y-79003788D01*
X195905462Y-79000492D01*
X195905458Y-79000487D01*
X195504510Y-78599539D01*
X195496404Y-78594859D01*
X195480191Y-78585499D01*
X195465162Y-78576822D01*
X195465142Y-78576801D01*
X195426592Y-78538248D01*
X195425444Y-78539130D01*
X195420503Y-78532691D01*
X195420500Y-78532686D01*
X195327314Y-78439500D01*
X195270250Y-78406554D01*
X195213187Y-78373608D01*
X195119171Y-78348417D01*
X195085892Y-78339500D01*
X194954108Y-78339500D01*
X194826812Y-78373608D01*
X194712686Y-78439500D01*
X194712683Y-78439502D01*
X194619502Y-78532683D01*
X194619500Y-78532686D01*
X194553608Y-78646812D01*
X194519500Y-78774108D01*
X194518439Y-78782168D01*
X194515588Y-78781792D01*
X194499815Y-78835511D01*
X194447011Y-78881266D01*
X194377853Y-78891210D01*
X194314297Y-78862185D01*
X194285016Y-78824768D01*
X194274066Y-78803278D01*
X194263050Y-78781658D01*
X194263047Y-78781655D01*
X194263045Y-78781652D01*
X194173347Y-78691954D01*
X194173344Y-78691952D01*
X194173342Y-78691950D01*
X194080242Y-78644513D01*
X194060301Y-78634352D01*
X194051020Y-78631337D01*
X194051836Y-78628825D01*
X194034315Y-78620518D01*
X194003297Y-78606353D01*
X194002797Y-78605575D01*
X194001963Y-78605180D01*
X193983950Y-78576249D01*
X193965523Y-78547575D01*
X193965350Y-78546374D01*
X193965034Y-78545866D01*
X193960500Y-78512640D01*
X193960500Y-78338676D01*
X193980185Y-78271637D01*
X193996819Y-78250995D01*
X194017629Y-78230185D01*
X194060500Y-78187314D01*
X194126392Y-78073186D01*
X194160500Y-77945892D01*
X194160500Y-77814108D01*
X194126392Y-77686814D01*
X194060500Y-77572686D01*
X193967314Y-77479500D01*
X193886225Y-77432683D01*
X193853187Y-77413608D01*
X193789539Y-77396554D01*
X193725892Y-77379500D01*
X193594108Y-77379500D01*
X193466812Y-77413608D01*
X193352686Y-77479500D01*
X193352683Y-77479502D01*
X193259502Y-77572683D01*
X193259500Y-77572686D01*
X193193608Y-77686812D01*
X193162741Y-77802011D01*
X193159500Y-77814108D01*
X193159500Y-77945892D01*
X193169854Y-77984535D01*
X193193608Y-78073187D01*
X193217234Y-78114108D01*
X193259500Y-78187314D01*
X193259502Y-78187316D01*
X193323181Y-78250995D01*
X193337884Y-78277922D01*
X193354477Y-78303741D01*
X193355368Y-78309941D01*
X193356666Y-78312318D01*
X193359500Y-78338676D01*
X193359500Y-78512640D01*
X193339815Y-78579679D01*
X193287011Y-78625434D01*
X193268842Y-78630911D01*
X193268981Y-78631337D01*
X193259699Y-78634352D01*
X193234347Y-78647270D01*
X193146658Y-78691950D01*
X193146657Y-78691951D01*
X193146653Y-78691954D01*
X193145886Y-78692721D01*
X193144724Y-78693355D01*
X193138759Y-78697689D01*
X193138198Y-78696917D01*
X193137941Y-78697058D01*
X193132517Y-78704304D01*
X193107755Y-78713538D01*
X193084560Y-78726202D01*
X193075531Y-78725555D01*
X193067052Y-78728718D01*
X193041231Y-78723100D01*
X193014869Y-78721213D01*
X193005817Y-78715395D01*
X192998779Y-78713864D01*
X192970526Y-78692712D01*
X192956816Y-78679001D01*
X192923333Y-78617677D01*
X192920500Y-78591323D01*
X192920500Y-78490439D01*
X192920500Y-78490438D01*
X192900021Y-78414011D01*
X192877143Y-78374385D01*
X192860464Y-78345495D01*
X192860458Y-78345487D01*
X192804511Y-78289540D01*
X192451445Y-77936473D01*
X192451443Y-77936472D01*
X192449511Y-77934540D01*
X192442423Y-77930448D01*
X192380989Y-77894979D01*
X192304562Y-77874500D01*
X192250948Y-77874500D01*
X192233057Y-77868970D01*
X192218913Y-77859594D01*
X192202637Y-77854815D01*
X192190399Y-77840691D01*
X192174821Y-77830365D01*
X192167992Y-77814832D01*
X192156882Y-77802011D01*
X192151263Y-77776783D01*
X192146700Y-77766404D01*
X192147635Y-77760493D01*
X192145682Y-77751722D01*
X192145676Y-77751101D01*
X192145000Y-77682500D01*
X192144999Y-77682500D01*
X192040255Y-77682500D01*
X191973216Y-77662815D01*
X191955239Y-77648329D01*
X191953345Y-77646953D01*
X191953342Y-77646950D01*
X191868018Y-77603475D01*
X191840301Y-77589352D01*
X191746524Y-77574500D01*
X191133482Y-77574500D01*
X191052519Y-77587323D01*
X191039696Y-77589354D01*
X190926658Y-77646950D01*
X190926657Y-77646951D01*
X190918759Y-77652689D01*
X190917835Y-77651417D01*
X190866103Y-77679666D01*
X190839745Y-77682500D01*
X190473412Y-77682500D01*
X190454028Y-77679948D01*
X190453948Y-77680561D01*
X190445893Y-77679500D01*
X190445892Y-77679500D01*
X190314108Y-77679500D01*
X190186812Y-77713608D01*
X190072686Y-77779500D01*
X190072683Y-77779502D01*
X189979502Y-77872683D01*
X189979500Y-77872686D01*
X189913608Y-77986812D01*
X189884993Y-78093608D01*
X189879500Y-78114108D01*
X189879500Y-78245892D01*
X189881321Y-78252689D01*
X189913608Y-78373187D01*
X189946554Y-78430250D01*
X189979500Y-78487314D01*
X190072686Y-78580500D01*
X190156254Y-78628748D01*
X190185381Y-78645565D01*
X190186814Y-78646392D01*
X190314108Y-78680500D01*
X190314110Y-78680500D01*
X190342048Y-78680500D01*
X190409087Y-78700185D01*
X190454842Y-78752989D01*
X190466041Y-78803276D01*
X190469432Y-79147316D01*
X190471175Y-79324278D01*
X190452152Y-79391509D01*
X190399801Y-79437781D01*
X190347181Y-79449500D01*
X189608676Y-79449500D01*
X189541637Y-79429815D01*
X189520995Y-79413181D01*
X189457316Y-79349502D01*
X189457314Y-79349500D01*
X189382649Y-79306392D01*
X189343187Y-79283608D01*
X189236836Y-79255112D01*
X189215892Y-79249500D01*
X189084108Y-79249500D01*
X188956812Y-79283608D01*
X188842686Y-79349500D01*
X188842683Y-79349502D01*
X188749502Y-79442683D01*
X188749500Y-79442686D01*
X188683608Y-79556812D01*
X188649500Y-79684108D01*
X188649500Y-79815891D01*
X188683608Y-79943187D01*
X188693598Y-79960489D01*
X188749500Y-80057314D01*
X188842686Y-80150500D01*
X188956814Y-80216392D01*
X189084108Y-80250500D01*
X189084110Y-80250500D01*
X189215890Y-80250500D01*
X189215892Y-80250500D01*
X189343186Y-80216392D01*
X189457314Y-80150500D01*
X189520995Y-80086819D01*
X189582318Y-80053334D01*
X189608676Y-80050500D01*
X190355546Y-80050500D01*
X190422585Y-80070185D01*
X190468340Y-80122989D01*
X190479539Y-80173276D01*
X190480000Y-80220000D01*
X190635071Y-80220000D01*
X190702110Y-80239685D01*
X190747865Y-80292489D01*
X190757809Y-80361647D01*
X190728784Y-80425203D01*
X190686179Y-80456978D01*
X190676950Y-80461152D01*
X190644011Y-80469979D01*
X190600710Y-80494979D01*
X190595410Y-80498038D01*
X190595403Y-80498042D01*
X190575490Y-80509539D01*
X190575487Y-80509541D01*
X190301848Y-80783181D01*
X190240525Y-80816666D01*
X190214167Y-80819500D01*
X189798676Y-80819500D01*
X189731637Y-80799815D01*
X189710995Y-80783181D01*
X189687316Y-80759502D01*
X189687314Y-80759500D01*
X189630250Y-80726554D01*
X189573187Y-80693608D01*
X189509539Y-80676554D01*
X189445892Y-80659500D01*
X189314108Y-80659500D01*
X189186812Y-80693608D01*
X189072686Y-80759500D01*
X189072683Y-80759502D01*
X188979502Y-80852683D01*
X188979500Y-80852686D01*
X188913608Y-80966812D01*
X188890425Y-81053334D01*
X188879500Y-81094108D01*
X188879500Y-81225892D01*
X188894082Y-81280315D01*
X188913608Y-81353187D01*
X188933521Y-81387676D01*
X188979500Y-81467314D01*
X188979502Y-81467316D01*
X189024941Y-81512755D01*
X189058426Y-81574078D01*
X189053442Y-81643770D01*
X189011570Y-81699703D01*
X188946106Y-81724120D01*
X188936797Y-81724435D01*
X187750000Y-81719999D01*
X187750000Y-84847433D01*
X187730315Y-84914472D01*
X187677511Y-84960227D01*
X187626258Y-84971432D01*
X187588385Y-84971510D01*
X187700000Y-84750000D01*
X185475000Y-84775000D01*
X185582069Y-84975656D01*
X185582068Y-84975656D01*
X175050000Y-84997417D01*
X166097240Y-85015913D01*
X166057513Y-84896664D01*
X165999207Y-84746809D01*
X165999202Y-84746798D01*
X165999195Y-84746781D01*
X165933573Y-84600042D01*
X165933544Y-84599981D01*
X165860752Y-84456682D01*
X165860749Y-84456677D01*
X165860739Y-84456657D01*
X165780915Y-84317072D01*
X165779883Y-84315459D01*
X165694288Y-84181607D01*
X165604520Y-84055447D01*
X165601062Y-84050587D01*
X165501473Y-83924340D01*
X165501456Y-83924320D01*
X165395794Y-83803205D01*
X165395756Y-83803163D01*
X165314917Y-83719269D01*
X165284191Y-83687381D01*
X165284187Y-83687377D01*
X165284182Y-83687372D01*
X165284176Y-83687366D01*
X165167032Y-83577251D01*
X165044552Y-83473037D01*
X164917095Y-83375028D01*
X164917091Y-83375025D01*
X164784919Y-83283421D01*
X164648410Y-83198486D01*
X164648395Y-83198477D01*
X164507841Y-83120391D01*
X164507835Y-83120388D01*
X164363604Y-83049353D01*
X164353721Y-83045079D01*
X164216001Y-82985522D01*
X164138234Y-82956367D01*
X164065434Y-82929074D01*
X163912283Y-82880148D01*
X163912260Y-82880142D01*
X163756859Y-82838845D01*
X163756852Y-82838843D01*
X163756838Y-82838840D01*
X163599606Y-82805284D01*
X163599578Y-82805279D01*
X163440897Y-82779542D01*
X163383958Y-82773177D01*
X163281074Y-82761678D01*
X163227577Y-82758365D01*
X163120587Y-82751740D01*
X163095846Y-82751434D01*
X162959797Y-82749751D01*
X162959791Y-82749751D01*
X162959775Y-82749751D01*
X162799120Y-82755715D01*
X162738833Y-82760947D01*
X162638914Y-82769621D01*
X162638909Y-82769621D01*
X162638905Y-82769622D01*
X162479603Y-82791429D01*
X162321563Y-82821091D01*
X162165179Y-82858533D01*
X162165175Y-82858535D01*
X162010855Y-82903659D01*
X162010835Y-82903666D01*
X161858929Y-82956368D01*
X161858927Y-82956369D01*
X161786668Y-82985518D01*
X161709810Y-83016522D01*
X161587150Y-83073207D01*
X161563825Y-83083986D01*
X161421425Y-83158550D01*
X161421375Y-83158578D01*
X161282796Y-83240119D01*
X161282785Y-83240125D01*
X161148431Y-83328403D01*
X161148414Y-83328414D01*
X161018562Y-83423250D01*
X161018559Y-83423252D01*
X160893586Y-83524368D01*
X160893552Y-83524396D01*
X160773717Y-83631581D01*
X160659316Y-83744577D01*
X160659305Y-83744588D01*
X160550622Y-83863112D01*
X160550619Y-83863116D01*
X160447973Y-83986819D01*
X160447940Y-83986862D01*
X160351533Y-84115495D01*
X160351510Y-84115527D01*
X160261580Y-84248773D01*
X160261564Y-84248798D01*
X160178315Y-84386361D01*
X160101972Y-84527868D01*
X160067558Y-84599981D01*
X160032707Y-84673008D01*
X159970713Y-84821376D01*
X159961827Y-84846001D01*
X159916135Y-84972617D01*
X159898974Y-85028720D01*
X151390500Y-85046300D01*
X151390500Y-77867747D01*
X175049500Y-77867747D01*
X175049500Y-79707252D01*
X175061131Y-79765729D01*
X175061132Y-79765730D01*
X175105447Y-79832052D01*
X175171769Y-79876367D01*
X175171770Y-79876368D01*
X175230247Y-79887999D01*
X175230250Y-79888000D01*
X175230252Y-79888000D01*
X176069750Y-79888000D01*
X176069751Y-79887999D01*
X176084568Y-79885052D01*
X176128229Y-79876368D01*
X176128231Y-79876367D01*
X176131108Y-79874445D01*
X176138335Y-79872181D01*
X176139513Y-79871694D01*
X176139556Y-79871799D01*
X176197785Y-79853566D01*
X176265165Y-79872050D01*
X176268892Y-79874445D01*
X176271768Y-79876367D01*
X176271770Y-79876368D01*
X176330247Y-79887999D01*
X176330250Y-79888000D01*
X176330252Y-79888000D01*
X177169750Y-79888000D01*
X177169751Y-79887999D01*
X177184568Y-79885052D01*
X177228229Y-79876368D01*
X177228231Y-79876367D01*
X177231108Y-79874445D01*
X177238335Y-79872181D01*
X177239513Y-79871694D01*
X177239556Y-79871799D01*
X177297785Y-79853566D01*
X177365165Y-79872050D01*
X177368892Y-79874445D01*
X177371768Y-79876367D01*
X177371770Y-79876368D01*
X177430247Y-79887999D01*
X177430250Y-79888000D01*
X177430252Y-79888000D01*
X178269750Y-79888000D01*
X178269751Y-79887999D01*
X178284568Y-79885052D01*
X178328229Y-79876368D01*
X178328231Y-79876367D01*
X178331108Y-79874445D01*
X178338335Y-79872181D01*
X178339513Y-79871694D01*
X178339556Y-79871799D01*
X178397785Y-79853566D01*
X178465165Y-79872050D01*
X178468892Y-79874445D01*
X178471768Y-79876367D01*
X178471770Y-79876368D01*
X178530247Y-79887999D01*
X178530250Y-79888000D01*
X178530252Y-79888000D01*
X179369750Y-79888000D01*
X179369751Y-79887999D01*
X179384568Y-79885052D01*
X179428229Y-79876368D01*
X179428231Y-79876367D01*
X179431108Y-79874445D01*
X179438335Y-79872181D01*
X179439513Y-79871694D01*
X179439556Y-79871799D01*
X179497785Y-79853566D01*
X179565165Y-79872050D01*
X179568892Y-79874445D01*
X179571768Y-79876367D01*
X179571770Y-79876368D01*
X179630247Y-79887999D01*
X179630250Y-79888000D01*
X180420500Y-79888000D01*
X180487539Y-79907685D01*
X180533294Y-79960489D01*
X180544500Y-80012000D01*
X180544500Y-80500500D01*
X180524815Y-80567539D01*
X180472011Y-80613294D01*
X180420500Y-80624500D01*
X180043992Y-80624500D01*
X180000313Y-80629197D01*
X179948825Y-80640397D01*
X179938627Y-80642890D01*
X179938624Y-80642891D01*
X179857916Y-80685899D01*
X179857913Y-80685901D01*
X179805104Y-80731660D01*
X179787160Y-80749242D01*
X179787154Y-80749249D01*
X179742511Y-80829059D01*
X179742509Y-80829064D01*
X179722826Y-80896096D01*
X179722825Y-80896101D01*
X179722825Y-80896102D01*
X179722306Y-80899715D01*
X179714500Y-80954003D01*
X179714500Y-83796007D01*
X179719197Y-83839686D01*
X179730397Y-83891174D01*
X179732890Y-83901372D01*
X179732891Y-83901375D01*
X179775899Y-83982083D01*
X179775901Y-83982086D01*
X179821660Y-84034895D01*
X179837041Y-84050593D01*
X179839246Y-84052843D01*
X179839247Y-84052844D01*
X179839249Y-84052845D01*
X179919059Y-84097488D01*
X179919063Y-84097490D01*
X179986102Y-84117175D01*
X180044000Y-84125500D01*
X180044004Y-84125500D01*
X182525991Y-84125500D01*
X182526000Y-84125500D01*
X182569684Y-84120803D01*
X182621195Y-84109597D01*
X182631373Y-84107110D01*
X182643735Y-84100522D01*
X182661105Y-84092908D01*
X182732880Y-84067794D01*
X182732880Y-84067793D01*
X182732882Y-84067793D01*
X182842150Y-83987150D01*
X182922793Y-83877882D01*
X182951445Y-83796000D01*
X182967646Y-83749701D01*
X182967646Y-83749699D01*
X182970500Y-83719269D01*
X182970500Y-82660730D01*
X182967646Y-82630303D01*
X182967646Y-82630301D01*
X182922793Y-82502118D01*
X182903170Y-82475529D01*
X182879729Y-82443766D01*
X182855759Y-82378137D01*
X182855500Y-82370134D01*
X182855500Y-81830054D01*
X182869015Y-81773759D01*
X182872973Y-81765991D01*
X182889719Y-81733126D01*
X182889719Y-81733124D01*
X182889720Y-81733123D01*
X182905500Y-81633493D01*
X182905500Y-81066506D01*
X182889720Y-80966877D01*
X182889719Y-80966875D01*
X182889719Y-80966874D01*
X182869013Y-80926237D01*
X182855500Y-80869945D01*
X182855500Y-80012000D01*
X182875185Y-79944961D01*
X182927989Y-79899206D01*
X182979500Y-79888000D01*
X183719750Y-79888000D01*
X183719751Y-79887999D01*
X183734568Y-79885052D01*
X183778229Y-79876368D01*
X183778229Y-79876367D01*
X183778231Y-79876367D01*
X183844552Y-79832052D01*
X183888867Y-79765731D01*
X183888867Y-79765729D01*
X183888868Y-79765729D01*
X183900499Y-79707252D01*
X183900500Y-79707250D01*
X183900500Y-77867749D01*
X183900499Y-77867747D01*
X183888868Y-77809270D01*
X183888867Y-77809269D01*
X183856275Y-77760493D01*
X183844552Y-77742948D01*
X183837354Y-77738138D01*
X183778230Y-77698632D01*
X183778229Y-77698631D01*
X183719752Y-77687000D01*
X183719748Y-77687000D01*
X182980252Y-77687000D01*
X182980247Y-77687000D01*
X182921770Y-77698631D01*
X182921766Y-77698633D01*
X182893890Y-77717260D01*
X182827213Y-77738138D01*
X182759833Y-77719653D01*
X182756110Y-77717260D01*
X182728233Y-77698633D01*
X182728229Y-77698631D01*
X182669752Y-77687000D01*
X182669748Y-77687000D01*
X181830252Y-77687000D01*
X181830247Y-77687000D01*
X181771770Y-77698631D01*
X181771768Y-77698632D01*
X181768887Y-77700558D01*
X181761655Y-77702822D01*
X181760487Y-77703306D01*
X181760443Y-77703201D01*
X181702209Y-77721433D01*
X181634829Y-77702946D01*
X181631113Y-77700558D01*
X181628231Y-77698632D01*
X181628229Y-77698631D01*
X181569752Y-77687000D01*
X181569748Y-77687000D01*
X180730252Y-77687000D01*
X180730247Y-77687000D01*
X180671770Y-77698631D01*
X180671768Y-77698632D01*
X180668887Y-77700558D01*
X180661655Y-77702822D01*
X180660487Y-77703306D01*
X180660443Y-77703201D01*
X180602209Y-77721433D01*
X180534829Y-77702946D01*
X180531113Y-77700558D01*
X180528231Y-77698632D01*
X180528229Y-77698631D01*
X180469752Y-77687000D01*
X180469748Y-77687000D01*
X179630252Y-77687000D01*
X179630247Y-77687000D01*
X179571770Y-77698631D01*
X179571768Y-77698632D01*
X179568887Y-77700558D01*
X179561655Y-77702822D01*
X179560487Y-77703306D01*
X179560443Y-77703201D01*
X179502209Y-77721433D01*
X179434829Y-77702946D01*
X179431113Y-77700558D01*
X179428231Y-77698632D01*
X179428229Y-77698631D01*
X179369752Y-77687000D01*
X179369748Y-77687000D01*
X178530252Y-77687000D01*
X178530247Y-77687000D01*
X178471770Y-77698631D01*
X178471768Y-77698632D01*
X178468887Y-77700558D01*
X178461655Y-77702822D01*
X178460487Y-77703306D01*
X178460443Y-77703201D01*
X178402209Y-77721433D01*
X178334829Y-77702946D01*
X178331113Y-77700558D01*
X178328231Y-77698632D01*
X178328229Y-77698631D01*
X178269752Y-77687000D01*
X178269748Y-77687000D01*
X177430252Y-77687000D01*
X177430247Y-77687000D01*
X177371770Y-77698631D01*
X177371768Y-77698632D01*
X177368887Y-77700558D01*
X177361655Y-77702822D01*
X177360487Y-77703306D01*
X177360443Y-77703201D01*
X177302209Y-77721433D01*
X177234829Y-77702946D01*
X177231113Y-77700558D01*
X177228231Y-77698632D01*
X177228229Y-77698631D01*
X177169752Y-77687000D01*
X177169748Y-77687000D01*
X176330252Y-77687000D01*
X176330247Y-77687000D01*
X176271770Y-77698631D01*
X176271768Y-77698632D01*
X176268887Y-77700558D01*
X176261655Y-77702822D01*
X176260487Y-77703306D01*
X176260443Y-77703201D01*
X176202209Y-77721433D01*
X176134829Y-77702946D01*
X176131113Y-77700558D01*
X176128231Y-77698632D01*
X176128229Y-77698631D01*
X176069752Y-77687000D01*
X176069748Y-77687000D01*
X175230252Y-77687000D01*
X175230247Y-77687000D01*
X175171770Y-77698631D01*
X175171769Y-77698632D01*
X175105447Y-77742947D01*
X175061132Y-77809269D01*
X175061131Y-77809270D01*
X175049500Y-77867747D01*
X151390500Y-77867747D01*
X151390500Y-77674108D01*
X186809500Y-77674108D01*
X186809500Y-77805892D01*
X186822609Y-77854815D01*
X186843608Y-77933187D01*
X186873254Y-77984535D01*
X186909500Y-78047314D01*
X187002686Y-78140500D01*
X187116814Y-78206392D01*
X187244108Y-78240500D01*
X187244110Y-78240500D01*
X187375890Y-78240500D01*
X187375892Y-78240500D01*
X187503186Y-78206392D01*
X187617314Y-78140500D01*
X187710500Y-78047314D01*
X187776392Y-77933186D01*
X187810500Y-77805892D01*
X187810500Y-77674108D01*
X187776392Y-77546814D01*
X187710500Y-77432686D01*
X187617314Y-77339500D01*
X187560250Y-77306554D01*
X187503187Y-77273608D01*
X187427137Y-77253231D01*
X187375892Y-77239500D01*
X187244108Y-77239500D01*
X187116812Y-77273608D01*
X187002686Y-77339500D01*
X187002683Y-77339502D01*
X186909502Y-77432683D01*
X186909500Y-77432686D01*
X186843608Y-77546812D01*
X186831797Y-77590892D01*
X186809500Y-77674108D01*
X151390500Y-77674108D01*
X151390500Y-76887500D01*
X174400000Y-76887500D01*
X174402408Y-76936509D01*
X174409607Y-76985045D01*
X174412551Y-76996796D01*
X174421529Y-77032640D01*
X174425303Y-77043188D01*
X174433696Y-77066646D01*
X174438061Y-77078844D01*
X174459040Y-77123201D01*
X174484267Y-77165289D01*
X174506119Y-77194752D01*
X174513495Y-77204697D01*
X174546447Y-77241053D01*
X174582803Y-77274005D01*
X174582817Y-77274015D01*
X174582819Y-77274017D01*
X174622210Y-77303232D01*
X174664298Y-77328459D01*
X174664301Y-77328460D01*
X174664302Y-77328461D01*
X174708658Y-77349440D01*
X174754858Y-77365970D01*
X174802455Y-77377893D01*
X174850991Y-77385092D01*
X174900000Y-77387500D01*
X174949009Y-77385092D01*
X174997545Y-77377893D01*
X175045142Y-77365970D01*
X175091342Y-77349440D01*
X175135698Y-77328461D01*
X175177785Y-77303235D01*
X175217197Y-77274005D01*
X175253553Y-77241053D01*
X175286505Y-77204697D01*
X175315735Y-77165285D01*
X175340961Y-77123198D01*
X175361940Y-77078842D01*
X175378470Y-77032642D01*
X175390393Y-76985045D01*
X175397592Y-76936509D01*
X175400000Y-76887500D01*
X175397592Y-76838491D01*
X175390393Y-76789955D01*
X175378470Y-76742358D01*
X175361940Y-76696158D01*
X175340961Y-76651802D01*
X175315735Y-76609715D01*
X175315734Y-76609714D01*
X175315732Y-76609710D01*
X175286517Y-76570319D01*
X175286515Y-76570317D01*
X175286505Y-76570303D01*
X175253553Y-76533947D01*
X175217197Y-76500995D01*
X175217184Y-76500985D01*
X175217180Y-76500982D01*
X175177789Y-76471767D01*
X175135701Y-76446540D01*
X175091344Y-76425561D01*
X175091342Y-76425560D01*
X175068242Y-76417295D01*
X175045140Y-76409029D01*
X175021389Y-76403079D01*
X174997545Y-76397107D01*
X174967753Y-76392688D01*
X174949017Y-76389909D01*
X174949015Y-76389908D01*
X174949009Y-76389908D01*
X174900000Y-76387500D01*
X174850991Y-76389908D01*
X174850985Y-76389908D01*
X174850982Y-76389909D01*
X174817350Y-76394897D01*
X174802455Y-76397107D01*
X174790533Y-76400093D01*
X174754859Y-76409029D01*
X174708655Y-76425561D01*
X174664298Y-76446540D01*
X174622210Y-76471767D01*
X174582819Y-76500982D01*
X174582801Y-76500997D01*
X174546447Y-76533947D01*
X174513497Y-76570301D01*
X174513482Y-76570319D01*
X174484267Y-76609710D01*
X174459040Y-76651798D01*
X174438061Y-76696155D01*
X174421529Y-76742359D01*
X174418300Y-76755252D01*
X174409607Y-76789955D01*
X174402408Y-76838491D01*
X174400000Y-76887500D01*
X151390500Y-76887500D01*
X151390500Y-74311304D01*
X153349500Y-74311304D01*
X153349500Y-74488695D01*
X153384103Y-74662658D01*
X153384106Y-74662667D01*
X153451983Y-74826540D01*
X153451990Y-74826553D01*
X153550535Y-74974034D01*
X153550538Y-74974038D01*
X153675961Y-75099461D01*
X153675965Y-75099464D01*
X153823446Y-75198009D01*
X153823459Y-75198016D01*
X153926024Y-75240499D01*
X153987334Y-75265894D01*
X153987336Y-75265894D01*
X153987341Y-75265896D01*
X154161304Y-75300499D01*
X154161307Y-75300500D01*
X154161309Y-75300500D01*
X154338693Y-75300500D01*
X154338694Y-75300499D01*
X154396682Y-75288964D01*
X154512658Y-75265896D01*
X154512661Y-75265894D01*
X154512666Y-75265894D01*
X154676547Y-75198013D01*
X154824035Y-75099464D01*
X154949464Y-74974035D01*
X155048013Y-74826547D01*
X155056569Y-74805892D01*
X155104369Y-74690489D01*
X155115894Y-74662666D01*
X155128383Y-74599882D01*
X155160768Y-74537971D01*
X155221483Y-74503397D01*
X155291253Y-74507136D01*
X155347925Y-74548003D01*
X155371617Y-74599882D01*
X155384103Y-74662658D01*
X155384106Y-74662667D01*
X155451983Y-74826540D01*
X155451990Y-74826553D01*
X155550535Y-74974034D01*
X155550538Y-74974038D01*
X155675961Y-75099461D01*
X155675965Y-75099464D01*
X155823446Y-75198009D01*
X155823459Y-75198016D01*
X155926024Y-75240499D01*
X155987334Y-75265894D01*
X155987336Y-75265894D01*
X155987341Y-75265896D01*
X156161304Y-75300499D01*
X156161307Y-75300500D01*
X156161309Y-75300500D01*
X156338693Y-75300500D01*
X156338694Y-75300499D01*
X156396682Y-75288964D01*
X156512658Y-75265896D01*
X156512661Y-75265894D01*
X156512666Y-75265894D01*
X156676547Y-75198013D01*
X156824035Y-75099464D01*
X156949464Y-74974035D01*
X157048013Y-74826547D01*
X157056569Y-74805892D01*
X157104369Y-74690489D01*
X157115894Y-74662666D01*
X157128383Y-74599882D01*
X157160768Y-74537971D01*
X157221483Y-74503397D01*
X157291253Y-74507136D01*
X157347925Y-74548003D01*
X157371617Y-74599882D01*
X157384103Y-74662658D01*
X157384106Y-74662667D01*
X157451983Y-74826540D01*
X157451990Y-74826553D01*
X157550535Y-74974034D01*
X157550538Y-74974038D01*
X157675961Y-75099461D01*
X157675965Y-75099464D01*
X157823446Y-75198009D01*
X157823459Y-75198016D01*
X157926024Y-75240499D01*
X157987334Y-75265894D01*
X157987336Y-75265894D01*
X157987341Y-75265896D01*
X158161304Y-75300499D01*
X158161307Y-75300500D01*
X158161309Y-75300500D01*
X158338693Y-75300500D01*
X158338694Y-75300499D01*
X158396682Y-75288964D01*
X158512658Y-75265896D01*
X158512661Y-75265894D01*
X158512666Y-75265894D01*
X158676547Y-75198013D01*
X158824035Y-75099464D01*
X158949464Y-74974035D01*
X159048013Y-74826547D01*
X159056569Y-74805892D01*
X159104369Y-74690489D01*
X159115894Y-74662666D01*
X159128383Y-74599882D01*
X159160768Y-74537971D01*
X159221483Y-74503397D01*
X159291253Y-74507136D01*
X159347925Y-74548003D01*
X159371617Y-74599882D01*
X159384103Y-74662658D01*
X159384106Y-74662667D01*
X159451983Y-74826540D01*
X159451990Y-74826553D01*
X159550535Y-74974034D01*
X159550538Y-74974038D01*
X159675961Y-75099461D01*
X159675965Y-75099464D01*
X159823446Y-75198009D01*
X159823459Y-75198016D01*
X159926024Y-75240499D01*
X159987334Y-75265894D01*
X159987336Y-75265894D01*
X159987341Y-75265896D01*
X160161304Y-75300499D01*
X160161307Y-75300500D01*
X160161309Y-75300500D01*
X160338693Y-75300500D01*
X160338694Y-75300499D01*
X160396682Y-75288964D01*
X160512658Y-75265896D01*
X160512661Y-75265894D01*
X160512666Y-75265894D01*
X160676547Y-75198013D01*
X160824035Y-75099464D01*
X160949464Y-74974035D01*
X161048013Y-74826547D01*
X161056569Y-74805892D01*
X161104369Y-74690489D01*
X161115894Y-74662666D01*
X161128383Y-74599882D01*
X161160768Y-74537971D01*
X161221483Y-74503397D01*
X161291253Y-74507136D01*
X161347925Y-74548003D01*
X161371617Y-74599882D01*
X161384103Y-74662658D01*
X161384106Y-74662667D01*
X161451983Y-74826540D01*
X161451990Y-74826553D01*
X161550535Y-74974034D01*
X161550538Y-74974038D01*
X161675961Y-75099461D01*
X161675965Y-75099464D01*
X161823446Y-75198009D01*
X161823459Y-75198016D01*
X161926024Y-75240499D01*
X161987334Y-75265894D01*
X161987336Y-75265894D01*
X161987341Y-75265896D01*
X162161304Y-75300499D01*
X162161307Y-75300500D01*
X162161309Y-75300500D01*
X162338693Y-75300500D01*
X162338694Y-75300499D01*
X162396682Y-75288964D01*
X162512658Y-75265896D01*
X162512661Y-75265894D01*
X162512666Y-75265894D01*
X162676547Y-75198013D01*
X162824035Y-75099464D01*
X162949464Y-74974035D01*
X163048013Y-74826547D01*
X163056569Y-74805892D01*
X163104369Y-74690489D01*
X163115894Y-74662666D01*
X163128383Y-74599882D01*
X163160768Y-74537971D01*
X163221483Y-74503397D01*
X163291253Y-74507136D01*
X163347925Y-74548003D01*
X163371617Y-74599882D01*
X163384103Y-74662658D01*
X163384106Y-74662667D01*
X163451983Y-74826540D01*
X163451990Y-74826553D01*
X163550535Y-74974034D01*
X163550538Y-74974038D01*
X163675961Y-75099461D01*
X163675965Y-75099464D01*
X163823446Y-75198009D01*
X163823459Y-75198016D01*
X163926024Y-75240499D01*
X163987334Y-75265894D01*
X163987336Y-75265894D01*
X163987341Y-75265896D01*
X164161304Y-75300499D01*
X164161307Y-75300500D01*
X164161309Y-75300500D01*
X164338693Y-75300500D01*
X164338694Y-75300499D01*
X164396682Y-75288964D01*
X164512658Y-75265896D01*
X164512661Y-75265894D01*
X164512666Y-75265894D01*
X164676547Y-75198013D01*
X164824035Y-75099464D01*
X164949464Y-74974035D01*
X165048013Y-74826547D01*
X165056569Y-74805892D01*
X165104369Y-74690489D01*
X165115894Y-74662666D01*
X165150500Y-74488691D01*
X165150500Y-74311309D01*
X165150500Y-74311306D01*
X165150499Y-74311304D01*
X167349500Y-74311304D01*
X167349500Y-74488695D01*
X167384103Y-74662658D01*
X167384106Y-74662667D01*
X167451983Y-74826540D01*
X167451990Y-74826553D01*
X167550535Y-74974034D01*
X167550538Y-74974038D01*
X167675961Y-75099461D01*
X167675965Y-75099464D01*
X167823446Y-75198009D01*
X167823459Y-75198016D01*
X167926024Y-75240499D01*
X167987334Y-75265894D01*
X167987336Y-75265894D01*
X167987341Y-75265896D01*
X168161304Y-75300499D01*
X168161307Y-75300500D01*
X168161309Y-75300500D01*
X168338693Y-75300500D01*
X168338694Y-75300499D01*
X168396682Y-75288964D01*
X168512658Y-75265896D01*
X168512661Y-75265894D01*
X168512666Y-75265894D01*
X168676547Y-75198013D01*
X168824035Y-75099464D01*
X168949464Y-74974035D01*
X169048013Y-74826547D01*
X169056569Y-74805892D01*
X169104369Y-74690489D01*
X169115894Y-74662666D01*
X169128383Y-74599882D01*
X169160768Y-74537971D01*
X169221483Y-74503397D01*
X169291253Y-74507136D01*
X169347925Y-74548003D01*
X169371617Y-74599882D01*
X169384103Y-74662658D01*
X169384106Y-74662667D01*
X169451983Y-74826540D01*
X169451990Y-74826553D01*
X169550535Y-74974034D01*
X169550538Y-74974038D01*
X169675961Y-75099461D01*
X169675965Y-75099464D01*
X169823446Y-75198009D01*
X169823459Y-75198016D01*
X169926024Y-75240499D01*
X169987334Y-75265894D01*
X169987336Y-75265894D01*
X169987341Y-75265896D01*
X170161304Y-75300499D01*
X170161307Y-75300500D01*
X170161309Y-75300500D01*
X170338693Y-75300500D01*
X170338694Y-75300499D01*
X170396682Y-75288964D01*
X170512658Y-75265896D01*
X170512661Y-75265894D01*
X170512666Y-75265894D01*
X170676547Y-75198013D01*
X170824035Y-75099464D01*
X170949464Y-74974035D01*
X171048013Y-74826547D01*
X171056569Y-74805892D01*
X171104369Y-74690489D01*
X171115894Y-74662666D01*
X171128383Y-74599882D01*
X171160768Y-74537971D01*
X171221483Y-74503397D01*
X171291253Y-74507136D01*
X171347925Y-74548003D01*
X171371617Y-74599882D01*
X171384103Y-74662658D01*
X171384106Y-74662667D01*
X171451983Y-74826540D01*
X171451990Y-74826553D01*
X171550535Y-74974034D01*
X171550538Y-74974038D01*
X171675961Y-75099461D01*
X171675965Y-75099464D01*
X171823446Y-75198009D01*
X171823459Y-75198016D01*
X171926024Y-75240499D01*
X171987334Y-75265894D01*
X171987336Y-75265894D01*
X171987341Y-75265896D01*
X172161304Y-75300499D01*
X172161307Y-75300500D01*
X172161309Y-75300500D01*
X172338693Y-75300500D01*
X172338694Y-75300499D01*
X172396682Y-75288964D01*
X172512658Y-75265896D01*
X172512661Y-75265894D01*
X172512666Y-75265894D01*
X172676547Y-75198013D01*
X172824035Y-75099464D01*
X172949464Y-74974035D01*
X173048013Y-74826547D01*
X173056569Y-74805892D01*
X173104369Y-74690489D01*
X173111154Y-74674108D01*
X188599500Y-74674108D01*
X188599500Y-74805892D01*
X188605036Y-74826553D01*
X188633608Y-74933187D01*
X188642537Y-74948652D01*
X188699500Y-75047314D01*
X188792686Y-75140500D01*
X188906814Y-75206392D01*
X189034108Y-75240500D01*
X189034110Y-75240500D01*
X189165890Y-75240500D01*
X189165892Y-75240500D01*
X189293186Y-75206392D01*
X189407314Y-75140500D01*
X189500500Y-75047314D01*
X189566392Y-74933186D01*
X189600500Y-74805892D01*
X189600500Y-74674108D01*
X189566392Y-74546814D01*
X189561286Y-74537971D01*
X189541325Y-74503397D01*
X189500500Y-74432686D01*
X189407314Y-74339500D01*
X189338032Y-74299500D01*
X189293187Y-74273608D01*
X189198794Y-74248316D01*
X189165892Y-74239500D01*
X189034108Y-74239500D01*
X188906812Y-74273608D01*
X188792686Y-74339500D01*
X188792683Y-74339502D01*
X188699502Y-74432683D01*
X188699500Y-74432686D01*
X188633608Y-74546812D01*
X188612800Y-74624471D01*
X188599500Y-74674108D01*
X173111154Y-74674108D01*
X173115894Y-74662666D01*
X173147575Y-74503397D01*
X173150500Y-74488693D01*
X173150500Y-74311306D01*
X173150499Y-74311304D01*
X173115896Y-74137341D01*
X173115893Y-74137332D01*
X173106232Y-74114009D01*
X173098923Y-74096363D01*
X173048016Y-73973459D01*
X173048009Y-73973446D01*
X172949464Y-73825965D01*
X172949461Y-73825961D01*
X172824038Y-73700538D01*
X172824034Y-73700535D01*
X172676553Y-73601990D01*
X172676540Y-73601983D01*
X172512667Y-73534106D01*
X172512658Y-73534103D01*
X172338694Y-73499500D01*
X172338691Y-73499500D01*
X172161309Y-73499500D01*
X172161306Y-73499500D01*
X171987341Y-73534103D01*
X171987332Y-73534106D01*
X171823459Y-73601983D01*
X171823446Y-73601990D01*
X171675965Y-73700535D01*
X171675961Y-73700538D01*
X171550538Y-73825961D01*
X171550535Y-73825965D01*
X171451990Y-73973446D01*
X171451983Y-73973459D01*
X171384106Y-74137332D01*
X171384104Y-74137340D01*
X171371617Y-74200118D01*
X171339232Y-74262028D01*
X171278516Y-74296603D01*
X171208747Y-74292863D01*
X171152075Y-74251996D01*
X171128383Y-74200118D01*
X171115895Y-74137340D01*
X171115894Y-74137334D01*
X171098923Y-74096363D01*
X171048016Y-73973459D01*
X171048009Y-73973446D01*
X170949464Y-73825965D01*
X170949461Y-73825961D01*
X170824038Y-73700538D01*
X170824034Y-73700535D01*
X170676553Y-73601990D01*
X170676540Y-73601983D01*
X170512667Y-73534106D01*
X170512658Y-73534103D01*
X170338694Y-73499500D01*
X170338691Y-73499500D01*
X170161309Y-73499500D01*
X170161306Y-73499500D01*
X169987341Y-73534103D01*
X169987332Y-73534106D01*
X169823459Y-73601983D01*
X169823446Y-73601990D01*
X169675965Y-73700535D01*
X169675961Y-73700538D01*
X169550538Y-73825961D01*
X169550535Y-73825965D01*
X169451990Y-73973446D01*
X169451983Y-73973459D01*
X169384106Y-74137332D01*
X169384104Y-74137340D01*
X169371617Y-74200118D01*
X169339232Y-74262028D01*
X169278516Y-74296603D01*
X169208747Y-74292863D01*
X169152075Y-74251996D01*
X169128383Y-74200118D01*
X169115895Y-74137340D01*
X169115894Y-74137334D01*
X169098923Y-74096363D01*
X169048016Y-73973459D01*
X169048009Y-73973446D01*
X168949464Y-73825965D01*
X168949461Y-73825961D01*
X168824038Y-73700538D01*
X168824034Y-73700535D01*
X168676553Y-73601990D01*
X168676540Y-73601983D01*
X168512667Y-73534106D01*
X168512658Y-73534103D01*
X168338694Y-73499500D01*
X168338691Y-73499500D01*
X168161309Y-73499500D01*
X168161306Y-73499500D01*
X167987341Y-73534103D01*
X167987332Y-73534106D01*
X167823459Y-73601983D01*
X167823446Y-73601990D01*
X167675965Y-73700535D01*
X167675961Y-73700538D01*
X167550538Y-73825961D01*
X167550535Y-73825965D01*
X167451990Y-73973446D01*
X167451983Y-73973459D01*
X167384106Y-74137332D01*
X167384103Y-74137341D01*
X167349500Y-74311304D01*
X165150499Y-74311304D01*
X165115896Y-74137341D01*
X165115893Y-74137332D01*
X165106232Y-74114009D01*
X165098923Y-74096363D01*
X165048016Y-73973459D01*
X165048009Y-73973446D01*
X164949464Y-73825965D01*
X164949461Y-73825961D01*
X164824038Y-73700538D01*
X164824034Y-73700535D01*
X164676553Y-73601990D01*
X164676540Y-73601983D01*
X164512667Y-73534106D01*
X164512658Y-73534103D01*
X164338694Y-73499500D01*
X164338691Y-73499500D01*
X164161309Y-73499500D01*
X164161306Y-73499500D01*
X163987341Y-73534103D01*
X163987332Y-73534106D01*
X163823459Y-73601983D01*
X163823446Y-73601990D01*
X163675965Y-73700535D01*
X163675961Y-73700538D01*
X163550538Y-73825961D01*
X163550535Y-73825965D01*
X163451990Y-73973446D01*
X163451983Y-73973459D01*
X163384106Y-74137332D01*
X163384104Y-74137340D01*
X163371617Y-74200118D01*
X163339232Y-74262028D01*
X163278516Y-74296603D01*
X163208747Y-74292863D01*
X163152075Y-74251996D01*
X163128383Y-74200118D01*
X163115895Y-74137340D01*
X163115894Y-74137334D01*
X163098923Y-74096363D01*
X163048016Y-73973459D01*
X163048009Y-73973446D01*
X162949464Y-73825965D01*
X162949461Y-73825961D01*
X162824038Y-73700538D01*
X162824034Y-73700535D01*
X162676553Y-73601990D01*
X162676540Y-73601983D01*
X162512667Y-73534106D01*
X162512658Y-73534103D01*
X162338694Y-73499500D01*
X162338691Y-73499500D01*
X162161309Y-73499500D01*
X162161306Y-73499500D01*
X161987341Y-73534103D01*
X161987332Y-73534106D01*
X161823459Y-73601983D01*
X161823446Y-73601990D01*
X161675965Y-73700535D01*
X161675961Y-73700538D01*
X161550538Y-73825961D01*
X161550535Y-73825965D01*
X161451990Y-73973446D01*
X161451983Y-73973459D01*
X161384106Y-74137332D01*
X161384104Y-74137340D01*
X161371617Y-74200118D01*
X161339232Y-74262028D01*
X161278516Y-74296603D01*
X161208747Y-74292863D01*
X161152075Y-74251996D01*
X161128383Y-74200118D01*
X161115895Y-74137340D01*
X161115894Y-74137334D01*
X161098923Y-74096363D01*
X161048016Y-73973459D01*
X161048009Y-73973446D01*
X160949464Y-73825965D01*
X160949461Y-73825961D01*
X160824038Y-73700538D01*
X160824034Y-73700535D01*
X160676553Y-73601990D01*
X160676540Y-73601983D01*
X160512667Y-73534106D01*
X160512658Y-73534103D01*
X160338694Y-73499500D01*
X160338691Y-73499500D01*
X160161309Y-73499500D01*
X160161306Y-73499500D01*
X159987341Y-73534103D01*
X159987332Y-73534106D01*
X159823459Y-73601983D01*
X159823446Y-73601990D01*
X159675965Y-73700535D01*
X159675961Y-73700538D01*
X159550538Y-73825961D01*
X159550535Y-73825965D01*
X159451990Y-73973446D01*
X159451983Y-73973459D01*
X159384106Y-74137332D01*
X159384104Y-74137340D01*
X159371617Y-74200118D01*
X159339232Y-74262028D01*
X159278516Y-74296603D01*
X159208747Y-74292863D01*
X159152075Y-74251996D01*
X159128383Y-74200118D01*
X159115895Y-74137340D01*
X159115894Y-74137334D01*
X159098923Y-74096363D01*
X159048016Y-73973459D01*
X159048009Y-73973446D01*
X158949464Y-73825965D01*
X158949461Y-73825961D01*
X158824038Y-73700538D01*
X158824034Y-73700535D01*
X158676553Y-73601990D01*
X158676540Y-73601983D01*
X158512667Y-73534106D01*
X158512658Y-73534103D01*
X158338694Y-73499500D01*
X158338691Y-73499500D01*
X158161309Y-73499500D01*
X158161306Y-73499500D01*
X157987341Y-73534103D01*
X157987332Y-73534106D01*
X157823459Y-73601983D01*
X157823446Y-73601990D01*
X157675965Y-73700535D01*
X157675961Y-73700538D01*
X157550538Y-73825961D01*
X157550535Y-73825965D01*
X157451990Y-73973446D01*
X157451983Y-73973459D01*
X157384106Y-74137332D01*
X157384104Y-74137340D01*
X157371617Y-74200118D01*
X157339232Y-74262028D01*
X157278516Y-74296603D01*
X157208747Y-74292863D01*
X157152075Y-74251996D01*
X157128383Y-74200118D01*
X157115895Y-74137340D01*
X157115894Y-74137334D01*
X157098923Y-74096363D01*
X157048016Y-73973459D01*
X157048009Y-73973446D01*
X156949464Y-73825965D01*
X156949461Y-73825961D01*
X156824038Y-73700538D01*
X156824034Y-73700535D01*
X156676553Y-73601990D01*
X156676540Y-73601983D01*
X156512667Y-73534106D01*
X156512658Y-73534103D01*
X156338694Y-73499500D01*
X156338691Y-73499500D01*
X156161309Y-73499500D01*
X156161306Y-73499500D01*
X155987341Y-73534103D01*
X155987332Y-73534106D01*
X155823459Y-73601983D01*
X155823446Y-73601990D01*
X155675965Y-73700535D01*
X155675961Y-73700538D01*
X155550538Y-73825961D01*
X155550535Y-73825965D01*
X155451990Y-73973446D01*
X155451983Y-73973459D01*
X155384106Y-74137332D01*
X155384104Y-74137340D01*
X155371617Y-74200118D01*
X155339232Y-74262028D01*
X155278516Y-74296603D01*
X155208747Y-74292863D01*
X155152075Y-74251996D01*
X155128383Y-74200118D01*
X155115895Y-74137340D01*
X155115894Y-74137334D01*
X155098923Y-74096363D01*
X155048016Y-73973459D01*
X155048009Y-73973446D01*
X154949464Y-73825965D01*
X154949461Y-73825961D01*
X154824038Y-73700538D01*
X154824034Y-73700535D01*
X154676553Y-73601990D01*
X154676540Y-73601983D01*
X154512667Y-73534106D01*
X154512658Y-73534103D01*
X154338694Y-73499500D01*
X154338691Y-73499500D01*
X154161309Y-73499500D01*
X154161306Y-73499500D01*
X153987341Y-73534103D01*
X153987332Y-73534106D01*
X153823459Y-73601983D01*
X153823446Y-73601990D01*
X153675965Y-73700535D01*
X153675961Y-73700538D01*
X153550538Y-73825961D01*
X153550535Y-73825965D01*
X153451990Y-73973446D01*
X153451983Y-73973459D01*
X153384106Y-74137332D01*
X153384103Y-74137341D01*
X153349500Y-74311304D01*
X151390500Y-74311304D01*
X151390500Y-69500000D01*
X159750000Y-69500000D01*
X159750497Y-69580414D01*
X159758449Y-69740998D01*
X159758451Y-69741025D01*
X159774331Y-69900997D01*
X159774334Y-69901015D01*
X159795517Y-70042686D01*
X159798112Y-70060043D01*
X159827709Y-70207646D01*
X159829725Y-70217697D01*
X159829735Y-70217742D01*
X159869088Y-70373572D01*
X159869094Y-70373594D01*
X159869098Y-70373607D01*
X159916132Y-70527373D01*
X159970713Y-70678624D01*
X160032707Y-70826992D01*
X160092931Y-70953186D01*
X160101972Y-70972131D01*
X160178315Y-71113638D01*
X160210159Y-71166258D01*
X160257798Y-71244979D01*
X160261564Y-71251201D01*
X160261580Y-71251226D01*
X160351510Y-71384472D01*
X160351530Y-71384500D01*
X160447940Y-71513137D01*
X160447973Y-71513180D01*
X160550619Y-71636883D01*
X160550622Y-71636887D01*
X160659305Y-71755411D01*
X160659316Y-71755422D01*
X160773717Y-71868418D01*
X160885260Y-71968186D01*
X160893560Y-71975610D01*
X160893586Y-71975631D01*
X161018559Y-72076747D01*
X161018562Y-72076749D01*
X161148414Y-72171585D01*
X161148418Y-72171587D01*
X161148420Y-72171589D01*
X161173214Y-72187880D01*
X161282785Y-72259874D01*
X161282792Y-72259877D01*
X161282806Y-72259887D01*
X161421393Y-72341432D01*
X161421418Y-72341445D01*
X161421425Y-72341449D01*
X161534193Y-72400497D01*
X161563844Y-72416023D01*
X161709810Y-72483478D01*
X161858933Y-72543633D01*
X162010848Y-72596338D01*
X162165178Y-72641465D01*
X162165179Y-72641466D01*
X162165182Y-72641466D01*
X162165183Y-72641467D01*
X162321562Y-72678908D01*
X162479601Y-72708570D01*
X162638914Y-72730379D01*
X162799110Y-72744284D01*
X162959797Y-72750249D01*
X163120583Y-72748260D01*
X163281074Y-72738322D01*
X163440878Y-72720460D01*
X163440895Y-72720457D01*
X163440897Y-72720457D01*
X163599578Y-72694720D01*
X163599584Y-72694718D01*
X163599602Y-72694716D01*
X163756859Y-72661155D01*
X163912264Y-72619857D01*
X164065436Y-72570925D01*
X164216001Y-72514478D01*
X164363590Y-72450653D01*
X164507842Y-72379608D01*
X164648405Y-72301517D01*
X164784933Y-72216569D01*
X164917094Y-72124973D01*
X165044563Y-72026954D01*
X165139001Y-71946598D01*
X165167032Y-71922748D01*
X165284176Y-71812633D01*
X165284182Y-71812627D01*
X165284191Y-71812619D01*
X165395764Y-71696828D01*
X165501473Y-71575660D01*
X165601062Y-71449413D01*
X165690221Y-71324108D01*
X165694288Y-71318392D01*
X165737908Y-71250180D01*
X165780915Y-71182928D01*
X165860739Y-71043343D01*
X165905207Y-70955803D01*
X165933544Y-70900018D01*
X165933548Y-70900008D01*
X165933563Y-70899980D01*
X165999207Y-70753191D01*
X166057513Y-70603336D01*
X166108336Y-70450781D01*
X166151552Y-70295899D01*
X166187056Y-70139069D01*
X166214761Y-69980675D01*
X166234598Y-69821105D01*
X166246520Y-69660749D01*
X166250498Y-69500000D01*
X166246520Y-69339251D01*
X166234598Y-69178895D01*
X166214761Y-69019325D01*
X166187056Y-68860931D01*
X166151552Y-68704101D01*
X166108336Y-68549219D01*
X166082820Y-68472627D01*
X166058909Y-68400852D01*
X166058907Y-68400847D01*
X166057519Y-68396682D01*
X166057518Y-68396681D01*
X166057513Y-68396664D01*
X166046262Y-68367747D01*
X173999500Y-68367747D01*
X173999500Y-70207252D01*
X174011131Y-70265729D01*
X174011132Y-70265730D01*
X174055447Y-70332052D01*
X174121769Y-70376367D01*
X174121770Y-70376368D01*
X174180247Y-70387999D01*
X174180250Y-70388000D01*
X174180252Y-70388000D01*
X174919750Y-70388000D01*
X174919751Y-70387999D01*
X174934568Y-70385052D01*
X174978229Y-70376368D01*
X174978231Y-70376367D01*
X175006108Y-70357740D01*
X175072785Y-70336861D01*
X175114908Y-70343439D01*
X175130340Y-70348684D01*
X175171769Y-70376367D01*
X175230252Y-70388000D01*
X175245998Y-70388000D01*
X175265408Y-70394598D01*
X175277892Y-70403384D01*
X175292539Y-70407685D01*
X175305880Y-70423082D01*
X175322546Y-70434811D01*
X175328298Y-70448953D01*
X175338294Y-70460489D01*
X175344391Y-70488518D01*
X175348871Y-70499531D01*
X175347907Y-70504681D01*
X175349500Y-70512000D01*
X175349500Y-73269562D01*
X175363152Y-73320513D01*
X175369979Y-73345990D01*
X175383588Y-73369560D01*
X175383590Y-73369563D01*
X175409537Y-73414507D01*
X175409541Y-73414512D01*
X175824181Y-73829152D01*
X175857666Y-73890475D01*
X175860500Y-73916833D01*
X175860500Y-74006892D01*
X175870842Y-74045489D01*
X175894608Y-74134187D01*
X175927085Y-74190438D01*
X175960500Y-74248314D01*
X176053686Y-74341500D01*
X176167814Y-74407392D01*
X176295108Y-74441500D01*
X176295110Y-74441500D01*
X176426890Y-74441500D01*
X176426892Y-74441500D01*
X176554186Y-74407392D01*
X176668314Y-74341500D01*
X176761500Y-74248314D01*
X176827392Y-74134186D01*
X176861500Y-74006892D01*
X176861500Y-73875108D01*
X176827392Y-73747814D01*
X176761500Y-73633686D01*
X176668314Y-73540500D01*
X176597300Y-73499500D01*
X176554187Y-73474608D01*
X176490539Y-73457554D01*
X176426892Y-73440500D01*
X176336833Y-73440500D01*
X176269794Y-73420815D01*
X176249152Y-73404181D01*
X175986819Y-73141848D01*
X175953334Y-73080525D01*
X175950500Y-73054167D01*
X175950500Y-72604108D01*
X188739500Y-72604108D01*
X188739500Y-72735892D01*
X188743347Y-72750249D01*
X188773608Y-72863187D01*
X188798038Y-72905500D01*
X188839500Y-72977314D01*
X188932686Y-73070500D01*
X189046814Y-73136392D01*
X189174108Y-73170500D01*
X189174110Y-73170500D01*
X189305890Y-73170500D01*
X189305892Y-73170500D01*
X189433186Y-73136392D01*
X189547314Y-73070500D01*
X189640500Y-72977314D01*
X189706392Y-72863186D01*
X189740500Y-72735892D01*
X189740500Y-72604108D01*
X189706392Y-72476814D01*
X189640500Y-72362686D01*
X189547314Y-72269500D01*
X189455651Y-72216578D01*
X189433187Y-72203608D01*
X189369539Y-72186554D01*
X189305892Y-72169500D01*
X189174108Y-72169500D01*
X189046812Y-72203608D01*
X188932686Y-72269500D01*
X188932683Y-72269502D01*
X188839502Y-72362683D01*
X188839500Y-72362686D01*
X188773608Y-72476812D01*
X188755704Y-72543633D01*
X188739500Y-72604108D01*
X175950500Y-72604108D01*
X175950500Y-70512000D01*
X175970185Y-70444961D01*
X176022989Y-70399206D01*
X176041672Y-70392424D01*
X176057787Y-70388000D01*
X176069748Y-70388000D01*
X176128231Y-70376367D01*
X176147807Y-70363286D01*
X176167172Y-70357970D01*
X176182836Y-70358246D01*
X176197785Y-70353566D01*
X176217053Y-70358851D01*
X176237031Y-70359205D01*
X176250058Y-70367905D01*
X176265165Y-70372050D01*
X176268892Y-70374445D01*
X176271768Y-70376367D01*
X176271770Y-70376368D01*
X176329852Y-70387920D01*
X176330252Y-70388000D01*
X176330257Y-70388000D01*
X176336312Y-70388597D01*
X176336065Y-70391102D01*
X176392539Y-70407685D01*
X176438294Y-70460489D01*
X176449500Y-70512000D01*
X176449500Y-71316323D01*
X176429815Y-71383362D01*
X176413182Y-71404004D01*
X176349500Y-71467686D01*
X176283608Y-71581812D01*
X176271551Y-71626812D01*
X176249500Y-71709108D01*
X176249500Y-71840892D01*
X176257179Y-71869551D01*
X176283608Y-71968187D01*
X176287890Y-71975603D01*
X176349500Y-72082314D01*
X176442686Y-72175500D01*
X176556814Y-72241392D01*
X176684108Y-72275500D01*
X176684110Y-72275500D01*
X176815890Y-72275500D01*
X176815892Y-72275500D01*
X176943186Y-72241392D01*
X177057314Y-72175500D01*
X177150500Y-72082314D01*
X177216392Y-71968186D01*
X177250500Y-71840892D01*
X177250500Y-71709108D01*
X177216392Y-71581814D01*
X177150500Y-71467686D01*
X177086818Y-71404004D01*
X177053334Y-71342680D01*
X177051337Y-71324108D01*
X195359500Y-71324108D01*
X195359500Y-71455891D01*
X195393608Y-71583187D01*
X195418797Y-71626814D01*
X195459500Y-71697314D01*
X195552686Y-71790500D01*
X195666814Y-71856392D01*
X195794108Y-71890500D01*
X195794110Y-71890500D01*
X195925890Y-71890500D01*
X195925892Y-71890500D01*
X196053186Y-71856392D01*
X196167314Y-71790500D01*
X196203706Y-71754108D01*
X196909500Y-71754108D01*
X196909500Y-71885892D01*
X196919376Y-71922751D01*
X196943608Y-72013187D01*
X196974037Y-72065890D01*
X197009500Y-72127314D01*
X197102686Y-72220500D01*
X197216814Y-72286392D01*
X197344108Y-72320500D01*
X197344110Y-72320500D01*
X197475890Y-72320500D01*
X197475892Y-72320500D01*
X197603186Y-72286392D01*
X197717314Y-72220500D01*
X197810500Y-72127314D01*
X197876392Y-72013186D01*
X197897581Y-71934108D01*
X200699500Y-71934108D01*
X200699500Y-72065891D01*
X200733608Y-72193187D01*
X200760923Y-72240497D01*
X200799500Y-72307314D01*
X200892686Y-72400500D01*
X201006814Y-72466392D01*
X201134108Y-72500500D01*
X201134110Y-72500500D01*
X201265890Y-72500500D01*
X201265892Y-72500500D01*
X201393186Y-72466392D01*
X201507314Y-72400500D01*
X201600500Y-72307314D01*
X201666392Y-72193186D01*
X201700500Y-72065892D01*
X201700500Y-71934108D01*
X201666392Y-71806814D01*
X201647509Y-71774108D01*
X203219500Y-71774108D01*
X203219500Y-71905892D01*
X203227061Y-71934110D01*
X203253608Y-72033187D01*
X203281972Y-72082314D01*
X203319500Y-72147314D01*
X203412686Y-72240500D01*
X203526814Y-72306392D01*
X203654108Y-72340500D01*
X203654110Y-72340500D01*
X203785890Y-72340500D01*
X203785892Y-72340500D01*
X203913186Y-72306392D01*
X204027314Y-72240500D01*
X204120500Y-72147314D01*
X204186392Y-72033186D01*
X204220500Y-71905892D01*
X204220500Y-71774108D01*
X204186392Y-71646814D01*
X204120500Y-71532686D01*
X204027314Y-71439500D01*
X203940781Y-71389540D01*
X203913187Y-71373608D01*
X203838544Y-71353608D01*
X203785892Y-71339500D01*
X203654108Y-71339500D01*
X203526812Y-71373608D01*
X203412686Y-71439500D01*
X203412683Y-71439502D01*
X203319502Y-71532683D01*
X203319500Y-71532686D01*
X203253608Y-71646812D01*
X203236916Y-71709110D01*
X203219500Y-71774108D01*
X201647509Y-71774108D01*
X201600500Y-71692686D01*
X201507314Y-71599500D01*
X201450250Y-71566554D01*
X201393187Y-71533608D01*
X201315092Y-71512683D01*
X201265892Y-71499500D01*
X201134108Y-71499500D01*
X201006812Y-71533608D01*
X200892686Y-71599500D01*
X200892683Y-71599502D01*
X200799502Y-71692683D01*
X200799500Y-71692686D01*
X200733608Y-71806812D01*
X200699500Y-71934108D01*
X197897581Y-71934108D01*
X197910500Y-71885892D01*
X197910500Y-71754108D01*
X197876392Y-71626814D01*
X197810500Y-71512686D01*
X197717314Y-71419500D01*
X197656692Y-71384500D01*
X197603187Y-71353608D01*
X197493089Y-71324108D01*
X197475892Y-71319500D01*
X197344108Y-71319500D01*
X197216812Y-71353608D01*
X197102686Y-71419500D01*
X197102683Y-71419502D01*
X197009502Y-71512683D01*
X197009500Y-71512686D01*
X196943608Y-71626812D01*
X196921557Y-71709110D01*
X196909500Y-71754108D01*
X196203706Y-71754108D01*
X196260500Y-71697314D01*
X196326392Y-71583186D01*
X196360500Y-71455892D01*
X196360500Y-71400940D01*
X196380185Y-71333901D01*
X196432989Y-71288146D01*
X196502147Y-71278202D01*
X196511980Y-71280219D01*
X196514106Y-71280499D01*
X196514108Y-71280500D01*
X196514110Y-71280500D01*
X196645890Y-71280500D01*
X196645892Y-71280500D01*
X196773186Y-71246392D01*
X196887314Y-71180500D01*
X196980500Y-71087314D01*
X197046392Y-70973186D01*
X197080500Y-70845892D01*
X197080500Y-70714108D01*
X197075141Y-70694108D01*
X202069500Y-70694108D01*
X202069500Y-70825892D01*
X202076094Y-70850500D01*
X202103608Y-70953187D01*
X202125036Y-70990300D01*
X202169500Y-71067314D01*
X202262686Y-71160500D01*
X202376814Y-71226392D01*
X202504108Y-71260500D01*
X202504110Y-71260500D01*
X202635890Y-71260500D01*
X202635892Y-71260500D01*
X202763186Y-71226392D01*
X202877314Y-71160500D01*
X202970500Y-71067314D01*
X203036392Y-70953186D01*
X203070500Y-70825892D01*
X203070500Y-70694108D01*
X203036392Y-70566814D01*
X202970500Y-70452686D01*
X202877314Y-70359500D01*
X202797827Y-70313608D01*
X202763187Y-70293608D01*
X202694620Y-70275236D01*
X202635892Y-70259500D01*
X202504108Y-70259500D01*
X202376812Y-70293608D01*
X202262686Y-70359500D01*
X202262683Y-70359502D01*
X202169502Y-70452683D01*
X202169500Y-70452686D01*
X202103608Y-70566812D01*
X202075368Y-70672207D01*
X202069500Y-70694108D01*
X197075141Y-70694108D01*
X197046392Y-70586814D01*
X196980500Y-70472686D01*
X196887314Y-70379500D01*
X196824855Y-70343439D01*
X196773187Y-70313608D01*
X196698544Y-70293608D01*
X196645892Y-70279500D01*
X196514108Y-70279500D01*
X196386812Y-70313608D01*
X196272686Y-70379500D01*
X196272683Y-70379502D01*
X196179502Y-70472683D01*
X196179500Y-70472686D01*
X196113608Y-70586812D01*
X196079500Y-70714108D01*
X196079500Y-70769059D01*
X196059815Y-70836098D01*
X196007011Y-70881853D01*
X195937853Y-70891797D01*
X195928017Y-70889780D01*
X195925893Y-70889500D01*
X195925892Y-70889500D01*
X195794108Y-70889500D01*
X195666814Y-70923608D01*
X195666813Y-70923608D01*
X195666811Y-70923609D01*
X195666810Y-70923609D01*
X195586576Y-70969932D01*
X195586570Y-70969936D01*
X195552686Y-70989500D01*
X195498573Y-71043612D01*
X195498561Y-71043623D01*
X195459503Y-71082682D01*
X195459500Y-71082686D01*
X195393608Y-71196812D01*
X195359500Y-71324108D01*
X177051337Y-71324108D01*
X177050500Y-71316323D01*
X177050500Y-70512000D01*
X177070185Y-70444961D01*
X177122989Y-70399206D01*
X177141672Y-70392424D01*
X177157787Y-70388000D01*
X177169748Y-70388000D01*
X177228231Y-70376367D01*
X177247807Y-70363286D01*
X177267172Y-70357970D01*
X177282836Y-70358246D01*
X177297785Y-70353566D01*
X177317053Y-70358851D01*
X177337031Y-70359205D01*
X177350058Y-70367905D01*
X177365165Y-70372050D01*
X177368892Y-70374445D01*
X177371768Y-70376367D01*
X177371770Y-70376368D01*
X177430247Y-70387999D01*
X177430250Y-70388000D01*
X177430252Y-70388000D01*
X178269750Y-70388000D01*
X178269751Y-70387999D01*
X178284568Y-70385052D01*
X178328229Y-70376368D01*
X178328231Y-70376367D01*
X178331108Y-70374445D01*
X178338335Y-70372181D01*
X178339513Y-70371694D01*
X178339556Y-70371799D01*
X178397785Y-70353566D01*
X178465165Y-70372050D01*
X178468892Y-70374445D01*
X178471768Y-70376367D01*
X178471770Y-70376368D01*
X178530247Y-70387999D01*
X178530250Y-70388000D01*
X178530252Y-70388000D01*
X179369750Y-70388000D01*
X179369751Y-70387999D01*
X179384568Y-70385052D01*
X179428229Y-70376368D01*
X179428231Y-70376367D01*
X179431108Y-70374445D01*
X179438335Y-70372181D01*
X179439513Y-70371694D01*
X179439556Y-70371799D01*
X179497785Y-70353566D01*
X179565165Y-70372050D01*
X179568892Y-70374445D01*
X179571768Y-70376367D01*
X179571770Y-70376368D01*
X179630247Y-70387999D01*
X179630250Y-70388000D01*
X179630252Y-70388000D01*
X180469750Y-70388000D01*
X180469751Y-70387999D01*
X180484568Y-70385052D01*
X180528229Y-70376368D01*
X180528229Y-70376367D01*
X180528231Y-70376367D01*
X180594552Y-70332052D01*
X180638867Y-70265731D01*
X180638867Y-70265729D01*
X180638868Y-70265729D01*
X180650499Y-70207252D01*
X180650500Y-70207250D01*
X180650500Y-68367749D01*
X180650499Y-68367747D01*
X180638868Y-68309270D01*
X180638867Y-68309269D01*
X180594552Y-68242947D01*
X180528230Y-68198632D01*
X180528229Y-68198631D01*
X180469752Y-68187000D01*
X180469748Y-68187000D01*
X179630252Y-68187000D01*
X179630247Y-68187000D01*
X179571770Y-68198631D01*
X179571768Y-68198632D01*
X179568887Y-68200558D01*
X179561655Y-68202822D01*
X179560487Y-68203306D01*
X179560443Y-68203201D01*
X179502209Y-68221433D01*
X179434829Y-68202946D01*
X179431113Y-68200558D01*
X179428231Y-68198632D01*
X179428229Y-68198631D01*
X179369752Y-68187000D01*
X179369748Y-68187000D01*
X178530252Y-68187000D01*
X178530247Y-68187000D01*
X178471770Y-68198631D01*
X178471768Y-68198632D01*
X178468887Y-68200558D01*
X178461655Y-68202822D01*
X178460487Y-68203306D01*
X178460443Y-68203201D01*
X178402209Y-68221433D01*
X178334829Y-68202946D01*
X178331113Y-68200558D01*
X178328231Y-68198632D01*
X178328229Y-68198631D01*
X178269752Y-68187000D01*
X178269748Y-68187000D01*
X177430252Y-68187000D01*
X177430247Y-68187000D01*
X177371770Y-68198631D01*
X177371768Y-68198632D01*
X177368887Y-68200558D01*
X177361655Y-68202822D01*
X177360487Y-68203306D01*
X177360443Y-68203201D01*
X177302209Y-68221433D01*
X177234829Y-68202946D01*
X177231113Y-68200558D01*
X177228231Y-68198632D01*
X177228229Y-68198631D01*
X177169752Y-68187000D01*
X177169748Y-68187000D01*
X176330252Y-68187000D01*
X176330247Y-68187000D01*
X176271770Y-68198631D01*
X176271768Y-68198632D01*
X176268887Y-68200558D01*
X176261655Y-68202822D01*
X176260487Y-68203306D01*
X176260443Y-68203201D01*
X176202209Y-68221433D01*
X176134829Y-68202946D01*
X176131113Y-68200558D01*
X176128231Y-68198632D01*
X176128229Y-68198631D01*
X176069752Y-68187000D01*
X176069748Y-68187000D01*
X175230252Y-68187000D01*
X175230247Y-68187000D01*
X175171770Y-68198631D01*
X175171766Y-68198633D01*
X175143890Y-68217260D01*
X175077213Y-68238138D01*
X175009833Y-68219653D01*
X175006110Y-68217260D01*
X174978233Y-68198633D01*
X174978229Y-68198631D01*
X174919752Y-68187000D01*
X174919748Y-68187000D01*
X174180252Y-68187000D01*
X174180247Y-68187000D01*
X174121770Y-68198631D01*
X174121769Y-68198632D01*
X174055447Y-68242947D01*
X174011132Y-68309269D01*
X174011131Y-68309270D01*
X173999500Y-68367747D01*
X166046262Y-68367747D01*
X165999207Y-68246809D01*
X165999202Y-68246798D01*
X165999195Y-68246781D01*
X165933573Y-68100042D01*
X165933544Y-68099981D01*
X165860752Y-67956682D01*
X165860749Y-67956677D01*
X165860739Y-67956657D01*
X165780915Y-67817072D01*
X165779883Y-67815459D01*
X165694288Y-67681607D01*
X165601066Y-67550593D01*
X165601062Y-67550587D01*
X165501473Y-67424340D01*
X165501456Y-67424320D01*
X165395794Y-67303205D01*
X165395756Y-67303163D01*
X165296415Y-67200067D01*
X165284191Y-67187381D01*
X165284187Y-67187377D01*
X165284182Y-67187372D01*
X165284176Y-67187366D01*
X165167032Y-67077251D01*
X165044552Y-66973037D01*
X164917095Y-66875028D01*
X164917091Y-66875025D01*
X164784919Y-66783421D01*
X164648410Y-66698486D01*
X164648395Y-66698477D01*
X164507841Y-66620391D01*
X164507835Y-66620388D01*
X164363604Y-66549353D01*
X164348522Y-66542831D01*
X164216001Y-66485522D01*
X164095732Y-66440433D01*
X164065434Y-66429074D01*
X163912283Y-66380148D01*
X163912260Y-66380142D01*
X163756859Y-66338845D01*
X163756852Y-66338843D01*
X163756838Y-66338840D01*
X163599606Y-66305284D01*
X163599578Y-66305279D01*
X163440897Y-66279542D01*
X163383958Y-66273177D01*
X163281074Y-66261678D01*
X163227577Y-66258365D01*
X163120587Y-66251740D01*
X163095846Y-66251434D01*
X162959797Y-66249751D01*
X162959791Y-66249751D01*
X162959775Y-66249751D01*
X162799120Y-66255715D01*
X162738833Y-66260947D01*
X162638914Y-66269621D01*
X162638909Y-66269621D01*
X162638905Y-66269622D01*
X162479603Y-66291429D01*
X162321563Y-66321091D01*
X162165179Y-66358533D01*
X162165175Y-66358535D01*
X162010855Y-66403659D01*
X162010835Y-66403666D01*
X161858929Y-66456368D01*
X161858927Y-66456369D01*
X161709815Y-66516520D01*
X161709801Y-66516526D01*
X161563825Y-66583986D01*
X161421425Y-66658550D01*
X161421375Y-66658578D01*
X161282796Y-66740119D01*
X161282785Y-66740125D01*
X161148431Y-66828403D01*
X161148414Y-66828414D01*
X161018562Y-66923250D01*
X161018559Y-66923252D01*
X160893586Y-67024368D01*
X160893552Y-67024396D01*
X160773717Y-67131581D01*
X160659316Y-67244577D01*
X160659305Y-67244588D01*
X160550622Y-67363112D01*
X160550619Y-67363116D01*
X160447973Y-67486819D01*
X160447940Y-67486862D01*
X160351533Y-67615495D01*
X160351510Y-67615527D01*
X160261580Y-67748773D01*
X160261564Y-67748798D01*
X160178315Y-67886361D01*
X160101972Y-68027868D01*
X160067558Y-68099981D01*
X160032707Y-68173008D01*
X159970713Y-68321376D01*
X159953979Y-68367749D01*
X159916135Y-68472617D01*
X159869098Y-68626394D01*
X159869088Y-68626427D01*
X159829735Y-68782257D01*
X159829725Y-68782302D01*
X159798111Y-68939961D01*
X159798111Y-68939962D01*
X159774334Y-69098984D01*
X159774331Y-69099002D01*
X159758451Y-69258974D01*
X159758449Y-69259001D01*
X159750497Y-69419585D01*
X159750000Y-69500000D01*
X151390500Y-69500000D01*
X151390500Y-66569500D01*
X151410185Y-66502461D01*
X151462989Y-66456706D01*
X151514500Y-66445500D01*
X153921846Y-66445500D01*
X153925934Y-66443268D01*
X153952292Y-66440434D01*
X154076433Y-66440434D01*
X154076433Y-66440433D01*
X154435291Y-66400000D01*
X154787369Y-66319640D01*
X155128236Y-66200366D01*
X155453604Y-66043677D01*
X155759383Y-65851543D01*
X156041728Y-65626381D01*
X156297087Y-65371022D01*
X156522249Y-65088677D01*
X156714383Y-64782898D01*
X156871072Y-64457530D01*
X156990346Y-64116663D01*
X157070706Y-63764585D01*
X157111140Y-63405724D01*
X157111140Y-63281586D01*
X157116206Y-63264333D01*
X157116206Y-60854500D01*
X157135891Y-60787461D01*
X157188695Y-60741706D01*
X157240206Y-60730500D01*
X177998272Y-60730500D01*
X177990898Y-67710001D01*
G37*
%TD.AperFunction*%
%TD*%
%TA.AperFunction,Conductor*%
%TO.N,+3V3*%
G36*
X214020617Y-85679041D02*
G01*
X214076084Y-85721529D01*
X214099774Y-85787260D01*
X214100000Y-85794736D01*
X214100000Y-90276000D01*
X214080315Y-90343039D01*
X214027511Y-90388794D01*
X213976000Y-90400000D01*
X212199999Y-90400000D01*
X212036319Y-90563681D01*
X211974996Y-90597166D01*
X211948638Y-90600000D01*
X210924000Y-90600000D01*
X210856961Y-90580315D01*
X210811206Y-90527511D01*
X210800000Y-90476000D01*
X210800000Y-88779881D01*
X210819685Y-88712842D01*
X210837291Y-88691238D01*
X213889296Y-85706088D01*
X213950985Y-85673285D01*
X214020617Y-85679041D01*
G37*
%TD.AperFunction*%
%TD*%
M02*
