%TF.GenerationSoftware,KiCad,Pcbnew,9.0.6*%
%TF.CreationDate,2026-02-11T12:54:48-03:00*%
%TF.ProjectId,flight_comp_srad-2026,666c6967-6874-45f6-936f-6d705f737261,rev?*%
%TF.SameCoordinates,Original*%
%TF.FileFunction,Paste,Top*%
%TF.FilePolarity,Positive*%
%FSLAX46Y46*%
G04 Gerber Fmt 4.6, Leading zero omitted, Abs format (unit mm)*
G04 Created by KiCad (PCBNEW 9.0.6) date 2026-02-11 12:54:48*
%MOMM*%
%LPD*%
G01*
G04 APERTURE LIST*
G04 Aperture macros list*
%AMRoundRect*
0 Rectangle with rounded corners*
0 $1 Rounding radius*
0 $2 $3 $4 $5 $6 $7 $8 $9 X,Y pos of 4 corners*
0 Add a 4 corners polygon primitive as box body*
4,1,4,$2,$3,$4,$5,$6,$7,$8,$9,$2,$3,0*
0 Add four circle primitives for the rounded corners*
1,1,$1+$1,$2,$3*
1,1,$1+$1,$4,$5*
1,1,$1+$1,$6,$7*
1,1,$1+$1,$8,$9*
0 Add four rect primitives between the rounded corners*
20,1,$1+$1,$2,$3,$4,$5,0*
20,1,$1+$1,$4,$5,$6,$7,0*
20,1,$1+$1,$6,$7,$8,$9,0*
20,1,$1+$1,$8,$9,$2,$3,0*%
%AMFreePoly0*
4,1,19,0.563745,0.600348,0.608674,0.548497,0.619677,0.497915,0.619677,-0.497915,0.600348,-0.563745,0.548497,-0.608674,0.497915,-0.619677,-0.497915,-0.619677,-0.563745,-0.600348,-0.608674,-0.548497,-0.619677,-0.497915,-0.619677,0.397045,-0.600348,0.462875,-0.584014,0.483144,-0.483144,0.584014,-0.422927,0.616894,-0.397045,0.619677,0.497915,0.619677,0.563745,0.600348,0.563745,0.600348,
$1*%
%AMFreePoly1*
4,1,19,0.563745,0.600348,0.608674,0.548497,0.619677,0.497915,0.619677,-0.497915,0.600348,-0.563745,0.548497,-0.608674,0.497915,-0.619677,-0.397045,-0.619677,-0.462875,-0.600348,-0.483144,-0.584014,-0.584014,-0.483144,-0.616894,-0.422927,-0.619677,-0.397045,-0.619677,0.497915,-0.600348,0.563745,-0.548497,0.608674,-0.497915,0.619677,0.497915,0.619677,0.563745,0.600348,0.563745,0.600348,
$1*%
%AMFreePoly2*
4,1,19,0.462875,0.600348,0.483144,0.584014,0.584014,0.483144,0.616894,0.422927,0.619677,0.397045,0.619677,-0.497915,0.600348,-0.563745,0.548497,-0.608674,0.497915,-0.619677,-0.497915,-0.619677,-0.563745,-0.600348,-0.608674,-0.548497,-0.619677,-0.497915,-0.619677,0.497915,-0.600348,0.563745,-0.548497,0.608674,-0.497915,0.619677,0.397045,0.619677,0.462875,0.600348,0.462875,0.600348,
$1*%
%AMFreePoly3*
4,1,19,0.563745,0.600348,0.608674,0.548497,0.619677,0.497915,0.619677,-0.397045,0.600348,-0.462875,0.584014,-0.483144,0.483144,-0.584014,0.422927,-0.616894,0.397045,-0.619677,-0.497915,-0.619677,-0.563745,-0.600348,-0.608674,-0.548497,-0.619677,-0.497915,-0.619677,0.497915,-0.600348,0.563745,-0.548497,0.608674,-0.497915,0.619677,0.497915,0.619677,0.563745,0.600348,0.563745,0.600348,
$1*%
G04 Aperture macros list end*
%ADD10C,0.010000*%
%ADD11R,1.050000X0.650000*%
%ADD12RoundRect,0.135000X-0.135000X-0.185000X0.135000X-0.185000X0.135000X0.185000X-0.135000X0.185000X0*%
%ADD13RoundRect,0.140000X-0.140000X-0.170000X0.140000X-0.170000X0.140000X0.170000X-0.140000X0.170000X0*%
%ADD14RoundRect,0.250000X0.250000X0.475000X-0.250000X0.475000X-0.250000X-0.475000X0.250000X-0.475000X0*%
%ADD15RoundRect,0.250000X-0.450000X0.262500X-0.450000X-0.262500X0.450000X-0.262500X0.450000X0.262500X0*%
%ADD16R,0.700000X1.100000*%
%ADD17R,0.900000X0.930000*%
%ADD18R,1.050000X0.780000*%
%ADD19R,1.140000X1.830000*%
%ADD20R,0.860000X2.800000*%
%ADD21R,0.700000X3.330000*%
%ADD22RoundRect,0.150000X-0.150000X0.950000X-0.150000X-0.950000X0.150000X-0.950000X0.150000X0.950000X0*%
%ADD23RoundRect,0.537500X-1.187500X0.537500X-1.187500X-0.537500X1.187500X-0.537500X1.187500X0.537500X0*%
%ADD24FreePoly0,270.000000*%
%ADD25FreePoly1,270.000000*%
%ADD26FreePoly2,270.000000*%
%ADD27FreePoly3,270.000000*%
%ADD28RoundRect,0.050000X-0.050000X0.387500X-0.050000X-0.387500X0.050000X-0.387500X0.050000X0.387500X0*%
%ADD29RoundRect,0.050000X-0.387500X0.050000X-0.387500X-0.050000X0.387500X-0.050000X0.387500X0.050000X0*%
%ADD30RoundRect,0.250000X0.262500X0.450000X-0.262500X0.450000X-0.262500X-0.450000X0.262500X-0.450000X0*%
%ADD31RoundRect,0.250000X-0.262500X-0.450000X0.262500X-0.450000X0.262500X0.450000X-0.262500X0.450000X0*%
%ADD32RoundRect,0.250000X-0.475000X0.250000X-0.475000X-0.250000X0.475000X-0.250000X0.475000X0.250000X0*%
%ADD33RoundRect,0.218750X0.218750X0.256250X-0.218750X0.256250X-0.218750X-0.256250X0.218750X-0.256250X0*%
%ADD34RoundRect,0.250000X0.450000X-0.262500X0.450000X0.262500X-0.450000X0.262500X-0.450000X-0.262500X0*%
%ADD35RoundRect,0.079500X0.079500X0.100500X-0.079500X0.100500X-0.079500X-0.100500X0.079500X-0.100500X0*%
%ADD36R,1.050000X1.300000*%
%ADD37R,1.650000X0.400000*%
%ADD38R,0.700000X1.825000*%
%ADD39R,1.500000X2.000000*%
%ADD40R,2.000000X1.350000*%
%ADD41R,2.500000X1.430000*%
%ADD42RoundRect,0.162500X-0.162500X0.650000X-0.162500X-0.650000X0.162500X-0.650000X0.162500X0.650000X0*%
G04 APERTURE END LIST*
D10*
%TO.C,U5*%
X174900000Y-69187500D02*
X174800000Y-69187500D01*
X174800000Y-70087500D01*
X174300000Y-70087500D01*
X174300000Y-69187500D01*
X174200000Y-69187500D01*
X174200000Y-67787500D01*
X174900000Y-67787500D01*
X174900000Y-69187500D01*
G36*
X174900000Y-69187500D02*
G01*
X174800000Y-69187500D01*
X174800000Y-70087500D01*
X174300000Y-70087500D01*
X174300000Y-69187500D01*
X174200000Y-69187500D01*
X174200000Y-67787500D01*
X174900000Y-67787500D01*
X174900000Y-69187500D01*
G37*
X174800000Y-78887500D02*
X174900000Y-78887500D01*
X174900000Y-80287500D01*
X174200000Y-80287500D01*
X174200000Y-78887500D01*
X174300000Y-78887500D01*
X174300000Y-77987500D01*
X174800000Y-77987500D01*
X174800000Y-78887500D01*
G36*
X174800000Y-78887500D02*
G01*
X174900000Y-78887500D01*
X174900000Y-80287500D01*
X174200000Y-80287500D01*
X174200000Y-78887500D01*
X174300000Y-78887500D01*
X174300000Y-77987500D01*
X174800000Y-77987500D01*
X174800000Y-78887500D01*
G37*
X176050000Y-69187500D02*
X175950000Y-69187500D01*
X175950000Y-70087500D01*
X175350000Y-70087500D01*
X175350000Y-69187500D01*
X175250000Y-69187500D01*
X175250000Y-67787500D01*
X176050000Y-67787500D01*
X176050000Y-69187500D01*
G36*
X176050000Y-69187500D02*
G01*
X175950000Y-69187500D01*
X175950000Y-70087500D01*
X175350000Y-70087500D01*
X175350000Y-69187500D01*
X175250000Y-69187500D01*
X175250000Y-67787500D01*
X176050000Y-67787500D01*
X176050000Y-69187500D01*
G37*
X175950000Y-78887500D02*
X176050000Y-78887500D01*
X176050000Y-80287500D01*
X175250000Y-80287500D01*
X175250000Y-78887500D01*
X175350000Y-78887500D01*
X175350000Y-77987500D01*
X175950000Y-77987500D01*
X175950000Y-78887500D01*
G36*
X175950000Y-78887500D02*
G01*
X176050000Y-78887500D01*
X176050000Y-80287500D01*
X175250000Y-80287500D01*
X175250000Y-78887500D01*
X175350000Y-78887500D01*
X175350000Y-77987500D01*
X175950000Y-77987500D01*
X175950000Y-78887500D01*
G37*
X177150000Y-69187500D02*
X177050000Y-69187500D01*
X177050000Y-70087500D01*
X176450000Y-70087500D01*
X176450000Y-69187500D01*
X176350000Y-69187500D01*
X176350000Y-67787500D01*
X177150000Y-67787500D01*
X177150000Y-69187500D01*
G36*
X177150000Y-69187500D02*
G01*
X177050000Y-69187500D01*
X177050000Y-70087500D01*
X176450000Y-70087500D01*
X176450000Y-69187500D01*
X176350000Y-69187500D01*
X176350000Y-67787500D01*
X177150000Y-67787500D01*
X177150000Y-69187500D01*
G37*
X177050000Y-78887500D02*
X177150000Y-78887500D01*
X177150000Y-80287500D01*
X176350000Y-80287500D01*
X176350000Y-78887500D01*
X176450000Y-78887500D01*
X176450000Y-77987500D01*
X177050000Y-77987500D01*
X177050000Y-78887500D01*
G36*
X177050000Y-78887500D02*
G01*
X177150000Y-78887500D01*
X177150000Y-80287500D01*
X176350000Y-80287500D01*
X176350000Y-78887500D01*
X176450000Y-78887500D01*
X176450000Y-77987500D01*
X177050000Y-77987500D01*
X177050000Y-78887500D01*
G37*
X178250000Y-69187500D02*
X178150000Y-69187500D01*
X178150000Y-70087500D01*
X177550000Y-70087500D01*
X177550000Y-69187500D01*
X177450000Y-69187500D01*
X177450000Y-67787500D01*
X178250000Y-67787500D01*
X178250000Y-69187500D01*
G36*
X178250000Y-69187500D02*
G01*
X178150000Y-69187500D01*
X178150000Y-70087500D01*
X177550000Y-70087500D01*
X177550000Y-69187500D01*
X177450000Y-69187500D01*
X177450000Y-67787500D01*
X178250000Y-67787500D01*
X178250000Y-69187500D01*
G37*
X178150000Y-78887500D02*
X178250000Y-78887500D01*
X178250000Y-80287500D01*
X177450000Y-80287500D01*
X177450000Y-78887500D01*
X177550000Y-78887500D01*
X177550000Y-77987500D01*
X178150000Y-77987500D01*
X178150000Y-78887500D01*
G36*
X178150000Y-78887500D02*
G01*
X178250000Y-78887500D01*
X178250000Y-80287500D01*
X177450000Y-80287500D01*
X177450000Y-78887500D01*
X177550000Y-78887500D01*
X177550000Y-77987500D01*
X178150000Y-77987500D01*
X178150000Y-78887500D01*
G37*
X179350000Y-69187500D02*
X179250000Y-69187500D01*
X179250000Y-70087500D01*
X178650000Y-70087500D01*
X178650000Y-69187500D01*
X178550000Y-69187500D01*
X178550000Y-67787500D01*
X179350000Y-67787500D01*
X179350000Y-69187500D01*
G36*
X179350000Y-69187500D02*
G01*
X179250000Y-69187500D01*
X179250000Y-70087500D01*
X178650000Y-70087500D01*
X178650000Y-69187500D01*
X178550000Y-69187500D01*
X178550000Y-67787500D01*
X179350000Y-67787500D01*
X179350000Y-69187500D01*
G37*
X179250000Y-78887500D02*
X179350000Y-78887500D01*
X179350000Y-80287500D01*
X178550000Y-80287500D01*
X178550000Y-78887500D01*
X178650000Y-78887500D01*
X178650000Y-77987500D01*
X179250000Y-77987500D01*
X179250000Y-78887500D01*
G36*
X179250000Y-78887500D02*
G01*
X179350000Y-78887500D01*
X179350000Y-80287500D01*
X178550000Y-80287500D01*
X178550000Y-78887500D01*
X178650000Y-78887500D01*
X178650000Y-77987500D01*
X179250000Y-77987500D01*
X179250000Y-78887500D01*
G37*
X180450000Y-69187500D02*
X180350000Y-69187500D01*
X180350000Y-70087500D01*
X179750000Y-70087500D01*
X179750000Y-69187500D01*
X179650000Y-69187500D01*
X179650000Y-67787500D01*
X180450000Y-67787500D01*
X180450000Y-69187500D01*
G36*
X180450000Y-69187500D02*
G01*
X180350000Y-69187500D01*
X180350000Y-70087500D01*
X179750000Y-70087500D01*
X179750000Y-69187500D01*
X179650000Y-69187500D01*
X179650000Y-67787500D01*
X180450000Y-67787500D01*
X180450000Y-69187500D01*
G37*
X180350000Y-78887500D02*
X180450000Y-78887500D01*
X180450000Y-80287500D01*
X179650000Y-80287500D01*
X179650000Y-78887500D01*
X179750000Y-78887500D01*
X179750000Y-77987500D01*
X180350000Y-77987500D01*
X180350000Y-78887500D01*
G36*
X180350000Y-78887500D02*
G01*
X180450000Y-78887500D01*
X180450000Y-80287500D01*
X179650000Y-80287500D01*
X179650000Y-78887500D01*
X179750000Y-78887500D01*
X179750000Y-77987500D01*
X180350000Y-77987500D01*
X180350000Y-78887500D01*
G37*
X181550000Y-69187500D02*
X181450000Y-69187500D01*
X181450000Y-70087500D01*
X180850000Y-70087500D01*
X180850000Y-69187500D01*
X180750000Y-69187500D01*
X180750000Y-67787500D01*
X181550000Y-67787500D01*
X181550000Y-69187500D01*
G36*
X181550000Y-69187500D02*
G01*
X181450000Y-69187500D01*
X181450000Y-70087500D01*
X180850000Y-70087500D01*
X180850000Y-69187500D01*
X180750000Y-69187500D01*
X180750000Y-67787500D01*
X181550000Y-67787500D01*
X181550000Y-69187500D01*
G37*
X181450000Y-78887500D02*
X181550000Y-78887500D01*
X181550000Y-80287500D01*
X180750000Y-80287500D01*
X180750000Y-78887500D01*
X180850000Y-78887500D01*
X180850000Y-77987500D01*
X181450000Y-77987500D01*
X181450000Y-78887500D01*
G36*
X181450000Y-78887500D02*
G01*
X181550000Y-78887500D01*
X181550000Y-80287500D01*
X180750000Y-80287500D01*
X180750000Y-78887500D01*
X180850000Y-78887500D01*
X180850000Y-77987500D01*
X181450000Y-77987500D01*
X181450000Y-78887500D01*
G37*
X182650000Y-69187500D02*
X182550000Y-69187500D01*
X182550000Y-70087500D01*
X181950000Y-70087500D01*
X181950000Y-69187500D01*
X181850000Y-69187500D01*
X181850000Y-67787500D01*
X182650000Y-67787500D01*
X182650000Y-69187500D01*
G36*
X182650000Y-69187500D02*
G01*
X182550000Y-69187500D01*
X182550000Y-70087500D01*
X181950000Y-70087500D01*
X181950000Y-69187500D01*
X181850000Y-69187500D01*
X181850000Y-67787500D01*
X182650000Y-67787500D01*
X182650000Y-69187500D01*
G37*
X182550000Y-78887500D02*
X182650000Y-78887500D01*
X182650000Y-80287500D01*
X181850000Y-80287500D01*
X181850000Y-78887500D01*
X181950000Y-78887500D01*
X181950000Y-77987500D01*
X182550000Y-77987500D01*
X182550000Y-78887500D01*
G36*
X182550000Y-78887500D02*
G01*
X182650000Y-78887500D01*
X182650000Y-80287500D01*
X181850000Y-80287500D01*
X181850000Y-78887500D01*
X181950000Y-78887500D01*
X181950000Y-77987500D01*
X182550000Y-77987500D01*
X182550000Y-78887500D01*
G37*
X183700000Y-69187500D02*
X183600000Y-69187500D01*
X183600000Y-70087500D01*
X183100000Y-70087500D01*
X183100000Y-69187500D01*
X183000000Y-69187500D01*
X183000000Y-67787500D01*
X183700000Y-67787500D01*
X183700000Y-69187500D01*
G36*
X183700000Y-69187500D02*
G01*
X183600000Y-69187500D01*
X183600000Y-70087500D01*
X183100000Y-70087500D01*
X183100000Y-69187500D01*
X183000000Y-69187500D01*
X183000000Y-67787500D01*
X183700000Y-67787500D01*
X183700000Y-69187500D01*
G37*
X183600000Y-78887500D02*
X183700000Y-78887500D01*
X183700000Y-80287500D01*
X183000000Y-80287500D01*
X183000000Y-78887500D01*
X183100000Y-78887500D01*
X183100000Y-77987500D01*
X183600000Y-77987500D01*
X183600000Y-78887500D01*
G36*
X183600000Y-78887500D02*
G01*
X183700000Y-78887500D01*
X183700000Y-80287500D01*
X183000000Y-80287500D01*
X183000000Y-78887500D01*
X183100000Y-78887500D01*
X183100000Y-77987500D01*
X183600000Y-77987500D01*
X183600000Y-78887500D01*
G37*
%TO.C,AE1*%
X186750000Y-61800000D02*
X186050000Y-61800000D01*
X186050000Y-61250000D01*
X186750000Y-61250000D01*
X186750000Y-61800000D01*
G36*
X186750000Y-61800000D02*
G01*
X186050000Y-61800000D01*
X186050000Y-61250000D01*
X186750000Y-61250000D01*
X186750000Y-61800000D01*
G37*
X186750000Y-62750000D02*
X186050000Y-62750000D01*
X186050000Y-62200000D01*
X186750000Y-62200000D01*
X186750000Y-62750000D01*
G36*
X186750000Y-62750000D02*
G01*
X186050000Y-62750000D01*
X186050000Y-62200000D01*
X186750000Y-62200000D01*
X186750000Y-62750000D01*
G37*
X189950000Y-62750000D02*
X189250000Y-62750000D01*
X189250000Y-61250000D01*
X189950000Y-61250000D01*
X189950000Y-62750000D01*
G36*
X189950000Y-62750000D02*
G01*
X189250000Y-62750000D01*
X189250000Y-61250000D01*
X189950000Y-61250000D01*
X189950000Y-62750000D01*
G37*
%TD*%
D11*
%TO.C,S1*%
X219100000Y-71400000D03*
X214950000Y-71400000D03*
X219100000Y-69250000D03*
X214950000Y-69250000D03*
%TD*%
D12*
%TO.C,RI2C_2*%
X200670000Y-80787500D03*
X201690000Y-80787500D03*
%TD*%
D13*
%TO.C,CGPS_2*%
X182242418Y-82400000D03*
X183202418Y-82400000D03*
%TD*%
D14*
%TO.C,CX_2*%
X192450000Y-82700000D03*
X190550000Y-82700000D03*
%TD*%
D13*
%TO.C,C16*%
X202740000Y-81400000D03*
X203700000Y-81400000D03*
%TD*%
D15*
%TO.C,RFLASH_1*%
X212075000Y-67662500D03*
X212075000Y-69487500D03*
%TD*%
D16*
%TO.C,J1*%
X184820000Y-98865000D03*
X183720000Y-98865000D03*
X182620000Y-98865000D03*
X181520000Y-98865000D03*
X180420000Y-98865000D03*
X179320000Y-98865000D03*
X178220000Y-98865000D03*
X177120000Y-98865000D03*
D17*
X186610000Y-86400000D03*
D18*
X182345000Y-86325000D03*
D19*
X188700000Y-98850000D03*
D20*
X176040000Y-98365000D03*
D21*
X188920000Y-87600000D03*
X175960000Y-87600000D03*
%TD*%
D22*
%TO.C,U8*%
X212540000Y-92700000D03*
X211270000Y-92700000D03*
X210000000Y-92700000D03*
X208730000Y-92700000D03*
X207460000Y-92700000D03*
D23*
X210000000Y-99000000D03*
%TD*%
D24*
%TO.C,U3*%
X200745000Y-85505000D03*
D25*
X199395000Y-85505000D03*
D26*
X200745000Y-86855000D03*
D27*
X199395000Y-86855000D03*
D28*
X202670000Y-82742500D03*
X202270000Y-82742500D03*
X201870000Y-82742500D03*
X201470000Y-82742500D03*
X201070000Y-82742500D03*
X200670000Y-82742500D03*
X200270000Y-82742500D03*
X199870000Y-82742500D03*
X199470000Y-82742500D03*
X199070000Y-82742500D03*
X198670000Y-82742500D03*
X198270000Y-82742500D03*
X197870000Y-82742500D03*
X197470000Y-82742500D03*
D29*
X196632500Y-83580000D03*
X196632500Y-83980000D03*
X196632500Y-84380000D03*
X196632500Y-84780000D03*
X196632500Y-85180000D03*
X196632500Y-85580000D03*
X196632500Y-85980000D03*
X196632500Y-86380000D03*
X196632500Y-86780000D03*
X196632500Y-87180000D03*
X196632500Y-87580000D03*
X196632500Y-87980000D03*
X196632500Y-88380000D03*
X196632500Y-88780000D03*
D28*
X197470000Y-89617500D03*
X197870000Y-89617500D03*
X198270000Y-89617500D03*
X198670000Y-89617500D03*
X199070000Y-89617500D03*
X199470000Y-89617500D03*
X199870000Y-89617500D03*
X200270000Y-89617500D03*
X200670000Y-89617500D03*
X201070000Y-89617500D03*
X201470000Y-89617500D03*
X201870000Y-89617500D03*
X202270000Y-89617500D03*
X202670000Y-89617500D03*
D29*
X203507500Y-88780000D03*
X203507500Y-88380000D03*
X203507500Y-87980000D03*
X203507500Y-87580000D03*
X203507500Y-87180000D03*
X203507500Y-86780000D03*
X203507500Y-86380000D03*
X203507500Y-85980000D03*
X203507500Y-85580000D03*
X203507500Y-85180000D03*
X203507500Y-84780000D03*
X203507500Y-84380000D03*
X203507500Y-83980000D03*
X203507500Y-83580000D03*
%TD*%
D14*
%TO.C,CPS_3*%
X209950000Y-90100000D03*
X208050000Y-90100000D03*
%TD*%
D30*
%TO.C,RL_2*%
X204625000Y-99100000D03*
X202800000Y-99100000D03*
%TD*%
D13*
%TO.C,CGPS_3*%
X182244837Y-83406049D03*
X183204837Y-83406049D03*
%TD*%
D31*
%TO.C,R_RST1*%
X191187500Y-89300000D03*
X193012500Y-89300000D03*
%TD*%
D13*
%TO.C,CGPS_1*%
X182242418Y-81400000D03*
X183202418Y-81400000D03*
%TD*%
D32*
%TO.C,CPS_1*%
X214900000Y-92050000D03*
X214900000Y-93950000D03*
%TD*%
D33*
%TO.C,D1*%
X200687500Y-97500000D03*
X199112500Y-97500000D03*
%TD*%
D12*
%TO.C,RI2C_1*%
X200270000Y-78877500D03*
X201290000Y-78877500D03*
%TD*%
D34*
%TO.C,RI2C_3*%
X193950000Y-80875000D03*
X193950000Y-79050000D03*
%TD*%
D35*
%TO.C,R4*%
X207800000Y-87900000D03*
X207110000Y-87900000D03*
%TD*%
D31*
%TO.C,RFLASH_2*%
X210425000Y-71525000D03*
X212250000Y-71525000D03*
%TD*%
D36*
%TO.C,Y1*%
X192375000Y-87150000D03*
X192375000Y-84850000D03*
X190625000Y-84850000D03*
X190625000Y-87150000D03*
%TD*%
D15*
%TO.C,RX_1*%
X188700000Y-82487500D03*
X188700000Y-84312500D03*
%TD*%
D33*
%TO.C,D2*%
X204500000Y-97200000D03*
X202925000Y-97200000D03*
%TD*%
D37*
%TO.C,J3*%
X216035000Y-78925000D03*
X216035000Y-78275000D03*
X216035000Y-77625000D03*
X216035000Y-76975000D03*
X216035000Y-76325000D03*
D38*
X217235000Y-80575000D03*
D39*
X215935000Y-80475000D03*
D40*
X217985000Y-80355000D03*
D41*
X219185000Y-78585000D03*
X219185000Y-76665000D03*
D40*
X217985000Y-74875000D03*
D39*
X215915000Y-74725000D03*
D38*
X217235000Y-74625000D03*
%TD*%
D30*
%TO.C,RL_1*%
X200912500Y-99400000D03*
X199087500Y-99400000D03*
%TD*%
D34*
%TO.C,RI2C_4*%
X191420000Y-79930000D03*
X191420000Y-78105000D03*
%TD*%
D35*
%TO.C,R3*%
X207800000Y-87192500D03*
X207110000Y-87192500D03*
%TD*%
D42*
%TO.C,U6*%
X211275000Y-76142500D03*
X210005000Y-76142500D03*
X208735000Y-76142500D03*
X207465000Y-76142500D03*
X207465000Y-83317500D03*
X208735000Y-83317500D03*
X210005000Y-83317500D03*
X211275000Y-83317500D03*
%TD*%
D11*
%TO.C,S2*%
X191150000Y-91950000D03*
X195300000Y-91950000D03*
X191150000Y-94100000D03*
X195300000Y-94100000D03*
%TD*%
M02*
