%TF.GenerationSoftware,KiCad,Pcbnew,9.0.6*%
%TF.CreationDate,2026-01-07T02:43:41-03:00*%
%TF.ProjectId,flight_comp_srad-2026,666c6967-6874-45f6-936f-6d705f737261,rev?*%
%TF.SameCoordinates,Original*%
%TF.FileFunction,Legend,Bot*%
%TF.FilePolarity,Positive*%
%FSLAX46Y46*%
G04 Gerber Fmt 4.6, Leading zero omitted, Abs format (unit mm)*
G04 Created by KiCad (PCBNEW 9.0.6) date 2026-01-07 02:43:41*
%MOMM*%
%LPD*%
G01*
G04 APERTURE LIST*
%ADD10C,0.150000*%
%ADD11C,0.120000*%
%ADD12C,0.127000*%
%ADD13C,0.200000*%
G04 APERTURE END LIST*
D10*
X184904819Y-94020833D02*
X184428628Y-93687500D01*
X184904819Y-93449405D02*
X183904819Y-93449405D01*
X183904819Y-93449405D02*
X183904819Y-93830357D01*
X183904819Y-93830357D02*
X183952438Y-93925595D01*
X183952438Y-93925595D02*
X184000057Y-93973214D01*
X184000057Y-93973214D02*
X184095295Y-94020833D01*
X184095295Y-94020833D02*
X184238152Y-94020833D01*
X184238152Y-94020833D02*
X184333390Y-93973214D01*
X184333390Y-93973214D02*
X184381009Y-93925595D01*
X184381009Y-93925595D02*
X184428628Y-93830357D01*
X184428628Y-93830357D02*
X184428628Y-93449405D01*
X184333390Y-94592262D02*
X184285771Y-94497024D01*
X184285771Y-94497024D02*
X184238152Y-94449405D01*
X184238152Y-94449405D02*
X184142914Y-94401786D01*
X184142914Y-94401786D02*
X184095295Y-94401786D01*
X184095295Y-94401786D02*
X184000057Y-94449405D01*
X184000057Y-94449405D02*
X183952438Y-94497024D01*
X183952438Y-94497024D02*
X183904819Y-94592262D01*
X183904819Y-94592262D02*
X183904819Y-94782738D01*
X183904819Y-94782738D02*
X183952438Y-94877976D01*
X183952438Y-94877976D02*
X184000057Y-94925595D01*
X184000057Y-94925595D02*
X184095295Y-94973214D01*
X184095295Y-94973214D02*
X184142914Y-94973214D01*
X184142914Y-94973214D02*
X184238152Y-94925595D01*
X184238152Y-94925595D02*
X184285771Y-94877976D01*
X184285771Y-94877976D02*
X184333390Y-94782738D01*
X184333390Y-94782738D02*
X184333390Y-94592262D01*
X184333390Y-94592262D02*
X184381009Y-94497024D01*
X184381009Y-94497024D02*
X184428628Y-94449405D01*
X184428628Y-94449405D02*
X184523866Y-94401786D01*
X184523866Y-94401786D02*
X184714342Y-94401786D01*
X184714342Y-94401786D02*
X184809580Y-94449405D01*
X184809580Y-94449405D02*
X184857200Y-94497024D01*
X184857200Y-94497024D02*
X184904819Y-94592262D01*
X184904819Y-94592262D02*
X184904819Y-94782738D01*
X184904819Y-94782738D02*
X184857200Y-94877976D01*
X184857200Y-94877976D02*
X184809580Y-94925595D01*
X184809580Y-94925595D02*
X184714342Y-94973214D01*
X184714342Y-94973214D02*
X184523866Y-94973214D01*
X184523866Y-94973214D02*
X184428628Y-94925595D01*
X184428628Y-94925595D02*
X184381009Y-94877976D01*
X184381009Y-94877976D02*
X184333390Y-94782738D01*
X198955419Y-74674857D02*
X198955419Y-74979619D01*
X199138276Y-74613905D02*
X198498276Y-74827238D01*
X198498276Y-74827238D02*
X199138276Y-75040572D01*
X199138276Y-75589143D02*
X199138276Y-75223428D01*
X199138276Y-75406285D02*
X198498276Y-75406285D01*
X198498276Y-75406285D02*
X198589704Y-75345333D01*
X198589704Y-75345333D02*
X198650657Y-75284381D01*
X198650657Y-75284381D02*
X198681133Y-75223428D01*
X210354819Y-65438095D02*
X211164342Y-65438095D01*
X211164342Y-65438095D02*
X211259580Y-65485714D01*
X211259580Y-65485714D02*
X211307200Y-65533333D01*
X211307200Y-65533333D02*
X211354819Y-65628571D01*
X211354819Y-65628571D02*
X211354819Y-65819047D01*
X211354819Y-65819047D02*
X211307200Y-65914285D01*
X211307200Y-65914285D02*
X211259580Y-65961904D01*
X211259580Y-65961904D02*
X211164342Y-66009523D01*
X211164342Y-66009523D02*
X210354819Y-66009523D01*
X210688152Y-66914285D02*
X211354819Y-66914285D01*
X210307200Y-66676190D02*
X211021485Y-66438095D01*
X211021485Y-66438095D02*
X211021485Y-67057142D01*
X190734819Y-69928095D02*
X191544342Y-69928095D01*
X191544342Y-69928095D02*
X191639580Y-69975714D01*
X191639580Y-69975714D02*
X191687200Y-70023333D01*
X191687200Y-70023333D02*
X191734819Y-70118571D01*
X191734819Y-70118571D02*
X191734819Y-70309047D01*
X191734819Y-70309047D02*
X191687200Y-70404285D01*
X191687200Y-70404285D02*
X191639580Y-70451904D01*
X191639580Y-70451904D02*
X191544342Y-70499523D01*
X191544342Y-70499523D02*
X190734819Y-70499523D01*
X191734819Y-71499523D02*
X191734819Y-70928095D01*
X191734819Y-71213809D02*
X190734819Y-71213809D01*
X190734819Y-71213809D02*
X190877676Y-71118571D01*
X190877676Y-71118571D02*
X190972914Y-71023333D01*
X190972914Y-71023333D02*
X191020533Y-70928095D01*
X156448809Y-94589580D02*
X156496428Y-94637200D01*
X156496428Y-94637200D02*
X156639285Y-94684819D01*
X156639285Y-94684819D02*
X156734523Y-94684819D01*
X156734523Y-94684819D02*
X156877380Y-94637200D01*
X156877380Y-94637200D02*
X156972618Y-94541961D01*
X156972618Y-94541961D02*
X157020237Y-94446723D01*
X157020237Y-94446723D02*
X157067856Y-94256247D01*
X157067856Y-94256247D02*
X157067856Y-94113390D01*
X157067856Y-94113390D02*
X157020237Y-93922914D01*
X157020237Y-93922914D02*
X156972618Y-93827676D01*
X156972618Y-93827676D02*
X156877380Y-93732438D01*
X156877380Y-93732438D02*
X156734523Y-93684819D01*
X156734523Y-93684819D02*
X156639285Y-93684819D01*
X156639285Y-93684819D02*
X156496428Y-93732438D01*
X156496428Y-93732438D02*
X156448809Y-93780057D01*
X156115475Y-93684819D02*
X155448809Y-94684819D01*
X155448809Y-93684819D02*
X156115475Y-94684819D01*
X154734523Y-94161009D02*
X154591666Y-94208628D01*
X154591666Y-94208628D02*
X154544047Y-94256247D01*
X154544047Y-94256247D02*
X154496428Y-94351485D01*
X154496428Y-94351485D02*
X154496428Y-94494342D01*
X154496428Y-94494342D02*
X154544047Y-94589580D01*
X154544047Y-94589580D02*
X154591666Y-94637200D01*
X154591666Y-94637200D02*
X154686904Y-94684819D01*
X154686904Y-94684819D02*
X155067856Y-94684819D01*
X155067856Y-94684819D02*
X155067856Y-93684819D01*
X155067856Y-93684819D02*
X154734523Y-93684819D01*
X154734523Y-93684819D02*
X154639285Y-93732438D01*
X154639285Y-93732438D02*
X154591666Y-93780057D01*
X154591666Y-93780057D02*
X154544047Y-93875295D01*
X154544047Y-93875295D02*
X154544047Y-93970533D01*
X154544047Y-93970533D02*
X154591666Y-94065771D01*
X154591666Y-94065771D02*
X154639285Y-94113390D01*
X154639285Y-94113390D02*
X154734523Y-94161009D01*
X154734523Y-94161009D02*
X155067856Y-94161009D01*
X154305952Y-94780057D02*
X153544047Y-94780057D01*
X153353570Y-93780057D02*
X153305951Y-93732438D01*
X153305951Y-93732438D02*
X153210713Y-93684819D01*
X153210713Y-93684819D02*
X152972618Y-93684819D01*
X152972618Y-93684819D02*
X152877380Y-93732438D01*
X152877380Y-93732438D02*
X152829761Y-93780057D01*
X152829761Y-93780057D02*
X152782142Y-93875295D01*
X152782142Y-93875295D02*
X152782142Y-93970533D01*
X152782142Y-93970533D02*
X152829761Y-94113390D01*
X152829761Y-94113390D02*
X153401189Y-94684819D01*
X153401189Y-94684819D02*
X152782142Y-94684819D01*
X156442200Y-96186184D02*
X156489819Y-96233804D01*
X156489819Y-96233804D02*
X156632676Y-96281423D01*
X156632676Y-96281423D02*
X156727914Y-96281423D01*
X156727914Y-96281423D02*
X156870771Y-96233804D01*
X156870771Y-96233804D02*
X156966009Y-96138565D01*
X156966009Y-96138565D02*
X157013628Y-96043327D01*
X157013628Y-96043327D02*
X157061247Y-95852851D01*
X157061247Y-95852851D02*
X157061247Y-95709994D01*
X157061247Y-95709994D02*
X157013628Y-95519518D01*
X157013628Y-95519518D02*
X156966009Y-95424280D01*
X156966009Y-95424280D02*
X156870771Y-95329042D01*
X156870771Y-95329042D02*
X156727914Y-95281423D01*
X156727914Y-95281423D02*
X156632676Y-95281423D01*
X156632676Y-95281423D02*
X156489819Y-95329042D01*
X156489819Y-95329042D02*
X156442200Y-95376661D01*
X156108866Y-95281423D02*
X155442200Y-96281423D01*
X155442200Y-95281423D02*
X156108866Y-96281423D01*
X154727914Y-95757613D02*
X154585057Y-95805232D01*
X154585057Y-95805232D02*
X154537438Y-95852851D01*
X154537438Y-95852851D02*
X154489819Y-95948089D01*
X154489819Y-95948089D02*
X154489819Y-96090946D01*
X154489819Y-96090946D02*
X154537438Y-96186184D01*
X154537438Y-96186184D02*
X154585057Y-96233804D01*
X154585057Y-96233804D02*
X154680295Y-96281423D01*
X154680295Y-96281423D02*
X155061247Y-96281423D01*
X155061247Y-96281423D02*
X155061247Y-95281423D01*
X155061247Y-95281423D02*
X154727914Y-95281423D01*
X154727914Y-95281423D02*
X154632676Y-95329042D01*
X154632676Y-95329042D02*
X154585057Y-95376661D01*
X154585057Y-95376661D02*
X154537438Y-95471899D01*
X154537438Y-95471899D02*
X154537438Y-95567137D01*
X154537438Y-95567137D02*
X154585057Y-95662375D01*
X154585057Y-95662375D02*
X154632676Y-95709994D01*
X154632676Y-95709994D02*
X154727914Y-95757613D01*
X154727914Y-95757613D02*
X155061247Y-95757613D01*
X154299343Y-96376661D02*
X153537438Y-96376661D01*
X152775533Y-96281423D02*
X153346961Y-96281423D01*
X153061247Y-96281423D02*
X153061247Y-95281423D01*
X153061247Y-95281423D02*
X153156485Y-95424280D01*
X153156485Y-95424280D02*
X153251723Y-95519518D01*
X153251723Y-95519518D02*
X153346961Y-95567137D01*
D11*
%TO.C,C8*%
X205612164Y-87240000D02*
X205827836Y-87240000D01*
X205612164Y-87960000D02*
X205827836Y-87960000D01*
%TO.C,C15*%
X198940000Y-80627836D02*
X198940000Y-80412164D01*
X199660000Y-80627836D02*
X199660000Y-80412164D01*
%TO.C,C10*%
X205612164Y-88240000D02*
X205827836Y-88240000D01*
X205612164Y-88960000D02*
X205827836Y-88960000D01*
%TO.C,R6*%
X179765000Y-93960436D02*
X179765000Y-94414564D01*
X181235000Y-93960436D02*
X181235000Y-94414564D01*
%TO.C,CBAR_2*%
X203307836Y-77240000D02*
X203092164Y-77240000D01*
X203307836Y-77960000D02*
X203092164Y-77960000D01*
%TO.C,CIIM_1*%
X190307836Y-74240000D02*
X190092164Y-74240000D01*
X190307836Y-74960000D02*
X190092164Y-74960000D01*
%TO.C,R8*%
X182065000Y-94414564D02*
X182065000Y-93960436D01*
X183535000Y-94414564D02*
X183535000Y-93960436D01*
D12*
%TO.C,A1*%
X199625000Y-73500000D02*
X199630000Y-73500000D01*
X199625000Y-76500000D02*
X199625000Y-73500000D01*
X199630000Y-76500000D02*
X199625000Y-76500000D01*
X204625000Y-73500000D02*
X204620000Y-73500000D01*
X204625000Y-73500000D02*
X204625000Y-76500000D01*
X204625000Y-76500000D02*
X204620000Y-76500000D01*
D13*
X200350000Y-72350000D02*
G75*
G02*
X200150000Y-72350000I-100000J0D01*
G01*
X200150000Y-72350000D02*
G75*
G02*
X200350000Y-72350000I100000J0D01*
G01*
D11*
%TO.C,C6*%
X194527836Y-87340000D02*
X194312164Y-87340000D01*
X194527836Y-88060000D02*
X194312164Y-88060000D01*
%TO.C,U4*%
X204890000Y-65540000D02*
X204890000Y-64790000D01*
X204890000Y-66660000D02*
X204890000Y-67710000D01*
X210110000Y-65540000D02*
X210110000Y-64490000D01*
X210110000Y-66660000D02*
X210110000Y-67710000D01*
X204890000Y-64490000D02*
X204700000Y-64630000D01*
X204700000Y-64350000D01*
X204890000Y-64490000D01*
G36*
X204890000Y-64490000D02*
G01*
X204700000Y-64630000D01*
X204700000Y-64350000D01*
X204890000Y-64490000D01*
G37*
%TO.C,CADXL_1*%
X203640000Y-64707836D02*
X203640000Y-64492164D01*
X204360000Y-64707836D02*
X204360000Y-64492164D01*
%TO.C,U1*%
X191940000Y-72365000D02*
X192515000Y-72365000D01*
X191940000Y-72940000D02*
X191940000Y-72365000D01*
X191940000Y-77010000D02*
X191940000Y-77585000D01*
X191940000Y-77585000D02*
X192515000Y-77585000D01*
X196585000Y-77585000D02*
X196920000Y-77585000D01*
X197160000Y-72365000D02*
X196585000Y-72365000D01*
X197160000Y-72940000D02*
X197160000Y-72365000D01*
X197160000Y-77010000D02*
X197160000Y-77285000D01*
X197490000Y-77825000D02*
X197160000Y-77585000D01*
X197490000Y-77345000D01*
X197490000Y-77825000D01*
G36*
X197490000Y-77825000D02*
G01*
X197160000Y-77585000D01*
X197490000Y-77345000D01*
X197490000Y-77825000D01*
G37*
%TO.C,CIIM_2*%
X198040000Y-74292164D02*
X198040000Y-74507836D01*
X198760000Y-74292164D02*
X198760000Y-74507836D01*
%TO.C,CADXL_2*%
X212738748Y-64265000D02*
X213261252Y-64265000D01*
X212738748Y-65735000D02*
X213261252Y-65735000D01*
%TO.C,CIIM_3*%
X190307836Y-73040000D02*
X190092164Y-73040000D01*
X190307836Y-73760000D02*
X190092164Y-73760000D01*
%TO.C,C13*%
X194527836Y-86140000D02*
X194312164Y-86140000D01*
X194527836Y-86860000D02*
X194312164Y-86860000D01*
%TO.C,R7*%
X177565000Y-93960436D02*
X177565000Y-94414564D01*
X179035000Y-93960436D02*
X179035000Y-94414564D01*
%TO.C,C9*%
X205612164Y-86240000D02*
X205827836Y-86240000D01*
X205612164Y-86960000D02*
X205827836Y-86960000D01*
%TO.C,C7*%
X205612164Y-85240000D02*
X205827836Y-85240000D01*
X205612164Y-85960000D02*
X205827836Y-85960000D01*
%TO.C,CXB_2*%
X154784420Y-92290000D02*
X155065580Y-92290000D01*
X154784420Y-93310000D02*
X155065580Y-93310000D01*
%TO.C,CXB_1*%
X154777811Y-93886604D02*
X155058971Y-93886604D01*
X154777811Y-94906604D02*
X155058971Y-94906604D01*
%TO.C,CBAR_1*%
X199840000Y-71907836D02*
X199840000Y-71692164D01*
X200560000Y-71907836D02*
X200560000Y-71692164D01*
%TO.C,CFLASH_1*%
X208227836Y-85940000D02*
X208012164Y-85940000D01*
X208227836Y-86660000D02*
X208012164Y-86660000D01*
%TO.C,C12*%
X205612164Y-89240000D02*
X205827836Y-89240000D01*
X205612164Y-89960000D02*
X205827836Y-89960000D01*
%TO.C,CIIM_4*%
X190440000Y-76292164D02*
X190440000Y-76507836D01*
X191160000Y-76292164D02*
X191160000Y-76507836D01*
%TD*%
M02*
