%TF.GenerationSoftware,KiCad,Pcbnew,9.0.6*%
%TF.CreationDate,2026-02-22T15:43:58-03:00*%
%TF.ProjectId,flight_comp_srad-2026,666c6967-6874-45f6-936f-6d705f737261,rev?*%
%TF.SameCoordinates,Original*%
%TF.FileFunction,Paste,Bot*%
%TF.FilePolarity,Positive*%
%FSLAX46Y46*%
G04 Gerber Fmt 4.6, Leading zero omitted, Abs format (unit mm)*
G04 Created by KiCad (PCBNEW 9.0.6) date 2026-02-22 15:43:58*
%MOMM*%
%LPD*%
G01*
G04 APERTURE LIST*
G04 Aperture macros list*
%AMRoundRect*
0 Rectangle with rounded corners*
0 $1 Rounding radius*
0 $2 $3 $4 $5 $6 $7 $8 $9 X,Y pos of 4 corners*
0 Add a 4 corners polygon primitive as box body*
4,1,4,$2,$3,$4,$5,$6,$7,$8,$9,$2,$3,0*
0 Add four circle primitives for the rounded corners*
1,1,$1+$1,$2,$3*
1,1,$1+$1,$4,$5*
1,1,$1+$1,$6,$7*
1,1,$1+$1,$8,$9*
0 Add four rect primitives between the rounded corners*
20,1,$1+$1,$2,$3,$4,$5,0*
20,1,$1+$1,$4,$5,$6,$7,0*
20,1,$1+$1,$6,$7,$8,$9,0*
20,1,$1+$1,$8,$9,$2,$3,0*%
%AMFreePoly0*
4,1,19,0.398209,0.132453,0.423861,0.088024,0.425000,0.075000,0.425000,0.031066,0.407453,-0.017143,0.403033,-0.021967,0.296967,-0.128033,0.250471,-0.149715,0.243934,-0.150000,-0.350000,-0.150000,-0.398209,-0.132453,-0.423861,-0.088024,-0.425000,-0.075000,-0.425000,0.075000,-0.407453,0.123209,-0.363024,0.148861,-0.350000,0.150000,0.350000,0.150000,0.398209,0.132453,0.398209,0.132453,
$1*%
%AMFreePoly1*
4,1,19,0.292143,0.132453,0.296967,0.128033,0.403033,0.021967,0.424715,-0.024529,0.425000,-0.031066,0.425000,-0.075000,0.407453,-0.123209,0.363024,-0.148861,0.350000,-0.150000,-0.350000,-0.150000,-0.398209,-0.132453,-0.423861,-0.088024,-0.425000,-0.075000,-0.425000,0.075000,-0.407453,0.123209,-0.363024,0.148861,-0.350000,0.150000,0.243934,0.150000,0.292143,0.132453,0.292143,0.132453,
$1*%
%AMFreePoly2*
4,1,19,0.123209,0.407453,0.148861,0.363024,0.150000,0.350000,0.150000,-0.350000,0.132453,-0.398209,0.088024,-0.423861,0.075000,-0.425000,0.031066,-0.425000,-0.017143,-0.407453,-0.021967,-0.403033,-0.128033,-0.296967,-0.149715,-0.250471,-0.150000,-0.243934,-0.150000,0.350000,-0.132453,0.398209,-0.088024,0.423861,-0.075000,0.425000,0.075000,0.425000,0.123209,0.407453,0.123209,0.407453,
$1*%
%AMFreePoly3*
4,1,19,0.123209,0.407453,0.148861,0.363024,0.150000,0.350000,0.150000,-0.243934,0.132453,-0.292143,0.128033,-0.296967,0.021967,-0.403033,-0.024529,-0.424715,-0.031066,-0.425000,-0.075000,-0.425000,-0.123209,-0.407453,-0.148861,-0.363024,-0.150000,-0.350000,-0.150000,0.350000,-0.132453,0.398209,-0.088024,0.423861,-0.075000,0.425000,0.075000,0.425000,0.123209,0.407453,0.123209,0.407453,
$1*%
%AMFreePoly4*
4,1,19,0.398209,0.132453,0.423861,0.088024,0.425000,0.075000,0.425000,-0.075000,0.407453,-0.123209,0.363024,-0.148861,0.350000,-0.150000,-0.350000,-0.150000,-0.398209,-0.132453,-0.423861,-0.088024,-0.425000,-0.075000,-0.425000,-0.031066,-0.407453,0.017143,-0.403033,0.021967,-0.296967,0.128033,-0.250471,0.149715,-0.243934,0.150000,0.350000,0.150000,0.398209,0.132453,0.398209,0.132453,
$1*%
%AMFreePoly5*
4,1,19,0.398209,0.132453,0.423861,0.088024,0.425000,0.075000,0.425000,-0.075000,0.407453,-0.123209,0.363024,-0.148861,0.350000,-0.150000,-0.243934,-0.150000,-0.292143,-0.132453,-0.296967,-0.128033,-0.403033,-0.021967,-0.424715,0.024529,-0.425000,0.031066,-0.425000,0.075000,-0.407453,0.123209,-0.363024,0.148861,-0.350000,0.150000,0.350000,0.150000,0.398209,0.132453,0.398209,0.132453,
$1*%
%AMFreePoly6*
4,1,19,0.017143,0.407453,0.021967,0.403033,0.128033,0.296967,0.149715,0.250471,0.150000,0.243934,0.150000,-0.350000,0.132453,-0.398209,0.088024,-0.423861,0.075000,-0.425000,-0.075000,-0.425000,-0.123209,-0.407453,-0.148861,-0.363024,-0.150000,-0.350000,-0.150000,0.350000,-0.132453,0.398209,-0.088024,0.423861,-0.075000,0.425000,-0.031066,0.425000,0.017143,0.407453,0.017143,0.407453,
$1*%
%AMFreePoly7*
4,1,19,0.123209,0.407453,0.148861,0.363024,0.150000,0.350000,0.150000,-0.350000,0.132453,-0.398209,0.088024,-0.423861,0.075000,-0.425000,-0.075000,-0.425000,-0.123209,-0.407453,-0.148861,-0.363024,-0.150000,-0.350000,-0.150000,0.243934,-0.132453,0.292143,-0.128033,0.296967,-0.021967,0.403033,0.024529,0.424715,0.031066,0.425000,0.075000,0.425000,0.123209,0.407453,0.123209,0.407453,
$1*%
G04 Aperture macros list end*
%ADD10RoundRect,0.250000X-0.450000X0.262500X-0.450000X-0.262500X0.450000X-0.262500X0.450000X0.262500X0*%
%ADD11RoundRect,0.250000X0.262500X0.450000X-0.262500X0.450000X-0.262500X-0.450000X0.262500X-0.450000X0*%
%ADD12RoundRect,0.140000X-0.140000X-0.170000X0.140000X-0.170000X0.140000X0.170000X-0.140000X0.170000X0*%
%ADD13RoundRect,0.250000X0.450000X-0.262500X0.450000X0.262500X-0.450000X0.262500X-0.450000X-0.262500X0*%
%ADD14RoundRect,0.140000X0.140000X0.170000X-0.140000X0.170000X-0.140000X-0.170000X0.140000X-0.170000X0*%
%ADD15RoundRect,0.140000X-0.170000X0.140000X-0.170000X-0.140000X0.170000X-0.140000X0.170000X0.140000X0*%
%ADD16R,0.600000X1.100000*%
%ADD17RoundRect,0.250000X0.475000X-0.250000X0.475000X0.250000X-0.475000X0.250000X-0.475000X-0.250000X0*%
%ADD18RoundRect,0.140000X0.170000X-0.140000X0.170000X0.140000X-0.170000X0.140000X-0.170000X-0.140000X0*%
%ADD19RoundRect,0.250000X-0.250000X-0.475000X0.250000X-0.475000X0.250000X0.475000X-0.250000X0.475000X0*%
%ADD20RoundRect,0.250000X0.405000X-0.405000X0.405000X0.405000X-0.405000X0.405000X-0.405000X-0.405000X0*%
%ADD21FreePoly0,90.000000*%
%ADD22RoundRect,0.075000X0.075000X-0.350000X0.075000X0.350000X-0.075000X0.350000X-0.075000X-0.350000X0*%
%ADD23FreePoly1,90.000000*%
%ADD24FreePoly2,90.000000*%
%ADD25RoundRect,0.075000X0.350000X-0.075000X0.350000X0.075000X-0.350000X0.075000X-0.350000X-0.075000X0*%
%ADD26FreePoly3,90.000000*%
%ADD27FreePoly4,90.000000*%
%ADD28FreePoly5,90.000000*%
%ADD29FreePoly6,90.000000*%
%ADD30FreePoly7,90.000000*%
%ADD31RoundRect,0.150000X0.587500X0.150000X-0.587500X0.150000X-0.587500X-0.150000X0.587500X-0.150000X0*%
%ADD32RoundRect,0.150000X-0.150000X0.325000X-0.150000X-0.325000X0.150000X-0.325000X0.150000X0.325000X0*%
%ADD33RoundRect,0.150000X-0.325000X0.150000X-0.325000X-0.150000X0.325000X-0.150000X0.325000X0.150000X0*%
%ADD34RoundRect,0.225000X-0.225000X-0.250000X0.225000X-0.250000X0.225000X0.250000X-0.225000X0.250000X0*%
G04 APERTURE END LIST*
D10*
%TO.C,R2*%
X195550000Y-64430000D03*
X195550000Y-66255000D03*
%TD*%
D11*
%TO.C,R1*%
X209212500Y-72400000D03*
X207387500Y-72400000D03*
%TD*%
D12*
%TO.C,C8*%
X205240000Y-87600000D03*
X206200000Y-87600000D03*
%TD*%
%TO.C,C10*%
X205240000Y-88600000D03*
X206200000Y-88600000D03*
%TD*%
D13*
%TO.C,Div_res_reg1a1*%
X200800000Y-99525000D03*
X200800000Y-97700000D03*
%TD*%
D10*
%TO.C,R6*%
X180500000Y-93275000D03*
X180500000Y-95100000D03*
%TD*%
D14*
%TO.C,CBAR_2*%
X203680000Y-77600000D03*
X202720000Y-77600000D03*
%TD*%
%TO.C,CIIM_1*%
X190680000Y-74600000D03*
X189720000Y-74600000D03*
%TD*%
D15*
%TO.C,C14*%
X199000000Y-92140000D03*
X199000000Y-93100000D03*
%TD*%
D10*
%TO.C,Div_res_bat1*%
X201500000Y-91887500D03*
X201500000Y-93712500D03*
%TD*%
D13*
%TO.C,R8*%
X182800000Y-95100000D03*
X182800000Y-93275000D03*
%TD*%
D16*
%TO.C,A1*%
X200250000Y-73900000D03*
X201500000Y-73900000D03*
X202750000Y-73900000D03*
X204000000Y-73900000D03*
X204000000Y-76100000D03*
X202750000Y-76100000D03*
X201500000Y-76100000D03*
X200250000Y-76100000D03*
%TD*%
D17*
%TO.C,CX_1*%
X194300000Y-84750000D03*
X194300000Y-82850000D03*
%TD*%
D14*
%TO.C,C6*%
X194680000Y-87700000D03*
X193720000Y-87700000D03*
%TD*%
D18*
%TO.C,CADXL_1*%
X204000000Y-65080000D03*
X204000000Y-64120000D03*
%TD*%
D12*
%TO.C,C11*%
X203720000Y-91000000D03*
X204680000Y-91000000D03*
%TD*%
D15*
%TO.C,CIIM_2*%
X198400000Y-73920000D03*
X198400000Y-74880000D03*
%TD*%
D19*
%TO.C,CADXL_2*%
X211540000Y-65010000D03*
X213440000Y-65010000D03*
%TD*%
D20*
%TO.C,U1*%
X193740000Y-75785000D03*
X195360000Y-75785000D03*
X193740000Y-74165000D03*
X195360000Y-74165000D03*
D21*
X196175000Y-77425000D03*
D22*
X195525000Y-77425000D03*
X194875000Y-77425000D03*
X194225000Y-77425000D03*
X193575000Y-77425000D03*
D23*
X192925000Y-77425000D03*
D24*
X192100000Y-76600000D03*
D25*
X192100000Y-75950000D03*
X192100000Y-75300000D03*
X192100000Y-74650000D03*
X192100000Y-74000000D03*
D26*
X192100000Y-73350000D03*
D27*
X192925000Y-72525000D03*
D22*
X193575000Y-72525000D03*
X194225000Y-72525000D03*
X194875000Y-72525000D03*
X195525000Y-72525000D03*
D28*
X196175000Y-72525000D03*
D29*
X197000000Y-73350000D03*
D25*
X197000000Y-74000000D03*
X197000000Y-74650000D03*
X197000000Y-75300000D03*
X197000000Y-75950000D03*
D30*
X197000000Y-76600000D03*
%TD*%
D31*
%TO.C,Q1*%
X200155000Y-63460000D03*
X200155000Y-65360000D03*
X198280000Y-64410000D03*
%TD*%
D14*
%TO.C,CIIM_3*%
X190680000Y-73400000D03*
X189720000Y-73400000D03*
%TD*%
%TO.C,C13*%
X194680000Y-86500000D03*
X193720000Y-86500000D03*
%TD*%
D32*
%TO.C,U4*%
X205500000Y-65100000D03*
X206300000Y-65100000D03*
X207100000Y-65100000D03*
X207900000Y-65100000D03*
X208700000Y-65100000D03*
X209500000Y-65100000D03*
D33*
X209500000Y-66100000D03*
D32*
X209500000Y-67100000D03*
X208700000Y-67100000D03*
X207900000Y-67100000D03*
X207100000Y-67100000D03*
X206300000Y-67100000D03*
X205500000Y-67100000D03*
D33*
X205500000Y-66100000D03*
%TD*%
D10*
%TO.C,R7*%
X178300000Y-93275000D03*
X178300000Y-95100000D03*
%TD*%
D12*
%TO.C,C9*%
X205240000Y-86600000D03*
X206200000Y-86600000D03*
%TD*%
%TO.C,C7*%
X205240000Y-85600000D03*
X206200000Y-85600000D03*
%TD*%
D19*
%TO.C,CPS_2*%
X213050000Y-89700000D03*
X214950000Y-89700000D03*
%TD*%
D11*
%TO.C,Div_res_reg1b1*%
X205325000Y-98700000D03*
X203500000Y-98700000D03*
%TD*%
%TO.C,Div_res_reg2b1*%
X205300000Y-96095000D03*
X203475000Y-96095000D03*
%TD*%
D34*
%TO.C,CXB_2*%
X154150000Y-92800000D03*
X155700000Y-92800000D03*
%TD*%
%TO.C,CXB_1*%
X154143391Y-94396604D03*
X155693391Y-94396604D03*
%TD*%
D18*
%TO.C,CBAR_1*%
X200200000Y-72280000D03*
X200200000Y-71320000D03*
%TD*%
D11*
%TO.C,Div_res_bat2*%
X199512500Y-95500000D03*
X197687500Y-95500000D03*
%TD*%
D14*
%TO.C,CFLASH_1*%
X210130000Y-85560000D03*
X209170000Y-85560000D03*
%TD*%
D11*
%TO.C,Div_res_reg2a1*%
X205300000Y-94105000D03*
X203475000Y-94105000D03*
%TD*%
D12*
%TO.C,C12*%
X205240000Y-89600000D03*
X206200000Y-89600000D03*
%TD*%
D15*
%TO.C,CIIM_4*%
X190800000Y-75920000D03*
X190800000Y-76880000D03*
%TD*%
M02*
