%TF.GenerationSoftware,KiCad,Pcbnew,9.0.6*%
%TF.CreationDate,2026-04-11T19:46:43-03:00*%
%TF.ProjectId,flight_comp_srad-2026,666c6967-6874-45f6-936f-6d705f737261,rev?*%
%TF.SameCoordinates,Original*%
%TF.FileFunction,Copper,L3,Inr*%
%TF.FilePolarity,Positive*%
%FSLAX46Y46*%
G04 Gerber Fmt 4.6, Leading zero omitted, Abs format (unit mm)*
G04 Created by KiCad (PCBNEW 9.0.6) date 2026-04-11 19:46:43*
%MOMM*%
%LPD*%
G01*
G04 APERTURE LIST*
%TA.AperFunction,ComponentPad*%
%ADD10R,2.000000X2.000000*%
%TD*%
%TA.AperFunction,ComponentPad*%
%ADD11C,2.000000*%
%TD*%
%TA.AperFunction,HeatsinkPad*%
%ADD12C,0.600000*%
%TD*%
%TA.AperFunction,HeatsinkPad*%
%ADD13O,1.700000X1.350000*%
%TD*%
%TA.AperFunction,HeatsinkPad*%
%ADD14O,1.500000X1.100000*%
%TD*%
%TA.AperFunction,ComponentPad*%
%ADD15R,1.400000X1.400000*%
%TD*%
%TA.AperFunction,ComponentPad*%
%ADD16C,1.400000*%
%TD*%
%TA.AperFunction,ViaPad*%
%ADD17C,0.600000*%
%TD*%
G04 APERTURE END LIST*
D10*
%TO.N,+3V3*%
%TO.C,LS1*%
X202970785Y-68400000D03*
D11*
%TO.N,Net-(Q1-C)*%
X197970785Y-68400000D03*
%TD*%
D10*
%TO.N,GND*%
%TO.C,J2*%
X191320000Y-98700000D03*
D11*
%TO.N,/SWDIO*%
X193860000Y-98700000D03*
%TO.N,/SWCLK*%
X196400000Y-98700000D03*
%TD*%
D12*
%TO.N,GND*%
%TO.C,U3*%
X201420000Y-84830000D03*
X198720000Y-84830000D03*
X201420000Y-87530000D03*
X198720000Y-87530000D03*
%TD*%
D10*
%TO.N,VBUS*%
%TO.C,J5*%
X217680000Y-84430000D03*
D11*
%TO.N,GND*%
X217680000Y-86970000D03*
%TD*%
D13*
%TO.N,GND*%
%TO.C,J3*%
X219355000Y-80355000D03*
D14*
X216355000Y-80045000D03*
X216355000Y-75205000D03*
D13*
X219355000Y-74895000D03*
%TD*%
D15*
%TO.N,+3V3*%
%TO.C,U7*%
X154250000Y-96400000D03*
D16*
%TO.N,/UART_Rx0*%
X156250000Y-96400000D03*
%TO.N,/UART_Tx0*%
X158250000Y-96400000D03*
%TO.N,unconnected-(U7-DIO12{slash}SPI_MISO-Pad4)*%
X160250000Y-96400000D03*
%TO.N,unconnected-(U7-~{RESET}-Pad5)*%
X162250000Y-96400000D03*
%TO.N,unconnected-(U7-DIO10{slash}PWM0-Pad6)*%
X164250000Y-96400000D03*
%TO.N,unconnected-(U7-DIO11{slash}PWM1-Pad7)*%
X166250000Y-96400000D03*
%TO.N,N/C*%
X168250000Y-96400000D03*
%TO.N,unconnected-(U7-NDTR{slash}SLEEP_RQ{slash}DIO8-Pad9)*%
X170250000Y-96400000D03*
%TO.N,GND*%
X172250000Y-96400000D03*
%TO.N,unconnected-(U7-DIO4{slash}SPI_MOSI-Pad11)*%
X172250000Y-74400000D03*
%TO.N,unconnected-(U7-NCTS{slash}DIO7-Pad12)*%
X170250000Y-74400000D03*
%TO.N,unconnected-(U7-ON_NSLEEP{slash}DIO9-Pad13)*%
X168250000Y-74400000D03*
%TO.N,GND*%
X166250000Y-74400000D03*
%TO.N,unconnected-(U7-ASSOCIATE{slash}DIO5-Pad15)*%
X164250000Y-74400000D03*
%TO.N,unconnected-(U7-NRTS{slash}DIO6-Pad16)*%
X162250000Y-74400000D03*
%TO.N,unconnected-(U7-AD3{slash}DIO3{slash}SPI_NSSEL-Pad17)*%
X160250000Y-74400000D03*
%TO.N,unconnected-(U7-AD2{slash}DIO2{slash}SPI_CLK-Pad18)*%
X158250000Y-74400000D03*
%TO.N,unconnected-(U7-AD1{slash}DIO1{slash}SPI_NATTN-Pad19)*%
X156250000Y-74400000D03*
%TO.N,unconnected-(U7-AD0{slash}DIO0-Pad20)*%
X154250000Y-74400000D03*
%TD*%
D17*
%TO.N,GND*%
X213440000Y-76140000D03*
%TO.N,+3V3*%
X193660000Y-77880000D03*
X192620000Y-79050000D03*
%TO.N,GND*%
X194160000Y-76800000D03*
X185350000Y-83180000D03*
X179611765Y-97736765D03*
X155420000Y-99340000D03*
X190420000Y-63470000D03*
X183350000Y-67400000D03*
X183920000Y-63900000D03*
X152160000Y-91360000D03*
X215070000Y-65890000D03*
X198980000Y-61410000D03*
X213980000Y-61410000D03*
X164420000Y-99340000D03*
X217350000Y-67370000D03*
X197480000Y-61410000D03*
X152160000Y-76360000D03*
X168920000Y-99340000D03*
X180670000Y-61410000D03*
X152160000Y-95860000D03*
X152160000Y-85360000D03*
X186600000Y-84875000D03*
X193720000Y-87100000D03*
X164170000Y-61410000D03*
X206480000Y-61410000D03*
X210075000Y-79600000D03*
X165670000Y-61410000D03*
X152160000Y-88360000D03*
X186100000Y-92625000D03*
X152160000Y-73360000D03*
X159670000Y-61410000D03*
X200480000Y-61410000D03*
X173170000Y-61410000D03*
X152160000Y-67360000D03*
X181040000Y-65640000D03*
X207980000Y-61410000D03*
X216150000Y-66840000D03*
X185340000Y-82340000D03*
X152160000Y-70360000D03*
X190125000Y-94100000D03*
X153920000Y-99340000D03*
X174625000Y-97250000D03*
X201980000Y-61410000D03*
X159920000Y-99340000D03*
X208925000Y-80950000D03*
X162670000Y-61410000D03*
X174375000Y-86675000D03*
X184960000Y-81360000D03*
X153610000Y-67430000D03*
X161170000Y-61410000D03*
X197647148Y-96951381D03*
X179170000Y-61410000D03*
X152160000Y-92860000D03*
X181190000Y-66970000D03*
X158140000Y-62890000D03*
X158420000Y-99340000D03*
X201950000Y-65350000D03*
X207020000Y-89070000D03*
X152150000Y-97500000D03*
X210980000Y-61410000D03*
X152160000Y-74860000D03*
X192425000Y-83775000D03*
X192870000Y-76800000D03*
X174350000Y-87925000D03*
X187320000Y-89280000D03*
X214200000Y-95400000D03*
X195980000Y-61410000D03*
X155170000Y-67240000D03*
X209075000Y-78175000D03*
X218840000Y-67460000D03*
X202000000Y-77600000D03*
X152160000Y-79360000D03*
X185630000Y-61060000D03*
X184900000Y-63650000D03*
X209825000Y-96575000D03*
X187560000Y-65100000D03*
X181125000Y-64275000D03*
X156920000Y-99340000D03*
X168670000Y-61410000D03*
X214200000Y-97800000D03*
X199670000Y-79080000D03*
X152160000Y-77860000D03*
X157450000Y-92060000D03*
X170170000Y-61410000D03*
X171920000Y-99340000D03*
X198240000Y-73590000D03*
X210850000Y-78175000D03*
X152580000Y-99060000D03*
X167420000Y-99340000D03*
X152160000Y-86860000D03*
X152160000Y-80860000D03*
X195800000Y-93375000D03*
X184940000Y-80540000D03*
X204000000Y-62750000D03*
X152160000Y-82360000D03*
X193520000Y-70270000D03*
X185600000Y-64500000D03*
X186450000Y-65100000D03*
X158600000Y-95040000D03*
X188300000Y-71640000D03*
X183360000Y-66170000D03*
X182125000Y-61850000D03*
X152160000Y-83860000D03*
X207750000Y-96600000D03*
X171670000Y-61410000D03*
X210700000Y-80950000D03*
X206310000Y-68280000D03*
%TO.N,/SD_CLK*%
X180500000Y-97600000D03*
%TO.N,+3V3*%
X211540000Y-66335000D03*
%TO.N,Net-(Q1-B)*%
X207570000Y-70350000D03*
%TO.N,/XIN*%
X195480541Y-85268008D03*
%TO.N,/XOUT*%
X195441214Y-86067042D03*
%TO.N,/SWDIO*%
X197570000Y-88230000D03*
%TO.N,/ADC_BAT*%
X201800000Y-90700000D03*
%TO.N,+3V3*%
X190380000Y-78180000D03*
%TO.N,+1V1*%
X197600000Y-86350000D03*
%TO.N,/BUZZER*%
X202070000Y-81705411D03*
%TO.N,Net-(Q1-B)*%
X202025000Y-63450000D03*
%TO.N,+3V3*%
X187310000Y-77740000D03*
X197410000Y-71820000D03*
%TO.N,/XOUT*%
X188800000Y-85400000D03*
%TO.N,+3V3*%
X195020000Y-78840000D03*
%TO.N,NR_Reg*%
X206774971Y-90374971D03*
%TO.N,+1V1*%
X202600000Y-85980000D03*
%TO.N,/UART_Tx0*%
X195200000Y-89925000D03*
%TO.N,+3V3*%
X212300000Y-88000000D03*
%TO.N,/SWCLK*%
X198537443Y-88686063D03*
%TO.N,/RP_SCL1*%
X200600000Y-79690000D03*
%TO.N,/RP_SDA1*%
X201980000Y-79970000D03*
%TO.N,+3V3*%
X200825000Y-95925000D03*
X180310000Y-81590000D03*
X186750000Y-91325000D03*
%TO.N,/SD_DAT1*%
X177125000Y-99800000D03*
%TO.N,/RP_SDA0*%
X176750000Y-71775000D03*
%TO.N,/IIM_MOSI1*%
X196690000Y-80720000D03*
%TO.N,+3V3*%
X195860000Y-71390000D03*
X180310000Y-82530000D03*
X211300000Y-89600000D03*
X203200000Y-78500000D03*
%TO.N,/SD_DAT1*%
X187575000Y-96000000D03*
%TO.N,/IIM_SCLK1*%
X197625000Y-77525000D03*
%TO.N,/RP_SCL0*%
X189380000Y-81160000D03*
%TO.N,/IIM_MISO1*%
X198870000Y-81450000D03*
%TO.N,+3V3*%
X201080000Y-70180000D03*
X196580000Y-70780000D03*
%TO.N,/IIM_CS1*%
X198610000Y-76850000D03*
%TO.N,+3V3*%
X187775000Y-91350000D03*
%TO.N,/UART_Rx0*%
X195850000Y-89425000D03*
%TO.N,+3V3*%
X202900000Y-91000000D03*
X154240000Y-90600000D03*
X181030000Y-81190000D03*
%TO.N,/SD_DAT1*%
X177100000Y-97600000D03*
%TO.N,/RP_SCL0*%
X176361000Y-73941000D03*
%TO.N,/RP_SDA0*%
X189150000Y-79750000D03*
%TO.N,+3V3*%
X212440000Y-66330000D03*
X213500000Y-88000000D03*
X204510000Y-86580000D03*
X181050000Y-82050000D03*
X181520000Y-97490000D03*
X195830000Y-80940000D03*
X199270000Y-91300000D03*
X210950000Y-85580000D03*
X213400000Y-86900000D03*
X199605354Y-81765048D03*
X203075000Y-65375000D03*
X211300000Y-90400000D03*
X201200000Y-72000000D03*
X195363235Y-86863235D03*
X203720000Y-71840000D03*
X180340000Y-83440000D03*
X181050000Y-83020000D03*
X211300000Y-91425000D03*
X202080000Y-78560000D03*
X189100000Y-74740000D03*
X202570000Y-70760000D03*
X189240000Y-72670000D03*
X211300000Y-88800000D03*
X195070000Y-70430000D03*
X190000000Y-89300000D03*
X204357067Y-88600000D03*
%TO.N,GND*%
X152160000Y-71860000D03*
X158170000Y-61410000D03*
X208125000Y-79600000D03*
X207800000Y-95150000D03*
X173420000Y-99340000D03*
X174625000Y-98475000D03*
X183425000Y-64950000D03*
X152160000Y-94360000D03*
X189600000Y-65100000D03*
X194480000Y-61410000D03*
X158050000Y-64380000D03*
X165920000Y-99340000D03*
X214300000Y-62930000D03*
X206525000Y-76150000D03*
X189950000Y-76370000D03*
X191480000Y-61410000D03*
X212480000Y-61410000D03*
X161420000Y-99340000D03*
X190400000Y-61450000D03*
X194160000Y-70260000D03*
X192980000Y-61410000D03*
X174380000Y-89280000D03*
X157520000Y-65580000D03*
X207050000Y-86180000D03*
X188600000Y-65100000D03*
X204980000Y-61410000D03*
X174670000Y-61410000D03*
X214200000Y-99000000D03*
X176410000Y-72960000D03*
X190430000Y-62480000D03*
X200230000Y-70580000D03*
X190410000Y-64400000D03*
X167170000Y-61410000D03*
X193520000Y-76810000D03*
X181450000Y-62970000D03*
X188150000Y-87525000D03*
X176170000Y-61410000D03*
X203610000Y-79240000D03*
X203480000Y-61410000D03*
X207100000Y-80950000D03*
X209480000Y-61410000D03*
X170420000Y-99340000D03*
X152160000Y-89860000D03*
X187025000Y-92625000D03*
X220090000Y-67470000D03*
X211775000Y-95125000D03*
X192870000Y-70260000D03*
X183350000Y-61425000D03*
X184525000Y-61225000D03*
X209875000Y-95125000D03*
X185340000Y-84040000D03*
X156570000Y-66660000D03*
X152160000Y-68860000D03*
%TO.N,VBUS*%
X218050000Y-90840000D03*
%TO.N,GND*%
X214925000Y-68270000D03*
%TO.N,VBUS*%
X217350000Y-89640000D03*
X220150000Y-89640000D03*
%TO.N,/SD_DAT0*%
X178200000Y-97600000D03*
%TO.N,VBUS*%
X212720000Y-91110000D03*
X205800000Y-92400000D03*
%TO.N,GND*%
X202000000Y-95100000D03*
X188440000Y-80500000D03*
%TO.N,VBUS*%
X219450000Y-90840000D03*
X203400000Y-92400000D03*
%TO.N,GND*%
X190040000Y-71080000D03*
X177670000Y-61410000D03*
%TO.N,VBUS*%
X218750000Y-89640000D03*
%TO.N,/SD_DAT0*%
X187575000Y-95100000D03*
%TO.N,GND*%
X211725000Y-96575000D03*
X162920000Y-99340000D03*
X157400000Y-94230000D03*
X214200000Y-96600000D03*
%TD*%
%TA.AperFunction,Conductor*%
%TO.N,+3V3*%
G36*
X176700000Y-94199998D02*
G01*
X176699972Y-94199999D01*
X157909570Y-94165105D01*
X157901444Y-94161722D01*
X157898483Y-94156581D01*
X157866393Y-94036819D01*
X157866392Y-94036814D01*
X157800500Y-93922686D01*
X157707314Y-93829500D01*
X157707313Y-93829499D01*
X157593190Y-93763610D01*
X157593188Y-93763609D01*
X157593186Y-93763608D01*
X157593182Y-93763607D01*
X157593180Y-93763606D01*
X157465892Y-93729500D01*
X157334108Y-93729500D01*
X157206819Y-93763606D01*
X157206809Y-93763610D01*
X157092686Y-93829499D01*
X156999499Y-93922686D01*
X156933610Y-94036809D01*
X156933606Y-94036819D01*
X156902023Y-94154689D01*
X156896665Y-94161672D01*
X156890894Y-94163213D01*
X155977499Y-94161518D01*
X155977498Y-94161518D01*
X155160000Y-94977499D01*
X155160000Y-94977500D01*
X155150049Y-97288550D01*
X155146646Y-97296667D01*
X155138549Y-97300000D01*
X153341537Y-97300000D01*
X153333405Y-97296632D01*
X153330037Y-97288500D01*
X153330037Y-97288463D01*
X153340000Y-94209982D01*
X153340000Y-91994108D01*
X156949500Y-91994108D01*
X156949500Y-92125892D01*
X156983608Y-92253186D01*
X157049500Y-92367314D01*
X157142686Y-92460500D01*
X157256814Y-92526392D01*
X157384108Y-92560500D01*
X157515892Y-92560500D01*
X157643186Y-92526392D01*
X157757314Y-92460500D01*
X157850500Y-92367314D01*
X157916392Y-92253186D01*
X157950500Y-92125892D01*
X157950500Y-91994108D01*
X157916392Y-91866814D01*
X157850500Y-91752686D01*
X157757314Y-91659500D01*
X157757313Y-91659499D01*
X157643190Y-91593610D01*
X157643188Y-91593609D01*
X157643186Y-91593608D01*
X157643182Y-91593607D01*
X157643180Y-91593606D01*
X157515892Y-91559500D01*
X157384108Y-91559500D01*
X157256819Y-91593606D01*
X157256809Y-91593610D01*
X157142686Y-91659499D01*
X157049499Y-91752686D01*
X156983610Y-91866809D01*
X156983606Y-91866819D01*
X156949500Y-91994108D01*
X153340000Y-91994108D01*
X153340000Y-90022261D01*
X153343366Y-90014131D01*
X154143047Y-89214108D01*
X173879500Y-89214108D01*
X173879500Y-89345892D01*
X173913608Y-89473186D01*
X173979500Y-89587314D01*
X174072686Y-89680500D01*
X174186814Y-89746392D01*
X174314108Y-89780500D01*
X174445892Y-89780500D01*
X174573186Y-89746392D01*
X174687314Y-89680500D01*
X174780500Y-89587314D01*
X174846392Y-89473186D01*
X174880500Y-89345892D01*
X174880500Y-89214108D01*
X174846392Y-89086814D01*
X174780500Y-88972686D01*
X174687314Y-88879500D01*
X174687313Y-88879499D01*
X174573190Y-88813610D01*
X174573188Y-88813609D01*
X174573186Y-88813608D01*
X174573182Y-88813607D01*
X174573180Y-88813606D01*
X174445892Y-88779500D01*
X174314108Y-88779500D01*
X174186819Y-88813606D01*
X174186809Y-88813610D01*
X174072686Y-88879499D01*
X173979499Y-88972686D01*
X173913610Y-89086809D01*
X173913606Y-89086819D01*
X173879500Y-89214108D01*
X154143047Y-89214108D01*
X154734135Y-88622767D01*
X154742258Y-88619399D01*
X176700000Y-88610000D01*
X176700000Y-94199998D01*
G37*
%TD.AperFunction*%
%TD*%
%TA.AperFunction,Conductor*%
%TO.N,VBUS*%
G36*
X220832539Y-82994241D02*
G01*
X220878294Y-83047045D01*
X220889500Y-83098556D01*
X220889500Y-91553407D01*
X220869815Y-91620446D01*
X220817011Y-91666201D01*
X220765423Y-91677407D01*
X216323923Y-91674633D01*
X216256895Y-91654907D01*
X216211173Y-91602074D01*
X216200000Y-91550633D01*
X216200000Y-86875513D01*
X216479500Y-86875513D01*
X216479500Y-87064486D01*
X216509059Y-87251118D01*
X216567454Y-87430836D01*
X216653240Y-87599199D01*
X216764310Y-87752073D01*
X216897927Y-87885690D01*
X217050801Y-87996760D01*
X217130347Y-88037290D01*
X217219163Y-88082545D01*
X217219165Y-88082545D01*
X217219168Y-88082547D01*
X217315497Y-88113846D01*
X217398881Y-88140940D01*
X217585514Y-88170500D01*
X217585519Y-88170500D01*
X217774486Y-88170500D01*
X217961118Y-88140940D01*
X218140832Y-88082547D01*
X218309199Y-87996760D01*
X218462073Y-87885690D01*
X218595690Y-87752073D01*
X218706760Y-87599199D01*
X218792547Y-87430832D01*
X218850940Y-87251118D01*
X218880500Y-87064486D01*
X218880500Y-86875513D01*
X218850940Y-86688881D01*
X218792545Y-86509163D01*
X218706759Y-86340800D01*
X218595690Y-86187927D01*
X218462073Y-86054310D01*
X218309199Y-85943240D01*
X218140836Y-85857454D01*
X217961118Y-85799059D01*
X217774486Y-85769500D01*
X217774481Y-85769500D01*
X217585519Y-85769500D01*
X217585514Y-85769500D01*
X217398881Y-85799059D01*
X217219163Y-85857454D01*
X217050800Y-85943240D01*
X216963579Y-86006610D01*
X216897927Y-86054310D01*
X216897925Y-86054312D01*
X216897924Y-86054312D01*
X216764312Y-86187924D01*
X216764312Y-86187925D01*
X216764310Y-86187927D01*
X216716610Y-86253579D01*
X216653240Y-86340800D01*
X216567454Y-86509163D01*
X216509059Y-86688881D01*
X216479500Y-86875513D01*
X216200000Y-86875513D01*
X216200000Y-83098556D01*
X216219685Y-83031517D01*
X216272489Y-82985762D01*
X216324000Y-82974556D01*
X220765500Y-82974556D01*
X220832539Y-82994241D01*
G37*
%TD.AperFunction*%
%TD*%
%TA.AperFunction,Conductor*%
%TO.N,+3V3*%
G36*
X214069783Y-63870384D02*
G01*
X214085402Y-63882176D01*
X214401711Y-64162800D01*
X214458293Y-64212998D01*
X214495377Y-64272213D01*
X214500000Y-64305755D01*
X214500000Y-67971895D01*
X214483387Y-68033895D01*
X214458609Y-68076811D01*
X214458608Y-68076814D01*
X214424500Y-68204108D01*
X214424500Y-68335892D01*
X214427179Y-68345892D01*
X214458609Y-68463188D01*
X214458610Y-68463191D01*
X214483386Y-68506103D01*
X214500000Y-68568104D01*
X214500000Y-94800629D01*
X214480315Y-94867668D01*
X214427511Y-94913423D01*
X214358353Y-94923367D01*
X214343909Y-94920404D01*
X214265892Y-94899500D01*
X214134108Y-94899500D01*
X214006812Y-94933608D01*
X213892686Y-94999500D01*
X213892683Y-94999502D01*
X213799502Y-95092683D01*
X213799500Y-95092686D01*
X213733608Y-95206812D01*
X213703766Y-95318186D01*
X213699500Y-95334108D01*
X213699500Y-95465892D01*
X213715472Y-95525500D01*
X213733608Y-95593187D01*
X213766554Y-95650250D01*
X213799500Y-95707314D01*
X213892686Y-95800500D01*
X214006814Y-95866392D01*
X214058441Y-95880225D01*
X214118102Y-95916590D01*
X214148631Y-95979437D01*
X214140336Y-96048812D01*
X214095851Y-96102690D01*
X214058442Y-96119774D01*
X214040666Y-96124537D01*
X214006812Y-96133608D01*
X213892686Y-96199500D01*
X213892683Y-96199502D01*
X213799502Y-96292683D01*
X213799500Y-96292686D01*
X213733608Y-96406812D01*
X213699500Y-96534108D01*
X213699500Y-96665891D01*
X213733608Y-96793187D01*
X213766554Y-96850250D01*
X213799500Y-96907314D01*
X213892686Y-97000500D01*
X214006814Y-97066392D01*
X214058441Y-97080225D01*
X214118102Y-97116590D01*
X214148631Y-97179437D01*
X214140336Y-97248812D01*
X214095851Y-97302690D01*
X214058442Y-97319774D01*
X214040666Y-97324537D01*
X214006812Y-97333608D01*
X213892686Y-97399500D01*
X213892683Y-97399502D01*
X213799502Y-97492683D01*
X213799500Y-97492686D01*
X213733608Y-97606812D01*
X213699500Y-97734108D01*
X213699500Y-97776000D01*
X213679815Y-97843039D01*
X213627011Y-97888794D01*
X213575500Y-97900000D01*
X200853283Y-97900000D01*
X200786244Y-97880315D01*
X200763331Y-97861349D01*
X199504154Y-96534108D01*
X207249500Y-96534108D01*
X207249500Y-96665891D01*
X207283608Y-96793187D01*
X207316554Y-96850250D01*
X207349500Y-96907314D01*
X207442686Y-97000500D01*
X207556814Y-97066392D01*
X207684108Y-97100500D01*
X207684110Y-97100500D01*
X207815890Y-97100500D01*
X207815892Y-97100500D01*
X207943186Y-97066392D01*
X208057314Y-97000500D01*
X208150500Y-96907314D01*
X208216392Y-96793186D01*
X208250500Y-96665892D01*
X208250500Y-96534108D01*
X208243801Y-96509108D01*
X209324500Y-96509108D01*
X209324500Y-96640892D01*
X209331199Y-96665892D01*
X209358608Y-96768187D01*
X209373042Y-96793187D01*
X209424500Y-96882314D01*
X209517686Y-96975500D01*
X209631814Y-97041392D01*
X209759108Y-97075500D01*
X209759110Y-97075500D01*
X209890890Y-97075500D01*
X209890892Y-97075500D01*
X210018186Y-97041392D01*
X210132314Y-96975500D01*
X210225500Y-96882314D01*
X210291392Y-96768186D01*
X210325500Y-96640892D01*
X210325500Y-96509108D01*
X211224500Y-96509108D01*
X211224500Y-96640892D01*
X211231199Y-96665892D01*
X211258608Y-96768187D01*
X211273042Y-96793187D01*
X211324500Y-96882314D01*
X211417686Y-96975500D01*
X211531814Y-97041392D01*
X211659108Y-97075500D01*
X211659110Y-97075500D01*
X211790890Y-97075500D01*
X211790892Y-97075500D01*
X211918186Y-97041392D01*
X212032314Y-96975500D01*
X212125500Y-96882314D01*
X212191392Y-96768186D01*
X212225500Y-96640892D01*
X212225500Y-96509108D01*
X212191392Y-96381814D01*
X212125500Y-96267686D01*
X212032314Y-96174500D01*
X211937528Y-96119775D01*
X211918187Y-96108608D01*
X211854539Y-96091554D01*
X211790892Y-96074500D01*
X211659108Y-96074500D01*
X211531812Y-96108608D01*
X211417686Y-96174500D01*
X211417683Y-96174502D01*
X211324502Y-96267683D01*
X211324500Y-96267686D01*
X211258608Y-96381812D01*
X211230963Y-96484989D01*
X211224500Y-96509108D01*
X210325500Y-96509108D01*
X210291392Y-96381814D01*
X210225500Y-96267686D01*
X210132314Y-96174500D01*
X210037528Y-96119775D01*
X210018187Y-96108608D01*
X209954539Y-96091554D01*
X209890892Y-96074500D01*
X209759108Y-96074500D01*
X209631812Y-96108608D01*
X209517686Y-96174500D01*
X209517683Y-96174502D01*
X209424502Y-96267683D01*
X209424500Y-96267686D01*
X209358608Y-96381812D01*
X209330963Y-96484989D01*
X209324500Y-96509108D01*
X208243801Y-96509108D01*
X208216392Y-96406814D01*
X208150500Y-96292686D01*
X208057314Y-96199500D01*
X208000250Y-96166554D01*
X207943187Y-96133608D01*
X207879539Y-96116554D01*
X207815892Y-96099500D01*
X207684108Y-96099500D01*
X207556812Y-96133608D01*
X207442686Y-96199500D01*
X207442683Y-96199502D01*
X207349502Y-96292683D01*
X207349500Y-96292686D01*
X207283608Y-96406812D01*
X207249500Y-96534108D01*
X199504154Y-96534108D01*
X198154334Y-95111325D01*
X198154332Y-95111322D01*
X198081078Y-95034108D01*
X201499500Y-95034108D01*
X201499500Y-95165892D01*
X201506199Y-95190892D01*
X201533608Y-95293187D01*
X201548042Y-95318187D01*
X201599500Y-95407314D01*
X201692686Y-95500500D01*
X201806814Y-95566392D01*
X201934108Y-95600500D01*
X201934110Y-95600500D01*
X202065890Y-95600500D01*
X202065892Y-95600500D01*
X202193186Y-95566392D01*
X202307314Y-95500500D01*
X202400500Y-95407314D01*
X202466392Y-95293186D01*
X202500500Y-95165892D01*
X202500500Y-95084108D01*
X207299500Y-95084108D01*
X207299500Y-95215891D01*
X207333608Y-95343187D01*
X207366554Y-95400250D01*
X207399500Y-95457314D01*
X207492686Y-95550500D01*
X207606814Y-95616392D01*
X207734108Y-95650500D01*
X207734110Y-95650500D01*
X207865890Y-95650500D01*
X207865892Y-95650500D01*
X207993186Y-95616392D01*
X208107314Y-95550500D01*
X208200500Y-95457314D01*
X208266392Y-95343186D01*
X208300500Y-95215892D01*
X208300500Y-95084108D01*
X208293801Y-95059108D01*
X209374500Y-95059108D01*
X209374500Y-95190892D01*
X209381199Y-95215892D01*
X209408608Y-95318187D01*
X209423042Y-95343187D01*
X209474500Y-95432314D01*
X209567686Y-95525500D01*
X209681814Y-95591392D01*
X209809108Y-95625500D01*
X209809110Y-95625500D01*
X209940890Y-95625500D01*
X209940892Y-95625500D01*
X210068186Y-95591392D01*
X210182314Y-95525500D01*
X210275500Y-95432314D01*
X210341392Y-95318186D01*
X210375500Y-95190892D01*
X210375500Y-95059108D01*
X211274500Y-95059108D01*
X211274500Y-95190892D01*
X211281199Y-95215892D01*
X211308608Y-95318187D01*
X211323042Y-95343187D01*
X211374500Y-95432314D01*
X211467686Y-95525500D01*
X211581814Y-95591392D01*
X211709108Y-95625500D01*
X211709110Y-95625500D01*
X211840890Y-95625500D01*
X211840892Y-95625500D01*
X211968186Y-95591392D01*
X212082314Y-95525500D01*
X212175500Y-95432314D01*
X212241392Y-95318186D01*
X212275500Y-95190892D01*
X212275500Y-95059108D01*
X212241392Y-94931814D01*
X212175500Y-94817686D01*
X212082314Y-94724500D01*
X212011487Y-94683608D01*
X211968187Y-94658608D01*
X211904539Y-94641554D01*
X211840892Y-94624500D01*
X211709108Y-94624500D01*
X211581812Y-94658608D01*
X211467686Y-94724500D01*
X211467683Y-94724502D01*
X211374502Y-94817683D01*
X211374500Y-94817686D01*
X211308608Y-94931812D01*
X211301909Y-94956814D01*
X211274500Y-95059108D01*
X210375500Y-95059108D01*
X210341392Y-94931814D01*
X210275500Y-94817686D01*
X210182314Y-94724500D01*
X210111487Y-94683608D01*
X210068187Y-94658608D01*
X210004539Y-94641554D01*
X209940892Y-94624500D01*
X209809108Y-94624500D01*
X209681812Y-94658608D01*
X209567686Y-94724500D01*
X209567683Y-94724502D01*
X209474502Y-94817683D01*
X209474500Y-94817686D01*
X209408608Y-94931812D01*
X209401909Y-94956814D01*
X209374500Y-95059108D01*
X208293801Y-95059108D01*
X208266392Y-94956814D01*
X208200500Y-94842686D01*
X208107314Y-94749500D01*
X208050250Y-94716554D01*
X207993187Y-94683608D01*
X207929539Y-94666554D01*
X207865892Y-94649500D01*
X207734108Y-94649500D01*
X207606812Y-94683608D01*
X207492686Y-94749500D01*
X207492683Y-94749502D01*
X207399502Y-94842683D01*
X207399500Y-94842686D01*
X207333608Y-94956812D01*
X207299500Y-95084108D01*
X202500500Y-95084108D01*
X202500500Y-95034108D01*
X202466392Y-94906814D01*
X202400500Y-94792686D01*
X202307314Y-94699500D01*
X202220712Y-94649500D01*
X202193187Y-94633608D01*
X202129539Y-94616554D01*
X202065892Y-94599500D01*
X201934108Y-94599500D01*
X201806812Y-94633608D01*
X201692686Y-94699500D01*
X201692683Y-94699502D01*
X201599502Y-94792683D01*
X201599500Y-94792686D01*
X201533608Y-94906812D01*
X201499500Y-95034108D01*
X198081078Y-95034108D01*
X197100001Y-94000000D01*
X197100000Y-94000000D01*
X196166597Y-94009150D01*
X196099368Y-93990125D01*
X196053098Y-93937772D01*
X196042477Y-93868714D01*
X196070878Y-93804877D01*
X196103380Y-93777770D01*
X196107314Y-93775500D01*
X196200500Y-93682314D01*
X196266392Y-93568186D01*
X196300500Y-93440892D01*
X196300500Y-93309108D01*
X196266392Y-93181814D01*
X196200500Y-93067686D01*
X196107314Y-92974500D01*
X196050250Y-92941554D01*
X195993187Y-92908608D01*
X195929539Y-92891554D01*
X195865892Y-92874500D01*
X195734108Y-92874500D01*
X195606812Y-92908608D01*
X195492686Y-92974500D01*
X195492683Y-92974502D01*
X195399502Y-93067683D01*
X195399500Y-93067686D01*
X195333608Y-93181812D01*
X195299500Y-93309108D01*
X195299500Y-93440891D01*
X195333608Y-93568187D01*
X195351687Y-93599500D01*
X195399500Y-93682314D01*
X195492686Y-93775500D01*
X195508819Y-93784814D01*
X195557034Y-93835380D01*
X195570258Y-93903987D01*
X195544290Y-93968852D01*
X195487377Y-94009381D01*
X195448035Y-94016195D01*
X190729461Y-94062455D01*
X190662231Y-94043429D01*
X190615961Y-93991076D01*
X190608472Y-93970559D01*
X190591392Y-93906814D01*
X190525500Y-93792686D01*
X190432314Y-93699500D01*
X190375250Y-93666554D01*
X190318187Y-93633608D01*
X190254539Y-93616554D01*
X190190892Y-93599500D01*
X190059108Y-93599500D01*
X189931812Y-93633608D01*
X189817686Y-93699500D01*
X189817683Y-93699502D01*
X189724502Y-93792683D01*
X189724500Y-93792686D01*
X189658608Y-93906812D01*
X189638351Y-93982414D01*
X189601985Y-94042075D01*
X189539138Y-94072603D01*
X189519792Y-94074314D01*
X182807297Y-94140123D01*
X182807296Y-94140124D01*
X182807295Y-94140124D01*
X180349031Y-94164225D01*
X180349030Y-94164225D01*
X176700745Y-94199992D01*
X176700000Y-94199995D01*
X176700000Y-92559108D01*
X185599500Y-92559108D01*
X185599500Y-92690891D01*
X185633608Y-92818187D01*
X185661439Y-92866391D01*
X185699500Y-92932314D01*
X185792686Y-93025500D01*
X185906814Y-93091392D01*
X186034108Y-93125500D01*
X186034110Y-93125500D01*
X186165890Y-93125500D01*
X186165892Y-93125500D01*
X186293186Y-93091392D01*
X186407314Y-93025500D01*
X186474819Y-92957995D01*
X186536142Y-92924510D01*
X186605834Y-92929494D01*
X186650181Y-92957995D01*
X186717686Y-93025500D01*
X186831814Y-93091392D01*
X186959108Y-93125500D01*
X186959110Y-93125500D01*
X187090890Y-93125500D01*
X187090892Y-93125500D01*
X187218186Y-93091392D01*
X187332314Y-93025500D01*
X187425500Y-92932314D01*
X187491392Y-92818186D01*
X187525500Y-92690892D01*
X187525500Y-92559108D01*
X187491392Y-92431814D01*
X187434981Y-92334108D01*
X202899500Y-92334108D01*
X202899500Y-92465891D01*
X202933608Y-92593187D01*
X202966554Y-92650250D01*
X202999500Y-92707314D01*
X203092686Y-92800500D01*
X203206814Y-92866392D01*
X203334108Y-92900500D01*
X203334110Y-92900500D01*
X203465890Y-92900500D01*
X203465892Y-92900500D01*
X203593186Y-92866392D01*
X203707314Y-92800500D01*
X203800500Y-92707314D01*
X203866392Y-92593186D01*
X203900500Y-92465892D01*
X203900500Y-92334108D01*
X205299500Y-92334108D01*
X205299500Y-92465891D01*
X205333608Y-92593187D01*
X205366554Y-92650250D01*
X205399500Y-92707314D01*
X205492686Y-92800500D01*
X205606814Y-92866392D01*
X205734108Y-92900500D01*
X205734110Y-92900500D01*
X205865890Y-92900500D01*
X205865892Y-92900500D01*
X205993186Y-92866392D01*
X206107314Y-92800500D01*
X206200500Y-92707314D01*
X206266392Y-92593186D01*
X206300500Y-92465892D01*
X206300500Y-92334108D01*
X206266392Y-92206814D01*
X206200500Y-92092686D01*
X206107314Y-91999500D01*
X206050250Y-91966554D01*
X205993187Y-91933608D01*
X205929539Y-91916554D01*
X205865892Y-91899500D01*
X205734108Y-91899500D01*
X205606812Y-91933608D01*
X205492686Y-91999500D01*
X205492683Y-91999502D01*
X205399502Y-92092683D01*
X205399500Y-92092686D01*
X205333608Y-92206812D01*
X205299500Y-92334108D01*
X203900500Y-92334108D01*
X203866392Y-92206814D01*
X203800500Y-92092686D01*
X203707314Y-91999500D01*
X203650250Y-91966554D01*
X203593187Y-91933608D01*
X203529539Y-91916554D01*
X203465892Y-91899500D01*
X203334108Y-91899500D01*
X203206812Y-91933608D01*
X203092686Y-91999500D01*
X203092683Y-91999502D01*
X202999502Y-92092683D01*
X202999500Y-92092686D01*
X202933608Y-92206812D01*
X202899500Y-92334108D01*
X187434981Y-92334108D01*
X187425500Y-92317686D01*
X187332314Y-92224500D01*
X187275250Y-92191554D01*
X187218187Y-92158608D01*
X187154539Y-92141554D01*
X187090892Y-92124500D01*
X186959108Y-92124500D01*
X186831812Y-92158608D01*
X186717686Y-92224500D01*
X186717683Y-92224502D01*
X186650181Y-92292005D01*
X186588858Y-92325490D01*
X186519166Y-92320506D01*
X186474819Y-92292005D01*
X186407316Y-92224502D01*
X186407314Y-92224500D01*
X186350250Y-92191554D01*
X186293187Y-92158608D01*
X186229539Y-92141554D01*
X186165892Y-92124500D01*
X186034108Y-92124500D01*
X185906812Y-92158608D01*
X185792686Y-92224500D01*
X185792683Y-92224502D01*
X185699502Y-92317683D01*
X185699500Y-92317686D01*
X185633608Y-92431812D01*
X185599500Y-92559108D01*
X176700000Y-92559108D01*
X176700000Y-90634108D01*
X201299500Y-90634108D01*
X201299500Y-90765892D01*
X201302067Y-90775471D01*
X201333608Y-90893187D01*
X201366554Y-90950250D01*
X201399500Y-91007314D01*
X201492686Y-91100500D01*
X201606814Y-91166392D01*
X201734108Y-91200500D01*
X201734110Y-91200500D01*
X201865890Y-91200500D01*
X201865892Y-91200500D01*
X201993186Y-91166392D01*
X202107314Y-91100500D01*
X202163706Y-91044108D01*
X212219500Y-91044108D01*
X212219500Y-91175892D01*
X212226094Y-91200500D01*
X212253608Y-91303187D01*
X212286554Y-91360250D01*
X212319500Y-91417314D01*
X212412686Y-91510500D01*
X212526814Y-91576392D01*
X212654108Y-91610500D01*
X212654110Y-91610500D01*
X212785890Y-91610500D01*
X212785892Y-91610500D01*
X212913186Y-91576392D01*
X213027314Y-91510500D01*
X213120500Y-91417314D01*
X213186392Y-91303186D01*
X213220500Y-91175892D01*
X213220500Y-91044108D01*
X213186392Y-90916814D01*
X213120500Y-90802686D01*
X213027314Y-90709500D01*
X212970250Y-90676554D01*
X212913187Y-90643608D01*
X212849539Y-90626554D01*
X212785892Y-90609500D01*
X212654108Y-90609500D01*
X212526812Y-90643608D01*
X212412686Y-90709500D01*
X212412683Y-90709502D01*
X212319502Y-90802683D01*
X212319500Y-90802686D01*
X212253608Y-90916812D01*
X212238290Y-90973981D01*
X212219500Y-91044108D01*
X202163706Y-91044108D01*
X202200500Y-91007314D01*
X202266392Y-90893186D01*
X202300500Y-90765892D01*
X202300500Y-90634108D01*
X202266392Y-90506814D01*
X202200500Y-90392686D01*
X202116893Y-90309079D01*
X206274471Y-90309079D01*
X206274471Y-90440862D01*
X206308579Y-90568158D01*
X206332448Y-90609500D01*
X206374471Y-90682285D01*
X206467657Y-90775471D01*
X206581785Y-90841363D01*
X206709079Y-90875471D01*
X206709081Y-90875471D01*
X206840861Y-90875471D01*
X206840863Y-90875471D01*
X206968157Y-90841363D01*
X207082285Y-90775471D01*
X207175471Y-90682285D01*
X207241363Y-90568157D01*
X207275471Y-90440863D01*
X207275471Y-90309079D01*
X207241363Y-90181785D01*
X207175471Y-90067657D01*
X207082285Y-89974471D01*
X206997465Y-89925500D01*
X206968158Y-89908579D01*
X206904010Y-89891391D01*
X206840863Y-89874471D01*
X206709079Y-89874471D01*
X206581783Y-89908579D01*
X206467657Y-89974471D01*
X206467654Y-89974473D01*
X206374473Y-90067654D01*
X206374471Y-90067657D01*
X206308579Y-90181783D01*
X206274471Y-90309079D01*
X202116893Y-90309079D01*
X202107314Y-90299500D01*
X202050250Y-90266554D01*
X201993187Y-90233608D01*
X201929539Y-90216554D01*
X201865892Y-90199500D01*
X201734108Y-90199500D01*
X201606812Y-90233608D01*
X201492686Y-90299500D01*
X201492683Y-90299502D01*
X201399502Y-90392683D01*
X201399500Y-90392686D01*
X201333608Y-90506812D01*
X201317171Y-90568157D01*
X201299500Y-90634108D01*
X176700000Y-90634108D01*
X176700000Y-89859108D01*
X194699500Y-89859108D01*
X194699500Y-89990891D01*
X194733608Y-90118187D01*
X194766554Y-90175250D01*
X194799500Y-90232314D01*
X194892686Y-90325500D01*
X195006814Y-90391392D01*
X195134108Y-90425500D01*
X195134110Y-90425500D01*
X195265890Y-90425500D01*
X195265892Y-90425500D01*
X195393186Y-90391392D01*
X195507314Y-90325500D01*
X195600500Y-90232314D01*
X195666392Y-90118186D01*
X195693395Y-90017405D01*
X195729760Y-89957746D01*
X195792607Y-89927217D01*
X195813170Y-89925500D01*
X195915890Y-89925500D01*
X195915892Y-89925500D01*
X196043186Y-89891392D01*
X196157314Y-89825500D01*
X196250500Y-89732314D01*
X196316392Y-89618186D01*
X196350500Y-89490892D01*
X196350500Y-89359108D01*
X196316392Y-89231814D01*
X196250500Y-89117686D01*
X196157314Y-89024500D01*
X196067565Y-88972683D01*
X196043187Y-88958608D01*
X195951272Y-88933980D01*
X195915892Y-88924500D01*
X195784108Y-88924500D01*
X195656812Y-88958608D01*
X195542686Y-89024500D01*
X195542683Y-89024502D01*
X195449502Y-89117683D01*
X195449500Y-89117686D01*
X195383608Y-89231812D01*
X195356605Y-89332593D01*
X195320240Y-89392254D01*
X195257393Y-89422783D01*
X195236830Y-89424500D01*
X195134108Y-89424500D01*
X195006812Y-89458608D01*
X194892686Y-89524500D01*
X194892683Y-89524502D01*
X194799502Y-89617683D01*
X194799500Y-89617686D01*
X194733608Y-89731812D01*
X194699500Y-89859108D01*
X176700000Y-89859108D01*
X176700000Y-89214108D01*
X186819500Y-89214108D01*
X186819500Y-89345892D01*
X186827920Y-89377316D01*
X186853608Y-89473187D01*
X186883234Y-89524500D01*
X186919500Y-89587314D01*
X187012686Y-89680500D01*
X187101561Y-89731812D01*
X187126810Y-89746390D01*
X187126814Y-89746392D01*
X187254108Y-89780500D01*
X187254110Y-89780500D01*
X187385890Y-89780500D01*
X187385892Y-89780500D01*
X187513186Y-89746392D01*
X187513762Y-89746059D01*
X187518032Y-89743595D01*
X187518033Y-89743594D01*
X187581202Y-89707122D01*
X187627314Y-89680500D01*
X187720500Y-89587314D01*
X187786392Y-89473186D01*
X187820500Y-89345892D01*
X187820500Y-89214108D01*
X187786392Y-89086814D01*
X187786245Y-89086560D01*
X187750416Y-89024502D01*
X187720500Y-88972686D01*
X187627314Y-88879500D01*
X187570250Y-88846554D01*
X187513187Y-88813608D01*
X187449539Y-88796554D01*
X187385892Y-88779500D01*
X187254108Y-88779500D01*
X187126812Y-88813608D01*
X187012686Y-88879500D01*
X187012683Y-88879502D01*
X186919502Y-88972683D01*
X186919500Y-88972686D01*
X186853608Y-89086812D01*
X186819500Y-89214108D01*
X176700000Y-89214108D01*
X176700000Y-88164108D01*
X197069500Y-88164108D01*
X197069500Y-88295891D01*
X197103608Y-88423187D01*
X197136554Y-88480250D01*
X197169500Y-88537314D01*
X197262686Y-88630500D01*
X197376814Y-88696392D01*
X197504108Y-88730500D01*
X197504110Y-88730500D01*
X197635890Y-88730500D01*
X197635892Y-88730500D01*
X197763186Y-88696392D01*
X197850944Y-88645724D01*
X197918842Y-88629252D01*
X197984869Y-88652104D01*
X198028060Y-88707025D01*
X198035184Y-88743986D01*
X198035882Y-88743895D01*
X198036943Y-88751953D01*
X198036943Y-88751955D01*
X198044324Y-88779500D01*
X198071051Y-88879250D01*
X198097177Y-88924500D01*
X198136943Y-88993377D01*
X198230129Y-89086563D01*
X198344257Y-89152455D01*
X198471551Y-89186563D01*
X198471553Y-89186563D01*
X198603333Y-89186563D01*
X198603335Y-89186563D01*
X198730629Y-89152455D01*
X198844757Y-89086563D01*
X198927212Y-89004108D01*
X206519500Y-89004108D01*
X206519500Y-89135891D01*
X206553608Y-89263187D01*
X206586554Y-89320250D01*
X206619500Y-89377314D01*
X206712686Y-89470500D01*
X206826814Y-89536392D01*
X206954108Y-89570500D01*
X206954110Y-89570500D01*
X207085890Y-89570500D01*
X207085892Y-89570500D01*
X207213186Y-89536392D01*
X207327314Y-89470500D01*
X207420500Y-89377314D01*
X207486392Y-89263186D01*
X207520500Y-89135892D01*
X207520500Y-89004108D01*
X207486392Y-88876814D01*
X207420500Y-88762686D01*
X207327314Y-88669500D01*
X207259764Y-88630500D01*
X207213187Y-88603608D01*
X207149539Y-88586554D01*
X207085892Y-88569500D01*
X206954108Y-88569500D01*
X206826812Y-88603608D01*
X206712686Y-88669500D01*
X206712683Y-88669502D01*
X206619502Y-88762683D01*
X206619500Y-88762686D01*
X206553608Y-88876812D01*
X206519500Y-89004108D01*
X198927212Y-89004108D01*
X198937943Y-88993377D01*
X199003835Y-88879249D01*
X199037943Y-88751955D01*
X199037943Y-88620171D01*
X199003835Y-88492877D01*
X198937943Y-88378749D01*
X198844757Y-88285563D01*
X198783609Y-88250259D01*
X198735394Y-88199691D01*
X198722172Y-88131084D01*
X198748140Y-88066219D01*
X198805055Y-88025692D01*
X198813491Y-88023104D01*
X198913186Y-87996392D01*
X199027314Y-87930500D01*
X199120500Y-87837314D01*
X199186392Y-87723186D01*
X199220500Y-87595892D01*
X199220500Y-87464108D01*
X200919500Y-87464108D01*
X200919500Y-87595892D01*
X200920735Y-87600500D01*
X200953608Y-87723187D01*
X200957253Y-87729500D01*
X201019500Y-87837314D01*
X201112686Y-87930500D01*
X201226814Y-87996392D01*
X201354108Y-88030500D01*
X201354110Y-88030500D01*
X201485890Y-88030500D01*
X201485892Y-88030500D01*
X201613186Y-87996392D01*
X201727314Y-87930500D01*
X201820500Y-87837314D01*
X201886392Y-87723186D01*
X201920500Y-87595892D01*
X201920500Y-87464108D01*
X201886392Y-87336814D01*
X201820500Y-87222686D01*
X201727314Y-87129500D01*
X201670250Y-87096554D01*
X201613187Y-87063608D01*
X201549539Y-87046554D01*
X201485892Y-87029500D01*
X201354108Y-87029500D01*
X201226812Y-87063608D01*
X201112686Y-87129500D01*
X201112683Y-87129502D01*
X201019502Y-87222683D01*
X201019500Y-87222686D01*
X200953608Y-87336812D01*
X200934718Y-87407313D01*
X200919500Y-87464108D01*
X199220500Y-87464108D01*
X199186392Y-87336814D01*
X199120500Y-87222686D01*
X199027314Y-87129500D01*
X198970250Y-87096554D01*
X198913187Y-87063608D01*
X198849539Y-87046554D01*
X198785892Y-87029500D01*
X198654108Y-87029500D01*
X198526812Y-87063608D01*
X198412686Y-87129500D01*
X198412683Y-87129502D01*
X198319502Y-87222683D01*
X198319500Y-87222686D01*
X198253608Y-87336812D01*
X198234718Y-87407313D01*
X198219500Y-87464108D01*
X198219500Y-87595892D01*
X198220735Y-87600500D01*
X198253608Y-87723187D01*
X198257253Y-87729500D01*
X198319500Y-87837314D01*
X198412686Y-87930500D01*
X198412687Y-87930501D01*
X198412689Y-87930502D01*
X198473832Y-87965803D01*
X198483674Y-87976124D01*
X198496421Y-87982522D01*
X198507303Y-88000906D01*
X198522048Y-88016370D01*
X198524747Y-88030374D01*
X198532012Y-88042648D01*
X198531227Y-88064000D01*
X198535270Y-88084977D01*
X198529969Y-88098216D01*
X198529446Y-88112470D01*
X198517241Y-88130008D01*
X198509302Y-88149842D01*
X198496916Y-88159218D01*
X198489539Y-88169822D01*
X198469449Y-88180014D01*
X198459167Y-88187800D01*
X198451713Y-88190878D01*
X198344257Y-88219671D01*
X198249407Y-88274432D01*
X198241835Y-88277560D01*
X198214912Y-88280426D01*
X198188600Y-88286810D01*
X198180684Y-88284070D01*
X198172358Y-88284957D01*
X198148158Y-88272812D01*
X198122573Y-88263957D01*
X198117396Y-88257374D01*
X198109911Y-88253618D01*
X198096119Y-88230318D01*
X198079382Y-88209036D01*
X198077383Y-88198667D01*
X198074320Y-88193492D01*
X198074650Y-88184487D01*
X198072258Y-88172076D01*
X198071561Y-88172168D01*
X198070500Y-88164115D01*
X198070500Y-88164108D01*
X198036392Y-88036814D01*
X197970500Y-87922686D01*
X197877314Y-87829500D01*
X197820250Y-87796554D01*
X197763187Y-87763608D01*
X197699539Y-87746554D01*
X197635892Y-87729500D01*
X197504108Y-87729500D01*
X197376812Y-87763608D01*
X197262686Y-87829500D01*
X197262683Y-87829502D01*
X197169502Y-87922683D01*
X197169500Y-87922686D01*
X197103608Y-88036812D01*
X197069500Y-88164108D01*
X176700000Y-88164108D01*
X176700000Y-87459108D01*
X187649500Y-87459108D01*
X187649500Y-87590892D01*
X187666554Y-87654539D01*
X187683608Y-87718187D01*
X187686495Y-87723187D01*
X187749500Y-87832314D01*
X187842686Y-87925500D01*
X187956814Y-87991392D01*
X188084108Y-88025500D01*
X188084110Y-88025500D01*
X188215890Y-88025500D01*
X188215892Y-88025500D01*
X188343186Y-87991392D01*
X188457314Y-87925500D01*
X188550500Y-87832314D01*
X188616392Y-87718186D01*
X188650500Y-87590892D01*
X188650500Y-87459108D01*
X188616392Y-87331814D01*
X188550500Y-87217686D01*
X188457314Y-87124500D01*
X188409079Y-87096651D01*
X188343187Y-87058608D01*
X188251757Y-87034110D01*
X188251750Y-87034108D01*
X193219500Y-87034108D01*
X193219500Y-87165891D01*
X193253608Y-87293187D01*
X193278797Y-87336814D01*
X193319500Y-87407314D01*
X193412686Y-87500500D01*
X193526814Y-87566392D01*
X193654108Y-87600500D01*
X193654110Y-87600500D01*
X193785890Y-87600500D01*
X193785892Y-87600500D01*
X193913186Y-87566392D01*
X194027314Y-87500500D01*
X194120500Y-87407314D01*
X194186392Y-87293186D01*
X194220500Y-87165892D01*
X194220500Y-87034108D01*
X194186392Y-86906814D01*
X194120500Y-86792686D01*
X194027314Y-86699500D01*
X193970250Y-86666554D01*
X193913187Y-86633608D01*
X193849539Y-86616554D01*
X193785892Y-86599500D01*
X193654108Y-86599500D01*
X193526812Y-86633608D01*
X193412686Y-86699500D01*
X193412683Y-86699502D01*
X193319502Y-86792683D01*
X193319500Y-86792686D01*
X193253608Y-86906812D01*
X193219500Y-87034108D01*
X188251750Y-87034108D01*
X188215892Y-87024500D01*
X188084108Y-87024500D01*
X187956812Y-87058608D01*
X187842686Y-87124500D01*
X187842683Y-87124502D01*
X187749502Y-87217683D01*
X187749500Y-87217686D01*
X187683608Y-87331812D01*
X187682268Y-87336814D01*
X187649500Y-87459108D01*
X176700000Y-87459108D01*
X176700000Y-86001150D01*
X194940714Y-86001150D01*
X194940714Y-86132933D01*
X194974822Y-86260229D01*
X194990460Y-86287314D01*
X195040714Y-86374356D01*
X195133900Y-86467542D01*
X195248028Y-86533434D01*
X195375322Y-86567542D01*
X195375324Y-86567542D01*
X195507104Y-86567542D01*
X195507106Y-86567542D01*
X195634400Y-86533434D01*
X195748528Y-86467542D01*
X195841714Y-86374356D01*
X195893819Y-86284108D01*
X197099500Y-86284108D01*
X197099500Y-86415892D01*
X197113339Y-86467539D01*
X197133608Y-86543187D01*
X197155151Y-86580499D01*
X197199500Y-86657314D01*
X197292686Y-86750500D01*
X197406814Y-86816392D01*
X197534108Y-86850500D01*
X197534110Y-86850500D01*
X197665890Y-86850500D01*
X197665892Y-86850500D01*
X197793186Y-86816392D01*
X197907314Y-86750500D01*
X198000500Y-86657314D01*
X198066392Y-86543186D01*
X198100500Y-86415892D01*
X198100500Y-86284108D01*
X198066392Y-86156814D01*
X198000500Y-86042686D01*
X197907314Y-85949500D01*
X197846013Y-85914108D01*
X202099500Y-85914108D01*
X202099500Y-86045892D01*
X202116554Y-86109539D01*
X202133608Y-86173187D01*
X202166554Y-86230250D01*
X202199500Y-86287314D01*
X202292686Y-86380500D01*
X202406814Y-86446392D01*
X202534108Y-86480500D01*
X202534110Y-86480500D01*
X202665890Y-86480500D01*
X202665892Y-86480500D01*
X202793186Y-86446392D01*
X202907314Y-86380500D01*
X203000500Y-86287314D01*
X203066392Y-86173186D01*
X203082222Y-86114108D01*
X206549500Y-86114108D01*
X206549500Y-86245892D01*
X206566554Y-86309539D01*
X206583608Y-86373187D01*
X206608263Y-86415890D01*
X206649500Y-86487314D01*
X206742686Y-86580500D01*
X206856814Y-86646392D01*
X206984108Y-86680500D01*
X206984110Y-86680500D01*
X207115890Y-86680500D01*
X207115892Y-86680500D01*
X207243186Y-86646392D01*
X207357314Y-86580500D01*
X207450500Y-86487314D01*
X207516392Y-86373186D01*
X207550500Y-86245892D01*
X207550500Y-86114108D01*
X207516392Y-85986814D01*
X207450500Y-85872686D01*
X207357314Y-85779500D01*
X207300250Y-85746554D01*
X207243187Y-85713608D01*
X207179539Y-85696554D01*
X207115892Y-85679500D01*
X206984108Y-85679500D01*
X206856812Y-85713608D01*
X206742686Y-85779500D01*
X206742683Y-85779502D01*
X206649502Y-85872683D01*
X206649500Y-85872686D01*
X206583608Y-85986812D01*
X206567778Y-86045892D01*
X206549500Y-86114108D01*
X203082222Y-86114108D01*
X203100500Y-86045892D01*
X203100500Y-85914108D01*
X203066392Y-85786814D01*
X203000500Y-85672686D01*
X202907314Y-85579500D01*
X202850250Y-85546554D01*
X202793187Y-85513608D01*
X202729539Y-85496554D01*
X202665892Y-85479500D01*
X202534108Y-85479500D01*
X202406812Y-85513608D01*
X202292686Y-85579500D01*
X202292683Y-85579502D01*
X202199502Y-85672683D01*
X202199500Y-85672686D01*
X202133608Y-85786812D01*
X202112285Y-85866392D01*
X202099500Y-85914108D01*
X197846013Y-85914108D01*
X197822442Y-85900499D01*
X197793187Y-85883608D01*
X197728931Y-85866391D01*
X197665892Y-85849500D01*
X197534108Y-85849500D01*
X197406812Y-85883608D01*
X197292686Y-85949500D01*
X197292683Y-85949502D01*
X197199502Y-86042683D01*
X197199500Y-86042686D01*
X197133608Y-86156812D01*
X197105898Y-86260229D01*
X197099500Y-86284108D01*
X195893819Y-86284108D01*
X195907606Y-86260228D01*
X195941714Y-86132934D01*
X195941714Y-86001150D01*
X195907606Y-85873856D01*
X195906930Y-85872686D01*
X195893235Y-85848964D01*
X195841714Y-85759728D01*
X195841712Y-85759726D01*
X195837650Y-85752690D01*
X195840053Y-85751302D01*
X195819731Y-85698769D01*
X195833755Y-85630321D01*
X195855613Y-85600749D01*
X195881041Y-85575322D01*
X195946933Y-85461194D01*
X195981041Y-85333900D01*
X195981041Y-85202116D01*
X195946933Y-85074822D01*
X195881041Y-84960694D01*
X195787855Y-84867508D01*
X195719671Y-84828141D01*
X195673728Y-84801616D01*
X195610080Y-84784562D01*
X195546433Y-84767508D01*
X195414649Y-84767508D01*
X195287353Y-84801616D01*
X195173227Y-84867508D01*
X195173224Y-84867510D01*
X195080043Y-84960691D01*
X195080041Y-84960694D01*
X195014149Y-85074820D01*
X194997404Y-85137314D01*
X194980041Y-85202116D01*
X194980041Y-85333900D01*
X194991187Y-85375499D01*
X195014149Y-85461195D01*
X195016861Y-85465892D01*
X195080041Y-85575322D01*
X195080042Y-85575323D01*
X195084105Y-85582360D01*
X195081701Y-85583747D01*
X195102023Y-85636288D01*
X195087995Y-85704735D01*
X195066138Y-85734304D01*
X195040714Y-85759728D01*
X194974822Y-85873854D01*
X194940714Y-86001150D01*
X176700000Y-86001150D01*
X176700000Y-84809108D01*
X186099500Y-84809108D01*
X186099500Y-84940891D01*
X186133608Y-85068187D01*
X186137438Y-85074820D01*
X186199500Y-85182314D01*
X186292686Y-85275500D01*
X186387947Y-85330499D01*
X186393837Y-85333900D01*
X186406814Y-85341392D01*
X186534108Y-85375500D01*
X186534110Y-85375500D01*
X186665890Y-85375500D01*
X186665892Y-85375500D01*
X186793186Y-85341392D01*
X186805802Y-85334108D01*
X188299500Y-85334108D01*
X188299500Y-85465891D01*
X188333608Y-85593187D01*
X188337970Y-85600742D01*
X188399500Y-85707314D01*
X188492686Y-85800500D01*
X188606814Y-85866392D01*
X188734108Y-85900500D01*
X188734110Y-85900500D01*
X188865890Y-85900500D01*
X188865892Y-85900500D01*
X188993186Y-85866392D01*
X189107314Y-85800500D01*
X189200500Y-85707314D01*
X189266392Y-85593186D01*
X189300500Y-85465892D01*
X189300500Y-85334108D01*
X189266392Y-85206814D01*
X189200500Y-85092686D01*
X189107314Y-84999500D01*
X189040095Y-84960691D01*
X188993187Y-84933608D01*
X188929539Y-84916554D01*
X188865892Y-84899500D01*
X188734108Y-84899500D01*
X188606812Y-84933608D01*
X188492686Y-84999500D01*
X188492683Y-84999502D01*
X188399502Y-85092683D01*
X188399500Y-85092686D01*
X188333608Y-85206812D01*
X188299500Y-85334108D01*
X186805802Y-85334108D01*
X186907314Y-85275500D01*
X187000500Y-85182314D01*
X187066392Y-85068186D01*
X187100500Y-84940892D01*
X187100500Y-84809108D01*
X187088442Y-84764108D01*
X198219500Y-84764108D01*
X198219500Y-84895891D01*
X198253608Y-85023187D01*
X198279589Y-85068186D01*
X198319500Y-85137314D01*
X198412686Y-85230500D01*
X198526814Y-85296392D01*
X198654108Y-85330500D01*
X198654110Y-85330500D01*
X198785890Y-85330500D01*
X198785892Y-85330500D01*
X198913186Y-85296392D01*
X199027314Y-85230500D01*
X199120500Y-85137314D01*
X199186392Y-85023186D01*
X199220500Y-84895892D01*
X199220500Y-84764108D01*
X200919500Y-84764108D01*
X200919500Y-84895891D01*
X200953608Y-85023187D01*
X200979589Y-85068186D01*
X201019500Y-85137314D01*
X201112686Y-85230500D01*
X201226814Y-85296392D01*
X201354108Y-85330500D01*
X201354110Y-85330500D01*
X201485890Y-85330500D01*
X201485892Y-85330500D01*
X201613186Y-85296392D01*
X201727314Y-85230500D01*
X201820500Y-85137314D01*
X201886392Y-85023186D01*
X201920500Y-84895892D01*
X201920500Y-84764108D01*
X201886392Y-84636814D01*
X201820500Y-84522686D01*
X201727314Y-84429500D01*
X201670250Y-84396554D01*
X201613187Y-84363608D01*
X201549539Y-84346554D01*
X201485892Y-84329500D01*
X201354108Y-84329500D01*
X201226812Y-84363608D01*
X201112686Y-84429500D01*
X201112683Y-84429502D01*
X201019502Y-84522683D01*
X201019500Y-84522686D01*
X200953608Y-84636812D01*
X200919500Y-84764108D01*
X199220500Y-84764108D01*
X199186392Y-84636814D01*
X199120500Y-84522686D01*
X199027314Y-84429500D01*
X198970250Y-84396554D01*
X198913187Y-84363608D01*
X198849539Y-84346554D01*
X198785892Y-84329500D01*
X198654108Y-84329500D01*
X198526812Y-84363608D01*
X198412686Y-84429500D01*
X198412683Y-84429502D01*
X198319502Y-84522683D01*
X198319500Y-84522686D01*
X198253608Y-84636812D01*
X198219500Y-84764108D01*
X187088442Y-84764108D01*
X187066392Y-84681814D01*
X187000500Y-84567686D01*
X186907314Y-84474500D01*
X186848419Y-84440497D01*
X186793187Y-84408608D01*
X186729539Y-84391554D01*
X186665892Y-84374500D01*
X186534108Y-84374500D01*
X186406812Y-84408608D01*
X186292686Y-84474500D01*
X186292683Y-84474502D01*
X186199502Y-84567683D01*
X186199500Y-84567686D01*
X186133608Y-84681812D01*
X186099500Y-84809108D01*
X176700000Y-84809108D01*
X176700000Y-84620000D01*
X176700000Y-84010000D01*
X176700000Y-82200000D01*
X176700000Y-81525000D01*
X176700000Y-81051362D01*
X176719685Y-80984323D01*
X176736319Y-80963681D01*
X176815892Y-80884108D01*
X176938856Y-80761143D01*
X177000177Y-80727660D01*
X177026110Y-80724827D01*
X181024482Y-80711346D01*
X184382452Y-80700026D01*
X184389341Y-80702023D01*
X184396404Y-80700766D01*
X184422451Y-80711624D01*
X184449557Y-80719484D01*
X184455845Y-80725545D01*
X184460894Y-80727650D01*
X184474243Y-80743278D01*
X184484886Y-80753536D01*
X184487751Y-80757682D01*
X184539500Y-80847314D01*
X184572452Y-80880266D01*
X184578840Y-80889511D01*
X184586416Y-80912446D01*
X184597990Y-80933642D01*
X184597176Y-80945020D01*
X184600755Y-80955854D01*
X184594728Y-80979242D01*
X184593006Y-81003334D01*
X184585520Y-81014980D01*
X184583322Y-81023515D01*
X184575195Y-81031046D01*
X184564505Y-81047681D01*
X184559502Y-81052683D01*
X184559500Y-81052686D01*
X184493608Y-81166812D01*
X184477778Y-81225892D01*
X184459500Y-81294108D01*
X184459500Y-81425892D01*
X184476554Y-81489539D01*
X184493608Y-81553187D01*
X184520231Y-81599299D01*
X184559500Y-81667314D01*
X184652686Y-81760500D01*
X184766814Y-81826392D01*
X184863418Y-81852276D01*
X184923078Y-81888641D01*
X184953607Y-81951488D01*
X184945312Y-82020863D01*
X184938711Y-82034051D01*
X184873609Y-82146810D01*
X184873609Y-82146811D01*
X184873609Y-82146812D01*
X184873608Y-82146814D01*
X184857773Y-82205911D01*
X184839500Y-82274108D01*
X184839500Y-82405891D01*
X184873608Y-82533187D01*
X184906554Y-82590250D01*
X184939500Y-82647314D01*
X184939502Y-82647316D01*
X184969505Y-82677319D01*
X185002990Y-82738642D01*
X184998006Y-82808334D01*
X184969505Y-82852681D01*
X184949502Y-82872683D01*
X184949500Y-82872686D01*
X184883608Y-82986812D01*
X184849500Y-83114108D01*
X184849500Y-83245892D01*
X184866305Y-83308608D01*
X184883608Y-83373187D01*
X184916554Y-83430250D01*
X184949500Y-83487314D01*
X184949502Y-83487316D01*
X184979505Y-83517319D01*
X185012990Y-83578642D01*
X185008006Y-83648334D01*
X184979505Y-83692681D01*
X184939502Y-83732683D01*
X184939500Y-83732686D01*
X184873608Y-83846812D01*
X184839500Y-83974108D01*
X184839500Y-84105891D01*
X184873608Y-84233187D01*
X184898037Y-84275499D01*
X184939500Y-84347314D01*
X185032686Y-84440500D01*
X185146814Y-84506392D01*
X185274108Y-84540500D01*
X185274110Y-84540500D01*
X185405890Y-84540500D01*
X185405892Y-84540500D01*
X185533186Y-84506392D01*
X185647314Y-84440500D01*
X185740500Y-84347314D01*
X185806392Y-84233186D01*
X185840500Y-84105892D01*
X185840500Y-83974108D01*
X185806392Y-83846814D01*
X185740500Y-83732686D01*
X185716922Y-83709108D01*
X191924500Y-83709108D01*
X191924500Y-83840891D01*
X191958608Y-83968187D01*
X191962027Y-83974108D01*
X192024500Y-84082314D01*
X192117686Y-84175500D01*
X192231814Y-84241392D01*
X192359108Y-84275500D01*
X192359110Y-84275500D01*
X192490890Y-84275500D01*
X192490892Y-84275500D01*
X192618186Y-84241392D01*
X192732314Y-84175500D01*
X192825500Y-84082314D01*
X192891392Y-83968186D01*
X192925500Y-83840892D01*
X192925500Y-83709108D01*
X192891392Y-83581814D01*
X192890633Y-83580500D01*
X192859929Y-83527319D01*
X192825500Y-83467686D01*
X192732314Y-83374500D01*
X192675250Y-83341554D01*
X192618187Y-83308608D01*
X192554539Y-83291554D01*
X192490892Y-83274500D01*
X192359108Y-83274500D01*
X192231812Y-83308608D01*
X192117686Y-83374500D01*
X192117683Y-83374502D01*
X192024502Y-83467683D01*
X192024500Y-83467686D01*
X191958608Y-83581812D01*
X191924500Y-83709108D01*
X185716922Y-83709108D01*
X185705136Y-83697322D01*
X185700477Y-83691361D01*
X185690268Y-83665639D01*
X185677010Y-83641358D01*
X185677563Y-83633625D01*
X185674703Y-83626419D01*
X185680020Y-83599265D01*
X185681994Y-83571666D01*
X185686928Y-83563988D01*
X185688130Y-83557851D01*
X185696441Y-83549186D01*
X185710495Y-83527319D01*
X185720495Y-83517319D01*
X185750500Y-83487314D01*
X185816392Y-83373186D01*
X185850500Y-83245892D01*
X185850500Y-83114108D01*
X185816392Y-82986814D01*
X185750500Y-82872686D01*
X185720495Y-82842681D01*
X185687010Y-82781358D01*
X185691994Y-82711666D01*
X185720495Y-82667319D01*
X185740500Y-82647314D01*
X185806392Y-82533186D01*
X185840500Y-82405892D01*
X185840500Y-82274108D01*
X185806392Y-82146814D01*
X185740500Y-82032686D01*
X185647314Y-81939500D01*
X185533186Y-81873608D01*
X185436581Y-81847723D01*
X185376921Y-81811358D01*
X185346392Y-81748511D01*
X185354687Y-81679135D01*
X185361279Y-81665963D01*
X185426392Y-81553186D01*
X185460500Y-81425892D01*
X185460500Y-81294108D01*
X185426392Y-81166814D01*
X185360500Y-81052686D01*
X185335495Y-81027681D01*
X185302010Y-80966358D01*
X185306994Y-80896666D01*
X185335495Y-80852319D01*
X185340500Y-80847314D01*
X185406392Y-80733186D01*
X185440500Y-80605892D01*
X185440500Y-80474108D01*
X185429782Y-80434108D01*
X187939500Y-80434108D01*
X187939500Y-80565891D01*
X187973608Y-80693187D01*
X187998059Y-80735536D01*
X188039500Y-80807314D01*
X188132686Y-80900500D01*
X188246814Y-80966392D01*
X188374108Y-81000500D01*
X188374110Y-81000500D01*
X188505890Y-81000500D01*
X188505892Y-81000500D01*
X188633186Y-80966392D01*
X188705808Y-80924463D01*
X188773705Y-80907990D01*
X188839732Y-80930841D01*
X188882924Y-80985762D01*
X188889567Y-81055315D01*
X188887583Y-81063940D01*
X188879500Y-81094108D01*
X188879500Y-81225892D01*
X188887920Y-81257316D01*
X188913608Y-81353187D01*
X188931461Y-81384108D01*
X188979500Y-81467314D01*
X189072686Y-81560500D01*
X189186814Y-81626392D01*
X189314108Y-81660500D01*
X189314110Y-81660500D01*
X189445890Y-81660500D01*
X189445892Y-81660500D01*
X189573186Y-81626392D01*
X189687314Y-81560500D01*
X189780500Y-81467314D01*
X189828539Y-81384108D01*
X198369500Y-81384108D01*
X198369500Y-81515892D01*
X198379493Y-81553186D01*
X198403608Y-81643187D01*
X198417538Y-81667314D01*
X198469500Y-81757314D01*
X198562686Y-81850500D01*
X198676814Y-81916392D01*
X198804108Y-81950500D01*
X198804110Y-81950500D01*
X198935890Y-81950500D01*
X198935892Y-81950500D01*
X199063186Y-81916392D01*
X199177314Y-81850500D01*
X199270500Y-81757314D01*
X199336392Y-81643186D01*
X199337375Y-81639519D01*
X201569500Y-81639519D01*
X201569500Y-81771302D01*
X201603608Y-81898598D01*
X201633574Y-81950499D01*
X201669500Y-82012725D01*
X201762686Y-82105911D01*
X201876814Y-82171803D01*
X202004108Y-82205911D01*
X202004110Y-82205911D01*
X202135890Y-82205911D01*
X202135892Y-82205911D01*
X202263186Y-82171803D01*
X202377314Y-82105911D01*
X202470500Y-82012725D01*
X202536392Y-81898597D01*
X202570500Y-81771303D01*
X202570500Y-81639519D01*
X202536392Y-81512225D01*
X202470500Y-81398097D01*
X202377314Y-81304911D01*
X202320250Y-81271965D01*
X202263187Y-81239019D01*
X202194068Y-81220499D01*
X202135892Y-81204911D01*
X202004108Y-81204911D01*
X201876812Y-81239019D01*
X201762686Y-81304911D01*
X201762683Y-81304913D01*
X201669502Y-81398094D01*
X201669500Y-81398097D01*
X201603608Y-81512223D01*
X201569500Y-81639519D01*
X199337375Y-81639519D01*
X199370500Y-81515892D01*
X199370500Y-81384108D01*
X199336392Y-81256814D01*
X199270500Y-81142686D01*
X199177314Y-81049500D01*
X199066917Y-80985762D01*
X199063188Y-80983609D01*
X199063187Y-80983608D01*
X199063186Y-80983608D01*
X198935892Y-80949500D01*
X198804108Y-80949500D01*
X198676812Y-80983608D01*
X198562686Y-81049500D01*
X198562683Y-81049502D01*
X198469502Y-81142683D01*
X198469500Y-81142686D01*
X198403608Y-81256812D01*
X198390720Y-81304913D01*
X198369500Y-81384108D01*
X189828539Y-81384108D01*
X189846392Y-81353186D01*
X189880500Y-81225892D01*
X189880500Y-81094108D01*
X189846392Y-80966814D01*
X189846148Y-80966392D01*
X189833351Y-80944226D01*
X189780500Y-80852686D01*
X189687314Y-80759500D01*
X189622672Y-80722179D01*
X189573187Y-80693608D01*
X189500884Y-80674235D01*
X189445892Y-80659500D01*
X189314108Y-80659500D01*
X189186814Y-80693608D01*
X189186813Y-80693608D01*
X189186811Y-80693609D01*
X189186810Y-80693609D01*
X189114192Y-80735536D01*
X189046292Y-80752009D01*
X188980265Y-80729157D01*
X188937074Y-80674235D01*
X188935152Y-80654108D01*
X196189500Y-80654108D01*
X196189500Y-80785892D01*
X196205958Y-80847313D01*
X196223608Y-80913187D01*
X196241529Y-80944226D01*
X196289500Y-81027314D01*
X196382686Y-81120500D01*
X196496814Y-81186392D01*
X196624108Y-81220500D01*
X196624110Y-81220500D01*
X196755890Y-81220500D01*
X196755892Y-81220500D01*
X196883186Y-81186392D01*
X196997314Y-81120500D01*
X197090500Y-81027314D01*
X197156392Y-80913186D01*
X197164183Y-80884108D01*
X206599500Y-80884108D01*
X206599500Y-81015892D01*
X206608018Y-81047681D01*
X206633608Y-81143187D01*
X206658552Y-81186391D01*
X206699500Y-81257314D01*
X206792686Y-81350500D01*
X206906814Y-81416392D01*
X207034108Y-81450500D01*
X207034110Y-81450500D01*
X207165890Y-81450500D01*
X207165892Y-81450500D01*
X207293186Y-81416392D01*
X207407314Y-81350500D01*
X207500500Y-81257314D01*
X207566392Y-81143186D01*
X207600500Y-81015892D01*
X207600500Y-80884108D01*
X208424500Y-80884108D01*
X208424500Y-81015892D01*
X208433018Y-81047681D01*
X208458608Y-81143187D01*
X208483552Y-81186391D01*
X208524500Y-81257314D01*
X208617686Y-81350500D01*
X208731814Y-81416392D01*
X208859108Y-81450500D01*
X208859110Y-81450500D01*
X208990890Y-81450500D01*
X208990892Y-81450500D01*
X209118186Y-81416392D01*
X209232314Y-81350500D01*
X209325500Y-81257314D01*
X209391392Y-81143186D01*
X209425500Y-81015892D01*
X209425500Y-80884108D01*
X210199500Y-80884108D01*
X210199500Y-81015892D01*
X210208018Y-81047681D01*
X210233608Y-81143187D01*
X210258552Y-81186391D01*
X210299500Y-81257314D01*
X210392686Y-81350500D01*
X210506814Y-81416392D01*
X210634108Y-81450500D01*
X210634110Y-81450500D01*
X210765890Y-81450500D01*
X210765892Y-81450500D01*
X210893186Y-81416392D01*
X211007314Y-81350500D01*
X211100500Y-81257314D01*
X211166392Y-81143186D01*
X211200500Y-81015892D01*
X211200500Y-80884108D01*
X211166392Y-80756814D01*
X211164499Y-80753536D01*
X211134758Y-80702023D01*
X211100500Y-80642686D01*
X211007314Y-80549500D01*
X210950250Y-80516554D01*
X210893187Y-80483608D01*
X210797898Y-80458076D01*
X210765892Y-80449500D01*
X210634108Y-80449500D01*
X210506812Y-80483608D01*
X210392686Y-80549500D01*
X210392683Y-80549502D01*
X210299502Y-80642683D01*
X210299500Y-80642686D01*
X210233608Y-80756812D01*
X210220076Y-80807316D01*
X210199500Y-80884108D01*
X209425500Y-80884108D01*
X209391392Y-80756814D01*
X209389499Y-80753536D01*
X209359758Y-80702023D01*
X209325500Y-80642686D01*
X209232314Y-80549500D01*
X209175250Y-80516554D01*
X209118187Y-80483608D01*
X209022898Y-80458076D01*
X208990892Y-80449500D01*
X208859108Y-80449500D01*
X208731812Y-80483608D01*
X208617686Y-80549500D01*
X208617683Y-80549502D01*
X208524502Y-80642683D01*
X208524500Y-80642686D01*
X208458608Y-80756812D01*
X208445076Y-80807316D01*
X208424500Y-80884108D01*
X207600500Y-80884108D01*
X207566392Y-80756814D01*
X207564499Y-80753536D01*
X207534758Y-80702023D01*
X207500500Y-80642686D01*
X207407314Y-80549500D01*
X207350250Y-80516554D01*
X207293187Y-80483608D01*
X207197898Y-80458076D01*
X207165892Y-80449500D01*
X207034108Y-80449500D01*
X206906812Y-80483608D01*
X206792686Y-80549500D01*
X206792683Y-80549502D01*
X206699502Y-80642683D01*
X206699500Y-80642686D01*
X206633608Y-80756812D01*
X206620076Y-80807316D01*
X206599500Y-80884108D01*
X197164183Y-80884108D01*
X197190500Y-80785892D01*
X197190500Y-80654108D01*
X197156392Y-80526814D01*
X197090500Y-80412686D01*
X196997314Y-80319500D01*
X196940250Y-80286554D01*
X196883187Y-80253608D01*
X196805092Y-80232683D01*
X196755892Y-80219500D01*
X196624108Y-80219500D01*
X196496812Y-80253608D01*
X196382686Y-80319500D01*
X196382683Y-80319502D01*
X196289502Y-80412683D01*
X196289500Y-80412686D01*
X196223608Y-80526812D01*
X196202419Y-80605892D01*
X196189500Y-80654108D01*
X188935152Y-80654108D01*
X188930433Y-80604682D01*
X188932411Y-80596079D01*
X188940500Y-80565892D01*
X188940500Y-80434108D01*
X188931976Y-80402295D01*
X188933637Y-80332448D01*
X188972799Y-80274585D01*
X189037027Y-80247080D01*
X189075995Y-80249867D01*
X189076052Y-80249439D01*
X189083252Y-80250387D01*
X189083844Y-80250429D01*
X189084108Y-80250500D01*
X189084113Y-80250500D01*
X189215890Y-80250500D01*
X189215892Y-80250500D01*
X189343186Y-80216392D01*
X189457314Y-80150500D01*
X189550500Y-80057314D01*
X189616392Y-79943186D01*
X189650500Y-79815892D01*
X189650500Y-79684108D01*
X189616392Y-79556814D01*
X189550500Y-79442686D01*
X189457314Y-79349500D01*
X189381783Y-79305892D01*
X189343187Y-79283608D01*
X189227670Y-79252656D01*
X189215892Y-79249500D01*
X189084108Y-79249500D01*
X188956812Y-79283608D01*
X188842686Y-79349500D01*
X188842683Y-79349502D01*
X188749502Y-79442683D01*
X188749500Y-79442686D01*
X188683608Y-79556812D01*
X188649500Y-79684108D01*
X188649500Y-79815891D01*
X188658024Y-79847703D01*
X188656361Y-79917553D01*
X188617198Y-79975415D01*
X188552970Y-80002919D01*
X188514004Y-80000132D01*
X188513948Y-80000561D01*
X188506752Y-79999613D01*
X188506157Y-79999571D01*
X188505893Y-79999500D01*
X188505892Y-79999500D01*
X188374108Y-79999500D01*
X188246812Y-80033608D01*
X188132686Y-80099500D01*
X188132683Y-80099502D01*
X188039502Y-80192683D01*
X188039500Y-80192686D01*
X187973608Y-80306812D01*
X187939500Y-80434108D01*
X185429782Y-80434108D01*
X185406392Y-80346814D01*
X185340500Y-80232686D01*
X185247314Y-80139500D01*
X185179764Y-80100500D01*
X185133187Y-80073608D01*
X185069539Y-80056554D01*
X185005892Y-80039500D01*
X184874108Y-80039500D01*
X184874103Y-80039500D01*
X184857983Y-80043820D01*
X184788133Y-80042156D01*
X184730271Y-80002993D01*
X184702769Y-79938764D01*
X184701893Y-79923762D01*
X184704112Y-79014108D01*
X199169500Y-79014108D01*
X199169500Y-79145892D01*
X199177061Y-79174110D01*
X199203608Y-79273187D01*
X199222490Y-79305891D01*
X199269500Y-79387314D01*
X199362686Y-79480500D01*
X199426502Y-79517344D01*
X199476810Y-79546390D01*
X199476814Y-79546392D01*
X199604108Y-79580500D01*
X199604110Y-79580500D01*
X199735890Y-79580500D01*
X199735892Y-79580500D01*
X199863186Y-79546392D01*
X199884459Y-79534110D01*
X199913499Y-79517344D01*
X199981399Y-79500870D01*
X200047426Y-79523722D01*
X200090617Y-79578643D01*
X200099500Y-79624730D01*
X200099500Y-79755892D01*
X200105106Y-79776814D01*
X200133608Y-79883187D01*
X200165696Y-79938764D01*
X200199500Y-79997314D01*
X200292686Y-80090500D01*
X200377560Y-80139502D01*
X200396603Y-80150497D01*
X200406814Y-80156392D01*
X200534108Y-80190500D01*
X200534110Y-80190500D01*
X200665890Y-80190500D01*
X200665892Y-80190500D01*
X200793186Y-80156392D01*
X200907314Y-80090500D01*
X201000500Y-79997314D01*
X201054313Y-79904108D01*
X201479500Y-79904108D01*
X201479500Y-80035892D01*
X201489606Y-80073608D01*
X201513608Y-80163187D01*
X201530638Y-80192683D01*
X201579500Y-80277314D01*
X201672686Y-80370500D01*
X201771521Y-80427563D01*
X201782854Y-80434106D01*
X201786814Y-80436392D01*
X201914108Y-80470500D01*
X201914110Y-80470500D01*
X202045890Y-80470500D01*
X202045892Y-80470500D01*
X202173186Y-80436392D01*
X202287314Y-80370500D01*
X202380500Y-80277314D01*
X202446392Y-80163186D01*
X202480500Y-80035892D01*
X202480500Y-79904108D01*
X202446392Y-79776814D01*
X202380500Y-79662686D01*
X202287314Y-79569500D01*
X202226013Y-79534108D01*
X202173187Y-79503608D01*
X202086941Y-79480499D01*
X202045892Y-79469500D01*
X201914108Y-79469500D01*
X201786812Y-79503608D01*
X201672686Y-79569500D01*
X201672683Y-79569502D01*
X201579502Y-79662683D01*
X201579500Y-79662686D01*
X201513608Y-79776812D01*
X201490277Y-79863887D01*
X201479500Y-79904108D01*
X201054313Y-79904108D01*
X201066392Y-79883186D01*
X201100500Y-79755892D01*
X201100500Y-79624108D01*
X201066392Y-79496814D01*
X201000500Y-79382686D01*
X200907314Y-79289500D01*
X200879371Y-79273367D01*
X200879370Y-79273366D01*
X200793188Y-79223609D01*
X200793187Y-79223608D01*
X200793186Y-79223608D01*
X200665892Y-79189500D01*
X200534108Y-79189500D01*
X200406814Y-79223608D01*
X200406813Y-79223608D01*
X200406811Y-79223609D01*
X200406810Y-79223609D01*
X200356500Y-79252656D01*
X200288600Y-79269129D01*
X200222573Y-79246276D01*
X200179382Y-79191355D01*
X200176058Y-79174108D01*
X203109500Y-79174108D01*
X203109500Y-79305891D01*
X203143608Y-79433187D01*
X203161386Y-79463978D01*
X203209500Y-79547314D01*
X203302686Y-79640500D01*
X203416814Y-79706392D01*
X203544108Y-79740500D01*
X203544110Y-79740500D01*
X203675890Y-79740500D01*
X203675892Y-79740500D01*
X203803186Y-79706392D01*
X203917314Y-79640500D01*
X204010500Y-79547314D01*
X204018125Y-79534108D01*
X207624500Y-79534108D01*
X207624500Y-79665892D01*
X207635352Y-79706391D01*
X207658608Y-79793187D01*
X207671717Y-79815892D01*
X207724500Y-79907314D01*
X207817686Y-80000500D01*
X207931814Y-80066392D01*
X208059108Y-80100500D01*
X208059110Y-80100500D01*
X208190890Y-80100500D01*
X208190892Y-80100500D01*
X208318186Y-80066392D01*
X208432314Y-80000500D01*
X208525500Y-79907314D01*
X208591392Y-79793186D01*
X208625500Y-79665892D01*
X208625500Y-79534108D01*
X209574500Y-79534108D01*
X209574500Y-79665892D01*
X209585352Y-79706391D01*
X209608608Y-79793187D01*
X209621717Y-79815892D01*
X209674500Y-79907314D01*
X209767686Y-80000500D01*
X209881814Y-80066392D01*
X210009108Y-80100500D01*
X210009110Y-80100500D01*
X210140890Y-80100500D01*
X210140892Y-80100500D01*
X210268186Y-80066392D01*
X210382314Y-80000500D01*
X210475500Y-79907314D01*
X210541392Y-79793186D01*
X210575500Y-79665892D01*
X210575500Y-79534108D01*
X210541392Y-79406814D01*
X210475500Y-79292686D01*
X210382314Y-79199500D01*
X210325250Y-79166554D01*
X210268187Y-79133608D01*
X210204539Y-79116554D01*
X210140892Y-79099500D01*
X210009108Y-79099500D01*
X209881812Y-79133608D01*
X209767686Y-79199500D01*
X209767683Y-79199502D01*
X209674502Y-79292683D01*
X209674500Y-79292686D01*
X209608608Y-79406812D01*
X209591811Y-79469500D01*
X209574500Y-79534108D01*
X208625500Y-79534108D01*
X208591392Y-79406814D01*
X208525500Y-79292686D01*
X208432314Y-79199500D01*
X208375250Y-79166554D01*
X208318187Y-79133608D01*
X208254539Y-79116554D01*
X208190892Y-79099500D01*
X208059108Y-79099500D01*
X207931812Y-79133608D01*
X207817686Y-79199500D01*
X207817683Y-79199502D01*
X207724502Y-79292683D01*
X207724500Y-79292686D01*
X207658608Y-79406812D01*
X207641811Y-79469500D01*
X207624500Y-79534108D01*
X204018125Y-79534108D01*
X204076392Y-79433186D01*
X204110500Y-79305892D01*
X204110500Y-79174108D01*
X204076392Y-79046814D01*
X204010500Y-78932686D01*
X203917314Y-78839500D01*
X203860250Y-78806554D01*
X203803187Y-78773608D01*
X203739539Y-78756554D01*
X203675892Y-78739500D01*
X203544108Y-78739500D01*
X203416812Y-78773608D01*
X203302686Y-78839500D01*
X203302683Y-78839502D01*
X203209502Y-78932683D01*
X203209500Y-78932686D01*
X203143608Y-79046812D01*
X203109500Y-79174108D01*
X200176058Y-79174108D01*
X200170500Y-79145269D01*
X200170500Y-79014110D01*
X200170500Y-79014108D01*
X200136392Y-78886814D01*
X200070500Y-78772686D01*
X199977314Y-78679500D01*
X199911309Y-78641392D01*
X199863187Y-78613608D01*
X199799539Y-78596554D01*
X199735892Y-78579500D01*
X199604108Y-78579500D01*
X199476812Y-78613608D01*
X199362686Y-78679500D01*
X199362683Y-78679502D01*
X199269502Y-78772683D01*
X199269500Y-78772686D01*
X199203608Y-78886812D01*
X199169500Y-79014108D01*
X184704112Y-79014108D01*
X184706320Y-78109108D01*
X208574500Y-78109108D01*
X208574500Y-78240891D01*
X208608608Y-78368187D01*
X208641554Y-78425250D01*
X208674500Y-78482314D01*
X208767686Y-78575500D01*
X208881814Y-78641392D01*
X209009108Y-78675500D01*
X209009110Y-78675500D01*
X209140890Y-78675500D01*
X209140892Y-78675500D01*
X209268186Y-78641392D01*
X209382314Y-78575500D01*
X209475500Y-78482314D01*
X209541392Y-78368186D01*
X209575500Y-78240892D01*
X209575500Y-78109108D01*
X210349500Y-78109108D01*
X210349500Y-78240891D01*
X210383608Y-78368187D01*
X210416554Y-78425250D01*
X210449500Y-78482314D01*
X210542686Y-78575500D01*
X210656814Y-78641392D01*
X210784108Y-78675500D01*
X210784110Y-78675500D01*
X210915890Y-78675500D01*
X210915892Y-78675500D01*
X211043186Y-78641392D01*
X211157314Y-78575500D01*
X211250500Y-78482314D01*
X211316392Y-78368186D01*
X211350500Y-78240892D01*
X211350500Y-78109108D01*
X211316392Y-77981814D01*
X211250500Y-77867686D01*
X211157314Y-77774500D01*
X211100250Y-77741554D01*
X211043187Y-77708608D01*
X210979539Y-77691554D01*
X210915892Y-77674500D01*
X210784108Y-77674500D01*
X210656812Y-77708608D01*
X210542686Y-77774500D01*
X210542683Y-77774502D01*
X210449502Y-77867683D01*
X210449500Y-77867686D01*
X210383608Y-77981812D01*
X210349500Y-78109108D01*
X209575500Y-78109108D01*
X209541392Y-77981814D01*
X209475500Y-77867686D01*
X209382314Y-77774500D01*
X209325250Y-77741554D01*
X209268187Y-77708608D01*
X209204539Y-77691554D01*
X209140892Y-77674500D01*
X209009108Y-77674500D01*
X208881812Y-77708608D01*
X208767686Y-77774500D01*
X208767683Y-77774502D01*
X208674502Y-77867683D01*
X208674500Y-77867686D01*
X208608608Y-77981812D01*
X208574500Y-78109108D01*
X184706320Y-78109108D01*
X184707905Y-77459108D01*
X197124500Y-77459108D01*
X197124500Y-77590891D01*
X197158608Y-77718187D01*
X197191121Y-77774500D01*
X197224500Y-77832314D01*
X197317686Y-77925500D01*
X197431814Y-77991392D01*
X197559108Y-78025500D01*
X197559110Y-78025500D01*
X197690890Y-78025500D01*
X197690892Y-78025500D01*
X197818186Y-77991392D01*
X197932314Y-77925500D01*
X198025500Y-77832314D01*
X198091392Y-77718186D01*
X198125500Y-77590892D01*
X198125500Y-77534108D01*
X201499500Y-77534108D01*
X201499500Y-77665892D01*
X201510946Y-77708608D01*
X201533608Y-77793187D01*
X201556200Y-77832316D01*
X201599500Y-77907314D01*
X201692686Y-78000500D01*
X201806814Y-78066392D01*
X201934108Y-78100500D01*
X201934110Y-78100500D01*
X202065890Y-78100500D01*
X202065892Y-78100500D01*
X202193186Y-78066392D01*
X202307314Y-78000500D01*
X202400500Y-77907314D01*
X202466392Y-77793186D01*
X202500500Y-77665892D01*
X202500500Y-77534108D01*
X202466392Y-77406814D01*
X202400500Y-77292686D01*
X202307314Y-77199500D01*
X202250250Y-77166554D01*
X202193187Y-77133608D01*
X202129539Y-77116554D01*
X202065892Y-77099500D01*
X201934108Y-77099500D01*
X201806812Y-77133608D01*
X201692686Y-77199500D01*
X201692683Y-77199502D01*
X201599502Y-77292683D01*
X201599500Y-77292686D01*
X201533608Y-77406812D01*
X201519596Y-77459108D01*
X201499500Y-77534108D01*
X198125500Y-77534108D01*
X198125500Y-77459108D01*
X198101911Y-77371075D01*
X198100862Y-77363785D01*
X198104820Y-77336206D01*
X198105484Y-77308354D01*
X198109717Y-77302099D01*
X198110790Y-77294625D01*
X198129028Y-77273566D01*
X198144646Y-77250491D01*
X198151588Y-77247518D01*
X198156532Y-77241810D01*
X198183263Y-77233954D01*
X198208875Y-77222987D01*
X198216321Y-77224239D01*
X198223567Y-77222110D01*
X198250299Y-77229952D01*
X198277777Y-77234573D01*
X198288383Y-77241125D01*
X198290611Y-77241779D01*
X198291959Y-77243334D01*
X198299086Y-77247737D01*
X198302680Y-77250494D01*
X198302686Y-77250500D01*
X198416814Y-77316392D01*
X198544108Y-77350500D01*
X198544110Y-77350500D01*
X198675890Y-77350500D01*
X198675892Y-77350500D01*
X198803186Y-77316392D01*
X198917314Y-77250500D01*
X199010500Y-77157314D01*
X199076392Y-77043186D01*
X199110500Y-76915892D01*
X199110500Y-76784108D01*
X199076392Y-76656814D01*
X199010500Y-76542686D01*
X198917314Y-76449500D01*
X198848032Y-76409500D01*
X198803187Y-76383608D01*
X198739539Y-76366554D01*
X198675892Y-76349500D01*
X198544108Y-76349500D01*
X198416812Y-76383608D01*
X198302686Y-76449500D01*
X198302683Y-76449502D01*
X198209502Y-76542683D01*
X198209500Y-76542686D01*
X198143608Y-76656812D01*
X198109500Y-76784108D01*
X198109500Y-76915891D01*
X198131178Y-76996796D01*
X198129515Y-77066646D01*
X198090352Y-77124508D01*
X198026123Y-77152012D01*
X197957221Y-77140425D01*
X197935914Y-77127263D01*
X197932314Y-77124500D01*
X197818187Y-77058608D01*
X197754539Y-77041554D01*
X197690892Y-77024500D01*
X197559108Y-77024500D01*
X197431812Y-77058608D01*
X197317686Y-77124500D01*
X197317683Y-77124502D01*
X197224502Y-77217683D01*
X197224500Y-77217686D01*
X197158608Y-77331812D01*
X197124500Y-77459108D01*
X184707905Y-77459108D01*
X184710722Y-76304108D01*
X189449500Y-76304108D01*
X189449500Y-76435892D01*
X189464717Y-76492683D01*
X189483608Y-76563187D01*
X189508797Y-76606814D01*
X189549500Y-76677314D01*
X189642686Y-76770500D01*
X189756814Y-76836392D01*
X189884108Y-76870500D01*
X189884110Y-76870500D01*
X190015890Y-76870500D01*
X190015892Y-76870500D01*
X190143186Y-76836392D01*
X190257314Y-76770500D01*
X190293706Y-76734108D01*
X192369500Y-76734108D01*
X192369500Y-76865892D01*
X192370735Y-76870500D01*
X192403608Y-76993187D01*
X192405692Y-76996796D01*
X192469500Y-77107314D01*
X192562686Y-77200500D01*
X192661521Y-77257563D01*
X192676810Y-77266390D01*
X192676814Y-77266392D01*
X192804108Y-77300500D01*
X192804110Y-77300500D01*
X192935890Y-77300500D01*
X192935892Y-77300500D01*
X193063186Y-77266392D01*
X193124341Y-77231084D01*
X193192237Y-77214611D01*
X193248336Y-77231083D01*
X193326814Y-77276392D01*
X193454108Y-77310500D01*
X193454110Y-77310500D01*
X193585890Y-77310500D01*
X193585892Y-77310500D01*
X193713186Y-77276392D01*
X193786659Y-77233971D01*
X193854559Y-77217498D01*
X193910661Y-77233972D01*
X193966808Y-77266389D01*
X193966809Y-77266389D01*
X193966814Y-77266392D01*
X194094108Y-77300500D01*
X194094110Y-77300500D01*
X194225890Y-77300500D01*
X194225892Y-77300500D01*
X194353186Y-77266392D01*
X194467314Y-77200500D01*
X194560500Y-77107314D01*
X194626392Y-76993186D01*
X194660500Y-76865892D01*
X194660500Y-76734108D01*
X194626392Y-76606814D01*
X194626148Y-76606392D01*
X194593877Y-76550497D01*
X194560500Y-76492686D01*
X194467314Y-76399500D01*
X194380712Y-76349500D01*
X194353187Y-76333608D01*
X194289539Y-76316554D01*
X194225892Y-76299500D01*
X194094108Y-76299500D01*
X193966814Y-76333608D01*
X193966813Y-76333608D01*
X193966811Y-76333609D01*
X193966810Y-76333609D01*
X193893339Y-76376028D01*
X193825439Y-76392501D01*
X193769339Y-76376028D01*
X193742077Y-76360288D01*
X193713187Y-76343608D01*
X193649539Y-76326554D01*
X193585892Y-76309500D01*
X193454108Y-76309500D01*
X193326814Y-76343608D01*
X193326813Y-76343608D01*
X193326811Y-76343609D01*
X193326810Y-76343609D01*
X193265660Y-76378915D01*
X193197760Y-76395388D01*
X193141660Y-76378915D01*
X193090712Y-76349500D01*
X193063187Y-76333608D01*
X192999539Y-76316554D01*
X192935892Y-76299500D01*
X192804108Y-76299500D01*
X192676812Y-76333608D01*
X192562686Y-76399500D01*
X192562683Y-76399502D01*
X192469502Y-76492683D01*
X192469500Y-76492686D01*
X192403608Y-76606812D01*
X192384718Y-76677313D01*
X192369500Y-76734108D01*
X190293706Y-76734108D01*
X190350500Y-76677314D01*
X190416392Y-76563186D01*
X190450500Y-76435892D01*
X190450500Y-76304108D01*
X190416392Y-76176814D01*
X190362868Y-76084108D01*
X206024500Y-76084108D01*
X206024500Y-76215891D01*
X206058608Y-76343187D01*
X206058852Y-76343609D01*
X206124500Y-76457314D01*
X206217686Y-76550500D01*
X206331814Y-76616392D01*
X206459108Y-76650500D01*
X206459110Y-76650500D01*
X206590890Y-76650500D01*
X206590892Y-76650500D01*
X206718186Y-76616392D01*
X206832314Y-76550500D01*
X206925500Y-76457314D01*
X206991392Y-76343186D01*
X207025500Y-76215892D01*
X207025500Y-76084108D01*
X207022821Y-76074108D01*
X212939500Y-76074108D01*
X212939500Y-76205892D01*
X212956554Y-76269539D01*
X212973608Y-76333187D01*
X212983027Y-76349500D01*
X213039500Y-76447314D01*
X213132686Y-76540500D01*
X213246814Y-76606392D01*
X213374108Y-76640500D01*
X213374110Y-76640500D01*
X213505890Y-76640500D01*
X213505892Y-76640500D01*
X213633186Y-76606392D01*
X213747314Y-76540500D01*
X213840500Y-76447314D01*
X213906392Y-76333186D01*
X213940500Y-76205892D01*
X213940500Y-76074108D01*
X213906392Y-75946814D01*
X213840500Y-75832686D01*
X213747314Y-75739500D01*
X213690250Y-75706554D01*
X213633187Y-75673608D01*
X213569539Y-75656554D01*
X213505892Y-75639500D01*
X213374108Y-75639500D01*
X213246812Y-75673608D01*
X213132686Y-75739500D01*
X213132683Y-75739502D01*
X213039502Y-75832683D01*
X213039500Y-75832686D01*
X212973608Y-75946812D01*
X212942561Y-76062683D01*
X212939500Y-76074108D01*
X207022821Y-76074108D01*
X206991392Y-75956814D01*
X206985618Y-75946814D01*
X206960673Y-75903608D01*
X206925500Y-75842686D01*
X206832314Y-75749500D01*
X206775250Y-75716554D01*
X206718187Y-75683608D01*
X206654539Y-75666554D01*
X206590892Y-75649500D01*
X206459108Y-75649500D01*
X206331812Y-75683608D01*
X206217686Y-75749500D01*
X206217683Y-75749502D01*
X206124502Y-75842683D01*
X206124500Y-75842686D01*
X206058608Y-75956812D01*
X206024500Y-76084108D01*
X190362868Y-76084108D01*
X190350500Y-76062686D01*
X190257314Y-75969500D01*
X190200250Y-75936554D01*
X190143187Y-75903608D01*
X190079539Y-75886554D01*
X190015892Y-75869500D01*
X189884108Y-75869500D01*
X189756812Y-75903608D01*
X189642686Y-75969500D01*
X189642683Y-75969502D01*
X189549502Y-76062683D01*
X189549500Y-76062686D01*
X189483608Y-76176812D01*
X189473137Y-76215891D01*
X189449500Y-76304108D01*
X184710722Y-76304108D01*
X184717503Y-73524108D01*
X197739500Y-73524108D01*
X197739500Y-73655891D01*
X197773608Y-73783187D01*
X197806554Y-73840250D01*
X197839500Y-73897314D01*
X197932686Y-73990500D01*
X198046814Y-74056392D01*
X198174108Y-74090500D01*
X198174110Y-74090500D01*
X198305890Y-74090500D01*
X198305892Y-74090500D01*
X198433186Y-74056392D01*
X198547314Y-73990500D01*
X198640500Y-73897314D01*
X198706392Y-73783186D01*
X198740500Y-73655892D01*
X198740500Y-73524108D01*
X198706392Y-73396814D01*
X198640500Y-73282686D01*
X198547314Y-73189500D01*
X198490250Y-73156554D01*
X198433187Y-73123608D01*
X198369539Y-73106554D01*
X198305892Y-73089500D01*
X198174108Y-73089500D01*
X198046812Y-73123608D01*
X197932686Y-73189500D01*
X197932683Y-73189502D01*
X197839502Y-73282683D01*
X197839500Y-73282686D01*
X197773608Y-73396812D01*
X197739500Y-73524108D01*
X184717503Y-73524108D01*
X184718319Y-73189502D01*
X184722258Y-71574108D01*
X187799500Y-71574108D01*
X187799500Y-71705891D01*
X187833608Y-71833187D01*
X187838057Y-71840892D01*
X187899500Y-71947314D01*
X187992686Y-72040500D01*
X188106814Y-72106392D01*
X188234108Y-72140500D01*
X188234110Y-72140500D01*
X188365890Y-72140500D01*
X188365892Y-72140500D01*
X188493186Y-72106392D01*
X188607314Y-72040500D01*
X188700500Y-71947314D01*
X188766392Y-71833186D01*
X188800500Y-71705892D01*
X188800500Y-71574108D01*
X188766392Y-71446814D01*
X188700500Y-71332686D01*
X188607314Y-71239500D01*
X188550250Y-71206554D01*
X188493187Y-71173608D01*
X188389747Y-71145892D01*
X188365892Y-71139500D01*
X188234108Y-71139500D01*
X188106812Y-71173608D01*
X187992686Y-71239500D01*
X187992683Y-71239502D01*
X187899502Y-71332683D01*
X187899500Y-71332686D01*
X187833608Y-71446812D01*
X187799500Y-71574108D01*
X184722258Y-71574108D01*
X184722279Y-71565679D01*
X184723624Y-71014108D01*
X189539500Y-71014108D01*
X189539500Y-71145892D01*
X189556554Y-71209539D01*
X189573608Y-71273187D01*
X189594059Y-71308608D01*
X189639500Y-71387314D01*
X189732686Y-71480500D01*
X189846814Y-71546392D01*
X189974108Y-71580500D01*
X189974110Y-71580500D01*
X190105890Y-71580500D01*
X190105892Y-71580500D01*
X190233186Y-71546392D01*
X190347314Y-71480500D01*
X190440500Y-71387314D01*
X190506392Y-71273186D01*
X190540500Y-71145892D01*
X190540500Y-71014108D01*
X190506392Y-70886814D01*
X190440500Y-70772686D01*
X190347314Y-70679500D01*
X190289100Y-70645890D01*
X190233187Y-70613608D01*
X190169539Y-70596554D01*
X190105892Y-70579500D01*
X189974108Y-70579500D01*
X189846812Y-70613608D01*
X189732686Y-70679500D01*
X189732683Y-70679502D01*
X189639502Y-70772683D01*
X189639500Y-70772686D01*
X189573608Y-70886812D01*
X189539500Y-71014108D01*
X184723624Y-71014108D01*
X184723645Y-71005679D01*
X184724773Y-70543187D01*
X184724875Y-70501183D01*
X184744723Y-70434192D01*
X184761189Y-70413810D01*
X184938681Y-70236319D01*
X185000004Y-70202834D01*
X185026362Y-70200000D01*
X192245500Y-70200000D01*
X192312539Y-70219685D01*
X192358294Y-70272489D01*
X192368165Y-70317867D01*
X192368439Y-70317832D01*
X192368869Y-70321102D01*
X192369500Y-70324000D01*
X192369500Y-70325892D01*
X192372740Y-70337983D01*
X192403608Y-70453187D01*
X192431319Y-70501183D01*
X192469500Y-70567314D01*
X192562686Y-70660500D01*
X192661521Y-70717563D01*
X192676810Y-70726390D01*
X192676814Y-70726392D01*
X192804108Y-70760500D01*
X192804110Y-70760500D01*
X192935890Y-70760500D01*
X192935892Y-70760500D01*
X193063186Y-70726392D01*
X193124341Y-70691084D01*
X193192237Y-70674611D01*
X193248336Y-70691083D01*
X193326814Y-70736392D01*
X193454108Y-70770500D01*
X193454110Y-70770500D01*
X193585890Y-70770500D01*
X193585892Y-70770500D01*
X193713186Y-70736392D01*
X193786659Y-70693971D01*
X193854559Y-70677498D01*
X193910661Y-70693972D01*
X193966808Y-70726389D01*
X193966809Y-70726389D01*
X193966814Y-70726392D01*
X194094108Y-70760500D01*
X194094110Y-70760500D01*
X194225890Y-70760500D01*
X194225892Y-70760500D01*
X194353186Y-70726392D01*
X194467314Y-70660500D01*
X194560500Y-70567314D01*
X194591219Y-70514108D01*
X199729500Y-70514108D01*
X199729500Y-70645892D01*
X199733414Y-70660499D01*
X199763608Y-70773187D01*
X199788552Y-70816391D01*
X199829500Y-70887314D01*
X199922686Y-70980500D01*
X200036814Y-71046392D01*
X200164108Y-71080500D01*
X200164110Y-71080500D01*
X200295890Y-71080500D01*
X200295892Y-71080500D01*
X200423186Y-71046392D01*
X200537314Y-70980500D01*
X200630500Y-70887314D01*
X200696392Y-70773186D01*
X200730500Y-70645892D01*
X200730500Y-70514108D01*
X200696392Y-70386814D01*
X200696390Y-70386810D01*
X200668200Y-70337983D01*
X200668199Y-70337982D01*
X200642668Y-70293762D01*
X200637094Y-70284108D01*
X207069500Y-70284108D01*
X207069500Y-70415892D01*
X207079493Y-70453186D01*
X207103608Y-70543187D01*
X207117538Y-70567314D01*
X207169500Y-70657314D01*
X207262686Y-70750500D01*
X207376814Y-70816392D01*
X207504108Y-70850500D01*
X207504110Y-70850500D01*
X207635890Y-70850500D01*
X207635892Y-70850500D01*
X207763186Y-70816392D01*
X207877314Y-70750500D01*
X207970500Y-70657314D01*
X208036392Y-70543186D01*
X208070500Y-70415892D01*
X208070500Y-70284108D01*
X208036392Y-70156814D01*
X207970500Y-70042686D01*
X207877314Y-69949500D01*
X207820250Y-69916554D01*
X207763187Y-69883608D01*
X207699539Y-69866554D01*
X207635892Y-69849500D01*
X207504108Y-69849500D01*
X207376812Y-69883608D01*
X207262686Y-69949500D01*
X207262683Y-69949502D01*
X207169502Y-70042683D01*
X207169500Y-70042686D01*
X207103608Y-70156812D01*
X207076774Y-70256961D01*
X207069500Y-70284108D01*
X200637094Y-70284108D01*
X200630500Y-70272686D01*
X200537314Y-70179500D01*
X200480250Y-70146554D01*
X200423187Y-70113608D01*
X200359539Y-70096554D01*
X200295892Y-70079500D01*
X200164108Y-70079500D01*
X200036812Y-70113608D01*
X199922686Y-70179500D01*
X199922683Y-70179502D01*
X199829502Y-70272683D01*
X199829500Y-70272686D01*
X199763608Y-70386812D01*
X199743986Y-70460046D01*
X199729500Y-70514108D01*
X194591219Y-70514108D01*
X194626392Y-70453186D01*
X194660500Y-70325892D01*
X194660500Y-70308647D01*
X194664243Y-70293762D01*
X194674492Y-70276345D01*
X194680185Y-70256961D01*
X194691850Y-70246852D01*
X194699682Y-70233546D01*
X194717720Y-70224435D01*
X194732989Y-70211206D01*
X194752187Y-70207029D01*
X194762049Y-70202049D01*
X194770868Y-70202965D01*
X194784500Y-70200000D01*
X199224998Y-70200000D01*
X199225000Y-70200000D01*
X199625000Y-69850000D01*
X199625000Y-68214108D01*
X205809500Y-68214108D01*
X205809500Y-68345891D01*
X205843608Y-68473187D01*
X205876554Y-68530250D01*
X205909500Y-68587314D01*
X206002686Y-68680500D01*
X206116814Y-68746392D01*
X206244108Y-68780500D01*
X206244110Y-68780500D01*
X206375890Y-68780500D01*
X206375892Y-68780500D01*
X206503186Y-68746392D01*
X206617314Y-68680500D01*
X206710500Y-68587314D01*
X206776392Y-68473186D01*
X206810500Y-68345892D01*
X206810500Y-68214108D01*
X206776392Y-68086814D01*
X206770618Y-68076814D01*
X206745839Y-68033895D01*
X206710500Y-67972686D01*
X206617314Y-67879500D01*
X206560250Y-67846554D01*
X206503187Y-67813608D01*
X206439539Y-67796554D01*
X206375892Y-67779500D01*
X206244108Y-67779500D01*
X206116812Y-67813608D01*
X206002686Y-67879500D01*
X206002683Y-67879502D01*
X205909502Y-67972683D01*
X205909500Y-67972686D01*
X205843608Y-68086812D01*
X205809500Y-68214108D01*
X199625000Y-68214108D01*
X199625000Y-65284108D01*
X201449500Y-65284108D01*
X201449500Y-65415892D01*
X201458773Y-65450500D01*
X201483608Y-65543187D01*
X201497006Y-65566392D01*
X201549500Y-65657314D01*
X201642686Y-65750500D01*
X201756814Y-65816392D01*
X201884108Y-65850500D01*
X201884110Y-65850500D01*
X202015890Y-65850500D01*
X202015892Y-65850500D01*
X202143186Y-65816392D01*
X202257314Y-65750500D01*
X202350500Y-65657314D01*
X202416392Y-65543186D01*
X202450500Y-65415892D01*
X202450500Y-65284108D01*
X202416392Y-65156814D01*
X202350500Y-65042686D01*
X202257314Y-64949500D01*
X202172444Y-64900500D01*
X202143187Y-64883608D01*
X202078934Y-64866392D01*
X202015892Y-64849500D01*
X201884108Y-64849500D01*
X201756812Y-64883608D01*
X201642686Y-64949500D01*
X201642683Y-64949502D01*
X201549502Y-65042683D01*
X201549500Y-65042686D01*
X201483608Y-65156812D01*
X201456679Y-65257314D01*
X201449500Y-65284108D01*
X199625000Y-65284108D01*
X199625000Y-64262000D01*
X199644685Y-64194961D01*
X199674600Y-64162800D01*
X199992129Y-63924652D01*
X200057568Y-63900178D01*
X200066068Y-63899855D01*
X201759216Y-63893912D01*
X201821652Y-63910525D01*
X201831811Y-63916391D01*
X201831813Y-63916391D01*
X201831814Y-63916392D01*
X201959108Y-63950500D01*
X201959110Y-63950500D01*
X202090890Y-63950500D01*
X202090892Y-63950500D01*
X202218186Y-63916392D01*
X202231592Y-63908651D01*
X202293159Y-63892038D01*
X214002675Y-63850935D01*
X214069783Y-63870384D01*
G37*
%TD.AperFunction*%
%TD*%
%TA.AperFunction,Conductor*%
%TO.N,+3V3*%
G36*
X182590891Y-94325022D02*
G01*
X182590891Y-94325023D01*
X182599849Y-97742541D01*
X182580340Y-97809632D01*
X182556259Y-97837260D01*
X182094755Y-98230394D01*
X182030957Y-98258882D01*
X182014345Y-98260000D01*
X181014619Y-98260000D01*
X180982647Y-98250612D01*
X180950418Y-98242086D01*
X180948637Y-98240625D01*
X180947580Y-98240315D01*
X180923133Y-98219704D01*
X180843129Y-98132257D01*
X180812401Y-98069509D01*
X180820475Y-98000108D01*
X180846932Y-97960881D01*
X180900500Y-97907314D01*
X180966392Y-97793186D01*
X181000500Y-97665892D01*
X181000500Y-97534108D01*
X180966392Y-97406814D01*
X180900500Y-97292686D01*
X180807314Y-97199500D01*
X180750250Y-97166554D01*
X180693187Y-97133608D01*
X180667707Y-97126781D01*
X180626490Y-97115737D01*
X180566831Y-97079373D01*
X180536302Y-97016526D01*
X180534587Y-96995247D01*
X180550000Y-94325000D01*
X180349031Y-94164225D01*
X182807295Y-94140124D01*
X182590891Y-94325022D01*
G37*
%TD.AperFunction*%
%TD*%
M02*
