%TF.GenerationSoftware,KiCad,Pcbnew,9.0.6*%
%TF.CreationDate,2026-01-07T02:43:41-03:00*%
%TF.ProjectId,flight_comp_srad-2026,666c6967-6874-45f6-936f-6d705f737261,rev?*%
%TF.SameCoordinates,Original*%
%TF.FileFunction,Legend,Top*%
%TF.FilePolarity,Positive*%
%FSLAX46Y46*%
G04 Gerber Fmt 4.6, Leading zero omitted, Abs format (unit mm)*
G04 Created by KiCad (PCBNEW 9.0.6) date 2026-01-07 02:43:41*
%MOMM*%
%LPD*%
G01*
G04 APERTURE LIST*
%ADD10C,0.254000*%
%ADD11C,0.150000*%
%ADD12C,0.125000*%
%ADD13C,0.120000*%
%ADD14C,0.200000*%
%ADD15C,0.000000*%
%ADD16C,0.127000*%
G04 APERTURE END LIST*
D10*
X216057380Y-70838842D02*
X216238809Y-70899318D01*
X216238809Y-70899318D02*
X216541190Y-70899318D01*
X216541190Y-70899318D02*
X216662142Y-70838842D01*
X216662142Y-70838842D02*
X216722618Y-70778365D01*
X216722618Y-70778365D02*
X216783095Y-70657413D01*
X216783095Y-70657413D02*
X216783095Y-70536461D01*
X216783095Y-70536461D02*
X216722618Y-70415508D01*
X216722618Y-70415508D02*
X216662142Y-70355032D01*
X216662142Y-70355032D02*
X216541190Y-70294556D01*
X216541190Y-70294556D02*
X216299285Y-70234080D01*
X216299285Y-70234080D02*
X216178333Y-70173603D01*
X216178333Y-70173603D02*
X216117856Y-70113127D01*
X216117856Y-70113127D02*
X216057380Y-69992175D01*
X216057380Y-69992175D02*
X216057380Y-69871222D01*
X216057380Y-69871222D02*
X216117856Y-69750270D01*
X216117856Y-69750270D02*
X216178333Y-69689794D01*
X216178333Y-69689794D02*
X216299285Y-69629318D01*
X216299285Y-69629318D02*
X216601666Y-69629318D01*
X216601666Y-69629318D02*
X216783095Y-69689794D01*
X217992619Y-70899318D02*
X217266904Y-70899318D01*
X217629761Y-70899318D02*
X217629761Y-69629318D01*
X217629761Y-69629318D02*
X217508809Y-69810746D01*
X217508809Y-69810746D02*
X217387857Y-69931699D01*
X217387857Y-69931699D02*
X217266904Y-69992175D01*
D11*
X189144819Y-99033333D02*
X189859104Y-99033333D01*
X189859104Y-99033333D02*
X190001961Y-99080952D01*
X190001961Y-99080952D02*
X190097200Y-99176190D01*
X190097200Y-99176190D02*
X190144819Y-99319047D01*
X190144819Y-99319047D02*
X190144819Y-99414285D01*
X189240057Y-98604761D02*
X189192438Y-98557142D01*
X189192438Y-98557142D02*
X189144819Y-98461904D01*
X189144819Y-98461904D02*
X189144819Y-98223809D01*
X189144819Y-98223809D02*
X189192438Y-98128571D01*
X189192438Y-98128571D02*
X189240057Y-98080952D01*
X189240057Y-98080952D02*
X189335295Y-98033333D01*
X189335295Y-98033333D02*
X189430533Y-98033333D01*
X189430533Y-98033333D02*
X189573390Y-98080952D01*
X189573390Y-98080952D02*
X190144819Y-98652380D01*
X190144819Y-98652380D02*
X190144819Y-98033333D01*
X162238095Y-82404819D02*
X162238095Y-81404819D01*
X162238095Y-81881009D02*
X162809523Y-81881009D01*
X162809523Y-82404819D02*
X162809523Y-81404819D01*
X163238095Y-81500057D02*
X163285714Y-81452438D01*
X163285714Y-81452438D02*
X163380952Y-81404819D01*
X163380952Y-81404819D02*
X163619047Y-81404819D01*
X163619047Y-81404819D02*
X163714285Y-81452438D01*
X163714285Y-81452438D02*
X163761904Y-81500057D01*
X163761904Y-81500057D02*
X163809523Y-81595295D01*
X163809523Y-81595295D02*
X163809523Y-81690533D01*
X163809523Y-81690533D02*
X163761904Y-81833390D01*
X163761904Y-81833390D02*
X163190476Y-82404819D01*
X163190476Y-82404819D02*
X163809523Y-82404819D01*
X153128095Y-60234819D02*
X153128095Y-59234819D01*
X153128095Y-59711009D02*
X153699523Y-59711009D01*
X153699523Y-60234819D02*
X153699523Y-59234819D01*
X154699523Y-60234819D02*
X154128095Y-60234819D01*
X154413809Y-60234819D02*
X154413809Y-59234819D01*
X154413809Y-59234819D02*
X154318571Y-59377676D01*
X154318571Y-59377676D02*
X154223333Y-59472914D01*
X154223333Y-59472914D02*
X154128095Y-59520533D01*
X217488095Y-94754819D02*
X217488095Y-93754819D01*
X217488095Y-94231009D02*
X218059523Y-94231009D01*
X218059523Y-94754819D02*
X218059523Y-93754819D01*
X218964285Y-94088152D02*
X218964285Y-94754819D01*
X218726190Y-93707200D02*
X218488095Y-94421485D01*
X218488095Y-94421485D02*
X219107142Y-94421485D01*
X194709819Y-79024404D02*
X195519342Y-79024404D01*
X195519342Y-79024404D02*
X195614580Y-78976785D01*
X195614580Y-78976785D02*
X195662200Y-78929166D01*
X195662200Y-78929166D02*
X195709819Y-78833928D01*
X195709819Y-78833928D02*
X195709819Y-78643452D01*
X195709819Y-78643452D02*
X195662200Y-78548214D01*
X195662200Y-78548214D02*
X195614580Y-78500595D01*
X195614580Y-78500595D02*
X195519342Y-78452976D01*
X195519342Y-78452976D02*
X194709819Y-78452976D01*
X194709819Y-78072023D02*
X194709819Y-77452976D01*
X194709819Y-77452976D02*
X195090771Y-77786309D01*
X195090771Y-77786309D02*
X195090771Y-77643452D01*
X195090771Y-77643452D02*
X195138390Y-77548214D01*
X195138390Y-77548214D02*
X195186009Y-77500595D01*
X195186009Y-77500595D02*
X195281247Y-77452976D01*
X195281247Y-77452976D02*
X195519342Y-77452976D01*
X195519342Y-77452976D02*
X195614580Y-77500595D01*
X195614580Y-77500595D02*
X195662200Y-77548214D01*
X195662200Y-77548214D02*
X195709819Y-77643452D01*
X195709819Y-77643452D02*
X195709819Y-77929166D01*
X195709819Y-77929166D02*
X195662200Y-78024404D01*
X195662200Y-78024404D02*
X195614580Y-78072023D01*
X176154819Y-75049404D02*
X176964342Y-75049404D01*
X176964342Y-75049404D02*
X177059580Y-75001785D01*
X177059580Y-75001785D02*
X177107200Y-74954166D01*
X177107200Y-74954166D02*
X177154819Y-74858928D01*
X177154819Y-74858928D02*
X177154819Y-74668452D01*
X177154819Y-74668452D02*
X177107200Y-74573214D01*
X177107200Y-74573214D02*
X177059580Y-74525595D01*
X177059580Y-74525595D02*
X176964342Y-74477976D01*
X176964342Y-74477976D02*
X176154819Y-74477976D01*
X176154819Y-73525595D02*
X176154819Y-74001785D01*
X176154819Y-74001785D02*
X176631009Y-74049404D01*
X176631009Y-74049404D02*
X176583390Y-74001785D01*
X176583390Y-74001785D02*
X176535771Y-73906547D01*
X176535771Y-73906547D02*
X176535771Y-73668452D01*
X176535771Y-73668452D02*
X176583390Y-73573214D01*
X176583390Y-73573214D02*
X176631009Y-73525595D01*
X176631009Y-73525595D02*
X176726247Y-73477976D01*
X176726247Y-73477976D02*
X176964342Y-73477976D01*
X176964342Y-73477976D02*
X177059580Y-73525595D01*
X177059580Y-73525595D02*
X177107200Y-73573214D01*
X177107200Y-73573214D02*
X177154819Y-73668452D01*
X177154819Y-73668452D02*
X177154819Y-73906547D01*
X177154819Y-73906547D02*
X177107200Y-74001785D01*
X177107200Y-74001785D02*
X177059580Y-74049404D01*
D12*
X199830952Y-94612309D02*
X199830952Y-94112309D01*
X199830952Y-94112309D02*
X199950000Y-94112309D01*
X199950000Y-94112309D02*
X200021428Y-94136119D01*
X200021428Y-94136119D02*
X200069047Y-94183738D01*
X200069047Y-94183738D02*
X200092857Y-94231357D01*
X200092857Y-94231357D02*
X200116666Y-94326595D01*
X200116666Y-94326595D02*
X200116666Y-94398023D01*
X200116666Y-94398023D02*
X200092857Y-94493261D01*
X200092857Y-94493261D02*
X200069047Y-94540880D01*
X200069047Y-94540880D02*
X200021428Y-94588500D01*
X200021428Y-94588500D02*
X199950000Y-94612309D01*
X199950000Y-94612309D02*
X199830952Y-94612309D01*
X200592857Y-94612309D02*
X200307143Y-94612309D01*
X200450000Y-94612309D02*
X200450000Y-94112309D01*
X200450000Y-94112309D02*
X200402381Y-94183738D01*
X200402381Y-94183738D02*
X200354762Y-94231357D01*
X200354762Y-94231357D02*
X200307143Y-94255166D01*
D11*
X191971514Y-88239953D02*
X192346467Y-88239953D01*
X191559065Y-88502420D02*
X191971514Y-88239953D01*
X191971514Y-88239953D02*
X191559065Y-87977485D01*
X192346467Y-87302569D02*
X192346467Y-87752513D01*
X192346467Y-87527541D02*
X191559065Y-87527541D01*
X191559065Y-87527541D02*
X191671551Y-87602532D01*
X191671551Y-87602532D02*
X191746542Y-87677523D01*
X191746542Y-87677523D02*
X191784037Y-87752513D01*
D12*
X201830952Y-94612309D02*
X201830952Y-94112309D01*
X201830952Y-94112309D02*
X201950000Y-94112309D01*
X201950000Y-94112309D02*
X202021428Y-94136119D01*
X202021428Y-94136119D02*
X202069047Y-94183738D01*
X202069047Y-94183738D02*
X202092857Y-94231357D01*
X202092857Y-94231357D02*
X202116666Y-94326595D01*
X202116666Y-94326595D02*
X202116666Y-94398023D01*
X202116666Y-94398023D02*
X202092857Y-94493261D01*
X202092857Y-94493261D02*
X202069047Y-94540880D01*
X202069047Y-94540880D02*
X202021428Y-94588500D01*
X202021428Y-94588500D02*
X201950000Y-94612309D01*
X201950000Y-94612309D02*
X201830952Y-94612309D01*
X202307143Y-94159928D02*
X202330952Y-94136119D01*
X202330952Y-94136119D02*
X202378571Y-94112309D01*
X202378571Y-94112309D02*
X202497619Y-94112309D01*
X202497619Y-94112309D02*
X202545238Y-94136119D01*
X202545238Y-94136119D02*
X202569047Y-94159928D01*
X202569047Y-94159928D02*
X202592857Y-94207547D01*
X202592857Y-94207547D02*
X202592857Y-94255166D01*
X202592857Y-94255166D02*
X202569047Y-94326595D01*
X202569047Y-94326595D02*
X202283333Y-94612309D01*
X202283333Y-94612309D02*
X202592857Y-94612309D01*
D11*
X213274819Y-82853333D02*
X213989104Y-82853333D01*
X213989104Y-82853333D02*
X214131961Y-82900952D01*
X214131961Y-82900952D02*
X214227200Y-82996190D01*
X214227200Y-82996190D02*
X214274819Y-83139047D01*
X214274819Y-83139047D02*
X214274819Y-83234285D01*
X213274819Y-82472380D02*
X213274819Y-81853333D01*
X213274819Y-81853333D02*
X213655771Y-82186666D01*
X213655771Y-82186666D02*
X213655771Y-82043809D01*
X213655771Y-82043809D02*
X213703390Y-81948571D01*
X213703390Y-81948571D02*
X213751009Y-81900952D01*
X213751009Y-81900952D02*
X213846247Y-81853333D01*
X213846247Y-81853333D02*
X214084342Y-81853333D01*
X214084342Y-81853333D02*
X214179580Y-81900952D01*
X214179580Y-81900952D02*
X214227200Y-81948571D01*
X214227200Y-81948571D02*
X214274819Y-82043809D01*
X214274819Y-82043809D02*
X214274819Y-82329523D01*
X214274819Y-82329523D02*
X214227200Y-82424761D01*
X214227200Y-82424761D02*
X214179580Y-82472380D01*
X220774819Y-76803333D02*
X221489104Y-76803333D01*
X221489104Y-76803333D02*
X221631961Y-76850952D01*
X221631961Y-76850952D02*
X221727200Y-76946190D01*
X221727200Y-76946190D02*
X221774819Y-77089047D01*
X221774819Y-77089047D02*
X221774819Y-77184285D01*
X220774819Y-75850952D02*
X220774819Y-76327142D01*
X220774819Y-76327142D02*
X221251009Y-76374761D01*
X221251009Y-76374761D02*
X221203390Y-76327142D01*
X221203390Y-76327142D02*
X221155771Y-76231904D01*
X221155771Y-76231904D02*
X221155771Y-75993809D01*
X221155771Y-75993809D02*
X221203390Y-75898571D01*
X221203390Y-75898571D02*
X221251009Y-75850952D01*
X221251009Y-75850952D02*
X221346247Y-75803333D01*
X221346247Y-75803333D02*
X221584342Y-75803333D01*
X221584342Y-75803333D02*
X221679580Y-75850952D01*
X221679580Y-75850952D02*
X221727200Y-75898571D01*
X221727200Y-75898571D02*
X221774819Y-75993809D01*
X221774819Y-75993809D02*
X221774819Y-76231904D01*
X221774819Y-76231904D02*
X221727200Y-76327142D01*
X221727200Y-76327142D02*
X221679580Y-76374761D01*
X171793107Y-99818616D02*
X172603854Y-99818616D01*
X172603854Y-99818616D02*
X172699236Y-99770925D01*
X172699236Y-99770925D02*
X172746928Y-99723234D01*
X172746928Y-99723234D02*
X172794619Y-99627852D01*
X172794619Y-99627852D02*
X172794619Y-99437088D01*
X172794619Y-99437088D02*
X172746928Y-99341706D01*
X172746928Y-99341706D02*
X172699236Y-99294015D01*
X172699236Y-99294015D02*
X172603854Y-99246324D01*
X172603854Y-99246324D02*
X171793107Y-99246324D01*
X171793107Y-98864795D02*
X171793107Y-98197121D01*
X171793107Y-98197121D02*
X172794619Y-98626340D01*
D13*
X184773874Y-62536000D02*
X184773874Y-62307429D01*
X184911017Y-62581714D02*
X184431017Y-62421714D01*
X184431017Y-62421714D02*
X184911017Y-62261714D01*
X184659588Y-62101714D02*
X184659588Y-61941714D01*
X184911017Y-61873142D02*
X184911017Y-62101714D01*
X184911017Y-62101714D02*
X184431017Y-62101714D01*
X184431017Y-62101714D02*
X184431017Y-61873142D01*
X184911017Y-61415999D02*
X184911017Y-61690285D01*
X184911017Y-61553142D02*
X184431017Y-61553142D01*
X184431017Y-61553142D02*
X184499588Y-61598856D01*
X184499588Y-61598856D02*
X184545302Y-61644571D01*
X184545302Y-61644571D02*
X184568160Y-61690285D01*
D11*
X212604819Y-75574404D02*
X213414342Y-75574404D01*
X213414342Y-75574404D02*
X213509580Y-75526785D01*
X213509580Y-75526785D02*
X213557200Y-75479166D01*
X213557200Y-75479166D02*
X213604819Y-75383928D01*
X213604819Y-75383928D02*
X213604819Y-75193452D01*
X213604819Y-75193452D02*
X213557200Y-75098214D01*
X213557200Y-75098214D02*
X213509580Y-75050595D01*
X213509580Y-75050595D02*
X213414342Y-75002976D01*
X213414342Y-75002976D02*
X212604819Y-75002976D01*
X212604819Y-74098214D02*
X212604819Y-74288690D01*
X212604819Y-74288690D02*
X212652438Y-74383928D01*
X212652438Y-74383928D02*
X212700057Y-74431547D01*
X212700057Y-74431547D02*
X212842914Y-74526785D01*
X212842914Y-74526785D02*
X213033390Y-74574404D01*
X213033390Y-74574404D02*
X213414342Y-74574404D01*
X213414342Y-74574404D02*
X213509580Y-74526785D01*
X213509580Y-74526785D02*
X213557200Y-74479166D01*
X213557200Y-74479166D02*
X213604819Y-74383928D01*
X213604819Y-74383928D02*
X213604819Y-74193452D01*
X213604819Y-74193452D02*
X213557200Y-74098214D01*
X213557200Y-74098214D02*
X213509580Y-74050595D01*
X213509580Y-74050595D02*
X213414342Y-74002976D01*
X213414342Y-74002976D02*
X213176247Y-74002976D01*
X213176247Y-74002976D02*
X213081009Y-74050595D01*
X213081009Y-74050595D02*
X213033390Y-74098214D01*
X213033390Y-74098214D02*
X212985771Y-74193452D01*
X212985771Y-74193452D02*
X212985771Y-74383928D01*
X212985771Y-74383928D02*
X213033390Y-74479166D01*
X213033390Y-74479166D02*
X213081009Y-74526785D01*
X213081009Y-74526785D02*
X213176247Y-74574404D01*
D10*
X192257380Y-93538842D02*
X192438809Y-93599318D01*
X192438809Y-93599318D02*
X192741190Y-93599318D01*
X192741190Y-93599318D02*
X192862142Y-93538842D01*
X192862142Y-93538842D02*
X192922618Y-93478365D01*
X192922618Y-93478365D02*
X192983095Y-93357413D01*
X192983095Y-93357413D02*
X192983095Y-93236461D01*
X192983095Y-93236461D02*
X192922618Y-93115508D01*
X192922618Y-93115508D02*
X192862142Y-93055032D01*
X192862142Y-93055032D02*
X192741190Y-92994556D01*
X192741190Y-92994556D02*
X192499285Y-92934080D01*
X192499285Y-92934080D02*
X192378333Y-92873603D01*
X192378333Y-92873603D02*
X192317856Y-92813127D01*
X192317856Y-92813127D02*
X192257380Y-92692175D01*
X192257380Y-92692175D02*
X192257380Y-92571222D01*
X192257380Y-92571222D02*
X192317856Y-92450270D01*
X192317856Y-92450270D02*
X192378333Y-92389794D01*
X192378333Y-92389794D02*
X192499285Y-92329318D01*
X192499285Y-92329318D02*
X192801666Y-92329318D01*
X192801666Y-92329318D02*
X192983095Y-92389794D01*
X193466904Y-92450270D02*
X193527380Y-92389794D01*
X193527380Y-92389794D02*
X193648333Y-92329318D01*
X193648333Y-92329318D02*
X193950714Y-92329318D01*
X193950714Y-92329318D02*
X194071666Y-92389794D01*
X194071666Y-92389794D02*
X194132142Y-92450270D01*
X194132142Y-92450270D02*
X194192619Y-92571222D01*
X194192619Y-92571222D02*
X194192619Y-92692175D01*
X194192619Y-92692175D02*
X194132142Y-92873603D01*
X194132142Y-92873603D02*
X193406428Y-93599318D01*
X193406428Y-93599318D02*
X194192619Y-93599318D01*
D11*
X208608095Y-92774819D02*
X208608095Y-93584342D01*
X208608095Y-93584342D02*
X208655714Y-93679580D01*
X208655714Y-93679580D02*
X208703333Y-93727200D01*
X208703333Y-93727200D02*
X208798571Y-93774819D01*
X208798571Y-93774819D02*
X208989047Y-93774819D01*
X208989047Y-93774819D02*
X209084285Y-93727200D01*
X209084285Y-93727200D02*
X209131904Y-93679580D01*
X209131904Y-93679580D02*
X209179523Y-93584342D01*
X209179523Y-93584342D02*
X209179523Y-92774819D01*
X209608095Y-92870057D02*
X209655714Y-92822438D01*
X209655714Y-92822438D02*
X209750952Y-92774819D01*
X209750952Y-92774819D02*
X209989047Y-92774819D01*
X209989047Y-92774819D02*
X210084285Y-92822438D01*
X210084285Y-92822438D02*
X210131904Y-92870057D01*
X210131904Y-92870057D02*
X210179523Y-92965295D01*
X210179523Y-92965295D02*
X210179523Y-93060533D01*
X210179523Y-93060533D02*
X210131904Y-93203390D01*
X210131904Y-93203390D02*
X209560476Y-93774819D01*
X209560476Y-93774819D02*
X210179523Y-93774819D01*
X217488095Y-60254819D02*
X217488095Y-59254819D01*
X217488095Y-59731009D02*
X218059523Y-59731009D01*
X218059523Y-60254819D02*
X218059523Y-59254819D01*
X218440476Y-59254819D02*
X219059523Y-59254819D01*
X219059523Y-59254819D02*
X218726190Y-59635771D01*
X218726190Y-59635771D02*
X218869047Y-59635771D01*
X218869047Y-59635771D02*
X218964285Y-59683390D01*
X218964285Y-59683390D02*
X219011904Y-59731009D01*
X219011904Y-59731009D02*
X219059523Y-59826247D01*
X219059523Y-59826247D02*
X219059523Y-60064342D01*
X219059523Y-60064342D02*
X219011904Y-60159580D01*
X219011904Y-60159580D02*
X218964285Y-60207200D01*
X218964285Y-60207200D02*
X218869047Y-60254819D01*
X218869047Y-60254819D02*
X218583333Y-60254819D01*
X218583333Y-60254819D02*
X218488095Y-60207200D01*
X218488095Y-60207200D02*
X218440476Y-60159580D01*
D14*
%TO.C,S1*%
X214925000Y-70525000D02*
X214925000Y-70125000D01*
X218025000Y-68725000D02*
X216025000Y-68725000D01*
X218025000Y-71925000D02*
X216025000Y-71925000D01*
X219125000Y-70525000D02*
X219125000Y-70125000D01*
X220025000Y-71400000D02*
X220025000Y-71400000D01*
X220125000Y-71400000D02*
X220125000Y-71400000D01*
X220125000Y-71400000D02*
X220125000Y-71400000D01*
X220025000Y-71400000D02*
G75*
G02*
X220125000Y-71400000I50000J0D01*
G01*
X220025000Y-71400000D02*
G75*
G02*
X220125000Y-71400000I50000J0D01*
G01*
X220125000Y-71400000D02*
G75*
G02*
X220025000Y-71400000I-50000J0D01*
G01*
D13*
%TO.C,RI2C_4*%
X194820000Y-79643641D02*
X194820000Y-79336359D01*
X195580000Y-79643641D02*
X195580000Y-79336359D01*
%TO.C,J2*%
X190690000Y-100030000D02*
X190690000Y-98700000D01*
X192020000Y-100030000D02*
X190690000Y-100030000D01*
X193290000Y-97370000D02*
X198430000Y-97370000D01*
X193290000Y-100030000D02*
X193290000Y-97370000D01*
X193290000Y-100030000D02*
X198430000Y-100030000D01*
X198430000Y-100030000D02*
X198430000Y-97370000D01*
%TO.C,RI2C_2*%
X201026359Y-80407500D02*
X201333641Y-80407500D01*
X201026359Y-81167500D02*
X201333641Y-81167500D01*
D15*
%TO.C,G\u002A\u002A\u002A*%
G36*
X196509574Y-72221749D02*
G01*
X196894662Y-72223892D01*
X196996441Y-72339309D01*
X197098220Y-72454726D01*
X196920593Y-72456947D01*
X196742966Y-72459169D01*
X196740817Y-72814755D01*
X196738669Y-73170341D01*
X196600581Y-73056885D01*
X196462492Y-72943429D01*
X196462492Y-72701138D01*
X196462492Y-72458848D01*
X196293489Y-72458848D01*
X196124485Y-72458848D01*
X196124485Y-72339227D01*
X196124485Y-72219607D01*
X196509574Y-72221749D01*
G37*
G36*
X197319876Y-74021100D02*
G01*
X197319876Y-74066443D01*
X197237435Y-74066443D01*
X197154995Y-74066443D01*
X197154995Y-74297277D01*
X197154995Y-74528111D01*
X197109652Y-74528111D01*
X197064310Y-74528111D01*
X197064310Y-74297277D01*
X197064310Y-74066443D01*
X196981869Y-74066443D01*
X196899428Y-74066443D01*
X196899428Y-74021100D01*
X196899428Y-73975758D01*
X197109652Y-73975758D01*
X197319876Y-73975758D01*
X197319876Y-74021100D01*
G37*
G36*
X199125329Y-74021100D02*
G01*
X199125329Y-74066443D01*
X199042888Y-74066443D01*
X198960447Y-74066443D01*
X198960447Y-74297277D01*
X198960447Y-74528111D01*
X198915105Y-74528111D01*
X198869763Y-74528111D01*
X198869763Y-74297277D01*
X198869763Y-74066443D01*
X198787322Y-74066443D01*
X198704881Y-74066443D01*
X198704881Y-74021100D01*
X198704881Y-73975758D01*
X198915105Y-73975758D01*
X199125329Y-73975758D01*
X199125329Y-74021100D01*
G37*
G36*
X196604703Y-73214680D02*
G01*
X196742791Y-73303287D01*
X196742791Y-73392200D01*
X196742791Y-73481113D01*
X196606505Y-73481113D01*
X196552665Y-73480782D01*
X196513508Y-73479698D01*
X196487237Y-73477727D01*
X196472059Y-73474734D01*
X196466179Y-73470586D01*
X196465057Y-73459442D01*
X196464276Y-73434475D01*
X196463862Y-73398346D01*
X196463844Y-73353719D01*
X196464248Y-73303254D01*
X196464377Y-73293066D01*
X196466614Y-73126074D01*
X196604703Y-73214680D01*
G37*
G36*
X196025556Y-72401139D02*
G01*
X196025467Y-72453816D01*
X196025217Y-72500466D01*
X196024834Y-72538737D01*
X196024343Y-72566280D01*
X196023771Y-72580744D01*
X196023495Y-72582359D01*
X196016790Y-72577349D01*
X195999226Y-72563433D01*
X195972706Y-72542141D01*
X195939136Y-72515004D01*
X195900420Y-72483555D01*
X195887617Y-72473125D01*
X195753799Y-72364041D01*
X195753650Y-72291905D01*
X195753502Y-72219770D01*
X195889529Y-72219770D01*
X196025556Y-72219770D01*
X196025556Y-72401139D01*
G37*
G36*
X195769713Y-72679702D02*
G01*
X195790208Y-72692311D01*
X195819926Y-72710942D01*
X195856550Y-72734142D01*
X195896667Y-72759757D01*
X196025313Y-72842197D01*
X196025435Y-73161655D01*
X196025556Y-73481113D01*
X195889529Y-73481113D01*
X195753502Y-73481113D01*
X195753502Y-73076467D01*
X195753645Y-72993032D01*
X195754058Y-72916275D01*
X195754716Y-72847598D01*
X195755592Y-72788406D01*
X195756663Y-72740103D01*
X195757901Y-72704095D01*
X195759283Y-72681785D01*
X195760761Y-72674568D01*
X195769713Y-72679702D01*
G37*
G36*
X197207622Y-72578964D02*
G01*
X197220517Y-72593827D01*
X197242523Y-72619061D01*
X197271871Y-72652646D01*
X197306795Y-72692562D01*
X197345528Y-72736787D01*
X197383730Y-72780367D01*
X197531944Y-72949370D01*
X197495985Y-72951883D01*
X197460026Y-72954396D01*
X197460026Y-73098525D01*
X197460026Y-73242654D01*
X197622846Y-73241553D01*
X197785667Y-73240452D01*
X197870769Y-73336026D01*
X197955871Y-73431600D01*
X197932599Y-73440596D01*
X197909307Y-73448975D01*
X197885524Y-73455924D01*
X197859399Y-73461603D01*
X197829083Y-73466173D01*
X197792724Y-73469794D01*
X197748472Y-73472625D01*
X197694476Y-73474828D01*
X197628886Y-73476561D01*
X197549851Y-73477985D01*
X197490941Y-73478815D01*
X197179727Y-73482877D01*
X197179727Y-73014721D01*
X197179727Y-72546565D01*
X197207622Y-72578964D01*
G37*
G36*
X197745913Y-63052681D02*
G01*
X197825698Y-63180140D01*
X197840807Y-63415096D01*
X197869932Y-63864220D01*
X197898491Y-64296893D01*
X197926484Y-64713144D01*
X197953915Y-65112999D01*
X197980785Y-65496488D01*
X198007096Y-65863637D01*
X198032851Y-66214474D01*
X198058051Y-66549027D01*
X198082699Y-66867324D01*
X198106796Y-67169393D01*
X198130346Y-67455261D01*
X198153349Y-67724956D01*
X198175809Y-67978506D01*
X198197726Y-68215939D01*
X198219104Y-68437283D01*
X198227187Y-68518179D01*
X198257143Y-68796313D01*
X198290673Y-69073176D01*
X198327499Y-69347156D01*
X198367345Y-69616642D01*
X198409933Y-69880022D01*
X198454986Y-70135685D01*
X198502227Y-70382019D01*
X198551379Y-70617413D01*
X198602164Y-70840255D01*
X198654307Y-71048934D01*
X198676827Y-71132999D01*
X198721591Y-71296526D01*
X198719419Y-71567244D01*
X198717247Y-71837962D01*
X198191687Y-71458999D01*
X197666127Y-71080036D01*
X197666127Y-67002630D01*
X197666127Y-62925223D01*
X197745913Y-63052681D01*
G37*
G36*
X198096045Y-74094928D02*
G01*
X198121466Y-74133884D01*
X198143840Y-74167525D01*
X198161635Y-74193601D01*
X198173321Y-74209863D01*
X198177260Y-74214297D01*
X198182902Y-74207820D01*
X198195979Y-74189739D01*
X198214951Y-74162277D01*
X198238276Y-74127660D01*
X198259701Y-74095297D01*
X198338020Y-73976099D01*
X198389545Y-73975928D01*
X198416244Y-73976371D01*
X198434865Y-73977694D01*
X198441071Y-73979401D01*
X198436506Y-73986879D01*
X198423718Y-74005820D01*
X198404060Y-74034270D01*
X198378890Y-74070273D01*
X198349562Y-74111872D01*
X198333898Y-74133971D01*
X198226725Y-74284897D01*
X198226725Y-74406504D01*
X198226725Y-74528111D01*
X198177260Y-74528111D01*
X198127796Y-74528111D01*
X198127796Y-74406504D01*
X198127796Y-74284897D01*
X198020623Y-74133971D01*
X197989737Y-74090321D01*
X197962336Y-74051299D01*
X197939775Y-74018860D01*
X197923411Y-73994960D01*
X197914600Y-73981554D01*
X197913450Y-73979401D01*
X197920966Y-73977533D01*
X197940605Y-73976219D01*
X197966200Y-73975758D01*
X198018951Y-73975758D01*
X198096045Y-74094928D01*
G37*
G36*
X195877163Y-74091175D02*
G01*
X195877163Y-74206592D01*
X195950248Y-74206592D01*
X195987935Y-74205937D01*
X196013344Y-74203489D01*
X196030650Y-74198522D01*
X196044029Y-74190312D01*
X196044033Y-74190309D01*
X196055498Y-74177024D01*
X196072134Y-74152267D01*
X196091859Y-74119372D01*
X196112590Y-74081674D01*
X196116135Y-74074892D01*
X196167536Y-73975758D01*
X196216696Y-73975758D01*
X196265857Y-73975758D01*
X196209326Y-74084781D01*
X196184378Y-74131642D01*
X196164247Y-74166163D01*
X196147086Y-74191085D01*
X196131048Y-74209150D01*
X196117947Y-74220382D01*
X196083100Y-74246961D01*
X196112408Y-74260868D01*
X196130671Y-74272063D01*
X196148554Y-74289030D01*
X196167469Y-74313784D01*
X196188827Y-74348337D01*
X196214038Y-74394703D01*
X196234984Y-74435766D01*
X196281662Y-74528912D01*
X196229867Y-74526450D01*
X196178072Y-74523989D01*
X196124485Y-74422035D01*
X196099647Y-74375866D01*
X196079223Y-74342442D01*
X196060405Y-74319687D01*
X196040388Y-74305521D01*
X196016366Y-74297868D01*
X195985532Y-74294648D01*
X195951360Y-74293841D01*
X195881285Y-74293155D01*
X195878997Y-74410633D01*
X195876710Y-74528111D01*
X195831594Y-74528111D01*
X195786478Y-74528111D01*
X195786478Y-74251934D01*
X195786478Y-73975758D01*
X195831820Y-73975758D01*
X195877163Y-73975758D01*
X195877163Y-74091175D01*
G37*
G36*
X198581265Y-72474996D02*
G01*
X198592626Y-72493222D01*
X198609473Y-72521422D01*
X198630498Y-72557404D01*
X198654079Y-72598433D01*
X198729253Y-72730207D01*
X198684091Y-72846047D01*
X198668313Y-72887033D01*
X198654938Y-72922764D01*
X198645020Y-72950346D01*
X198639612Y-72966884D01*
X198638928Y-72970055D01*
X198646884Y-72973404D01*
X198669624Y-72975993D01*
X198705454Y-72977702D01*
X198752683Y-72978410D01*
X198756407Y-72978419D01*
X198873885Y-72978613D01*
X198937521Y-73091775D01*
X199001157Y-73204937D01*
X198772925Y-73209059D01*
X198544693Y-73213181D01*
X198492215Y-73347147D01*
X198439738Y-73481113D01*
X198299293Y-73481113D01*
X198248108Y-73480999D01*
X198211202Y-73480499D01*
X198186369Y-73479382D01*
X198171401Y-73477412D01*
X198164091Y-73474359D01*
X198162231Y-73469987D01*
X198162798Y-73466686D01*
X198166472Y-73457074D01*
X198175787Y-73433945D01*
X198190102Y-73398847D01*
X198208773Y-73353326D01*
X198231160Y-73298930D01*
X198256621Y-73237206D01*
X198284514Y-73169700D01*
X198314196Y-73097961D01*
X198345027Y-73023535D01*
X198376365Y-72947970D01*
X198407567Y-72872811D01*
X198437992Y-72799608D01*
X198466998Y-72729906D01*
X198493943Y-72665253D01*
X198518186Y-72607196D01*
X198539084Y-72557282D01*
X198555996Y-72517059D01*
X198568280Y-72488073D01*
X198575295Y-72471871D01*
X198576701Y-72468936D01*
X198581265Y-72474996D01*
G37*
G36*
X195662817Y-74019096D02*
G01*
X195662817Y-74064715D01*
X195532973Y-74067669D01*
X195472410Y-74069787D01*
X195425821Y-74073595D01*
X195390715Y-74079943D01*
X195364597Y-74089679D01*
X195344977Y-74103650D01*
X195329362Y-74122706D01*
X195318954Y-74140514D01*
X195306163Y-74177180D01*
X195299525Y-74223250D01*
X195299049Y-74272825D01*
X195304743Y-74320008D01*
X195316616Y-74358901D01*
X195318627Y-74363066D01*
X195332459Y-74386405D01*
X195348560Y-74404064D01*
X195369391Y-74416882D01*
X195397412Y-74425699D01*
X195435085Y-74431355D01*
X195484870Y-74434688D01*
X195532973Y-74436200D01*
X195662817Y-74439154D01*
X195662817Y-74483632D01*
X195662817Y-74528111D01*
X195549461Y-74527141D01*
X195504041Y-74526301D01*
X195461040Y-74524697D01*
X195424934Y-74522549D01*
X195400198Y-74520078D01*
X195397840Y-74519709D01*
X195338043Y-74502355D01*
X195288712Y-74472394D01*
X195250192Y-74430080D01*
X195231376Y-74396644D01*
X195223973Y-74378170D01*
X195218979Y-74358339D01*
X195215940Y-74333392D01*
X195214403Y-74299568D01*
X195213913Y-74253108D01*
X195213911Y-74251934D01*
X195214110Y-74206467D01*
X195215242Y-74173693D01*
X195217806Y-74149822D01*
X195222298Y-74131066D01*
X195229217Y-74113636D01*
X195233146Y-74105434D01*
X195257901Y-74067552D01*
X195291378Y-74032709D01*
X195328539Y-74005542D01*
X195355094Y-73993223D01*
X195373974Y-73989418D01*
X195405758Y-73985635D01*
X195446865Y-73982195D01*
X195493713Y-73979415D01*
X195524729Y-73978140D01*
X195662817Y-73973478D01*
X195662817Y-74019096D01*
G37*
G36*
X200091897Y-73978915D02*
G01*
X200123916Y-73992221D01*
X200136522Y-74002158D01*
X200146038Y-74016762D01*
X200160606Y-74046358D01*
X200179961Y-74090333D01*
X200203839Y-74148073D01*
X200231976Y-74218962D01*
X200251001Y-74268095D01*
X200274017Y-74328232D01*
X200295006Y-74383483D01*
X200313263Y-74431957D01*
X200328080Y-74471764D01*
X200338753Y-74501012D01*
X200344574Y-74517810D01*
X200345452Y-74521057D01*
X200337976Y-74524832D01*
X200318598Y-74527392D01*
X200297610Y-74528111D01*
X200249767Y-74528111D01*
X200162698Y-74299338D01*
X200137340Y-74233035D01*
X200116936Y-74180611D01*
X200100756Y-74140464D01*
X200088070Y-74110995D01*
X200078147Y-74090605D01*
X200070260Y-74077693D01*
X200063676Y-74070661D01*
X200057668Y-74067907D01*
X200057075Y-74067806D01*
X200038554Y-74069229D01*
X200029533Y-74074033D01*
X200024262Y-74083757D01*
X200013800Y-74106801D01*
X199999002Y-74141143D01*
X199980724Y-74184762D01*
X199959820Y-74235639D01*
X199937145Y-74291753D01*
X199932441Y-74303504D01*
X199844336Y-74523989D01*
X199792942Y-74526470D01*
X199764129Y-74527079D01*
X199749098Y-74525074D01*
X199745285Y-74520009D01*
X199745779Y-74518226D01*
X199780886Y-74429649D01*
X199814401Y-74345918D01*
X199845780Y-74268345D01*
X199874479Y-74198238D01*
X199899954Y-74136908D01*
X199921659Y-74085664D01*
X199939052Y-74045816D01*
X199951588Y-74018673D01*
X199958723Y-74005546D01*
X199958871Y-74005353D01*
X199982818Y-73986976D01*
X200016323Y-73976383D01*
X200054358Y-73973666D01*
X200091897Y-73978915D01*
G37*
G36*
X198979239Y-72324882D02*
G01*
X198990380Y-72350563D01*
X199007437Y-72389787D01*
X199029727Y-72440985D01*
X199056566Y-72502591D01*
X199087272Y-72573037D01*
X199121160Y-72650756D01*
X199157549Y-72734180D01*
X199195753Y-72821741D01*
X199235091Y-72911872D01*
X199252270Y-72951224D01*
X199290383Y-73038587D01*
X199326495Y-73121481D01*
X199360073Y-73198676D01*
X199390584Y-73268941D01*
X199417495Y-73331046D01*
X199440273Y-73383758D01*
X199458386Y-73425849D01*
X199471300Y-73456086D01*
X199478482Y-73473239D01*
X199479824Y-73476784D01*
X199472040Y-73478244D01*
X199450524Y-73479495D01*
X199418034Y-73480444D01*
X199377325Y-73481003D01*
X199347660Y-73481113D01*
X199297777Y-73480951D01*
X199261946Y-73480293D01*
X199237735Y-73478886D01*
X199222709Y-73476473D01*
X199214435Y-73472799D01*
X199210479Y-73467609D01*
X199210109Y-73466686D01*
X199206157Y-73456963D01*
X199196355Y-73433203D01*
X199181193Y-73396589D01*
X199161163Y-73348302D01*
X199136757Y-73289526D01*
X199108465Y-73221443D01*
X199076778Y-73145236D01*
X199042189Y-73062087D01*
X199005189Y-72973178D01*
X198966268Y-72879693D01*
X198954086Y-72850441D01*
X198914693Y-72755801D01*
X198877093Y-72665377D01*
X198841777Y-72580350D01*
X198809233Y-72501903D01*
X198779951Y-72431218D01*
X198754420Y-72369478D01*
X198733129Y-72317864D01*
X198716568Y-72277560D01*
X198705225Y-72249748D01*
X198699591Y-72235609D01*
X198699083Y-72234197D01*
X198698565Y-72228563D01*
X198702570Y-72224616D01*
X198713464Y-72222060D01*
X198733613Y-72220598D01*
X198765382Y-72219933D01*
X198811136Y-72219770D01*
X198814238Y-72219770D01*
X198933763Y-72219770D01*
X198979239Y-72324882D01*
G37*
G36*
X194898340Y-73982186D02*
G01*
X194959868Y-73997535D01*
X195010737Y-74022606D01*
X195038182Y-74044894D01*
X195067490Y-74084796D01*
X195088767Y-74135688D01*
X195101666Y-74193972D01*
X195105836Y-74256049D01*
X195100931Y-74318320D01*
X195086600Y-74377187D01*
X195073468Y-74409101D01*
X195047960Y-74450028D01*
X195015377Y-74480913D01*
X194973686Y-74502787D01*
X194920854Y-74516680D01*
X194854848Y-74523622D01*
X194846653Y-74524007D01*
X194806155Y-74524648D01*
X194766157Y-74523491D01*
X194733423Y-74520787D01*
X194724781Y-74519495D01*
X194665858Y-74502788D01*
X194618567Y-74475563D01*
X194582505Y-74437243D01*
X194557268Y-74387251D01*
X194542453Y-74325012D01*
X194538772Y-74268915D01*
X194625716Y-74268915D01*
X194626653Y-74282500D01*
X194636673Y-74337621D01*
X194656687Y-74379935D01*
X194687162Y-74410090D01*
X194728560Y-74428731D01*
X194732249Y-74429717D01*
X194761442Y-74434034D01*
X194799524Y-74435361D01*
X194841651Y-74434021D01*
X194882976Y-74430337D01*
X194918657Y-74424633D01*
X194943846Y-74417232D01*
X194947607Y-74415346D01*
X194976546Y-74391209D01*
X194996485Y-74356456D01*
X195007967Y-74309698D01*
X195011535Y-74251484D01*
X195008355Y-74194893D01*
X194998165Y-74151378D01*
X194979991Y-74118674D01*
X194952858Y-74094513D01*
X194941133Y-74087691D01*
X194913821Y-74078560D01*
X194875723Y-74072495D01*
X194831714Y-74069553D01*
X194786668Y-74069790D01*
X194745458Y-74073263D01*
X194712960Y-74080029D01*
X194701049Y-74084907D01*
X194665563Y-74113321D01*
X194641073Y-74153741D01*
X194627738Y-74205746D01*
X194625716Y-74268915D01*
X194538772Y-74268915D01*
X194537658Y-74251934D01*
X194542189Y-74178154D01*
X194556517Y-74117275D01*
X194581283Y-74068484D01*
X194617131Y-74030970D01*
X194664701Y-74003921D01*
X194724635Y-73986523D01*
X194750776Y-73982276D01*
X194828020Y-73976963D01*
X194898340Y-73982186D01*
G37*
G36*
X194147968Y-73977485D02*
G01*
X194216058Y-73979198D01*
X194269901Y-73981739D01*
X194311735Y-73985591D01*
X194343798Y-73991235D01*
X194368326Y-73999155D01*
X194387557Y-74009831D01*
X194403730Y-74023748D01*
X194413653Y-74034749D01*
X194436203Y-74072767D01*
X194447117Y-74116458D01*
X194447042Y-74162190D01*
X194436626Y-74206329D01*
X194416519Y-74245245D01*
X194387367Y-74275303D01*
X194368779Y-74286259D01*
X194348785Y-74296831D01*
X194337026Y-74305657D01*
X194335733Y-74308023D01*
X194339636Y-74317118D01*
X194350517Y-74337693D01*
X194366902Y-74367070D01*
X194387315Y-74402573D01*
X194397116Y-74419318D01*
X194458712Y-74523989D01*
X194416648Y-74526518D01*
X194390508Y-74527278D01*
X194370653Y-74526402D01*
X194364705Y-74525257D01*
X194357226Y-74517111D01*
X194343333Y-74497270D01*
X194324760Y-74468377D01*
X194303238Y-74433073D01*
X194293957Y-74417346D01*
X194233087Y-74313227D01*
X194150338Y-74315557D01*
X194067588Y-74317887D01*
X194065281Y-74422999D01*
X194062973Y-74528111D01*
X194017153Y-74528111D01*
X193971333Y-74528111D01*
X193974118Y-74396419D01*
X193975137Y-74342507D01*
X193976953Y-74301482D01*
X193981576Y-74271529D01*
X193991015Y-74250833D01*
X194007277Y-74237578D01*
X194032371Y-74229948D01*
X194068306Y-74226128D01*
X194117090Y-74224302D01*
X194165891Y-74223080D01*
X194220604Y-74221410D01*
X194261257Y-74219621D01*
X194290277Y-74217434D01*
X194310091Y-74214575D01*
X194323126Y-74210766D01*
X194331810Y-74205731D01*
X194333947Y-74203924D01*
X194352533Y-74176659D01*
X194356656Y-74142771D01*
X194351471Y-74118401D01*
X194344596Y-74102129D01*
X194334692Y-74089612D01*
X194319710Y-74080369D01*
X194297604Y-74073921D01*
X194266327Y-74069790D01*
X194223831Y-74067494D01*
X194168068Y-74066555D01*
X194129683Y-74066443D01*
X193972781Y-74066443D01*
X193972781Y-74020280D01*
X193972781Y-73974118D01*
X194147968Y-73977485D01*
G37*
G36*
X197585748Y-73977485D02*
G01*
X197653838Y-73979198D01*
X197707681Y-73981739D01*
X197749515Y-73985591D01*
X197781578Y-73991235D01*
X197806106Y-73999155D01*
X197825337Y-74009831D01*
X197841510Y-74023748D01*
X197851433Y-74034749D01*
X197873983Y-74072767D01*
X197884897Y-74116458D01*
X197884822Y-74162190D01*
X197874406Y-74206329D01*
X197854299Y-74245245D01*
X197825147Y-74275303D01*
X197806559Y-74286259D01*
X197786565Y-74296831D01*
X197774806Y-74305657D01*
X197773513Y-74308023D01*
X197777416Y-74317118D01*
X197788297Y-74337693D01*
X197804682Y-74367070D01*
X197825095Y-74402573D01*
X197834896Y-74419318D01*
X197896492Y-74523989D01*
X197854428Y-74526518D01*
X197828288Y-74527278D01*
X197808432Y-74526402D01*
X197802485Y-74525257D01*
X197795006Y-74517111D01*
X197781113Y-74497270D01*
X197762540Y-74468377D01*
X197741018Y-74433073D01*
X197731737Y-74417346D01*
X197670867Y-74313227D01*
X197588118Y-74315557D01*
X197505368Y-74317887D01*
X197503061Y-74422999D01*
X197500753Y-74528111D01*
X197454933Y-74528111D01*
X197409112Y-74528111D01*
X197411898Y-74396419D01*
X197412917Y-74342507D01*
X197414733Y-74301482D01*
X197419356Y-74271529D01*
X197428795Y-74250833D01*
X197445057Y-74237578D01*
X197470151Y-74229948D01*
X197506086Y-74226128D01*
X197554870Y-74224302D01*
X197603671Y-74223080D01*
X197658384Y-74221410D01*
X197699037Y-74219621D01*
X197728057Y-74217434D01*
X197747871Y-74214575D01*
X197760906Y-74210766D01*
X197769590Y-74205731D01*
X197771727Y-74203924D01*
X197790313Y-74176659D01*
X197794436Y-74142771D01*
X197789251Y-74118401D01*
X197782376Y-74102129D01*
X197772472Y-74089612D01*
X197757490Y-74080369D01*
X197735384Y-74073921D01*
X197704107Y-74069790D01*
X197661611Y-74067494D01*
X197605848Y-74066555D01*
X197567463Y-74066443D01*
X197410561Y-74066443D01*
X197410561Y-74020280D01*
X197410561Y-73974118D01*
X197585748Y-73977485D01*
G37*
G36*
X199661194Y-74019536D02*
G01*
X199661194Y-74065182D01*
X199499706Y-74067873D01*
X199338219Y-74070565D01*
X199318337Y-74093696D01*
X199301601Y-74122855D01*
X199298755Y-74152572D01*
X199309724Y-74178943D01*
X199320177Y-74189505D01*
X199328829Y-74195500D01*
X199338995Y-74199906D01*
X199353191Y-74202966D01*
X199373935Y-74204921D01*
X199403744Y-74206016D01*
X199445134Y-74206492D01*
X199497424Y-74206592D01*
X199652950Y-74206592D01*
X199652950Y-74247812D01*
X199652950Y-74289033D01*
X199514862Y-74289079D01*
X199449022Y-74289664D01*
X199397853Y-74291798D01*
X199359562Y-74296122D01*
X199332356Y-74303277D01*
X199314442Y-74313905D01*
X199304027Y-74328647D01*
X199299319Y-74348144D01*
X199298455Y-74366488D01*
X199305734Y-74397488D01*
X199326588Y-74420114D01*
X199357765Y-74432388D01*
X199374335Y-74434079D01*
X199404018Y-74435529D01*
X199443440Y-74436634D01*
X199489224Y-74437289D01*
X199522075Y-74437426D01*
X199661194Y-74437426D01*
X199661194Y-74482769D01*
X199661194Y-74528111D01*
X199514862Y-74527141D01*
X199464258Y-74526451D01*
X199416545Y-74525154D01*
X199375349Y-74523395D01*
X199344296Y-74521321D01*
X199329855Y-74519650D01*
X199279566Y-74504693D01*
X199241641Y-74478837D01*
X199216025Y-74442027D01*
X199202690Y-74394422D01*
X199203598Y-74356778D01*
X199214530Y-74318808D01*
X199233187Y-74286361D01*
X199252341Y-74268170D01*
X199269777Y-74253949D01*
X199271716Y-74243566D01*
X199258356Y-74235806D01*
X199257644Y-74235576D01*
X199237491Y-74221437D01*
X199220483Y-74195340D01*
X199208856Y-74161790D01*
X199204850Y-74129349D01*
X199210567Y-74080155D01*
X199229530Y-74040615D01*
X199262101Y-74010091D01*
X199278177Y-74000695D01*
X199292400Y-73993760D01*
X199306180Y-73988522D01*
X199322128Y-73984689D01*
X199342855Y-73981967D01*
X199370973Y-73980064D01*
X199409091Y-73978688D01*
X199459821Y-73977545D01*
X199489706Y-73976989D01*
X199661194Y-73973889D01*
X199661194Y-74019536D01*
G37*
G36*
X196808743Y-74020254D02*
G01*
X196808743Y-74066443D01*
X196670655Y-74066489D01*
X196622108Y-74067009D01*
X196577119Y-74068418D01*
X196539241Y-74070534D01*
X196512032Y-74073178D01*
X196501895Y-74075053D01*
X196471416Y-74090167D01*
X196452368Y-74113228D01*
X196445899Y-74140650D01*
X196453157Y-74168847D01*
X196466240Y-74186357D01*
X196473593Y-74193297D01*
X196481410Y-74198435D01*
X196492115Y-74202043D01*
X196508136Y-74204391D01*
X196531899Y-74205749D01*
X196565831Y-74206388D01*
X196612357Y-74206580D01*
X196647609Y-74206592D01*
X196808743Y-74206592D01*
X196808743Y-74247182D01*
X196808743Y-74287772D01*
X196648630Y-74290463D01*
X196593417Y-74291461D01*
X196552235Y-74292538D01*
X196522626Y-74294003D01*
X196502135Y-74296161D01*
X196488305Y-74299322D01*
X196478680Y-74303790D01*
X196470803Y-74309874D01*
X196467260Y-74313141D01*
X196450264Y-74336990D01*
X196446004Y-74363229D01*
X196451560Y-74392523D01*
X196467260Y-74413318D01*
X196475146Y-74420210D01*
X196483699Y-74425351D01*
X196495377Y-74429049D01*
X196512636Y-74431610D01*
X196537932Y-74433342D01*
X196573721Y-74434552D01*
X196622461Y-74435547D01*
X196648630Y-74435995D01*
X196808743Y-74438687D01*
X196808743Y-74483399D01*
X196808743Y-74528111D01*
X196662411Y-74527155D01*
X196614262Y-74526702D01*
X196571349Y-74526039D01*
X196536598Y-74525232D01*
X196512929Y-74524346D01*
X196503713Y-74523582D01*
X196487690Y-74520569D01*
X196464257Y-74516540D01*
X196459939Y-74515828D01*
X196420623Y-74501979D01*
X196389604Y-74476684D01*
X196367525Y-74443100D01*
X196355025Y-74404384D01*
X196352748Y-74363693D01*
X196361333Y-74324184D01*
X196381422Y-74289012D01*
X196408860Y-74264330D01*
X196430333Y-74250244D01*
X196408921Y-74236214D01*
X196378355Y-74206758D01*
X196360464Y-74166926D01*
X196355350Y-74123309D01*
X196361042Y-74078022D01*
X196379155Y-74042131D01*
X196411140Y-74013357D01*
X196433650Y-74000495D01*
X196448493Y-73993471D01*
X196462823Y-73988191D01*
X196479321Y-73984353D01*
X196500668Y-73981653D01*
X196529543Y-73979789D01*
X196568628Y-73978457D01*
X196620603Y-73977356D01*
X196641801Y-73976978D01*
X196808743Y-73974065D01*
X196808743Y-74020254D01*
G37*
G36*
X197502986Y-62940891D02*
G01*
X197503418Y-62964546D01*
X197503842Y-63003698D01*
X197504256Y-63057853D01*
X197504661Y-63126517D01*
X197505054Y-63209192D01*
X197505436Y-63305386D01*
X197505805Y-63414602D01*
X197506161Y-63536345D01*
X197506503Y-63670121D01*
X197506829Y-63815434D01*
X197507140Y-63971789D01*
X197507434Y-64138691D01*
X197507710Y-64315645D01*
X197507968Y-64502156D01*
X197508207Y-64697729D01*
X197508426Y-64901868D01*
X197508624Y-65114079D01*
X197508800Y-65333867D01*
X197508954Y-65560735D01*
X197509084Y-65794191D01*
X197509190Y-66033737D01*
X197509271Y-66278880D01*
X197509326Y-66529123D01*
X197509355Y-66783973D01*
X197509358Y-67001681D01*
X197509225Y-71077965D01*
X196988871Y-71453070D01*
X196906430Y-71512480D01*
X196827729Y-71569157D01*
X196753811Y-71622353D01*
X196685720Y-71671318D01*
X196624501Y-71715303D01*
X196571196Y-71753558D01*
X196526851Y-71785333D01*
X196492508Y-71809878D01*
X196469213Y-71826445D01*
X196458009Y-71834284D01*
X196457260Y-71834769D01*
X196454122Y-71834363D01*
X196451607Y-71828090D01*
X196449650Y-71814461D01*
X196448187Y-71791991D01*
X196447155Y-71759192D01*
X196446490Y-71714577D01*
X196446128Y-71656659D01*
X196446006Y-71583951D01*
X196446004Y-71572411D01*
X196446004Y-71303460D01*
X196474277Y-71203079D01*
X196525531Y-71012180D01*
X196575950Y-70806815D01*
X196625148Y-70588996D01*
X196672736Y-70360740D01*
X196718328Y-70124061D01*
X196761536Y-69880974D01*
X196801972Y-69633494D01*
X196839249Y-69383635D01*
X196872979Y-69133412D01*
X196874161Y-69124119D01*
X196891860Y-68979053D01*
X196910214Y-68817705D01*
X196929208Y-68640270D01*
X196948825Y-68446939D01*
X196969051Y-68237908D01*
X196989869Y-68013368D01*
X197011265Y-67773514D01*
X197033222Y-67518538D01*
X197055726Y-67248634D01*
X197078759Y-66963995D01*
X197102308Y-66664814D01*
X197126356Y-66351285D01*
X197150888Y-66023600D01*
X197175888Y-65681954D01*
X197201341Y-65326540D01*
X197227230Y-64957550D01*
X197253541Y-64575178D01*
X197280259Y-64179617D01*
X197307366Y-63771061D01*
X197316057Y-63638581D01*
X197345933Y-63181931D01*
X197420767Y-63061496D01*
X197445767Y-63021449D01*
X197468050Y-62986107D01*
X197486042Y-62957936D01*
X197498170Y-62939404D01*
X197502546Y-62933229D01*
X197502986Y-62940891D01*
G37*
G36*
X197505987Y-72221938D02*
G01*
X197589885Y-72222910D01*
X197659037Y-72223941D01*
X197715183Y-72225117D01*
X197760067Y-72226521D01*
X197795429Y-72228236D01*
X197823010Y-72230347D01*
X197844554Y-72232936D01*
X197861800Y-72236088D01*
X197875902Y-72239713D01*
X197948657Y-72266860D01*
X198007393Y-72301737D01*
X198052983Y-72344996D01*
X198086301Y-72397295D01*
X198086335Y-72397365D01*
X198101319Y-72441935D01*
X198109537Y-72495602D01*
X198110777Y-72552334D01*
X198104831Y-72606099D01*
X198094881Y-72642598D01*
X198068201Y-72692316D01*
X198028578Y-72738015D01*
X197979551Y-72776084D01*
X197946309Y-72794123D01*
X197896778Y-72816858D01*
X197945112Y-72830089D01*
X198012323Y-72855464D01*
X198067704Y-72891943D01*
X198112369Y-72940414D01*
X198139535Y-72985231D01*
X198163515Y-73049736D01*
X198172875Y-73117255D01*
X198168063Y-73184917D01*
X198149526Y-73249855D01*
X198117711Y-73309199D01*
X198082444Y-73351269D01*
X198061682Y-73370986D01*
X198045495Y-73385053D01*
X198037383Y-73390428D01*
X198037379Y-73390428D01*
X198031026Y-73384087D01*
X198016824Y-73366552D01*
X197996496Y-73340054D01*
X197971764Y-73306824D01*
X197953316Y-73281531D01*
X197924148Y-73241097D01*
X197903464Y-73211637D01*
X197890079Y-73190768D01*
X197882807Y-73176111D01*
X197880462Y-73165282D01*
X197881860Y-73155900D01*
X197885737Y-73145768D01*
X197896081Y-73102470D01*
X197891185Y-73061776D01*
X197872283Y-73025559D01*
X197840605Y-72995689D01*
X197797386Y-72974038D01*
X197767334Y-72965949D01*
X197719714Y-72956569D01*
X197635801Y-72841675D01*
X197551888Y-72726780D01*
X197639923Y-72721890D01*
X197704768Y-72715011D01*
X197755270Y-72701946D01*
X197792639Y-72681984D01*
X197818086Y-72654413D01*
X197832820Y-72618524D01*
X197835143Y-72607169D01*
X197834958Y-72563282D01*
X197820118Y-72524093D01*
X197792260Y-72491778D01*
X197753023Y-72468514D01*
X197724080Y-72459670D01*
X197699495Y-72456206D01*
X197663183Y-72453353D01*
X197619903Y-72451393D01*
X197574413Y-72450607D01*
X197571236Y-72450604D01*
X197460667Y-72450604D01*
X197458285Y-72522294D01*
X197455903Y-72593985D01*
X197340966Y-72433670D01*
X197307430Y-72386943D01*
X197275978Y-72343207D01*
X197248253Y-72304742D01*
X197225897Y-72273824D01*
X197210554Y-72252732D01*
X197205558Y-72245955D01*
X197185087Y-72218554D01*
X197505987Y-72221938D01*
G37*
G36*
X200593202Y-73975873D02*
G01*
X200611439Y-73981512D01*
X200626984Y-73988849D01*
X200640909Y-73999626D01*
X200654285Y-74015582D01*
X200668184Y-74038458D01*
X200683679Y-74069994D01*
X200701841Y-74111929D01*
X200723741Y-74166004D01*
X200747497Y-74226396D01*
X200770793Y-74284978D01*
X200792219Y-74336877D01*
X200810961Y-74380257D01*
X200826210Y-74413280D01*
X200837153Y-74434111D01*
X200842158Y-74440699D01*
X200860071Y-74445254D01*
X200871012Y-74440624D01*
X200875623Y-74436293D01*
X200879247Y-74428468D01*
X200882064Y-74415145D01*
X200884253Y-74394321D01*
X200885996Y-74363992D01*
X200887474Y-74322153D01*
X200888865Y-74266801D01*
X200889561Y-74234564D01*
X200891411Y-74162708D01*
X200893658Y-74106365D01*
X200896369Y-74064567D01*
X200899610Y-74036342D01*
X200903447Y-74020721D01*
X200904233Y-74019125D01*
X200925997Y-73996095D01*
X200958435Y-73979705D01*
X200996531Y-73971535D01*
X201035265Y-73973167D01*
X201043841Y-73975123D01*
X201060505Y-73980420D01*
X201075129Y-73987667D01*
X201088585Y-73998415D01*
X201101743Y-74014218D01*
X201115473Y-74036628D01*
X201130649Y-74067198D01*
X201148139Y-74107480D01*
X201168815Y-74159027D01*
X201193549Y-74223392D01*
X201214957Y-74280135D01*
X201308400Y-74528856D01*
X201258916Y-74526422D01*
X201209433Y-74523989D01*
X201128727Y-74308741D01*
X201102914Y-74239992D01*
X201082153Y-74185126D01*
X201065730Y-74142578D01*
X201052932Y-74110783D01*
X201043047Y-74088177D01*
X201035361Y-74073195D01*
X201029162Y-74064272D01*
X201023736Y-74059843D01*
X201018371Y-74058344D01*
X201014581Y-74058199D01*
X201003874Y-74059159D01*
X200995649Y-74063313D01*
X200989582Y-74072568D01*
X200985348Y-74088834D01*
X200982621Y-74114017D01*
X200981076Y-74150026D01*
X200980389Y-74198770D01*
X200980233Y-74259766D01*
X200980075Y-74320854D01*
X200979501Y-74367786D01*
X200978353Y-74402895D01*
X200976470Y-74428512D01*
X200973692Y-74446967D01*
X200969859Y-74460592D01*
X200965806Y-74469816D01*
X200940229Y-74503232D01*
X200905350Y-74524596D01*
X200864147Y-74532858D01*
X200819597Y-74526972D01*
X200811243Y-74524254D01*
X200785841Y-74511402D01*
X200764925Y-74494565D01*
X200761844Y-74490932D01*
X200754366Y-74477430D01*
X200742044Y-74450894D01*
X200725893Y-74413704D01*
X200706929Y-74368237D01*
X200686168Y-74316871D01*
X200670136Y-74276184D01*
X200649056Y-74222633D01*
X200629428Y-74173787D01*
X200612182Y-74131884D01*
X200598251Y-74099160D01*
X200588565Y-74077851D01*
X200584559Y-74070599D01*
X200566820Y-74059406D01*
X200547851Y-74061683D01*
X200535356Y-74074145D01*
X200532643Y-74087636D01*
X200530390Y-74116284D01*
X200528645Y-74158763D01*
X200527458Y-74213748D01*
X200526875Y-74279912D01*
X200526822Y-74309101D01*
X200526822Y-74528111D01*
X200481480Y-74528111D01*
X200436137Y-74528111D01*
X200436334Y-74307582D01*
X200436663Y-74247101D01*
X200437488Y-74190488D01*
X200438731Y-74140312D01*
X200440314Y-74099144D01*
X200442159Y-74069551D01*
X200444003Y-74054839D01*
X200460224Y-74018192D01*
X200487971Y-73991007D01*
X200524298Y-73974843D01*
X200566259Y-73971259D01*
X200593202Y-73975873D01*
G37*
G36*
X197688648Y-62267407D02*
G01*
X197773420Y-62268194D01*
X197852659Y-62269501D01*
X197923616Y-62271328D01*
X197983537Y-62273676D01*
X198028867Y-62276480D01*
X198263673Y-62298228D01*
X198485724Y-62324809D01*
X198698203Y-62356828D01*
X198904290Y-62394886D01*
X199107168Y-62439589D01*
X199310018Y-62491538D01*
X199516022Y-62551338D01*
X199575225Y-62569736D01*
X199859457Y-62667269D01*
X200144851Y-62781143D01*
X200431499Y-62911393D01*
X200551554Y-62970621D01*
X200821933Y-63114577D01*
X201080234Y-63267654D01*
X201328245Y-63431133D01*
X201567750Y-63606299D01*
X201800537Y-63794434D01*
X202028391Y-63996820D01*
X202174524Y-64136452D01*
X202395348Y-64362986D01*
X202601033Y-64594237D01*
X202792581Y-64831569D01*
X202970996Y-65076346D01*
X203137283Y-65329932D01*
X203292444Y-65593692D01*
X203411937Y-65818244D01*
X203554841Y-66116961D01*
X203681804Y-66419768D01*
X203792881Y-66726862D01*
X203888125Y-67038440D01*
X203967594Y-67354699D01*
X204031340Y-67675836D01*
X204079421Y-68002046D01*
X204110273Y-68312077D01*
X204114604Y-68381296D01*
X204118111Y-68463616D01*
X204120781Y-68555830D01*
X204122601Y-68654733D01*
X204123557Y-68757120D01*
X204123636Y-68859785D01*
X204122826Y-68959524D01*
X204121113Y-69053130D01*
X204118484Y-69137400D01*
X204114925Y-69209126D01*
X204114006Y-69223048D01*
X204083066Y-69550872D01*
X204036334Y-69874939D01*
X203974055Y-70194750D01*
X203896474Y-70509806D01*
X203803834Y-70819608D01*
X203696381Y-71123658D01*
X203574359Y-71421455D01*
X203438011Y-71712502D01*
X203287583Y-71996298D01*
X203123319Y-72272346D01*
X202945462Y-72540146D01*
X202754258Y-72799199D01*
X202549951Y-73049007D01*
X202332786Y-73289069D01*
X202103006Y-73518888D01*
X201934309Y-73673820D01*
X201890300Y-73712443D01*
X201844108Y-73752291D01*
X201797510Y-73791899D01*
X201752283Y-73829803D01*
X201710206Y-73864539D01*
X201673056Y-73894642D01*
X201642609Y-73918647D01*
X201620643Y-73935090D01*
X201608936Y-73942506D01*
X201607892Y-73942782D01*
X201600011Y-73937293D01*
X201583463Y-73922540D01*
X201561058Y-73901096D01*
X201546515Y-73886634D01*
X201490798Y-73830487D01*
X201563224Y-73773306D01*
X201633184Y-73716620D01*
X201710892Y-73651114D01*
X201792750Y-73579933D01*
X201875159Y-73506222D01*
X201954522Y-73433124D01*
X201980493Y-73408665D01*
X202210244Y-73179676D01*
X202427092Y-72940533D01*
X202630795Y-72691644D01*
X202821113Y-72433415D01*
X202997805Y-72166253D01*
X203160628Y-71890566D01*
X203309343Y-71606761D01*
X203443708Y-71315245D01*
X203563481Y-71016425D01*
X203668422Y-70710709D01*
X203754143Y-70414317D01*
X203808673Y-70194279D01*
X203854062Y-69981469D01*
X203890817Y-69772155D01*
X203919444Y-69562603D01*
X203940450Y-69349080D01*
X203954342Y-69127855D01*
X203961628Y-68895193D01*
X203961798Y-68885041D01*
X203962911Y-68718713D01*
X203960455Y-68563437D01*
X203954180Y-68414113D01*
X203943834Y-68265642D01*
X203929163Y-68112923D01*
X203919446Y-68027657D01*
X203873643Y-67713244D01*
X203811876Y-67401358D01*
X203734485Y-67092812D01*
X203641809Y-66788420D01*
X203534185Y-66488995D01*
X203411953Y-66195350D01*
X203275451Y-65908299D01*
X203125018Y-65628656D01*
X202960993Y-65357234D01*
X202783715Y-65094846D01*
X202593522Y-64842306D01*
X202592739Y-64841321D01*
X202429988Y-64645470D01*
X202254439Y-64450739D01*
X202069597Y-64260708D01*
X201878968Y-64078956D01*
X201686057Y-63909063D01*
X201652113Y-63880642D01*
X201404399Y-63685551D01*
X201146264Y-63503008D01*
X200878365Y-63333351D01*
X200601358Y-63176915D01*
X200315901Y-63034037D01*
X200022650Y-62905055D01*
X199722262Y-62790305D01*
X199415395Y-62690123D01*
X199222770Y-62635634D01*
X198974426Y-62574587D01*
X198728568Y-62524753D01*
X198481971Y-62485696D01*
X198231412Y-62456981D01*
X197973665Y-62438172D01*
X197705507Y-62428833D01*
X197690860Y-62428593D01*
X197561984Y-62427401D01*
X197443757Y-62428180D01*
X197331792Y-62431152D01*
X197221706Y-62436534D01*
X197109114Y-62444548D01*
X196989630Y-62455414D01*
X196858871Y-62469350D01*
X196843335Y-62471112D01*
X196546329Y-62512898D01*
X196247664Y-62570618D01*
X195948481Y-62643954D01*
X195649918Y-62732592D01*
X195353114Y-62836215D01*
X195059208Y-62954508D01*
X194986803Y-62986121D01*
X194935005Y-63009935D01*
X194872005Y-63040247D01*
X194800953Y-63075437D01*
X194724994Y-63113881D01*
X194647278Y-63153958D01*
X194570952Y-63194044D01*
X194499163Y-63232518D01*
X194435061Y-63267758D01*
X194384985Y-63296275D01*
X194118872Y-63460942D01*
X193860304Y-63639871D01*
X193610052Y-63832291D01*
X193368886Y-64037433D01*
X193137575Y-64254526D01*
X192916890Y-64482800D01*
X192707600Y-64721486D01*
X192510476Y-64969813D01*
X192326288Y-65227011D01*
X192155804Y-65492310D01*
X192106421Y-65575115D01*
X192070637Y-65638059D01*
X192030071Y-65712554D01*
X191986374Y-65795325D01*
X191941194Y-65883097D01*
X191896182Y-65972595D01*
X191852986Y-66060542D01*
X191813256Y-66143664D01*
X191778641Y-66218684D01*
X191753511Y-66275898D01*
X191633683Y-66577512D01*
X191529923Y-66880758D01*
X191441973Y-67186699D01*
X191369574Y-67496400D01*
X191312468Y-67810925D01*
X191270397Y-68131337D01*
X191250854Y-68345054D01*
X191247467Y-68401600D01*
X191244744Y-68471596D01*
X191242685Y-68552140D01*
X191241288Y-68640330D01*
X191240553Y-68733263D01*
X191240479Y-68828036D01*
X191241064Y-68921747D01*
X191242309Y-69011494D01*
X191244212Y-69094375D01*
X191246773Y-69167486D01*
X191249990Y-69227926D01*
X191251122Y-69243658D01*
X191283308Y-69563862D01*
X191329614Y-69876686D01*
X191390396Y-70183485D01*
X191466012Y-70485616D01*
X191556817Y-70784434D01*
X191663168Y-71081294D01*
X191785421Y-71377553D01*
X191849335Y-71518823D01*
X191947612Y-71718292D01*
X192058341Y-71921752D01*
X192179360Y-72125841D01*
X192308505Y-72327199D01*
X192443614Y-72522464D01*
X192582523Y-72708274D01*
X192723070Y-72881270D01*
X192735458Y-72895784D01*
X192820635Y-72992746D01*
X192913556Y-73094191D01*
X193011519Y-73197390D01*
X193111824Y-73299611D01*
X193211770Y-73398124D01*
X193308655Y-73490200D01*
X193399779Y-73573109D01*
X193442115Y-73610082D01*
X193558606Y-73710196D01*
X193499822Y-73768395D01*
X193441038Y-73826594D01*
X193321499Y-73722154D01*
X193214054Y-73625443D01*
X193101032Y-73518508D01*
X192985641Y-73404639D01*
X192871089Y-73287124D01*
X192760584Y-73169250D01*
X192657333Y-73054308D01*
X192567680Y-72949370D01*
X192369170Y-72697203D01*
X192183563Y-72435118D01*
X192011169Y-72163841D01*
X191852299Y-71884097D01*
X191707263Y-71596611D01*
X191576371Y-71302109D01*
X191459934Y-71001315D01*
X191358261Y-70694956D01*
X191271663Y-70383757D01*
X191200451Y-70068442D01*
X191144933Y-69749738D01*
X191120232Y-69565177D01*
X191095120Y-69304712D01*
X191080498Y-69035840D01*
X191076364Y-68762874D01*
X191082718Y-68490125D01*
X191099557Y-68221908D01*
X191120694Y-68012521D01*
X191167047Y-67692557D01*
X191229468Y-67374951D01*
X191307646Y-67061102D01*
X191399398Y-66758069D01*
X191511407Y-66444379D01*
X191637388Y-66139422D01*
X191777321Y-65843231D01*
X191931187Y-65555841D01*
X192098965Y-65277285D01*
X192280635Y-65007598D01*
X192476179Y-64746815D01*
X192685575Y-64494968D01*
X192782938Y-64386070D01*
X193009055Y-64150839D01*
X193246132Y-63927789D01*
X193493695Y-63717223D01*
X193751272Y-63519443D01*
X194018387Y-63334751D01*
X194294568Y-63163449D01*
X194579340Y-63005841D01*
X194872229Y-62862227D01*
X195172762Y-62732911D01*
X195480464Y-62618195D01*
X195633963Y-62567326D01*
X195847355Y-62503301D01*
X196059625Y-62447547D01*
X196273635Y-62399522D01*
X196492246Y-62358685D01*
X196718320Y-62324494D01*
X196954719Y-62296408D01*
X197171483Y-62276480D01*
X197217935Y-62273622D01*
X197278117Y-62271285D01*
X197349275Y-62269468D01*
X197428658Y-62268172D01*
X197513516Y-62267397D01*
X197601097Y-62267142D01*
X197688648Y-62267407D01*
G37*
D13*
%TO.C,CGPS_2*%
X182614582Y-82040000D02*
X182830254Y-82040000D01*
X182614582Y-82760000D02*
X182830254Y-82760000D01*
%TO.C,C16*%
X203112164Y-81040000D02*
X203327836Y-81040000D01*
X203112164Y-81760000D02*
X203327836Y-81760000D01*
%TO.C,C14*%
X199040000Y-91812164D02*
X199040000Y-92027836D01*
X199760000Y-91812164D02*
X199760000Y-92027836D01*
%TO.C,Div_res_bat1*%
X203420000Y-94446359D02*
X203420000Y-94753641D01*
X204180000Y-94446359D02*
X204180000Y-94753641D01*
D16*
%TO.C,J1*%
X181566000Y-86215000D02*
X176564000Y-86215000D01*
X188316000Y-86215000D02*
X187314000Y-86215000D01*
X188990000Y-91665000D02*
X188990000Y-89565000D01*
X188990000Y-97565000D02*
X188990000Y-94665000D01*
X188990000Y-100265000D02*
X175890000Y-100265000D01*
D14*
X184920000Y-100715000D02*
G75*
G02*
X184720000Y-100715000I-100000J0D01*
G01*
X184720000Y-100715000D02*
G75*
G02*
X184920000Y-100715000I100000J0D01*
G01*
D13*
%TO.C,U3*%
X196460000Y-82570000D02*
X197110000Y-82570000D01*
X196460000Y-83220000D02*
X196460000Y-82570000D01*
X196460000Y-89140000D02*
X196460000Y-89790000D01*
X196460000Y-89790000D02*
X197110000Y-89790000D01*
X203030000Y-82570000D02*
X203440000Y-82570000D01*
X203680000Y-83220000D02*
X203680000Y-82870000D01*
X203680000Y-89140000D02*
X203680000Y-89790000D01*
X203680000Y-89790000D02*
X203030000Y-89790000D01*
X204010000Y-82810000D02*
X203680000Y-82570000D01*
X204010000Y-82330000D01*
X204010000Y-82810000D01*
G36*
X204010000Y-82810000D02*
G01*
X203680000Y-82570000D01*
X204010000Y-82330000D01*
X204010000Y-82810000D01*
G37*
%TO.C,RL_2*%
X201820000Y-99328641D02*
X201820000Y-99021359D01*
X202580000Y-99328641D02*
X202580000Y-99021359D01*
%TO.C,CGPS_3*%
X182617001Y-83046049D02*
X182832673Y-83046049D01*
X182617001Y-83766049D02*
X182832673Y-83766049D01*
%TO.C,R_RST1*%
X191846359Y-87820000D02*
X192153641Y-87820000D01*
X191846359Y-88580000D02*
X192153641Y-88580000D01*
%TO.C,CGPS_1*%
X182614582Y-81040000D02*
X182830254Y-81040000D01*
X182614582Y-81760000D02*
X182830254Y-81760000D01*
%TO.C,CPS_1*%
X215838748Y-90402500D02*
X216361252Y-90402500D01*
X215838748Y-91872500D02*
X216361252Y-91872500D01*
D16*
%TO.C,U5*%
X173900000Y-77527500D02*
X173900000Y-70547500D01*
X184300000Y-77527500D02*
X184300000Y-70547500D01*
D14*
X174650000Y-80787500D02*
G75*
G02*
X174450000Y-80787500I-100000J0D01*
G01*
X174450000Y-80787500D02*
G75*
G02*
X174650000Y-80787500I100000J0D01*
G01*
D13*
%TO.C,C11*%
X203292164Y-90640000D02*
X203507836Y-90640000D01*
X203292164Y-91360000D02*
X203507836Y-91360000D01*
%TO.C,D1*%
X199465000Y-95587500D02*
X199465000Y-97872500D01*
X199465000Y-97872500D02*
X200935000Y-97872500D01*
X200935000Y-97872500D02*
X200935000Y-95587500D01*
%TO.C,RI2C_1*%
X200626359Y-78497500D02*
X200933641Y-78497500D01*
X200626359Y-79257500D02*
X200933641Y-79257500D01*
%TO.C,RFLASH_1*%
X212455000Y-68406359D02*
X212455000Y-68713641D01*
X213215000Y-68406359D02*
X213215000Y-68713641D01*
%TO.C,RI2C_3*%
X193720000Y-81243641D02*
X193720000Y-80936359D01*
X194480000Y-81243641D02*
X194480000Y-80936359D01*
%TO.C,RFLASH_2*%
X212455000Y-70446359D02*
X212455000Y-70753641D01*
X213215000Y-70446359D02*
X213215000Y-70753641D01*
D16*
%TO.C,Y1*%
X191875000Y-85185000D02*
X191875000Y-85015000D01*
X194375000Y-85185000D02*
X194375000Y-85015000D01*
D14*
X195370000Y-86250000D02*
G75*
G02*
X195170000Y-86250000I-100000J0D01*
G01*
X195170000Y-86250000D02*
G75*
G02*
X195370000Y-86250000I100000J0D01*
G01*
D13*
%TO.C,D2*%
X201465000Y-95587500D02*
X201465000Y-97872500D01*
X201465000Y-97872500D02*
X202935000Y-97872500D01*
X202935000Y-97872500D02*
X202935000Y-95587500D01*
%TO.C,CPS_2*%
X215838748Y-92632500D02*
X216361252Y-92632500D01*
X215838748Y-94102500D02*
X216361252Y-94102500D01*
%TO.C,J3*%
X213870000Y-85370000D02*
X214320000Y-85770000D01*
X213870000Y-86170000D02*
X213870000Y-85370000D01*
X214320000Y-85770000D02*
X213870000Y-86170000D01*
X217120000Y-80320000D02*
X215570000Y-80320000D01*
X217120000Y-80620000D02*
X217120000Y-80320000D01*
X217120000Y-88620000D02*
X215570000Y-88620000D01*
X217120000Y-88620000D02*
X217120000Y-88320000D01*
X219920000Y-80620000D02*
X217120000Y-80620000D01*
X219920000Y-88320000D02*
X217120000Y-88320000D01*
%TO.C,J5*%
X214210000Y-73820000D02*
X214210000Y-79120000D01*
X214210000Y-75200000D02*
X215210000Y-75200000D01*
X214210000Y-75450000D02*
X215210000Y-75450000D01*
X214210000Y-77490000D02*
X215210000Y-77490000D01*
X214210000Y-79120000D02*
X220230000Y-79120000D01*
X215210000Y-75200000D02*
X215210000Y-77740000D01*
X215210000Y-75200000D02*
X215740000Y-75450000D01*
X215210000Y-77740000D02*
X214210000Y-77740000D01*
X215740000Y-75450000D02*
X215740000Y-77490000D01*
X215740000Y-77490000D02*
X215210000Y-77740000D01*
X219200000Y-73530000D02*
X215200000Y-73530000D01*
X219630000Y-74400000D02*
X219630000Y-76000000D01*
X219630000Y-76000000D02*
X220230000Y-76000000D01*
X219630000Y-76940000D02*
X219630000Y-78540000D01*
X219630000Y-78540000D02*
X220230000Y-78540000D01*
X220230000Y-73820000D02*
X214210000Y-73820000D01*
X220230000Y-74400000D02*
X219630000Y-74400000D01*
X220230000Y-76940000D02*
X219630000Y-76940000D01*
X220230000Y-79120000D02*
X220230000Y-73820000D01*
%TO.C,RL_1*%
X199820000Y-99328641D02*
X199820000Y-99021359D01*
X200580000Y-99328641D02*
X200580000Y-99021359D01*
D14*
%TO.C,U7*%
X146530000Y-90000000D02*
X146530000Y-80800000D01*
X153060000Y-73210000D02*
X146530000Y-80800000D01*
X153060000Y-73210000D02*
X179470000Y-73210000D01*
X153060000Y-97590000D02*
X146530000Y-90000000D01*
X179470000Y-73210000D02*
X179470000Y-97590000D01*
X179470000Y-97590000D02*
X153060000Y-97590000D01*
D13*
%TO.C,Div_res_bat2*%
X202846359Y-92420000D02*
X203153641Y-92420000D01*
X202846359Y-93180000D02*
X203153641Y-93180000D01*
D16*
%TO.C,AE1*%
X187113500Y-61100000D02*
X188886500Y-61100000D01*
X187113500Y-62900000D02*
X188886500Y-62900000D01*
D14*
X185550000Y-62500000D02*
G75*
G02*
X185350000Y-62500000I-100000J0D01*
G01*
X185350000Y-62500000D02*
G75*
G02*
X185550000Y-62500000I100000J0D01*
G01*
D13*
%TO.C,U6*%
X206610000Y-76970000D02*
X206880000Y-76970000D01*
X206610000Y-79730000D02*
X206610000Y-76970000D01*
X206610000Y-79730000D02*
X206610000Y-82490000D01*
X206610000Y-82490000D02*
X206880000Y-82490000D01*
X212130000Y-76970000D02*
X211860000Y-76970000D01*
X212130000Y-79730000D02*
X212130000Y-76970000D01*
X212130000Y-79730000D02*
X212130000Y-82490000D01*
X212130000Y-82490000D02*
X211860000Y-82490000D01*
X212190000Y-76445000D02*
X211860000Y-76205000D01*
X212190000Y-75965000D01*
X212190000Y-76445000D01*
G36*
X212190000Y-76445000D02*
G01*
X211860000Y-76205000D01*
X212190000Y-75965000D01*
X212190000Y-76445000D01*
G37*
D14*
%TO.C,S2*%
X190125000Y-91950000D02*
X190125000Y-91950000D01*
X190125000Y-91950000D02*
X190125000Y-91950000D01*
X190225000Y-91950000D02*
X190225000Y-91950000D01*
X191125000Y-92825000D02*
X191125000Y-93225000D01*
X192225000Y-91425000D02*
X194225000Y-91425000D01*
X192225000Y-94625000D02*
X194225000Y-94625000D01*
X195325000Y-92825000D02*
X195325000Y-93225000D01*
X190125000Y-91950000D02*
G75*
G02*
X190225000Y-91950000I50000J0D01*
G01*
X190225000Y-91950000D02*
G75*
G02*
X190125000Y-91950000I-50000J0D01*
G01*
X190225000Y-91950000D02*
G75*
G02*
X190125000Y-91950000I-50000J0D01*
G01*
D13*
%TO.C,U2*%
X207460000Y-89910000D02*
X207460000Y-91170000D01*
X207460000Y-96730000D02*
X207460000Y-95470000D01*
X211220000Y-89910000D02*
X207460000Y-89910000D01*
X211220000Y-96730000D02*
X207460000Y-96730000D01*
X212740000Y-96960000D02*
X212260000Y-96960000D01*
X212500000Y-96630000D01*
X212740000Y-96960000D01*
G36*
X212740000Y-96960000D02*
G01*
X212260000Y-96960000D01*
X212500000Y-96630000D01*
X212740000Y-96960000D01*
G37*
%TD*%
M02*
