%TF.GenerationSoftware,KiCad,Pcbnew,9.0.6*%
%TF.CreationDate,2026-01-07T02:43:44-03:00*%
%TF.ProjectId,flight_comp_srad-2026,666c6967-6874-45f6-936f-6d705f737261,rev?*%
%TF.SameCoordinates,Original*%
%TF.FileFunction,Plated,1,4,PTH,Mixed*%
%TF.FilePolarity,Positive*%
%FSLAX46Y46*%
G04 Gerber Fmt 4.6, Leading zero omitted, Abs format (unit mm)*
G04 Created by KiCad (PCBNEW 9.0.6) date 2026-01-07 02:43:44*
%MOMM*%
%LPD*%
G01*
G04 APERTURE LIST*
%TA.AperFunction,ViaDrill*%
%ADD10C,0.200000*%
%TD*%
%TA.AperFunction,ComponentDrill*%
%ADD11C,0.200000*%
%TD*%
%TA.AperFunction,ViaDrill*%
%ADD12C,0.300000*%
%TD*%
G04 aperture for slot hole*
%TA.AperFunction,ComponentDrill*%
%ADD13C,0.650000*%
%TD*%
G04 aperture for slot hole*
%TA.AperFunction,ComponentDrill*%
%ADD14C,0.700000*%
%TD*%
%TA.AperFunction,ComponentDrill*%
%ADD15C,0.800000*%
%TD*%
%TA.AperFunction,ComponentDrill*%
%ADD16C,1.000000*%
%TD*%
G04 APERTURE END LIST*
D10*
X157000000Y-93600000D03*
X177100000Y-97600000D03*
X178200000Y-91000000D03*
X178200000Y-97600000D03*
X180400000Y-91000000D03*
X180500000Y-97600000D03*
X180800000Y-82400000D03*
X181800000Y-100000000D03*
X182600000Y-91000000D03*
X183400000Y-97800000D03*
X187200000Y-94200000D03*
X188600000Y-75200000D03*
X189000000Y-95100000D03*
X189800000Y-77000000D03*
X189853554Y-76253554D03*
X190200000Y-88099000D03*
X190600000Y-72400000D03*
X190800000Y-86600000D03*
X192600000Y-80800000D03*
X194200000Y-79000000D03*
X194600000Y-71000000D03*
X194700000Y-89300000D03*
X195200000Y-84000000D03*
X195653554Y-86480000D03*
X195656349Y-87108310D03*
X195700000Y-89007108D03*
X196200000Y-81300000D03*
X197500000Y-87000000D03*
X197500000Y-87700000D03*
X198000000Y-76000000D03*
X198000000Y-76600000D03*
X198400000Y-72600000D03*
X198700000Y-81700000D03*
X198800000Y-75800000D03*
X199300000Y-81700000D03*
X199550000Y-93170000D03*
X200150000Y-92200000D03*
X200280000Y-77787500D03*
X200600000Y-70400000D03*
X200670000Y-79877500D03*
X201200000Y-72000000D03*
X202000000Y-77600000D03*
X202600000Y-65400000D03*
X203200000Y-78500000D03*
X203200000Y-91800000D03*
X203800000Y-96000000D03*
X204200000Y-91800000D03*
X204500000Y-86000000D03*
X204500000Y-86600000D03*
X204500000Y-88000000D03*
X204500000Y-88900000D03*
X204500000Y-89600000D03*
X206380000Y-76157500D03*
X206600000Y-68600000D03*
X206800000Y-86200000D03*
X207200000Y-88600000D03*
X208110000Y-91487500D03*
X208110000Y-92487500D03*
X208110000Y-93487500D03*
X208110000Y-94487500D03*
X208110000Y-95487500D03*
X209110000Y-90987500D03*
X209110000Y-91987500D03*
X209110000Y-92987500D03*
X209110000Y-93987500D03*
X209110000Y-94987500D03*
X209620000Y-86300000D03*
X211030000Y-98287500D03*
X211530000Y-99287500D03*
X212030000Y-98287500D03*
X212530000Y-99287500D03*
X212700000Y-89200000D03*
X212825000Y-67150000D03*
X213030000Y-98287500D03*
X213530000Y-99287500D03*
X214030000Y-98287500D03*
X214530000Y-99287500D03*
X214925000Y-68270000D03*
X219095000Y-68210000D03*
X219120000Y-90617500D03*
X219120000Y-91617500D03*
X219120000Y-92617500D03*
X219120000Y-93617500D03*
X220120000Y-90117500D03*
X220120000Y-91117500D03*
X220120000Y-92117500D03*
X220120000Y-93117500D03*
D11*
%TO.C,U3*%
X198720000Y-84830000D03*
X198720000Y-87530000D03*
X201420000Y-84830000D03*
X201420000Y-87530000D03*
%TD*%
D12*
X186900000Y-80600000D03*
D13*
%TO.C,J3*%
X215100000Y-82050000D02*
X215500000Y-82050000D01*
X215100000Y-86890000D02*
X215500000Y-86890000D01*
D14*
X218050000Y-81740000D02*
X218550000Y-81740000D01*
X218050000Y-87200000D02*
X218550000Y-87200000D01*
D15*
%TO.C,U7*%
X154250000Y-74400000D03*
X154250000Y-96400000D03*
X156250000Y-74400000D03*
X156250000Y-96400000D03*
X158250000Y-74400000D03*
X158250000Y-96400000D03*
X160250000Y-74400000D03*
X160250000Y-96400000D03*
X162250000Y-74400000D03*
X162250000Y-96400000D03*
X164250000Y-74400000D03*
X164250000Y-96400000D03*
X166250000Y-74400000D03*
X166250000Y-96400000D03*
X168250000Y-74400000D03*
X168250000Y-96400000D03*
X170250000Y-74400000D03*
X170250000Y-96400000D03*
X172250000Y-74400000D03*
X172250000Y-96400000D03*
D16*
%TO.C,J2*%
X192020000Y-98700000D03*
X194560000Y-98700000D03*
X197100000Y-98700000D03*
%TO.C,J5*%
X217200000Y-75200000D03*
X217200000Y-77740000D03*
M02*
