%TF.GenerationSoftware,KiCad,Pcbnew,9.0.4*%
%TF.CreationDate,2026-02-10T01:04:34-03:00*%
%TF.ProjectId,flight_comp_srad-2026,666c6967-6874-45f6-936f-6d705f737261,rev?*%
%TF.SameCoordinates,Original*%
%TF.FileFunction,Copper,L2,Inr*%
%TF.FilePolarity,Positive*%
%FSLAX46Y46*%
G04 Gerber Fmt 4.6, Leading zero omitted, Abs format (unit mm)*
G04 Created by KiCad (PCBNEW 9.0.4) date 2026-02-10 01:04:34*
%MOMM*%
%LPD*%
G01*
G04 APERTURE LIST*
%TA.AperFunction,ComponentPad*%
%ADD10R,2.000000X2.000000*%
%TD*%
%TA.AperFunction,ComponentPad*%
%ADD11C,2.000000*%
%TD*%
%TA.AperFunction,HeatsinkPad*%
%ADD12C,0.500000*%
%TD*%
%TA.AperFunction,HeatsinkPad*%
%ADD13O,1.700000X1.350000*%
%TD*%
%TA.AperFunction,HeatsinkPad*%
%ADD14O,1.500000X1.100000*%
%TD*%
%TA.AperFunction,ComponentPad*%
%ADD15R,1.400000X1.400000*%
%TD*%
%TA.AperFunction,ComponentPad*%
%ADD16C,1.400000*%
%TD*%
%TA.AperFunction,ViaPad*%
%ADD17C,0.400000*%
%TD*%
%TA.AperFunction,ViaPad*%
%ADD18C,0.800000*%
%TD*%
%TA.AperFunction,ViaPad*%
%ADD19C,0.600000*%
%TD*%
%TA.AperFunction,ViaPad*%
%ADD20C,0.300000*%
%TD*%
%TA.AperFunction,ViaPad*%
%ADD21C,1.000000*%
%TD*%
G04 APERTURE END LIST*
D10*
%TO.N,GND*%
%TO.C,J2*%
X191320000Y-98700000D03*
D11*
%TO.N,/SWDIO*%
X193860000Y-98700000D03*
%TO.N,/SWCLK*%
X196400000Y-98700000D03*
%TD*%
D12*
%TO.N,GND*%
%TO.C,U3*%
X201420000Y-84830000D03*
X198720000Y-84830000D03*
X201420000Y-87530000D03*
X198720000Y-87530000D03*
%TD*%
D13*
%TO.N,GND*%
%TO.C,J3*%
X218915000Y-80355000D03*
D14*
X215915000Y-80045000D03*
X215915000Y-75205000D03*
D13*
X218915000Y-74895000D03*
%TD*%
D10*
%TO.N,VBUS*%
%TO.C,J5*%
X217680000Y-84430000D03*
D11*
%TO.N,GND*%
X217680000Y-86970000D03*
%TD*%
D15*
%TO.N,+3V3*%
%TO.C,U7*%
X154250000Y-96400000D03*
D16*
%TO.N,/UART_Rx0*%
X156250000Y-96400000D03*
%TO.N,/UART_Tx0*%
X158250000Y-96400000D03*
%TO.N,unconnected-(U7-DIO12{slash}SPI_MISO-Pad4)*%
X160250000Y-96400000D03*
%TO.N,unconnected-(U7-~{RESET}-Pad5)*%
X162250000Y-96400000D03*
%TO.N,unconnected-(U7-DIO10{slash}PWM0-Pad6)*%
X164250000Y-96400000D03*
%TO.N,unconnected-(U7-DIO11{slash}PWM1-Pad7)*%
X166250000Y-96400000D03*
%TO.N,N/C*%
X168250000Y-96400000D03*
%TO.N,unconnected-(U7-NDTR{slash}SLEEP_RQ{slash}DIO8-Pad9)*%
X170250000Y-96400000D03*
%TO.N,GND*%
X172250000Y-96400000D03*
%TO.N,unconnected-(U7-DIO4{slash}SPI_MOSI-Pad11)*%
X172250000Y-74400000D03*
%TO.N,unconnected-(U7-NCTS{slash}DIO7-Pad12)*%
X170250000Y-74400000D03*
%TO.N,unconnected-(U7-ON_NSLEEP{slash}DIO9-Pad13)*%
X168250000Y-74400000D03*
%TO.N,GND*%
X166250000Y-74400000D03*
%TO.N,unconnected-(U7-ASSOCIATE{slash}DIO5-Pad15)*%
X164250000Y-74400000D03*
%TO.N,unconnected-(U7-NRTS{slash}DIO6-Pad16)*%
X162250000Y-74400000D03*
%TO.N,unconnected-(U7-AD3{slash}DIO3{slash}SPI_NSSEL-Pad17)*%
X160250000Y-74400000D03*
%TO.N,unconnected-(U7-AD2{slash}DIO2{slash}SPI_CLK-Pad18)*%
X158250000Y-74400000D03*
%TO.N,unconnected-(U7-AD1{slash}DIO1{slash}SPI_NATTN-Pad19)*%
X156250000Y-74400000D03*
%TO.N,unconnected-(U7-AD0{slash}DIO0-Pad20)*%
X154250000Y-74400000D03*
%TD*%
D17*
%TO.N,GND*%
X192107106Y-81300000D03*
X193720000Y-86500000D03*
X194300000Y-84800000D03*
%TO.N,/XIN*%
X195596446Y-85403554D03*
%TO.N,+1V1*%
X195400000Y-87700000D03*
D18*
%TO.N,GND*%
X214200000Y-99000000D03*
X214200000Y-97800000D03*
%TO.N,VBUS*%
X219000000Y-89400000D03*
D19*
X203400000Y-92400000D03*
D18*
X217600000Y-89400000D03*
X220400000Y-89400000D03*
D19*
X205800000Y-92400000D03*
D18*
X219700000Y-90600000D03*
X218300000Y-90600000D03*
D17*
%TO.N,/SD_DAT0*%
X178200000Y-97600000D03*
X187200000Y-94200000D03*
D19*
%TO.N,GND*%
X202000000Y-95100000D03*
D20*
X181383094Y-63491754D03*
D18*
X214200000Y-96600000D03*
D17*
X214925000Y-68270000D03*
D20*
X183433094Y-64341754D03*
D17*
X219095000Y-68210000D03*
X204000000Y-63400000D03*
D20*
X183840000Y-61660000D03*
X189600000Y-65100000D03*
D19*
X207200000Y-86200000D03*
D17*
X198800000Y-75800000D03*
D20*
X181183094Y-65841754D03*
D17*
X157000000Y-93600000D03*
X182600000Y-91000000D03*
D20*
X190280000Y-61440000D03*
X190250000Y-64850000D03*
D17*
X189800000Y-77000000D03*
X206600000Y-68600000D03*
D20*
X188850000Y-65100000D03*
X185420000Y-63620000D03*
X181183094Y-65041754D03*
X190270000Y-64170000D03*
X190260000Y-62830000D03*
D17*
X200600000Y-70400000D03*
D20*
X181850000Y-62810000D03*
D17*
X206380000Y-76157500D03*
D20*
X183083094Y-61891754D03*
X184650000Y-61620000D03*
X183280000Y-67430000D03*
D17*
X199170000Y-93872894D03*
D20*
X181183094Y-66641754D03*
X183283094Y-65041754D03*
X190280000Y-62150000D03*
X183170000Y-68000000D03*
X181260000Y-68010000D03*
X185800000Y-64900000D03*
D17*
X194600000Y-71000000D03*
X188600000Y-75200000D03*
D20*
X185300000Y-61570000D03*
X181180000Y-67430000D03*
D19*
X207500000Y-88600000D03*
D20*
X188050000Y-65100000D03*
X187250000Y-65100000D03*
D17*
X202000000Y-77600000D03*
D20*
X185630000Y-61060000D03*
X184700000Y-63610000D03*
X183283094Y-66641754D03*
X181183094Y-64241754D03*
D18*
X214200000Y-95400000D03*
D20*
X183960000Y-63760000D03*
X182383094Y-62241754D03*
X190270000Y-63460000D03*
X186450000Y-65100000D03*
X185700000Y-64200000D03*
X183283094Y-65841754D03*
D17*
%TO.N,/SD_CLK*%
X180500000Y-97600000D03*
%TO.N,/SD_CMD*%
X183400000Y-97800000D03*
X189000000Y-95100000D03*
%TO.N,/SD_DAT1*%
X177100000Y-97600000D03*
%TO.N,/IIM_CS1*%
X198000000Y-76000000D03*
%TO.N,/IIM_MOSI1*%
X196200000Y-81300000D03*
%TO.N,/IIM_SCLK1*%
X198000000Y-76600000D03*
%TO.N,/IIM_MISO1*%
X198700000Y-81700000D03*
%TO.N,/UART_Rx0*%
X195699958Y-89792935D03*
%TO.N,+3V3*%
X196800000Y-71000000D03*
X194200000Y-79000000D03*
X212825000Y-67150000D03*
X204500000Y-88900000D03*
X181800000Y-100000000D03*
D18*
X211300000Y-89600000D03*
D17*
X203200000Y-78500000D03*
X195417484Y-86717484D03*
X210000000Y-86300000D03*
X202900000Y-91000000D03*
D18*
X213500000Y-88000000D03*
D17*
X193000000Y-80500000D03*
X204500000Y-86600000D03*
X178200000Y-91000000D03*
D18*
X213400000Y-86900000D03*
X211300000Y-90400000D03*
D17*
X199200000Y-91100000D03*
X201200000Y-72000000D03*
X199300000Y-81700000D03*
X189853554Y-76253554D03*
X190000000Y-89300000D03*
D21*
X186000000Y-80600000D03*
D18*
X211300000Y-88800000D03*
X200900000Y-96100000D03*
X212300000Y-88000000D03*
D17*
X180800000Y-82400000D03*
X190600000Y-72400000D03*
X180400000Y-91000000D03*
X204500000Y-89600000D03*
%TO.N,+1V1*%
X204500000Y-86000000D03*
X204500000Y-88000000D03*
%TO.N,/SWCLK*%
X197500000Y-87000000D03*
%TO.N,/SWDIO*%
X197500000Y-87700000D03*
%TO.N,/UART_Tx0*%
X195112189Y-89913477D03*
%TO.N,/ADC_BAT*%
X201800000Y-90700000D03*
%TO.N,/RP_SCL1*%
X200280000Y-77787500D03*
%TO.N,/RP_SDA1*%
X200670000Y-79877500D03*
%TO.N,NR_Reg*%
X206774971Y-90374971D03*
%TO.N,/XOUT*%
X195445349Y-85984219D03*
X188800000Y-85400000D03*
%TD*%
%TA.AperFunction,Conductor*%
%TO.N,GND*%
G36*
X220832539Y-60750185D02*
G01*
X220878294Y-60802989D01*
X220889500Y-60854500D01*
X220889500Y-88774440D01*
X220869815Y-88841479D01*
X220817011Y-88887234D01*
X220747853Y-88897178D01*
X220703501Y-88881828D01*
X220631784Y-88840423D01*
X220479057Y-88799500D01*
X220320943Y-88799500D01*
X220168216Y-88840423D01*
X220168209Y-88840426D01*
X220031290Y-88919475D01*
X220031282Y-88919481D01*
X219919481Y-89031282D01*
X219919475Y-89031290D01*
X219840426Y-89168209D01*
X219840423Y-89168214D01*
X219819775Y-89245277D01*
X219783410Y-89304937D01*
X219720563Y-89335466D01*
X219651187Y-89327171D01*
X219597309Y-89282686D01*
X219580225Y-89245277D01*
X219573581Y-89220480D01*
X219559577Y-89168216D01*
X219546701Y-89145914D01*
X219480524Y-89031290D01*
X219480518Y-89031282D01*
X219368717Y-88919481D01*
X219368709Y-88919475D01*
X219231790Y-88840426D01*
X219231786Y-88840424D01*
X219231784Y-88840423D01*
X219079057Y-88799500D01*
X218920943Y-88799500D01*
X218768216Y-88840423D01*
X218768209Y-88840426D01*
X218631290Y-88919475D01*
X218631282Y-88919481D01*
X218519481Y-89031282D01*
X218519475Y-89031290D01*
X218440426Y-89168209D01*
X218440423Y-89168214D01*
X218419775Y-89245277D01*
X218383410Y-89304937D01*
X218320563Y-89335466D01*
X218251187Y-89327171D01*
X218197309Y-89282686D01*
X218180225Y-89245277D01*
X218173581Y-89220480D01*
X218159577Y-89168216D01*
X218146701Y-89145914D01*
X218080524Y-89031290D01*
X218080518Y-89031282D01*
X217968717Y-88919481D01*
X217968709Y-88919475D01*
X217831790Y-88840426D01*
X217831786Y-88840424D01*
X217831784Y-88840423D01*
X217679057Y-88799500D01*
X217520943Y-88799500D01*
X217368216Y-88840423D01*
X217368209Y-88840426D01*
X217231290Y-88919475D01*
X217231282Y-88919481D01*
X217119481Y-89031282D01*
X217119475Y-89031290D01*
X217040426Y-89168209D01*
X217040424Y-89168214D01*
X217040423Y-89168216D01*
X216999500Y-89320943D01*
X216999500Y-89479057D01*
X217030031Y-89592998D01*
X217040423Y-89631783D01*
X217040426Y-89631790D01*
X217119475Y-89768709D01*
X217119479Y-89768714D01*
X217119480Y-89768716D01*
X217231284Y-89880520D01*
X217231286Y-89880521D01*
X217231290Y-89880524D01*
X217300497Y-89920480D01*
X217368216Y-89959577D01*
X217520943Y-90000500D01*
X217520945Y-90000500D01*
X217679055Y-90000500D01*
X217679057Y-90000500D01*
X217739131Y-89984403D01*
X217808979Y-89986065D01*
X217866842Y-90025226D01*
X217894347Y-90089454D01*
X217882761Y-90158357D01*
X217858906Y-90191857D01*
X217819481Y-90231282D01*
X217819475Y-90231290D01*
X217740426Y-90368209D01*
X217740424Y-90368214D01*
X217740423Y-90368216D01*
X217699500Y-90520943D01*
X217699500Y-90679057D01*
X217723525Y-90768717D01*
X217740423Y-90831783D01*
X217740426Y-90831790D01*
X217819475Y-90968709D01*
X217819479Y-90968714D01*
X217819480Y-90968716D01*
X217931284Y-91080520D01*
X217931286Y-91080521D01*
X217931290Y-91080524D01*
X218056351Y-91152727D01*
X218068216Y-91159577D01*
X218220943Y-91200500D01*
X218220945Y-91200500D01*
X218379055Y-91200500D01*
X218379057Y-91200500D01*
X218531784Y-91159577D01*
X218668716Y-91080520D01*
X218780520Y-90968716D01*
X218859577Y-90831784D01*
X218880225Y-90754721D01*
X218916590Y-90695062D01*
X218979437Y-90664533D01*
X219048812Y-90672828D01*
X219102690Y-90717313D01*
X219119774Y-90754720D01*
X219140423Y-90831783D01*
X219140426Y-90831790D01*
X219219475Y-90968709D01*
X219219479Y-90968714D01*
X219219480Y-90968716D01*
X219331284Y-91080520D01*
X219331286Y-91080521D01*
X219331290Y-91080524D01*
X219456351Y-91152727D01*
X219468216Y-91159577D01*
X219620943Y-91200500D01*
X219620945Y-91200500D01*
X219779055Y-91200500D01*
X219779057Y-91200500D01*
X219931784Y-91159577D01*
X220068716Y-91080520D01*
X220180520Y-90968716D01*
X220259577Y-90831784D01*
X220300500Y-90679057D01*
X220300500Y-90520943D01*
X220259577Y-90368216D01*
X220235662Y-90326793D01*
X220180524Y-90231290D01*
X220180518Y-90231282D01*
X220141094Y-90191858D01*
X220107609Y-90130535D01*
X220112593Y-90060843D01*
X220154465Y-90004910D01*
X220219929Y-89980493D01*
X220260861Y-89984401D01*
X220320943Y-90000500D01*
X220320946Y-90000500D01*
X220479055Y-90000500D01*
X220479057Y-90000500D01*
X220631784Y-89959577D01*
X220703500Y-89918171D01*
X220771400Y-89901699D01*
X220837427Y-89924552D01*
X220880618Y-89979473D01*
X220889500Y-90025559D01*
X220889500Y-100105500D01*
X220869815Y-100172539D01*
X220817011Y-100218294D01*
X220765500Y-100229500D01*
X192795919Y-100229500D01*
X192728880Y-100209815D01*
X192683125Y-100157011D01*
X192673181Y-100087853D01*
X192696653Y-100031189D01*
X192763350Y-99942093D01*
X192763354Y-99942086D01*
X192813596Y-99807379D01*
X192813598Y-99807372D01*
X192819999Y-99747844D01*
X192820000Y-99747827D01*
X192820000Y-99657125D01*
X192839685Y-99590086D01*
X192892489Y-99544331D01*
X192961647Y-99534387D01*
X193025203Y-99563412D01*
X193031681Y-99569444D01*
X193077927Y-99615690D01*
X193230801Y-99726760D01*
X193310347Y-99767290D01*
X193399163Y-99812545D01*
X193399165Y-99812545D01*
X193399168Y-99812547D01*
X193495497Y-99843846D01*
X193578881Y-99870940D01*
X193765514Y-99900500D01*
X193765519Y-99900500D01*
X193954486Y-99900500D01*
X194141118Y-99870940D01*
X194320832Y-99812547D01*
X194489199Y-99726760D01*
X194642073Y-99615690D01*
X194775690Y-99482073D01*
X194886760Y-99329199D01*
X194972547Y-99160832D01*
X195012069Y-99039195D01*
X195051507Y-98981521D01*
X195115866Y-98954323D01*
X195184712Y-98966238D01*
X195236188Y-99013482D01*
X195247931Y-99039196D01*
X195287454Y-99160836D01*
X195373240Y-99329199D01*
X195484310Y-99482073D01*
X195617927Y-99615690D01*
X195770801Y-99726760D01*
X195850347Y-99767290D01*
X195939163Y-99812545D01*
X195939165Y-99812545D01*
X195939168Y-99812547D01*
X196035497Y-99843846D01*
X196118881Y-99870940D01*
X196305514Y-99900500D01*
X196305519Y-99900500D01*
X196494486Y-99900500D01*
X196681118Y-99870940D01*
X196860832Y-99812547D01*
X197029199Y-99726760D01*
X197182073Y-99615690D01*
X197315690Y-99482073D01*
X197426760Y-99329199D01*
X197512547Y-99160832D01*
X197570940Y-98981118D01*
X197575869Y-98950000D01*
X197600500Y-98794486D01*
X197600500Y-98605513D01*
X197570940Y-98418881D01*
X197512545Y-98239163D01*
X197467290Y-98150347D01*
X197426760Y-98070801D01*
X197315690Y-97917927D01*
X197182073Y-97784310D01*
X197029199Y-97673240D01*
X196987851Y-97652172D01*
X196860836Y-97587454D01*
X196681118Y-97529059D01*
X196520878Y-97503680D01*
X196494486Y-97499500D01*
X196494481Y-97499500D01*
X196305519Y-97499500D01*
X196305514Y-97499500D01*
X196118881Y-97529059D01*
X195939163Y-97587454D01*
X195770800Y-97673240D01*
X195683579Y-97736610D01*
X195617927Y-97784310D01*
X195617925Y-97784312D01*
X195617924Y-97784312D01*
X195484312Y-97917924D01*
X195484312Y-97917925D01*
X195484310Y-97917927D01*
X195444148Y-97973205D01*
X195373240Y-98070800D01*
X195287454Y-98239163D01*
X195247931Y-98360803D01*
X195208493Y-98418478D01*
X195144134Y-98445676D01*
X195075288Y-98433761D01*
X195023812Y-98386516D01*
X195012069Y-98360803D01*
X194972545Y-98239163D01*
X194927290Y-98150347D01*
X194886760Y-98070801D01*
X194775690Y-97917927D01*
X194642073Y-97784310D01*
X194489199Y-97673240D01*
X194447851Y-97652172D01*
X194320836Y-97587454D01*
X194141118Y-97529059D01*
X193954486Y-97499500D01*
X193954481Y-97499500D01*
X193765519Y-97499500D01*
X193765514Y-97499500D01*
X193578881Y-97529059D01*
X193399163Y-97587454D01*
X193230800Y-97673240D01*
X193143579Y-97736610D01*
X193077927Y-97784310D01*
X193077925Y-97784312D01*
X193077924Y-97784312D01*
X193031681Y-97830556D01*
X192970358Y-97864041D01*
X192900666Y-97859057D01*
X192844733Y-97817185D01*
X192820316Y-97751721D01*
X192820000Y-97742875D01*
X192820000Y-97652172D01*
X192819999Y-97652155D01*
X192813598Y-97592627D01*
X192813596Y-97592620D01*
X192763354Y-97457913D01*
X192763350Y-97457906D01*
X192708965Y-97385258D01*
X216349500Y-97385258D01*
X216349500Y-97614741D01*
X216371825Y-97784310D01*
X216379452Y-97842238D01*
X216421858Y-98000500D01*
X216438842Y-98063887D01*
X216526650Y-98275876D01*
X216526657Y-98275890D01*
X216641392Y-98474617D01*
X216781081Y-98656661D01*
X216781089Y-98656670D01*
X216943330Y-98818911D01*
X216943338Y-98818918D01*
X217125382Y-98958607D01*
X217125385Y-98958608D01*
X217125388Y-98958611D01*
X217324112Y-99073344D01*
X217324117Y-99073346D01*
X217324123Y-99073349D01*
X217388704Y-99100099D01*
X217536113Y-99161158D01*
X217757762Y-99220548D01*
X217985266Y-99250500D01*
X217985273Y-99250500D01*
X218214727Y-99250500D01*
X218214734Y-99250500D01*
X218442238Y-99220548D01*
X218663887Y-99161158D01*
X218875888Y-99073344D01*
X219074612Y-98958611D01*
X219256661Y-98818919D01*
X219256665Y-98818914D01*
X219256670Y-98818911D01*
X219418911Y-98656670D01*
X219418914Y-98656665D01*
X219418919Y-98656661D01*
X219558611Y-98474612D01*
X219673344Y-98275888D01*
X219761158Y-98063887D01*
X219820548Y-97842238D01*
X219850500Y-97614734D01*
X219850500Y-97385266D01*
X219820548Y-97157762D01*
X219761158Y-96936113D01*
X219693487Y-96772741D01*
X219673349Y-96724123D01*
X219673346Y-96724117D01*
X219673344Y-96724112D01*
X219558611Y-96525388D01*
X219558608Y-96525385D01*
X219558607Y-96525382D01*
X219418918Y-96343338D01*
X219418911Y-96343330D01*
X219256670Y-96181089D01*
X219256661Y-96181081D01*
X219074617Y-96041392D01*
X218875890Y-95926657D01*
X218875876Y-95926650D01*
X218663887Y-95838842D01*
X218442238Y-95779452D01*
X218404215Y-95774446D01*
X218214741Y-95749500D01*
X218214734Y-95749500D01*
X217985266Y-95749500D01*
X217985258Y-95749500D01*
X217768715Y-95778009D01*
X217757762Y-95779452D01*
X217664076Y-95804554D01*
X217536112Y-95838842D01*
X217324123Y-95926650D01*
X217324109Y-95926657D01*
X217125382Y-96041392D01*
X216943338Y-96181081D01*
X216781081Y-96343338D01*
X216641392Y-96525382D01*
X216526657Y-96724109D01*
X216526650Y-96724123D01*
X216438842Y-96936112D01*
X216379453Y-97157759D01*
X216379451Y-97157770D01*
X216349500Y-97385258D01*
X192708965Y-97385258D01*
X192677190Y-97342812D01*
X192677187Y-97342809D01*
X192562093Y-97256649D01*
X192562086Y-97256645D01*
X192427379Y-97206403D01*
X192427372Y-97206401D01*
X192367844Y-97200000D01*
X191570000Y-97200000D01*
X191570000Y-98266988D01*
X191512993Y-98234075D01*
X191385826Y-98200000D01*
X191254174Y-98200000D01*
X191127007Y-98234075D01*
X191070000Y-98266988D01*
X191070000Y-97200000D01*
X190272155Y-97200000D01*
X190212627Y-97206401D01*
X190212620Y-97206403D01*
X190077913Y-97256645D01*
X190077906Y-97256649D01*
X189962812Y-97342809D01*
X189962809Y-97342812D01*
X189876649Y-97457906D01*
X189876645Y-97457913D01*
X189826403Y-97592620D01*
X189826401Y-97592627D01*
X189820000Y-97652155D01*
X189820000Y-98450000D01*
X190886988Y-98450000D01*
X190854075Y-98507007D01*
X190820000Y-98634174D01*
X190820000Y-98765826D01*
X190854075Y-98892993D01*
X190886988Y-98950000D01*
X189820000Y-98950000D01*
X189820000Y-99747844D01*
X189826401Y-99807372D01*
X189826403Y-99807379D01*
X189876645Y-99942086D01*
X189876649Y-99942093D01*
X189943347Y-100031189D01*
X189967765Y-100096653D01*
X189952914Y-100164926D01*
X189903509Y-100214332D01*
X189844081Y-100229500D01*
X182314734Y-100229500D01*
X182247695Y-100209815D01*
X182201940Y-100157011D01*
X182191996Y-100087853D01*
X182194959Y-100073409D01*
X182200499Y-100052731D01*
X182200500Y-100052725D01*
X182200500Y-99947275D01*
X182200500Y-99947273D01*
X182173207Y-99845413D01*
X182120480Y-99754087D01*
X182045913Y-99679520D01*
X181954587Y-99626793D01*
X181852727Y-99599500D01*
X181747273Y-99599500D01*
X181645413Y-99626793D01*
X181645410Y-99626794D01*
X181554085Y-99679521D01*
X181479521Y-99754085D01*
X181426794Y-99845410D01*
X181426793Y-99845413D01*
X181399500Y-99947273D01*
X181399500Y-100052731D01*
X181405041Y-100073409D01*
X181403377Y-100143259D01*
X181364214Y-100201120D01*
X181299985Y-100228623D01*
X181285266Y-100229500D01*
X151514500Y-100229500D01*
X151447461Y-100209815D01*
X151401706Y-100157011D01*
X151390500Y-100105500D01*
X151390500Y-95680247D01*
X153349500Y-95680247D01*
X153349500Y-97119752D01*
X153361131Y-97178229D01*
X153361132Y-97178230D01*
X153405447Y-97244552D01*
X153471769Y-97288867D01*
X153471770Y-97288868D01*
X153530247Y-97300499D01*
X153530250Y-97300500D01*
X153530252Y-97300500D01*
X154969750Y-97300500D01*
X154969751Y-97300499D01*
X154984568Y-97297552D01*
X155028229Y-97288868D01*
X155028229Y-97288867D01*
X155028231Y-97288867D01*
X155094552Y-97244552D01*
X155138867Y-97178231D01*
X155138867Y-97178229D01*
X155138868Y-97178229D01*
X155150499Y-97119752D01*
X155150500Y-97119750D01*
X155150500Y-96722080D01*
X155170185Y-96655041D01*
X155222989Y-96609286D01*
X155292147Y-96599342D01*
X155355703Y-96628367D01*
X155389061Y-96674628D01*
X155451983Y-96826541D01*
X155451990Y-96826553D01*
X155550535Y-96974034D01*
X155550538Y-96974038D01*
X155675961Y-97099461D01*
X155675965Y-97099464D01*
X155823446Y-97198009D01*
X155823459Y-97198016D01*
X155892937Y-97226794D01*
X155987334Y-97265894D01*
X155987336Y-97265894D01*
X155987341Y-97265896D01*
X156161304Y-97300499D01*
X156161307Y-97300500D01*
X156161309Y-97300500D01*
X156338693Y-97300500D01*
X156338694Y-97300499D01*
X156397174Y-97288867D01*
X156512658Y-97265896D01*
X156512661Y-97265894D01*
X156512666Y-97265894D01*
X156676547Y-97198013D01*
X156824035Y-97099464D01*
X156949464Y-96974035D01*
X157048013Y-96826547D01*
X157115894Y-96662666D01*
X157116509Y-96659577D01*
X157128383Y-96599882D01*
X157160768Y-96537971D01*
X157221483Y-96503397D01*
X157291253Y-96507136D01*
X157347925Y-96548003D01*
X157371617Y-96599882D01*
X157384103Y-96662658D01*
X157384106Y-96662667D01*
X157451983Y-96826540D01*
X157451990Y-96826553D01*
X157550535Y-96974034D01*
X157550538Y-96974038D01*
X157675961Y-97099461D01*
X157675965Y-97099464D01*
X157823446Y-97198009D01*
X157823459Y-97198016D01*
X157892937Y-97226794D01*
X157987334Y-97265894D01*
X157987336Y-97265894D01*
X157987341Y-97265896D01*
X158161304Y-97300499D01*
X158161307Y-97300500D01*
X158161309Y-97300500D01*
X158338693Y-97300500D01*
X158338694Y-97300499D01*
X158397174Y-97288867D01*
X158512658Y-97265896D01*
X158512661Y-97265894D01*
X158512666Y-97265894D01*
X158676547Y-97198013D01*
X158824035Y-97099464D01*
X158949464Y-96974035D01*
X159048013Y-96826547D01*
X159115894Y-96662666D01*
X159116509Y-96659577D01*
X159128383Y-96599882D01*
X159160768Y-96537971D01*
X159221483Y-96503397D01*
X159291253Y-96507136D01*
X159347925Y-96548003D01*
X159371617Y-96599882D01*
X159384103Y-96662658D01*
X159384106Y-96662667D01*
X159451983Y-96826540D01*
X159451990Y-96826553D01*
X159550535Y-96974034D01*
X159550538Y-96974038D01*
X159675961Y-97099461D01*
X159675965Y-97099464D01*
X159823446Y-97198009D01*
X159823459Y-97198016D01*
X159892937Y-97226794D01*
X159987334Y-97265894D01*
X159987336Y-97265894D01*
X159987341Y-97265896D01*
X160161304Y-97300499D01*
X160161307Y-97300500D01*
X160161309Y-97300500D01*
X160338693Y-97300500D01*
X160338694Y-97300499D01*
X160397174Y-97288867D01*
X160512658Y-97265896D01*
X160512661Y-97265894D01*
X160512666Y-97265894D01*
X160676547Y-97198013D01*
X160824035Y-97099464D01*
X160949464Y-96974035D01*
X161048013Y-96826547D01*
X161115894Y-96662666D01*
X161116509Y-96659577D01*
X161128383Y-96599882D01*
X161160768Y-96537971D01*
X161221483Y-96503397D01*
X161291253Y-96507136D01*
X161347925Y-96548003D01*
X161371617Y-96599882D01*
X161384103Y-96662658D01*
X161384106Y-96662667D01*
X161451983Y-96826540D01*
X161451990Y-96826553D01*
X161550535Y-96974034D01*
X161550538Y-96974038D01*
X161675961Y-97099461D01*
X161675965Y-97099464D01*
X161823446Y-97198009D01*
X161823459Y-97198016D01*
X161892937Y-97226794D01*
X161987334Y-97265894D01*
X161987336Y-97265894D01*
X161987341Y-97265896D01*
X162161304Y-97300499D01*
X162161307Y-97300500D01*
X162161309Y-97300500D01*
X162338693Y-97300500D01*
X162338694Y-97300499D01*
X162397174Y-97288867D01*
X162512658Y-97265896D01*
X162512661Y-97265894D01*
X162512666Y-97265894D01*
X162676547Y-97198013D01*
X162824035Y-97099464D01*
X162949464Y-96974035D01*
X163048013Y-96826547D01*
X163115894Y-96662666D01*
X163116509Y-96659577D01*
X163128383Y-96599882D01*
X163160768Y-96537971D01*
X163221483Y-96503397D01*
X163291253Y-96507136D01*
X163347925Y-96548003D01*
X163371617Y-96599882D01*
X163384103Y-96662658D01*
X163384106Y-96662667D01*
X163451983Y-96826540D01*
X163451990Y-96826553D01*
X163550535Y-96974034D01*
X163550538Y-96974038D01*
X163675961Y-97099461D01*
X163675965Y-97099464D01*
X163823446Y-97198009D01*
X163823459Y-97198016D01*
X163892937Y-97226794D01*
X163987334Y-97265894D01*
X163987336Y-97265894D01*
X163987341Y-97265896D01*
X164161304Y-97300499D01*
X164161307Y-97300500D01*
X164161309Y-97300500D01*
X164338693Y-97300500D01*
X164338694Y-97300499D01*
X164397174Y-97288867D01*
X164512658Y-97265896D01*
X164512661Y-97265894D01*
X164512666Y-97265894D01*
X164676547Y-97198013D01*
X164824035Y-97099464D01*
X164949464Y-96974035D01*
X165048013Y-96826547D01*
X165115894Y-96662666D01*
X165116509Y-96659577D01*
X165128383Y-96599882D01*
X165160768Y-96537971D01*
X165221483Y-96503397D01*
X165291253Y-96507136D01*
X165347925Y-96548003D01*
X165371617Y-96599882D01*
X165384103Y-96662658D01*
X165384106Y-96662667D01*
X165451983Y-96826540D01*
X165451990Y-96826553D01*
X165550535Y-96974034D01*
X165550538Y-96974038D01*
X165675961Y-97099461D01*
X165675965Y-97099464D01*
X165823446Y-97198009D01*
X165823459Y-97198016D01*
X165892937Y-97226794D01*
X165987334Y-97265894D01*
X165987336Y-97265894D01*
X165987341Y-97265896D01*
X166161304Y-97300499D01*
X166161307Y-97300500D01*
X166161309Y-97300500D01*
X166338693Y-97300500D01*
X166338694Y-97300499D01*
X166397174Y-97288867D01*
X166512658Y-97265896D01*
X166512661Y-97265894D01*
X166512666Y-97265894D01*
X166676547Y-97198013D01*
X166824035Y-97099464D01*
X166949464Y-96974035D01*
X167048013Y-96826547D01*
X167115894Y-96662666D01*
X167116509Y-96659577D01*
X167128383Y-96599882D01*
X167160768Y-96537971D01*
X167221483Y-96503397D01*
X167291253Y-96507136D01*
X167347925Y-96548003D01*
X167371617Y-96599882D01*
X167384103Y-96662658D01*
X167384106Y-96662667D01*
X167451983Y-96826540D01*
X167451990Y-96826553D01*
X167550535Y-96974034D01*
X167550538Y-96974038D01*
X167675961Y-97099461D01*
X167675965Y-97099464D01*
X167823446Y-97198009D01*
X167823459Y-97198016D01*
X167892937Y-97226794D01*
X167987334Y-97265894D01*
X167987336Y-97265894D01*
X167987341Y-97265896D01*
X168161304Y-97300499D01*
X168161307Y-97300500D01*
X168161309Y-97300500D01*
X168338693Y-97300500D01*
X168338694Y-97300499D01*
X168397174Y-97288867D01*
X168512658Y-97265896D01*
X168512661Y-97265894D01*
X168512666Y-97265894D01*
X168676547Y-97198013D01*
X168824035Y-97099464D01*
X168949464Y-96974035D01*
X169048013Y-96826547D01*
X169115894Y-96662666D01*
X169116509Y-96659577D01*
X169128383Y-96599882D01*
X169160768Y-96537971D01*
X169221483Y-96503397D01*
X169291253Y-96507136D01*
X169347925Y-96548003D01*
X169371617Y-96599882D01*
X169384103Y-96662658D01*
X169384106Y-96662667D01*
X169451983Y-96826540D01*
X169451990Y-96826553D01*
X169550535Y-96974034D01*
X169550538Y-96974038D01*
X169675961Y-97099461D01*
X169675965Y-97099464D01*
X169823446Y-97198009D01*
X169823459Y-97198016D01*
X169892937Y-97226794D01*
X169987334Y-97265894D01*
X169987336Y-97265894D01*
X169987341Y-97265896D01*
X170161304Y-97300499D01*
X170161307Y-97300500D01*
X170161309Y-97300500D01*
X170338693Y-97300500D01*
X170338694Y-97300499D01*
X170397174Y-97288867D01*
X170512658Y-97265896D01*
X170512661Y-97265894D01*
X170512666Y-97265894D01*
X170607063Y-97226794D01*
X170676541Y-97198016D01*
X170676544Y-97198014D01*
X170676547Y-97198013D01*
X170824035Y-97099464D01*
X170949464Y-96974035D01*
X170971624Y-96940869D01*
X171025235Y-96896064D01*
X171094560Y-96887355D01*
X171157588Y-96917509D01*
X171185211Y-96953463D01*
X171223664Y-97028930D01*
X171242116Y-97054328D01*
X171850000Y-96446445D01*
X171850000Y-96452661D01*
X171877259Y-96554394D01*
X171929920Y-96645606D01*
X172004394Y-96720080D01*
X172095606Y-96772741D01*
X172197339Y-96800000D01*
X172203554Y-96800000D01*
X171595669Y-97407882D01*
X171595670Y-97407883D01*
X171621059Y-97426329D01*
X171789362Y-97512085D01*
X171968997Y-97570451D01*
X172155553Y-97600000D01*
X172344447Y-97600000D01*
X172531002Y-97570451D01*
X172602338Y-97547273D01*
X176699500Y-97547273D01*
X176699500Y-97652727D01*
X176726793Y-97754587D01*
X176779520Y-97845913D01*
X176854087Y-97920480D01*
X176945413Y-97973207D01*
X177047273Y-98000500D01*
X177047275Y-98000500D01*
X177152725Y-98000500D01*
X177152727Y-98000500D01*
X177254587Y-97973207D01*
X177345913Y-97920480D01*
X177420480Y-97845913D01*
X177473207Y-97754587D01*
X177500500Y-97652727D01*
X177500500Y-97547273D01*
X177799500Y-97547273D01*
X177799500Y-97652727D01*
X177826793Y-97754587D01*
X177879520Y-97845913D01*
X177954087Y-97920480D01*
X178045413Y-97973207D01*
X178147273Y-98000500D01*
X178147275Y-98000500D01*
X178252725Y-98000500D01*
X178252727Y-98000500D01*
X178354587Y-97973207D01*
X178445913Y-97920480D01*
X178520480Y-97845913D01*
X178573207Y-97754587D01*
X178600500Y-97652727D01*
X178600500Y-97547273D01*
X180099500Y-97547273D01*
X180099500Y-97652727D01*
X180126793Y-97754587D01*
X180179520Y-97845913D01*
X180254087Y-97920480D01*
X180345413Y-97973207D01*
X180447273Y-98000500D01*
X180447275Y-98000500D01*
X180552725Y-98000500D01*
X180552727Y-98000500D01*
X180654587Y-97973207D01*
X180745913Y-97920480D01*
X180820480Y-97845913D01*
X180873207Y-97754587D01*
X180875167Y-97747273D01*
X182999500Y-97747273D01*
X182999500Y-97852727D01*
X183026793Y-97954587D01*
X183079520Y-98045913D01*
X183154087Y-98120480D01*
X183245413Y-98173207D01*
X183347273Y-98200500D01*
X183347275Y-98200500D01*
X183452725Y-98200500D01*
X183452727Y-98200500D01*
X183554587Y-98173207D01*
X183645913Y-98120480D01*
X183720480Y-98045913D01*
X183773207Y-97954587D01*
X183800500Y-97852727D01*
X183800500Y-97747273D01*
X183773207Y-97645413D01*
X183720480Y-97554087D01*
X183645913Y-97479520D01*
X183579059Y-97440922D01*
X183554589Y-97426794D01*
X183554588Y-97426793D01*
X183554587Y-97426793D01*
X183452727Y-97399500D01*
X183347273Y-97399500D01*
X183245413Y-97426793D01*
X183245410Y-97426794D01*
X183154085Y-97479521D01*
X183079521Y-97554085D01*
X183026794Y-97645410D01*
X183026793Y-97645413D01*
X182999500Y-97747273D01*
X180875167Y-97747273D01*
X180900500Y-97652727D01*
X180900500Y-97547273D01*
X180873207Y-97445413D01*
X180820480Y-97354087D01*
X180745913Y-97279520D01*
X180654587Y-97226793D01*
X180552727Y-97199500D01*
X180447273Y-97199500D01*
X180345413Y-97226793D01*
X180345410Y-97226794D01*
X180254085Y-97279521D01*
X180179521Y-97354085D01*
X180126794Y-97445410D01*
X180126793Y-97445413D01*
X180099500Y-97547273D01*
X178600500Y-97547273D01*
X178573207Y-97445413D01*
X178520480Y-97354087D01*
X178445913Y-97279520D01*
X178354587Y-97226793D01*
X178252727Y-97199500D01*
X178147273Y-97199500D01*
X178045413Y-97226793D01*
X178045410Y-97226794D01*
X177954085Y-97279521D01*
X177879521Y-97354085D01*
X177826794Y-97445410D01*
X177826793Y-97445413D01*
X177799500Y-97547273D01*
X177500500Y-97547273D01*
X177473207Y-97445413D01*
X177420480Y-97354087D01*
X177345913Y-97279520D01*
X177254587Y-97226793D01*
X177152727Y-97199500D01*
X177047273Y-97199500D01*
X176945413Y-97226793D01*
X176945410Y-97226794D01*
X176854085Y-97279521D01*
X176779521Y-97354085D01*
X176726794Y-97445410D01*
X176726793Y-97445413D01*
X176699500Y-97547273D01*
X172602338Y-97547273D01*
X172710637Y-97512085D01*
X172874366Y-97428661D01*
X172874367Y-97428660D01*
X172878933Y-97426333D01*
X172878935Y-97426333D01*
X172904328Y-97407883D01*
X172904328Y-97407882D01*
X172296447Y-96800000D01*
X172302661Y-96800000D01*
X172404394Y-96772741D01*
X172495606Y-96720080D01*
X172570080Y-96645606D01*
X172622741Y-96554394D01*
X172650000Y-96452661D01*
X172650000Y-96446446D01*
X173257882Y-97054328D01*
X173257883Y-97054328D01*
X173276331Y-97028937D01*
X173362085Y-96860637D01*
X173420451Y-96681002D01*
X173450000Y-96494447D01*
X173450000Y-96305552D01*
X173420451Y-96118997D01*
X173398402Y-96051134D01*
X173388592Y-96020943D01*
X200299500Y-96020943D01*
X200299500Y-96179057D01*
X200330997Y-96296603D01*
X200340423Y-96331783D01*
X200340426Y-96331790D01*
X200419475Y-96468709D01*
X200419479Y-96468714D01*
X200419480Y-96468716D01*
X200531284Y-96580520D01*
X200531286Y-96580521D01*
X200531290Y-96580524D01*
X200614158Y-96628367D01*
X200668216Y-96659577D01*
X200820943Y-96700500D01*
X200820945Y-96700500D01*
X200979055Y-96700500D01*
X200979057Y-96700500D01*
X201131784Y-96659577D01*
X201268716Y-96580520D01*
X201380520Y-96468716D01*
X201459577Y-96331784D01*
X201500500Y-96179057D01*
X201500500Y-96020943D01*
X201459577Y-95868216D01*
X201408329Y-95779451D01*
X201380524Y-95731290D01*
X201380518Y-95731282D01*
X201268717Y-95619481D01*
X201268709Y-95619475D01*
X201131790Y-95540426D01*
X201131786Y-95540424D01*
X201131784Y-95540423D01*
X200979057Y-95499500D01*
X200820943Y-95499500D01*
X200668216Y-95540423D01*
X200668209Y-95540426D01*
X200531290Y-95619475D01*
X200531282Y-95619481D01*
X200419481Y-95731282D01*
X200419475Y-95731290D01*
X200340426Y-95868209D01*
X200340423Y-95868216D01*
X200299500Y-96020943D01*
X173388592Y-96020943D01*
X173362085Y-95939362D01*
X173276329Y-95771059D01*
X173257883Y-95745670D01*
X173257882Y-95745669D01*
X172650000Y-96353552D01*
X172650000Y-96347339D01*
X172622741Y-96245606D01*
X172570080Y-96154394D01*
X172495606Y-96079920D01*
X172404394Y-96027259D01*
X172302661Y-96000000D01*
X172296447Y-96000000D01*
X172904328Y-95392116D01*
X172878933Y-95373666D01*
X172710637Y-95287914D01*
X172531002Y-95229548D01*
X172344447Y-95200000D01*
X172155553Y-95200000D01*
X171968997Y-95229548D01*
X171789362Y-95287914D01*
X171621060Y-95373669D01*
X171595670Y-95392116D01*
X171595669Y-95392116D01*
X172203554Y-96000000D01*
X172197339Y-96000000D01*
X172095606Y-96027259D01*
X172004394Y-96079920D01*
X171929920Y-96154394D01*
X171877259Y-96245606D01*
X171850000Y-96347339D01*
X171850000Y-96353553D01*
X171242116Y-95745669D01*
X171242116Y-95745670D01*
X171223669Y-95771060D01*
X171185211Y-95846537D01*
X171137236Y-95897332D01*
X171069414Y-95914126D01*
X171003280Y-95891587D01*
X170971625Y-95859130D01*
X170949467Y-95825969D01*
X170949461Y-95825961D01*
X170824038Y-95700538D01*
X170824034Y-95700535D01*
X170676553Y-95601990D01*
X170676540Y-95601983D01*
X170560545Y-95553937D01*
X170560543Y-95553937D01*
X170512666Y-95534106D01*
X170512659Y-95534104D01*
X170512658Y-95534104D01*
X170512658Y-95534103D01*
X170338694Y-95499500D01*
X170338691Y-95499500D01*
X170161309Y-95499500D01*
X170161306Y-95499500D01*
X169987341Y-95534103D01*
X169987332Y-95534106D01*
X169823459Y-95601983D01*
X169823446Y-95601990D01*
X169675965Y-95700535D01*
X169675961Y-95700538D01*
X169550538Y-95825961D01*
X169550535Y-95825965D01*
X169451990Y-95973446D01*
X169451983Y-95973459D01*
X169384106Y-96137332D01*
X169384104Y-96137340D01*
X169371617Y-96200118D01*
X169339232Y-96262028D01*
X169278516Y-96296603D01*
X169208747Y-96292863D01*
X169152075Y-96251996D01*
X169128383Y-96200118D01*
X169115895Y-96137340D01*
X169115894Y-96137334D01*
X169080189Y-96051134D01*
X169048016Y-95973459D01*
X169048009Y-95973446D01*
X168949464Y-95825965D01*
X168949461Y-95825961D01*
X168824038Y-95700538D01*
X168824034Y-95700535D01*
X168676553Y-95601990D01*
X168676540Y-95601983D01*
X168512667Y-95534106D01*
X168512658Y-95534103D01*
X168338694Y-95499500D01*
X168338691Y-95499500D01*
X168161309Y-95499500D01*
X168161306Y-95499500D01*
X167987341Y-95534103D01*
X167987332Y-95534106D01*
X167823459Y-95601983D01*
X167823446Y-95601990D01*
X167675965Y-95700535D01*
X167675961Y-95700538D01*
X167550538Y-95825961D01*
X167550535Y-95825965D01*
X167451990Y-95973446D01*
X167451983Y-95973459D01*
X167384106Y-96137332D01*
X167384104Y-96137340D01*
X167371617Y-96200118D01*
X167339232Y-96262028D01*
X167278516Y-96296603D01*
X167208747Y-96292863D01*
X167152075Y-96251996D01*
X167128383Y-96200118D01*
X167115895Y-96137340D01*
X167115894Y-96137334D01*
X167080189Y-96051134D01*
X167048016Y-95973459D01*
X167048009Y-95973446D01*
X166949464Y-95825965D01*
X166949461Y-95825961D01*
X166824038Y-95700538D01*
X166824034Y-95700535D01*
X166676553Y-95601990D01*
X166676540Y-95601983D01*
X166512667Y-95534106D01*
X166512658Y-95534103D01*
X166338694Y-95499500D01*
X166338691Y-95499500D01*
X166161309Y-95499500D01*
X166161306Y-95499500D01*
X165987341Y-95534103D01*
X165987332Y-95534106D01*
X165823459Y-95601983D01*
X165823446Y-95601990D01*
X165675965Y-95700535D01*
X165675961Y-95700538D01*
X165550538Y-95825961D01*
X165550535Y-95825965D01*
X165451990Y-95973446D01*
X165451983Y-95973459D01*
X165384106Y-96137332D01*
X165384104Y-96137340D01*
X165371617Y-96200118D01*
X165339232Y-96262028D01*
X165278516Y-96296603D01*
X165208747Y-96292863D01*
X165152075Y-96251996D01*
X165128383Y-96200118D01*
X165115895Y-96137340D01*
X165115894Y-96137334D01*
X165080189Y-96051134D01*
X165048016Y-95973459D01*
X165048009Y-95973446D01*
X164949464Y-95825965D01*
X164949461Y-95825961D01*
X164824038Y-95700538D01*
X164824034Y-95700535D01*
X164676553Y-95601990D01*
X164676540Y-95601983D01*
X164512667Y-95534106D01*
X164512658Y-95534103D01*
X164338694Y-95499500D01*
X164338691Y-95499500D01*
X164161309Y-95499500D01*
X164161306Y-95499500D01*
X163987341Y-95534103D01*
X163987332Y-95534106D01*
X163823459Y-95601983D01*
X163823446Y-95601990D01*
X163675965Y-95700535D01*
X163675961Y-95700538D01*
X163550538Y-95825961D01*
X163550535Y-95825965D01*
X163451990Y-95973446D01*
X163451983Y-95973459D01*
X163384106Y-96137332D01*
X163384104Y-96137340D01*
X163371617Y-96200118D01*
X163339232Y-96262028D01*
X163278516Y-96296603D01*
X163208747Y-96292863D01*
X163152075Y-96251996D01*
X163128383Y-96200118D01*
X163115895Y-96137340D01*
X163115894Y-96137334D01*
X163080189Y-96051134D01*
X163048016Y-95973459D01*
X163048009Y-95973446D01*
X162949464Y-95825965D01*
X162949461Y-95825961D01*
X162824038Y-95700538D01*
X162824034Y-95700535D01*
X162676553Y-95601990D01*
X162676540Y-95601983D01*
X162512667Y-95534106D01*
X162512658Y-95534103D01*
X162338694Y-95499500D01*
X162338691Y-95499500D01*
X162161309Y-95499500D01*
X162161306Y-95499500D01*
X161987341Y-95534103D01*
X161987332Y-95534106D01*
X161823459Y-95601983D01*
X161823446Y-95601990D01*
X161675965Y-95700535D01*
X161675961Y-95700538D01*
X161550538Y-95825961D01*
X161550535Y-95825965D01*
X161451990Y-95973446D01*
X161451983Y-95973459D01*
X161384106Y-96137332D01*
X161384104Y-96137340D01*
X161371617Y-96200118D01*
X161339232Y-96262028D01*
X161278516Y-96296603D01*
X161208747Y-96292863D01*
X161152075Y-96251996D01*
X161128383Y-96200118D01*
X161115895Y-96137340D01*
X161115894Y-96137334D01*
X161080189Y-96051134D01*
X161048016Y-95973459D01*
X161048009Y-95973446D01*
X160949464Y-95825965D01*
X160949461Y-95825961D01*
X160824038Y-95700538D01*
X160824034Y-95700535D01*
X160676553Y-95601990D01*
X160676540Y-95601983D01*
X160512667Y-95534106D01*
X160512658Y-95534103D01*
X160338694Y-95499500D01*
X160338691Y-95499500D01*
X160161309Y-95499500D01*
X160161306Y-95499500D01*
X159987341Y-95534103D01*
X159987332Y-95534106D01*
X159823459Y-95601983D01*
X159823446Y-95601990D01*
X159675965Y-95700535D01*
X159675961Y-95700538D01*
X159550538Y-95825961D01*
X159550535Y-95825965D01*
X159451990Y-95973446D01*
X159451983Y-95973459D01*
X159384106Y-96137332D01*
X159384104Y-96137340D01*
X159371617Y-96200118D01*
X159339232Y-96262028D01*
X159278516Y-96296603D01*
X159208747Y-96292863D01*
X159152075Y-96251996D01*
X159128383Y-96200118D01*
X159115895Y-96137340D01*
X159115894Y-96137334D01*
X159080189Y-96051134D01*
X159048016Y-95973459D01*
X159048009Y-95973446D01*
X158949464Y-95825965D01*
X158949461Y-95825961D01*
X158824038Y-95700538D01*
X158824034Y-95700535D01*
X158676553Y-95601990D01*
X158676540Y-95601983D01*
X158512667Y-95534106D01*
X158512658Y-95534103D01*
X158338694Y-95499500D01*
X158338691Y-95499500D01*
X158161309Y-95499500D01*
X158161306Y-95499500D01*
X157987341Y-95534103D01*
X157987332Y-95534106D01*
X157823459Y-95601983D01*
X157823446Y-95601990D01*
X157675965Y-95700535D01*
X157675961Y-95700538D01*
X157550538Y-95825961D01*
X157550535Y-95825965D01*
X157451990Y-95973446D01*
X157451983Y-95973459D01*
X157384106Y-96137332D01*
X157384104Y-96137340D01*
X157371617Y-96200118D01*
X157339232Y-96262028D01*
X157278516Y-96296603D01*
X157208747Y-96292863D01*
X157152075Y-96251996D01*
X157128383Y-96200118D01*
X157115895Y-96137340D01*
X157115894Y-96137334D01*
X157080189Y-96051134D01*
X157048016Y-95973459D01*
X157048009Y-95973446D01*
X156949464Y-95825965D01*
X156949461Y-95825961D01*
X156824038Y-95700538D01*
X156824034Y-95700535D01*
X156676553Y-95601990D01*
X156676540Y-95601983D01*
X156512667Y-95534106D01*
X156512658Y-95534103D01*
X156338694Y-95499500D01*
X156338691Y-95499500D01*
X156161309Y-95499500D01*
X156161306Y-95499500D01*
X155987341Y-95534103D01*
X155987332Y-95534106D01*
X155823459Y-95601983D01*
X155823446Y-95601990D01*
X155675965Y-95700535D01*
X155675961Y-95700538D01*
X155550538Y-95825961D01*
X155550535Y-95825965D01*
X155451990Y-95973446D01*
X155451983Y-95973459D01*
X155389061Y-96125371D01*
X155345221Y-96179775D01*
X155278927Y-96201840D01*
X155211227Y-96184561D01*
X155163616Y-96133424D01*
X155150500Y-96077919D01*
X155150500Y-95680249D01*
X155150499Y-95680247D01*
X155138868Y-95621770D01*
X155138867Y-95621769D01*
X155094552Y-95555447D01*
X155028230Y-95511132D01*
X155028229Y-95511131D01*
X154969752Y-95499500D01*
X154969748Y-95499500D01*
X153530252Y-95499500D01*
X153530247Y-95499500D01*
X153471770Y-95511131D01*
X153471769Y-95511132D01*
X153405447Y-95555447D01*
X153361132Y-95621769D01*
X153361131Y-95621770D01*
X153349500Y-95680247D01*
X151390500Y-95680247D01*
X151390500Y-95047273D01*
X188599500Y-95047273D01*
X188599500Y-95152727D01*
X188626793Y-95254587D01*
X188679520Y-95345913D01*
X188754087Y-95420480D01*
X188845413Y-95473207D01*
X188947273Y-95500500D01*
X188947275Y-95500500D01*
X189052725Y-95500500D01*
X189052727Y-95500500D01*
X189154587Y-95473207D01*
X189245913Y-95420480D01*
X189320480Y-95345913D01*
X189373207Y-95254587D01*
X189400500Y-95152727D01*
X189400500Y-95047273D01*
X189373207Y-94945413D01*
X189320480Y-94854087D01*
X189245913Y-94779520D01*
X189154587Y-94726793D01*
X189052727Y-94699500D01*
X188947273Y-94699500D01*
X188845413Y-94726793D01*
X188845410Y-94726794D01*
X188754085Y-94779521D01*
X188679521Y-94854085D01*
X188626794Y-94945410D01*
X188626793Y-94945413D01*
X188599500Y-95047273D01*
X151390500Y-95047273D01*
X151390500Y-94147273D01*
X186799500Y-94147273D01*
X186799500Y-94252727D01*
X186826793Y-94354587D01*
X186879520Y-94445913D01*
X186954087Y-94520480D01*
X187045413Y-94573207D01*
X187147273Y-94600500D01*
X187147275Y-94600500D01*
X187252725Y-94600500D01*
X187252727Y-94600500D01*
X187354587Y-94573207D01*
X187445913Y-94520480D01*
X187520480Y-94445913D01*
X187573207Y-94354587D01*
X187600500Y-94252727D01*
X187600500Y-94147273D01*
X187573207Y-94045413D01*
X187520480Y-93954087D01*
X187445913Y-93879520D01*
X187354587Y-93826793D01*
X187252727Y-93799500D01*
X187147273Y-93799500D01*
X187045413Y-93826793D01*
X187045410Y-93826794D01*
X186954085Y-93879521D01*
X186879521Y-93954085D01*
X186826794Y-94045410D01*
X186826793Y-94045413D01*
X186799500Y-94147273D01*
X151390500Y-94147273D01*
X151390500Y-92334108D01*
X202899500Y-92334108D01*
X202899500Y-92465891D01*
X202933608Y-92593187D01*
X202966554Y-92650250D01*
X202999500Y-92707314D01*
X203092686Y-92800500D01*
X203206814Y-92866392D01*
X203334108Y-92900500D01*
X203334110Y-92900500D01*
X203465890Y-92900500D01*
X203465892Y-92900500D01*
X203593186Y-92866392D01*
X203707314Y-92800500D01*
X203800500Y-92707314D01*
X203866392Y-92593186D01*
X203900500Y-92465892D01*
X203900500Y-92334108D01*
X205299500Y-92334108D01*
X205299500Y-92465891D01*
X205333608Y-92593187D01*
X205366554Y-92650250D01*
X205399500Y-92707314D01*
X205492686Y-92800500D01*
X205606814Y-92866392D01*
X205734108Y-92900500D01*
X205734110Y-92900500D01*
X205865890Y-92900500D01*
X205865892Y-92900500D01*
X205993186Y-92866392D01*
X206107314Y-92800500D01*
X206200500Y-92707314D01*
X206266392Y-92593186D01*
X206300500Y-92465892D01*
X206300500Y-92334108D01*
X206266392Y-92206814D01*
X206200500Y-92092686D01*
X206107314Y-91999500D01*
X206050250Y-91966554D01*
X205993187Y-91933608D01*
X205929539Y-91916554D01*
X205865892Y-91899500D01*
X205734108Y-91899500D01*
X205606812Y-91933608D01*
X205492686Y-91999500D01*
X205492683Y-91999502D01*
X205399502Y-92092683D01*
X205399500Y-92092686D01*
X205333608Y-92206812D01*
X205299500Y-92334108D01*
X203900500Y-92334108D01*
X203866392Y-92206814D01*
X203800500Y-92092686D01*
X203707314Y-91999500D01*
X203650250Y-91966554D01*
X203593187Y-91933608D01*
X203529539Y-91916554D01*
X203465892Y-91899500D01*
X203334108Y-91899500D01*
X203206812Y-91933608D01*
X203092686Y-91999500D01*
X203092683Y-91999502D01*
X202999502Y-92092683D01*
X202999500Y-92092686D01*
X202933608Y-92206812D01*
X202899500Y-92334108D01*
X151390500Y-92334108D01*
X151390500Y-90947273D01*
X177799500Y-90947273D01*
X177799500Y-91052727D01*
X177826793Y-91154587D01*
X177879520Y-91245913D01*
X177954087Y-91320480D01*
X178045413Y-91373207D01*
X178147273Y-91400500D01*
X178147275Y-91400500D01*
X178252725Y-91400500D01*
X178252727Y-91400500D01*
X178354587Y-91373207D01*
X178445913Y-91320480D01*
X178520480Y-91245913D01*
X178573207Y-91154587D01*
X178600500Y-91052727D01*
X178600500Y-90947273D01*
X179999500Y-90947273D01*
X179999500Y-91052727D01*
X180026793Y-91154587D01*
X180079520Y-91245913D01*
X180154087Y-91320480D01*
X180245413Y-91373207D01*
X180347273Y-91400500D01*
X180347275Y-91400500D01*
X180452725Y-91400500D01*
X180452727Y-91400500D01*
X180554587Y-91373207D01*
X180645913Y-91320480D01*
X180720480Y-91245913D01*
X180773207Y-91154587D01*
X180800500Y-91052727D01*
X180800500Y-91047273D01*
X198799500Y-91047273D01*
X198799500Y-91152727D01*
X198826793Y-91254587D01*
X198879520Y-91345913D01*
X198954087Y-91420480D01*
X199045413Y-91473207D01*
X199147273Y-91500500D01*
X199147275Y-91500500D01*
X199252725Y-91500500D01*
X199252727Y-91500500D01*
X199354587Y-91473207D01*
X199445913Y-91420480D01*
X199520480Y-91345913D01*
X199573207Y-91254587D01*
X199600500Y-91152727D01*
X199600500Y-91047273D01*
X199573207Y-90945413D01*
X199520480Y-90854087D01*
X199445913Y-90779520D01*
X199354587Y-90726793D01*
X199252727Y-90699500D01*
X199147273Y-90699500D01*
X199045413Y-90726793D01*
X199045410Y-90726794D01*
X198954085Y-90779521D01*
X198879521Y-90854085D01*
X198826794Y-90945410D01*
X198826793Y-90945413D01*
X198799500Y-91047273D01*
X180800500Y-91047273D01*
X180800500Y-90947273D01*
X180773207Y-90845413D01*
X180720480Y-90754087D01*
X180645913Y-90679520D01*
X180590059Y-90647273D01*
X201399500Y-90647273D01*
X201399500Y-90752727D01*
X201426793Y-90854587D01*
X201479520Y-90945913D01*
X201554087Y-91020480D01*
X201645413Y-91073207D01*
X201747273Y-91100500D01*
X201747275Y-91100500D01*
X201852725Y-91100500D01*
X201852727Y-91100500D01*
X201954587Y-91073207D01*
X202045913Y-91020480D01*
X202119120Y-90947273D01*
X202499500Y-90947273D01*
X202499500Y-91052727D01*
X202526793Y-91154587D01*
X202579520Y-91245913D01*
X202654087Y-91320480D01*
X202745413Y-91373207D01*
X202847273Y-91400500D01*
X202847275Y-91400500D01*
X202952725Y-91400500D01*
X202952727Y-91400500D01*
X203054587Y-91373207D01*
X203145913Y-91320480D01*
X203220480Y-91245913D01*
X203273207Y-91154587D01*
X203300500Y-91052727D01*
X203300500Y-90947273D01*
X203273207Y-90845413D01*
X203220480Y-90754087D01*
X203145913Y-90679520D01*
X203054587Y-90626793D01*
X202952727Y-90599500D01*
X202847273Y-90599500D01*
X202745413Y-90626793D01*
X202745410Y-90626794D01*
X202654085Y-90679521D01*
X202579521Y-90754085D01*
X202526794Y-90845410D01*
X202526793Y-90845413D01*
X202499500Y-90947273D01*
X202119120Y-90947273D01*
X202120480Y-90945913D01*
X202173207Y-90854587D01*
X202200500Y-90752727D01*
X202200500Y-90647273D01*
X202173207Y-90545413D01*
X202120480Y-90454087D01*
X202045913Y-90379520D01*
X201954587Y-90326793D01*
X201937610Y-90322244D01*
X206374471Y-90322244D01*
X206374471Y-90427698D01*
X206401764Y-90529558D01*
X206454491Y-90620884D01*
X206529058Y-90695451D01*
X206620384Y-90748178D01*
X206722244Y-90775471D01*
X206722246Y-90775471D01*
X206827696Y-90775471D01*
X206827698Y-90775471D01*
X206929558Y-90748178D01*
X207020884Y-90695451D01*
X207095451Y-90620884D01*
X207148178Y-90529558D01*
X207175471Y-90427698D01*
X207175471Y-90322244D01*
X207148178Y-90220384D01*
X207095451Y-90129058D01*
X207020884Y-90054491D01*
X206929558Y-90001764D01*
X206827698Y-89974471D01*
X206722244Y-89974471D01*
X206620384Y-90001764D01*
X206620381Y-90001765D01*
X206529056Y-90054492D01*
X206454492Y-90129056D01*
X206401765Y-90220381D01*
X206401764Y-90220384D01*
X206374471Y-90322244D01*
X201937610Y-90322244D01*
X201852727Y-90299500D01*
X201747273Y-90299500D01*
X201645413Y-90326793D01*
X201645410Y-90326794D01*
X201554085Y-90379521D01*
X201479521Y-90454085D01*
X201426794Y-90545410D01*
X201426793Y-90545413D01*
X201399500Y-90647273D01*
X180590059Y-90647273D01*
X180554587Y-90626793D01*
X180452727Y-90599500D01*
X180347273Y-90599500D01*
X180245413Y-90626793D01*
X180245410Y-90626794D01*
X180154085Y-90679521D01*
X180079521Y-90754085D01*
X180026794Y-90845410D01*
X180026793Y-90845413D01*
X179999500Y-90947273D01*
X178600500Y-90947273D01*
X178573207Y-90845413D01*
X178520480Y-90754087D01*
X178445913Y-90679520D01*
X178354587Y-90626793D01*
X178252727Y-90599500D01*
X178147273Y-90599500D01*
X178045413Y-90626793D01*
X178045410Y-90626794D01*
X177954085Y-90679521D01*
X177879521Y-90754085D01*
X177826794Y-90845410D01*
X177826793Y-90845413D01*
X177799500Y-90947273D01*
X151390500Y-90947273D01*
X151390500Y-89860750D01*
X194711689Y-89860750D01*
X194711689Y-89966204D01*
X194735346Y-90054492D01*
X194738982Y-90068063D01*
X194738983Y-90068066D01*
X194753111Y-90092536D01*
X194791709Y-90159390D01*
X194866276Y-90233957D01*
X194957602Y-90286684D01*
X195059462Y-90313977D01*
X195059464Y-90313977D01*
X195164914Y-90313977D01*
X195164916Y-90313977D01*
X195266776Y-90286684D01*
X195358102Y-90233957D01*
X195402360Y-90189699D01*
X195463683Y-90156214D01*
X195533375Y-90161198D01*
X195537759Y-90163266D01*
X195537857Y-90163030D01*
X195545366Y-90166139D01*
X195545371Y-90166142D01*
X195647231Y-90193435D01*
X195647233Y-90193435D01*
X195752683Y-90193435D01*
X195752685Y-90193435D01*
X195854545Y-90166142D01*
X195945871Y-90113415D01*
X196020438Y-90038848D01*
X196073165Y-89947522D01*
X196100458Y-89845662D01*
X196100458Y-89740208D01*
X196073165Y-89638348D01*
X196020438Y-89547022D01*
X195945871Y-89472455D01*
X195854545Y-89419728D01*
X195752685Y-89392435D01*
X195647231Y-89392435D01*
X195545371Y-89419728D01*
X195545368Y-89419729D01*
X195454043Y-89472456D01*
X195409785Y-89516714D01*
X195348462Y-89550198D01*
X195278770Y-89545213D01*
X195274384Y-89543143D01*
X195274286Y-89543381D01*
X195266778Y-89540271D01*
X195266776Y-89540270D01*
X195164916Y-89512977D01*
X195059462Y-89512977D01*
X194957602Y-89540270D01*
X194957599Y-89540271D01*
X194866274Y-89592998D01*
X194791710Y-89667562D01*
X194738983Y-89758887D01*
X194738982Y-89758890D01*
X194711689Y-89860750D01*
X151390500Y-89860750D01*
X151390500Y-89247273D01*
X189599500Y-89247273D01*
X189599500Y-89352727D01*
X189626793Y-89454587D01*
X189679520Y-89545913D01*
X189754087Y-89620480D01*
X189845413Y-89673207D01*
X189947273Y-89700500D01*
X189947275Y-89700500D01*
X190052725Y-89700500D01*
X190052727Y-89700500D01*
X190154587Y-89673207D01*
X190245913Y-89620480D01*
X190320480Y-89545913D01*
X190373207Y-89454587D01*
X190400500Y-89352727D01*
X190400500Y-89247273D01*
X190373207Y-89145413D01*
X190320480Y-89054087D01*
X190245913Y-88979520D01*
X190154587Y-88926793D01*
X190052727Y-88899500D01*
X189947273Y-88899500D01*
X189845413Y-88926793D01*
X189845410Y-88926794D01*
X189754085Y-88979521D01*
X189679521Y-89054085D01*
X189626794Y-89145410D01*
X189626793Y-89145413D01*
X189599500Y-89247273D01*
X151390500Y-89247273D01*
X151390500Y-88207577D01*
X198395975Y-88207577D01*
X198501236Y-88251178D01*
X198501240Y-88251179D01*
X198646126Y-88279999D01*
X198646129Y-88280000D01*
X198793871Y-88280000D01*
X198793873Y-88279999D01*
X198938760Y-88251179D01*
X198938775Y-88251175D01*
X199044024Y-88207578D01*
X199044024Y-88207577D01*
X201095975Y-88207577D01*
X201201236Y-88251178D01*
X201201240Y-88251179D01*
X201346126Y-88279999D01*
X201346129Y-88280000D01*
X201493871Y-88280000D01*
X201493873Y-88279999D01*
X201638760Y-88251179D01*
X201638775Y-88251175D01*
X201744024Y-88207578D01*
X201744024Y-88207577D01*
X201483720Y-87947273D01*
X204099500Y-87947273D01*
X204099500Y-88052727D01*
X204126793Y-88154587D01*
X204179520Y-88245913D01*
X204254087Y-88320480D01*
X204292425Y-88342614D01*
X204340639Y-88393180D01*
X204353861Y-88461788D01*
X204327893Y-88526652D01*
X204292426Y-88557384D01*
X204259396Y-88576455D01*
X204254084Y-88579522D01*
X204179521Y-88654085D01*
X204126794Y-88745410D01*
X204126793Y-88745413D01*
X204099500Y-88847273D01*
X204099500Y-88952727D01*
X204126793Y-89054587D01*
X204179231Y-89145413D01*
X204179521Y-89145914D01*
X204195926Y-89162319D01*
X204229411Y-89223642D01*
X204224427Y-89293334D01*
X204195926Y-89337681D01*
X204179521Y-89354085D01*
X204126794Y-89445410D01*
X204126793Y-89445413D01*
X204099500Y-89547273D01*
X204099500Y-89652727D01*
X204112301Y-89700499D01*
X204126793Y-89754586D01*
X204126794Y-89754589D01*
X204129277Y-89758890D01*
X204179520Y-89845913D01*
X204254087Y-89920480D01*
X204345413Y-89973207D01*
X204447273Y-90000500D01*
X204447275Y-90000500D01*
X204552725Y-90000500D01*
X204552727Y-90000500D01*
X204654587Y-89973207D01*
X204745913Y-89920480D01*
X204820480Y-89845913D01*
X204873207Y-89754587D01*
X204900500Y-89652727D01*
X204900500Y-89547273D01*
X204873207Y-89445413D01*
X204820480Y-89354087D01*
X204804074Y-89337681D01*
X204770589Y-89276358D01*
X204775573Y-89206666D01*
X204804074Y-89162319D01*
X204820480Y-89145913D01*
X204873207Y-89054587D01*
X204900500Y-88952727D01*
X204900500Y-88847273D01*
X204873207Y-88745413D01*
X204859079Y-88720943D01*
X210699500Y-88720943D01*
X210699500Y-88879057D01*
X210740289Y-89031282D01*
X210740423Y-89031783D01*
X210740423Y-89031784D01*
X210801746Y-89138001D01*
X210818217Y-89205902D01*
X210801746Y-89261999D01*
X210740423Y-89368215D01*
X210740423Y-89368216D01*
X210699500Y-89520943D01*
X210699500Y-89679057D01*
X210723525Y-89768717D01*
X210740423Y-89831783D01*
X210740423Y-89831784D01*
X210801746Y-89938001D01*
X210818217Y-90005902D01*
X210801746Y-90061999D01*
X210740423Y-90168215D01*
X210740423Y-90168216D01*
X210699500Y-90320943D01*
X210699500Y-90479057D01*
X210737503Y-90620884D01*
X210740423Y-90631783D01*
X210740426Y-90631790D01*
X210819475Y-90768709D01*
X210819479Y-90768714D01*
X210819480Y-90768716D01*
X210931284Y-90880520D01*
X210931286Y-90880521D01*
X210931290Y-90880524D01*
X211046908Y-90947275D01*
X211068216Y-90959577D01*
X211220943Y-91000500D01*
X211220945Y-91000500D01*
X211379055Y-91000500D01*
X211379057Y-91000500D01*
X211531784Y-90959577D01*
X211668716Y-90880520D01*
X211780520Y-90768716D01*
X211859577Y-90631784D01*
X211900500Y-90479057D01*
X211900500Y-90320943D01*
X211859577Y-90168216D01*
X211837822Y-90130535D01*
X211798254Y-90061999D01*
X211781781Y-89994099D01*
X211798254Y-89938001D01*
X211837823Y-89869464D01*
X211859577Y-89831784D01*
X211900500Y-89679057D01*
X211900500Y-89520943D01*
X211859577Y-89368216D01*
X211850634Y-89352726D01*
X211798254Y-89261999D01*
X211781781Y-89194099D01*
X211798254Y-89138001D01*
X211835853Y-89072873D01*
X211859577Y-89031784D01*
X211900500Y-88879057D01*
X211900500Y-88720943D01*
X211896004Y-88704164D01*
X211897667Y-88634318D01*
X211936829Y-88576455D01*
X212001057Y-88548950D01*
X212063234Y-88557513D01*
X212068212Y-88559574D01*
X212068216Y-88559577D01*
X212220943Y-88600500D01*
X212220945Y-88600500D01*
X212379055Y-88600500D01*
X212379057Y-88600500D01*
X212531784Y-88559577D01*
X212668716Y-88480520D01*
X212780520Y-88368716D01*
X212792612Y-88347772D01*
X212843178Y-88299555D01*
X212911785Y-88286331D01*
X212976650Y-88312298D01*
X213007388Y-88347772D01*
X213019477Y-88368712D01*
X213019479Y-88368715D01*
X213019480Y-88368716D01*
X213131284Y-88480520D01*
X213131286Y-88480521D01*
X213131290Y-88480524D01*
X213249809Y-88548950D01*
X213268216Y-88559577D01*
X213420943Y-88600500D01*
X213420945Y-88600500D01*
X213579055Y-88600500D01*
X213579057Y-88600500D01*
X213731784Y-88559577D01*
X213868716Y-88480520D01*
X213980520Y-88368716D01*
X214059577Y-88231784D01*
X214100500Y-88079057D01*
X214100500Y-87920943D01*
X214059577Y-87768216D01*
X214025753Y-87709631D01*
X213980524Y-87631290D01*
X213980518Y-87631282D01*
X213868717Y-87519481D01*
X213868712Y-87519477D01*
X213857172Y-87512815D01*
X213808955Y-87462249D01*
X213795731Y-87393642D01*
X213821698Y-87328777D01*
X213831482Y-87317753D01*
X213880520Y-87268716D01*
X213959577Y-87131784D01*
X214000500Y-86979057D01*
X214000500Y-86851947D01*
X216180000Y-86851947D01*
X216180000Y-87088052D01*
X216216934Y-87321247D01*
X216289897Y-87545802D01*
X216397087Y-87756174D01*
X216457338Y-87839104D01*
X216457340Y-87839105D01*
X217197037Y-87099408D01*
X217214075Y-87162993D01*
X217279901Y-87277007D01*
X217372993Y-87370099D01*
X217487007Y-87435925D01*
X217550590Y-87452962D01*
X216810893Y-88192658D01*
X216893828Y-88252914D01*
X217104197Y-88360102D01*
X217328752Y-88433065D01*
X217328751Y-88433065D01*
X217561948Y-88470000D01*
X217798052Y-88470000D01*
X218031247Y-88433065D01*
X218255802Y-88360102D01*
X218466163Y-88252918D01*
X218466169Y-88252914D01*
X218549104Y-88192658D01*
X218549105Y-88192658D01*
X217809408Y-87452962D01*
X217872993Y-87435925D01*
X217987007Y-87370099D01*
X218080099Y-87277007D01*
X218145925Y-87162993D01*
X218162962Y-87099409D01*
X218902658Y-87839105D01*
X218902658Y-87839104D01*
X218962914Y-87756169D01*
X218962918Y-87756163D01*
X219070102Y-87545802D01*
X219143065Y-87321247D01*
X219180000Y-87088052D01*
X219180000Y-86851947D01*
X219143065Y-86618752D01*
X219070102Y-86394197D01*
X218962914Y-86183828D01*
X218902658Y-86100894D01*
X218902658Y-86100893D01*
X218162962Y-86840590D01*
X218145925Y-86777007D01*
X218080099Y-86662993D01*
X217987007Y-86569901D01*
X217872993Y-86504075D01*
X217809409Y-86487037D01*
X218555278Y-85741167D01*
X218564798Y-85695852D01*
X218613849Y-85646095D01*
X218674052Y-85630500D01*
X218699750Y-85630500D01*
X218699751Y-85630499D01*
X218717183Y-85627032D01*
X218758229Y-85618868D01*
X218758229Y-85618867D01*
X218758231Y-85618867D01*
X218824552Y-85574552D01*
X218868867Y-85508231D01*
X218868867Y-85508229D01*
X218868868Y-85508229D01*
X218877552Y-85464568D01*
X218880500Y-85449748D01*
X218880500Y-83410252D01*
X218880500Y-83410249D01*
X218880499Y-83410247D01*
X218868868Y-83351770D01*
X218868867Y-83351769D01*
X218824552Y-83285447D01*
X218758230Y-83241132D01*
X218758229Y-83241131D01*
X218699752Y-83229500D01*
X218699748Y-83229500D01*
X216660252Y-83229500D01*
X216660247Y-83229500D01*
X216601770Y-83241131D01*
X216601769Y-83241132D01*
X216535447Y-83285447D01*
X216491132Y-83351769D01*
X216491131Y-83351770D01*
X216479500Y-83410247D01*
X216479500Y-85449752D01*
X216491131Y-85508229D01*
X216491132Y-85508230D01*
X216535447Y-85574552D01*
X216601769Y-85618867D01*
X216601770Y-85618868D01*
X216660247Y-85630499D01*
X216660250Y-85630500D01*
X216685947Y-85630500D01*
X216752986Y-85650185D01*
X216798741Y-85702989D01*
X216805653Y-85742099D01*
X217550591Y-86487037D01*
X217487007Y-86504075D01*
X217372993Y-86569901D01*
X217279901Y-86662993D01*
X217214075Y-86777007D01*
X217197037Y-86840590D01*
X216457340Y-86100894D01*
X216397084Y-86183830D01*
X216289897Y-86394197D01*
X216216934Y-86618752D01*
X216180000Y-86851947D01*
X214000500Y-86851947D01*
X214000500Y-86820943D01*
X213959577Y-86668216D01*
X213919904Y-86599500D01*
X213880524Y-86531290D01*
X213880518Y-86531282D01*
X213768717Y-86419481D01*
X213768709Y-86419475D01*
X213631790Y-86340426D01*
X213631786Y-86340424D01*
X213631784Y-86340423D01*
X213479057Y-86299500D01*
X213320943Y-86299500D01*
X213168216Y-86340423D01*
X213168209Y-86340426D01*
X213031290Y-86419475D01*
X213031282Y-86419481D01*
X212919481Y-86531282D01*
X212919475Y-86531290D01*
X212840426Y-86668209D01*
X212840423Y-86668216D01*
X212799500Y-86820943D01*
X212799500Y-86979057D01*
X212837413Y-87120548D01*
X212840423Y-87131783D01*
X212840426Y-87131790D01*
X212919475Y-87268709D01*
X212919479Y-87268714D01*
X212919480Y-87268716D01*
X213031284Y-87380520D01*
X213031285Y-87380521D01*
X213031287Y-87380522D01*
X213042825Y-87387183D01*
X213056601Y-87401629D01*
X213073526Y-87412212D01*
X213080217Y-87426395D01*
X213091043Y-87437748D01*
X213094821Y-87457350D01*
X213103338Y-87475402D01*
X213101298Y-87490951D01*
X213104268Y-87506354D01*
X213096849Y-87524887D01*
X213094254Y-87544678D01*
X213081439Y-87563381D01*
X213078302Y-87571220D01*
X213075543Y-87574604D01*
X213072179Y-87578584D01*
X213019480Y-87631284D01*
X213001858Y-87661806D01*
X212994714Y-87670261D01*
X212974422Y-87683660D01*
X212956820Y-87700445D01*
X212945785Y-87702571D01*
X212936410Y-87708763D01*
X212912094Y-87709065D01*
X212888213Y-87713668D01*
X212877780Y-87709491D01*
X212866546Y-87709631D01*
X212845928Y-87696739D01*
X212823348Y-87687700D01*
X212813744Y-87676616D01*
X212807303Y-87672589D01*
X212803774Y-87665110D01*
X212792613Y-87652229D01*
X212780522Y-87631287D01*
X212780518Y-87631282D01*
X212668717Y-87519481D01*
X212668709Y-87519475D01*
X212531790Y-87440426D01*
X212531786Y-87440424D01*
X212531784Y-87440423D01*
X212379057Y-87399500D01*
X212220943Y-87399500D01*
X212068216Y-87440423D01*
X212068209Y-87440426D01*
X211931290Y-87519475D01*
X211931282Y-87519481D01*
X211819481Y-87631282D01*
X211819475Y-87631290D01*
X211740426Y-87768209D01*
X211740423Y-87768216D01*
X211699500Y-87920943D01*
X211699500Y-88079061D01*
X211703995Y-88095835D01*
X211702331Y-88165685D01*
X211663168Y-88223546D01*
X211598939Y-88251049D01*
X211536770Y-88242488D01*
X211531787Y-88240424D01*
X211531784Y-88240423D01*
X211379057Y-88199500D01*
X211220943Y-88199500D01*
X211068216Y-88240423D01*
X211068209Y-88240426D01*
X210931290Y-88319475D01*
X210931282Y-88319481D01*
X210819481Y-88431282D01*
X210819475Y-88431290D01*
X210740426Y-88568209D01*
X210740423Y-88568216D01*
X210699500Y-88720943D01*
X204859079Y-88720943D01*
X204820480Y-88654087D01*
X204745913Y-88579520D01*
X204707574Y-88557385D01*
X204659361Y-88506821D01*
X204646137Y-88438214D01*
X204672105Y-88373349D01*
X204707573Y-88342615D01*
X204745913Y-88320480D01*
X204820480Y-88245913D01*
X204873207Y-88154587D01*
X204900500Y-88052727D01*
X204900500Y-87947273D01*
X204873207Y-87845413D01*
X204820480Y-87754087D01*
X204745913Y-87679520D01*
X204654587Y-87626793D01*
X204552727Y-87599500D01*
X204447273Y-87599500D01*
X204345413Y-87626793D01*
X204345410Y-87626794D01*
X204254085Y-87679521D01*
X204179521Y-87754085D01*
X204126794Y-87845410D01*
X204126793Y-87845413D01*
X204099500Y-87947273D01*
X201483720Y-87947273D01*
X201420001Y-87883554D01*
X201420000Y-87883554D01*
X201095975Y-88207577D01*
X199044024Y-88207577D01*
X198720001Y-87883554D01*
X198720000Y-87883554D01*
X198395975Y-88207577D01*
X151390500Y-88207577D01*
X151390500Y-87647273D01*
X194999500Y-87647273D01*
X194999500Y-87752727D01*
X195026793Y-87854587D01*
X195079520Y-87945913D01*
X195154087Y-88020480D01*
X195245413Y-88073207D01*
X195347273Y-88100500D01*
X195347275Y-88100500D01*
X195452725Y-88100500D01*
X195452727Y-88100500D01*
X195554587Y-88073207D01*
X195645913Y-88020480D01*
X195720480Y-87945913D01*
X195773207Y-87854587D01*
X195800500Y-87752727D01*
X195800500Y-87647273D01*
X195773207Y-87545413D01*
X195720480Y-87454087D01*
X195645913Y-87379520D01*
X195554587Y-87326793D01*
X195552834Y-87326067D01*
X195551581Y-87325057D01*
X195547548Y-87322729D01*
X195547911Y-87322100D01*
X195498430Y-87282228D01*
X195476363Y-87215934D01*
X195493641Y-87148234D01*
X195544777Y-87100622D01*
X195568183Y-87091732D01*
X195572071Y-87090691D01*
X195663397Y-87037964D01*
X195737964Y-86963397D01*
X195747273Y-86947273D01*
X197099500Y-86947273D01*
X197099500Y-87052727D01*
X197126793Y-87154587D01*
X197153902Y-87201542D01*
X197179521Y-87245914D01*
X197195926Y-87262319D01*
X197229411Y-87323642D01*
X197224427Y-87393334D01*
X197195926Y-87437681D01*
X197179521Y-87454085D01*
X197126794Y-87545410D01*
X197126793Y-87545413D01*
X197099500Y-87647273D01*
X197099500Y-87752727D01*
X197126793Y-87854587D01*
X197179520Y-87945913D01*
X197254087Y-88020480D01*
X197345413Y-88073207D01*
X197447273Y-88100500D01*
X197447275Y-88100500D01*
X197552725Y-88100500D01*
X197552727Y-88100500D01*
X197654587Y-88073207D01*
X197745913Y-88020480D01*
X197820480Y-87945913D01*
X197846502Y-87900840D01*
X197897066Y-87852628D01*
X197965673Y-87839404D01*
X197978078Y-87841226D01*
X198042421Y-87854024D01*
X198366446Y-87530000D01*
X198366446Y-87529999D01*
X198346556Y-87510109D01*
X198620000Y-87510109D01*
X198620000Y-87549891D01*
X198635224Y-87586645D01*
X198663355Y-87614776D01*
X198700109Y-87630000D01*
X198739891Y-87630000D01*
X198776645Y-87614776D01*
X198804776Y-87586645D01*
X198820000Y-87549891D01*
X198820000Y-87529999D01*
X199073554Y-87529999D01*
X199073554Y-87530001D01*
X199397577Y-87854024D01*
X199397578Y-87854024D01*
X199441175Y-87748775D01*
X199441179Y-87748760D01*
X199469999Y-87603873D01*
X199470000Y-87603871D01*
X199470000Y-87456128D01*
X199469999Y-87456126D01*
X200670000Y-87456126D01*
X200670000Y-87603873D01*
X200698820Y-87748759D01*
X200698822Y-87748767D01*
X200742421Y-87854024D01*
X201066446Y-87530000D01*
X201066446Y-87529999D01*
X201046556Y-87510109D01*
X201320000Y-87510109D01*
X201320000Y-87549891D01*
X201335224Y-87586645D01*
X201363355Y-87614776D01*
X201400109Y-87630000D01*
X201439891Y-87630000D01*
X201476645Y-87614776D01*
X201504776Y-87586645D01*
X201520000Y-87549891D01*
X201520000Y-87529999D01*
X201773554Y-87529999D01*
X201773554Y-87530001D01*
X202097577Y-87854024D01*
X202097578Y-87854024D01*
X202141175Y-87748775D01*
X202141179Y-87748760D01*
X202169999Y-87603873D01*
X202170000Y-87603871D01*
X202170000Y-87456128D01*
X202169999Y-87456126D01*
X202141179Y-87311240D01*
X202141178Y-87311236D01*
X202097577Y-87205975D01*
X201773554Y-87529999D01*
X201520000Y-87529999D01*
X201520000Y-87510109D01*
X201504776Y-87473355D01*
X201476645Y-87445224D01*
X201439891Y-87430000D01*
X201400109Y-87430000D01*
X201363355Y-87445224D01*
X201335224Y-87473355D01*
X201320000Y-87510109D01*
X201046556Y-87510109D01*
X200742421Y-87205974D01*
X200742420Y-87205974D01*
X200698823Y-87311228D01*
X200698820Y-87311240D01*
X200670000Y-87456126D01*
X199469999Y-87456126D01*
X199441179Y-87311240D01*
X199441178Y-87311236D01*
X199397577Y-87205975D01*
X199073554Y-87529999D01*
X198820000Y-87529999D01*
X198820000Y-87510109D01*
X198804776Y-87473355D01*
X198776645Y-87445224D01*
X198739891Y-87430000D01*
X198700109Y-87430000D01*
X198663355Y-87445224D01*
X198635224Y-87473355D01*
X198620000Y-87510109D01*
X198346556Y-87510109D01*
X198041696Y-87205249D01*
X197975118Y-87199290D01*
X197919941Y-87156426D01*
X197896698Y-87090536D01*
X197896584Y-87087882D01*
X197895994Y-87069540D01*
X197900500Y-87052727D01*
X197900500Y-86947273D01*
X197875084Y-86852420D01*
X198395974Y-86852420D01*
X198395974Y-86852421D01*
X198720000Y-87176446D01*
X198720001Y-87176446D01*
X199044024Y-86852421D01*
X199044022Y-86852420D01*
X201095974Y-86852420D01*
X201095974Y-86852421D01*
X201420000Y-87176446D01*
X201420001Y-87176446D01*
X201744024Y-86852421D01*
X201638767Y-86808822D01*
X201638759Y-86808820D01*
X201493872Y-86780000D01*
X201346128Y-86780000D01*
X201201240Y-86808820D01*
X201201228Y-86808823D01*
X201095974Y-86852420D01*
X199044022Y-86852420D01*
X198938767Y-86808822D01*
X198938759Y-86808820D01*
X198793872Y-86780000D01*
X198646128Y-86780000D01*
X198501240Y-86808820D01*
X198501228Y-86808823D01*
X198395974Y-86852420D01*
X197875084Y-86852420D01*
X197873207Y-86845413D01*
X197820480Y-86754087D01*
X197745913Y-86679520D01*
X197654587Y-86626793D01*
X197552727Y-86599500D01*
X197447273Y-86599500D01*
X197345413Y-86626793D01*
X197345410Y-86626794D01*
X197254085Y-86679521D01*
X197179521Y-86754085D01*
X197126794Y-86845410D01*
X197126793Y-86845413D01*
X197099500Y-86947273D01*
X195747273Y-86947273D01*
X195790691Y-86872071D01*
X195817984Y-86770211D01*
X195817984Y-86664757D01*
X195790691Y-86562897D01*
X195737964Y-86471571D01*
X195718858Y-86452465D01*
X195685373Y-86391142D01*
X195690357Y-86321450D01*
X195718858Y-86277103D01*
X195725195Y-86270766D01*
X195765829Y-86230132D01*
X195818556Y-86138806D01*
X195845849Y-86036946D01*
X195845849Y-85947273D01*
X204099500Y-85947273D01*
X204099500Y-86052727D01*
X204122565Y-86138805D01*
X204126793Y-86154586D01*
X204126794Y-86154589D01*
X204174951Y-86238000D01*
X204191424Y-86305901D01*
X204174951Y-86362000D01*
X204126794Y-86445410D01*
X204126793Y-86445413D01*
X204099500Y-86547273D01*
X204099500Y-86652727D01*
X204126659Y-86754085D01*
X204126793Y-86754586D01*
X204126794Y-86754589D01*
X204139737Y-86777007D01*
X204179520Y-86845913D01*
X204254087Y-86920480D01*
X204345413Y-86973207D01*
X204447273Y-87000500D01*
X204447275Y-87000500D01*
X204552725Y-87000500D01*
X204552727Y-87000500D01*
X204654587Y-86973207D01*
X204745913Y-86920480D01*
X204820480Y-86845913D01*
X204873207Y-86754587D01*
X204900500Y-86652727D01*
X204900500Y-86547273D01*
X204873207Y-86445413D01*
X204825047Y-86361998D01*
X204822218Y-86350335D01*
X204815255Y-86340557D01*
X204814133Y-86317010D01*
X204808575Y-86294100D01*
X204812418Y-86281011D01*
X204811930Y-86270766D01*
X204821335Y-86247273D01*
X209599500Y-86247273D01*
X209599500Y-86352727D01*
X209626225Y-86452465D01*
X209626793Y-86454586D01*
X209626794Y-86454589D01*
X209636599Y-86471571D01*
X209679520Y-86545913D01*
X209754087Y-86620480D01*
X209845413Y-86673207D01*
X209947273Y-86700500D01*
X209947275Y-86700500D01*
X210052725Y-86700500D01*
X210052727Y-86700500D01*
X210154587Y-86673207D01*
X210245913Y-86620480D01*
X210320480Y-86545913D01*
X210373207Y-86454587D01*
X210400500Y-86352727D01*
X210400500Y-86247273D01*
X210373207Y-86145413D01*
X210320480Y-86054087D01*
X210245913Y-85979520D01*
X210154587Y-85926793D01*
X210052727Y-85899500D01*
X209947273Y-85899500D01*
X209845413Y-85926793D01*
X209845410Y-85926794D01*
X209754085Y-85979521D01*
X209679521Y-86054085D01*
X209626794Y-86145410D01*
X209626793Y-86145413D01*
X209599500Y-86247273D01*
X204821335Y-86247273D01*
X204825046Y-86238003D01*
X204873207Y-86154587D01*
X204900500Y-86052727D01*
X204900500Y-85947273D01*
X204873207Y-85845413D01*
X204820480Y-85754087D01*
X204745913Y-85679520D01*
X204654587Y-85626793D01*
X204552727Y-85599500D01*
X204447273Y-85599500D01*
X204345413Y-85626793D01*
X204345410Y-85626794D01*
X204254085Y-85679521D01*
X204179521Y-85754085D01*
X204126794Y-85845410D01*
X204126793Y-85845413D01*
X204099500Y-85947273D01*
X195845849Y-85947273D01*
X195845849Y-85931492D01*
X195819088Y-85831621D01*
X195818497Y-85828943D01*
X195820693Y-85796722D01*
X195821462Y-85764424D01*
X195823074Y-85761778D01*
X195823248Y-85759235D01*
X195830893Y-85748950D01*
X195851889Y-85714503D01*
X195916926Y-85649467D01*
X195969653Y-85558141D01*
X195983201Y-85507577D01*
X198395975Y-85507577D01*
X198501236Y-85551178D01*
X198501240Y-85551179D01*
X198646126Y-85579999D01*
X198646129Y-85580000D01*
X198793871Y-85580000D01*
X198793873Y-85579999D01*
X198938760Y-85551179D01*
X198938775Y-85551175D01*
X199044024Y-85507578D01*
X199044024Y-85507577D01*
X201095975Y-85507577D01*
X201201236Y-85551178D01*
X201201240Y-85551179D01*
X201346126Y-85579999D01*
X201346129Y-85580000D01*
X201493871Y-85580000D01*
X201493873Y-85579999D01*
X201638760Y-85551179D01*
X201638775Y-85551175D01*
X201744024Y-85507578D01*
X201744024Y-85507577D01*
X201420001Y-85183554D01*
X201420000Y-85183554D01*
X201095975Y-85507577D01*
X199044024Y-85507577D01*
X198720001Y-85183554D01*
X198720000Y-85183554D01*
X198395975Y-85507577D01*
X195983201Y-85507577D01*
X195996946Y-85456281D01*
X195996946Y-85350827D01*
X195969653Y-85248967D01*
X195916926Y-85157641D01*
X195842359Y-85083074D01*
X195751033Y-85030347D01*
X195649173Y-85003054D01*
X195543719Y-85003054D01*
X195441859Y-85030347D01*
X195441856Y-85030348D01*
X195350531Y-85083075D01*
X195275967Y-85157639D01*
X195223240Y-85248964D01*
X195223239Y-85248967D01*
X195195946Y-85350827D01*
X195195946Y-85456281D01*
X195221373Y-85551178D01*
X195221995Y-85553498D01*
X195220332Y-85623348D01*
X195189902Y-85673271D01*
X195124870Y-85738304D01*
X195072143Y-85829629D01*
X195072142Y-85829632D01*
X195044849Y-85931492D01*
X195044849Y-86036946D01*
X195061984Y-86100893D01*
X195072142Y-86138805D01*
X195072143Y-86138808D01*
X195081253Y-86154586D01*
X195098135Y-86183828D01*
X195124870Y-86230133D01*
X195143975Y-86249238D01*
X195177460Y-86310561D01*
X195172476Y-86380253D01*
X195143975Y-86424600D01*
X195097005Y-86471569D01*
X195044278Y-86562894D01*
X195044277Y-86562897D01*
X195016984Y-86664757D01*
X195016984Y-86770211D01*
X195044277Y-86872071D01*
X195097004Y-86963397D01*
X195171571Y-87037964D01*
X195258032Y-87087882D01*
X195262628Y-87090536D01*
X195262897Y-87090691D01*
X195262904Y-87090693D01*
X195264643Y-87091413D01*
X195265895Y-87092422D01*
X195269936Y-87094755D01*
X195269572Y-87095384D01*
X195319050Y-87135250D01*
X195341120Y-87201542D01*
X195323846Y-87269243D01*
X195272712Y-87316858D01*
X195249302Y-87325750D01*
X195245419Y-87326790D01*
X195245410Y-87326794D01*
X195154085Y-87379521D01*
X195079521Y-87454085D01*
X195026794Y-87545410D01*
X195026793Y-87545413D01*
X194999500Y-87647273D01*
X151390500Y-87647273D01*
X151390500Y-85285258D01*
X161249500Y-85285258D01*
X161249500Y-85514741D01*
X161264741Y-85630499D01*
X161279452Y-85742238D01*
X161321590Y-85899500D01*
X161338842Y-85963887D01*
X161426650Y-86175876D01*
X161426657Y-86175890D01*
X161481434Y-86270766D01*
X161534107Y-86362000D01*
X161541392Y-86374617D01*
X161681081Y-86556661D01*
X161681089Y-86556670D01*
X161843330Y-86718911D01*
X161843338Y-86718918D01*
X162025382Y-86858607D01*
X162025385Y-86858608D01*
X162025388Y-86858611D01*
X162224112Y-86973344D01*
X162224117Y-86973346D01*
X162224123Y-86973349D01*
X162289672Y-87000500D01*
X162436113Y-87061158D01*
X162657762Y-87120548D01*
X162885266Y-87150500D01*
X162885273Y-87150500D01*
X163114727Y-87150500D01*
X163114734Y-87150500D01*
X163342238Y-87120548D01*
X163563887Y-87061158D01*
X163775888Y-86973344D01*
X163974612Y-86858611D01*
X164156661Y-86718919D01*
X164156665Y-86718914D01*
X164156670Y-86718911D01*
X164318911Y-86556670D01*
X164318914Y-86556665D01*
X164318919Y-86556661D01*
X164458611Y-86374612D01*
X164573344Y-86175888D01*
X164661158Y-85963887D01*
X164720548Y-85742238D01*
X164750500Y-85514734D01*
X164750500Y-85347273D01*
X188399500Y-85347273D01*
X188399500Y-85452727D01*
X188426793Y-85554587D01*
X188479520Y-85645913D01*
X188554087Y-85720480D01*
X188645413Y-85773207D01*
X188747273Y-85800500D01*
X188747275Y-85800500D01*
X188852725Y-85800500D01*
X188852727Y-85800500D01*
X188954587Y-85773207D01*
X189045913Y-85720480D01*
X189120480Y-85645913D01*
X189173207Y-85554587D01*
X189200500Y-85452727D01*
X189200500Y-85347273D01*
X189173207Y-85245413D01*
X189120480Y-85154087D01*
X189045913Y-85079520D01*
X188979059Y-85040922D01*
X188954589Y-85026794D01*
X188954588Y-85026793D01*
X188954587Y-85026793D01*
X188852727Y-84999500D01*
X188747273Y-84999500D01*
X188645413Y-85026793D01*
X188645410Y-85026794D01*
X188554085Y-85079521D01*
X188479521Y-85154085D01*
X188426794Y-85245410D01*
X188426793Y-85245413D01*
X188399500Y-85347273D01*
X164750500Y-85347273D01*
X164750500Y-85285266D01*
X164720548Y-85057762D01*
X164661158Y-84836113D01*
X164628026Y-84756126D01*
X197970000Y-84756126D01*
X197970000Y-84903873D01*
X197998820Y-85048759D01*
X197998822Y-85048767D01*
X198042421Y-85154024D01*
X198366446Y-84830000D01*
X198366446Y-84829999D01*
X198346556Y-84810109D01*
X198620000Y-84810109D01*
X198620000Y-84849891D01*
X198635224Y-84886645D01*
X198663355Y-84914776D01*
X198700109Y-84930000D01*
X198739891Y-84930000D01*
X198776645Y-84914776D01*
X198804776Y-84886645D01*
X198820000Y-84849891D01*
X198820000Y-84829999D01*
X199073554Y-84829999D01*
X199073554Y-84830001D01*
X199397577Y-85154024D01*
X199397578Y-85154024D01*
X199441175Y-85048775D01*
X199441179Y-85048760D01*
X199469999Y-84903873D01*
X199470000Y-84903871D01*
X199470000Y-84756128D01*
X199469999Y-84756126D01*
X200670000Y-84756126D01*
X200670000Y-84903873D01*
X200698820Y-85048759D01*
X200698822Y-85048767D01*
X200742421Y-85154024D01*
X201066446Y-84830000D01*
X201066446Y-84829999D01*
X201046556Y-84810109D01*
X201320000Y-84810109D01*
X201320000Y-84849891D01*
X201335224Y-84886645D01*
X201363355Y-84914776D01*
X201400109Y-84930000D01*
X201439891Y-84930000D01*
X201476645Y-84914776D01*
X201504776Y-84886645D01*
X201520000Y-84849891D01*
X201520000Y-84829999D01*
X201773554Y-84829999D01*
X201773554Y-84830001D01*
X202097577Y-85154024D01*
X202097578Y-85154024D01*
X202141175Y-85048775D01*
X202141179Y-85048760D01*
X202169999Y-84903873D01*
X202170000Y-84903871D01*
X202170000Y-84756128D01*
X202169999Y-84756126D01*
X202141179Y-84611240D01*
X202141178Y-84611236D01*
X202097577Y-84505975D01*
X201773554Y-84829999D01*
X201520000Y-84829999D01*
X201520000Y-84810109D01*
X201504776Y-84773355D01*
X201476645Y-84745224D01*
X201439891Y-84730000D01*
X201400109Y-84730000D01*
X201363355Y-84745224D01*
X201335224Y-84773355D01*
X201320000Y-84810109D01*
X201046556Y-84810109D01*
X200742421Y-84505974D01*
X200742420Y-84505974D01*
X200698823Y-84611228D01*
X200698820Y-84611240D01*
X200670000Y-84756126D01*
X199469999Y-84756126D01*
X199441179Y-84611240D01*
X199441178Y-84611236D01*
X199397577Y-84505975D01*
X199073554Y-84829999D01*
X198820000Y-84829999D01*
X198820000Y-84810109D01*
X198804776Y-84773355D01*
X198776645Y-84745224D01*
X198739891Y-84730000D01*
X198700109Y-84730000D01*
X198663355Y-84745224D01*
X198635224Y-84773355D01*
X198620000Y-84810109D01*
X198346556Y-84810109D01*
X198042421Y-84505974D01*
X198042420Y-84505974D01*
X197998823Y-84611228D01*
X197998820Y-84611240D01*
X197970000Y-84756126D01*
X164628026Y-84756126D01*
X164573344Y-84624112D01*
X164458611Y-84425388D01*
X164458608Y-84425385D01*
X164458607Y-84425382D01*
X164338397Y-84268723D01*
X164318918Y-84243338D01*
X164318911Y-84243330D01*
X164228001Y-84152420D01*
X198395974Y-84152420D01*
X198395974Y-84152421D01*
X198720000Y-84476446D01*
X198720001Y-84476446D01*
X199044024Y-84152421D01*
X199044022Y-84152420D01*
X201095974Y-84152420D01*
X201095974Y-84152421D01*
X201420000Y-84476446D01*
X201420001Y-84476446D01*
X201744024Y-84152421D01*
X201638767Y-84108822D01*
X201638759Y-84108820D01*
X201493872Y-84080000D01*
X201346128Y-84080000D01*
X201201240Y-84108820D01*
X201201228Y-84108823D01*
X201095974Y-84152420D01*
X199044022Y-84152420D01*
X198938767Y-84108822D01*
X198938759Y-84108820D01*
X198793872Y-84080000D01*
X198646128Y-84080000D01*
X198501240Y-84108820D01*
X198501228Y-84108823D01*
X198395974Y-84152420D01*
X164228001Y-84152420D01*
X164156670Y-84081089D01*
X164156661Y-84081081D01*
X163974617Y-83941392D01*
X163775890Y-83826657D01*
X163775876Y-83826650D01*
X163563887Y-83738842D01*
X163342238Y-83679452D01*
X163304215Y-83674446D01*
X163114741Y-83649500D01*
X163114734Y-83649500D01*
X162885266Y-83649500D01*
X162885258Y-83649500D01*
X162668715Y-83678009D01*
X162657762Y-83679452D01*
X162564076Y-83704554D01*
X162436112Y-83738842D01*
X162224123Y-83826650D01*
X162224109Y-83826657D01*
X162025382Y-83941392D01*
X161843338Y-84081081D01*
X161681081Y-84243338D01*
X161541392Y-84425382D01*
X161426657Y-84624109D01*
X161426650Y-84624123D01*
X161338842Y-84836112D01*
X161313685Y-84930000D01*
X161286798Y-85030348D01*
X161279453Y-85057759D01*
X161279451Y-85057770D01*
X161249500Y-85285258D01*
X151390500Y-85285258D01*
X151390500Y-82347273D01*
X180399500Y-82347273D01*
X180399500Y-82452727D01*
X180426793Y-82554587D01*
X180479520Y-82645913D01*
X180554087Y-82720480D01*
X180645413Y-82773207D01*
X180747273Y-82800500D01*
X180747275Y-82800500D01*
X180852725Y-82800500D01*
X180852727Y-82800500D01*
X180954587Y-82773207D01*
X181045913Y-82720480D01*
X181120480Y-82645913D01*
X181173207Y-82554587D01*
X181200500Y-82452727D01*
X181200500Y-82347273D01*
X181173207Y-82245413D01*
X181120480Y-82154087D01*
X181045913Y-82079520D01*
X180954587Y-82026793D01*
X180852727Y-81999500D01*
X180747273Y-81999500D01*
X180645413Y-82026793D01*
X180645410Y-82026794D01*
X180554085Y-82079521D01*
X180479521Y-82154085D01*
X180426794Y-82245410D01*
X180426793Y-82245413D01*
X180399500Y-82347273D01*
X151390500Y-82347273D01*
X151390500Y-80668995D01*
X185299499Y-80668995D01*
X185326418Y-80804322D01*
X185326421Y-80804332D01*
X185379221Y-80931804D01*
X185379228Y-80931817D01*
X185455885Y-81046541D01*
X185455888Y-81046545D01*
X185553454Y-81144111D01*
X185553458Y-81144114D01*
X185668182Y-81220771D01*
X185668195Y-81220778D01*
X185741750Y-81251245D01*
X185795672Y-81273580D01*
X185795676Y-81273580D01*
X185795677Y-81273581D01*
X185931004Y-81300500D01*
X185931007Y-81300500D01*
X186068995Y-81300500D01*
X186160041Y-81282389D01*
X186204328Y-81273580D01*
X186267839Y-81247273D01*
X195799500Y-81247273D01*
X195799500Y-81352727D01*
X195826793Y-81454587D01*
X195879520Y-81545913D01*
X195954087Y-81620480D01*
X196045413Y-81673207D01*
X196147273Y-81700500D01*
X196147275Y-81700500D01*
X196252725Y-81700500D01*
X196252727Y-81700500D01*
X196354587Y-81673207D01*
X196399506Y-81647273D01*
X198299500Y-81647273D01*
X198299500Y-81752727D01*
X198326793Y-81854587D01*
X198379520Y-81945913D01*
X198454087Y-82020480D01*
X198545413Y-82073207D01*
X198647273Y-82100500D01*
X198647275Y-82100500D01*
X198752725Y-82100500D01*
X198752727Y-82100500D01*
X198854587Y-82073207D01*
X198938001Y-82025047D01*
X199005900Y-82008575D01*
X199061998Y-82025047D01*
X199145413Y-82073207D01*
X199247273Y-82100500D01*
X199247275Y-82100500D01*
X199352725Y-82100500D01*
X199352727Y-82100500D01*
X199454587Y-82073207D01*
X199545913Y-82020480D01*
X199620480Y-81945913D01*
X199673207Y-81854587D01*
X199700500Y-81752727D01*
X199700500Y-81647273D01*
X199673207Y-81545413D01*
X199620480Y-81454087D01*
X199545913Y-81379520D01*
X199454587Y-81326793D01*
X199352727Y-81299500D01*
X199247273Y-81299500D01*
X199145413Y-81326793D01*
X199145410Y-81326794D01*
X199062000Y-81374951D01*
X198994099Y-81391424D01*
X198938000Y-81374951D01*
X198854589Y-81326794D01*
X198854588Y-81326793D01*
X198854587Y-81326793D01*
X198752727Y-81299500D01*
X198647273Y-81299500D01*
X198545413Y-81326793D01*
X198545410Y-81326794D01*
X198454085Y-81379521D01*
X198379521Y-81454085D01*
X198326794Y-81545410D01*
X198326793Y-81545413D01*
X198299500Y-81647273D01*
X196399506Y-81647273D01*
X196445913Y-81620480D01*
X196520480Y-81545913D01*
X196573207Y-81454587D01*
X196600500Y-81352727D01*
X196600500Y-81247273D01*
X196573207Y-81145413D01*
X196520480Y-81054087D01*
X196445913Y-80979520D01*
X196363289Y-80931817D01*
X196354589Y-80926794D01*
X196354588Y-80926793D01*
X196354587Y-80926793D01*
X196252727Y-80899500D01*
X196147273Y-80899500D01*
X196045413Y-80926793D01*
X196045410Y-80926794D01*
X195954085Y-80979521D01*
X195879521Y-81054085D01*
X195826794Y-81145410D01*
X195826793Y-81145413D01*
X195799500Y-81247273D01*
X186267839Y-81247273D01*
X186331811Y-81220775D01*
X186446542Y-81144114D01*
X186544114Y-81046542D01*
X186620775Y-80931811D01*
X186673580Y-80804328D01*
X186693338Y-80705000D01*
X186700500Y-80668995D01*
X186700500Y-80531004D01*
X186687040Y-80463338D01*
X186687040Y-80463337D01*
X186683844Y-80447273D01*
X192599500Y-80447273D01*
X192599500Y-80552727D01*
X192626793Y-80654587D01*
X192679520Y-80745913D01*
X192754087Y-80820480D01*
X192845413Y-80873207D01*
X192947273Y-80900500D01*
X192947275Y-80900500D01*
X193052725Y-80900500D01*
X193052727Y-80900500D01*
X193154587Y-80873207D01*
X193245913Y-80820480D01*
X193320480Y-80745913D01*
X193373207Y-80654587D01*
X193400500Y-80552727D01*
X193400500Y-80447273D01*
X193373207Y-80345413D01*
X193320480Y-80254087D01*
X193245913Y-80179520D01*
X193154587Y-80126793D01*
X193052727Y-80099500D01*
X192947273Y-80099500D01*
X192845413Y-80126793D01*
X192845410Y-80126794D01*
X192754085Y-80179521D01*
X192679521Y-80254085D01*
X192626794Y-80345410D01*
X192626793Y-80345413D01*
X192599500Y-80447273D01*
X186683844Y-80447273D01*
X186673581Y-80395679D01*
X186673581Y-80395677D01*
X186673580Y-80395672D01*
X186673578Y-80395667D01*
X186620778Y-80268195D01*
X186620771Y-80268182D01*
X186544114Y-80153458D01*
X186544111Y-80153454D01*
X186446545Y-80055888D01*
X186446541Y-80055885D01*
X186331817Y-79979228D01*
X186331804Y-79979221D01*
X186215889Y-79931208D01*
X186215887Y-79931208D01*
X186204328Y-79926420D01*
X186204326Y-79926419D01*
X186204322Y-79926418D01*
X186068995Y-79899500D01*
X186068993Y-79899500D01*
X185931007Y-79899500D01*
X185931005Y-79899500D01*
X185795677Y-79926418D01*
X185795667Y-79926421D01*
X185668195Y-79979221D01*
X185668182Y-79979228D01*
X185553458Y-80055885D01*
X185553454Y-80055888D01*
X185455888Y-80153454D01*
X185455885Y-80153458D01*
X185379228Y-80268182D01*
X185379221Y-80268195D01*
X185326421Y-80395667D01*
X185326418Y-80395677D01*
X185299500Y-80531004D01*
X185299500Y-80531007D01*
X185299500Y-80668993D01*
X185299500Y-80668995D01*
X185299499Y-80668995D01*
X151390500Y-80668995D01*
X151390500Y-79824773D01*
X200269500Y-79824773D01*
X200269500Y-79930227D01*
X200296793Y-80032087D01*
X200349520Y-80123413D01*
X200424087Y-80197980D01*
X200515413Y-80250707D01*
X200617273Y-80278000D01*
X200617275Y-80278000D01*
X200722725Y-80278000D01*
X200722727Y-80278000D01*
X200824587Y-80250707D01*
X200915913Y-80197980D01*
X200990480Y-80123413D01*
X201043207Y-80032087D01*
X201070500Y-79930227D01*
X201070500Y-79824773D01*
X201062522Y-79795000D01*
X214694157Y-79795000D01*
X215505382Y-79795000D01*
X215454936Y-79845446D01*
X215412149Y-79919555D01*
X215390000Y-80002213D01*
X215390000Y-80087787D01*
X215412149Y-80170445D01*
X215454936Y-80244554D01*
X215505382Y-80295000D01*
X214694157Y-80295000D01*
X214705350Y-80351274D01*
X214705351Y-80351276D01*
X214784500Y-80542358D01*
X214784505Y-80542368D01*
X214899410Y-80714335D01*
X214899413Y-80714339D01*
X215045660Y-80860586D01*
X215045664Y-80860589D01*
X215217631Y-80975494D01*
X215217641Y-80975499D01*
X215408725Y-81054649D01*
X215408733Y-81054651D01*
X215611579Y-81094999D01*
X215611583Y-81095000D01*
X215665000Y-81095000D01*
X215665000Y-80368067D01*
X215672213Y-80370000D01*
X216157787Y-80370000D01*
X216165000Y-80368067D01*
X216165000Y-81095000D01*
X216218417Y-81095000D01*
X216218420Y-81094999D01*
X216421266Y-81054651D01*
X216421274Y-81054649D01*
X216612358Y-80975499D01*
X216612368Y-80975494D01*
X216784335Y-80860589D01*
X216784339Y-80860586D01*
X216930586Y-80714339D01*
X216930589Y-80714335D01*
X217045494Y-80542368D01*
X217045499Y-80542358D01*
X217054560Y-80520485D01*
X217124648Y-80351276D01*
X217124649Y-80351274D01*
X217135843Y-80295000D01*
X216324618Y-80295000D01*
X216375064Y-80244554D01*
X216417851Y-80170445D01*
X216435388Y-80104999D01*
X217589950Y-80104999D01*
X217589950Y-80105000D01*
X218420025Y-80105000D01*
X218384930Y-80140095D01*
X218338852Y-80219905D01*
X218315000Y-80308922D01*
X218315000Y-80401078D01*
X218338852Y-80490095D01*
X218384930Y-80569905D01*
X218420025Y-80605000D01*
X217589950Y-80605000D01*
X217593932Y-80630144D01*
X217651082Y-80806037D01*
X217651084Y-80806043D01*
X217735052Y-80970837D01*
X217843754Y-81120454D01*
X217843758Y-81120459D01*
X217974540Y-81251241D01*
X217974545Y-81251245D01*
X218124162Y-81359947D01*
X218288956Y-81443915D01*
X218288959Y-81443916D01*
X218464852Y-81501066D01*
X218647527Y-81530000D01*
X218665000Y-81530000D01*
X218665000Y-80705000D01*
X219165000Y-80705000D01*
X219165000Y-81530000D01*
X219182473Y-81530000D01*
X219365147Y-81501066D01*
X219541040Y-81443916D01*
X219541043Y-81443915D01*
X219705837Y-81359947D01*
X219855454Y-81251245D01*
X219855459Y-81251241D01*
X219986241Y-81120459D01*
X219986245Y-81120454D01*
X220094947Y-80970837D01*
X220178915Y-80806043D01*
X220178917Y-80806037D01*
X220236067Y-80630144D01*
X220240049Y-80605000D01*
X219409975Y-80605000D01*
X219445070Y-80569905D01*
X219491148Y-80490095D01*
X219515000Y-80401078D01*
X219515000Y-80308922D01*
X219491148Y-80219905D01*
X219445070Y-80140095D01*
X219409975Y-80105000D01*
X220240050Y-80105000D01*
X220240049Y-80104999D01*
X220236067Y-80079855D01*
X220178917Y-79903962D01*
X220178915Y-79903956D01*
X220094947Y-79739162D01*
X219986245Y-79589545D01*
X219986241Y-79589540D01*
X219855459Y-79458758D01*
X219855454Y-79458754D01*
X219705837Y-79350052D01*
X219541043Y-79266084D01*
X219541040Y-79266083D01*
X219365147Y-79208933D01*
X219182473Y-79180000D01*
X219165000Y-79180000D01*
X219165000Y-80005000D01*
X218665000Y-80005000D01*
X218665000Y-79180000D01*
X218647527Y-79180000D01*
X218464852Y-79208933D01*
X218288959Y-79266083D01*
X218288956Y-79266084D01*
X218124162Y-79350052D01*
X217974545Y-79458754D01*
X217974540Y-79458758D01*
X217843758Y-79589540D01*
X217843754Y-79589545D01*
X217735052Y-79739162D01*
X217651084Y-79903956D01*
X217651082Y-79903962D01*
X217593932Y-80079855D01*
X217589950Y-80104999D01*
X216435388Y-80104999D01*
X216440000Y-80087787D01*
X216440000Y-80002213D01*
X216417851Y-79919555D01*
X216375064Y-79845446D01*
X216324618Y-79795000D01*
X217135843Y-79795000D01*
X217124649Y-79738725D01*
X217124648Y-79738723D01*
X217045499Y-79547641D01*
X217045494Y-79547631D01*
X216930589Y-79375664D01*
X216930586Y-79375660D01*
X216784339Y-79229413D01*
X216784335Y-79229410D01*
X216612368Y-79114505D01*
X216612358Y-79114500D01*
X216421274Y-79035350D01*
X216421266Y-79035348D01*
X216218420Y-78995000D01*
X216165000Y-78995000D01*
X216165000Y-79721932D01*
X216157787Y-79720000D01*
X215672213Y-79720000D01*
X215665000Y-79721932D01*
X215665000Y-78995000D01*
X215611579Y-78995000D01*
X215408733Y-79035348D01*
X215408725Y-79035350D01*
X215217641Y-79114500D01*
X215217631Y-79114505D01*
X215045664Y-79229410D01*
X215045660Y-79229413D01*
X214899413Y-79375660D01*
X214899410Y-79375664D01*
X214784505Y-79547631D01*
X214784500Y-79547641D01*
X214705351Y-79738723D01*
X214705350Y-79738725D01*
X214694157Y-79795000D01*
X201062522Y-79795000D01*
X201043207Y-79722913D01*
X200990480Y-79631587D01*
X200915913Y-79557020D01*
X200824587Y-79504293D01*
X200722727Y-79477000D01*
X200617273Y-79477000D01*
X200515413Y-79504293D01*
X200515410Y-79504294D01*
X200424085Y-79557021D01*
X200349521Y-79631585D01*
X200296794Y-79722910D01*
X200296793Y-79722913D01*
X200269500Y-79824773D01*
X151390500Y-79824773D01*
X151390500Y-78947273D01*
X193799500Y-78947273D01*
X193799500Y-79052727D01*
X193826793Y-79154587D01*
X193879520Y-79245913D01*
X193954087Y-79320480D01*
X194045413Y-79373207D01*
X194147273Y-79400500D01*
X194147275Y-79400500D01*
X194252725Y-79400500D01*
X194252727Y-79400500D01*
X194354587Y-79373207D01*
X194445913Y-79320480D01*
X194520480Y-79245913D01*
X194573207Y-79154587D01*
X194600500Y-79052727D01*
X194600500Y-78947273D01*
X194573207Y-78845413D01*
X194520480Y-78754087D01*
X194445913Y-78679520D01*
X194354587Y-78626793D01*
X194252727Y-78599500D01*
X194147273Y-78599500D01*
X194045413Y-78626793D01*
X194045410Y-78626794D01*
X193954085Y-78679521D01*
X193879521Y-78754085D01*
X193826794Y-78845410D01*
X193826793Y-78845413D01*
X193799500Y-78947273D01*
X151390500Y-78947273D01*
X151390500Y-78447273D01*
X202799500Y-78447273D01*
X202799500Y-78552727D01*
X202826793Y-78654587D01*
X202879520Y-78745913D01*
X202954087Y-78820480D01*
X203045413Y-78873207D01*
X203147273Y-78900500D01*
X203147275Y-78900500D01*
X203252725Y-78900500D01*
X203252727Y-78900500D01*
X203354587Y-78873207D01*
X203445913Y-78820480D01*
X203520480Y-78745913D01*
X203573207Y-78654587D01*
X203600500Y-78552727D01*
X203600500Y-78447273D01*
X203573207Y-78345413D01*
X203520480Y-78254087D01*
X203445913Y-78179520D01*
X203354587Y-78126793D01*
X203252727Y-78099500D01*
X203147273Y-78099500D01*
X203045413Y-78126793D01*
X203045410Y-78126794D01*
X202954085Y-78179521D01*
X202879521Y-78254085D01*
X202826794Y-78345410D01*
X202826793Y-78345413D01*
X202799500Y-78447273D01*
X151390500Y-78447273D01*
X151390500Y-77734773D01*
X199879500Y-77734773D01*
X199879500Y-77840227D01*
X199906793Y-77942087D01*
X199959520Y-78033413D01*
X200034087Y-78107980D01*
X200125413Y-78160707D01*
X200227273Y-78188000D01*
X200227275Y-78188000D01*
X200332725Y-78188000D01*
X200332727Y-78188000D01*
X200434587Y-78160707D01*
X200525913Y-78107980D01*
X200600480Y-78033413D01*
X200653207Y-77942087D01*
X200680500Y-77840227D01*
X200680500Y-77734773D01*
X200653207Y-77632913D01*
X200600480Y-77541587D01*
X200525913Y-77467020D01*
X200434587Y-77414293D01*
X200332727Y-77387000D01*
X200227273Y-77387000D01*
X200125413Y-77414293D01*
X200125410Y-77414294D01*
X200034085Y-77467021D01*
X199959521Y-77541585D01*
X199906794Y-77632910D01*
X199906793Y-77632913D01*
X199879500Y-77734773D01*
X151390500Y-77734773D01*
X151390500Y-76200827D01*
X189453054Y-76200827D01*
X189453054Y-76306281D01*
X189480347Y-76408141D01*
X189533074Y-76499467D01*
X189607641Y-76574034D01*
X189698967Y-76626761D01*
X189800827Y-76654054D01*
X189800829Y-76654054D01*
X189906279Y-76654054D01*
X189906281Y-76654054D01*
X190008141Y-76626761D01*
X190099467Y-76574034D01*
X190174034Y-76499467D01*
X190226761Y-76408141D01*
X190254054Y-76306281D01*
X190254054Y-76200827D01*
X190226761Y-76098967D01*
X190174034Y-76007641D01*
X190113666Y-75947273D01*
X197599500Y-75947273D01*
X197599500Y-76052727D01*
X197621679Y-76135499D01*
X197626793Y-76154586D01*
X197626794Y-76154589D01*
X197674951Y-76238000D01*
X197691424Y-76305901D01*
X197674951Y-76362000D01*
X197626794Y-76445410D01*
X197626793Y-76445413D01*
X197599500Y-76547273D01*
X197599500Y-76652727D01*
X197626793Y-76754587D01*
X197679520Y-76845913D01*
X197754087Y-76920480D01*
X197845413Y-76973207D01*
X197947273Y-77000500D01*
X197947275Y-77000500D01*
X198052725Y-77000500D01*
X198052727Y-77000500D01*
X198154587Y-76973207D01*
X198245913Y-76920480D01*
X198320480Y-76845913D01*
X198373207Y-76754587D01*
X198400500Y-76652727D01*
X198400500Y-76547273D01*
X198373207Y-76445413D01*
X198325047Y-76361998D01*
X198308575Y-76294100D01*
X198325047Y-76238001D01*
X198373207Y-76154587D01*
X198400500Y-76052727D01*
X198400500Y-75947273D01*
X198373207Y-75845413D01*
X198320480Y-75754087D01*
X198245913Y-75679520D01*
X198154587Y-75626793D01*
X198052727Y-75599500D01*
X197947273Y-75599500D01*
X197845413Y-75626793D01*
X197845410Y-75626794D01*
X197754085Y-75679521D01*
X197679521Y-75754085D01*
X197626794Y-75845410D01*
X197626793Y-75845413D01*
X197599500Y-75947273D01*
X190113666Y-75947273D01*
X190099467Y-75933074D01*
X190008141Y-75880347D01*
X189906281Y-75853054D01*
X189800827Y-75853054D01*
X189698967Y-75880347D01*
X189698964Y-75880348D01*
X189607639Y-75933075D01*
X189533075Y-76007639D01*
X189480348Y-76098964D01*
X189480347Y-76098967D01*
X189453054Y-76200827D01*
X151390500Y-76200827D01*
X151390500Y-74311304D01*
X153349500Y-74311304D01*
X153349500Y-74488695D01*
X153384103Y-74662658D01*
X153384106Y-74662667D01*
X153451983Y-74826540D01*
X153451990Y-74826553D01*
X153550535Y-74974034D01*
X153550538Y-74974038D01*
X153675961Y-75099461D01*
X153675965Y-75099464D01*
X153823446Y-75198009D01*
X153823459Y-75198016D01*
X153879306Y-75221148D01*
X153987334Y-75265894D01*
X153987336Y-75265894D01*
X153987341Y-75265896D01*
X154161304Y-75300499D01*
X154161307Y-75300500D01*
X154161309Y-75300500D01*
X154338693Y-75300500D01*
X154338694Y-75300499D01*
X154396682Y-75288964D01*
X154512658Y-75265896D01*
X154512661Y-75265894D01*
X154512666Y-75265894D01*
X154676547Y-75198013D01*
X154824035Y-75099464D01*
X154949464Y-74974035D01*
X155048013Y-74826547D01*
X155115894Y-74662666D01*
X155119288Y-74645606D01*
X155128383Y-74599882D01*
X155160768Y-74537971D01*
X155221483Y-74503397D01*
X155291253Y-74507136D01*
X155347925Y-74548003D01*
X155371617Y-74599882D01*
X155384103Y-74662658D01*
X155384106Y-74662667D01*
X155451983Y-74826540D01*
X155451990Y-74826553D01*
X155550535Y-74974034D01*
X155550538Y-74974038D01*
X155675961Y-75099461D01*
X155675965Y-75099464D01*
X155823446Y-75198009D01*
X155823459Y-75198016D01*
X155879306Y-75221148D01*
X155987334Y-75265894D01*
X155987336Y-75265894D01*
X155987341Y-75265896D01*
X156161304Y-75300499D01*
X156161307Y-75300500D01*
X156161309Y-75300500D01*
X156338693Y-75300500D01*
X156338694Y-75300499D01*
X156396682Y-75288964D01*
X156512658Y-75265896D01*
X156512661Y-75265894D01*
X156512666Y-75265894D01*
X156676547Y-75198013D01*
X156824035Y-75099464D01*
X156949464Y-74974035D01*
X157048013Y-74826547D01*
X157115894Y-74662666D01*
X157119288Y-74645606D01*
X157128383Y-74599882D01*
X157160768Y-74537971D01*
X157221483Y-74503397D01*
X157291253Y-74507136D01*
X157347925Y-74548003D01*
X157371617Y-74599882D01*
X157384103Y-74662658D01*
X157384106Y-74662667D01*
X157451983Y-74826540D01*
X157451990Y-74826553D01*
X157550535Y-74974034D01*
X157550538Y-74974038D01*
X157675961Y-75099461D01*
X157675965Y-75099464D01*
X157823446Y-75198009D01*
X157823459Y-75198016D01*
X157879306Y-75221148D01*
X157987334Y-75265894D01*
X157987336Y-75265894D01*
X157987341Y-75265896D01*
X158161304Y-75300499D01*
X158161307Y-75300500D01*
X158161309Y-75300500D01*
X158338693Y-75300500D01*
X158338694Y-75300499D01*
X158396682Y-75288964D01*
X158512658Y-75265896D01*
X158512661Y-75265894D01*
X158512666Y-75265894D01*
X158676547Y-75198013D01*
X158824035Y-75099464D01*
X158949464Y-74974035D01*
X159048013Y-74826547D01*
X159115894Y-74662666D01*
X159119288Y-74645606D01*
X159128383Y-74599882D01*
X159160768Y-74537971D01*
X159221483Y-74503397D01*
X159291253Y-74507136D01*
X159347925Y-74548003D01*
X159371617Y-74599882D01*
X159384103Y-74662658D01*
X159384106Y-74662667D01*
X159451983Y-74826540D01*
X159451990Y-74826553D01*
X159550535Y-74974034D01*
X159550538Y-74974038D01*
X159675961Y-75099461D01*
X159675965Y-75099464D01*
X159823446Y-75198009D01*
X159823459Y-75198016D01*
X159879306Y-75221148D01*
X159987334Y-75265894D01*
X159987336Y-75265894D01*
X159987341Y-75265896D01*
X160161304Y-75300499D01*
X160161307Y-75300500D01*
X160161309Y-75300500D01*
X160338693Y-75300500D01*
X160338694Y-75300499D01*
X160396682Y-75288964D01*
X160512658Y-75265896D01*
X160512661Y-75265894D01*
X160512666Y-75265894D01*
X160676547Y-75198013D01*
X160824035Y-75099464D01*
X160949464Y-74974035D01*
X161048013Y-74826547D01*
X161115894Y-74662666D01*
X161119288Y-74645606D01*
X161128383Y-74599882D01*
X161160768Y-74537971D01*
X161221483Y-74503397D01*
X161291253Y-74507136D01*
X161347925Y-74548003D01*
X161371617Y-74599882D01*
X161384103Y-74662658D01*
X161384106Y-74662667D01*
X161451983Y-74826540D01*
X161451990Y-74826553D01*
X161550535Y-74974034D01*
X161550538Y-74974038D01*
X161675961Y-75099461D01*
X161675965Y-75099464D01*
X161823446Y-75198009D01*
X161823459Y-75198016D01*
X161879306Y-75221148D01*
X161987334Y-75265894D01*
X161987336Y-75265894D01*
X161987341Y-75265896D01*
X162161304Y-75300499D01*
X162161307Y-75300500D01*
X162161309Y-75300500D01*
X162338693Y-75300500D01*
X162338694Y-75300499D01*
X162396682Y-75288964D01*
X162512658Y-75265896D01*
X162512661Y-75265894D01*
X162512666Y-75265894D01*
X162676547Y-75198013D01*
X162824035Y-75099464D01*
X162949464Y-74974035D01*
X163048013Y-74826547D01*
X163115894Y-74662666D01*
X163119288Y-74645606D01*
X163128383Y-74599882D01*
X163160768Y-74537971D01*
X163221483Y-74503397D01*
X163291253Y-74507136D01*
X163347925Y-74548003D01*
X163371617Y-74599882D01*
X163384103Y-74662658D01*
X163384106Y-74662667D01*
X163451983Y-74826540D01*
X163451990Y-74826553D01*
X163550535Y-74974034D01*
X163550538Y-74974038D01*
X163675961Y-75099461D01*
X163675965Y-75099464D01*
X163823446Y-75198009D01*
X163823459Y-75198016D01*
X163879306Y-75221148D01*
X163987334Y-75265894D01*
X163987336Y-75265894D01*
X163987341Y-75265896D01*
X164161304Y-75300499D01*
X164161307Y-75300500D01*
X164161309Y-75300500D01*
X164338693Y-75300500D01*
X164338694Y-75300499D01*
X164396682Y-75288964D01*
X164512658Y-75265896D01*
X164512661Y-75265894D01*
X164512666Y-75265894D01*
X164620694Y-75221148D01*
X164676541Y-75198016D01*
X164676544Y-75198014D01*
X164676547Y-75198013D01*
X164824035Y-75099464D01*
X164949464Y-74974035D01*
X164971626Y-74940868D01*
X165025235Y-74896064D01*
X165094560Y-74887355D01*
X165157588Y-74917509D01*
X165185211Y-74953463D01*
X165223664Y-75028930D01*
X165242116Y-75054328D01*
X165850000Y-74446445D01*
X165850000Y-74452661D01*
X165877259Y-74554394D01*
X165929920Y-74645606D01*
X166004394Y-74720080D01*
X166095606Y-74772741D01*
X166197339Y-74800000D01*
X166203554Y-74800000D01*
X165595669Y-75407882D01*
X165595670Y-75407883D01*
X165621059Y-75426329D01*
X165789362Y-75512085D01*
X165968997Y-75570451D01*
X166155553Y-75600000D01*
X166344447Y-75600000D01*
X166531002Y-75570451D01*
X166710637Y-75512085D01*
X166878937Y-75426331D01*
X166904328Y-75407883D01*
X166904328Y-75407882D01*
X166296447Y-74800000D01*
X166302661Y-74800000D01*
X166404394Y-74772741D01*
X166495606Y-74720080D01*
X166570080Y-74645606D01*
X166622741Y-74554394D01*
X166650000Y-74452661D01*
X166650000Y-74446446D01*
X167257882Y-75054328D01*
X167257883Y-75054328D01*
X167276331Y-75028937D01*
X167314787Y-74953464D01*
X167362761Y-74902668D01*
X167430582Y-74885873D01*
X167496717Y-74908410D01*
X167528374Y-74940868D01*
X167550535Y-74974034D01*
X167550538Y-74974038D01*
X167675961Y-75099461D01*
X167675965Y-75099464D01*
X167823446Y-75198009D01*
X167823459Y-75198016D01*
X167879306Y-75221148D01*
X167987334Y-75265894D01*
X167987336Y-75265894D01*
X167987341Y-75265896D01*
X168161304Y-75300499D01*
X168161307Y-75300500D01*
X168161309Y-75300500D01*
X168338693Y-75300500D01*
X168338694Y-75300499D01*
X168396682Y-75288964D01*
X168512658Y-75265896D01*
X168512661Y-75265894D01*
X168512666Y-75265894D01*
X168676547Y-75198013D01*
X168824035Y-75099464D01*
X168949464Y-74974035D01*
X169048013Y-74826547D01*
X169115894Y-74662666D01*
X169119288Y-74645606D01*
X169128383Y-74599882D01*
X169160768Y-74537971D01*
X169221483Y-74503397D01*
X169291253Y-74507136D01*
X169347925Y-74548003D01*
X169371617Y-74599882D01*
X169384103Y-74662658D01*
X169384106Y-74662667D01*
X169451983Y-74826540D01*
X169451990Y-74826553D01*
X169550535Y-74974034D01*
X169550538Y-74974038D01*
X169675961Y-75099461D01*
X169675965Y-75099464D01*
X169823446Y-75198009D01*
X169823459Y-75198016D01*
X169879306Y-75221148D01*
X169987334Y-75265894D01*
X169987336Y-75265894D01*
X169987341Y-75265896D01*
X170161304Y-75300499D01*
X170161307Y-75300500D01*
X170161309Y-75300500D01*
X170338693Y-75300500D01*
X170338694Y-75300499D01*
X170396682Y-75288964D01*
X170512658Y-75265896D01*
X170512661Y-75265894D01*
X170512666Y-75265894D01*
X170676547Y-75198013D01*
X170824035Y-75099464D01*
X170949464Y-74974035D01*
X171048013Y-74826547D01*
X171115894Y-74662666D01*
X171119288Y-74645606D01*
X171128383Y-74599882D01*
X171160768Y-74537971D01*
X171221483Y-74503397D01*
X171291253Y-74507136D01*
X171347925Y-74548003D01*
X171371617Y-74599882D01*
X171384103Y-74662658D01*
X171384106Y-74662667D01*
X171451983Y-74826540D01*
X171451990Y-74826553D01*
X171550535Y-74974034D01*
X171550538Y-74974038D01*
X171675961Y-75099461D01*
X171675965Y-75099464D01*
X171823446Y-75198009D01*
X171823459Y-75198016D01*
X171879306Y-75221148D01*
X171987334Y-75265894D01*
X171987336Y-75265894D01*
X171987341Y-75265896D01*
X172161304Y-75300499D01*
X172161307Y-75300500D01*
X172161309Y-75300500D01*
X172338690Y-75300500D01*
X172338691Y-75300500D01*
X172340951Y-75300050D01*
X172340954Y-75300050D01*
X172386475Y-75290994D01*
X172512666Y-75265894D01*
X172676547Y-75198013D01*
X172824035Y-75099464D01*
X172949464Y-74974035D01*
X172962183Y-74955000D01*
X214694157Y-74955000D01*
X215505382Y-74955000D01*
X215454936Y-75005446D01*
X215412149Y-75079555D01*
X215390000Y-75162213D01*
X215390000Y-75247787D01*
X215412149Y-75330445D01*
X215454936Y-75404554D01*
X215505382Y-75455000D01*
X214694157Y-75455000D01*
X214705350Y-75511274D01*
X214705351Y-75511276D01*
X214784500Y-75702358D01*
X214784505Y-75702368D01*
X214899410Y-75874335D01*
X214899413Y-75874339D01*
X215045660Y-76020586D01*
X215045664Y-76020589D01*
X215217631Y-76135494D01*
X215217641Y-76135499D01*
X215408725Y-76214649D01*
X215408733Y-76214651D01*
X215611579Y-76254999D01*
X215611583Y-76255000D01*
X215665000Y-76255000D01*
X215665000Y-75528067D01*
X215672213Y-75530000D01*
X216157787Y-75530000D01*
X216165000Y-75528067D01*
X216165000Y-76255000D01*
X216218417Y-76255000D01*
X216218420Y-76254999D01*
X216421266Y-76214651D01*
X216421274Y-76214649D01*
X216612358Y-76135499D01*
X216612368Y-76135494D01*
X216784335Y-76020589D01*
X216784339Y-76020586D01*
X216930586Y-75874339D01*
X216930589Y-75874335D01*
X217045494Y-75702368D01*
X217045499Y-75702358D01*
X217124648Y-75511276D01*
X217124649Y-75511274D01*
X217135843Y-75455000D01*
X216324618Y-75455000D01*
X216375064Y-75404554D01*
X216417851Y-75330445D01*
X216440000Y-75247787D01*
X216440000Y-75162213D01*
X216417851Y-75079555D01*
X216375064Y-75005446D01*
X216324618Y-74955000D01*
X217135843Y-74955000D01*
X217124649Y-74898725D01*
X217124648Y-74898723D01*
X217054560Y-74729515D01*
X217045499Y-74707641D01*
X217045494Y-74707631D01*
X217003645Y-74644999D01*
X217589950Y-74644999D01*
X217589950Y-74645000D01*
X218420025Y-74645000D01*
X218384930Y-74680095D01*
X218338852Y-74759905D01*
X218315000Y-74848922D01*
X218315000Y-74941078D01*
X218338852Y-75030095D01*
X218384930Y-75109905D01*
X218420025Y-75145000D01*
X217589950Y-75145000D01*
X217593932Y-75170144D01*
X217651082Y-75346037D01*
X217651084Y-75346043D01*
X217735052Y-75510837D01*
X217843754Y-75660454D01*
X217843758Y-75660459D01*
X217974540Y-75791241D01*
X217974545Y-75791245D01*
X218124162Y-75899947D01*
X218288956Y-75983915D01*
X218288959Y-75983916D01*
X218464852Y-76041066D01*
X218647527Y-76070000D01*
X218665000Y-76070000D01*
X218665000Y-75245000D01*
X219165000Y-75245000D01*
X219165000Y-76070000D01*
X219182473Y-76070000D01*
X219365147Y-76041066D01*
X219541040Y-75983916D01*
X219541043Y-75983915D01*
X219705837Y-75899947D01*
X219855454Y-75791245D01*
X219855459Y-75791241D01*
X219986241Y-75660459D01*
X219986245Y-75660454D01*
X220094947Y-75510837D01*
X220178915Y-75346043D01*
X220178917Y-75346037D01*
X220236067Y-75170144D01*
X220240049Y-75145000D01*
X219409975Y-75145000D01*
X219445070Y-75109905D01*
X219491148Y-75030095D01*
X219515000Y-74941078D01*
X219515000Y-74848922D01*
X219491148Y-74759905D01*
X219445070Y-74680095D01*
X219409975Y-74645000D01*
X220240050Y-74645000D01*
X220240049Y-74644999D01*
X220236067Y-74619855D01*
X220178917Y-74443962D01*
X220178915Y-74443956D01*
X220094947Y-74279162D01*
X219986245Y-74129545D01*
X219986241Y-74129540D01*
X219855459Y-73998758D01*
X219855454Y-73998754D01*
X219705837Y-73890052D01*
X219541043Y-73806084D01*
X219541040Y-73806083D01*
X219365147Y-73748933D01*
X219182473Y-73720000D01*
X219165000Y-73720000D01*
X219165000Y-74545000D01*
X218665000Y-74545000D01*
X218665000Y-73720000D01*
X218647527Y-73720000D01*
X218464852Y-73748933D01*
X218288959Y-73806083D01*
X218288956Y-73806084D01*
X218124162Y-73890052D01*
X217974545Y-73998754D01*
X217974540Y-73998758D01*
X217843758Y-74129540D01*
X217843754Y-74129545D01*
X217735052Y-74279162D01*
X217651084Y-74443956D01*
X217651082Y-74443962D01*
X217593932Y-74619855D01*
X217589950Y-74644999D01*
X217003645Y-74644999D01*
X216930589Y-74535664D01*
X216930586Y-74535660D01*
X216784339Y-74389413D01*
X216784335Y-74389410D01*
X216612368Y-74274505D01*
X216612358Y-74274500D01*
X216421274Y-74195350D01*
X216421266Y-74195348D01*
X216218420Y-74155000D01*
X216165000Y-74155000D01*
X216165000Y-74881932D01*
X216157787Y-74880000D01*
X215672213Y-74880000D01*
X215665000Y-74881932D01*
X215665000Y-74155000D01*
X215611579Y-74155000D01*
X215408733Y-74195348D01*
X215408725Y-74195350D01*
X215217641Y-74274500D01*
X215217631Y-74274505D01*
X215045664Y-74389410D01*
X215045660Y-74389413D01*
X214899413Y-74535660D01*
X214899410Y-74535664D01*
X214784505Y-74707631D01*
X214784500Y-74707641D01*
X214705351Y-74898723D01*
X214705350Y-74898725D01*
X214694157Y-74955000D01*
X172962183Y-74955000D01*
X173048013Y-74826547D01*
X173115894Y-74662666D01*
X173119288Y-74645606D01*
X173150499Y-74488695D01*
X173150500Y-74488693D01*
X173150500Y-74311306D01*
X173150499Y-74311304D01*
X173115896Y-74137341D01*
X173115893Y-74137332D01*
X173048016Y-73973459D01*
X173048009Y-73973446D01*
X172949464Y-73825965D01*
X172949461Y-73825961D01*
X172824038Y-73700538D01*
X172824034Y-73700535D01*
X172676553Y-73601990D01*
X172676540Y-73601983D01*
X172512667Y-73534106D01*
X172512658Y-73534103D01*
X172338694Y-73499500D01*
X172338691Y-73499500D01*
X172161309Y-73499500D01*
X172161306Y-73499500D01*
X171987341Y-73534103D01*
X171987332Y-73534106D01*
X171823459Y-73601983D01*
X171823446Y-73601990D01*
X171675965Y-73700535D01*
X171675961Y-73700538D01*
X171550538Y-73825961D01*
X171550535Y-73825965D01*
X171451990Y-73973446D01*
X171451983Y-73973459D01*
X171384106Y-74137332D01*
X171384104Y-74137340D01*
X171371617Y-74200118D01*
X171339232Y-74262028D01*
X171278516Y-74296603D01*
X171208747Y-74292863D01*
X171152075Y-74251996D01*
X171128383Y-74200118D01*
X171115895Y-74137340D01*
X171115894Y-74137334D01*
X171092113Y-74079920D01*
X171048016Y-73973459D01*
X171048009Y-73973446D01*
X170949464Y-73825965D01*
X170949461Y-73825961D01*
X170824038Y-73700538D01*
X170824034Y-73700535D01*
X170676553Y-73601990D01*
X170676540Y-73601983D01*
X170512667Y-73534106D01*
X170512658Y-73534103D01*
X170338694Y-73499500D01*
X170338691Y-73499500D01*
X170161309Y-73499500D01*
X170161306Y-73499500D01*
X169987341Y-73534103D01*
X169987332Y-73534106D01*
X169823459Y-73601983D01*
X169823446Y-73601990D01*
X169675965Y-73700535D01*
X169675961Y-73700538D01*
X169550538Y-73825961D01*
X169550535Y-73825965D01*
X169451990Y-73973446D01*
X169451983Y-73973459D01*
X169384106Y-74137332D01*
X169384104Y-74137340D01*
X169371617Y-74200118D01*
X169339232Y-74262028D01*
X169278516Y-74296603D01*
X169208747Y-74292863D01*
X169152075Y-74251996D01*
X169128383Y-74200118D01*
X169115895Y-74137340D01*
X169115894Y-74137334D01*
X169092113Y-74079920D01*
X169048016Y-73973459D01*
X169048009Y-73973446D01*
X168949464Y-73825965D01*
X168949461Y-73825961D01*
X168824038Y-73700538D01*
X168824034Y-73700535D01*
X168676553Y-73601990D01*
X168676540Y-73601983D01*
X168512667Y-73534106D01*
X168512658Y-73534103D01*
X168338694Y-73499500D01*
X168338691Y-73499500D01*
X168161309Y-73499500D01*
X168161306Y-73499500D01*
X167987341Y-73534103D01*
X167987332Y-73534106D01*
X167823459Y-73601983D01*
X167823446Y-73601990D01*
X167675965Y-73700535D01*
X167675961Y-73700538D01*
X167550538Y-73825961D01*
X167550533Y-73825967D01*
X167528373Y-73859132D01*
X167474760Y-73903937D01*
X167405435Y-73912643D01*
X167342408Y-73882487D01*
X167314787Y-73846535D01*
X167276329Y-73771059D01*
X167257883Y-73745670D01*
X167257882Y-73745669D01*
X166650000Y-74353552D01*
X166650000Y-74347339D01*
X166622741Y-74245606D01*
X166570080Y-74154394D01*
X166495606Y-74079920D01*
X166404394Y-74027259D01*
X166302661Y-74000000D01*
X166296447Y-74000000D01*
X166904328Y-73392116D01*
X166878933Y-73373666D01*
X166710637Y-73287914D01*
X166531002Y-73229548D01*
X166344447Y-73200000D01*
X166155553Y-73200000D01*
X165968997Y-73229548D01*
X165789362Y-73287914D01*
X165621060Y-73373669D01*
X165595670Y-73392116D01*
X165595669Y-73392116D01*
X166203554Y-74000000D01*
X166197339Y-74000000D01*
X166095606Y-74027259D01*
X166004394Y-74079920D01*
X165929920Y-74154394D01*
X165877259Y-74245606D01*
X165850000Y-74347339D01*
X165850000Y-74353553D01*
X165242116Y-73745669D01*
X165242116Y-73745670D01*
X165223669Y-73771060D01*
X165185211Y-73846537D01*
X165137236Y-73897332D01*
X165069414Y-73914126D01*
X165003280Y-73891587D01*
X164971625Y-73859130D01*
X164949467Y-73825969D01*
X164949461Y-73825961D01*
X164824038Y-73700538D01*
X164824034Y-73700535D01*
X164676553Y-73601990D01*
X164676540Y-73601983D01*
X164560545Y-73553937D01*
X164560543Y-73553937D01*
X164512666Y-73534106D01*
X164512659Y-73534104D01*
X164512658Y-73534104D01*
X164512658Y-73534103D01*
X164338694Y-73499500D01*
X164338691Y-73499500D01*
X164161309Y-73499500D01*
X164161306Y-73499500D01*
X163987341Y-73534103D01*
X163987332Y-73534106D01*
X163823459Y-73601983D01*
X163823446Y-73601990D01*
X163675965Y-73700535D01*
X163675961Y-73700538D01*
X163550538Y-73825961D01*
X163550535Y-73825965D01*
X163451990Y-73973446D01*
X163451983Y-73973459D01*
X163384106Y-74137332D01*
X163384104Y-74137340D01*
X163371617Y-74200118D01*
X163339232Y-74262028D01*
X163278516Y-74296603D01*
X163208747Y-74292863D01*
X163152075Y-74251996D01*
X163128383Y-74200118D01*
X163115895Y-74137340D01*
X163115894Y-74137334D01*
X163092113Y-74079920D01*
X163048016Y-73973459D01*
X163048009Y-73973446D01*
X162949464Y-73825965D01*
X162949461Y-73825961D01*
X162824038Y-73700538D01*
X162824034Y-73700535D01*
X162676553Y-73601990D01*
X162676540Y-73601983D01*
X162512667Y-73534106D01*
X162512658Y-73534103D01*
X162338694Y-73499500D01*
X162338691Y-73499500D01*
X162161309Y-73499500D01*
X162161306Y-73499500D01*
X161987341Y-73534103D01*
X161987332Y-73534106D01*
X161823459Y-73601983D01*
X161823446Y-73601990D01*
X161675965Y-73700535D01*
X161675961Y-73700538D01*
X161550538Y-73825961D01*
X161550535Y-73825965D01*
X161451990Y-73973446D01*
X161451983Y-73973459D01*
X161384106Y-74137332D01*
X161384104Y-74137340D01*
X161371617Y-74200118D01*
X161339232Y-74262028D01*
X161278516Y-74296603D01*
X161208747Y-74292863D01*
X161152075Y-74251996D01*
X161128383Y-74200118D01*
X161115895Y-74137340D01*
X161115894Y-74137334D01*
X161092113Y-74079920D01*
X161048016Y-73973459D01*
X161048009Y-73973446D01*
X160949464Y-73825965D01*
X160949461Y-73825961D01*
X160824038Y-73700538D01*
X160824034Y-73700535D01*
X160676553Y-73601990D01*
X160676540Y-73601983D01*
X160512667Y-73534106D01*
X160512658Y-73534103D01*
X160338694Y-73499500D01*
X160338691Y-73499500D01*
X160161309Y-73499500D01*
X160161306Y-73499500D01*
X159987341Y-73534103D01*
X159987332Y-73534106D01*
X159823459Y-73601983D01*
X159823446Y-73601990D01*
X159675965Y-73700535D01*
X159675961Y-73700538D01*
X159550538Y-73825961D01*
X159550535Y-73825965D01*
X159451990Y-73973446D01*
X159451983Y-73973459D01*
X159384106Y-74137332D01*
X159384104Y-74137340D01*
X159371617Y-74200118D01*
X159339232Y-74262028D01*
X159278516Y-74296603D01*
X159208747Y-74292863D01*
X159152075Y-74251996D01*
X159128383Y-74200118D01*
X159115895Y-74137340D01*
X159115894Y-74137334D01*
X159092113Y-74079920D01*
X159048016Y-73973459D01*
X159048009Y-73973446D01*
X158949464Y-73825965D01*
X158949461Y-73825961D01*
X158824038Y-73700538D01*
X158824034Y-73700535D01*
X158676553Y-73601990D01*
X158676540Y-73601983D01*
X158512667Y-73534106D01*
X158512658Y-73534103D01*
X158338694Y-73499500D01*
X158338691Y-73499500D01*
X158161309Y-73499500D01*
X158161306Y-73499500D01*
X157987341Y-73534103D01*
X157987332Y-73534106D01*
X157823459Y-73601983D01*
X157823446Y-73601990D01*
X157675965Y-73700535D01*
X157675961Y-73700538D01*
X157550538Y-73825961D01*
X157550535Y-73825965D01*
X157451990Y-73973446D01*
X157451983Y-73973459D01*
X157384106Y-74137332D01*
X157384104Y-74137340D01*
X157371617Y-74200118D01*
X157339232Y-74262028D01*
X157278516Y-74296603D01*
X157208747Y-74292863D01*
X157152075Y-74251996D01*
X157128383Y-74200118D01*
X157115895Y-74137340D01*
X157115894Y-74137334D01*
X157092113Y-74079920D01*
X157048016Y-73973459D01*
X157048009Y-73973446D01*
X156949464Y-73825965D01*
X156949461Y-73825961D01*
X156824038Y-73700538D01*
X156824034Y-73700535D01*
X156676553Y-73601990D01*
X156676540Y-73601983D01*
X156512667Y-73534106D01*
X156512658Y-73534103D01*
X156338694Y-73499500D01*
X156338691Y-73499500D01*
X156161309Y-73499500D01*
X156161306Y-73499500D01*
X155987341Y-73534103D01*
X155987332Y-73534106D01*
X155823459Y-73601983D01*
X155823446Y-73601990D01*
X155675965Y-73700535D01*
X155675961Y-73700538D01*
X155550538Y-73825961D01*
X155550535Y-73825965D01*
X155451990Y-73973446D01*
X155451983Y-73973459D01*
X155384106Y-74137332D01*
X155384104Y-74137340D01*
X155371617Y-74200118D01*
X155339232Y-74262028D01*
X155278516Y-74296603D01*
X155208747Y-74292863D01*
X155152075Y-74251996D01*
X155128383Y-74200118D01*
X155115895Y-74137340D01*
X155115894Y-74137334D01*
X155092113Y-74079920D01*
X155048016Y-73973459D01*
X155048009Y-73973446D01*
X154949464Y-73825965D01*
X154949461Y-73825961D01*
X154824038Y-73700538D01*
X154824034Y-73700535D01*
X154676553Y-73601990D01*
X154676540Y-73601983D01*
X154512667Y-73534106D01*
X154512658Y-73534103D01*
X154338694Y-73499500D01*
X154338691Y-73499500D01*
X154161309Y-73499500D01*
X154161306Y-73499500D01*
X153987341Y-73534103D01*
X153987332Y-73534106D01*
X153823459Y-73601983D01*
X153823446Y-73601990D01*
X153675965Y-73700535D01*
X153675961Y-73700538D01*
X153550538Y-73825961D01*
X153550535Y-73825965D01*
X153451990Y-73973446D01*
X153451983Y-73973459D01*
X153384106Y-74137332D01*
X153384103Y-74137341D01*
X153349500Y-74311304D01*
X151390500Y-74311304D01*
X151390500Y-72347273D01*
X190199500Y-72347273D01*
X190199500Y-72452727D01*
X190226793Y-72554587D01*
X190279520Y-72645913D01*
X190354087Y-72720480D01*
X190445413Y-72773207D01*
X190547273Y-72800500D01*
X190547275Y-72800500D01*
X190652725Y-72800500D01*
X190652727Y-72800500D01*
X190754587Y-72773207D01*
X190845913Y-72720480D01*
X190920480Y-72645913D01*
X190973207Y-72554587D01*
X191000500Y-72452727D01*
X191000500Y-72347273D01*
X190973207Y-72245413D01*
X190920480Y-72154087D01*
X190845913Y-72079520D01*
X190754587Y-72026793D01*
X190652727Y-71999500D01*
X190547273Y-71999500D01*
X190445413Y-72026793D01*
X190445410Y-72026794D01*
X190354085Y-72079521D01*
X190279521Y-72154085D01*
X190226794Y-72245410D01*
X190226793Y-72245413D01*
X190199500Y-72347273D01*
X151390500Y-72347273D01*
X151390500Y-71947273D01*
X200799500Y-71947273D01*
X200799500Y-72052727D01*
X200826793Y-72154587D01*
X200879520Y-72245913D01*
X200954087Y-72320480D01*
X201045413Y-72373207D01*
X201147273Y-72400500D01*
X201147275Y-72400500D01*
X201252725Y-72400500D01*
X201252727Y-72400500D01*
X201354587Y-72373207D01*
X201445913Y-72320480D01*
X201520480Y-72245913D01*
X201573207Y-72154587D01*
X201600500Y-72052727D01*
X201600500Y-71947273D01*
X201573207Y-71845413D01*
X201520480Y-71754087D01*
X201445913Y-71679520D01*
X201354587Y-71626793D01*
X201252727Y-71599500D01*
X201147273Y-71599500D01*
X201045413Y-71626793D01*
X201045410Y-71626794D01*
X200954085Y-71679521D01*
X200879521Y-71754085D01*
X200826794Y-71845410D01*
X200826793Y-71845413D01*
X200799500Y-71947273D01*
X151390500Y-71947273D01*
X151390500Y-69085258D01*
X161749500Y-69085258D01*
X161749500Y-69314741D01*
X161774446Y-69504215D01*
X161779452Y-69542238D01*
X161779453Y-69542240D01*
X161838842Y-69763887D01*
X161926650Y-69975876D01*
X161926657Y-69975890D01*
X162041392Y-70174617D01*
X162181081Y-70356661D01*
X162181089Y-70356670D01*
X162343330Y-70518911D01*
X162343338Y-70518918D01*
X162525382Y-70658607D01*
X162525385Y-70658608D01*
X162525388Y-70658611D01*
X162724112Y-70773344D01*
X162724117Y-70773346D01*
X162724123Y-70773349D01*
X162815480Y-70811190D01*
X162936113Y-70861158D01*
X163157762Y-70920548D01*
X163385266Y-70950500D01*
X163385273Y-70950500D01*
X163614727Y-70950500D01*
X163614734Y-70950500D01*
X163639245Y-70947273D01*
X196399500Y-70947273D01*
X196399500Y-71052727D01*
X196426793Y-71154587D01*
X196479520Y-71245913D01*
X196554087Y-71320480D01*
X196645413Y-71373207D01*
X196747273Y-71400500D01*
X196747275Y-71400500D01*
X196852725Y-71400500D01*
X196852727Y-71400500D01*
X196954587Y-71373207D01*
X197045913Y-71320480D01*
X197120480Y-71245913D01*
X197173207Y-71154587D01*
X197200500Y-71052727D01*
X197200500Y-70947273D01*
X197173207Y-70845413D01*
X197120480Y-70754087D01*
X197045913Y-70679520D01*
X196954587Y-70626793D01*
X196852727Y-70599500D01*
X196747273Y-70599500D01*
X196645413Y-70626793D01*
X196645410Y-70626794D01*
X196554085Y-70679521D01*
X196479521Y-70754085D01*
X196426794Y-70845410D01*
X196426793Y-70845413D01*
X196399500Y-70947273D01*
X163639245Y-70947273D01*
X163842238Y-70920548D01*
X164063887Y-70861158D01*
X164275888Y-70773344D01*
X164474612Y-70658611D01*
X164656661Y-70518919D01*
X164656665Y-70518914D01*
X164656670Y-70518911D01*
X164818911Y-70356670D01*
X164818914Y-70356665D01*
X164818919Y-70356661D01*
X164958611Y-70174612D01*
X165073344Y-69975888D01*
X165161158Y-69763887D01*
X165220548Y-69542238D01*
X165250500Y-69314734D01*
X165250500Y-69085266D01*
X165220548Y-68857762D01*
X165161158Y-68636113D01*
X165073344Y-68424112D01*
X164958611Y-68225388D01*
X164958608Y-68225385D01*
X164958607Y-68225382D01*
X164818918Y-68043338D01*
X164818911Y-68043330D01*
X164656670Y-67881089D01*
X164656661Y-67881081D01*
X164474617Y-67741392D01*
X164275890Y-67626657D01*
X164275876Y-67626650D01*
X164063887Y-67538842D01*
X163842238Y-67479452D01*
X163804215Y-67474446D01*
X163614741Y-67449500D01*
X163614734Y-67449500D01*
X163385266Y-67449500D01*
X163385258Y-67449500D01*
X163168715Y-67478009D01*
X163157762Y-67479452D01*
X163064076Y-67504554D01*
X162936112Y-67538842D01*
X162724123Y-67626650D01*
X162724109Y-67626657D01*
X162525382Y-67741392D01*
X162343338Y-67881081D01*
X162181081Y-68043338D01*
X162041392Y-68225382D01*
X161926657Y-68424109D01*
X161926650Y-68424123D01*
X161838842Y-68636112D01*
X161779453Y-68857759D01*
X161779451Y-68857770D01*
X161749500Y-69085258D01*
X151390500Y-69085258D01*
X151390500Y-67097273D01*
X212424500Y-67097273D01*
X212424500Y-67202727D01*
X212451793Y-67304587D01*
X212504520Y-67395913D01*
X212579087Y-67470480D01*
X212670413Y-67523207D01*
X212772273Y-67550500D01*
X212772275Y-67550500D01*
X212877725Y-67550500D01*
X212877727Y-67550500D01*
X212979587Y-67523207D01*
X213070913Y-67470480D01*
X213145480Y-67395913D01*
X213198207Y-67304587D01*
X213225500Y-67202727D01*
X213225500Y-67097273D01*
X213198207Y-66995413D01*
X213145480Y-66904087D01*
X213070913Y-66829520D01*
X212979587Y-66776793D01*
X212877727Y-66749500D01*
X212772273Y-66749500D01*
X212670413Y-66776793D01*
X212670410Y-66776794D01*
X212579085Y-66829521D01*
X212504521Y-66904085D01*
X212451794Y-66995410D01*
X212451793Y-66995413D01*
X212424500Y-67097273D01*
X151390500Y-67097273D01*
X151390500Y-63085258D01*
X152149500Y-63085258D01*
X152149500Y-63314741D01*
X152162665Y-63414734D01*
X152179452Y-63542238D01*
X152179453Y-63542240D01*
X152238842Y-63763887D01*
X152326650Y-63975876D01*
X152326657Y-63975890D01*
X152441392Y-64174617D01*
X152581081Y-64356661D01*
X152581089Y-64356670D01*
X152743330Y-64518911D01*
X152743338Y-64518918D01*
X152925382Y-64658607D01*
X152925385Y-64658608D01*
X152925388Y-64658611D01*
X153124112Y-64773344D01*
X153124117Y-64773346D01*
X153124123Y-64773349D01*
X153215480Y-64811190D01*
X153336113Y-64861158D01*
X153557762Y-64920548D01*
X153785266Y-64950500D01*
X153785273Y-64950500D01*
X154014727Y-64950500D01*
X154014734Y-64950500D01*
X154242238Y-64920548D01*
X154463887Y-64861158D01*
X154675888Y-64773344D01*
X154874612Y-64658611D01*
X155056661Y-64518919D01*
X155056665Y-64518914D01*
X155056670Y-64518911D01*
X155218911Y-64356670D01*
X155218914Y-64356665D01*
X155218919Y-64356661D01*
X155358611Y-64174612D01*
X155473344Y-63975888D01*
X155561158Y-63763887D01*
X155620548Y-63542238D01*
X155650500Y-63314734D01*
X155650500Y-63185258D01*
X216449500Y-63185258D01*
X216449500Y-63414741D01*
X216474446Y-63604215D01*
X216479452Y-63642238D01*
X216538842Y-63863887D01*
X216626650Y-64075876D01*
X216626657Y-64075890D01*
X216741392Y-64274617D01*
X216881081Y-64456661D01*
X216881089Y-64456670D01*
X217043330Y-64618911D01*
X217043338Y-64618918D01*
X217225382Y-64758607D01*
X217225385Y-64758608D01*
X217225388Y-64758611D01*
X217424112Y-64873344D01*
X217424117Y-64873346D01*
X217424123Y-64873349D01*
X217515480Y-64911190D01*
X217636113Y-64961158D01*
X217857762Y-65020548D01*
X218085266Y-65050500D01*
X218085273Y-65050500D01*
X218314727Y-65050500D01*
X218314734Y-65050500D01*
X218542238Y-65020548D01*
X218763887Y-64961158D01*
X218975888Y-64873344D01*
X219174612Y-64758611D01*
X219356661Y-64618919D01*
X219356665Y-64618914D01*
X219356670Y-64618911D01*
X219518911Y-64456670D01*
X219518914Y-64456665D01*
X219518919Y-64456661D01*
X219658611Y-64274612D01*
X219773344Y-64075888D01*
X219861158Y-63863887D01*
X219920548Y-63642238D01*
X219950500Y-63414734D01*
X219950500Y-63185266D01*
X219920548Y-62957762D01*
X219861158Y-62736113D01*
X219773344Y-62524112D01*
X219658611Y-62325388D01*
X219658608Y-62325385D01*
X219658607Y-62325382D01*
X219518918Y-62143338D01*
X219518911Y-62143330D01*
X219356670Y-61981089D01*
X219356661Y-61981081D01*
X219174617Y-61841392D01*
X218975890Y-61726657D01*
X218975876Y-61726650D01*
X218763887Y-61638842D01*
X218718411Y-61626657D01*
X218542238Y-61579452D01*
X218504215Y-61574446D01*
X218314741Y-61549500D01*
X218314734Y-61549500D01*
X218085266Y-61549500D01*
X218085258Y-61549500D01*
X217868715Y-61578009D01*
X217857762Y-61579452D01*
X217764076Y-61604554D01*
X217636112Y-61638842D01*
X217424123Y-61726650D01*
X217424109Y-61726657D01*
X217225382Y-61841392D01*
X217043338Y-61981081D01*
X216881081Y-62143338D01*
X216741392Y-62325382D01*
X216626657Y-62524109D01*
X216626650Y-62524123D01*
X216538842Y-62736112D01*
X216479453Y-62957759D01*
X216479451Y-62957770D01*
X216449500Y-63185258D01*
X155650500Y-63185258D01*
X155650500Y-63085266D01*
X155620548Y-62857762D01*
X155561158Y-62636113D01*
X155473344Y-62424112D01*
X155358611Y-62225388D01*
X155358608Y-62225385D01*
X155358607Y-62225382D01*
X155218918Y-62043338D01*
X155218911Y-62043330D01*
X155056670Y-61881089D01*
X155056661Y-61881081D01*
X154874617Y-61741392D01*
X154849093Y-61726656D01*
X154675888Y-61626656D01*
X154675876Y-61626650D01*
X154463887Y-61538842D01*
X154242238Y-61479452D01*
X154204215Y-61474446D01*
X154014741Y-61449500D01*
X154014734Y-61449500D01*
X153785266Y-61449500D01*
X153785258Y-61449500D01*
X153568715Y-61478009D01*
X153557762Y-61479452D01*
X153464076Y-61504554D01*
X153336112Y-61538842D01*
X153124123Y-61626650D01*
X153124109Y-61626657D01*
X152925382Y-61741392D01*
X152743338Y-61881081D01*
X152581081Y-62043338D01*
X152441392Y-62225382D01*
X152326657Y-62424109D01*
X152326650Y-62424123D01*
X152238842Y-62636112D01*
X152179453Y-62857759D01*
X152179451Y-62857770D01*
X152149500Y-63085258D01*
X151390500Y-63085258D01*
X151390500Y-60854500D01*
X151410185Y-60787461D01*
X151462989Y-60741706D01*
X151514500Y-60730500D01*
X220765500Y-60730500D01*
X220832539Y-60750185D01*
G37*
%TD.AperFunction*%
%TD*%
M02*
