M48
; DRILL file {KiCad 9.0.6} date 2026-04-11T19:47:06-0300
; FORMAT={-:-/ absolute / metric / decimal}
; #@! TF.CreationDate,2026-04-11T19:47:06-03:00
; #@! TF.GenerationSoftware,Kicad,Pcbnew,9.0.6
; #@! TF.FileFunction,Plated,1,4,PTH
FMAT,2
METRIC
; #@! TA.AperFunction,Plated,PTH,ViaDrill
T1C0.200
; #@! TA.AperFunction,Plated,PTH,ComponentDrill
T2C0.200
; #@! TA.AperFunction,Plated,PTH,ComponentDrill
T3C0.650
; #@! TA.AperFunction,Plated,PTH,ComponentDrill
T4C0.700
; #@! TA.AperFunction,Plated,PTH,ComponentDrill
T5C0.800
; #@! TA.AperFunction,Plated,PTH,ComponentDrill
T6C1.000
%
G90
G05
T1
X152.15Y-97.5
X152.16Y-67.36
X152.16Y-68.86
X152.16Y-70.36
X152.16Y-71.86
X152.16Y-73.36
X152.16Y-74.86
X152.16Y-76.36
X152.16Y-77.86
X152.16Y-79.36
X152.16Y-80.86
X152.16Y-82.36
X152.16Y-83.86
X152.16Y-85.36
X152.16Y-86.86
X152.16Y-88.36
X152.16Y-89.86
X152.16Y-91.36
X152.16Y-92.86
X152.16Y-94.36
X152.16Y-95.86
X152.58Y-99.06
X153.61Y-67.43
X153.92Y-99.34
X154.24Y-90.6
X155.17Y-67.24
X155.42Y-99.34
X156.57Y-66.66
X156.92Y-99.34
X157.4Y-94.23
X157.45Y-92.06
X157.52Y-65.58
X158.05Y-64.38
X158.14Y-62.89
X158.17Y-61.41
X158.42Y-99.34
X158.6Y-95.04
X159.67Y-61.41
X159.92Y-99.34
X161.17Y-61.41
X161.42Y-99.34
X162.67Y-61.41
X162.92Y-99.34
X164.17Y-61.41
X164.42Y-99.34
X165.67Y-61.41
X165.92Y-99.34
X167.17Y-61.41
X167.42Y-99.34
X168.67Y-61.41
X168.92Y-99.34
X170.17Y-61.41
X170.42Y-99.34
X171.67Y-61.41
X171.92Y-99.34
X173.17Y-61.41
X173.42Y-99.34
X174.35Y-87.925
X174.375Y-86.675
X174.38Y-89.28
X174.625Y-97.25
X174.625Y-98.475
X174.67Y-61.41
X176.17Y-61.41
X176.361Y-73.941
X176.41Y-72.96
X176.75Y-71.775
X177.1Y-97.6
X177.125Y-99.8
X177.67Y-61.41
X178.2Y-97.6
X179.17Y-61.41
X179.612Y-97.737
X180.31Y-81.59
X180.31Y-82.53
X180.34Y-83.44
X180.5Y-97.6
X180.67Y-61.41
X181.03Y-81.19
X181.04Y-65.64
X181.05Y-82.05
X181.05Y-83.02
X181.125Y-64.275
X181.19Y-66.97
X181.45Y-62.97
X181.52Y-97.49
X182.125Y-61.85
X183.35Y-61.425
X183.35Y-67.4
X183.36Y-66.17
X183.425Y-64.95
X183.92Y-63.9
X184.525Y-61.225
X184.9Y-63.65
X184.94Y-80.54
X184.96Y-81.36
X185.34Y-82.34
X185.34Y-84.04
X185.35Y-83.18
X185.6Y-64.5
X185.63Y-61.06
X186.1Y-92.625
X186.45Y-65.1
X186.6Y-84.875
X186.75Y-91.325
X187.025Y-92.625
X187.31Y-77.74
X187.32Y-89.28
X187.56Y-65.1
X187.575Y-95.1
X187.575Y-96.0
X187.775Y-91.35
X188.15Y-87.525
X188.3Y-71.64
X188.44Y-80.5
X188.6Y-65.1
X188.8Y-85.4
X189.1Y-74.74
X189.15Y-79.75
X189.24Y-72.67
X189.38Y-81.16
X189.6Y-65.1
X189.95Y-76.37
X190.0Y-89.3
X190.04Y-71.08
X190.125Y-94.1
X190.38Y-78.18
X190.4Y-61.45
X190.41Y-64.4
X190.42Y-63.47
X190.43Y-62.48
X191.48Y-61.41
X192.425Y-83.775
X192.62Y-79.05
X192.87Y-70.26
X192.87Y-76.8
X192.98Y-61.41
X193.52Y-70.27
X193.52Y-76.81
X193.66Y-77.88
X193.72Y-87.1
X194.16Y-70.26
X194.16Y-76.8
X194.48Y-61.41
X195.02Y-78.84
X195.07Y-70.43
X195.2Y-89.925
X195.363Y-86.863
X195.441Y-86.067
X195.481Y-85.268
X195.8Y-93.375
X195.83Y-80.94
X195.85Y-89.425
X195.86Y-71.39
X195.98Y-61.41
X196.58Y-70.78
X196.69Y-80.72
X197.41Y-71.82
X197.48Y-61.41
X197.57Y-88.23
X197.6Y-86.35
X197.625Y-77.525
X197.647Y-96.951
X198.24Y-73.59
X198.537Y-88.686
X198.61Y-76.85
X198.87Y-81.45
X198.98Y-61.41
X199.27Y-91.3
X199.605Y-81.765
X199.67Y-79.08
X200.23Y-70.58
X200.48Y-61.41
X200.6Y-79.69
X200.825Y-95.925
X201.08Y-70.18
X201.2Y-72.0
X201.8Y-90.7
X201.95Y-65.35
X201.98Y-61.41
X201.98Y-79.97
X202.0Y-77.6
X202.0Y-95.1
X202.025Y-63.45
X202.07Y-81.705
X202.08Y-78.56
X202.57Y-70.76
X202.6Y-85.98
X202.9Y-91.0
X203.075Y-65.375
X203.2Y-78.5
X203.4Y-92.4
X203.48Y-61.41
X203.61Y-79.24
X203.72Y-71.84
X204.0Y-62.75
X204.357Y-88.6
X204.51Y-86.58
X204.98Y-61.41
X205.8Y-92.4
X206.31Y-68.28
X206.48Y-61.41
X206.525Y-76.15
X206.775Y-90.375
X207.02Y-89.07
X207.05Y-86.18
X207.1Y-80.95
X207.57Y-70.35
X207.75Y-96.6
X207.8Y-95.15
X207.98Y-61.41
X208.125Y-79.6
X208.925Y-80.95
X209.075Y-78.175
X209.48Y-61.41
X209.825Y-96.575
X209.875Y-95.125
X210.075Y-79.6
X210.7Y-80.95
X210.85Y-78.175
X210.95Y-85.58
X210.98Y-61.41
X211.3Y-88.8
X211.3Y-89.6
X211.3Y-90.4
X211.3Y-91.425
X211.54Y-66.335
X211.725Y-96.575
X211.775Y-95.125
X212.3Y-88.0
X212.44Y-66.33
X212.48Y-61.41
X212.72Y-91.11
X213.4Y-86.9
X213.44Y-76.14
X213.5Y-88.0
X213.98Y-61.41
X214.2Y-95.4
X214.2Y-96.6
X214.2Y-97.8
X214.2Y-99.0
X214.3Y-62.93
X214.925Y-68.27
X215.07Y-65.89
X216.15Y-66.84
X217.35Y-67.37
X217.35Y-89.64
X218.05Y-90.84
X218.75Y-89.64
X218.84Y-67.46
X219.45Y-90.84
X220.09Y-67.47
X220.15Y-89.64
T2
X198.72Y-84.83
X198.72Y-87.53
X201.42Y-84.83
X201.42Y-87.53
T5
X154.25Y-74.4
X154.25Y-96.4
X156.25Y-74.4
X156.25Y-96.4
X158.25Y-74.4
X158.25Y-96.4
X160.25Y-74.4
X160.25Y-96.4
X162.25Y-74.4
X162.25Y-96.4
X164.25Y-74.4
X164.25Y-96.4
X166.25Y-74.4
X166.25Y-96.4
X168.25Y-74.4
X168.25Y-96.4
X170.25Y-74.4
X170.25Y-96.4
X172.25Y-74.4
X172.25Y-96.4
T6
X191.32Y-98.7
X193.86Y-98.7
X196.4Y-98.7
X197.971Y-68.4
X202.971Y-68.4
X217.68Y-84.43
X217.68Y-86.97
T3
X216.555Y-75.205G85X216.155Y-75.205
G05
X216.555Y-80.045G85X216.155Y-80.045
G05
T4
X219.605Y-74.895G85X219.105Y-74.895
G05
X219.605Y-80.355G85X219.105Y-80.355
G05
M30
