%TF.GenerationSoftware,KiCad,Pcbnew,9.0.6*%
%TF.CreationDate,2026-02-11T12:54:48-03:00*%
%TF.ProjectId,flight_comp_srad-2026,666c6967-6874-45f6-936f-6d705f737261,rev?*%
%TF.SameCoordinates,Original*%
%TF.FileFunction,Copper,L1,Top*%
%TF.FilePolarity,Positive*%
%FSLAX46Y46*%
G04 Gerber Fmt 4.6, Leading zero omitted, Abs format (unit mm)*
G04 Created by KiCad (PCBNEW 9.0.6) date 2026-02-11 12:54:48*
%MOMM*%
%LPD*%
G01*
G04 APERTURE LIST*
G04 Aperture macros list*
%AMRoundRect*
0 Rectangle with rounded corners*
0 $1 Rounding radius*
0 $2 $3 $4 $5 $6 $7 $8 $9 X,Y pos of 4 corners*
0 Add a 4 corners polygon primitive as box body*
4,1,4,$2,$3,$4,$5,$6,$7,$8,$9,$2,$3,0*
0 Add four circle primitives for the rounded corners*
1,1,$1+$1,$2,$3*
1,1,$1+$1,$4,$5*
1,1,$1+$1,$6,$7*
1,1,$1+$1,$8,$9*
0 Add four rect primitives between the rounded corners*
20,1,$1+$1,$2,$3,$4,$5,0*
20,1,$1+$1,$4,$5,$6,$7,0*
20,1,$1+$1,$6,$7,$8,$9,0*
20,1,$1+$1,$8,$9,$2,$3,0*%
G04 Aperture macros list end*
%TA.AperFunction,Conductor*%
%ADD10C,0.900000*%
%TD*%
%TA.AperFunction,SMDPad,CuDef*%
%ADD11R,1.050000X0.650000*%
%TD*%
%TA.AperFunction,ComponentPad*%
%ADD12R,2.000000X2.000000*%
%TD*%
%TA.AperFunction,ComponentPad*%
%ADD13C,2.000000*%
%TD*%
%TA.AperFunction,SMDPad,CuDef*%
%ADD14RoundRect,0.135000X-0.135000X-0.185000X0.135000X-0.185000X0.135000X0.185000X-0.135000X0.185000X0*%
%TD*%
%TA.AperFunction,SMDPad,CuDef*%
%ADD15RoundRect,0.140000X-0.140000X-0.170000X0.140000X-0.170000X0.140000X0.170000X-0.140000X0.170000X0*%
%TD*%
%TA.AperFunction,SMDPad,CuDef*%
%ADD16RoundRect,0.250000X0.250000X0.475000X-0.250000X0.475000X-0.250000X-0.475000X0.250000X-0.475000X0*%
%TD*%
%TA.AperFunction,SMDPad,CuDef*%
%ADD17RoundRect,0.250000X-0.450000X0.262500X-0.450000X-0.262500X0.450000X-0.262500X0.450000X0.262500X0*%
%TD*%
%TA.AperFunction,SMDPad,CuDef*%
%ADD18R,0.700000X1.100000*%
%TD*%
%TA.AperFunction,SMDPad,CuDef*%
%ADD19R,0.900000X0.930000*%
%TD*%
%TA.AperFunction,SMDPad,CuDef*%
%ADD20R,1.050000X0.780000*%
%TD*%
%TA.AperFunction,SMDPad,CuDef*%
%ADD21R,1.140000X1.830000*%
%TD*%
%TA.AperFunction,SMDPad,CuDef*%
%ADD22R,0.860000X2.800000*%
%TD*%
%TA.AperFunction,SMDPad,CuDef*%
%ADD23R,0.700000X3.330000*%
%TD*%
%TA.AperFunction,SMDPad,CuDef*%
%ADD24RoundRect,0.150000X-0.150000X0.950000X-0.150000X-0.950000X0.150000X-0.950000X0.150000X0.950000X0*%
%TD*%
%TA.AperFunction,SMDPad,CuDef*%
%ADD25RoundRect,0.537500X-1.187500X0.537500X-1.187500X-0.537500X1.187500X-0.537500X1.187500X0.537500X0*%
%TD*%
%TA.AperFunction,SMDPad,CuDef*%
%ADD26RoundRect,0.050000X-0.050000X0.387500X-0.050000X-0.387500X0.050000X-0.387500X0.050000X0.387500X0*%
%TD*%
%TA.AperFunction,SMDPad,CuDef*%
%ADD27RoundRect,0.050000X-0.387500X0.050000X-0.387500X-0.050000X0.387500X-0.050000X0.387500X0.050000X0*%
%TD*%
%TA.AperFunction,HeatsinkPad*%
%ADD28C,0.500000*%
%TD*%
%TA.AperFunction,HeatsinkPad*%
%ADD29R,3.200000X3.200000*%
%TD*%
%TA.AperFunction,SMDPad,CuDef*%
%ADD30RoundRect,0.250000X0.262500X0.450000X-0.262500X0.450000X-0.262500X-0.450000X0.262500X-0.450000X0*%
%TD*%
%TA.AperFunction,SMDPad,CuDef*%
%ADD31RoundRect,0.250000X-0.262500X-0.450000X0.262500X-0.450000X0.262500X0.450000X-0.262500X0.450000X0*%
%TD*%
%TA.AperFunction,SMDPad,CuDef*%
%ADD32RoundRect,0.250000X-0.475000X0.250000X-0.475000X-0.250000X0.475000X-0.250000X0.475000X0.250000X0*%
%TD*%
%TA.AperFunction,SMDPad,CuDef*%
%ADD33R,0.700000X1.800000*%
%TD*%
%TA.AperFunction,SMDPad,CuDef*%
%ADD34R,0.800000X1.800000*%
%TD*%
%TA.AperFunction,SMDPad,CuDef*%
%ADD35RoundRect,0.218750X0.218750X0.256250X-0.218750X0.256250X-0.218750X-0.256250X0.218750X-0.256250X0*%
%TD*%
%TA.AperFunction,SMDPad,CuDef*%
%ADD36RoundRect,0.250000X0.450000X-0.262500X0.450000X0.262500X-0.450000X0.262500X-0.450000X-0.262500X0*%
%TD*%
%TA.AperFunction,SMDPad,CuDef*%
%ADD37RoundRect,0.100000X0.130000X0.100000X-0.130000X0.100000X-0.130000X-0.100000X0.130000X-0.100000X0*%
%TD*%
%TA.AperFunction,SMDPad,CuDef*%
%ADD38R,1.050000X1.300000*%
%TD*%
%TA.AperFunction,SMDPad,CuDef*%
%ADD39R,1.650000X0.400000*%
%TD*%
%TA.AperFunction,SMDPad,CuDef*%
%ADD40R,0.700000X1.825000*%
%TD*%
%TA.AperFunction,SMDPad,CuDef*%
%ADD41R,1.500000X2.000000*%
%TD*%
%TA.AperFunction,SMDPad,CuDef*%
%ADD42R,2.000000X1.350000*%
%TD*%
%TA.AperFunction,HeatsinkPad*%
%ADD43O,1.700000X1.350000*%
%TD*%
%TA.AperFunction,HeatsinkPad*%
%ADD44O,1.500000X1.100000*%
%TD*%
%TA.AperFunction,SMDPad,CuDef*%
%ADD45R,2.500000X1.430000*%
%TD*%
%TA.AperFunction,ComponentPad*%
%ADD46R,1.400000X1.400000*%
%TD*%
%TA.AperFunction,ComponentPad*%
%ADD47C,1.400000*%
%TD*%
%TA.AperFunction,SMDPad,CuDef*%
%ADD48R,0.800000X0.650000*%
%TD*%
%TA.AperFunction,SMDPad,CuDef*%
%ADD49R,0.800000X1.600000*%
%TD*%
%TA.AperFunction,SMDPad,CuDef*%
%ADD50RoundRect,0.162500X-0.162500X0.650000X-0.162500X-0.650000X0.162500X-0.650000X0.162500X0.650000X0*%
%TD*%
%TA.AperFunction,ViaPad*%
%ADD51C,0.800000*%
%TD*%
%TA.AperFunction,ViaPad*%
%ADD52C,0.600000*%
%TD*%
%TA.AperFunction,ViaPad*%
%ADD53C,0.400000*%
%TD*%
%TA.AperFunction,ViaPad*%
%ADD54C,0.300000*%
%TD*%
%TA.AperFunction,ViaPad*%
%ADD55C,1.000000*%
%TD*%
%TA.AperFunction,Conductor*%
%ADD56C,0.400000*%
%TD*%
%TA.AperFunction,Conductor*%
%ADD57C,0.200000*%
%TD*%
%TA.AperFunction,Conductor*%
%ADD58C,0.500000*%
%TD*%
%TA.AperFunction,Conductor*%
%ADD59C,0.800000*%
%TD*%
%TA.AperFunction,Conductor*%
%ADD60C,0.300000*%
%TD*%
G04 APERTURE END LIST*
D10*
%TO.N,/RF_IN*%
X182301340Y-64849610D02*
G75*
G02*
X184390000Y-62604166I2088660J151310D01*
G01*
%TD*%
D11*
%TO.P,S1,1,NO_1*%
%TO.N,/~{USB_BOOT}*%
X219100000Y-71400000D03*
%TO.P,S1,2,NO_2*%
X214950000Y-71400000D03*
%TO.P,S1,3,COM_1*%
%TO.N,GND*%
X219100000Y-69250000D03*
%TO.P,S1,4,COM_2*%
X214950000Y-69250000D03*
%TD*%
D12*
%TO.P,J2,1,1*%
%TO.N,GND*%
X191320000Y-98700000D03*
D13*
%TO.P,J2,2,2*%
%TO.N,/SWDIO*%
X193860000Y-98700000D03*
%TO.P,J2,3,3*%
%TO.N,/SWCLK*%
X196400000Y-98700000D03*
%TD*%
D14*
%TO.P,RI2C_2,1*%
%TO.N,/RP_SDA1*%
X200670000Y-80787500D03*
%TO.P,RI2C_2,2*%
%TO.N,+3V3*%
X201690000Y-80787500D03*
%TD*%
D15*
%TO.P,CGPS_2,1*%
%TO.N,+3V3*%
X182242418Y-82400000D03*
%TO.P,CGPS_2,2*%
%TO.N,GND*%
X183202418Y-82400000D03*
%TD*%
D16*
%TO.P,CX_2,1*%
%TO.N,GND*%
X192450000Y-82700000D03*
%TO.P,CX_2,2*%
%TO.N,Net-(CX_2-Pad2)*%
X190550000Y-82700000D03*
%TD*%
D15*
%TO.P,C16,1*%
%TO.N,+3V3*%
X202740000Y-81400000D03*
%TO.P,C16,2*%
%TO.N,GND*%
X203700000Y-81400000D03*
%TD*%
D17*
%TO.P,RFLASH_1,1*%
%TO.N,+3V3*%
X212075000Y-67662500D03*
%TO.P,RFLASH_1,2*%
%TO.N,/QSPI_SS*%
X212075000Y-69487500D03*
%TD*%
D18*
%TO.P,J1,1,DAT2*%
%TO.N,/SD_DAT2*%
X184820000Y-98865000D03*
%TO.P,J1,2,CD/DAT3^2*%
%TO.N,/SD_DAT3*%
X183720000Y-98865000D03*
%TO.P,J1,3,CMD*%
%TO.N,/SD_CMD*%
X182620000Y-98865000D03*
%TO.P,J1,4,VDD*%
%TO.N,+3V3*%
X181520000Y-98865000D03*
%TO.P,J1,5,CLK*%
%TO.N,/SD_CLK*%
X180420000Y-98865000D03*
%TO.P,J1,6,VSS*%
%TO.N,GND*%
X179320000Y-98865000D03*
%TO.P,J1,7,DAT0*%
%TO.N,/SD_DAT0*%
X178220000Y-98865000D03*
%TO.P,J1,8,DAT1*%
%TO.N,/SD_DAT1*%
X177120000Y-98865000D03*
D19*
%TO.P,J1,9,VSS__1*%
%TO.N,GND*%
X186610000Y-86400000D03*
D20*
%TO.P,J1,10,DETECT_SWITCH*%
%TO.N,/SD_DS*%
X182345000Y-86325000D03*
D21*
%TO.P,J1,P1,SHIELD*%
%TO.N,GND*%
X188700000Y-98850000D03*
D22*
%TO.P,J1,P2,SHIELD__1*%
X176040000Y-98365000D03*
D23*
%TO.P,J1,P3,SHIELD__2*%
X188920000Y-87600000D03*
%TO.P,J1,P4,SHIELD__3*%
X175960000Y-87600000D03*
%TD*%
D24*
%TO.P,U8,1,IN*%
%TO.N,VBUS*%
X212540000Y-92700000D03*
%TO.P,U8,2,OUT*%
%TO.N,+3V3*%
X211270000Y-92700000D03*
%TO.P,U8,3,GND-1*%
%TO.N,GND*%
X210000000Y-92700000D03*
%TO.P,U8,4,NR/FB*%
%TO.N,NR_Reg*%
X208730000Y-92700000D03*
%TO.P,U8,5,EN*%
%TO.N,VBUS*%
X207460000Y-92700000D03*
D25*
%TO.P,U8,6,GND*%
%TO.N,GND*%
X210000000Y-99000000D03*
%TD*%
D26*
%TO.P,U3,1,IOVDD*%
%TO.N,+3V3*%
X202670000Y-82742500D03*
%TO.P,U3,2,GPIO0*%
%TO.N,unconnected-(U3-GPIO0-Pad2)*%
X202270000Y-82742500D03*
%TO.P,U3,3,GPIO1*%
%TO.N,unconnected-(U3-GPIO1-Pad3)*%
X201870000Y-82742500D03*
%TO.P,U3,4,GPIO2*%
%TO.N,/RP_SDA1*%
X201470000Y-82742500D03*
%TO.P,U3,5,GPIO3*%
%TO.N,/RP_SCL1*%
X201070000Y-82742500D03*
%TO.P,U3,6,GPIO4*%
%TO.N,unconnected-(U3-GPIO4-Pad6)*%
X200670000Y-82742500D03*
%TO.P,U3,7,GPIO5*%
%TO.N,unconnected-(U3-GPIO5-Pad7)*%
X200270000Y-82742500D03*
%TO.P,U3,8,GPIO6*%
%TO.N,unconnected-(U3-GPIO6-Pad8)*%
X199870000Y-82742500D03*
%TO.P,U3,9,GPIO7*%
%TO.N,unconnected-(U3-GPIO7-Pad9)*%
X199470000Y-82742500D03*
%TO.P,U3,10,IOVDD*%
%TO.N,+3V3*%
X199070000Y-82742500D03*
%TO.P,U3,11,GPIO8*%
%TO.N,/IIM_MISO1*%
X198670000Y-82742500D03*
%TO.P,U3,12,GPIO9*%
%TO.N,/IIM_CS1*%
X198270000Y-82742500D03*
%TO.P,U3,13,GPIO10*%
%TO.N,/IIM_SCLK1*%
X197870000Y-82742500D03*
%TO.P,U3,14,GPIO11*%
%TO.N,/IIM_MOSI1*%
X197470000Y-82742500D03*
D27*
%TO.P,U3,15,GPIO12*%
%TO.N,/RP_SDA0*%
X196632500Y-83580000D03*
%TO.P,U3,16,GPIO13*%
%TO.N,/RP_SCL0*%
X196632500Y-83980000D03*
%TO.P,U3,17,GPIO14*%
%TO.N,unconnected-(U3-GPIO14-Pad17)*%
X196632500Y-84380000D03*
%TO.P,U3,18,GPIO15*%
%TO.N,unconnected-(U3-GPIO15-Pad18)*%
X196632500Y-84780000D03*
%TO.P,U3,19,TESTEN*%
%TO.N,GND*%
X196632500Y-85180000D03*
%TO.P,U3,20,XIN*%
%TO.N,/XIN*%
X196632500Y-85580000D03*
%TO.P,U3,21,XOUT*%
%TO.N,/XOUT*%
X196632500Y-85980000D03*
%TO.P,U3,22,IOVDD*%
%TO.N,+3V3*%
X196632500Y-86380000D03*
%TO.P,U3,23,DVDD*%
%TO.N,+1V1*%
X196632500Y-86780000D03*
%TO.P,U3,24,SWCLK*%
%TO.N,/SWCLK*%
X196632500Y-87180000D03*
%TO.P,U3,25,SWD*%
%TO.N,/SWDIO*%
X196632500Y-87580000D03*
%TO.P,U3,26,RUN*%
%TO.N,/RUN*%
X196632500Y-87980000D03*
%TO.P,U3,27,GPIO16*%
%TO.N,/UART_Tx0*%
X196632500Y-88380000D03*
%TO.P,U3,28,GPIO17*%
%TO.N,/UART_Rx0*%
X196632500Y-88780000D03*
D26*
%TO.P,U3,29,GPIO18*%
%TO.N,/SD_CMD*%
X197470000Y-89617500D03*
%TO.P,U3,30,GPIO19*%
%TO.N,/SD_DAT0*%
X197870000Y-89617500D03*
%TO.P,U3,31,GPIO20*%
%TO.N,/SD_DAT1*%
X198270000Y-89617500D03*
%TO.P,U3,32,GPIO21*%
%TO.N,/SD_DAT2*%
X198670000Y-89617500D03*
%TO.P,U3,33,IOVDD*%
%TO.N,+3V3*%
X199070000Y-89617500D03*
%TO.P,U3,34,GPIO22*%
%TO.N,/SD_DAT3*%
X199470000Y-89617500D03*
%TO.P,U3,35,GPIO23*%
%TO.N,unconnected-(U3-GPIO23-Pad35)*%
X199870000Y-89617500D03*
%TO.P,U3,36,GPIO24*%
%TO.N,/LED_1*%
X200270000Y-89617500D03*
%TO.P,U3,37,GPIO25*%
%TO.N,/LED_2*%
X200670000Y-89617500D03*
%TO.P,U3,38,GPIO26_ADC0*%
%TO.N,unconnected-(U3-GPIO26_ADC0-Pad38)*%
X201070000Y-89617500D03*
%TO.P,U3,39,GPIO27_ADC1*%
%TO.N,unconnected-(U3-GPIO27_ADC1-Pad39)*%
X201470000Y-89617500D03*
%TO.P,U3,40,GPIO28_ADC2*%
%TO.N,/ADC_BAT*%
X201870000Y-89617500D03*
%TO.P,U3,41,GPIO29_ADC3*%
%TO.N,unconnected-(U3-GPIO29_ADC3-Pad41)*%
X202270000Y-89617500D03*
%TO.P,U3,42,IOVDD*%
%TO.N,+3V3*%
X202670000Y-89617500D03*
D27*
%TO.P,U3,43,ADC_AVDD*%
X203507500Y-88780000D03*
%TO.P,U3,44,VREG_IN*%
X203507500Y-88380000D03*
%TO.P,U3,45,VREG_VOUT*%
%TO.N,+1V1*%
X203507500Y-87980000D03*
%TO.P,U3,46,USB_DM*%
%TO.N,/USB_R-*%
X203507500Y-87580000D03*
%TO.P,U3,47,USB_DP*%
%TO.N,/USB_R+*%
X203507500Y-87180000D03*
%TO.P,U3,48,USB_VDD*%
%TO.N,+3V3*%
X203507500Y-86780000D03*
%TO.P,U3,49,IOVDD*%
X203507500Y-86380000D03*
%TO.P,U3,50,DVDD*%
%TO.N,+1V1*%
X203507500Y-85980000D03*
%TO.P,U3,51,QSPI_SD3*%
%TO.N,/QSPI_SD3*%
X203507500Y-85580000D03*
%TO.P,U3,52,QSPI_SCLK*%
%TO.N,/QSPI_SCLK*%
X203507500Y-85180000D03*
%TO.P,U3,53,QSPI_SD0*%
%TO.N,/QSPI_SD0*%
X203507500Y-84780000D03*
%TO.P,U3,54,QSPI_SD2*%
%TO.N,/QSPI_SD2*%
X203507500Y-84380000D03*
%TO.P,U3,55,QSPI_SD1*%
%TO.N,/QSPI_SD1*%
X203507500Y-83980000D03*
%TO.P,U3,56,QSPI_SS*%
%TO.N,/QSPI_SS*%
X203507500Y-83580000D03*
D28*
%TO.P,U3,57,GND*%
%TO.N,GND*%
X201420000Y-84830000D03*
X198720000Y-84830000D03*
D29*
X200070000Y-86180000D03*
D28*
X201420000Y-87530000D03*
X198720000Y-87530000D03*
%TD*%
D16*
%TO.P,CPS_3,1*%
%TO.N,+3V3*%
X209950000Y-90100000D03*
%TO.P,CPS_3,2*%
%TO.N,NR_Reg*%
X208050000Y-90100000D03*
%TD*%
D30*
%TO.P,RL_2,1*%
%TO.N,GND*%
X204625000Y-99100000D03*
%TO.P,RL_2,2*%
%TO.N,Net-(D2-K)*%
X202800000Y-99100000D03*
%TD*%
D15*
%TO.P,CGPS_3,1*%
%TO.N,+3V3*%
X182244837Y-83406049D03*
%TO.P,CGPS_3,2*%
%TO.N,GND*%
X183204837Y-83406049D03*
%TD*%
D31*
%TO.P,R_RST1,1*%
%TO.N,+3V3*%
X191187500Y-89300000D03*
%TO.P,R_RST1,2*%
%TO.N,/RUN*%
X193012500Y-89300000D03*
%TD*%
D15*
%TO.P,CGPS_1,1*%
%TO.N,+3V3*%
X182242418Y-81400000D03*
%TO.P,CGPS_1,2*%
%TO.N,GND*%
X183202418Y-81400000D03*
%TD*%
D32*
%TO.P,CPS_1,1*%
%TO.N,VBUS*%
X214900000Y-92050000D03*
%TO.P,CPS_1,2*%
%TO.N,GND*%
X214900000Y-93950000D03*
%TD*%
D33*
%TO.P,U5,1,GND*%
%TO.N,GND*%
X174550000Y-78787500D03*
D34*
%TO.P,U5,2,TXD*%
%TO.N,unconnected-(U5-TXD-Pad2)*%
X175650000Y-78787500D03*
%TO.P,U5,3,RXD*%
%TO.N,unconnected-(U5-RXD-Pad3)*%
X176750000Y-78787500D03*
%TO.P,U5,4,TIMEPULSE*%
%TO.N,unconnected-(U5-TIMEPULSE-Pad4)*%
X177850000Y-78787500D03*
%TO.P,U5,5,EXTINT*%
%TO.N,unconnected-(U5-EXTINT-Pad5)*%
X178950000Y-78787500D03*
%TO.P,U5,6,V_BCKP*%
%TO.N,unconnected-(U5-V_BCKP-Pad6)*%
X180050000Y-78787500D03*
%TO.P,U5,7,V_IO*%
%TO.N,+3V3*%
X181150000Y-78787500D03*
%TO.P,U5,8,VCC*%
X182250000Y-78787500D03*
D33*
%TO.P,U5,9,~{RESET}*%
%TO.N,unconnected-(U5-~{RESET}-Pad9)*%
X183350000Y-78787500D03*
%TO.P,U5,10,GND__1*%
%TO.N,GND*%
X183350000Y-69287500D03*
D34*
%TO.P,U5,11,RF_IN*%
%TO.N,/RF_IN*%
X182250000Y-69287500D03*
%TO.P,U5,12,GND__2*%
%TO.N,GND*%
X181150000Y-69287500D03*
%TO.P,U5,13,LNA_EN*%
%TO.N,unconnected-(U5-LNA_EN-Pad13)*%
X180050000Y-69287500D03*
%TO.P,U5,14,VCC_RF*%
%TO.N,unconnected-(U5-VCC_RF-Pad14)*%
X178950000Y-69287500D03*
%TO.P,U5,15,VIO_SEL*%
%TO.N,unconnected-(U5-VIO_SEL-Pad15)*%
X177850000Y-69287500D03*
%TO.P,U5,16,SDA*%
%TO.N,/RP_SDA0*%
X176750000Y-69287500D03*
%TO.P,U5,17,SCL*%
%TO.N,/RP_SCL0*%
X175650000Y-69287500D03*
D33*
%TO.P,U5,18,~{SAFEBOOT}*%
%TO.N,unconnected-(U5-~{SAFEBOOT}-Pad18)*%
X174550000Y-69287500D03*
%TD*%
D35*
%TO.P,D1,1,K*%
%TO.N,Net-(D1-K)*%
X200687500Y-97500000D03*
%TO.P,D1,2,A*%
%TO.N,/LED_1*%
X199112500Y-97500000D03*
%TD*%
D14*
%TO.P,RI2C_1,1*%
%TO.N,/RP_SCL1*%
X200270000Y-78877500D03*
%TO.P,RI2C_1,2*%
%TO.N,+3V3*%
X201290000Y-78877500D03*
%TD*%
D36*
%TO.P,RI2C_3,1*%
%TO.N,/RP_SCL0*%
X193950000Y-80875000D03*
%TO.P,RI2C_3,2*%
%TO.N,+3V3*%
X193950000Y-79050000D03*
%TD*%
D37*
%TO.P,R4,1*%
%TO.N,/USB_D-*%
X207775000Y-87900000D03*
%TO.P,R4,2*%
%TO.N,/USB_R-*%
X207135000Y-87900000D03*
%TD*%
D31*
%TO.P,RFLASH_2,1*%
%TO.N,/QSPI_SS*%
X210425000Y-71525000D03*
%TO.P,RFLASH_2,2*%
%TO.N,/~{USB_BOOT}*%
X212250000Y-71525000D03*
%TD*%
D38*
%TO.P,Y1,1*%
%TO.N,/XIN*%
X192375000Y-87150000D03*
%TO.P,Y1,2,GND*%
%TO.N,GND*%
X192375000Y-84850000D03*
%TO.P,Y1,3*%
%TO.N,Net-(CX_2-Pad2)*%
X190625000Y-84850000D03*
%TO.P,Y1,4,GND__1*%
%TO.N,GND*%
X190625000Y-87150000D03*
%TD*%
D17*
%TO.P,RX_1,1*%
%TO.N,Net-(CX_2-Pad2)*%
X188700000Y-82487500D03*
%TO.P,RX_1,2*%
%TO.N,/XOUT*%
X188700000Y-84312500D03*
%TD*%
D35*
%TO.P,D2,1,K*%
%TO.N,Net-(D2-K)*%
X204500000Y-97200000D03*
%TO.P,D2,2,A*%
%TO.N,/LED_2*%
X202925000Y-97200000D03*
%TD*%
D39*
%TO.P,J3,1,VBUS*%
%TO.N,VBUS*%
X216035000Y-78925000D03*
%TO.P,J3,2,D-*%
%TO.N,/USB_D-*%
X216035000Y-78275000D03*
%TO.P,J3,3,D+*%
%TO.N,/USB_D+*%
X216035000Y-77625000D03*
%TO.P,J3,4,ID*%
%TO.N,unconnected-(J3-ID-Pad4)*%
X216035000Y-76975000D03*
%TO.P,J3,5,GND*%
%TO.N,GND*%
X216035000Y-76325000D03*
D40*
%TO.P,J3,6,Shield*%
X217235000Y-80575000D03*
D41*
X215935000Y-80475000D03*
D42*
X217985000Y-80355000D03*
D43*
X218915000Y-80355000D03*
D44*
X215915000Y-80045000D03*
D45*
X219185000Y-78585000D03*
X219185000Y-76665000D03*
D44*
X215915000Y-75205000D03*
D43*
X218915000Y-74895000D03*
D42*
X217985000Y-74875000D03*
D41*
X215915000Y-74725000D03*
D40*
X217235000Y-74625000D03*
%TD*%
D12*
%TO.P,J5,1,1*%
%TO.N,VBUS*%
X217680000Y-84430000D03*
D13*
%TO.P,J5,2,2*%
%TO.N,GND*%
X217680000Y-86970000D03*
%TD*%
D30*
%TO.P,RL_1,1*%
%TO.N,GND*%
X200912500Y-99400000D03*
%TO.P,RL_1,2*%
%TO.N,Net-(D1-K)*%
X199087500Y-99400000D03*
%TD*%
D46*
%TO.P,U7,1,VCC*%
%TO.N,+3V3*%
X154250000Y-96400000D03*
D47*
%TO.P,U7,2,DOUT/DIO13*%
%TO.N,/UART_Rx0*%
X156250000Y-96400000D03*
%TO.P,U7,3,DIN/NCONFIG/DIO14*%
%TO.N,/UART_Tx0*%
X158250000Y-96400000D03*
%TO.P,U7,4,DIO12/SPI_MISO*%
%TO.N,unconnected-(U7-DIO12{slash}SPI_MISO-Pad4)*%
X160250000Y-96400000D03*
%TO.P,U7,5,~{RESET}*%
%TO.N,unconnected-(U7-~{RESET}-Pad5)*%
X162250000Y-96400000D03*
%TO.P,U7,6,DIO10/PWM0*%
%TO.N,unconnected-(U7-DIO10{slash}PWM0-Pad6)*%
X164250000Y-96400000D03*
%TO.P,U7,7,DIO11/PWM1*%
%TO.N,unconnected-(U7-DIO11{slash}PWM1-Pad7)*%
X166250000Y-96400000D03*
%TO.P,U7,8*%
%TO.N,N/C*%
X168250000Y-96400000D03*
%TO.P,U7,9,NDTR/SLEEP_RQ/DIO8*%
%TO.N,unconnected-(U7-NDTR{slash}SLEEP_RQ{slash}DIO8-Pad9)*%
X170250000Y-96400000D03*
%TO.P,U7,10,GND*%
%TO.N,GND*%
X172250000Y-96400000D03*
%TO.P,U7,11,DIO4/SPI_MOSI*%
%TO.N,unconnected-(U7-DIO4{slash}SPI_MOSI-Pad11)*%
X172250000Y-74400000D03*
%TO.P,U7,12,NCTS/DIO7*%
%TO.N,unconnected-(U7-NCTS{slash}DIO7-Pad12)*%
X170250000Y-74400000D03*
%TO.P,U7,13,ON_NSLEEP/DIO9*%
%TO.N,unconnected-(U7-ON_NSLEEP{slash}DIO9-Pad13)*%
X168250000Y-74400000D03*
%TO.P,U7,14,VREF*%
%TO.N,GND*%
X166250000Y-74400000D03*
%TO.P,U7,15,ASSOCIATE/DIO5*%
%TO.N,unconnected-(U7-ASSOCIATE{slash}DIO5-Pad15)*%
X164250000Y-74400000D03*
%TO.P,U7,16,NRTS/DIO6*%
%TO.N,unconnected-(U7-NRTS{slash}DIO6-Pad16)*%
X162250000Y-74400000D03*
%TO.P,U7,17,AD3/DIO3/SPI_NSSEL*%
%TO.N,unconnected-(U7-AD3{slash}DIO3{slash}SPI_NSSEL-Pad17)*%
X160250000Y-74400000D03*
%TO.P,U7,18,AD2/DIO2/SPI_CLK*%
%TO.N,unconnected-(U7-AD2{slash}DIO2{slash}SPI_CLK-Pad18)*%
X158250000Y-74400000D03*
%TO.P,U7,19,AD1/DIO1/SPI_NATTN*%
%TO.N,unconnected-(U7-AD1{slash}DIO1{slash}SPI_NATTN-Pad19)*%
X156250000Y-74400000D03*
%TO.P,U7,20,AD0/DIO0*%
%TO.N,unconnected-(U7-AD0{slash}DIO0-Pad20)*%
X154250000Y-74400000D03*
%TD*%
D36*
%TO.P,RI2C_4,1*%
%TO.N,/RP_SDA0*%
X191420000Y-79930000D03*
%TO.P,RI2C_4,2*%
%TO.N,+3V3*%
X191420000Y-78105000D03*
%TD*%
D37*
%TO.P,R3,1*%
%TO.N,/USB_D+*%
X207775000Y-87192500D03*
%TO.P,R3,2*%
%TO.N,/USB_R+*%
X207135000Y-87192500D03*
%TD*%
D48*
%TO.P,AE1,1*%
%TO.N,/RF_IN*%
X186400000Y-62475000D03*
%TO.P,AE1,2*%
%TO.N,GND*%
X186400000Y-61525000D03*
D49*
%TO.P,AE1,3*%
X189600000Y-62000000D03*
%TD*%
D50*
%TO.P,U6,1,~{CS}*%
%TO.N,/QSPI_SS*%
X211275000Y-76142500D03*
%TO.P,U6,2,DO(IO1)*%
%TO.N,/QSPI_SD1*%
X210005000Y-76142500D03*
%TO.P,U6,3,IO2*%
%TO.N,/QSPI_SD2*%
X208735000Y-76142500D03*
%TO.P,U6,4,GND*%
%TO.N,GND*%
X207465000Y-76142500D03*
%TO.P,U6,5,DI(IO0)*%
%TO.N,/QSPI_SD0*%
X207465000Y-83317500D03*
%TO.P,U6,6,CLK*%
%TO.N,/QSPI_SCLK*%
X208735000Y-83317500D03*
%TO.P,U6,7,IO3*%
%TO.N,/QSPI_SD3*%
X210005000Y-83317500D03*
%TO.P,U6,8,VCC*%
%TO.N,+3V3*%
X211275000Y-83317500D03*
%TD*%
D11*
%TO.P,S2,1,NO_1*%
%TO.N,/RUN*%
X191150000Y-91950000D03*
%TO.P,S2,2,NO_2*%
X195300000Y-91950000D03*
%TO.P,S2,3,COM_1*%
%TO.N,GND*%
X191150000Y-94100000D03*
%TO.P,S2,4,COM_2*%
X195300000Y-94100000D03*
%TD*%
D51*
%TO.N,VBUS*%
X219000000Y-89400000D03*
D52*
X203400000Y-92400000D03*
D51*
X217600000Y-89400000D03*
X220400000Y-89400000D03*
D52*
X205800000Y-92400000D03*
D51*
X219700000Y-90600000D03*
X218300000Y-90600000D03*
D53*
%TO.N,/SD_DAT0*%
X178200000Y-97600000D03*
X187200000Y-94200000D03*
D52*
%TO.N,GND*%
X202000000Y-95100000D03*
D54*
X181383094Y-63491754D03*
D51*
X214200000Y-96600000D03*
D53*
X214925000Y-68270000D03*
D54*
X183433094Y-64341754D03*
D53*
X219095000Y-68210000D03*
X204000000Y-63400000D03*
D54*
X183840000Y-61660000D03*
X189600000Y-65100000D03*
D52*
X207200000Y-86200000D03*
D53*
X198800000Y-75800000D03*
D54*
X181183094Y-65841754D03*
D53*
X157000000Y-93600000D03*
X182600000Y-91000000D03*
D54*
X190280000Y-61440000D03*
X190250000Y-64850000D03*
D53*
X189800000Y-77000000D03*
X206600000Y-68600000D03*
D54*
X188850000Y-65100000D03*
X185420000Y-63620000D03*
X181183094Y-65041754D03*
D51*
X214200000Y-99000000D03*
D54*
X190270000Y-64170000D03*
X190260000Y-62830000D03*
D53*
X200600000Y-70400000D03*
D54*
X181850000Y-62810000D03*
D53*
X206380000Y-76157500D03*
D54*
X183083094Y-61891754D03*
X184650000Y-61620000D03*
D53*
X192107106Y-81300000D03*
D54*
X183280000Y-67430000D03*
D53*
X194300000Y-84800000D03*
X193720000Y-86500000D03*
X199170000Y-93872894D03*
D54*
X181183094Y-66641754D03*
X183283094Y-65041754D03*
X190280000Y-62150000D03*
X183170000Y-68000000D03*
X181260000Y-68010000D03*
X185800000Y-64900000D03*
D53*
X194600000Y-71000000D03*
X188600000Y-75200000D03*
D54*
X185300000Y-61570000D03*
X181180000Y-67430000D03*
D51*
X214200000Y-97800000D03*
D52*
X207500000Y-88600000D03*
D54*
X188050000Y-65100000D03*
X187250000Y-65100000D03*
D53*
X202000000Y-77600000D03*
D54*
X185630000Y-61060000D03*
X184700000Y-63610000D03*
X183283094Y-66641754D03*
X181183094Y-64241754D03*
D51*
X214200000Y-95400000D03*
D54*
X183960000Y-63760000D03*
X182383094Y-62241754D03*
X190270000Y-63460000D03*
X186450000Y-65100000D03*
X185700000Y-64200000D03*
X183283094Y-65841754D03*
D53*
%TO.N,/SD_CLK*%
X180500000Y-97600000D03*
%TO.N,/SD_CMD*%
X183400000Y-97800000D03*
X189000000Y-95100000D03*
%TO.N,/SD_DAT1*%
X177100000Y-97600000D03*
%TO.N,/IIM_CS1*%
X198000000Y-76000000D03*
%TO.N,/IIM_MOSI1*%
X196200000Y-81300000D03*
%TO.N,/IIM_SCLK1*%
X198000000Y-76600000D03*
%TO.N,/IIM_MISO1*%
X198700000Y-81700000D03*
%TO.N,/UART_Rx0*%
X195699958Y-89792935D03*
%TO.N,+3V3*%
X196800000Y-71000000D03*
X204500000Y-88900000D03*
X181800000Y-100000000D03*
D51*
X211300000Y-89600000D03*
D53*
X203200000Y-78500000D03*
X195417484Y-86717484D03*
X210000000Y-86300000D03*
X202900000Y-91000000D03*
D51*
X213500000Y-88000000D03*
D53*
X204500000Y-86600000D03*
X178200000Y-91000000D03*
D51*
X213400000Y-86900000D03*
D53*
X194900000Y-79050000D03*
D51*
X211300000Y-90400000D03*
D53*
X199200000Y-91100000D03*
X201200000Y-72000000D03*
X199300000Y-81700000D03*
X189853554Y-76253554D03*
X190000000Y-89300000D03*
D55*
X186000000Y-80600000D03*
D53*
X193025000Y-79050000D03*
D51*
X211300000Y-88800000D03*
X200900000Y-96100000D03*
X212300000Y-88000000D03*
D53*
X212075000Y-66700000D03*
X180800000Y-82400000D03*
X190600000Y-72400000D03*
X190400000Y-78100000D03*
X180400000Y-91000000D03*
X204500000Y-89600000D03*
%TO.N,+1V1*%
X195400000Y-87700000D03*
X204500000Y-86000000D03*
X204500000Y-88000000D03*
%TO.N,/XIN*%
X195596446Y-85403554D03*
%TO.N,/XOUT*%
X195445349Y-85984219D03*
X188800000Y-85400000D03*
%TO.N,/SWCLK*%
X197500000Y-87000000D03*
%TO.N,/SWDIO*%
X197500000Y-87700000D03*
%TO.N,/UART_Tx0*%
X195112189Y-89913477D03*
%TO.N,/ADC_BAT*%
X201800000Y-90700000D03*
%TO.N,/RP_SCL1*%
X200280000Y-77787500D03*
%TO.N,/RP_SDA1*%
X200670000Y-79877500D03*
%TO.N,NR_Reg*%
X206774971Y-90374971D03*
%TD*%
D56*
%TO.N,VBUS*%
X214979142Y-78925000D02*
X216035000Y-78925000D01*
X214000000Y-79100000D02*
X214000000Y-82150000D01*
X214000000Y-82150000D02*
X216280000Y-84430000D01*
X205800000Y-92400000D02*
X207160000Y-92400000D01*
X216280000Y-84430000D02*
X217680000Y-84430000D01*
X214979142Y-78925000D02*
X214175000Y-78925000D01*
X207160000Y-92400000D02*
X207460000Y-92700000D01*
X203400000Y-92400000D02*
X205800000Y-92400000D01*
X214175000Y-78925000D02*
X214000000Y-79100000D01*
X214955000Y-78935000D02*
G75*
G02*
X214979142Y-78925017I24100J-24100D01*
G01*
D57*
%TO.N,/SD_DAT0*%
X178200000Y-98845000D02*
X178220000Y-98865000D01*
X196200000Y-95600000D02*
X188600000Y-95600000D01*
X188600000Y-95600000D02*
X187200000Y-94200000D01*
X178200000Y-97600000D02*
X178200000Y-98845000D01*
X197870000Y-89617500D02*
X197870000Y-93930000D01*
X197870000Y-93930000D02*
X196200000Y-95600000D01*
D58*
%TO.N,GND*%
X187510000Y-85700000D02*
X186610000Y-84800000D01*
D57*
X192450000Y-81642894D02*
X192107106Y-81300000D01*
X201641500Y-100129000D02*
X205900000Y-100129000D01*
X192450000Y-82700000D02*
X192450000Y-81642894D01*
D56*
X191870000Y-98850000D02*
X192020000Y-98700000D01*
D58*
X187800000Y-85700000D02*
X187510000Y-85700000D01*
D57*
X200912500Y-99400000D02*
X201641500Y-100129000D01*
X191150000Y-94100000D02*
X195300000Y-94100000D01*
X219095000Y-68210000D02*
X219095000Y-69370000D01*
D56*
X179000000Y-100000000D02*
X176553000Y-100000000D01*
D57*
X181260000Y-69177500D02*
X181150000Y-69287500D01*
X188920000Y-90620000D02*
X188920000Y-87600000D01*
D56*
X186200000Y-61650000D02*
X186325000Y-61525000D01*
D57*
X195600000Y-84300000D02*
X195600000Y-84500000D01*
D58*
X191320000Y-98700000D02*
X188850000Y-98700000D01*
X188920000Y-86820000D02*
X187800000Y-85700000D01*
D56*
X217200000Y-75200000D02*
X217300000Y-75200000D01*
D57*
X207465000Y-76142500D02*
X206395000Y-76142500D01*
D56*
X179320000Y-98865000D02*
X179320000Y-99680000D01*
D57*
X194000000Y-82700000D02*
X195600000Y-84300000D01*
X196080000Y-85180000D02*
X195600000Y-84700000D01*
X189000000Y-87600000D02*
X189450000Y-87150000D01*
D56*
X192020000Y-98045000D02*
X191975000Y-98000000D01*
D57*
X191150000Y-93575000D02*
X189900000Y-92325000D01*
X214925000Y-68270000D02*
X214925000Y-69430000D01*
X204625000Y-99100000D02*
X205600000Y-99100000D01*
D56*
X185720000Y-61650000D02*
X186200000Y-61650000D01*
X179320000Y-99680000D02*
X179000000Y-100000000D01*
X176553000Y-100000000D02*
X176040000Y-99487000D01*
D57*
X195600000Y-84700000D02*
X195600000Y-84500000D01*
D56*
X186325000Y-61525000D02*
X186400000Y-61525000D01*
D57*
X192450000Y-82700000D02*
X192450000Y-84775000D01*
X189450000Y-87150000D02*
X190790000Y-87150000D01*
D56*
X217300000Y-75200000D02*
X217400000Y-75300000D01*
X185620000Y-61370000D02*
X185620000Y-61550000D01*
X176040000Y-99487000D02*
X176040000Y-98365000D01*
D57*
X219095000Y-69370000D02*
X219100000Y-69375000D01*
X191150000Y-94100000D02*
X191150000Y-93575000D01*
X181260000Y-68010000D02*
X181260000Y-69177500D01*
X188920000Y-87600000D02*
X189000000Y-87600000D01*
D58*
X188850000Y-98700000D02*
X188700000Y-98850000D01*
D57*
X189900000Y-92325000D02*
X189900000Y-91600000D01*
X189900000Y-91600000D02*
X188920000Y-90620000D01*
D56*
X185630000Y-61360000D02*
X185620000Y-61370000D01*
X185620000Y-61550000D02*
X185720000Y-61650000D01*
D57*
X183170000Y-68000000D02*
X183170000Y-69107500D01*
D58*
X186610000Y-84800000D02*
X186610000Y-84410000D01*
X186610000Y-86400000D02*
X186610000Y-84800000D01*
D56*
X176040000Y-98365000D02*
X174215000Y-98365000D01*
X210000000Y-92700000D02*
X210000000Y-94500000D01*
D57*
X192450000Y-82700000D02*
X194000000Y-82700000D01*
X192450000Y-84775000D02*
X192375000Y-84850000D01*
D56*
X185630000Y-61060000D02*
X185630000Y-61360000D01*
D57*
X206395000Y-76142500D02*
X206380000Y-76157500D01*
X196632500Y-85180000D02*
X196080000Y-85180000D01*
X183170000Y-69107500D02*
X183350000Y-69287500D01*
X209807500Y-99322501D02*
X210230000Y-98900001D01*
D56*
X175960000Y-87600000D02*
X174600000Y-87600000D01*
D57*
%TO.N,/SD_DAT2*%
X185735000Y-98865000D02*
X184820000Y-98865000D01*
X188200000Y-96400000D02*
X185735000Y-98865000D01*
X198670000Y-94330000D02*
X196600000Y-96400000D01*
X196600000Y-96400000D02*
X188200000Y-96400000D01*
X198670000Y-89617500D02*
X198670000Y-94330000D01*
D56*
%TO.N,/RF_IN*%
X186393246Y-62468246D02*
X186400000Y-62475000D01*
D58*
X184346906Y-62468246D02*
X184353660Y-62475000D01*
D56*
%TO.N,Net-(CX_2-Pad2)*%
X189800000Y-82700000D02*
X189587500Y-82487500D01*
X190750000Y-84810000D02*
X190790000Y-84850000D01*
X189587500Y-82487500D02*
X188700000Y-82487500D01*
X190550000Y-82700000D02*
X190550000Y-84775000D01*
X190550000Y-84775000D02*
X190625000Y-84850000D01*
X190550000Y-82700000D02*
X189800000Y-82700000D01*
X190625000Y-82725000D02*
X190750000Y-82600000D01*
X190637500Y-82487500D02*
X190750000Y-82600000D01*
D57*
%TO.N,/LED_1*%
X199112500Y-95204600D02*
X200101000Y-94216100D01*
X199112500Y-97500000D02*
X199112500Y-95204600D01*
X200101000Y-90671900D02*
X200270000Y-90502900D01*
X200101000Y-94216100D02*
X200101000Y-90671900D01*
X200270000Y-90502900D02*
X200270000Y-89617500D01*
%TO.N,/SD_CLK*%
X180500000Y-97600000D02*
X180500000Y-98785000D01*
X180500000Y-98785000D02*
X180420000Y-98865000D01*
%TO.N,/SD_CMD*%
X183400000Y-97800000D02*
X182800000Y-97800000D01*
X182620000Y-97980000D02*
X182620000Y-98865000D01*
X196132900Y-95100000D02*
X189000000Y-95100000D01*
X182800000Y-97800000D02*
X182620000Y-97980000D01*
X197470000Y-93762900D02*
X196132900Y-95100000D01*
X197470000Y-89617500D02*
X197470000Y-93762900D01*
%TO.N,/SD_DAT3*%
X184234000Y-100129000D02*
X183720000Y-99615000D01*
X199700000Y-94050000D02*
X196950000Y-96800000D01*
X199700000Y-90500000D02*
X199700000Y-94050000D01*
X196950000Y-96800000D02*
X188450000Y-96800000D01*
X185121000Y-100129000D02*
X184234000Y-100129000D01*
X199470000Y-89617500D02*
X199470000Y-90270000D01*
X199470000Y-90270000D02*
X199700000Y-90500000D01*
X183720000Y-99615000D02*
X183720000Y-98865000D01*
X188450000Y-96800000D02*
X185121000Y-100129000D01*
%TO.N,/SD_DAT1*%
X177120000Y-98380000D02*
X177120000Y-98865000D01*
X177601000Y-97099000D02*
X186901000Y-97099000D01*
X188000000Y-96000000D02*
X196432900Y-96000000D01*
X177100000Y-97600000D02*
X177100000Y-98360000D01*
X177100000Y-97600000D02*
X177601000Y-97099000D01*
X177100000Y-98360000D02*
X177120000Y-98380000D01*
X186901000Y-97099000D02*
X188000000Y-96000000D01*
X196432900Y-96000000D02*
X198270000Y-94162900D01*
X198270000Y-94162900D02*
X198270000Y-89617500D01*
%TO.N,/LED_2*%
X202925000Y-97025000D02*
X202925000Y-97200000D01*
X200670000Y-94770000D02*
X202925000Y-97025000D01*
X200670000Y-89617500D02*
X200670000Y-94770000D01*
X202912500Y-97012500D02*
X202912500Y-97400000D01*
X202812500Y-97300000D02*
X202912500Y-97400000D01*
%TO.N,/RP_SCL0*%
X192350000Y-80800000D02*
X192550000Y-81000000D01*
X188500000Y-80800000D02*
X184600000Y-76900000D01*
X194100000Y-82100000D02*
X194100000Y-81600000D01*
X188500000Y-80800000D02*
X192350000Y-80800000D01*
X196632500Y-83980000D02*
X195980000Y-83980000D01*
X175650000Y-75250000D02*
X175650000Y-69287500D01*
X177300000Y-76900000D02*
X175650000Y-75250000D01*
X195980000Y-83980000D02*
X194100000Y-82100000D01*
X192550000Y-81000000D02*
X193500000Y-81000000D01*
X194100000Y-81600000D02*
X193500000Y-81000000D01*
X184600000Y-76900000D02*
X177300000Y-76900000D01*
%TO.N,/RP_SDA0*%
X189600000Y-80000000D02*
X185300000Y-75700000D01*
X195200000Y-80000000D02*
X189600000Y-80000000D01*
X196180000Y-83580000D02*
X195200000Y-82600000D01*
X195200000Y-82600000D02*
X195200000Y-80000000D01*
X176750000Y-74550000D02*
X176750000Y-69287500D01*
X196632500Y-83580000D02*
X196180000Y-83580000D01*
X185300000Y-75700000D02*
X177900000Y-75700000D01*
X177900000Y-75700000D02*
X176750000Y-74550000D01*
%TO.N,/IIM_CS1*%
X198270000Y-82742500D02*
X198270000Y-81230000D01*
X198108521Y-76000000D02*
X198000000Y-76000000D01*
X198270000Y-81230000D02*
X198800000Y-80700000D01*
X198800000Y-80700000D02*
X198800000Y-76691479D01*
X198800000Y-76691479D02*
X198108521Y-76000000D01*
%TO.N,/IIM_MOSI1*%
X197470000Y-82742500D02*
X197470000Y-82070000D01*
X197200000Y-81800000D02*
X196700000Y-81800000D01*
X197470000Y-82070000D02*
X197200000Y-81800000D01*
X196700000Y-81800000D02*
X196200000Y-81300000D01*
%TO.N,/IIM_SCLK1*%
X198300000Y-76900000D02*
X198000000Y-76600000D01*
X198300000Y-80400000D02*
X198300000Y-76900000D01*
X197870000Y-82742500D02*
X197870000Y-80830000D01*
X197870000Y-80830000D02*
X198300000Y-80400000D01*
%TO.N,/IIM_MISO1*%
X198670000Y-82742500D02*
X198670000Y-81730000D01*
X198670000Y-81730000D02*
X198700000Y-81700000D01*
%TO.N,/UART_Rx0*%
X195992892Y-89007108D02*
X196220000Y-88780000D01*
X195992892Y-89500001D02*
X195992892Y-89007108D01*
X195699958Y-89792935D02*
X195992892Y-89500001D01*
X196220000Y-88780000D02*
X196632500Y-88780000D01*
%TO.N,+3V3*%
X195417484Y-86717484D02*
X195417484Y-86716070D01*
D58*
X181150000Y-79850000D02*
X181700000Y-80400000D01*
D57*
X202670000Y-82742500D02*
X202670000Y-81700000D01*
D58*
X211300000Y-90400000D02*
X211300000Y-88800000D01*
D57*
X212075000Y-67662500D02*
X212075000Y-66700000D01*
X199300000Y-81700000D02*
X199300000Y-81900000D01*
X204200000Y-86600000D02*
X204500000Y-86600000D01*
X201290000Y-78877500D02*
X202000000Y-78877500D01*
X191420000Y-78105000D02*
X190405000Y-78105000D01*
X202670000Y-81070000D02*
X202387500Y-80787500D01*
D58*
X181700000Y-80400000D02*
X182200000Y-80400000D01*
D57*
X202361250Y-79238750D02*
X202660000Y-79537500D01*
X182200000Y-80400000D02*
X182250000Y-80350000D01*
X181520000Y-99720000D02*
X181800000Y-100000000D01*
X191530000Y-78105000D02*
X192475000Y-79050000D01*
D58*
X182250000Y-80350000D02*
X182250000Y-78787500D01*
D57*
X195417484Y-86716070D02*
X195753554Y-86380000D01*
X204082500Y-86382500D02*
X204082500Y-86380000D01*
D58*
X181150000Y-78787500D02*
X181150000Y-79850000D01*
D57*
X199070000Y-90970000D02*
X199200000Y-91100000D01*
X199300000Y-81900000D02*
X199070000Y-82130000D01*
D56*
X209950000Y-90100000D02*
X211270000Y-90100000D01*
D57*
X202387500Y-80787500D02*
X202372500Y-80787500D01*
X204200000Y-86700000D02*
X204200000Y-86600000D01*
X211275000Y-85625000D02*
X211275000Y-83317500D01*
X182200000Y-80400000D02*
X182244837Y-80444837D01*
X204100000Y-89200000D02*
X204100000Y-88800000D01*
X193950000Y-79050000D02*
X193025000Y-79050000D01*
D59*
X211270000Y-90100000D02*
X211270000Y-88830000D01*
D57*
X204171479Y-88380000D02*
X204500000Y-88708521D01*
X190405000Y-78105000D02*
X190400000Y-78100000D01*
D56*
X211200000Y-89700000D02*
X211300000Y-89600000D01*
D57*
X203507500Y-86780000D02*
X204120000Y-86780000D01*
X201690000Y-80787500D02*
X202372500Y-80787500D01*
X202670000Y-81700000D02*
X202670000Y-81070000D01*
X204120000Y-86780000D02*
X204200000Y-86700000D01*
X204082500Y-86380000D02*
X203507500Y-86380000D01*
X203100000Y-78500000D02*
X203200000Y-78500000D01*
X203507500Y-88380000D02*
X204171479Y-88380000D01*
X202670000Y-90770000D02*
X202900000Y-91000000D01*
X181520000Y-98865000D02*
X181520000Y-99720000D01*
X210600000Y-86300000D02*
X211275000Y-85625000D01*
X202372500Y-80787500D02*
X202660000Y-80500000D01*
X202660000Y-79537500D02*
X202660000Y-80500000D01*
X202670000Y-89617500D02*
X202670000Y-90770000D01*
X204200000Y-86600000D02*
X204200000Y-86500000D01*
X199070000Y-82130000D02*
X199070000Y-82742500D01*
X190000000Y-89300000D02*
X191187500Y-89300000D01*
X204100000Y-88800000D02*
X204080000Y-88780000D01*
X204500000Y-88708521D02*
X204500000Y-88900000D01*
X204080000Y-88780000D02*
X203507500Y-88780000D01*
X199070000Y-89617500D02*
X199070000Y-90970000D01*
X204500000Y-89600000D02*
X204100000Y-89200000D01*
X204200000Y-86500000D02*
X204082500Y-86382500D01*
D59*
X211270000Y-88830000D02*
X211300000Y-88800000D01*
D57*
X192475000Y-79050000D02*
X193025000Y-79050000D01*
X202361250Y-79238750D02*
X203100000Y-78500000D01*
X210000000Y-86300000D02*
X210600000Y-86300000D01*
X202000000Y-78877500D02*
X202361250Y-79238750D01*
D59*
X211270000Y-92700000D02*
X211270000Y-90100000D01*
D56*
X182242418Y-82400000D02*
X180800000Y-82400000D01*
D57*
X193950000Y-79050000D02*
X194900000Y-79050000D01*
X191420000Y-78105000D02*
X191530000Y-78105000D01*
D58*
X182244837Y-80444837D02*
X182244837Y-83406049D01*
D57*
X195753554Y-86380000D02*
X196632500Y-86380000D01*
%TO.N,+1V1*%
X204480000Y-87980000D02*
X203507500Y-87980000D01*
X195400000Y-87700000D02*
X195800000Y-87300000D01*
X203507500Y-85980000D02*
X204480000Y-85980000D01*
X195800000Y-87043489D02*
X196063489Y-86780000D01*
X196063489Y-86780000D02*
X196632500Y-86780000D01*
X204480000Y-85980000D02*
X204500000Y-86000000D01*
X195800000Y-87300000D02*
X195800000Y-87043489D01*
X204500000Y-88000000D02*
X204480000Y-87980000D01*
%TO.N,/QSPI_SS*%
X209670000Y-73330000D02*
X209670000Y-71630000D01*
X210737500Y-69487500D02*
X212075000Y-69487500D01*
X211275000Y-74935000D02*
X211275000Y-76142500D01*
X203507500Y-83580000D02*
X204270000Y-83580000D01*
X204570000Y-83280000D02*
X204570000Y-74230000D01*
X209670000Y-71630000D02*
X209775000Y-71525000D01*
X204570000Y-74230000D02*
X205470000Y-73330000D01*
X209775000Y-71525000D02*
X210425000Y-71525000D01*
X210425000Y-69800000D02*
X210737500Y-69487500D01*
X205470000Y-73330000D02*
X209670000Y-73330000D01*
X210425000Y-71525000D02*
X210425000Y-69800000D01*
X209670000Y-73330000D02*
X211275000Y-74935000D01*
X204270000Y-83580000D02*
X204570000Y-83280000D01*
%TO.N,/~{USB_BOOT}*%
X212250000Y-71525000D02*
X219100000Y-71525000D01*
%TO.N,/USB_D+*%
X210570000Y-87192500D02*
X210507500Y-87192500D01*
D56*
X213775000Y-77625000D02*
X216035000Y-77625000D01*
X210507500Y-87192500D02*
X212700000Y-85000000D01*
X207775000Y-87192500D02*
X210507500Y-87192500D01*
X212700000Y-78700000D02*
X213775000Y-77625000D01*
X212700000Y-85000000D02*
X212700000Y-78700000D01*
%TO.N,/USB_D-*%
X214955000Y-78285000D02*
X214940000Y-78300000D01*
X213301000Y-85298999D02*
X213301000Y-78948942D01*
X213974942Y-78275000D02*
X216035000Y-78275000D01*
X214979142Y-78275000D02*
X216035000Y-78275000D01*
X210699999Y-87900000D02*
X213301000Y-85298999D01*
X213301000Y-78948942D02*
X213974942Y-78275000D01*
X207775000Y-87900000D02*
X210699999Y-87900000D01*
X214955000Y-78285000D02*
G75*
G02*
X214979142Y-78275017I24100J-24100D01*
G01*
D57*
%TO.N,/QSPI_SCLK*%
X207920000Y-85180000D02*
X208735000Y-84365000D01*
X203507500Y-85180000D02*
X207920000Y-85180000D01*
X208735000Y-84365000D02*
X208735000Y-83317500D01*
%TO.N,/QSPI_SD2*%
X205800000Y-83650000D02*
X205070000Y-84380000D01*
X208240000Y-74600000D02*
X206075000Y-74600000D01*
X205800000Y-74875000D02*
X205800000Y-83650000D01*
X205070000Y-84380000D02*
X203507500Y-84380000D01*
X208735000Y-75095000D02*
X208240000Y-74600000D01*
X208735000Y-76142500D02*
X208735000Y-75095000D01*
X206075000Y-74600000D02*
X205800000Y-74875000D01*
%TO.N,/QSPI_SD1*%
X210005000Y-74965000D02*
X208970000Y-73930000D01*
X205200000Y-83500000D02*
X204720000Y-83980000D01*
X208970000Y-73930000D02*
X205770000Y-73930000D01*
X210005000Y-76142500D02*
X210005000Y-74965000D01*
X204720000Y-83980000D02*
X203507500Y-83980000D01*
X205770000Y-73930000D02*
X205200000Y-74500000D01*
X205200000Y-74500000D02*
X205200000Y-83500000D01*
%TO.N,/QSPI_SD3*%
X208970000Y-85580000D02*
X210005000Y-84545000D01*
X203507500Y-85580000D02*
X208970000Y-85580000D01*
X210005000Y-84545000D02*
X210005000Y-83317500D01*
%TO.N,/QSPI_SD0*%
X207465000Y-84285000D02*
X207465000Y-83317500D01*
X203507500Y-84780000D02*
X206970000Y-84780000D01*
X206970000Y-84780000D02*
X207465000Y-84285000D01*
%TO.N,/XIN*%
X192375000Y-87150000D02*
X192375000Y-86625000D01*
X192375000Y-86625000D02*
X193596446Y-85403554D01*
X195596446Y-85403554D02*
X195772892Y-85580000D01*
X195772892Y-85580000D02*
X196632500Y-85580000D01*
X193596446Y-85403554D02*
X195596446Y-85403554D01*
%TO.N,/XOUT*%
X195445349Y-85984219D02*
X195445349Y-85981098D01*
X188700000Y-84312500D02*
X188700000Y-84537000D01*
X195445349Y-85981098D02*
X195446447Y-85980000D01*
X188800000Y-85400000D02*
X188800000Y-84412500D01*
X195446447Y-85980000D02*
X196632500Y-85980000D01*
X188800000Y-84412500D02*
X188700000Y-84312500D01*
%TO.N,/SWCLK*%
X197320000Y-87180000D02*
X197500000Y-87000000D01*
X196632500Y-87180000D02*
X197320000Y-87180000D01*
%TO.N,/SWDIO*%
X197380000Y-87580000D02*
X197500000Y-87700000D01*
X196632500Y-87580000D02*
X197380000Y-87580000D01*
%TO.N,/UART_Tx0*%
X195112189Y-89913477D02*
X195200000Y-89825666D01*
X196020000Y-88380000D02*
X196632500Y-88380000D01*
X195200000Y-89825666D02*
X195200000Y-89200000D01*
X195200000Y-89200000D02*
X196020000Y-88380000D01*
%TO.N,/RUN*%
X195500000Y-91950000D02*
X191150000Y-91950000D01*
X193012500Y-90687500D02*
X193012500Y-89300000D01*
X191150000Y-91950000D02*
X191100000Y-91900000D01*
X196632500Y-87980000D02*
X196097226Y-87980000D01*
X191150000Y-91950000D02*
X192100000Y-91000000D01*
X194512258Y-89600000D02*
X194799000Y-89313258D01*
X194799000Y-89033900D02*
X195852900Y-87980000D01*
X194799000Y-89313258D02*
X194799000Y-89033900D01*
X195852900Y-87980000D02*
X196632500Y-87980000D01*
X196097226Y-87980000D02*
X196096226Y-87979000D01*
X193312500Y-89600000D02*
X194512258Y-89600000D01*
X193012500Y-89300000D02*
X193312500Y-89600000D01*
X192100000Y-91000000D02*
X192700000Y-91000000D01*
X192700000Y-91000000D02*
X193012500Y-90687500D01*
%TO.N,/ADC_BAT*%
X201870000Y-89617500D02*
X201870000Y-90630000D01*
X201870000Y-90630000D02*
X201800000Y-90700000D01*
%TO.N,/USB_R+*%
X203507500Y-87180000D02*
X204787500Y-87180000D01*
X207135000Y-87192500D02*
X204800000Y-87192500D01*
X204787500Y-87180000D02*
X204800000Y-87192500D01*
%TO.N,/USB_R-*%
X204680000Y-87580000D02*
X205000000Y-87900000D01*
X203507500Y-87580000D02*
X204680000Y-87580000D01*
X205000000Y-87900000D02*
X207135000Y-87900000D01*
%TO.N,/RP_SCL1*%
X200000000Y-79147500D02*
X200270000Y-78877500D01*
X201070000Y-82070000D02*
X200800000Y-81800000D01*
X200270000Y-78877500D02*
X200270000Y-77797500D01*
X200270000Y-77797500D02*
X200280000Y-77787500D01*
X201070000Y-82742500D02*
X201070000Y-82070000D01*
X200800000Y-81800000D02*
X200200000Y-81800000D01*
X200200000Y-81800000D02*
X200000000Y-81600000D01*
X200000000Y-81600000D02*
X200000000Y-79147500D01*
%TO.N,/RP_SDA1*%
X201200000Y-81400000D02*
X201470000Y-81670000D01*
X201470000Y-81670000D02*
X201470000Y-82742500D01*
X200670000Y-81270000D02*
X200800000Y-81400000D01*
X200800000Y-81400000D02*
X201200000Y-81400000D01*
X200670000Y-80787500D02*
X200670000Y-79877500D01*
X200670000Y-80787500D02*
X200670000Y-81270000D01*
%TO.N,Net-(D1-K)*%
X199087500Y-99400000D02*
X199087500Y-99100000D01*
X199087500Y-99100000D02*
X200687500Y-97500000D01*
%TO.N,Net-(D2-K)*%
X204500000Y-97400000D02*
X204500000Y-97200000D01*
X202800000Y-99100000D02*
X204500000Y-97400000D01*
D60*
%TO.N,NR_Reg*%
X207149942Y-90000000D02*
X207950000Y-90000000D01*
X207950000Y-90000000D02*
X208050000Y-90100000D01*
D56*
X208050000Y-90100000D02*
X208050000Y-90850000D01*
X208050000Y-90850000D02*
X208730000Y-91530000D01*
X208730000Y-92700000D02*
X208730000Y-91530000D01*
D60*
X206774971Y-90374971D02*
X207149942Y-90000000D01*
%TD*%
%TA.AperFunction,Conductor*%
%TO.N,GND*%
G36*
X213909595Y-94319685D02*
G01*
X213955350Y-94372489D01*
X213958738Y-94380667D01*
X213981645Y-94442086D01*
X213981649Y-94442093D01*
X214067809Y-94557187D01*
X214067812Y-94557190D01*
X214182906Y-94643350D01*
X214182913Y-94643354D01*
X214317620Y-94693596D01*
X214317627Y-94693598D01*
X214377155Y-94699999D01*
X214377172Y-94700000D01*
X214700000Y-94700000D01*
X214700000Y-94300000D01*
X215100000Y-94300000D01*
X215100000Y-94700000D01*
X215422828Y-94700000D01*
X215422844Y-94699999D01*
X215482372Y-94693598D01*
X215482379Y-94693596D01*
X215617086Y-94643354D01*
X215617093Y-94643350D01*
X215732187Y-94557190D01*
X215732190Y-94557187D01*
X215818350Y-94442093D01*
X215818354Y-94442086D01*
X215841262Y-94380667D01*
X215883133Y-94324734D01*
X215948597Y-94300316D01*
X215957444Y-94300000D01*
X216814291Y-94300000D01*
X216881330Y-94319685D01*
X216927085Y-94372489D01*
X216937029Y-94441647D01*
X216908004Y-94505203D01*
X216868093Y-94535720D01*
X216547780Y-94689974D01*
X216242000Y-94882109D01*
X215959654Y-95107271D01*
X215704294Y-95362631D01*
X215479132Y-95644977D01*
X215286997Y-95950757D01*
X215130310Y-96276121D01*
X215011036Y-96616988D01*
X215011035Y-96616990D01*
X214930676Y-96969068D01*
X214930674Y-96969080D01*
X214890242Y-97327924D01*
X214890242Y-97452067D01*
X214885176Y-97469319D01*
X214885176Y-100105500D01*
X214865491Y-100172539D01*
X214812687Y-100218294D01*
X214761176Y-100229500D01*
X211906760Y-100229500D01*
X211839721Y-100209815D01*
X211793966Y-100157011D01*
X211784022Y-100087853D01*
X211805277Y-100038691D01*
X211803383Y-100037501D01*
X211901502Y-99881345D01*
X211960114Y-99713843D01*
X211960115Y-99713838D01*
X211974999Y-99581732D01*
X211975000Y-99581728D01*
X211975000Y-99200000D01*
X208025000Y-99200000D01*
X208025000Y-99581732D01*
X208039884Y-99713838D01*
X208039885Y-99713843D01*
X208098497Y-99881345D01*
X208196617Y-100037501D01*
X208194522Y-100038816D01*
X208216594Y-100092855D01*
X208203848Y-100161552D01*
X208155986Y-100212453D01*
X208093240Y-100229500D01*
X205624000Y-100229500D01*
X205556961Y-100209815D01*
X205511206Y-100157011D01*
X205500000Y-100105500D01*
X205500000Y-98418267D01*
X208025000Y-98418267D01*
X208025000Y-98800000D01*
X209800000Y-98800000D01*
X210200000Y-98800000D01*
X211975000Y-98800000D01*
X211975000Y-98418271D01*
X211974999Y-98418267D01*
X211960115Y-98286161D01*
X211960114Y-98286156D01*
X211901502Y-98118654D01*
X211807087Y-97968394D01*
X211681605Y-97842912D01*
X211531345Y-97748497D01*
X211363843Y-97689885D01*
X211363838Y-97689884D01*
X211231732Y-97675000D01*
X210200000Y-97675000D01*
X210200000Y-98800000D01*
X209800000Y-98800000D01*
X209800000Y-97675000D01*
X208768267Y-97675000D01*
X208636161Y-97689884D01*
X208636156Y-97689885D01*
X208468654Y-97748497D01*
X208318394Y-97842912D01*
X208192912Y-97968394D01*
X208098497Y-98118654D01*
X208039885Y-98286156D01*
X208039884Y-98286161D01*
X208025000Y-98418267D01*
X205500000Y-98418267D01*
X205500000Y-94424000D01*
X205519685Y-94356961D01*
X205572489Y-94311206D01*
X205624000Y-94300000D01*
X213842556Y-94300000D01*
X213909595Y-94319685D01*
G37*
%TD.AperFunction*%
%TD*%
%TA.AperFunction,Conductor*%
%TO.N,GND*%
G36*
X177990394Y-68187000D02*
G01*
X177430247Y-68187000D01*
X177371770Y-68198631D01*
X177371768Y-68198632D01*
X177368887Y-68200558D01*
X177361655Y-68202822D01*
X177360487Y-68203306D01*
X177360443Y-68203201D01*
X177302209Y-68221433D01*
X177234829Y-68202946D01*
X177231113Y-68200558D01*
X177228231Y-68198632D01*
X177228229Y-68198631D01*
X177169752Y-68187000D01*
X177169748Y-68187000D01*
X176330252Y-68187000D01*
X176330247Y-68187000D01*
X176271770Y-68198631D01*
X176271768Y-68198632D01*
X176268887Y-68200558D01*
X176261655Y-68202822D01*
X176260487Y-68203306D01*
X176260443Y-68203201D01*
X176202209Y-68221433D01*
X176134829Y-68202946D01*
X176131113Y-68200558D01*
X176128231Y-68198632D01*
X176128229Y-68198631D01*
X176069752Y-68187000D01*
X176069748Y-68187000D01*
X175230252Y-68187000D01*
X175230247Y-68187000D01*
X175171770Y-68198631D01*
X175171766Y-68198633D01*
X175143890Y-68217260D01*
X175077213Y-68238138D01*
X175009833Y-68219653D01*
X175006110Y-68217260D01*
X174978233Y-68198633D01*
X174978229Y-68198631D01*
X174919752Y-68187000D01*
X174919748Y-68187000D01*
X174180252Y-68187000D01*
X174180247Y-68187000D01*
X174121770Y-68198631D01*
X174121769Y-68198632D01*
X174055447Y-68242947D01*
X174011132Y-68309269D01*
X174011131Y-68309270D01*
X173999500Y-68367747D01*
X173999500Y-70207252D01*
X174011131Y-70265729D01*
X174011132Y-70265730D01*
X174055447Y-70332052D01*
X174121769Y-70376367D01*
X174121770Y-70376368D01*
X174180247Y-70387999D01*
X174180250Y-70388000D01*
X174180252Y-70388000D01*
X174919750Y-70388000D01*
X174919751Y-70387999D01*
X174934568Y-70385052D01*
X174978229Y-70376368D01*
X174978231Y-70376367D01*
X175006108Y-70357740D01*
X175072785Y-70336861D01*
X175114908Y-70343439D01*
X175130340Y-70348684D01*
X175171769Y-70376367D01*
X175230252Y-70388000D01*
X175245998Y-70388000D01*
X175265408Y-70394598D01*
X175277892Y-70403384D01*
X175292539Y-70407685D01*
X175305880Y-70423082D01*
X175322546Y-70434811D01*
X175328298Y-70448953D01*
X175338294Y-70460489D01*
X175344391Y-70488518D01*
X175348871Y-70499531D01*
X175347907Y-70504681D01*
X175349500Y-70512000D01*
X175349500Y-75289562D01*
X175352431Y-75300499D01*
X175369979Y-75365990D01*
X175369980Y-75365991D01*
X175401150Y-75419979D01*
X175401151Y-75419981D01*
X175409537Y-75434507D01*
X175409539Y-75434509D01*
X175409540Y-75434511D01*
X177059540Y-77084511D01*
X177115489Y-77140460D01*
X177115491Y-77140461D01*
X177115495Y-77140464D01*
X177141537Y-77155499D01*
X177184011Y-77180021D01*
X177260438Y-77200500D01*
X184424167Y-77200500D01*
X184491206Y-77220185D01*
X184511848Y-77236819D01*
X188259540Y-80984511D01*
X188315489Y-81040460D01*
X188315491Y-81040461D01*
X188315495Y-81040464D01*
X188384004Y-81080017D01*
X188384011Y-81080021D01*
X188460438Y-81100500D01*
X188660862Y-81100500D01*
X188727901Y-81120185D01*
X188749461Y-81137747D01*
X189166585Y-81563747D01*
X189199423Y-81625419D01*
X189193705Y-81695054D01*
X189151247Y-81750544D01*
X189085530Y-81774270D01*
X189077986Y-81774500D01*
X188195730Y-81774500D01*
X188165300Y-81777353D01*
X188165298Y-81777353D01*
X188037119Y-81822206D01*
X188037117Y-81822207D01*
X187927850Y-81902850D01*
X187847207Y-82012117D01*
X187847206Y-82012119D01*
X187802353Y-82140298D01*
X187802353Y-82140300D01*
X187799500Y-82170730D01*
X187799500Y-82804269D01*
X187802353Y-82834699D01*
X187802353Y-82834701D01*
X187847206Y-82962880D01*
X187847207Y-82962882D01*
X187927850Y-83072150D01*
X188037118Y-83152793D01*
X188078060Y-83167119D01*
X188165299Y-83197646D01*
X188195730Y-83200500D01*
X188195734Y-83200500D01*
X189204270Y-83200500D01*
X189234699Y-83197646D01*
X189234701Y-83197646D01*
X189321940Y-83167119D01*
X189362882Y-83152793D01*
X189472150Y-83072150D01*
X189472150Y-83072148D01*
X189479626Y-83066632D01*
X189481465Y-83069124D01*
X189528911Y-83043202D01*
X189595507Y-83047062D01*
X189606881Y-83050960D01*
X189645413Y-83073207D01*
X189747273Y-83100500D01*
X189751404Y-83100500D01*
X189765708Y-83105403D01*
X189784510Y-83118708D01*
X189805575Y-83128025D01*
X189812490Y-83138507D01*
X189822742Y-83145762D01*
X189831366Y-83167119D01*
X189844050Y-83186346D01*
X189846954Y-83205724D01*
X189848903Y-83210549D01*
X189848218Y-83214156D01*
X189849500Y-83222703D01*
X189849500Y-83229269D01*
X189852353Y-83259699D01*
X189852353Y-83259701D01*
X189897206Y-83387880D01*
X189897207Y-83387882D01*
X189977850Y-83497150D01*
X190042654Y-83544977D01*
X190094595Y-83583311D01*
X190093137Y-83585285D01*
X190093693Y-83585825D01*
X190106703Y-83591767D01*
X190118231Y-83609706D01*
X190133515Y-83624580D01*
X190137467Y-83639637D01*
X190144477Y-83650545D01*
X190149500Y-83685480D01*
X190149500Y-83883961D01*
X190129815Y-83951000D01*
X190077011Y-83996755D01*
X190049692Y-84005578D01*
X190021770Y-84011132D01*
X190021769Y-84011132D01*
X189955447Y-84055447D01*
X189911132Y-84121769D01*
X189911131Y-84121770D01*
X189899500Y-84180247D01*
X189899500Y-84842991D01*
X189879815Y-84910030D01*
X189827011Y-84955785D01*
X189775756Y-84966991D01*
X189664053Y-84967222D01*
X189596973Y-84947676D01*
X189551109Y-84894967D01*
X189541023Y-84825829D01*
X189550404Y-84796890D01*
X189549724Y-84796652D01*
X189597646Y-84659701D01*
X189597646Y-84659699D01*
X189600500Y-84629269D01*
X189600500Y-83995730D01*
X189597646Y-83965300D01*
X189597646Y-83965298D01*
X189559910Y-83857458D01*
X189552793Y-83837118D01*
X189472150Y-83727850D01*
X189362882Y-83647207D01*
X189362880Y-83647206D01*
X189234700Y-83602353D01*
X189204270Y-83599500D01*
X189204266Y-83599500D01*
X188195734Y-83599500D01*
X188195730Y-83599500D01*
X188165300Y-83602353D01*
X188165298Y-83602353D01*
X188037119Y-83647206D01*
X188037117Y-83647207D01*
X187927850Y-83727850D01*
X187847207Y-83837117D01*
X187847206Y-83837119D01*
X187802353Y-83965298D01*
X187802353Y-83965300D01*
X187799500Y-83995730D01*
X187799500Y-84629269D01*
X187802353Y-84659699D01*
X187802353Y-84659701D01*
X187844086Y-84778962D01*
X187847207Y-84787882D01*
X187847211Y-84787887D01*
X187847936Y-84789259D01*
X187848278Y-84790943D01*
X187850276Y-84796652D01*
X187849494Y-84796925D01*
X187861857Y-84857728D01*
X187836552Y-84922854D01*
X187780054Y-84963961D01*
X187738561Y-84971200D01*
X175050000Y-84997417D01*
X166196882Y-85015708D01*
X166191867Y-84971200D01*
X166185863Y-84917906D01*
X166180362Y-84869082D01*
X166180361Y-84869077D01*
X166180360Y-84869068D01*
X166100000Y-84516990D01*
X165980726Y-84176123D01*
X165824037Y-83850755D01*
X165631903Y-83544976D01*
X165406741Y-83262631D01*
X165151382Y-83007272D01*
X164869037Y-82782110D01*
X164618936Y-82624961D01*
X164563255Y-82589974D01*
X164237891Y-82433287D01*
X163897024Y-82314013D01*
X163897022Y-82314012D01*
X163625304Y-82251994D01*
X163544945Y-82233653D01*
X163544941Y-82233652D01*
X163544932Y-82233651D01*
X163186088Y-82193219D01*
X163186084Y-82193219D01*
X162824952Y-82193219D01*
X162824947Y-82193219D01*
X162466103Y-82233651D01*
X162466091Y-82233653D01*
X162114013Y-82314012D01*
X162114011Y-82314013D01*
X161773144Y-82433287D01*
X161447780Y-82589974D01*
X161142000Y-82782109D01*
X160859654Y-83007271D01*
X160604294Y-83262631D01*
X160379132Y-83544977D01*
X160186997Y-83850757D01*
X160030310Y-84176121D01*
X159911036Y-84516988D01*
X159911035Y-84516990D01*
X159830676Y-84869068D01*
X159830674Y-84869080D01*
X159812666Y-85028899D01*
X151390500Y-85046300D01*
X151390500Y-77867747D01*
X175049500Y-77867747D01*
X175049500Y-79707252D01*
X175061131Y-79765729D01*
X175061132Y-79765730D01*
X175105447Y-79832052D01*
X175171769Y-79876367D01*
X175171770Y-79876368D01*
X175230247Y-79887999D01*
X175230250Y-79888000D01*
X175230252Y-79888000D01*
X176069750Y-79888000D01*
X176069751Y-79887999D01*
X176089812Y-79884009D01*
X176128229Y-79876368D01*
X176128231Y-79876367D01*
X176131108Y-79874445D01*
X176138335Y-79872181D01*
X176139513Y-79871694D01*
X176139556Y-79871799D01*
X176197785Y-79853566D01*
X176265165Y-79872050D01*
X176268892Y-79874445D01*
X176271768Y-79876367D01*
X176271770Y-79876368D01*
X176330247Y-79887999D01*
X176330250Y-79888000D01*
X176330252Y-79888000D01*
X177169750Y-79888000D01*
X177169751Y-79887999D01*
X177189812Y-79884009D01*
X177228229Y-79876368D01*
X177228231Y-79876367D01*
X177231108Y-79874445D01*
X177238335Y-79872181D01*
X177239513Y-79871694D01*
X177239556Y-79871799D01*
X177297785Y-79853566D01*
X177365165Y-79872050D01*
X177368892Y-79874445D01*
X177371768Y-79876367D01*
X177371770Y-79876368D01*
X177430247Y-79887999D01*
X177430250Y-79888000D01*
X177430252Y-79888000D01*
X178269750Y-79888000D01*
X178269751Y-79887999D01*
X178289812Y-79884009D01*
X178328229Y-79876368D01*
X178328231Y-79876367D01*
X178331108Y-79874445D01*
X178338335Y-79872181D01*
X178339513Y-79871694D01*
X178339556Y-79871799D01*
X178397785Y-79853566D01*
X178465165Y-79872050D01*
X178468892Y-79874445D01*
X178471768Y-79876367D01*
X178471770Y-79876368D01*
X178530247Y-79887999D01*
X178530250Y-79888000D01*
X178530252Y-79888000D01*
X179369750Y-79888000D01*
X179369751Y-79887999D01*
X179389812Y-79884009D01*
X179428229Y-79876368D01*
X179428231Y-79876367D01*
X179431108Y-79874445D01*
X179438335Y-79872181D01*
X179439513Y-79871694D01*
X179439556Y-79871799D01*
X179497785Y-79853566D01*
X179565165Y-79872050D01*
X179568892Y-79874445D01*
X179571768Y-79876367D01*
X179571770Y-79876368D01*
X179630247Y-79887999D01*
X179630250Y-79888000D01*
X179630252Y-79888000D01*
X180469750Y-79888000D01*
X180469751Y-79887999D01*
X180489812Y-79884009D01*
X180528229Y-79876368D01*
X180539513Y-79871694D01*
X180540727Y-79874624D01*
X180549704Y-79871811D01*
X180576290Y-79860425D01*
X180582631Y-79861491D01*
X180588771Y-79859567D01*
X180616673Y-79867213D01*
X180645193Y-79872008D01*
X180649951Y-79876333D01*
X180656156Y-79878034D01*
X180675492Y-79899549D01*
X180696895Y-79919004D01*
X180700462Y-79927332D01*
X180702860Y-79930001D01*
X180710790Y-79951448D01*
X180713198Y-79960433D01*
X180713200Y-79960438D01*
X180730201Y-80023888D01*
X180748675Y-80055885D01*
X180789511Y-80126614D01*
X181423386Y-80760489D01*
X181423390Y-80760491D01*
X181423391Y-80760492D01*
X181438991Y-80769499D01*
X181438996Y-80769501D01*
X181526108Y-80819796D01*
X181526109Y-80819797D01*
X181526111Y-80819797D01*
X181526114Y-80819799D01*
X181640691Y-80850500D01*
X181670337Y-80850500D01*
X181679022Y-80853050D01*
X181687984Y-80851762D01*
X181712024Y-80862740D01*
X181737376Y-80870185D01*
X181743303Y-80877025D01*
X181751540Y-80880787D01*
X181765829Y-80903021D01*
X181783131Y-80922989D01*
X181785418Y-80933503D01*
X181789314Y-80939565D01*
X181794337Y-80974500D01*
X181794337Y-81057499D01*
X181782719Y-81109904D01*
X181768447Y-81140509D01*
X181768445Y-81140516D01*
X181761918Y-81190098D01*
X181761918Y-81609894D01*
X181763962Y-81625419D01*
X181768446Y-81659487D01*
X181782719Y-81690096D01*
X181785158Y-81701099D01*
X181789314Y-81707565D01*
X181794337Y-81742500D01*
X181794337Y-81875500D01*
X181774652Y-81942539D01*
X181721848Y-81988294D01*
X181670337Y-81999500D01*
X180747273Y-81999500D01*
X180645413Y-82026793D01*
X180645410Y-82026794D01*
X180554085Y-82079521D01*
X180479521Y-82154085D01*
X180426794Y-82245410D01*
X180426793Y-82245413D01*
X180399500Y-82347273D01*
X180399500Y-82452727D01*
X180415342Y-82511848D01*
X180426793Y-82554586D01*
X180426794Y-82554589D01*
X180433800Y-82566724D01*
X180479520Y-82645913D01*
X180554087Y-82720480D01*
X180645413Y-82773207D01*
X180747273Y-82800500D01*
X180852727Y-82800500D01*
X181670337Y-82800500D01*
X181679022Y-82803050D01*
X181687984Y-82801762D01*
X181712024Y-82812740D01*
X181737376Y-82820185D01*
X181743303Y-82827025D01*
X181751540Y-82830787D01*
X181765829Y-82853021D01*
X181783131Y-82872989D01*
X181785418Y-82883503D01*
X181789314Y-82889565D01*
X181794337Y-82924500D01*
X181794337Y-83068735D01*
X181782719Y-83121139D01*
X181770867Y-83146555D01*
X181770864Y-83146565D01*
X181764337Y-83196147D01*
X181764337Y-83615943D01*
X181764338Y-83615949D01*
X181770865Y-83665536D01*
X181770866Y-83665538D01*
X181770866Y-83665539D01*
X181816661Y-83763745D01*
X181821613Y-83774365D01*
X181906521Y-83859273D01*
X182015350Y-83910021D01*
X182064936Y-83916549D01*
X182424737Y-83916548D01*
X182474324Y-83910021D01*
X182583153Y-83859273D01*
X182668061Y-83774365D01*
X182718809Y-83665536D01*
X182725337Y-83615950D01*
X182725336Y-83196149D01*
X182718809Y-83146562D01*
X182718806Y-83146555D01*
X182718806Y-83146554D01*
X182706955Y-83121139D01*
X182695337Y-83068735D01*
X182695337Y-82732124D01*
X182706954Y-82679722D01*
X182716390Y-82659487D01*
X182722918Y-82609901D01*
X182722917Y-82190100D01*
X182716390Y-82140513D01*
X182706954Y-82120277D01*
X182695337Y-82067874D01*
X182695337Y-81732124D01*
X182706954Y-81679722D01*
X182716390Y-81659487D01*
X182722918Y-81609901D01*
X182722917Y-81190100D01*
X182716390Y-81140513D01*
X182706954Y-81120277D01*
X182695337Y-81067874D01*
X182695337Y-80668995D01*
X185299499Y-80668995D01*
X185326418Y-80804322D01*
X185326421Y-80804332D01*
X185379221Y-80931804D01*
X185379228Y-80931817D01*
X185455885Y-81046541D01*
X185455888Y-81046545D01*
X185553454Y-81144111D01*
X185553458Y-81144114D01*
X185668182Y-81220771D01*
X185668195Y-81220778D01*
X185747863Y-81253777D01*
X185795672Y-81273580D01*
X185795676Y-81273580D01*
X185795677Y-81273581D01*
X185931004Y-81300500D01*
X185931007Y-81300500D01*
X186068995Y-81300500D01*
X186160041Y-81282389D01*
X186204328Y-81273580D01*
X186331811Y-81220775D01*
X186446542Y-81144114D01*
X186544114Y-81046542D01*
X186620775Y-80931811D01*
X186673580Y-80804328D01*
X186697200Y-80685583D01*
X186700500Y-80668995D01*
X186700500Y-80531004D01*
X186673581Y-80395677D01*
X186673580Y-80395676D01*
X186673580Y-80395672D01*
X186630309Y-80291206D01*
X186620778Y-80268195D01*
X186620771Y-80268182D01*
X186544114Y-80153458D01*
X186544111Y-80153454D01*
X186446545Y-80055888D01*
X186446541Y-80055885D01*
X186331817Y-79979228D01*
X186331804Y-79979221D01*
X186204332Y-79926421D01*
X186204322Y-79926418D01*
X186068995Y-79899500D01*
X186068993Y-79899500D01*
X185931007Y-79899500D01*
X185931005Y-79899500D01*
X185795677Y-79926418D01*
X185795667Y-79926421D01*
X185668195Y-79979221D01*
X185668182Y-79979228D01*
X185553458Y-80055885D01*
X185553454Y-80055888D01*
X185455888Y-80153454D01*
X185455885Y-80153458D01*
X185379228Y-80268182D01*
X185379221Y-80268195D01*
X185326421Y-80395667D01*
X185326418Y-80395677D01*
X185299500Y-80531004D01*
X185299500Y-80531007D01*
X185299500Y-80668993D01*
X185299500Y-80668995D01*
X185299499Y-80668995D01*
X182695337Y-80668995D01*
X182695337Y-80444902D01*
X182699562Y-80412808D01*
X182700500Y-80409309D01*
X182700500Y-79961175D01*
X182702738Y-79953549D01*
X182701469Y-79945706D01*
X182712442Y-79920504D01*
X182720185Y-79894136D01*
X182726899Y-79887300D01*
X182729362Y-79881646D01*
X182755619Y-79858066D01*
X182756123Y-79857729D01*
X182822802Y-79836860D01*
X182890180Y-79855354D01*
X182893892Y-79857740D01*
X182921768Y-79876367D01*
X182921770Y-79876368D01*
X182980247Y-79887999D01*
X182980250Y-79888000D01*
X182980252Y-79888000D01*
X183719750Y-79888000D01*
X183719751Y-79887999D01*
X183739812Y-79884009D01*
X183778229Y-79876368D01*
X183778229Y-79876367D01*
X183778231Y-79876367D01*
X183844552Y-79832052D01*
X183888867Y-79765731D01*
X183888867Y-79765729D01*
X183888868Y-79765729D01*
X183900499Y-79707252D01*
X183900500Y-79707250D01*
X183900500Y-77867749D01*
X183900499Y-77867747D01*
X183888868Y-77809270D01*
X183888867Y-77809269D01*
X183844552Y-77742947D01*
X183778230Y-77698632D01*
X183778229Y-77698631D01*
X183719752Y-77687000D01*
X183719748Y-77687000D01*
X182980252Y-77687000D01*
X182980247Y-77687000D01*
X182921770Y-77698631D01*
X182921766Y-77698633D01*
X182893890Y-77717260D01*
X182827213Y-77738138D01*
X182759833Y-77719653D01*
X182756110Y-77717260D01*
X182728233Y-77698633D01*
X182728229Y-77698631D01*
X182669752Y-77687000D01*
X182669748Y-77687000D01*
X181830252Y-77687000D01*
X181830247Y-77687000D01*
X181771770Y-77698631D01*
X181771768Y-77698632D01*
X181768887Y-77700558D01*
X181761655Y-77702822D01*
X181760487Y-77703306D01*
X181760443Y-77703201D01*
X181702209Y-77721433D01*
X181634829Y-77702946D01*
X181631113Y-77700558D01*
X181628231Y-77698632D01*
X181628229Y-77698631D01*
X181569752Y-77687000D01*
X181569748Y-77687000D01*
X180730252Y-77687000D01*
X180730247Y-77687000D01*
X180671770Y-77698631D01*
X180671768Y-77698632D01*
X180668887Y-77700558D01*
X180661655Y-77702822D01*
X180660487Y-77703306D01*
X180660443Y-77703201D01*
X180602209Y-77721433D01*
X180534829Y-77702946D01*
X180531113Y-77700558D01*
X180528231Y-77698632D01*
X180528229Y-77698631D01*
X180469752Y-77687000D01*
X180469748Y-77687000D01*
X179630252Y-77687000D01*
X179630247Y-77687000D01*
X179571770Y-77698631D01*
X179571768Y-77698632D01*
X179568887Y-77700558D01*
X179561655Y-77702822D01*
X179560487Y-77703306D01*
X179560443Y-77703201D01*
X179502209Y-77721433D01*
X179434829Y-77702946D01*
X179431113Y-77700558D01*
X179428231Y-77698632D01*
X179428229Y-77698631D01*
X179369752Y-77687000D01*
X179369748Y-77687000D01*
X178530252Y-77687000D01*
X178530247Y-77687000D01*
X178471770Y-77698631D01*
X178471768Y-77698632D01*
X178468887Y-77700558D01*
X178461655Y-77702822D01*
X178460487Y-77703306D01*
X178460443Y-77703201D01*
X178402209Y-77721433D01*
X178334829Y-77702946D01*
X178331113Y-77700558D01*
X178328231Y-77698632D01*
X178328229Y-77698631D01*
X178269752Y-77687000D01*
X178269748Y-77687000D01*
X177430252Y-77687000D01*
X177430247Y-77687000D01*
X177371770Y-77698631D01*
X177371768Y-77698632D01*
X177368887Y-77700558D01*
X177361655Y-77702822D01*
X177360487Y-77703306D01*
X177360443Y-77703201D01*
X177302209Y-77721433D01*
X177234829Y-77702946D01*
X177231113Y-77700558D01*
X177228231Y-77698632D01*
X177228229Y-77698631D01*
X177169752Y-77687000D01*
X177169748Y-77687000D01*
X176330252Y-77687000D01*
X176330247Y-77687000D01*
X176271770Y-77698631D01*
X176271768Y-77698632D01*
X176268887Y-77700558D01*
X176261655Y-77702822D01*
X176260487Y-77703306D01*
X176260443Y-77703201D01*
X176202209Y-77721433D01*
X176134829Y-77702946D01*
X176131113Y-77700558D01*
X176128231Y-77698632D01*
X176128229Y-77698631D01*
X176069752Y-77687000D01*
X176069748Y-77687000D01*
X175230252Y-77687000D01*
X175230247Y-77687000D01*
X175171770Y-77698631D01*
X175171769Y-77698632D01*
X175105447Y-77742947D01*
X175061132Y-77809269D01*
X175061131Y-77809270D01*
X175049500Y-77867747D01*
X151390500Y-77867747D01*
X151390500Y-76887500D01*
X174400000Y-76887500D01*
X174402408Y-76936509D01*
X174409607Y-76985045D01*
X174414943Y-77006347D01*
X174421529Y-77032640D01*
X174438061Y-77078844D01*
X174459040Y-77123201D01*
X174484267Y-77165289D01*
X174506119Y-77194752D01*
X174513495Y-77204697D01*
X174546447Y-77241053D01*
X174582803Y-77274005D01*
X174582817Y-77274015D01*
X174582819Y-77274017D01*
X174622210Y-77303232D01*
X174664298Y-77328459D01*
X174664301Y-77328460D01*
X174664302Y-77328461D01*
X174708658Y-77349440D01*
X174754858Y-77365970D01*
X174802455Y-77377893D01*
X174850991Y-77385092D01*
X174900000Y-77387500D01*
X174949009Y-77385092D01*
X174997545Y-77377893D01*
X175045142Y-77365970D01*
X175091342Y-77349440D01*
X175135698Y-77328461D01*
X175177785Y-77303235D01*
X175217197Y-77274005D01*
X175253553Y-77241053D01*
X175286505Y-77204697D01*
X175315735Y-77165285D01*
X175340961Y-77123198D01*
X175361940Y-77078842D01*
X175378470Y-77032642D01*
X175390393Y-76985045D01*
X175397592Y-76936509D01*
X175400000Y-76887500D01*
X175397592Y-76838491D01*
X175390393Y-76789955D01*
X175378470Y-76742358D01*
X175361940Y-76696158D01*
X175340961Y-76651802D01*
X175325951Y-76626760D01*
X175315732Y-76609710D01*
X175286517Y-76570319D01*
X175286515Y-76570317D01*
X175286505Y-76570303D01*
X175253553Y-76533947D01*
X175217197Y-76500995D01*
X175217184Y-76500985D01*
X175217180Y-76500982D01*
X175177789Y-76471767D01*
X175135701Y-76446540D01*
X175091344Y-76425561D01*
X175091342Y-76425560D01*
X175068242Y-76417295D01*
X175045140Y-76409029D01*
X175021389Y-76403079D01*
X174997545Y-76397107D01*
X174967753Y-76392688D01*
X174949017Y-76389909D01*
X174949015Y-76389908D01*
X174949009Y-76389908D01*
X174900000Y-76387500D01*
X174850991Y-76389908D01*
X174850985Y-76389908D01*
X174850982Y-76389909D01*
X174817350Y-76394897D01*
X174802455Y-76397107D01*
X174790533Y-76400093D01*
X174754859Y-76409029D01*
X174708655Y-76425561D01*
X174664298Y-76446540D01*
X174622210Y-76471767D01*
X174582819Y-76500982D01*
X174582806Y-76500992D01*
X174582803Y-76500995D01*
X174546447Y-76533947D01*
X174513497Y-76570301D01*
X174513482Y-76570319D01*
X174484267Y-76609710D01*
X174459040Y-76651798D01*
X174438061Y-76696155D01*
X174421529Y-76742359D01*
X174418300Y-76755252D01*
X174409607Y-76789955D01*
X174402408Y-76838491D01*
X174400000Y-76887500D01*
X151390500Y-76887500D01*
X151390500Y-74311304D01*
X153349500Y-74311304D01*
X153349500Y-74488695D01*
X153384103Y-74662658D01*
X153384106Y-74662667D01*
X153451983Y-74826540D01*
X153451990Y-74826553D01*
X153550535Y-74974034D01*
X153550538Y-74974038D01*
X153675961Y-75099461D01*
X153675965Y-75099464D01*
X153823446Y-75198009D01*
X153823459Y-75198016D01*
X153856349Y-75211639D01*
X153987334Y-75265894D01*
X153987336Y-75265894D01*
X153987341Y-75265896D01*
X154161304Y-75300499D01*
X154161307Y-75300500D01*
X154161309Y-75300500D01*
X154338693Y-75300500D01*
X154338694Y-75300499D01*
X154396682Y-75288964D01*
X154512658Y-75265896D01*
X154512661Y-75265894D01*
X154512666Y-75265894D01*
X154676547Y-75198013D01*
X154824035Y-75099464D01*
X154949464Y-74974035D01*
X155048013Y-74826547D01*
X155115894Y-74662666D01*
X155128383Y-74599882D01*
X155160768Y-74537971D01*
X155221483Y-74503397D01*
X155291253Y-74507136D01*
X155347925Y-74548003D01*
X155371617Y-74599882D01*
X155384103Y-74662658D01*
X155384106Y-74662667D01*
X155451983Y-74826540D01*
X155451990Y-74826553D01*
X155550535Y-74974034D01*
X155550538Y-74974038D01*
X155675961Y-75099461D01*
X155675965Y-75099464D01*
X155823446Y-75198009D01*
X155823459Y-75198016D01*
X155856349Y-75211639D01*
X155987334Y-75265894D01*
X155987336Y-75265894D01*
X155987341Y-75265896D01*
X156161304Y-75300499D01*
X156161307Y-75300500D01*
X156161309Y-75300500D01*
X156338693Y-75300500D01*
X156338694Y-75300499D01*
X156396682Y-75288964D01*
X156512658Y-75265896D01*
X156512661Y-75265894D01*
X156512666Y-75265894D01*
X156676547Y-75198013D01*
X156824035Y-75099464D01*
X156949464Y-74974035D01*
X157048013Y-74826547D01*
X157115894Y-74662666D01*
X157128383Y-74599882D01*
X157160768Y-74537971D01*
X157221483Y-74503397D01*
X157291253Y-74507136D01*
X157347925Y-74548003D01*
X157371617Y-74599882D01*
X157384103Y-74662658D01*
X157384106Y-74662667D01*
X157451983Y-74826540D01*
X157451990Y-74826553D01*
X157550535Y-74974034D01*
X157550538Y-74974038D01*
X157675961Y-75099461D01*
X157675965Y-75099464D01*
X157823446Y-75198009D01*
X157823459Y-75198016D01*
X157856349Y-75211639D01*
X157987334Y-75265894D01*
X157987336Y-75265894D01*
X157987341Y-75265896D01*
X158161304Y-75300499D01*
X158161307Y-75300500D01*
X158161309Y-75300500D01*
X158338693Y-75300500D01*
X158338694Y-75300499D01*
X158396682Y-75288964D01*
X158512658Y-75265896D01*
X158512661Y-75265894D01*
X158512666Y-75265894D01*
X158676547Y-75198013D01*
X158824035Y-75099464D01*
X158949464Y-74974035D01*
X159048013Y-74826547D01*
X159115894Y-74662666D01*
X159128383Y-74599882D01*
X159160768Y-74537971D01*
X159221483Y-74503397D01*
X159291253Y-74507136D01*
X159347925Y-74548003D01*
X159371617Y-74599882D01*
X159384103Y-74662658D01*
X159384106Y-74662667D01*
X159451983Y-74826540D01*
X159451990Y-74826553D01*
X159550535Y-74974034D01*
X159550538Y-74974038D01*
X159675961Y-75099461D01*
X159675965Y-75099464D01*
X159823446Y-75198009D01*
X159823459Y-75198016D01*
X159856349Y-75211639D01*
X159987334Y-75265894D01*
X159987336Y-75265894D01*
X159987341Y-75265896D01*
X160161304Y-75300499D01*
X160161307Y-75300500D01*
X160161309Y-75300500D01*
X160338693Y-75300500D01*
X160338694Y-75300499D01*
X160396682Y-75288964D01*
X160512658Y-75265896D01*
X160512661Y-75265894D01*
X160512666Y-75265894D01*
X160676547Y-75198013D01*
X160824035Y-75099464D01*
X160949464Y-74974035D01*
X161048013Y-74826547D01*
X161115894Y-74662666D01*
X161128383Y-74599882D01*
X161160768Y-74537971D01*
X161221483Y-74503397D01*
X161291253Y-74507136D01*
X161347925Y-74548003D01*
X161371617Y-74599882D01*
X161384103Y-74662658D01*
X161384106Y-74662667D01*
X161451983Y-74826540D01*
X161451990Y-74826553D01*
X161550535Y-74974034D01*
X161550538Y-74974038D01*
X161675961Y-75099461D01*
X161675965Y-75099464D01*
X161823446Y-75198009D01*
X161823459Y-75198016D01*
X161856349Y-75211639D01*
X161987334Y-75265894D01*
X161987336Y-75265894D01*
X161987341Y-75265896D01*
X162161304Y-75300499D01*
X162161307Y-75300500D01*
X162161309Y-75300500D01*
X162338693Y-75300500D01*
X162338694Y-75300499D01*
X162396682Y-75288964D01*
X162512658Y-75265896D01*
X162512661Y-75265894D01*
X162512666Y-75265894D01*
X162676547Y-75198013D01*
X162824035Y-75099464D01*
X162949464Y-74974035D01*
X163048013Y-74826547D01*
X163115894Y-74662666D01*
X163128383Y-74599882D01*
X163160768Y-74537971D01*
X163221483Y-74503397D01*
X163291253Y-74507136D01*
X163347925Y-74548003D01*
X163371617Y-74599882D01*
X163384103Y-74662658D01*
X163384106Y-74662667D01*
X163451983Y-74826540D01*
X163451990Y-74826553D01*
X163550535Y-74974034D01*
X163550538Y-74974038D01*
X163675961Y-75099461D01*
X163675965Y-75099464D01*
X163823446Y-75198009D01*
X163823459Y-75198016D01*
X163856349Y-75211639D01*
X163987334Y-75265894D01*
X163987336Y-75265894D01*
X163987341Y-75265896D01*
X164161304Y-75300499D01*
X164161307Y-75300500D01*
X164161309Y-75300500D01*
X164338693Y-75300500D01*
X164338694Y-75300499D01*
X164396682Y-75288964D01*
X164512658Y-75265896D01*
X164512661Y-75265894D01*
X164512666Y-75265894D01*
X164676547Y-75198013D01*
X164824035Y-75099464D01*
X164949464Y-74974035D01*
X165048013Y-74826547D01*
X165115894Y-74662666D01*
X165150500Y-74488691D01*
X165150500Y-74311309D01*
X165150500Y-74311306D01*
X165150499Y-74311304D01*
X167349500Y-74311304D01*
X167349500Y-74488695D01*
X167384103Y-74662658D01*
X167384106Y-74662667D01*
X167451983Y-74826540D01*
X167451990Y-74826553D01*
X167550535Y-74974034D01*
X167550538Y-74974038D01*
X167675961Y-75099461D01*
X167675965Y-75099464D01*
X167823446Y-75198009D01*
X167823459Y-75198016D01*
X167856349Y-75211639D01*
X167987334Y-75265894D01*
X167987336Y-75265894D01*
X167987341Y-75265896D01*
X168161304Y-75300499D01*
X168161307Y-75300500D01*
X168161309Y-75300500D01*
X168338693Y-75300500D01*
X168338694Y-75300499D01*
X168396682Y-75288964D01*
X168512658Y-75265896D01*
X168512661Y-75265894D01*
X168512666Y-75265894D01*
X168676547Y-75198013D01*
X168824035Y-75099464D01*
X168949464Y-74974035D01*
X169048013Y-74826547D01*
X169115894Y-74662666D01*
X169128383Y-74599882D01*
X169160768Y-74537971D01*
X169221483Y-74503397D01*
X169291253Y-74507136D01*
X169347925Y-74548003D01*
X169371617Y-74599882D01*
X169384103Y-74662658D01*
X169384106Y-74662667D01*
X169451983Y-74826540D01*
X169451990Y-74826553D01*
X169550535Y-74974034D01*
X169550538Y-74974038D01*
X169675961Y-75099461D01*
X169675965Y-75099464D01*
X169823446Y-75198009D01*
X169823459Y-75198016D01*
X169856349Y-75211639D01*
X169987334Y-75265894D01*
X169987336Y-75265894D01*
X169987341Y-75265896D01*
X170161304Y-75300499D01*
X170161307Y-75300500D01*
X170161309Y-75300500D01*
X170338693Y-75300500D01*
X170338694Y-75300499D01*
X170396682Y-75288964D01*
X170512658Y-75265896D01*
X170512661Y-75265894D01*
X170512666Y-75265894D01*
X170676547Y-75198013D01*
X170824035Y-75099464D01*
X170949464Y-74974035D01*
X171048013Y-74826547D01*
X171115894Y-74662666D01*
X171128383Y-74599882D01*
X171160768Y-74537971D01*
X171221483Y-74503397D01*
X171291253Y-74507136D01*
X171347925Y-74548003D01*
X171371617Y-74599882D01*
X171384103Y-74662658D01*
X171384106Y-74662667D01*
X171451983Y-74826540D01*
X171451990Y-74826553D01*
X171550535Y-74974034D01*
X171550538Y-74974038D01*
X171675961Y-75099461D01*
X171675965Y-75099464D01*
X171823446Y-75198009D01*
X171823459Y-75198016D01*
X171856349Y-75211639D01*
X171987334Y-75265894D01*
X171987336Y-75265894D01*
X171987341Y-75265896D01*
X172161304Y-75300499D01*
X172161307Y-75300500D01*
X172161309Y-75300500D01*
X172338693Y-75300500D01*
X172338694Y-75300499D01*
X172396682Y-75288964D01*
X172512658Y-75265896D01*
X172512661Y-75265894D01*
X172512666Y-75265894D01*
X172676547Y-75198013D01*
X172824035Y-75099464D01*
X172949464Y-74974035D01*
X173048013Y-74826547D01*
X173115894Y-74662666D01*
X173150500Y-74488691D01*
X173150500Y-74311309D01*
X173150500Y-74311306D01*
X173150499Y-74311304D01*
X173115896Y-74137341D01*
X173115893Y-74137332D01*
X173106232Y-74114009D01*
X173098923Y-74096363D01*
X173048016Y-73973459D01*
X173048009Y-73973446D01*
X172949464Y-73825965D01*
X172949461Y-73825961D01*
X172824038Y-73700538D01*
X172824034Y-73700535D01*
X172676553Y-73601990D01*
X172676540Y-73601983D01*
X172512667Y-73534106D01*
X172512658Y-73534103D01*
X172338694Y-73499500D01*
X172338691Y-73499500D01*
X172161309Y-73499500D01*
X172161306Y-73499500D01*
X171987341Y-73534103D01*
X171987332Y-73534106D01*
X171823459Y-73601983D01*
X171823446Y-73601990D01*
X171675965Y-73700535D01*
X171675961Y-73700538D01*
X171550538Y-73825961D01*
X171550535Y-73825965D01*
X171451990Y-73973446D01*
X171451983Y-73973459D01*
X171384106Y-74137332D01*
X171384104Y-74137340D01*
X171371617Y-74200118D01*
X171339232Y-74262028D01*
X171278516Y-74296603D01*
X171208747Y-74292863D01*
X171152075Y-74251996D01*
X171128383Y-74200118D01*
X171115895Y-74137340D01*
X171115894Y-74137334D01*
X171098923Y-74096363D01*
X171048016Y-73973459D01*
X171048009Y-73973446D01*
X170949464Y-73825965D01*
X170949461Y-73825961D01*
X170824038Y-73700538D01*
X170824034Y-73700535D01*
X170676553Y-73601990D01*
X170676540Y-73601983D01*
X170512667Y-73534106D01*
X170512658Y-73534103D01*
X170338694Y-73499500D01*
X170338691Y-73499500D01*
X170161309Y-73499500D01*
X170161306Y-73499500D01*
X169987341Y-73534103D01*
X169987332Y-73534106D01*
X169823459Y-73601983D01*
X169823446Y-73601990D01*
X169675965Y-73700535D01*
X169675961Y-73700538D01*
X169550538Y-73825961D01*
X169550535Y-73825965D01*
X169451990Y-73973446D01*
X169451983Y-73973459D01*
X169384106Y-74137332D01*
X169384104Y-74137340D01*
X169371617Y-74200118D01*
X169339232Y-74262028D01*
X169278516Y-74296603D01*
X169208747Y-74292863D01*
X169152075Y-74251996D01*
X169128383Y-74200118D01*
X169115895Y-74137340D01*
X169115894Y-74137334D01*
X169098923Y-74096363D01*
X169048016Y-73973459D01*
X169048009Y-73973446D01*
X168949464Y-73825965D01*
X168949461Y-73825961D01*
X168824038Y-73700538D01*
X168824034Y-73700535D01*
X168676553Y-73601990D01*
X168676540Y-73601983D01*
X168512667Y-73534106D01*
X168512658Y-73534103D01*
X168338694Y-73499500D01*
X168338691Y-73499500D01*
X168161309Y-73499500D01*
X168161306Y-73499500D01*
X167987341Y-73534103D01*
X167987332Y-73534106D01*
X167823459Y-73601983D01*
X167823446Y-73601990D01*
X167675965Y-73700535D01*
X167675961Y-73700538D01*
X167550538Y-73825961D01*
X167550535Y-73825965D01*
X167451990Y-73973446D01*
X167451983Y-73973459D01*
X167384106Y-74137332D01*
X167384103Y-74137341D01*
X167349500Y-74311304D01*
X165150499Y-74311304D01*
X165115896Y-74137341D01*
X165115893Y-74137332D01*
X165106232Y-74114009D01*
X165098923Y-74096363D01*
X165048016Y-73973459D01*
X165048009Y-73973446D01*
X164949464Y-73825965D01*
X164949461Y-73825961D01*
X164824038Y-73700538D01*
X164824034Y-73700535D01*
X164676553Y-73601990D01*
X164676540Y-73601983D01*
X164512667Y-73534106D01*
X164512658Y-73534103D01*
X164338694Y-73499500D01*
X164338691Y-73499500D01*
X164161309Y-73499500D01*
X164161306Y-73499500D01*
X163987341Y-73534103D01*
X163987332Y-73534106D01*
X163823459Y-73601983D01*
X163823446Y-73601990D01*
X163675965Y-73700535D01*
X163675961Y-73700538D01*
X163550538Y-73825961D01*
X163550535Y-73825965D01*
X163451990Y-73973446D01*
X163451983Y-73973459D01*
X163384106Y-74137332D01*
X163384104Y-74137340D01*
X163371617Y-74200118D01*
X163339232Y-74262028D01*
X163278516Y-74296603D01*
X163208747Y-74292863D01*
X163152075Y-74251996D01*
X163128383Y-74200118D01*
X163115895Y-74137340D01*
X163115894Y-74137334D01*
X163098923Y-74096363D01*
X163048016Y-73973459D01*
X163048009Y-73973446D01*
X162949464Y-73825965D01*
X162949461Y-73825961D01*
X162824038Y-73700538D01*
X162824034Y-73700535D01*
X162676553Y-73601990D01*
X162676540Y-73601983D01*
X162512667Y-73534106D01*
X162512658Y-73534103D01*
X162338694Y-73499500D01*
X162338691Y-73499500D01*
X162161309Y-73499500D01*
X162161306Y-73499500D01*
X161987341Y-73534103D01*
X161987332Y-73534106D01*
X161823459Y-73601983D01*
X161823446Y-73601990D01*
X161675965Y-73700535D01*
X161675961Y-73700538D01*
X161550538Y-73825961D01*
X161550535Y-73825965D01*
X161451990Y-73973446D01*
X161451983Y-73973459D01*
X161384106Y-74137332D01*
X161384104Y-74137340D01*
X161371617Y-74200118D01*
X161339232Y-74262028D01*
X161278516Y-74296603D01*
X161208747Y-74292863D01*
X161152075Y-74251996D01*
X161128383Y-74200118D01*
X161115895Y-74137340D01*
X161115894Y-74137334D01*
X161098923Y-74096363D01*
X161048016Y-73973459D01*
X161048009Y-73973446D01*
X160949464Y-73825965D01*
X160949461Y-73825961D01*
X160824038Y-73700538D01*
X160824034Y-73700535D01*
X160676553Y-73601990D01*
X160676540Y-73601983D01*
X160512667Y-73534106D01*
X160512658Y-73534103D01*
X160338694Y-73499500D01*
X160338691Y-73499500D01*
X160161309Y-73499500D01*
X160161306Y-73499500D01*
X159987341Y-73534103D01*
X159987332Y-73534106D01*
X159823459Y-73601983D01*
X159823446Y-73601990D01*
X159675965Y-73700535D01*
X159675961Y-73700538D01*
X159550538Y-73825961D01*
X159550535Y-73825965D01*
X159451990Y-73973446D01*
X159451983Y-73973459D01*
X159384106Y-74137332D01*
X159384104Y-74137340D01*
X159371617Y-74200118D01*
X159339232Y-74262028D01*
X159278516Y-74296603D01*
X159208747Y-74292863D01*
X159152075Y-74251996D01*
X159128383Y-74200118D01*
X159115895Y-74137340D01*
X159115894Y-74137334D01*
X159098923Y-74096363D01*
X159048016Y-73973459D01*
X159048009Y-73973446D01*
X158949464Y-73825965D01*
X158949461Y-73825961D01*
X158824038Y-73700538D01*
X158824034Y-73700535D01*
X158676553Y-73601990D01*
X158676540Y-73601983D01*
X158512667Y-73534106D01*
X158512658Y-73534103D01*
X158338694Y-73499500D01*
X158338691Y-73499500D01*
X158161309Y-73499500D01*
X158161306Y-73499500D01*
X157987341Y-73534103D01*
X157987332Y-73534106D01*
X157823459Y-73601983D01*
X157823446Y-73601990D01*
X157675965Y-73700535D01*
X157675961Y-73700538D01*
X157550538Y-73825961D01*
X157550535Y-73825965D01*
X157451990Y-73973446D01*
X157451983Y-73973459D01*
X157384106Y-74137332D01*
X157384104Y-74137340D01*
X157371617Y-74200118D01*
X157339232Y-74262028D01*
X157278516Y-74296603D01*
X157208747Y-74292863D01*
X157152075Y-74251996D01*
X157128383Y-74200118D01*
X157115895Y-74137340D01*
X157115894Y-74137334D01*
X157098923Y-74096363D01*
X157048016Y-73973459D01*
X157048009Y-73973446D01*
X156949464Y-73825965D01*
X156949461Y-73825961D01*
X156824038Y-73700538D01*
X156824034Y-73700535D01*
X156676553Y-73601990D01*
X156676540Y-73601983D01*
X156512667Y-73534106D01*
X156512658Y-73534103D01*
X156338694Y-73499500D01*
X156338691Y-73499500D01*
X156161309Y-73499500D01*
X156161306Y-73499500D01*
X155987341Y-73534103D01*
X155987332Y-73534106D01*
X155823459Y-73601983D01*
X155823446Y-73601990D01*
X155675965Y-73700535D01*
X155675961Y-73700538D01*
X155550538Y-73825961D01*
X155550535Y-73825965D01*
X155451990Y-73973446D01*
X155451983Y-73973459D01*
X155384106Y-74137332D01*
X155384104Y-74137340D01*
X155371617Y-74200118D01*
X155339232Y-74262028D01*
X155278516Y-74296603D01*
X155208747Y-74292863D01*
X155152075Y-74251996D01*
X155128383Y-74200118D01*
X155115895Y-74137340D01*
X155115894Y-74137334D01*
X155098923Y-74096363D01*
X155048016Y-73973459D01*
X155048009Y-73973446D01*
X154949464Y-73825965D01*
X154949461Y-73825961D01*
X154824038Y-73700538D01*
X154824034Y-73700535D01*
X154676553Y-73601990D01*
X154676540Y-73601983D01*
X154512667Y-73534106D01*
X154512658Y-73534103D01*
X154338694Y-73499500D01*
X154338691Y-73499500D01*
X154161309Y-73499500D01*
X154161306Y-73499500D01*
X153987341Y-73534103D01*
X153987332Y-73534106D01*
X153823459Y-73601983D01*
X153823446Y-73601990D01*
X153675965Y-73700535D01*
X153675961Y-73700538D01*
X153550538Y-73825961D01*
X153550535Y-73825965D01*
X153451990Y-73973446D01*
X153451983Y-73973459D01*
X153384106Y-74137332D01*
X153384103Y-74137341D01*
X153349500Y-74311304D01*
X151390500Y-74311304D01*
X151390500Y-69085258D01*
X161749500Y-69085258D01*
X161749500Y-69314741D01*
X161774446Y-69504215D01*
X161779452Y-69542238D01*
X161799081Y-69615495D01*
X161838842Y-69763887D01*
X161926650Y-69975876D01*
X161926657Y-69975890D01*
X162041392Y-70174617D01*
X162181081Y-70356661D01*
X162181089Y-70356670D01*
X162343330Y-70518911D01*
X162343338Y-70518918D01*
X162525382Y-70658607D01*
X162525385Y-70658608D01*
X162525388Y-70658611D01*
X162724112Y-70773344D01*
X162724117Y-70773346D01*
X162724123Y-70773349D01*
X162815480Y-70811190D01*
X162936113Y-70861158D01*
X163157762Y-70920548D01*
X163385266Y-70950500D01*
X163385273Y-70950500D01*
X163614727Y-70950500D01*
X163614734Y-70950500D01*
X163842238Y-70920548D01*
X164063887Y-70861158D01*
X164275888Y-70773344D01*
X164474612Y-70658611D01*
X164656661Y-70518919D01*
X164656665Y-70518914D01*
X164656670Y-70518911D01*
X164818911Y-70356670D01*
X164818914Y-70356665D01*
X164818919Y-70356661D01*
X164958611Y-70174612D01*
X165073344Y-69975888D01*
X165161158Y-69763887D01*
X165220548Y-69542238D01*
X165250500Y-69314734D01*
X165250500Y-69085266D01*
X165220548Y-68857762D01*
X165161158Y-68636113D01*
X165073344Y-68424112D01*
X164958611Y-68225388D01*
X164958608Y-68225385D01*
X164958607Y-68225382D01*
X164818918Y-68043338D01*
X164818911Y-68043330D01*
X164656670Y-67881089D01*
X164656661Y-67881081D01*
X164474617Y-67741392D01*
X164275890Y-67626657D01*
X164275876Y-67626650D01*
X164063887Y-67538842D01*
X163842238Y-67479452D01*
X163804215Y-67474446D01*
X163614741Y-67449500D01*
X163614734Y-67449500D01*
X163385266Y-67449500D01*
X163385258Y-67449500D01*
X163168715Y-67478009D01*
X163157762Y-67479452D01*
X163064076Y-67504554D01*
X162936112Y-67538842D01*
X162724123Y-67626650D01*
X162724109Y-67626657D01*
X162525382Y-67741392D01*
X162343338Y-67881081D01*
X162181081Y-68043338D01*
X162041392Y-68225382D01*
X161926657Y-68424109D01*
X161926650Y-68424123D01*
X161838842Y-68636112D01*
X161779453Y-68857759D01*
X161779451Y-68857770D01*
X161749500Y-69085258D01*
X151390500Y-69085258D01*
X151390500Y-66569500D01*
X151410185Y-66502461D01*
X151462989Y-66456706D01*
X151514500Y-66445500D01*
X153921846Y-66445500D01*
X153925934Y-66443268D01*
X153952292Y-66440434D01*
X154076433Y-66440434D01*
X154076433Y-66440433D01*
X154435291Y-66400000D01*
X154787369Y-66319640D01*
X155128236Y-66200366D01*
X155453604Y-66043677D01*
X155759383Y-65851543D01*
X156041728Y-65626381D01*
X156297087Y-65371022D01*
X156522249Y-65088677D01*
X156714383Y-64782898D01*
X156871072Y-64457530D01*
X156990346Y-64116663D01*
X157070706Y-63764585D01*
X157111140Y-63405724D01*
X157111140Y-63281586D01*
X157116206Y-63264333D01*
X157116206Y-60854500D01*
X157135891Y-60787461D01*
X157188695Y-60741706D01*
X157240206Y-60730500D01*
X177998272Y-60730500D01*
X177990394Y-68187000D01*
G37*
%TD.AperFunction*%
%TA.AperFunction,Conductor*%
G36*
X214972697Y-60750185D02*
G01*
X215018452Y-60802989D01*
X215029658Y-60854500D01*
X215029658Y-63275982D01*
X215031890Y-63280070D01*
X215034724Y-63306428D01*
X215034724Y-63430570D01*
X215075156Y-63789414D01*
X215075158Y-63789426D01*
X215155517Y-64141504D01*
X215155518Y-64141506D01*
X215274792Y-64482373D01*
X215431479Y-64807737D01*
X215431481Y-64807740D01*
X215623615Y-65113519D01*
X215848777Y-65395864D01*
X216104136Y-65651223D01*
X216386481Y-65876385D01*
X216692260Y-66068519D01*
X217017628Y-66225208D01*
X217358495Y-66344482D01*
X217710573Y-66424842D01*
X218069430Y-66465275D01*
X218069431Y-66465276D01*
X218069434Y-66465276D01*
X218193572Y-66465276D01*
X218210825Y-66470342D01*
X218250000Y-66470342D01*
X220765500Y-66470342D01*
X220832539Y-66490027D01*
X220878294Y-66542831D01*
X220889500Y-66594342D01*
X220889500Y-84778962D01*
X220869815Y-84846001D01*
X220817011Y-84891756D01*
X220765756Y-84902962D01*
X219004756Y-84906601D01*
X218937676Y-84887055D01*
X218891812Y-84834345D01*
X218880500Y-84782601D01*
X218880500Y-83410249D01*
X218880499Y-83410247D01*
X218868868Y-83351770D01*
X218868867Y-83351769D01*
X218824552Y-83285447D01*
X218758230Y-83241132D01*
X218758229Y-83241131D01*
X218699752Y-83229500D01*
X218699748Y-83229500D01*
X216660252Y-83229500D01*
X216660247Y-83229500D01*
X216601770Y-83241131D01*
X216601769Y-83241132D01*
X216535447Y-83285447D01*
X216491132Y-83351769D01*
X216491131Y-83351770D01*
X216479500Y-83410247D01*
X216479500Y-83763745D01*
X216459815Y-83830784D01*
X216407011Y-83876539D01*
X216337853Y-83886483D01*
X216274297Y-83857458D01*
X216267819Y-83851426D01*
X214436819Y-82020426D01*
X214403334Y-81959103D01*
X214400500Y-81932745D01*
X214400500Y-79449500D01*
X214420185Y-79382461D01*
X214472989Y-79336706D01*
X214524500Y-79325500D01*
X214855932Y-79325500D01*
X214868992Y-79330371D01*
X214983865Y-79338587D01*
X215044026Y-79325500D01*
X215190252Y-79325500D01*
X216879748Y-79325500D01*
X216879750Y-79325500D01*
X216879751Y-79325499D01*
X216894951Y-79322476D01*
X216938229Y-79313868D01*
X216938229Y-79313867D01*
X216938231Y-79313867D01*
X217004552Y-79269552D01*
X217048867Y-79203231D01*
X217048867Y-79203229D01*
X217048868Y-79203229D01*
X217060499Y-79144752D01*
X217060500Y-79144750D01*
X217060500Y-78705249D01*
X217060499Y-78705247D01*
X217046485Y-78634790D01*
X217047762Y-78634535D01*
X217041680Y-78577991D01*
X217048694Y-78554100D01*
X217058367Y-78505472D01*
X217060500Y-78494748D01*
X217060500Y-78055252D01*
X217060500Y-78055249D01*
X217060499Y-78055247D01*
X217046485Y-77984790D01*
X217047762Y-77984535D01*
X217041680Y-77927991D01*
X217048694Y-77904100D01*
X217060499Y-77844752D01*
X217060500Y-77844750D01*
X217060500Y-77405249D01*
X217060499Y-77405247D01*
X217046485Y-77334790D01*
X217047762Y-77334535D01*
X217041680Y-77277991D01*
X217048694Y-77254100D01*
X217051289Y-77241053D01*
X217060500Y-77194748D01*
X217060500Y-76755252D01*
X217060500Y-76755249D01*
X217060499Y-76755247D01*
X217048868Y-76696770D01*
X217048867Y-76696769D01*
X217004552Y-76630447D01*
X216938230Y-76586132D01*
X216938229Y-76586131D01*
X216879752Y-76574500D01*
X216879748Y-76574500D01*
X215190252Y-76574500D01*
X215190247Y-76574500D01*
X215131770Y-76586131D01*
X215131769Y-76586132D01*
X215065447Y-76630447D01*
X215021132Y-76696769D01*
X215021131Y-76696770D01*
X215009500Y-76755247D01*
X215009500Y-77100500D01*
X214989815Y-77167539D01*
X214937011Y-77213294D01*
X214885500Y-77224500D01*
X213835339Y-77224500D01*
X213835323Y-77224499D01*
X213827727Y-77224499D01*
X213722273Y-77224499D01*
X213660498Y-77241052D01*
X213620412Y-77251793D01*
X213529084Y-77304522D01*
X212379522Y-78454084D01*
X212379520Y-78454087D01*
X212349853Y-78505472D01*
X212326793Y-78545412D01*
X212311007Y-78604327D01*
X212309778Y-78608914D01*
X212299500Y-78647270D01*
X212299500Y-84782743D01*
X212290854Y-84812187D01*
X212284330Y-84842174D01*
X212280577Y-84847186D01*
X212279815Y-84849782D01*
X212263178Y-84870427D01*
X212249181Y-84884423D01*
X212187857Y-84917906D01*
X212161759Y-84920739D01*
X211699756Y-84921694D01*
X211632676Y-84902148D01*
X211586812Y-84849439D01*
X211575500Y-84797694D01*
X211575500Y-84381496D01*
X211595185Y-84314457D01*
X211645039Y-84270095D01*
X211651347Y-84267012D01*
X211737012Y-84181347D01*
X211790220Y-84072509D01*
X211800500Y-84001949D01*
X211800499Y-82633052D01*
X211799320Y-82624961D01*
X211791474Y-82571098D01*
X211790220Y-82562491D01*
X211737012Y-82453653D01*
X211737010Y-82453651D01*
X211737010Y-82453650D01*
X211651348Y-82367988D01*
X211542511Y-82314780D01*
X211524869Y-82312210D01*
X211471949Y-82304500D01*
X211471943Y-82304500D01*
X211078049Y-82304500D01*
X211007493Y-82314779D01*
X210898650Y-82367989D01*
X210812988Y-82453651D01*
X210759780Y-82562488D01*
X210758473Y-82566721D01*
X210755571Y-82571098D01*
X210755550Y-82571143D01*
X210755544Y-82571140D01*
X210719873Y-82624961D01*
X210655914Y-82653087D01*
X210586903Y-82642169D01*
X210534750Y-82595674D01*
X210521528Y-82566724D01*
X210520220Y-82562494D01*
X210520220Y-82562493D01*
X210520220Y-82562491D01*
X210467012Y-82453653D01*
X210467010Y-82453651D01*
X210467010Y-82453650D01*
X210381348Y-82367988D01*
X210272511Y-82314780D01*
X210254869Y-82312210D01*
X210201949Y-82304500D01*
X210201943Y-82304500D01*
X209808049Y-82304500D01*
X209737493Y-82314779D01*
X209628650Y-82367989D01*
X209542988Y-82453651D01*
X209489780Y-82562488D01*
X209488473Y-82566721D01*
X209485571Y-82571098D01*
X209485550Y-82571143D01*
X209485544Y-82571140D01*
X209449873Y-82624961D01*
X209385914Y-82653087D01*
X209316903Y-82642169D01*
X209264750Y-82595674D01*
X209251528Y-82566724D01*
X209250220Y-82562494D01*
X209250220Y-82562493D01*
X209250220Y-82562491D01*
X209197012Y-82453653D01*
X209197010Y-82453651D01*
X209197010Y-82453650D01*
X209111348Y-82367988D01*
X209002511Y-82314780D01*
X208984869Y-82312210D01*
X208931949Y-82304500D01*
X208931943Y-82304500D01*
X208538049Y-82304500D01*
X208467493Y-82314779D01*
X208358650Y-82367989D01*
X208272988Y-82453651D01*
X208219780Y-82562488D01*
X208218473Y-82566721D01*
X208215571Y-82571098D01*
X208215550Y-82571143D01*
X208215544Y-82571140D01*
X208179873Y-82624961D01*
X208115914Y-82653087D01*
X208046903Y-82642169D01*
X207994750Y-82595674D01*
X207981528Y-82566724D01*
X207980220Y-82562494D01*
X207980220Y-82562493D01*
X207980220Y-82562491D01*
X207927012Y-82453653D01*
X207927010Y-82453651D01*
X207927010Y-82453650D01*
X207841348Y-82367988D01*
X207732511Y-82314780D01*
X207714869Y-82312210D01*
X207661949Y-82304500D01*
X207661943Y-82304500D01*
X207268049Y-82304500D01*
X207197493Y-82314779D01*
X207088650Y-82367989D01*
X207002988Y-82453651D01*
X206949780Y-82562488D01*
X206949163Y-82566724D01*
X206939500Y-82633051D01*
X206939500Y-82633055D01*
X206939500Y-82633056D01*
X206939500Y-84001950D01*
X206949779Y-84072506D01*
X206949779Y-84072507D01*
X206949780Y-84072509D01*
X207000433Y-84176121D01*
X207007501Y-84190578D01*
X207005325Y-84191641D01*
X207011598Y-84209698D01*
X207023336Y-84241167D01*
X207023025Y-84242592D01*
X207023505Y-84243972D01*
X207015619Y-84276639D01*
X207008484Y-84309440D01*
X207007329Y-84310982D01*
X207007110Y-84311891D01*
X206987334Y-84337695D01*
X206881846Y-84443182D01*
X206820526Y-84476666D01*
X206794167Y-84479500D01*
X205694833Y-84479500D01*
X205627794Y-84459815D01*
X205582039Y-84407011D01*
X205572095Y-84337853D01*
X205601120Y-84274297D01*
X205607152Y-84267819D01*
X205819524Y-84055447D01*
X206040460Y-83834511D01*
X206044995Y-83826656D01*
X206080021Y-83765989D01*
X206100500Y-83689562D01*
X206100500Y-75050833D01*
X206109144Y-75021392D01*
X206115668Y-74991406D01*
X206119422Y-74986390D01*
X206120185Y-74983794D01*
X206136819Y-74963152D01*
X206163152Y-74936819D01*
X206224475Y-74903334D01*
X206250833Y-74900500D01*
X208064167Y-74900500D01*
X208131206Y-74920185D01*
X208151848Y-74936819D01*
X208295653Y-75080624D01*
X208329138Y-75141947D01*
X208324154Y-75211639D01*
X208295655Y-75255985D01*
X208272987Y-75278653D01*
X208219780Y-75387488D01*
X208218030Y-75399500D01*
X208209500Y-75458051D01*
X208209500Y-75458055D01*
X208209500Y-75458056D01*
X208209500Y-76826950D01*
X208219779Y-76897506D01*
X208272989Y-77006349D01*
X208358651Y-77092011D01*
X208467488Y-77145219D01*
X208467489Y-77145219D01*
X208467491Y-77145220D01*
X208538051Y-77155500D01*
X208931948Y-77155499D01*
X208931950Y-77155499D01*
X208960172Y-77151387D01*
X209002509Y-77145220D01*
X209111347Y-77092012D01*
X209197012Y-77006347D01*
X209250220Y-76897509D01*
X209250221Y-76897501D01*
X209251523Y-76893288D01*
X209254424Y-76888909D01*
X209254450Y-76888857D01*
X209254456Y-76888860D01*
X209290117Y-76835045D01*
X209354074Y-76806914D01*
X209423086Y-76817826D01*
X209475244Y-76864316D01*
X209488469Y-76893270D01*
X209489776Y-76897500D01*
X209542989Y-77006349D01*
X209628651Y-77092011D01*
X209737488Y-77145219D01*
X209737489Y-77145219D01*
X209737491Y-77145220D01*
X209808051Y-77155500D01*
X210201948Y-77155499D01*
X210201950Y-77155499D01*
X210230172Y-77151387D01*
X210272509Y-77145220D01*
X210381347Y-77092012D01*
X210467012Y-77006347D01*
X210520220Y-76897509D01*
X210520221Y-76897501D01*
X210521523Y-76893288D01*
X210524424Y-76888909D01*
X210524450Y-76888857D01*
X210524456Y-76888860D01*
X210560117Y-76835045D01*
X210624074Y-76806914D01*
X210693086Y-76817826D01*
X210745244Y-76864316D01*
X210758469Y-76893270D01*
X210759776Y-76897500D01*
X210812989Y-77006349D01*
X210898651Y-77092011D01*
X211007488Y-77145219D01*
X211007489Y-77145219D01*
X211007491Y-77145220D01*
X211078051Y-77155500D01*
X211471948Y-77155499D01*
X211471950Y-77155499D01*
X211500172Y-77151387D01*
X211542509Y-77145220D01*
X211651347Y-77092012D01*
X211737012Y-77006347D01*
X211790220Y-76897509D01*
X211800500Y-76826949D01*
X211800499Y-75458052D01*
X211797069Y-75434509D01*
X211790220Y-75387493D01*
X211790220Y-75387491D01*
X211737012Y-75278653D01*
X211737010Y-75278651D01*
X211737010Y-75278650D01*
X211651350Y-75192990D01*
X211651347Y-75192988D01*
X211645037Y-75189903D01*
X211593456Y-75142774D01*
X211575500Y-75078504D01*
X211575500Y-74895440D01*
X211575500Y-74895438D01*
X211571369Y-74880021D01*
X211555022Y-74819012D01*
X211515460Y-74750489D01*
X210006819Y-73241848D01*
X209973334Y-73180525D01*
X209970500Y-73154167D01*
X209970500Y-72548756D01*
X209990185Y-72481717D01*
X210042989Y-72435962D01*
X210105335Y-72425423D01*
X210105338Y-72425365D01*
X210105608Y-72425377D01*
X210106080Y-72425298D01*
X210108234Y-72425500D01*
X210741770Y-72425500D01*
X210772199Y-72422646D01*
X210772201Y-72422646D01*
X210836290Y-72400219D01*
X210900382Y-72377793D01*
X211009650Y-72297150D01*
X211090293Y-72187882D01*
X211128210Y-72079521D01*
X211135146Y-72059701D01*
X211135146Y-72059699D01*
X211138000Y-72029269D01*
X211138000Y-71020730D01*
X211537000Y-71020730D01*
X211537000Y-72029269D01*
X211539853Y-72059699D01*
X211539853Y-72059701D01*
X211573057Y-72154589D01*
X211584707Y-72187882D01*
X211665350Y-72297150D01*
X211774618Y-72377793D01*
X211817345Y-72392744D01*
X211902799Y-72422646D01*
X211933230Y-72425500D01*
X211933234Y-72425500D01*
X212566770Y-72425500D01*
X212597199Y-72422646D01*
X212597201Y-72422646D01*
X212661290Y-72400219D01*
X212725382Y-72377793D01*
X212834650Y-72297150D01*
X212915293Y-72187882D01*
X212953210Y-72079521D01*
X212960146Y-72059701D01*
X212960146Y-72059699D01*
X212963000Y-72029269D01*
X212963000Y-71949500D01*
X212982685Y-71882461D01*
X213035489Y-71836706D01*
X213087000Y-71825500D01*
X214185033Y-71825500D01*
X214252072Y-71845185D01*
X214272714Y-71861819D01*
X214280446Y-71869551D01*
X214346769Y-71913867D01*
X214346770Y-71913868D01*
X214405247Y-71925499D01*
X214405250Y-71925500D01*
X214405252Y-71925500D01*
X215494750Y-71925500D01*
X215494751Y-71925499D01*
X215509568Y-71922552D01*
X215553229Y-71913868D01*
X215553229Y-71913867D01*
X215553231Y-71913867D01*
X215619552Y-71869552D01*
X215619553Y-71869551D01*
X215627286Y-71861819D01*
X215688609Y-71828334D01*
X215714967Y-71825500D01*
X218335033Y-71825500D01*
X218402072Y-71845185D01*
X218422714Y-71861819D01*
X218430446Y-71869551D01*
X218496769Y-71913867D01*
X218496770Y-71913868D01*
X218555247Y-71925499D01*
X218555250Y-71925500D01*
X218555252Y-71925500D01*
X219644750Y-71925500D01*
X219644751Y-71925499D01*
X219659568Y-71922552D01*
X219703229Y-71913868D01*
X219703229Y-71913867D01*
X219703231Y-71913867D01*
X219769552Y-71869552D01*
X219813867Y-71803231D01*
X219813867Y-71803229D01*
X219813868Y-71803229D01*
X219825499Y-71744752D01*
X219825500Y-71744750D01*
X219825500Y-71055249D01*
X219825499Y-71055247D01*
X219813868Y-70996770D01*
X219813867Y-70996769D01*
X219769552Y-70930447D01*
X219703230Y-70886132D01*
X219703229Y-70886131D01*
X219644752Y-70874500D01*
X219644748Y-70874500D01*
X218555252Y-70874500D01*
X218555247Y-70874500D01*
X218496770Y-70886131D01*
X218496769Y-70886132D01*
X218430447Y-70930447D01*
X218386132Y-70996769D01*
X218386131Y-70996770D01*
X218374500Y-71055247D01*
X218374500Y-71100500D01*
X218354815Y-71167539D01*
X218302011Y-71213294D01*
X218250500Y-71224500D01*
X215799500Y-71224500D01*
X215732461Y-71204815D01*
X215686706Y-71152011D01*
X215675500Y-71100500D01*
X215675500Y-71055249D01*
X215675499Y-71055247D01*
X215663868Y-70996770D01*
X215663867Y-70996769D01*
X215619552Y-70930447D01*
X215553230Y-70886132D01*
X215553229Y-70886131D01*
X215494752Y-70874500D01*
X215494748Y-70874500D01*
X214405252Y-70874500D01*
X214405247Y-70874500D01*
X214346770Y-70886131D01*
X214346769Y-70886132D01*
X214280447Y-70930447D01*
X214236132Y-70996769D01*
X214236131Y-70996770D01*
X214224500Y-71055247D01*
X214224500Y-71100500D01*
X214204815Y-71167539D01*
X214152011Y-71213294D01*
X214100500Y-71224500D01*
X213087000Y-71224500D01*
X213019961Y-71204815D01*
X212974206Y-71152011D01*
X212963000Y-71100500D01*
X212963000Y-71020730D01*
X212960146Y-70990300D01*
X212960146Y-70990298D01*
X212923695Y-70886131D01*
X212915293Y-70862118D01*
X212834650Y-70752850D01*
X212725382Y-70672207D01*
X212725380Y-70672206D01*
X212597200Y-70627353D01*
X212566770Y-70624500D01*
X212566766Y-70624500D01*
X211933234Y-70624500D01*
X211933230Y-70624500D01*
X211902800Y-70627353D01*
X211902798Y-70627353D01*
X211774619Y-70672206D01*
X211774617Y-70672207D01*
X211665350Y-70752850D01*
X211584707Y-70862117D01*
X211584706Y-70862119D01*
X211539853Y-70990298D01*
X211539853Y-70990300D01*
X211537000Y-71020730D01*
X211138000Y-71020730D01*
X211135146Y-70990300D01*
X211135146Y-70990298D01*
X211098695Y-70886131D01*
X211090293Y-70862118D01*
X211009650Y-70752850D01*
X210900382Y-70672207D01*
X210861527Y-70658611D01*
X210808544Y-70640071D01*
X210751769Y-70599349D01*
X210726022Y-70534396D01*
X210725500Y-70523030D01*
X210725500Y-69975833D01*
X210734144Y-69946392D01*
X210740668Y-69916406D01*
X210744422Y-69911390D01*
X210745185Y-69908794D01*
X210761819Y-69888152D01*
X210825652Y-69824319D01*
X210886975Y-69790834D01*
X210913333Y-69788000D01*
X211073030Y-69788000D01*
X211140069Y-69807685D01*
X211185824Y-69860489D01*
X211190071Y-69871044D01*
X211204189Y-69911390D01*
X211222207Y-69962882D01*
X211302850Y-70072150D01*
X211412118Y-70152793D01*
X211454845Y-70167744D01*
X211540299Y-70197646D01*
X211570730Y-70200500D01*
X211570734Y-70200500D01*
X212579270Y-70200500D01*
X212609699Y-70197646D01*
X212609701Y-70197646D01*
X212675527Y-70174612D01*
X212737882Y-70152793D01*
X212847150Y-70072150D01*
X212927793Y-69962882D01*
X212953942Y-69888152D01*
X212972646Y-69834701D01*
X212972646Y-69834699D01*
X212975500Y-69804269D01*
X212975500Y-69170730D01*
X212972646Y-69140300D01*
X212972646Y-69140298D01*
X212927793Y-69012119D01*
X212927792Y-69012117D01*
X212847150Y-68902850D01*
X212737882Y-68822207D01*
X212737880Y-68822206D01*
X212609700Y-68777353D01*
X212579270Y-68774500D01*
X212579266Y-68774500D01*
X211570734Y-68774500D01*
X211570730Y-68774500D01*
X211540300Y-68777353D01*
X211540298Y-68777353D01*
X211412119Y-68822206D01*
X211412117Y-68822207D01*
X211302850Y-68902850D01*
X211222207Y-69012117D01*
X211190071Y-69103956D01*
X211149349Y-69160731D01*
X211084396Y-69186478D01*
X211073030Y-69187000D01*
X210697938Y-69187000D01*
X210621510Y-69207478D01*
X210552989Y-69247040D01*
X210552986Y-69247042D01*
X210184541Y-69615487D01*
X210184535Y-69615495D01*
X210144982Y-69684004D01*
X210144979Y-69684009D01*
X210124500Y-69760439D01*
X210124500Y-70523030D01*
X210104815Y-70590069D01*
X210052011Y-70635824D01*
X210041456Y-70640071D01*
X209949617Y-70672207D01*
X209840350Y-70752850D01*
X209759707Y-70862117D01*
X209759706Y-70862119D01*
X209714853Y-70990298D01*
X209714853Y-70990300D01*
X209712000Y-71020730D01*
X209712000Y-71142794D01*
X209692315Y-71209833D01*
X209667551Y-71237913D01*
X209659145Y-71244943D01*
X209659011Y-71244979D01*
X209597540Y-71280469D01*
X209590489Y-71284540D01*
X209485489Y-71389540D01*
X209481593Y-71393435D01*
X209481587Y-71393441D01*
X209429541Y-71445487D01*
X209429535Y-71445495D01*
X209389982Y-71514004D01*
X209389979Y-71514009D01*
X209369500Y-71590439D01*
X209369500Y-72905500D01*
X209349815Y-72972539D01*
X209297011Y-73018294D01*
X209245500Y-73029500D01*
X205430438Y-73029500D01*
X205392224Y-73039739D01*
X205354009Y-73049979D01*
X205354004Y-73049982D01*
X205285495Y-73089535D01*
X205285487Y-73089541D01*
X204329541Y-74045487D01*
X204329535Y-74045495D01*
X204289982Y-74114004D01*
X204289979Y-74114009D01*
X204269500Y-74190439D01*
X204269500Y-82076000D01*
X204249815Y-82143039D01*
X204197011Y-82188794D01*
X204145500Y-82200000D01*
X203094500Y-82200000D01*
X203085814Y-82197449D01*
X203076853Y-82198738D01*
X203052812Y-82187759D01*
X203027461Y-82180315D01*
X203021533Y-82173474D01*
X203013297Y-82169713D01*
X202999007Y-82147478D01*
X202981706Y-82127511D01*
X202979418Y-82116996D01*
X202975523Y-82110935D01*
X202970500Y-82076000D01*
X202970500Y-81982496D01*
X202990185Y-81915457D01*
X203042097Y-81870113D01*
X203078316Y-81853224D01*
X203163224Y-81768316D01*
X203213972Y-81659487D01*
X203220500Y-81609901D01*
X203220499Y-81190100D01*
X203213972Y-81140513D01*
X203163224Y-81031684D01*
X203078316Y-80946776D01*
X202969487Y-80896028D01*
X202969485Y-80896027D01*
X202969484Y-80896027D01*
X202960376Y-80893372D01*
X202960842Y-80891772D01*
X202906973Y-80867938D01*
X202868506Y-80809611D01*
X202867679Y-80739746D01*
X202896014Y-80691341D01*
X202895513Y-80690957D01*
X202898579Y-80686961D01*
X202899383Y-80685587D01*
X202900460Y-80684511D01*
X202907965Y-80671512D01*
X202940021Y-80615989D01*
X202960500Y-80539562D01*
X202960500Y-79497938D01*
X202940021Y-79421511D01*
X202940017Y-79421504D01*
X202900464Y-79352995D01*
X202900458Y-79352987D01*
X202873901Y-79326430D01*
X202840416Y-79265107D01*
X202845400Y-79195415D01*
X202873897Y-79151072D01*
X203088151Y-78936818D01*
X203149474Y-78903334D01*
X203175832Y-78900500D01*
X203252725Y-78900500D01*
X203252727Y-78900500D01*
X203354587Y-78873207D01*
X203445913Y-78820480D01*
X203520480Y-78745913D01*
X203573207Y-78654587D01*
X203600500Y-78552727D01*
X203600500Y-78447273D01*
X203573207Y-78345413D01*
X203520480Y-78254087D01*
X203445913Y-78179520D01*
X203354587Y-78126793D01*
X203252727Y-78099500D01*
X203147273Y-78099500D01*
X203045413Y-78126793D01*
X203045410Y-78126794D01*
X202954085Y-78179521D01*
X202879520Y-78254086D01*
X202831098Y-78337954D01*
X202811393Y-78363634D01*
X202448930Y-78726097D01*
X202444690Y-78728412D01*
X202442061Y-78732466D01*
X202414320Y-78744995D01*
X202387607Y-78759582D01*
X202382787Y-78759237D01*
X202378385Y-78761226D01*
X202348278Y-78756769D01*
X202317915Y-78754598D01*
X202312730Y-78751507D01*
X202309269Y-78750995D01*
X202293944Y-78740307D01*
X202279657Y-78731790D01*
X202276518Y-78729047D01*
X202184511Y-78637040D01*
X202155828Y-78620480D01*
X202120356Y-78600000D01*
X202115990Y-78597479D01*
X202090513Y-78590652D01*
X202039562Y-78577000D01*
X202039560Y-78577000D01*
X201820321Y-78577000D01*
X201753282Y-78557315D01*
X201707939Y-78505404D01*
X201704065Y-78497096D01*
X201620404Y-78413435D01*
X201513173Y-78363432D01*
X201513171Y-78363431D01*
X201513172Y-78363431D01*
X201464317Y-78357000D01*
X201464316Y-78357000D01*
X201115684Y-78357000D01*
X201115683Y-78357000D01*
X201066828Y-78363431D01*
X200959595Y-78413435D01*
X200868264Y-78504767D01*
X200865440Y-78501943D01*
X200826958Y-78532683D01*
X200757458Y-78539852D01*
X200695114Y-78508308D01*
X200692191Y-78505472D01*
X200684263Y-78497521D01*
X200684065Y-78497096D01*
X200606689Y-78419720D01*
X200589914Y-78388892D01*
X200573334Y-78358527D01*
X200573319Y-78358394D01*
X200573296Y-78358351D01*
X200573303Y-78358245D01*
X200570500Y-78332169D01*
X200570500Y-78114575D01*
X200590185Y-78047536D01*
X200596124Y-78039089D01*
X200600472Y-78033420D01*
X200600480Y-78033413D01*
X200653207Y-77942087D01*
X200680500Y-77840227D01*
X200680500Y-77734773D01*
X200653207Y-77632913D01*
X200600480Y-77541587D01*
X200525913Y-77467020D01*
X200434587Y-77414293D01*
X200332727Y-77387000D01*
X200227273Y-77387000D01*
X200125413Y-77414293D01*
X200125410Y-77414294D01*
X200034085Y-77467021D01*
X199959521Y-77541585D01*
X199906794Y-77632910D01*
X199906793Y-77632913D01*
X199879500Y-77734773D01*
X199879500Y-77840227D01*
X199906793Y-77942087D01*
X199952888Y-78021926D01*
X199957037Y-78037411D01*
X199964477Y-78048988D01*
X199969500Y-78083923D01*
X199969500Y-78332169D01*
X199949815Y-78399208D01*
X199933181Y-78419850D01*
X199855935Y-78497095D01*
X199805931Y-78604328D01*
X199799500Y-78653183D01*
X199799500Y-78871667D01*
X199779815Y-78938706D01*
X199763181Y-78959348D01*
X199759541Y-78962987D01*
X199759535Y-78962995D01*
X199719982Y-79031504D01*
X199719979Y-79031509D01*
X199714221Y-79053000D01*
X199700897Y-79102727D01*
X199699500Y-79107939D01*
X199699500Y-79376000D01*
X199679815Y-79443039D01*
X199627011Y-79488794D01*
X199575500Y-79500000D01*
X199224500Y-79500000D01*
X199157461Y-79480315D01*
X199111706Y-79427511D01*
X199100500Y-79376000D01*
X199100500Y-76651918D01*
X199093759Y-76626760D01*
X199080021Y-76575490D01*
X199063730Y-76547273D01*
X199040464Y-76506974D01*
X199040458Y-76506966D01*
X198376967Y-75843475D01*
X198357260Y-75817793D01*
X198320480Y-75754087D01*
X198245913Y-75679520D01*
X198154587Y-75626793D01*
X198052727Y-75599500D01*
X197947273Y-75599500D01*
X197845413Y-75626793D01*
X197845410Y-75626794D01*
X197754085Y-75679521D01*
X197679521Y-75754085D01*
X197626794Y-75845410D01*
X197626793Y-75845413D01*
X197599500Y-75947273D01*
X197599500Y-76052726D01*
X197626793Y-76154586D01*
X197626794Y-76154589D01*
X197674951Y-76238000D01*
X197691424Y-76305901D01*
X197674951Y-76362000D01*
X197626794Y-76445410D01*
X197626793Y-76445413D01*
X197599500Y-76547273D01*
X197599500Y-76652727D01*
X197626793Y-76754587D01*
X197679520Y-76845913D01*
X197754087Y-76920480D01*
X197845413Y-76973207D01*
X197907593Y-76989868D01*
X197967253Y-77026231D01*
X197997783Y-77089078D01*
X197999500Y-77109642D01*
X197999500Y-80224167D01*
X197979815Y-80291206D01*
X197963181Y-80311848D01*
X197629541Y-80645487D01*
X197629535Y-80645495D01*
X197589982Y-80714004D01*
X197589979Y-80714009D01*
X197569500Y-80790439D01*
X197569500Y-81451568D01*
X197567791Y-81457386D01*
X197568940Y-81463341D01*
X197558061Y-81490521D01*
X197549815Y-81518607D01*
X197545232Y-81522577D01*
X197542979Y-81528208D01*
X197519134Y-81545192D01*
X197497011Y-81564362D01*
X197491009Y-81565224D01*
X197486070Y-81568743D01*
X197456830Y-81570139D01*
X197427853Y-81574306D01*
X197420786Y-81571860D01*
X197416280Y-81572076D01*
X197383530Y-81558968D01*
X197383512Y-81558962D01*
X197374943Y-81554016D01*
X197374941Y-81554014D01*
X197374939Y-81554013D01*
X197374939Y-81554012D01*
X197374938Y-81554011D01*
X197374930Y-81554009D01*
X197315989Y-81519979D01*
X197239562Y-81499500D01*
X197239560Y-81499500D01*
X196875833Y-81499500D01*
X196846392Y-81490855D01*
X196816406Y-81484332D01*
X196811390Y-81480577D01*
X196808794Y-81479815D01*
X196788152Y-81463181D01*
X196634336Y-81309365D01*
X196602242Y-81253777D01*
X196600500Y-81247275D01*
X196600500Y-81247273D01*
X196573207Y-81145413D01*
X196520480Y-81054087D01*
X196445913Y-80979520D01*
X196363289Y-80931817D01*
X196354589Y-80926794D01*
X196354588Y-80926793D01*
X196354587Y-80926793D01*
X196252727Y-80899500D01*
X196147273Y-80899500D01*
X196045413Y-80926793D01*
X196045410Y-80926794D01*
X195954085Y-80979521D01*
X195879521Y-81054085D01*
X195826794Y-81145410D01*
X195826793Y-81145413D01*
X195799500Y-81247273D01*
X195799500Y-81352727D01*
X195826793Y-81454587D01*
X195879520Y-81545913D01*
X195954087Y-81620480D01*
X196045413Y-81673207D01*
X196147273Y-81700500D01*
X196147276Y-81700500D01*
X196153777Y-81702242D01*
X196209365Y-81734336D01*
X196515489Y-82040460D01*
X196574829Y-82074720D01*
X196583142Y-82079520D01*
X196584012Y-82080022D01*
X196660438Y-82100500D01*
X196739562Y-82100500D01*
X197024167Y-82100500D01*
X197053607Y-82109144D01*
X197083594Y-82115668D01*
X197088609Y-82119422D01*
X197091206Y-82120185D01*
X197111848Y-82136819D01*
X197133181Y-82158152D01*
X197166666Y-82219475D01*
X197169500Y-82245833D01*
X197169500Y-83155500D01*
X197149815Y-83222539D01*
X197097011Y-83268294D01*
X197045500Y-83279500D01*
X196355833Y-83279500D01*
X196288794Y-83259815D01*
X196268152Y-83243181D01*
X195536819Y-82511848D01*
X195503334Y-82450525D01*
X195500500Y-82424167D01*
X195500500Y-79960438D01*
X195491385Y-79926421D01*
X195480021Y-79884011D01*
X195475588Y-79876333D01*
X195440464Y-79815495D01*
X195440458Y-79815487D01*
X195384512Y-79759541D01*
X195384504Y-79759535D01*
X195315995Y-79719982D01*
X195315990Y-79719979D01*
X195290513Y-79713152D01*
X195239562Y-79699500D01*
X195239560Y-79699500D01*
X194916558Y-79699500D01*
X194884803Y-79690175D01*
X194852760Y-79681829D01*
X194851417Y-79680372D01*
X194849519Y-79679815D01*
X194827849Y-79654807D01*
X194805402Y-79630457D01*
X194805060Y-79628506D01*
X194803764Y-79627011D01*
X194799053Y-79594249D01*
X194793335Y-79561637D01*
X194794037Y-79559362D01*
X194793820Y-79557853D01*
X194800307Y-79534432D01*
X194799701Y-79534221D01*
X194799913Y-79533614D01*
X194800925Y-79532200D01*
X194802232Y-79527483D01*
X194802652Y-79526483D01*
X194805125Y-79523444D01*
X194806962Y-79517495D01*
X194807170Y-79517102D01*
X194809349Y-79518255D01*
X194822396Y-79502227D01*
X194840601Y-79476814D01*
X194844268Y-79475357D01*
X194846761Y-79472296D01*
X194876481Y-79462566D01*
X194905539Y-79451029D01*
X194912745Y-79450695D01*
X194913163Y-79450559D01*
X194913545Y-79450658D01*
X194916978Y-79450500D01*
X194952725Y-79450500D01*
X194952727Y-79450500D01*
X195054587Y-79423207D01*
X195145913Y-79370480D01*
X195220480Y-79295913D01*
X195273207Y-79204587D01*
X195300500Y-79102727D01*
X195300500Y-78997273D01*
X195273207Y-78895413D01*
X195220480Y-78804087D01*
X195145913Y-78729520D01*
X195054587Y-78676793D01*
X194952727Y-78649500D01*
X194916978Y-78649500D01*
X194849939Y-78629815D01*
X194808571Y-78582073D01*
X194807135Y-78582833D01*
X194802794Y-78574620D01*
X194802793Y-78574618D01*
X194722150Y-78465350D01*
X194612882Y-78384707D01*
X194612880Y-78384706D01*
X194484700Y-78339853D01*
X194454270Y-78337000D01*
X194454266Y-78337000D01*
X193445734Y-78337000D01*
X193445730Y-78337000D01*
X193415300Y-78339853D01*
X193415298Y-78339853D01*
X193287119Y-78384706D01*
X193287117Y-78384707D01*
X193177850Y-78465350D01*
X193097206Y-78574618D01*
X193092863Y-78582837D01*
X193089554Y-78581088D01*
X193059399Y-78623186D01*
X192994461Y-78648971D01*
X192983022Y-78649500D01*
X192972273Y-78649500D01*
X192870413Y-78676793D01*
X192870410Y-78676794D01*
X192821120Y-78705252D01*
X192779087Y-78729520D01*
X192779086Y-78729520D01*
X192773256Y-78732887D01*
X192757767Y-78737037D01*
X192746191Y-78744477D01*
X192711256Y-78749500D01*
X192650833Y-78749500D01*
X192583794Y-78729815D01*
X192563152Y-78713181D01*
X192356819Y-78506848D01*
X192323334Y-78445525D01*
X192320500Y-78419167D01*
X192320500Y-77788230D01*
X192317646Y-77757800D01*
X192317646Y-77757798D01*
X192272793Y-77629619D01*
X192272792Y-77629617D01*
X192192150Y-77520350D01*
X192082882Y-77439707D01*
X192082880Y-77439706D01*
X191954700Y-77394853D01*
X191924270Y-77392000D01*
X191924266Y-77392000D01*
X190915734Y-77392000D01*
X190915730Y-77392000D01*
X190885300Y-77394853D01*
X190885298Y-77394853D01*
X190757119Y-77439706D01*
X190757117Y-77439707D01*
X190647850Y-77520350D01*
X190565350Y-77632134D01*
X190509703Y-77674384D01*
X190491624Y-77679734D01*
X190478749Y-77682500D01*
X190455000Y-77682500D01*
X190455049Y-77687591D01*
X190412491Y-77696734D01*
X190411952Y-77696694D01*
X190386447Y-77699500D01*
X190347273Y-77699500D01*
X190245413Y-77726793D01*
X190245410Y-77726794D01*
X190154085Y-77779521D01*
X190079521Y-77854085D01*
X190026794Y-77945410D01*
X190026793Y-77945413D01*
X189999500Y-78047273D01*
X189999500Y-78152727D01*
X190026793Y-78254587D01*
X190079520Y-78345913D01*
X190154087Y-78420480D01*
X190245413Y-78473207D01*
X190347273Y-78500500D01*
X190347281Y-78500500D01*
X190355333Y-78501561D01*
X190354906Y-78504796D01*
X190407313Y-78520185D01*
X190453068Y-78572989D01*
X190464267Y-78623277D01*
X190464795Y-78676793D01*
X190473638Y-79574278D01*
X190454615Y-79641508D01*
X190402264Y-79687781D01*
X190349644Y-79699500D01*
X189775833Y-79699500D01*
X189708794Y-79679815D01*
X189688152Y-79663181D01*
X186225798Y-76200827D01*
X189453054Y-76200827D01*
X189453054Y-76306281D01*
X189480347Y-76408141D01*
X189533074Y-76499467D01*
X189607641Y-76574034D01*
X189698967Y-76626761D01*
X189800827Y-76654054D01*
X189800829Y-76654054D01*
X189906279Y-76654054D01*
X189906281Y-76654054D01*
X190008141Y-76626761D01*
X190099467Y-76574034D01*
X190174034Y-76499467D01*
X190226761Y-76408141D01*
X190254054Y-76306281D01*
X190254054Y-76200827D01*
X190226761Y-76098967D01*
X190174034Y-76007641D01*
X190099467Y-75933074D01*
X190008141Y-75880347D01*
X189906281Y-75853054D01*
X189800827Y-75853054D01*
X189698967Y-75880347D01*
X189698964Y-75880348D01*
X189607639Y-75933075D01*
X189533075Y-76007639D01*
X189480348Y-76098964D01*
X189480347Y-76098967D01*
X189453054Y-76200827D01*
X186225798Y-76200827D01*
X185484512Y-75459541D01*
X185484507Y-75459537D01*
X185457616Y-75444012D01*
X185441159Y-75434511D01*
X185441157Y-75434509D01*
X185441157Y-75434510D01*
X185441155Y-75434509D01*
X185435838Y-75431439D01*
X185415990Y-75419979D01*
X185415991Y-75419979D01*
X185377775Y-75409739D01*
X185339562Y-75399500D01*
X185339560Y-75399500D01*
X178075833Y-75399500D01*
X178008794Y-75379815D01*
X177988152Y-75363181D01*
X177086819Y-74461848D01*
X177053334Y-74400525D01*
X177050500Y-74374167D01*
X177050500Y-72347273D01*
X190199500Y-72347273D01*
X190199500Y-72452727D01*
X190226793Y-72554587D01*
X190279520Y-72645913D01*
X190354087Y-72720480D01*
X190445413Y-72773207D01*
X190547273Y-72800500D01*
X190547275Y-72800500D01*
X190652725Y-72800500D01*
X190652727Y-72800500D01*
X190754587Y-72773207D01*
X190845913Y-72720480D01*
X190920480Y-72645913D01*
X190973207Y-72554587D01*
X191000500Y-72452727D01*
X191000500Y-72347273D01*
X190973207Y-72245413D01*
X190920480Y-72154087D01*
X190845913Y-72079520D01*
X190754587Y-72026793D01*
X190652727Y-71999500D01*
X190547273Y-71999500D01*
X190445413Y-72026793D01*
X190445410Y-72026794D01*
X190354085Y-72079521D01*
X190279521Y-72154085D01*
X190226794Y-72245410D01*
X190226793Y-72245413D01*
X190199500Y-72347273D01*
X177050500Y-72347273D01*
X177050500Y-71947273D01*
X200799500Y-71947273D01*
X200799500Y-72052727D01*
X200826793Y-72154587D01*
X200879520Y-72245913D01*
X200954087Y-72320480D01*
X201045413Y-72373207D01*
X201147273Y-72400500D01*
X201147275Y-72400500D01*
X201252725Y-72400500D01*
X201252727Y-72400500D01*
X201354587Y-72373207D01*
X201445913Y-72320480D01*
X201520480Y-72245913D01*
X201573207Y-72154587D01*
X201600500Y-72052727D01*
X201600500Y-71947273D01*
X201573207Y-71845413D01*
X201520480Y-71754087D01*
X201445913Y-71679520D01*
X201354587Y-71626793D01*
X201252727Y-71599500D01*
X201147273Y-71599500D01*
X201045413Y-71626793D01*
X201045410Y-71626794D01*
X200954085Y-71679521D01*
X200879521Y-71754085D01*
X200826794Y-71845410D01*
X200826793Y-71845413D01*
X200799500Y-71947273D01*
X177050500Y-71947273D01*
X177050500Y-70947273D01*
X196399500Y-70947273D01*
X196399500Y-71052727D01*
X196426793Y-71154587D01*
X196479520Y-71245913D01*
X196554087Y-71320480D01*
X196645413Y-71373207D01*
X196747273Y-71400500D01*
X196747275Y-71400500D01*
X196852725Y-71400500D01*
X196852727Y-71400500D01*
X196954587Y-71373207D01*
X197045913Y-71320480D01*
X197120480Y-71245913D01*
X197173207Y-71154587D01*
X197200500Y-71052727D01*
X197200500Y-70947273D01*
X197173207Y-70845413D01*
X197120480Y-70754087D01*
X197045913Y-70679520D01*
X196954587Y-70626793D01*
X196852727Y-70599500D01*
X196747273Y-70599500D01*
X196645413Y-70626793D01*
X196645410Y-70626794D01*
X196554085Y-70679521D01*
X196479521Y-70754085D01*
X196426794Y-70845410D01*
X196426793Y-70845413D01*
X196399500Y-70947273D01*
X177050500Y-70947273D01*
X177050500Y-70512000D01*
X177070185Y-70444961D01*
X177122989Y-70399206D01*
X177141672Y-70392424D01*
X177157787Y-70388000D01*
X177169748Y-70388000D01*
X177228231Y-70376367D01*
X177247807Y-70363286D01*
X177267172Y-70357970D01*
X177282836Y-70358246D01*
X177297785Y-70353566D01*
X177317053Y-70358851D01*
X177337031Y-70359205D01*
X177350058Y-70367905D01*
X177365165Y-70372050D01*
X177368892Y-70374445D01*
X177371768Y-70376367D01*
X177371770Y-70376368D01*
X177430247Y-70387999D01*
X177430250Y-70388000D01*
X177430252Y-70388000D01*
X178269750Y-70388000D01*
X178269751Y-70387999D01*
X178284568Y-70385052D01*
X178328229Y-70376368D01*
X178328231Y-70376367D01*
X178331108Y-70374445D01*
X178338335Y-70372181D01*
X178339513Y-70371694D01*
X178339556Y-70371799D01*
X178397785Y-70353566D01*
X178465165Y-70372050D01*
X178468892Y-70374445D01*
X178471768Y-70376367D01*
X178471770Y-70376368D01*
X178530247Y-70387999D01*
X178530250Y-70388000D01*
X178530252Y-70388000D01*
X179369750Y-70388000D01*
X179369751Y-70387999D01*
X179384568Y-70385052D01*
X179428229Y-70376368D01*
X179428231Y-70376367D01*
X179431108Y-70374445D01*
X179438335Y-70372181D01*
X179439513Y-70371694D01*
X179439556Y-70371799D01*
X179497785Y-70353566D01*
X179565165Y-70372050D01*
X179568892Y-70374445D01*
X179571768Y-70376367D01*
X179571770Y-70376368D01*
X179630247Y-70387999D01*
X179630250Y-70388000D01*
X179630252Y-70388000D01*
X180469750Y-70388000D01*
X180469751Y-70387999D01*
X180484568Y-70385052D01*
X180528229Y-70376368D01*
X180528229Y-70376367D01*
X180528231Y-70376367D01*
X180594552Y-70332052D01*
X180638867Y-70265731D01*
X180638867Y-70265729D01*
X180638868Y-70265729D01*
X180650499Y-70207252D01*
X180650500Y-70207250D01*
X180650500Y-68560000D01*
X181554150Y-68560000D01*
X181556539Y-68573536D01*
X181556540Y-68573538D01*
X181557988Y-68577064D01*
X181557989Y-68577064D01*
X181561898Y-68586580D01*
X181563304Y-68592985D01*
X181574143Y-68630653D01*
X181593848Y-68664348D01*
X181597134Y-68672346D01*
X181599203Y-68677382D01*
X181599206Y-68677388D01*
X181621109Y-68711217D01*
X181624057Y-68716006D01*
X181632536Y-68730503D01*
X181649500Y-68793106D01*
X181649500Y-70207252D01*
X181661131Y-70265729D01*
X181661132Y-70265730D01*
X181705447Y-70332052D01*
X181771769Y-70376367D01*
X181771770Y-70376368D01*
X181830247Y-70387999D01*
X181830250Y-70388000D01*
X181830252Y-70388000D01*
X182669750Y-70388000D01*
X182669751Y-70387999D01*
X182684568Y-70385052D01*
X182728229Y-70376368D01*
X182728229Y-70376367D01*
X182728231Y-70376367D01*
X182794552Y-70332052D01*
X182838867Y-70265731D01*
X182838867Y-70265729D01*
X182838868Y-70265729D01*
X182850499Y-70207252D01*
X182850500Y-70207250D01*
X182850500Y-68799782D01*
X182868858Y-68737259D01*
X182868533Y-68737094D01*
X182869419Y-68735351D01*
X182870185Y-68732743D01*
X182872479Y-68729332D01*
X182872553Y-68729187D01*
X182923439Y-68629111D01*
X182943124Y-68562072D01*
X182943422Y-68560000D01*
X193090000Y-68560000D01*
X193091296Y-67345730D01*
X211174500Y-67345730D01*
X211174500Y-67979269D01*
X211177353Y-68009699D01*
X211177353Y-68009701D01*
X211222206Y-68137880D01*
X211222207Y-68137882D01*
X211302850Y-68247150D01*
X211412118Y-68327793D01*
X211445741Y-68339558D01*
X211540299Y-68372646D01*
X211570730Y-68375500D01*
X211570734Y-68375500D01*
X212579270Y-68375500D01*
X212609699Y-68372646D01*
X212609701Y-68372646D01*
X212678522Y-68348564D01*
X212737882Y-68327793D01*
X212847150Y-68247150D01*
X212927793Y-68137882D01*
X212960875Y-68043339D01*
X212972646Y-68009701D01*
X212972646Y-68009699D01*
X212975500Y-67979269D01*
X212975500Y-67345730D01*
X212972646Y-67315300D01*
X212972646Y-67315298D01*
X212927793Y-67187119D01*
X212927792Y-67187117D01*
X212847150Y-67077850D01*
X212737882Y-66997207D01*
X212737880Y-66997206D01*
X212609700Y-66952353D01*
X212579265Y-66949499D01*
X212578548Y-66949466D01*
X212578413Y-66949419D01*
X212576380Y-66949229D01*
X212576426Y-66948733D01*
X212512503Y-66926668D01*
X212469267Y-66871782D01*
X212462569Y-66802235D01*
X212464566Y-66793531D01*
X212475500Y-66752727D01*
X212475500Y-66647273D01*
X212448207Y-66545413D01*
X212395480Y-66454087D01*
X212320913Y-66379520D01*
X212229587Y-66326793D01*
X212127727Y-66299500D01*
X212022273Y-66299500D01*
X211920413Y-66326793D01*
X211920410Y-66326794D01*
X211829085Y-66379521D01*
X211754521Y-66454085D01*
X211701794Y-66545410D01*
X211701793Y-66545413D01*
X211674500Y-66647273D01*
X211674500Y-66752730D01*
X211685427Y-66793511D01*
X211683763Y-66863360D01*
X211644600Y-66921222D01*
X211580371Y-66948725D01*
X211571452Y-66949466D01*
X211570734Y-66949499D01*
X211540300Y-66952353D01*
X211540298Y-66952353D01*
X211412119Y-66997206D01*
X211412117Y-66997207D01*
X211302850Y-67077850D01*
X211222207Y-67187117D01*
X211222206Y-67187119D01*
X211177353Y-67315298D01*
X211177353Y-67315300D01*
X211174500Y-67345730D01*
X193091296Y-67345730D01*
X193098355Y-60730500D01*
X214905658Y-60730500D01*
X214972697Y-60750185D01*
G37*
%TD.AperFunction*%
%TD*%
%TA.AperFunction,Conductor*%
%TO.N,/RF_IN*%
G36*
X182746632Y-64873368D02*
G01*
X182750000Y-64881500D01*
X182750000Y-66605884D01*
X182749995Y-66606217D01*
X182743755Y-66821669D01*
X182743741Y-66822002D01*
X182729696Y-67064264D01*
X182729672Y-67064596D01*
X182715654Y-67225590D01*
X182715620Y-67225921D01*
X182650000Y-67790000D01*
X181850000Y-67790000D01*
X181850000Y-64881500D01*
X181853368Y-64873368D01*
X181861500Y-64870000D01*
X182738500Y-64870000D01*
X182746632Y-64873368D01*
G37*
%TD.AperFunction*%
%TD*%
%TA.AperFunction,Conductor*%
%TO.N,VBUS*%
G36*
X220832539Y-88819685D02*
G01*
X220878294Y-88872489D01*
X220889500Y-88924000D01*
X220889500Y-91576000D01*
X220869815Y-91643039D01*
X220817011Y-91688794D01*
X220765500Y-91700000D01*
X212365309Y-91700000D01*
X212298270Y-91680315D01*
X212252515Y-91627511D01*
X212241309Y-91576000D01*
X212241309Y-90824000D01*
X212260994Y-90756961D01*
X212313798Y-90711206D01*
X212365309Y-90700000D01*
X216700000Y-90700000D01*
X216700000Y-88924000D01*
X216719685Y-88856961D01*
X216772489Y-88811206D01*
X216824000Y-88800000D01*
X220765500Y-88800000D01*
X220832539Y-88819685D01*
G37*
%TD.AperFunction*%
%TD*%
%TA.AperFunction,Conductor*%
%TO.N,GND*%
G36*
X185943039Y-60750185D02*
G01*
X185988794Y-60802989D01*
X186000000Y-60854500D01*
X186000000Y-61721448D01*
X185980315Y-61788487D01*
X185927511Y-61834242D01*
X185876771Y-61845445D01*
X184761472Y-61852372D01*
X184480752Y-61854116D01*
X184479571Y-61854117D01*
X184471022Y-61854088D01*
X184468881Y-61853634D01*
X184390000Y-61853634D01*
X184390000Y-61853667D01*
X184338896Y-61853649D01*
X184338504Y-61853648D01*
X184234042Y-61853613D01*
X184234041Y-61853613D01*
X184234039Y-61853613D01*
X183923987Y-61887713D01*
X183923984Y-61887713D01*
X183923974Y-61887715D01*
X183619520Y-61955503D01*
X183619514Y-61955505D01*
X183324294Y-62056171D01*
X183041837Y-62188514D01*
X183041835Y-62188515D01*
X182775546Y-62350938D01*
X182775537Y-62350944D01*
X182528599Y-62541507D01*
X182303971Y-62757926D01*
X182104350Y-62997600D01*
X182104344Y-62997608D01*
X181932127Y-63257663D01*
X181932121Y-63257674D01*
X181789364Y-63535001D01*
X181677776Y-63826283D01*
X181677775Y-63826285D01*
X181598703Y-64128012D01*
X181553088Y-64436579D01*
X181553087Y-64436589D01*
X181541479Y-64748284D01*
X181548139Y-64839788D01*
X181546356Y-64871564D01*
X181544500Y-64881491D01*
X181544500Y-68332426D01*
X181544502Y-68332574D01*
X181544525Y-68339529D01*
X181544526Y-68339557D01*
X181544780Y-68343829D01*
X181544999Y-68351189D01*
X181544999Y-68476000D01*
X181545000Y-68476715D01*
X181545001Y-68477142D01*
X181545104Y-68478086D01*
X181548553Y-68521231D01*
X181548367Y-68521259D01*
X181548786Y-68524139D01*
X181549106Y-68528138D01*
X181548867Y-68529281D01*
X181549500Y-68538020D01*
X181549500Y-68560000D01*
X180750499Y-68560000D01*
X180750499Y-68342636D01*
X180750139Y-68339529D01*
X180747586Y-68317512D01*
X180747585Y-68317510D01*
X180747585Y-68317509D01*
X180702206Y-68214735D01*
X180622765Y-68135294D01*
X180519992Y-68089915D01*
X180494865Y-68087000D01*
X179605143Y-68087000D01*
X179605117Y-68087002D01*
X179580014Y-68089913D01*
X179580010Y-68089914D01*
X179550083Y-68103128D01*
X179480804Y-68112197D01*
X179449915Y-68103127D01*
X179419992Y-68089915D01*
X179394865Y-68087000D01*
X178505143Y-68087000D01*
X178505117Y-68087002D01*
X178480014Y-68089913D01*
X178480010Y-68089914D01*
X178450083Y-68103128D01*
X178380804Y-68112197D01*
X178349915Y-68103127D01*
X178319992Y-68089915D01*
X178294868Y-68087000D01*
X177990384Y-68087000D01*
X177998253Y-60730500D01*
X185876000Y-60730500D01*
X185943039Y-60750185D01*
G37*
%TD.AperFunction*%
%TA.AperFunction,Conductor*%
G36*
X193090000Y-68560000D02*
G01*
X182950499Y-68560000D01*
X182950499Y-68519650D01*
X182951761Y-68502002D01*
X182955500Y-68476000D01*
X182955500Y-67814897D01*
X182956331Y-67800569D01*
X183019074Y-67261222D01*
X183019521Y-67257137D01*
X183019555Y-67256806D01*
X183020002Y-67252090D01*
X183034020Y-67091096D01*
X183034377Y-67086623D01*
X183034401Y-67086291D01*
X183034684Y-67081945D01*
X183048729Y-66839683D01*
X183048971Y-66834835D01*
X183048979Y-66834629D01*
X183048985Y-66834514D01*
X183049044Y-66832827D01*
X183049127Y-66830513D01*
X183055367Y-66615061D01*
X183055461Y-66610804D01*
X183055466Y-66610471D01*
X183055500Y-66605884D01*
X183055500Y-64881500D01*
X183055427Y-64875152D01*
X183055578Y-64874058D01*
X183050167Y-64799381D01*
X183050138Y-64798914D01*
X183050169Y-64798774D01*
X183049889Y-64790785D01*
X183050332Y-64604140D01*
X183051757Y-64585691D01*
X183079263Y-64405815D01*
X183083412Y-64387806D01*
X183137386Y-64214010D01*
X183144177Y-64196802D01*
X183177448Y-64128012D01*
X183223404Y-64032994D01*
X183232675Y-64016994D01*
X183335406Y-63866790D01*
X183346954Y-63852349D01*
X183470899Y-63719101D01*
X183484460Y-63706547D01*
X183626852Y-63593228D01*
X183642141Y-63582824D01*
X183799808Y-63491962D01*
X183816466Y-63483953D01*
X183985913Y-63417560D01*
X184003575Y-63412122D01*
X184181003Y-63371688D01*
X184199284Y-63368937D01*
X184306445Y-63360919D01*
X184385824Y-63354980D01*
X184395076Y-63354634D01*
X184416423Y-63354634D01*
X184427865Y-63355163D01*
X184431498Y-63355499D01*
X184431500Y-63355500D01*
X184431502Y-63355500D01*
X184935966Y-63355500D01*
X184937254Y-63355487D01*
X184941911Y-63355442D01*
X184942373Y-63355433D01*
X184946108Y-63355321D01*
X184948678Y-63355245D01*
X184948690Y-63355244D01*
X184948707Y-63355244D01*
X185045325Y-63351356D01*
X185051522Y-63351043D01*
X185051553Y-63351041D01*
X185051615Y-63351038D01*
X185051951Y-63351017D01*
X185051984Y-63351015D01*
X185054012Y-63350871D01*
X185058014Y-63350590D01*
X185066136Y-63349935D01*
X185202726Y-63338924D01*
X185214850Y-63337703D01*
X185215768Y-63337592D01*
X185228031Y-63335856D01*
X185443767Y-63300847D01*
X185455952Y-63298616D01*
X185456858Y-63298431D01*
X185468749Y-63295754D01*
X185574295Y-63269777D01*
X185574328Y-63269769D01*
X185580462Y-63268191D01*
X185580464Y-63268190D01*
X185580493Y-63268183D01*
X185580940Y-63268063D01*
X185586604Y-63266484D01*
X185656133Y-63246376D01*
X185661706Y-63244706D01*
X185662148Y-63244569D01*
X185668309Y-63242588D01*
X185836790Y-63186427D01*
X185906611Y-63183903D01*
X185966716Y-63219528D01*
X185998020Y-63281993D01*
X186000000Y-63304065D01*
X186000000Y-64750000D01*
X190000000Y-64750000D01*
X190000000Y-60854500D01*
X190019685Y-60787461D01*
X190072489Y-60741706D01*
X190124000Y-60730500D01*
X193098375Y-60730500D01*
X193090000Y-68560000D01*
G37*
%TD.AperFunction*%
%TD*%
%TA.AperFunction,Conductor*%
%TO.N,/RF_IN*%
G36*
X185996581Y-62153575D02*
G01*
X186000000Y-62161686D01*
X186000000Y-62801711D01*
X185996632Y-62809843D01*
X185992137Y-62812621D01*
X185571702Y-62952765D01*
X185571260Y-62952902D01*
X185501731Y-62973010D01*
X185501284Y-62973130D01*
X185395738Y-62999107D01*
X185394832Y-62999292D01*
X185179096Y-63034301D01*
X185178178Y-63034412D01*
X185033503Y-63046075D01*
X185033041Y-63046103D01*
X184936423Y-63049991D01*
X184935961Y-63050000D01*
X184431500Y-63050000D01*
X184423368Y-63046632D01*
X184420000Y-63038500D01*
X184420000Y-62171429D01*
X184423368Y-62163297D01*
X184431428Y-62159929D01*
X185988431Y-62150258D01*
X185996581Y-62153575D01*
G37*
%TD.AperFunction*%
%TD*%
%TA.AperFunction,Conductor*%
%TO.N,/RF_IN*%
G36*
X182650000Y-68476000D02*
G01*
X182630315Y-68543039D01*
X182577511Y-68588794D01*
X182526000Y-68600000D01*
X181974499Y-68600000D01*
X181966019Y-68597509D01*
X181957275Y-68598798D01*
X181933010Y-68587817D01*
X181907460Y-68580315D01*
X181901672Y-68573636D01*
X181893620Y-68569992D01*
X181879142Y-68547635D01*
X181861705Y-68527511D01*
X181859447Y-68517220D01*
X181855643Y-68511345D01*
X181850681Y-68477255D01*
X181850500Y-68476427D01*
X181850499Y-68476000D01*
X181850499Y-68342636D01*
X181850024Y-68338548D01*
X181850001Y-68331593D01*
X181850020Y-68331524D01*
X181850000Y-68331166D01*
X181850000Y-67790000D01*
X182650000Y-67790000D01*
X182650000Y-68476000D01*
G37*
%TD.AperFunction*%
%TD*%
%TA.AperFunction,Conductor*%
%TO.N,GND*%
G36*
X159790242Y-85227924D02*
G01*
X159790242Y-85589065D01*
X159830674Y-85947909D01*
X159830676Y-85947921D01*
X159911035Y-86299999D01*
X159911036Y-86300001D01*
X160030310Y-86640868D01*
X160186997Y-86966232D01*
X160186999Y-86966235D01*
X160379133Y-87272014D01*
X160604295Y-87554359D01*
X160859654Y-87809718D01*
X161141999Y-88034880D01*
X161447778Y-88227014D01*
X161773146Y-88383703D01*
X162114013Y-88502977D01*
X162466091Y-88583337D01*
X162824948Y-88623770D01*
X162824949Y-88623771D01*
X162824952Y-88623771D01*
X163186087Y-88623771D01*
X163186087Y-88623770D01*
X163544945Y-88583337D01*
X163897023Y-88502977D01*
X164237890Y-88383703D01*
X164563258Y-88227014D01*
X164869037Y-88034880D01*
X165151382Y-87809718D01*
X165406741Y-87554359D01*
X165631903Y-87272014D01*
X165824037Y-86966235D01*
X165980726Y-86640867D01*
X166100000Y-86300000D01*
X166180360Y-85947922D01*
X166220794Y-85589061D01*
X166220794Y-85227929D01*
X166183845Y-84900000D01*
X175050000Y-84900000D01*
X175050000Y-84997416D01*
X175050000Y-100105500D01*
X175030315Y-100172539D01*
X174977511Y-100218294D01*
X174926000Y-100229500D01*
X151514500Y-100229500D01*
X151447461Y-100209815D01*
X151401706Y-100157011D01*
X151390500Y-100105500D01*
X151390500Y-95680247D01*
X153349500Y-95680247D01*
X153349500Y-97119752D01*
X153361131Y-97178229D01*
X153361132Y-97178230D01*
X153405447Y-97244552D01*
X153471769Y-97288867D01*
X153471770Y-97288868D01*
X153530247Y-97300499D01*
X153530250Y-97300500D01*
X153530252Y-97300500D01*
X154969750Y-97300500D01*
X154969751Y-97300499D01*
X154984568Y-97297552D01*
X155028229Y-97288868D01*
X155028229Y-97288867D01*
X155028231Y-97288867D01*
X155094552Y-97244552D01*
X155138867Y-97178231D01*
X155138867Y-97178229D01*
X155138868Y-97178229D01*
X155150499Y-97119752D01*
X155150500Y-97119750D01*
X155150500Y-96722080D01*
X155170185Y-96655041D01*
X155222989Y-96609286D01*
X155292147Y-96599342D01*
X155355703Y-96628367D01*
X155389061Y-96674628D01*
X155451983Y-96826541D01*
X155451990Y-96826553D01*
X155550535Y-96974034D01*
X155550538Y-96974038D01*
X155675961Y-97099461D01*
X155675965Y-97099464D01*
X155823446Y-97198009D01*
X155823459Y-97198016D01*
X155935809Y-97244552D01*
X155987334Y-97265894D01*
X155987336Y-97265894D01*
X155987341Y-97265896D01*
X156161304Y-97300499D01*
X156161307Y-97300500D01*
X156161309Y-97300500D01*
X156338693Y-97300500D01*
X156338694Y-97300499D01*
X156397174Y-97288867D01*
X156512658Y-97265896D01*
X156512661Y-97265894D01*
X156512666Y-97265894D01*
X156676547Y-97198013D01*
X156824035Y-97099464D01*
X156949464Y-96974035D01*
X157048013Y-96826547D01*
X157115894Y-96662666D01*
X157128383Y-96599882D01*
X157160768Y-96537971D01*
X157221483Y-96503397D01*
X157291253Y-96507136D01*
X157347925Y-96548003D01*
X157371617Y-96599882D01*
X157384103Y-96662658D01*
X157384106Y-96662667D01*
X157451983Y-96826540D01*
X157451990Y-96826553D01*
X157550535Y-96974034D01*
X157550538Y-96974038D01*
X157675961Y-97099461D01*
X157675965Y-97099464D01*
X157823446Y-97198009D01*
X157823459Y-97198016D01*
X157935809Y-97244552D01*
X157987334Y-97265894D01*
X157987336Y-97265894D01*
X157987341Y-97265896D01*
X158161304Y-97300499D01*
X158161307Y-97300500D01*
X158161309Y-97300500D01*
X158338693Y-97300500D01*
X158338694Y-97300499D01*
X158397174Y-97288867D01*
X158512658Y-97265896D01*
X158512661Y-97265894D01*
X158512666Y-97265894D01*
X158676547Y-97198013D01*
X158824035Y-97099464D01*
X158949464Y-96974035D01*
X159048013Y-96826547D01*
X159115894Y-96662666D01*
X159128383Y-96599882D01*
X159160768Y-96537971D01*
X159221483Y-96503397D01*
X159291253Y-96507136D01*
X159347925Y-96548003D01*
X159371617Y-96599882D01*
X159384103Y-96662658D01*
X159384106Y-96662667D01*
X159451983Y-96826540D01*
X159451990Y-96826553D01*
X159550535Y-96974034D01*
X159550538Y-96974038D01*
X159675961Y-97099461D01*
X159675965Y-97099464D01*
X159823446Y-97198009D01*
X159823459Y-97198016D01*
X159935809Y-97244552D01*
X159987334Y-97265894D01*
X159987336Y-97265894D01*
X159987341Y-97265896D01*
X160161304Y-97300499D01*
X160161307Y-97300500D01*
X160161309Y-97300500D01*
X160338693Y-97300500D01*
X160338694Y-97300499D01*
X160397174Y-97288867D01*
X160512658Y-97265896D01*
X160512661Y-97265894D01*
X160512666Y-97265894D01*
X160676547Y-97198013D01*
X160824035Y-97099464D01*
X160949464Y-96974035D01*
X161048013Y-96826547D01*
X161115894Y-96662666D01*
X161128383Y-96599882D01*
X161160768Y-96537971D01*
X161221483Y-96503397D01*
X161291253Y-96507136D01*
X161347925Y-96548003D01*
X161371617Y-96599882D01*
X161384103Y-96662658D01*
X161384106Y-96662667D01*
X161451983Y-96826540D01*
X161451990Y-96826553D01*
X161550535Y-96974034D01*
X161550538Y-96974038D01*
X161675961Y-97099461D01*
X161675965Y-97099464D01*
X161823446Y-97198009D01*
X161823459Y-97198016D01*
X161935809Y-97244552D01*
X161987334Y-97265894D01*
X161987336Y-97265894D01*
X161987341Y-97265896D01*
X162161304Y-97300499D01*
X162161307Y-97300500D01*
X162161309Y-97300500D01*
X162338693Y-97300500D01*
X162338694Y-97300499D01*
X162397174Y-97288867D01*
X162512658Y-97265896D01*
X162512661Y-97265894D01*
X162512666Y-97265894D01*
X162676547Y-97198013D01*
X162824035Y-97099464D01*
X162949464Y-96974035D01*
X163048013Y-96826547D01*
X163115894Y-96662666D01*
X163128383Y-96599882D01*
X163160768Y-96537971D01*
X163221483Y-96503397D01*
X163291253Y-96507136D01*
X163347925Y-96548003D01*
X163371617Y-96599882D01*
X163384103Y-96662658D01*
X163384106Y-96662667D01*
X163451983Y-96826540D01*
X163451990Y-96826553D01*
X163550535Y-96974034D01*
X163550538Y-96974038D01*
X163675961Y-97099461D01*
X163675965Y-97099464D01*
X163823446Y-97198009D01*
X163823459Y-97198016D01*
X163935809Y-97244552D01*
X163987334Y-97265894D01*
X163987336Y-97265894D01*
X163987341Y-97265896D01*
X164161304Y-97300499D01*
X164161307Y-97300500D01*
X164161309Y-97300500D01*
X164338693Y-97300500D01*
X164338694Y-97300499D01*
X164397174Y-97288867D01*
X164512658Y-97265896D01*
X164512661Y-97265894D01*
X164512666Y-97265894D01*
X164676547Y-97198013D01*
X164824035Y-97099464D01*
X164949464Y-96974035D01*
X165048013Y-96826547D01*
X165115894Y-96662666D01*
X165128383Y-96599882D01*
X165160768Y-96537971D01*
X165221483Y-96503397D01*
X165291253Y-96507136D01*
X165347925Y-96548003D01*
X165371617Y-96599882D01*
X165384103Y-96662658D01*
X165384106Y-96662667D01*
X165451983Y-96826540D01*
X165451990Y-96826553D01*
X165550535Y-96974034D01*
X165550538Y-96974038D01*
X165675961Y-97099461D01*
X165675965Y-97099464D01*
X165823446Y-97198009D01*
X165823459Y-97198016D01*
X165935809Y-97244552D01*
X165987334Y-97265894D01*
X165987336Y-97265894D01*
X165987341Y-97265896D01*
X166161304Y-97300499D01*
X166161307Y-97300500D01*
X166161309Y-97300500D01*
X166338693Y-97300500D01*
X166338694Y-97300499D01*
X166397174Y-97288867D01*
X166512658Y-97265896D01*
X166512661Y-97265894D01*
X166512666Y-97265894D01*
X166676547Y-97198013D01*
X166824035Y-97099464D01*
X166949464Y-96974035D01*
X167048013Y-96826547D01*
X167115894Y-96662666D01*
X167128383Y-96599882D01*
X167160768Y-96537971D01*
X167221483Y-96503397D01*
X167291253Y-96507136D01*
X167347925Y-96548003D01*
X167371617Y-96599882D01*
X167384103Y-96662658D01*
X167384106Y-96662667D01*
X167451983Y-96826540D01*
X167451990Y-96826553D01*
X167550535Y-96974034D01*
X167550538Y-96974038D01*
X167675961Y-97099461D01*
X167675965Y-97099464D01*
X167823446Y-97198009D01*
X167823459Y-97198016D01*
X167935809Y-97244552D01*
X167987334Y-97265894D01*
X167987336Y-97265894D01*
X167987341Y-97265896D01*
X168161304Y-97300499D01*
X168161307Y-97300500D01*
X168161309Y-97300500D01*
X168338693Y-97300500D01*
X168338694Y-97300499D01*
X168397174Y-97288867D01*
X168512658Y-97265896D01*
X168512661Y-97265894D01*
X168512666Y-97265894D01*
X168676547Y-97198013D01*
X168824035Y-97099464D01*
X168949464Y-96974035D01*
X169048013Y-96826547D01*
X169115894Y-96662666D01*
X169128383Y-96599882D01*
X169160768Y-96537971D01*
X169221483Y-96503397D01*
X169291253Y-96507136D01*
X169347925Y-96548003D01*
X169371617Y-96599882D01*
X169384103Y-96662658D01*
X169384106Y-96662667D01*
X169451983Y-96826540D01*
X169451990Y-96826553D01*
X169550535Y-96974034D01*
X169550538Y-96974038D01*
X169675961Y-97099461D01*
X169675965Y-97099464D01*
X169823446Y-97198009D01*
X169823459Y-97198016D01*
X169935809Y-97244552D01*
X169987334Y-97265894D01*
X169987336Y-97265894D01*
X169987341Y-97265896D01*
X170161304Y-97300499D01*
X170161307Y-97300500D01*
X170161309Y-97300500D01*
X170338693Y-97300500D01*
X170338694Y-97300499D01*
X170397174Y-97288867D01*
X170512658Y-97265896D01*
X170512661Y-97265894D01*
X170512666Y-97265894D01*
X170676547Y-97198013D01*
X170824035Y-97099464D01*
X170949464Y-96974035D01*
X171048013Y-96826547D01*
X171115894Y-96662666D01*
X171150500Y-96488691D01*
X171150500Y-96311309D01*
X171150500Y-96311306D01*
X171150499Y-96311304D01*
X171115896Y-96137341D01*
X171115893Y-96137332D01*
X171048016Y-95973459D01*
X171048009Y-95973446D01*
X170949464Y-95825965D01*
X170949461Y-95825961D01*
X170824038Y-95700538D01*
X170824034Y-95700535D01*
X170676553Y-95601990D01*
X170676540Y-95601983D01*
X170512667Y-95534106D01*
X170512658Y-95534103D01*
X170338694Y-95499500D01*
X170338691Y-95499500D01*
X170161309Y-95499500D01*
X170161306Y-95499500D01*
X169987341Y-95534103D01*
X169987332Y-95534106D01*
X169823459Y-95601983D01*
X169823446Y-95601990D01*
X169675965Y-95700535D01*
X169675961Y-95700538D01*
X169550538Y-95825961D01*
X169550535Y-95825965D01*
X169451990Y-95973446D01*
X169451983Y-95973459D01*
X169384106Y-96137332D01*
X169384104Y-96137340D01*
X169371617Y-96200118D01*
X169339232Y-96262028D01*
X169278516Y-96296603D01*
X169208747Y-96292863D01*
X169152075Y-96251996D01*
X169128383Y-96200118D01*
X169115895Y-96137340D01*
X169115894Y-96137334D01*
X169091284Y-96077919D01*
X169048016Y-95973459D01*
X169048009Y-95973446D01*
X168949464Y-95825965D01*
X168949461Y-95825961D01*
X168824038Y-95700538D01*
X168824034Y-95700535D01*
X168676553Y-95601990D01*
X168676540Y-95601983D01*
X168512667Y-95534106D01*
X168512658Y-95534103D01*
X168338694Y-95499500D01*
X168338691Y-95499500D01*
X168161309Y-95499500D01*
X168161306Y-95499500D01*
X167987341Y-95534103D01*
X167987332Y-95534106D01*
X167823459Y-95601983D01*
X167823446Y-95601990D01*
X167675965Y-95700535D01*
X167675961Y-95700538D01*
X167550538Y-95825961D01*
X167550535Y-95825965D01*
X167451990Y-95973446D01*
X167451983Y-95973459D01*
X167384106Y-96137332D01*
X167384104Y-96137340D01*
X167371617Y-96200118D01*
X167339232Y-96262028D01*
X167278516Y-96296603D01*
X167208747Y-96292863D01*
X167152075Y-96251996D01*
X167128383Y-96200118D01*
X167115895Y-96137340D01*
X167115894Y-96137334D01*
X167091284Y-96077919D01*
X167048016Y-95973459D01*
X167048009Y-95973446D01*
X166949464Y-95825965D01*
X166949461Y-95825961D01*
X166824038Y-95700538D01*
X166824034Y-95700535D01*
X166676553Y-95601990D01*
X166676540Y-95601983D01*
X166512667Y-95534106D01*
X166512658Y-95534103D01*
X166338694Y-95499500D01*
X166338691Y-95499500D01*
X166161309Y-95499500D01*
X166161306Y-95499500D01*
X165987341Y-95534103D01*
X165987332Y-95534106D01*
X165823459Y-95601983D01*
X165823446Y-95601990D01*
X165675965Y-95700535D01*
X165675961Y-95700538D01*
X165550538Y-95825961D01*
X165550535Y-95825965D01*
X165451990Y-95973446D01*
X165451983Y-95973459D01*
X165384106Y-96137332D01*
X165384104Y-96137340D01*
X165371617Y-96200118D01*
X165339232Y-96262028D01*
X165278516Y-96296603D01*
X165208747Y-96292863D01*
X165152075Y-96251996D01*
X165128383Y-96200118D01*
X165115895Y-96137340D01*
X165115894Y-96137334D01*
X165091284Y-96077919D01*
X165048016Y-95973459D01*
X165048009Y-95973446D01*
X164949464Y-95825965D01*
X164949461Y-95825961D01*
X164824038Y-95700538D01*
X164824034Y-95700535D01*
X164676553Y-95601990D01*
X164676540Y-95601983D01*
X164512667Y-95534106D01*
X164512658Y-95534103D01*
X164338694Y-95499500D01*
X164338691Y-95499500D01*
X164161309Y-95499500D01*
X164161306Y-95499500D01*
X163987341Y-95534103D01*
X163987332Y-95534106D01*
X163823459Y-95601983D01*
X163823446Y-95601990D01*
X163675965Y-95700535D01*
X163675961Y-95700538D01*
X163550538Y-95825961D01*
X163550535Y-95825965D01*
X163451990Y-95973446D01*
X163451983Y-95973459D01*
X163384106Y-96137332D01*
X163384104Y-96137340D01*
X163371617Y-96200118D01*
X163339232Y-96262028D01*
X163278516Y-96296603D01*
X163208747Y-96292863D01*
X163152075Y-96251996D01*
X163128383Y-96200118D01*
X163115895Y-96137340D01*
X163115894Y-96137334D01*
X163091284Y-96077919D01*
X163048016Y-95973459D01*
X163048009Y-95973446D01*
X162949464Y-95825965D01*
X162949461Y-95825961D01*
X162824038Y-95700538D01*
X162824034Y-95700535D01*
X162676553Y-95601990D01*
X162676540Y-95601983D01*
X162512667Y-95534106D01*
X162512658Y-95534103D01*
X162338694Y-95499500D01*
X162338691Y-95499500D01*
X162161309Y-95499500D01*
X162161306Y-95499500D01*
X161987341Y-95534103D01*
X161987332Y-95534106D01*
X161823459Y-95601983D01*
X161823446Y-95601990D01*
X161675965Y-95700535D01*
X161675961Y-95700538D01*
X161550538Y-95825961D01*
X161550535Y-95825965D01*
X161451990Y-95973446D01*
X161451983Y-95973459D01*
X161384106Y-96137332D01*
X161384104Y-96137340D01*
X161371617Y-96200118D01*
X161339232Y-96262028D01*
X161278516Y-96296603D01*
X161208747Y-96292863D01*
X161152075Y-96251996D01*
X161128383Y-96200118D01*
X161115895Y-96137340D01*
X161115894Y-96137334D01*
X161091284Y-96077919D01*
X161048016Y-95973459D01*
X161048009Y-95973446D01*
X160949464Y-95825965D01*
X160949461Y-95825961D01*
X160824038Y-95700538D01*
X160824034Y-95700535D01*
X160676553Y-95601990D01*
X160676540Y-95601983D01*
X160512667Y-95534106D01*
X160512658Y-95534103D01*
X160338694Y-95499500D01*
X160338691Y-95499500D01*
X160161309Y-95499500D01*
X160161306Y-95499500D01*
X159987341Y-95534103D01*
X159987332Y-95534106D01*
X159823459Y-95601983D01*
X159823446Y-95601990D01*
X159675965Y-95700535D01*
X159675961Y-95700538D01*
X159550538Y-95825961D01*
X159550535Y-95825965D01*
X159451990Y-95973446D01*
X159451983Y-95973459D01*
X159384106Y-96137332D01*
X159384104Y-96137340D01*
X159371617Y-96200118D01*
X159339232Y-96262028D01*
X159278516Y-96296603D01*
X159208747Y-96292863D01*
X159152075Y-96251996D01*
X159128383Y-96200118D01*
X159115895Y-96137340D01*
X159115894Y-96137334D01*
X159091284Y-96077919D01*
X159048016Y-95973459D01*
X159048009Y-95973446D01*
X158949464Y-95825965D01*
X158949461Y-95825961D01*
X158824038Y-95700538D01*
X158824034Y-95700535D01*
X158676553Y-95601990D01*
X158676540Y-95601983D01*
X158512667Y-95534106D01*
X158512658Y-95534103D01*
X158338694Y-95499500D01*
X158338691Y-95499500D01*
X158161309Y-95499500D01*
X158161306Y-95499500D01*
X157987341Y-95534103D01*
X157987332Y-95534106D01*
X157823459Y-95601983D01*
X157823446Y-95601990D01*
X157675965Y-95700535D01*
X157675961Y-95700538D01*
X157550538Y-95825961D01*
X157550535Y-95825965D01*
X157451990Y-95973446D01*
X157451983Y-95973459D01*
X157384106Y-96137332D01*
X157384104Y-96137340D01*
X157371617Y-96200118D01*
X157339232Y-96262028D01*
X157278516Y-96296603D01*
X157208747Y-96292863D01*
X157152075Y-96251996D01*
X157128383Y-96200118D01*
X157115895Y-96137340D01*
X157115894Y-96137334D01*
X157091284Y-96077919D01*
X157048016Y-95973459D01*
X157048009Y-95973446D01*
X156949464Y-95825965D01*
X156949461Y-95825961D01*
X156824038Y-95700538D01*
X156824034Y-95700535D01*
X156676553Y-95601990D01*
X156676540Y-95601983D01*
X156512667Y-95534106D01*
X156512658Y-95534103D01*
X156338694Y-95499500D01*
X156338691Y-95499500D01*
X156161309Y-95499500D01*
X156161306Y-95499500D01*
X155987341Y-95534103D01*
X155987332Y-95534106D01*
X155823459Y-95601983D01*
X155823446Y-95601990D01*
X155675965Y-95700535D01*
X155675961Y-95700538D01*
X155550538Y-95825961D01*
X155550535Y-95825965D01*
X155451990Y-95973446D01*
X155451983Y-95973459D01*
X155389061Y-96125371D01*
X155345221Y-96179775D01*
X155278927Y-96201840D01*
X155211227Y-96184561D01*
X155163616Y-96133424D01*
X155150500Y-96077919D01*
X155150500Y-95680249D01*
X155150499Y-95680247D01*
X155138868Y-95621770D01*
X155138867Y-95621769D01*
X155094552Y-95555447D01*
X155028230Y-95511132D01*
X155028229Y-95511131D01*
X154969752Y-95499500D01*
X154969748Y-95499500D01*
X153530252Y-95499500D01*
X153530247Y-95499500D01*
X153471770Y-95511131D01*
X153471769Y-95511132D01*
X153405447Y-95555447D01*
X153361132Y-95621769D01*
X153361131Y-95621770D01*
X153349500Y-95680247D01*
X151390500Y-95680247D01*
X151390500Y-84900000D01*
X159827190Y-84900000D01*
X159790242Y-85227924D01*
G37*
%TD.AperFunction*%
%TD*%
%TA.AperFunction,Conductor*%
%TO.N,+3V3*%
G36*
X214020617Y-85679041D02*
G01*
X214076084Y-85721529D01*
X214099774Y-85787260D01*
X214100000Y-85794736D01*
X214100000Y-90276000D01*
X214080315Y-90343039D01*
X214027511Y-90388794D01*
X213976000Y-90400000D01*
X212199999Y-90400000D01*
X212036319Y-90563681D01*
X211974996Y-90597166D01*
X211948638Y-90600000D01*
X210924000Y-90600000D01*
X210856961Y-90580315D01*
X210811206Y-90527511D01*
X210800000Y-90476000D01*
X210800000Y-88779881D01*
X210819685Y-88712842D01*
X210837291Y-88691238D01*
X213889296Y-85706088D01*
X213950985Y-85673285D01*
X214020617Y-85679041D01*
G37*
%TD.AperFunction*%
%TD*%
M02*
