%TF.GenerationSoftware,KiCad,Pcbnew,9.0.6*%
%TF.CreationDate,2026-02-11T12:54:48-03:00*%
%TF.ProjectId,flight_comp_srad-2026,666c6967-6874-45f6-936f-6d705f737261,rev?*%
%TF.SameCoordinates,Original*%
%TF.FileFunction,Legend,Bot*%
%TF.FilePolarity,Positive*%
%FSLAX46Y46*%
G04 Gerber Fmt 4.6, Leading zero omitted, Abs format (unit mm)*
G04 Created by KiCad (PCBNEW 9.0.6) date 2026-02-11 12:54:48*
%MOMM*%
%LPD*%
G01*
G04 APERTURE LIST*
%ADD10C,0.175000*%
%ADD11C,0.150000*%
%ADD12C,0.120000*%
%ADD13C,0.127000*%
%ADD14C,0.200000*%
G04 APERTURE END LIST*
D10*
X210251535Y-63205233D02*
X209918202Y-63205233D01*
X210318202Y-63405233D02*
X210084869Y-62705233D01*
X210084869Y-62705233D02*
X209851535Y-63405233D01*
X209618202Y-63405233D02*
X209618202Y-62705233D01*
X209618202Y-62705233D02*
X209451535Y-62705233D01*
X209451535Y-62705233D02*
X209351535Y-62738566D01*
X209351535Y-62738566D02*
X209284869Y-62805233D01*
X209284869Y-62805233D02*
X209251535Y-62871900D01*
X209251535Y-62871900D02*
X209218202Y-63005233D01*
X209218202Y-63005233D02*
X209218202Y-63105233D01*
X209218202Y-63105233D02*
X209251535Y-63238566D01*
X209251535Y-63238566D02*
X209284869Y-63305233D01*
X209284869Y-63305233D02*
X209351535Y-63371900D01*
X209351535Y-63371900D02*
X209451535Y-63405233D01*
X209451535Y-63405233D02*
X209618202Y-63405233D01*
X208984869Y-62705233D02*
X208518202Y-63405233D01*
X208518202Y-62705233D02*
X208984869Y-63405233D01*
X207918202Y-63405233D02*
X208251535Y-63405233D01*
X208251535Y-63405233D02*
X208251535Y-62705233D01*
X207184868Y-63205233D02*
X206851535Y-63205233D01*
X207251535Y-63405233D02*
X207018202Y-62705233D01*
X207018202Y-62705233D02*
X206784868Y-63405233D01*
X206151535Y-63338566D02*
X206184868Y-63371900D01*
X206184868Y-63371900D02*
X206284868Y-63405233D01*
X206284868Y-63405233D02*
X206351535Y-63405233D01*
X206351535Y-63405233D02*
X206451535Y-63371900D01*
X206451535Y-63371900D02*
X206518202Y-63305233D01*
X206518202Y-63305233D02*
X206551535Y-63238566D01*
X206551535Y-63238566D02*
X206584868Y-63105233D01*
X206584868Y-63105233D02*
X206584868Y-63005233D01*
X206584868Y-63005233D02*
X206551535Y-62871900D01*
X206551535Y-62871900D02*
X206518202Y-62805233D01*
X206518202Y-62805233D02*
X206451535Y-62738566D01*
X206451535Y-62738566D02*
X206351535Y-62705233D01*
X206351535Y-62705233D02*
X206284868Y-62705233D01*
X206284868Y-62705233D02*
X206184868Y-62738566D01*
X206184868Y-62738566D02*
X206151535Y-62771900D01*
X205451535Y-63338566D02*
X205484868Y-63371900D01*
X205484868Y-63371900D02*
X205584868Y-63405233D01*
X205584868Y-63405233D02*
X205651535Y-63405233D01*
X205651535Y-63405233D02*
X205751535Y-63371900D01*
X205751535Y-63371900D02*
X205818202Y-63305233D01*
X205818202Y-63305233D02*
X205851535Y-63238566D01*
X205851535Y-63238566D02*
X205884868Y-63105233D01*
X205884868Y-63105233D02*
X205884868Y-63005233D01*
X205884868Y-63005233D02*
X205851535Y-62871900D01*
X205851535Y-62871900D02*
X205818202Y-62805233D01*
X205818202Y-62805233D02*
X205751535Y-62738566D01*
X205751535Y-62738566D02*
X205651535Y-62705233D01*
X205651535Y-62705233D02*
X205584868Y-62705233D01*
X205584868Y-62705233D02*
X205484868Y-62738566D01*
X205484868Y-62738566D02*
X205451535Y-62771900D01*
X204818202Y-63405233D02*
X205151535Y-63405233D01*
X205151535Y-63405233D02*
X205151535Y-62705233D01*
X204584868Y-63338566D02*
X204551535Y-63371900D01*
X204551535Y-63371900D02*
X204584868Y-63405233D01*
X204584868Y-63405233D02*
X204618201Y-63371900D01*
X204618201Y-63371900D02*
X204584868Y-63338566D01*
X204584868Y-63338566D02*
X204584868Y-63405233D01*
X206821727Y-76618202D02*
X207521727Y-76618202D01*
X207521727Y-76618202D02*
X207021727Y-76384869D01*
X207021727Y-76384869D02*
X207521727Y-76151535D01*
X207521727Y-76151535D02*
X206821727Y-76151535D01*
X206855061Y-75851535D02*
X206821727Y-75751535D01*
X206821727Y-75751535D02*
X206821727Y-75584869D01*
X206821727Y-75584869D02*
X206855061Y-75518202D01*
X206855061Y-75518202D02*
X206888394Y-75484869D01*
X206888394Y-75484869D02*
X206955061Y-75451535D01*
X206955061Y-75451535D02*
X207021727Y-75451535D01*
X207021727Y-75451535D02*
X207088394Y-75484869D01*
X207088394Y-75484869D02*
X207121727Y-75518202D01*
X207121727Y-75518202D02*
X207155061Y-75584869D01*
X207155061Y-75584869D02*
X207188394Y-75718202D01*
X207188394Y-75718202D02*
X207221727Y-75784869D01*
X207221727Y-75784869D02*
X207255061Y-75818202D01*
X207255061Y-75818202D02*
X207321727Y-75851535D01*
X207321727Y-75851535D02*
X207388394Y-75851535D01*
X207388394Y-75851535D02*
X207455061Y-75818202D01*
X207455061Y-75818202D02*
X207488394Y-75784869D01*
X207488394Y-75784869D02*
X207521727Y-75718202D01*
X207521727Y-75718202D02*
X207521727Y-75551535D01*
X207521727Y-75551535D02*
X207488394Y-75451535D01*
X207521727Y-74818202D02*
X207521727Y-75151535D01*
X207521727Y-75151535D02*
X207188394Y-75184868D01*
X207188394Y-75184868D02*
X207221727Y-75151535D01*
X207221727Y-75151535D02*
X207255061Y-75084868D01*
X207255061Y-75084868D02*
X207255061Y-74918202D01*
X207255061Y-74918202D02*
X207221727Y-74851535D01*
X207221727Y-74851535D02*
X207188394Y-74818202D01*
X207188394Y-74818202D02*
X207121727Y-74784868D01*
X207121727Y-74784868D02*
X206955061Y-74784868D01*
X206955061Y-74784868D02*
X206888394Y-74818202D01*
X206888394Y-74818202D02*
X206855061Y-74851535D01*
X206855061Y-74851535D02*
X206821727Y-74918202D01*
X206821727Y-74918202D02*
X206821727Y-75084868D01*
X206821727Y-75084868D02*
X206855061Y-75151535D01*
X206855061Y-75151535D02*
X206888394Y-75184868D01*
X207521727Y-74184868D02*
X207521727Y-74318201D01*
X207521727Y-74318201D02*
X207488394Y-74384868D01*
X207488394Y-74384868D02*
X207455061Y-74418201D01*
X207455061Y-74418201D02*
X207355061Y-74484868D01*
X207355061Y-74484868D02*
X207221727Y-74518201D01*
X207221727Y-74518201D02*
X206955061Y-74518201D01*
X206955061Y-74518201D02*
X206888394Y-74484868D01*
X206888394Y-74484868D02*
X206855061Y-74451535D01*
X206855061Y-74451535D02*
X206821727Y-74384868D01*
X206821727Y-74384868D02*
X206821727Y-74251535D01*
X206821727Y-74251535D02*
X206855061Y-74184868D01*
X206855061Y-74184868D02*
X206888394Y-74151535D01*
X206888394Y-74151535D02*
X206955061Y-74118201D01*
X206955061Y-74118201D02*
X207121727Y-74118201D01*
X207121727Y-74118201D02*
X207188394Y-74151535D01*
X207188394Y-74151535D02*
X207221727Y-74184868D01*
X207221727Y-74184868D02*
X207255061Y-74251535D01*
X207255061Y-74251535D02*
X207255061Y-74384868D01*
X207255061Y-74384868D02*
X207221727Y-74451535D01*
X207221727Y-74451535D02*
X207188394Y-74484868D01*
X207188394Y-74484868D02*
X207121727Y-74518201D01*
X206821727Y-73451534D02*
X206821727Y-73851534D01*
X206821727Y-73651534D02*
X207521727Y-73651534D01*
X207521727Y-73651534D02*
X207421727Y-73718201D01*
X207421727Y-73718201D02*
X207355061Y-73784868D01*
X207355061Y-73784868D02*
X207321727Y-73851534D01*
X206821727Y-72784867D02*
X206821727Y-73184867D01*
X206821727Y-72984867D02*
X207521727Y-72984867D01*
X207521727Y-72984867D02*
X207421727Y-73051534D01*
X207421727Y-73051534D02*
X207355061Y-73118201D01*
X207355061Y-73118201D02*
X207321727Y-73184867D01*
X206061433Y-76384869D02*
X206028100Y-76284869D01*
X206028100Y-76284869D02*
X205994766Y-76251535D01*
X205994766Y-76251535D02*
X205928100Y-76218202D01*
X205928100Y-76218202D02*
X205828100Y-76218202D01*
X205828100Y-76218202D02*
X205761433Y-76251535D01*
X205761433Y-76251535D02*
X205728100Y-76284869D01*
X205728100Y-76284869D02*
X205694766Y-76351535D01*
X205694766Y-76351535D02*
X205694766Y-76618202D01*
X205694766Y-76618202D02*
X206394766Y-76618202D01*
X206394766Y-76618202D02*
X206394766Y-76384869D01*
X206394766Y-76384869D02*
X206361433Y-76318202D01*
X206361433Y-76318202D02*
X206328100Y-76284869D01*
X206328100Y-76284869D02*
X206261433Y-76251535D01*
X206261433Y-76251535D02*
X206194766Y-76251535D01*
X206194766Y-76251535D02*
X206128100Y-76284869D01*
X206128100Y-76284869D02*
X206094766Y-76318202D01*
X206094766Y-76318202D02*
X206061433Y-76384869D01*
X206061433Y-76384869D02*
X206061433Y-76618202D01*
X205894766Y-75951535D02*
X205894766Y-75618202D01*
X205694766Y-76018202D02*
X206394766Y-75784869D01*
X206394766Y-75784869D02*
X205694766Y-75551535D01*
X205694766Y-74918202D02*
X206028100Y-75151535D01*
X205694766Y-75318202D02*
X206394766Y-75318202D01*
X206394766Y-75318202D02*
X206394766Y-75051535D01*
X206394766Y-75051535D02*
X206361433Y-74984869D01*
X206361433Y-74984869D02*
X206328100Y-74951535D01*
X206328100Y-74951535D02*
X206261433Y-74918202D01*
X206261433Y-74918202D02*
X206161433Y-74918202D01*
X206161433Y-74918202D02*
X206094766Y-74951535D01*
X206094766Y-74951535D02*
X206061433Y-74984869D01*
X206061433Y-74984869D02*
X206028100Y-75051535D01*
X206028100Y-75051535D02*
X206028100Y-75318202D01*
X206394766Y-74484869D02*
X206394766Y-74351535D01*
X206394766Y-74351535D02*
X206361433Y-74284869D01*
X206361433Y-74284869D02*
X206294766Y-74218202D01*
X206294766Y-74218202D02*
X206161433Y-74184869D01*
X206161433Y-74184869D02*
X205928100Y-74184869D01*
X205928100Y-74184869D02*
X205794766Y-74218202D01*
X205794766Y-74218202D02*
X205728100Y-74284869D01*
X205728100Y-74284869D02*
X205694766Y-74351535D01*
X205694766Y-74351535D02*
X205694766Y-74484869D01*
X205694766Y-74484869D02*
X205728100Y-74551535D01*
X205728100Y-74551535D02*
X205794766Y-74618202D01*
X205794766Y-74618202D02*
X205928100Y-74651535D01*
X205928100Y-74651535D02*
X206161433Y-74651535D01*
X206161433Y-74651535D02*
X206294766Y-74618202D01*
X206294766Y-74618202D02*
X206361433Y-74551535D01*
X206361433Y-74551535D02*
X206394766Y-74484869D01*
X205694766Y-73884869D02*
X206394766Y-73884869D01*
X206394766Y-73884869D02*
X205894766Y-73651536D01*
X205894766Y-73651536D02*
X206394766Y-73418202D01*
X206394766Y-73418202D02*
X205694766Y-73418202D01*
X205761433Y-73084869D02*
X205728100Y-73051536D01*
X205728100Y-73051536D02*
X205694766Y-73084869D01*
X205694766Y-73084869D02*
X205728100Y-73118202D01*
X205728100Y-73118202D02*
X205761433Y-73084869D01*
X205761433Y-73084869D02*
X205694766Y-73084869D01*
X192918202Y-70278272D02*
X192918202Y-69578272D01*
X192584869Y-70278272D02*
X192584869Y-69578272D01*
X192251536Y-70278272D02*
X192251536Y-69578272D01*
X192251536Y-69578272D02*
X192018203Y-70078272D01*
X192018203Y-70078272D02*
X191784869Y-69578272D01*
X191784869Y-69578272D02*
X191784869Y-70278272D01*
X191451536Y-70011605D02*
X190918203Y-70011605D01*
X190618202Y-69644939D02*
X190584869Y-69611605D01*
X190584869Y-69611605D02*
X190518202Y-69578272D01*
X190518202Y-69578272D02*
X190351536Y-69578272D01*
X190351536Y-69578272D02*
X190284869Y-69611605D01*
X190284869Y-69611605D02*
X190251536Y-69644939D01*
X190251536Y-69644939D02*
X190218202Y-69711605D01*
X190218202Y-69711605D02*
X190218202Y-69778272D01*
X190218202Y-69778272D02*
X190251536Y-69878272D01*
X190251536Y-69878272D02*
X190651536Y-70278272D01*
X190651536Y-70278272D02*
X190218202Y-70278272D01*
X189784869Y-69578272D02*
X189718202Y-69578272D01*
X189718202Y-69578272D02*
X189651535Y-69611605D01*
X189651535Y-69611605D02*
X189618202Y-69644939D01*
X189618202Y-69644939D02*
X189584869Y-69711605D01*
X189584869Y-69711605D02*
X189551535Y-69844939D01*
X189551535Y-69844939D02*
X189551535Y-70011605D01*
X189551535Y-70011605D02*
X189584869Y-70144939D01*
X189584869Y-70144939D02*
X189618202Y-70211605D01*
X189618202Y-70211605D02*
X189651535Y-70244939D01*
X189651535Y-70244939D02*
X189718202Y-70278272D01*
X189718202Y-70278272D02*
X189784869Y-70278272D01*
X189784869Y-70278272D02*
X189851535Y-70244939D01*
X189851535Y-70244939D02*
X189884869Y-70211605D01*
X189884869Y-70211605D02*
X189918202Y-70144939D01*
X189918202Y-70144939D02*
X189951535Y-70011605D01*
X189951535Y-70011605D02*
X189951535Y-69844939D01*
X189951535Y-69844939D02*
X189918202Y-69711605D01*
X189918202Y-69711605D02*
X189884869Y-69644939D01*
X189884869Y-69644939D02*
X189851535Y-69611605D01*
X189851535Y-69611605D02*
X189784869Y-69578272D01*
X188951535Y-69578272D02*
X189084868Y-69578272D01*
X189084868Y-69578272D02*
X189151535Y-69611605D01*
X189151535Y-69611605D02*
X189184868Y-69644939D01*
X189184868Y-69644939D02*
X189251535Y-69744939D01*
X189251535Y-69744939D02*
X189284868Y-69878272D01*
X189284868Y-69878272D02*
X189284868Y-70144939D01*
X189284868Y-70144939D02*
X189251535Y-70211605D01*
X189251535Y-70211605D02*
X189218202Y-70244939D01*
X189218202Y-70244939D02*
X189151535Y-70278272D01*
X189151535Y-70278272D02*
X189018202Y-70278272D01*
X189018202Y-70278272D02*
X188951535Y-70244939D01*
X188951535Y-70244939D02*
X188918202Y-70211605D01*
X188918202Y-70211605D02*
X188884868Y-70144939D01*
X188884868Y-70144939D02*
X188884868Y-69978272D01*
X188884868Y-69978272D02*
X188918202Y-69911605D01*
X188918202Y-69911605D02*
X188951535Y-69878272D01*
X188951535Y-69878272D02*
X189018202Y-69844939D01*
X189018202Y-69844939D02*
X189151535Y-69844939D01*
X189151535Y-69844939D02*
X189218202Y-69878272D01*
X189218202Y-69878272D02*
X189251535Y-69911605D01*
X189251535Y-69911605D02*
X189284868Y-69978272D01*
X188651535Y-69578272D02*
X188184868Y-69578272D01*
X188184868Y-69578272D02*
X188484868Y-70278272D01*
X187784868Y-69578272D02*
X187718201Y-69578272D01*
X187718201Y-69578272D02*
X187651534Y-69611605D01*
X187651534Y-69611605D02*
X187618201Y-69644939D01*
X187618201Y-69644939D02*
X187584868Y-69711605D01*
X187584868Y-69711605D02*
X187551534Y-69844939D01*
X187551534Y-69844939D02*
X187551534Y-70011605D01*
X187551534Y-70011605D02*
X187584868Y-70144939D01*
X187584868Y-70144939D02*
X187618201Y-70211605D01*
X187618201Y-70211605D02*
X187651534Y-70244939D01*
X187651534Y-70244939D02*
X187718201Y-70278272D01*
X187718201Y-70278272D02*
X187784868Y-70278272D01*
X187784868Y-70278272D02*
X187851534Y-70244939D01*
X187851534Y-70244939D02*
X187884868Y-70211605D01*
X187884868Y-70211605D02*
X187918201Y-70144939D01*
X187918201Y-70144939D02*
X187951534Y-70011605D01*
X187951534Y-70011605D02*
X187951534Y-69844939D01*
X187951534Y-69844939D02*
X187918201Y-69711605D01*
X187918201Y-69711605D02*
X187884868Y-69644939D01*
X187884868Y-69644939D02*
X187851534Y-69611605D01*
X187851534Y-69611605D02*
X187784868Y-69578272D01*
X192951535Y-71205233D02*
X192618202Y-71205233D01*
X193018202Y-71405233D02*
X192784869Y-70705233D01*
X192784869Y-70705233D02*
X192551535Y-71405233D01*
X191918202Y-71338566D02*
X191951535Y-71371900D01*
X191951535Y-71371900D02*
X192051535Y-71405233D01*
X192051535Y-71405233D02*
X192118202Y-71405233D01*
X192118202Y-71405233D02*
X192218202Y-71371900D01*
X192218202Y-71371900D02*
X192284869Y-71305233D01*
X192284869Y-71305233D02*
X192318202Y-71238566D01*
X192318202Y-71238566D02*
X192351535Y-71105233D01*
X192351535Y-71105233D02*
X192351535Y-71005233D01*
X192351535Y-71005233D02*
X192318202Y-70871900D01*
X192318202Y-70871900D02*
X192284869Y-70805233D01*
X192284869Y-70805233D02*
X192218202Y-70738566D01*
X192218202Y-70738566D02*
X192118202Y-70705233D01*
X192118202Y-70705233D02*
X192051535Y-70705233D01*
X192051535Y-70705233D02*
X191951535Y-70738566D01*
X191951535Y-70738566D02*
X191918202Y-70771900D01*
X191218202Y-71338566D02*
X191251535Y-71371900D01*
X191251535Y-71371900D02*
X191351535Y-71405233D01*
X191351535Y-71405233D02*
X191418202Y-71405233D01*
X191418202Y-71405233D02*
X191518202Y-71371900D01*
X191518202Y-71371900D02*
X191584869Y-71305233D01*
X191584869Y-71305233D02*
X191618202Y-71238566D01*
X191618202Y-71238566D02*
X191651535Y-71105233D01*
X191651535Y-71105233D02*
X191651535Y-71005233D01*
X191651535Y-71005233D02*
X191618202Y-70871900D01*
X191618202Y-70871900D02*
X191584869Y-70805233D01*
X191584869Y-70805233D02*
X191518202Y-70738566D01*
X191518202Y-70738566D02*
X191418202Y-70705233D01*
X191418202Y-70705233D02*
X191351535Y-70705233D01*
X191351535Y-70705233D02*
X191251535Y-70738566D01*
X191251535Y-70738566D02*
X191218202Y-70771900D01*
X190584869Y-71405233D02*
X190918202Y-71405233D01*
X190918202Y-71405233D02*
X190918202Y-70705233D01*
X189251535Y-71405233D02*
X189284869Y-71405233D01*
X189284869Y-71405233D02*
X189351535Y-71371900D01*
X189351535Y-71371900D02*
X189451535Y-71271900D01*
X189451535Y-71271900D02*
X189618202Y-71071900D01*
X189618202Y-71071900D02*
X189684869Y-70971900D01*
X189684869Y-70971900D02*
X189718202Y-70871900D01*
X189718202Y-70871900D02*
X189718202Y-70805233D01*
X189718202Y-70805233D02*
X189684869Y-70738566D01*
X189684869Y-70738566D02*
X189618202Y-70705233D01*
X189618202Y-70705233D02*
X189584869Y-70705233D01*
X189584869Y-70705233D02*
X189518202Y-70738566D01*
X189518202Y-70738566D02*
X189484869Y-70805233D01*
X189484869Y-70805233D02*
X189484869Y-70838566D01*
X189484869Y-70838566D02*
X189518202Y-70905233D01*
X189518202Y-70905233D02*
X189551535Y-70938566D01*
X189551535Y-70938566D02*
X189751535Y-71071900D01*
X189751535Y-71071900D02*
X189784869Y-71105233D01*
X189784869Y-71105233D02*
X189818202Y-71171900D01*
X189818202Y-71171900D02*
X189818202Y-71271900D01*
X189818202Y-71271900D02*
X189784869Y-71338566D01*
X189784869Y-71338566D02*
X189751535Y-71371900D01*
X189751535Y-71371900D02*
X189684869Y-71405233D01*
X189684869Y-71405233D02*
X189584869Y-71405233D01*
X189584869Y-71405233D02*
X189518202Y-71371900D01*
X189518202Y-71371900D02*
X189484869Y-71338566D01*
X189484869Y-71338566D02*
X189384869Y-71205233D01*
X189384869Y-71205233D02*
X189351535Y-71105233D01*
X189351535Y-71105233D02*
X189351535Y-71038566D01*
X188051535Y-70738566D02*
X188118202Y-70705233D01*
X188118202Y-70705233D02*
X188218202Y-70705233D01*
X188218202Y-70705233D02*
X188318202Y-70738566D01*
X188318202Y-70738566D02*
X188384869Y-70805233D01*
X188384869Y-70805233D02*
X188418202Y-70871900D01*
X188418202Y-70871900D02*
X188451535Y-71005233D01*
X188451535Y-71005233D02*
X188451535Y-71105233D01*
X188451535Y-71105233D02*
X188418202Y-71238566D01*
X188418202Y-71238566D02*
X188384869Y-71305233D01*
X188384869Y-71305233D02*
X188318202Y-71371900D01*
X188318202Y-71371900D02*
X188218202Y-71405233D01*
X188218202Y-71405233D02*
X188151535Y-71405233D01*
X188151535Y-71405233D02*
X188051535Y-71371900D01*
X188051535Y-71371900D02*
X188018202Y-71338566D01*
X188018202Y-71338566D02*
X188018202Y-71105233D01*
X188018202Y-71105233D02*
X188151535Y-71105233D01*
X187584869Y-71071900D02*
X187584869Y-71405233D01*
X187818202Y-70705233D02*
X187584869Y-71071900D01*
X187584869Y-71071900D02*
X187351535Y-70705233D01*
X186718202Y-71405233D02*
X186951535Y-71071900D01*
X187118202Y-71405233D02*
X187118202Y-70705233D01*
X187118202Y-70705233D02*
X186851535Y-70705233D01*
X186851535Y-70705233D02*
X186784869Y-70738566D01*
X186784869Y-70738566D02*
X186751535Y-70771900D01*
X186751535Y-70771900D02*
X186718202Y-70838566D01*
X186718202Y-70838566D02*
X186718202Y-70938566D01*
X186718202Y-70938566D02*
X186751535Y-71005233D01*
X186751535Y-71005233D02*
X186784869Y-71038566D01*
X186784869Y-71038566D02*
X186851535Y-71071900D01*
X186851535Y-71071900D02*
X187118202Y-71071900D01*
X186284869Y-70705233D02*
X186151535Y-70705233D01*
X186151535Y-70705233D02*
X186084869Y-70738566D01*
X186084869Y-70738566D02*
X186018202Y-70805233D01*
X186018202Y-70805233D02*
X185984869Y-70938566D01*
X185984869Y-70938566D02*
X185984869Y-71171900D01*
X185984869Y-71171900D02*
X186018202Y-71305233D01*
X186018202Y-71305233D02*
X186084869Y-71371900D01*
X186084869Y-71371900D02*
X186151535Y-71405233D01*
X186151535Y-71405233D02*
X186284869Y-71405233D01*
X186284869Y-71405233D02*
X186351535Y-71371900D01*
X186351535Y-71371900D02*
X186418202Y-71305233D01*
X186418202Y-71305233D02*
X186451535Y-71171900D01*
X186451535Y-71171900D02*
X186451535Y-70938566D01*
X186451535Y-70938566D02*
X186418202Y-70805233D01*
X186418202Y-70805233D02*
X186351535Y-70738566D01*
X186351535Y-70738566D02*
X186284869Y-70705233D01*
D11*
X202904819Y-93231547D02*
X201904819Y-93231547D01*
X201904819Y-93231547D02*
X201904819Y-93469642D01*
X201904819Y-93469642D02*
X201952438Y-93612499D01*
X201952438Y-93612499D02*
X202047676Y-93707737D01*
X202047676Y-93707737D02*
X202142914Y-93755356D01*
X202142914Y-93755356D02*
X202333390Y-93802975D01*
X202333390Y-93802975D02*
X202476247Y-93802975D01*
X202476247Y-93802975D02*
X202666723Y-93755356D01*
X202666723Y-93755356D02*
X202761961Y-93707737D01*
X202761961Y-93707737D02*
X202857200Y-93612499D01*
X202857200Y-93612499D02*
X202904819Y-93469642D01*
X202904819Y-93469642D02*
X202904819Y-93231547D01*
X202904819Y-94231547D02*
X202238152Y-94231547D01*
X201904819Y-94231547D02*
X201952438Y-94183928D01*
X201952438Y-94183928D02*
X202000057Y-94231547D01*
X202000057Y-94231547D02*
X201952438Y-94279166D01*
X201952438Y-94279166D02*
X201904819Y-94231547D01*
X201904819Y-94231547D02*
X202000057Y-94231547D01*
X202238152Y-94612499D02*
X202904819Y-94850594D01*
X202904819Y-94850594D02*
X202238152Y-95088689D01*
X203000057Y-95231547D02*
X203000057Y-95993451D01*
X202904819Y-96231547D02*
X202238152Y-96231547D01*
X202428628Y-96231547D02*
X202333390Y-96279166D01*
X202333390Y-96279166D02*
X202285771Y-96326785D01*
X202285771Y-96326785D02*
X202238152Y-96422023D01*
X202238152Y-96422023D02*
X202238152Y-96517261D01*
X202857200Y-97231547D02*
X202904819Y-97136309D01*
X202904819Y-97136309D02*
X202904819Y-96945833D01*
X202904819Y-96945833D02*
X202857200Y-96850595D01*
X202857200Y-96850595D02*
X202761961Y-96802976D01*
X202761961Y-96802976D02*
X202381009Y-96802976D01*
X202381009Y-96802976D02*
X202285771Y-96850595D01*
X202285771Y-96850595D02*
X202238152Y-96945833D01*
X202238152Y-96945833D02*
X202238152Y-97136309D01*
X202238152Y-97136309D02*
X202285771Y-97231547D01*
X202285771Y-97231547D02*
X202381009Y-97279166D01*
X202381009Y-97279166D02*
X202476247Y-97279166D01*
X202476247Y-97279166D02*
X202571485Y-96802976D01*
X202857200Y-97660119D02*
X202904819Y-97755357D01*
X202904819Y-97755357D02*
X202904819Y-97945833D01*
X202904819Y-97945833D02*
X202857200Y-98041071D01*
X202857200Y-98041071D02*
X202761961Y-98088690D01*
X202761961Y-98088690D02*
X202714342Y-98088690D01*
X202714342Y-98088690D02*
X202619104Y-98041071D01*
X202619104Y-98041071D02*
X202571485Y-97945833D01*
X202571485Y-97945833D02*
X202571485Y-97802976D01*
X202571485Y-97802976D02*
X202523866Y-97707738D01*
X202523866Y-97707738D02*
X202428628Y-97660119D01*
X202428628Y-97660119D02*
X202381009Y-97660119D01*
X202381009Y-97660119D02*
X202285771Y-97707738D01*
X202285771Y-97707738D02*
X202238152Y-97802976D01*
X202238152Y-97802976D02*
X202238152Y-97945833D01*
X202238152Y-97945833D02*
X202285771Y-98041071D01*
X203000057Y-98279167D02*
X203000057Y-99041071D01*
X202904819Y-99279167D02*
X202238152Y-99279167D01*
X202428628Y-99279167D02*
X202333390Y-99326786D01*
X202333390Y-99326786D02*
X202285771Y-99374405D01*
X202285771Y-99374405D02*
X202238152Y-99469643D01*
X202238152Y-99469643D02*
X202238152Y-99564881D01*
X202857200Y-100279167D02*
X202904819Y-100183929D01*
X202904819Y-100183929D02*
X202904819Y-99993453D01*
X202904819Y-99993453D02*
X202857200Y-99898215D01*
X202857200Y-99898215D02*
X202761961Y-99850596D01*
X202761961Y-99850596D02*
X202381009Y-99850596D01*
X202381009Y-99850596D02*
X202285771Y-99898215D01*
X202285771Y-99898215D02*
X202238152Y-99993453D01*
X202238152Y-99993453D02*
X202238152Y-100183929D01*
X202238152Y-100183929D02*
X202285771Y-100279167D01*
X202285771Y-100279167D02*
X202381009Y-100326786D01*
X202381009Y-100326786D02*
X202476247Y-100326786D01*
X202476247Y-100326786D02*
X202571485Y-99850596D01*
X202238152Y-101183929D02*
X203047676Y-101183929D01*
X203047676Y-101183929D02*
X203142914Y-101136310D01*
X203142914Y-101136310D02*
X203190533Y-101088691D01*
X203190533Y-101088691D02*
X203238152Y-100993453D01*
X203238152Y-100993453D02*
X203238152Y-100850596D01*
X203238152Y-100850596D02*
X203190533Y-100755358D01*
X202857200Y-101183929D02*
X202904819Y-101088691D01*
X202904819Y-101088691D02*
X202904819Y-100898215D01*
X202904819Y-100898215D02*
X202857200Y-100802977D01*
X202857200Y-100802977D02*
X202809580Y-100755358D01*
X202809580Y-100755358D02*
X202714342Y-100707739D01*
X202714342Y-100707739D02*
X202428628Y-100707739D01*
X202428628Y-100707739D02*
X202333390Y-100755358D01*
X202333390Y-100755358D02*
X202285771Y-100802977D01*
X202285771Y-100802977D02*
X202238152Y-100898215D01*
X202238152Y-100898215D02*
X202238152Y-101088691D01*
X202238152Y-101088691D02*
X202285771Y-101183929D01*
X202904819Y-102183929D02*
X202904819Y-101612501D01*
X202904819Y-101898215D02*
X201904819Y-101898215D01*
X201904819Y-101898215D02*
X202047676Y-101802977D01*
X202047676Y-101802977D02*
X202142914Y-101707739D01*
X202142914Y-101707739D02*
X202190533Y-101612501D01*
X202904819Y-103041072D02*
X202381009Y-103041072D01*
X202381009Y-103041072D02*
X202285771Y-102993453D01*
X202285771Y-102993453D02*
X202238152Y-102898215D01*
X202238152Y-102898215D02*
X202238152Y-102707739D01*
X202238152Y-102707739D02*
X202285771Y-102612501D01*
X202857200Y-103041072D02*
X202904819Y-102945834D01*
X202904819Y-102945834D02*
X202904819Y-102707739D01*
X202904819Y-102707739D02*
X202857200Y-102612501D01*
X202857200Y-102612501D02*
X202761961Y-102564882D01*
X202761961Y-102564882D02*
X202666723Y-102564882D01*
X202666723Y-102564882D02*
X202571485Y-102612501D01*
X202571485Y-102612501D02*
X202523866Y-102707739D01*
X202523866Y-102707739D02*
X202523866Y-102945834D01*
X202523866Y-102945834D02*
X202476247Y-103041072D01*
X202904819Y-104041072D02*
X202904819Y-103469644D01*
X202904819Y-103755358D02*
X201904819Y-103755358D01*
X201904819Y-103755358D02*
X202047676Y-103660120D01*
X202047676Y-103660120D02*
X202142914Y-103564882D01*
X202142914Y-103564882D02*
X202190533Y-103469644D01*
X200304819Y-88347618D02*
X199304819Y-88347618D01*
X199304819Y-88347618D02*
X199304819Y-88585713D01*
X199304819Y-88585713D02*
X199352438Y-88728570D01*
X199352438Y-88728570D02*
X199447676Y-88823808D01*
X199447676Y-88823808D02*
X199542914Y-88871427D01*
X199542914Y-88871427D02*
X199733390Y-88919046D01*
X199733390Y-88919046D02*
X199876247Y-88919046D01*
X199876247Y-88919046D02*
X200066723Y-88871427D01*
X200066723Y-88871427D02*
X200161961Y-88823808D01*
X200161961Y-88823808D02*
X200257200Y-88728570D01*
X200257200Y-88728570D02*
X200304819Y-88585713D01*
X200304819Y-88585713D02*
X200304819Y-88347618D01*
X200304819Y-89347618D02*
X199638152Y-89347618D01*
X199304819Y-89347618D02*
X199352438Y-89299999D01*
X199352438Y-89299999D02*
X199400057Y-89347618D01*
X199400057Y-89347618D02*
X199352438Y-89395237D01*
X199352438Y-89395237D02*
X199304819Y-89347618D01*
X199304819Y-89347618D02*
X199400057Y-89347618D01*
X199638152Y-89728570D02*
X200304819Y-89966665D01*
X200304819Y-89966665D02*
X199638152Y-90204760D01*
X200400057Y-90347618D02*
X200400057Y-91109522D01*
X200304819Y-91347618D02*
X199638152Y-91347618D01*
X199828628Y-91347618D02*
X199733390Y-91395237D01*
X199733390Y-91395237D02*
X199685771Y-91442856D01*
X199685771Y-91442856D02*
X199638152Y-91538094D01*
X199638152Y-91538094D02*
X199638152Y-91633332D01*
X200257200Y-92347618D02*
X200304819Y-92252380D01*
X200304819Y-92252380D02*
X200304819Y-92061904D01*
X200304819Y-92061904D02*
X200257200Y-91966666D01*
X200257200Y-91966666D02*
X200161961Y-91919047D01*
X200161961Y-91919047D02*
X199781009Y-91919047D01*
X199781009Y-91919047D02*
X199685771Y-91966666D01*
X199685771Y-91966666D02*
X199638152Y-92061904D01*
X199638152Y-92061904D02*
X199638152Y-92252380D01*
X199638152Y-92252380D02*
X199685771Y-92347618D01*
X199685771Y-92347618D02*
X199781009Y-92395237D01*
X199781009Y-92395237D02*
X199876247Y-92395237D01*
X199876247Y-92395237D02*
X199971485Y-91919047D01*
X200257200Y-92776190D02*
X200304819Y-92871428D01*
X200304819Y-92871428D02*
X200304819Y-93061904D01*
X200304819Y-93061904D02*
X200257200Y-93157142D01*
X200257200Y-93157142D02*
X200161961Y-93204761D01*
X200161961Y-93204761D02*
X200114342Y-93204761D01*
X200114342Y-93204761D02*
X200019104Y-93157142D01*
X200019104Y-93157142D02*
X199971485Y-93061904D01*
X199971485Y-93061904D02*
X199971485Y-92919047D01*
X199971485Y-92919047D02*
X199923866Y-92823809D01*
X199923866Y-92823809D02*
X199828628Y-92776190D01*
X199828628Y-92776190D02*
X199781009Y-92776190D01*
X199781009Y-92776190D02*
X199685771Y-92823809D01*
X199685771Y-92823809D02*
X199638152Y-92919047D01*
X199638152Y-92919047D02*
X199638152Y-93061904D01*
X199638152Y-93061904D02*
X199685771Y-93157142D01*
X200400057Y-93395238D02*
X200400057Y-94157142D01*
X200304819Y-94395238D02*
X199304819Y-94395238D01*
X199685771Y-94395238D02*
X199638152Y-94490476D01*
X199638152Y-94490476D02*
X199638152Y-94680952D01*
X199638152Y-94680952D02*
X199685771Y-94776190D01*
X199685771Y-94776190D02*
X199733390Y-94823809D01*
X199733390Y-94823809D02*
X199828628Y-94871428D01*
X199828628Y-94871428D02*
X200114342Y-94871428D01*
X200114342Y-94871428D02*
X200209580Y-94823809D01*
X200209580Y-94823809D02*
X200257200Y-94776190D01*
X200257200Y-94776190D02*
X200304819Y-94680952D01*
X200304819Y-94680952D02*
X200304819Y-94490476D01*
X200304819Y-94490476D02*
X200257200Y-94395238D01*
X200304819Y-95728571D02*
X199781009Y-95728571D01*
X199781009Y-95728571D02*
X199685771Y-95680952D01*
X199685771Y-95680952D02*
X199638152Y-95585714D01*
X199638152Y-95585714D02*
X199638152Y-95395238D01*
X199638152Y-95395238D02*
X199685771Y-95300000D01*
X200257200Y-95728571D02*
X200304819Y-95633333D01*
X200304819Y-95633333D02*
X200304819Y-95395238D01*
X200304819Y-95395238D02*
X200257200Y-95300000D01*
X200257200Y-95300000D02*
X200161961Y-95252381D01*
X200161961Y-95252381D02*
X200066723Y-95252381D01*
X200066723Y-95252381D02*
X199971485Y-95300000D01*
X199971485Y-95300000D02*
X199923866Y-95395238D01*
X199923866Y-95395238D02*
X199923866Y-95633333D01*
X199923866Y-95633333D02*
X199876247Y-95728571D01*
X199638152Y-96061905D02*
X199638152Y-96442857D01*
X199304819Y-96204762D02*
X200161961Y-96204762D01*
X200161961Y-96204762D02*
X200257200Y-96252381D01*
X200257200Y-96252381D02*
X200304819Y-96347619D01*
X200304819Y-96347619D02*
X200304819Y-96442857D01*
X200304819Y-97300000D02*
X200304819Y-96728572D01*
X200304819Y-97014286D02*
X199304819Y-97014286D01*
X199304819Y-97014286D02*
X199447676Y-96919048D01*
X199447676Y-96919048D02*
X199542914Y-96823810D01*
X199542914Y-96823810D02*
X199590533Y-96728572D01*
X198955419Y-74674857D02*
X198955419Y-74979619D01*
X199138276Y-74613905D02*
X198498276Y-74827238D01*
X198498276Y-74827238D02*
X199138276Y-75040572D01*
X199138276Y-75589143D02*
X199138276Y-75223428D01*
X199138276Y-75406285D02*
X198498276Y-75406285D01*
X198498276Y-75406285D02*
X198589704Y-75345333D01*
X198589704Y-75345333D02*
X198650657Y-75284381D01*
X198650657Y-75284381D02*
X198681133Y-75223428D01*
X210354819Y-65438095D02*
X211164342Y-65438095D01*
X211164342Y-65438095D02*
X211259580Y-65485714D01*
X211259580Y-65485714D02*
X211307200Y-65533333D01*
X211307200Y-65533333D02*
X211354819Y-65628571D01*
X211354819Y-65628571D02*
X211354819Y-65819047D01*
X211354819Y-65819047D02*
X211307200Y-65914285D01*
X211307200Y-65914285D02*
X211259580Y-65961904D01*
X211259580Y-65961904D02*
X211164342Y-66009523D01*
X211164342Y-66009523D02*
X210354819Y-66009523D01*
X210688152Y-66914285D02*
X211354819Y-66914285D01*
X210307200Y-66676190D02*
X211021485Y-66438095D01*
X211021485Y-66438095D02*
X211021485Y-67057142D01*
X215357143Y-67039580D02*
X215404762Y-67087200D01*
X215404762Y-67087200D02*
X215547619Y-67134819D01*
X215547619Y-67134819D02*
X215642857Y-67134819D01*
X215642857Y-67134819D02*
X215785714Y-67087200D01*
X215785714Y-67087200D02*
X215880952Y-66991961D01*
X215880952Y-66991961D02*
X215928571Y-66896723D01*
X215928571Y-66896723D02*
X215976190Y-66706247D01*
X215976190Y-66706247D02*
X215976190Y-66563390D01*
X215976190Y-66563390D02*
X215928571Y-66372914D01*
X215928571Y-66372914D02*
X215880952Y-66277676D01*
X215880952Y-66277676D02*
X215785714Y-66182438D01*
X215785714Y-66182438D02*
X215642857Y-66134819D01*
X215642857Y-66134819D02*
X215547619Y-66134819D01*
X215547619Y-66134819D02*
X215404762Y-66182438D01*
X215404762Y-66182438D02*
X215357143Y-66230057D01*
X214976190Y-66849104D02*
X214500000Y-66849104D01*
X215071428Y-67134819D02*
X214738095Y-66134819D01*
X214738095Y-66134819D02*
X214404762Y-67134819D01*
X214071428Y-67134819D02*
X214071428Y-66134819D01*
X214071428Y-66134819D02*
X213833333Y-66134819D01*
X213833333Y-66134819D02*
X213690476Y-66182438D01*
X213690476Y-66182438D02*
X213595238Y-66277676D01*
X213595238Y-66277676D02*
X213547619Y-66372914D01*
X213547619Y-66372914D02*
X213500000Y-66563390D01*
X213500000Y-66563390D02*
X213500000Y-66706247D01*
X213500000Y-66706247D02*
X213547619Y-66896723D01*
X213547619Y-66896723D02*
X213595238Y-66991961D01*
X213595238Y-66991961D02*
X213690476Y-67087200D01*
X213690476Y-67087200D02*
X213833333Y-67134819D01*
X213833333Y-67134819D02*
X214071428Y-67134819D01*
X213166666Y-66134819D02*
X212500000Y-67134819D01*
X212500000Y-66134819D02*
X213166666Y-67134819D01*
X211642857Y-67134819D02*
X212119047Y-67134819D01*
X212119047Y-67134819D02*
X212119047Y-66134819D01*
X211547619Y-67230057D02*
X210785714Y-67230057D01*
X210595237Y-66230057D02*
X210547618Y-66182438D01*
X210547618Y-66182438D02*
X210452380Y-66134819D01*
X210452380Y-66134819D02*
X210214285Y-66134819D01*
X210214285Y-66134819D02*
X210119047Y-66182438D01*
X210119047Y-66182438D02*
X210071428Y-66230057D01*
X210071428Y-66230057D02*
X210023809Y-66325295D01*
X210023809Y-66325295D02*
X210023809Y-66420533D01*
X210023809Y-66420533D02*
X210071428Y-66563390D01*
X210071428Y-66563390D02*
X210642856Y-67134819D01*
X210642856Y-67134819D02*
X210023809Y-67134819D01*
X215523809Y-91739580D02*
X215571428Y-91787200D01*
X215571428Y-91787200D02*
X215714285Y-91834819D01*
X215714285Y-91834819D02*
X215809523Y-91834819D01*
X215809523Y-91834819D02*
X215952380Y-91787200D01*
X215952380Y-91787200D02*
X216047618Y-91691961D01*
X216047618Y-91691961D02*
X216095237Y-91596723D01*
X216095237Y-91596723D02*
X216142856Y-91406247D01*
X216142856Y-91406247D02*
X216142856Y-91263390D01*
X216142856Y-91263390D02*
X216095237Y-91072914D01*
X216095237Y-91072914D02*
X216047618Y-90977676D01*
X216047618Y-90977676D02*
X215952380Y-90882438D01*
X215952380Y-90882438D02*
X215809523Y-90834819D01*
X215809523Y-90834819D02*
X215714285Y-90834819D01*
X215714285Y-90834819D02*
X215571428Y-90882438D01*
X215571428Y-90882438D02*
X215523809Y-90930057D01*
X215095237Y-91834819D02*
X215095237Y-90834819D01*
X215095237Y-90834819D02*
X214714285Y-90834819D01*
X214714285Y-90834819D02*
X214619047Y-90882438D01*
X214619047Y-90882438D02*
X214571428Y-90930057D01*
X214571428Y-90930057D02*
X214523809Y-91025295D01*
X214523809Y-91025295D02*
X214523809Y-91168152D01*
X214523809Y-91168152D02*
X214571428Y-91263390D01*
X214571428Y-91263390D02*
X214619047Y-91311009D01*
X214619047Y-91311009D02*
X214714285Y-91358628D01*
X214714285Y-91358628D02*
X215095237Y-91358628D01*
X214142856Y-91787200D02*
X213999999Y-91834819D01*
X213999999Y-91834819D02*
X213761904Y-91834819D01*
X213761904Y-91834819D02*
X213666666Y-91787200D01*
X213666666Y-91787200D02*
X213619047Y-91739580D01*
X213619047Y-91739580D02*
X213571428Y-91644342D01*
X213571428Y-91644342D02*
X213571428Y-91549104D01*
X213571428Y-91549104D02*
X213619047Y-91453866D01*
X213619047Y-91453866D02*
X213666666Y-91406247D01*
X213666666Y-91406247D02*
X213761904Y-91358628D01*
X213761904Y-91358628D02*
X213952380Y-91311009D01*
X213952380Y-91311009D02*
X214047618Y-91263390D01*
X214047618Y-91263390D02*
X214095237Y-91215771D01*
X214095237Y-91215771D02*
X214142856Y-91120533D01*
X214142856Y-91120533D02*
X214142856Y-91025295D01*
X214142856Y-91025295D02*
X214095237Y-90930057D01*
X214095237Y-90930057D02*
X214047618Y-90882438D01*
X214047618Y-90882438D02*
X213952380Y-90834819D01*
X213952380Y-90834819D02*
X213714285Y-90834819D01*
X213714285Y-90834819D02*
X213571428Y-90882438D01*
X213380952Y-91930057D02*
X212619047Y-91930057D01*
X212428570Y-90930057D02*
X212380951Y-90882438D01*
X212380951Y-90882438D02*
X212285713Y-90834819D01*
X212285713Y-90834819D02*
X212047618Y-90834819D01*
X212047618Y-90834819D02*
X211952380Y-90882438D01*
X211952380Y-90882438D02*
X211904761Y-90930057D01*
X211904761Y-90930057D02*
X211857142Y-91025295D01*
X211857142Y-91025295D02*
X211857142Y-91120533D01*
X211857142Y-91120533D02*
X211904761Y-91263390D01*
X211904761Y-91263390D02*
X212476189Y-91834819D01*
X212476189Y-91834819D02*
X211857142Y-91834819D01*
X209793452Y-97504819D02*
X209793452Y-96504819D01*
X209793452Y-96504819D02*
X209555357Y-96504819D01*
X209555357Y-96504819D02*
X209412500Y-96552438D01*
X209412500Y-96552438D02*
X209317262Y-96647676D01*
X209317262Y-96647676D02*
X209269643Y-96742914D01*
X209269643Y-96742914D02*
X209222024Y-96933390D01*
X209222024Y-96933390D02*
X209222024Y-97076247D01*
X209222024Y-97076247D02*
X209269643Y-97266723D01*
X209269643Y-97266723D02*
X209317262Y-97361961D01*
X209317262Y-97361961D02*
X209412500Y-97457200D01*
X209412500Y-97457200D02*
X209555357Y-97504819D01*
X209555357Y-97504819D02*
X209793452Y-97504819D01*
X208793452Y-97504819D02*
X208793452Y-96838152D01*
X208793452Y-96504819D02*
X208841071Y-96552438D01*
X208841071Y-96552438D02*
X208793452Y-96600057D01*
X208793452Y-96600057D02*
X208745833Y-96552438D01*
X208745833Y-96552438D02*
X208793452Y-96504819D01*
X208793452Y-96504819D02*
X208793452Y-96600057D01*
X208412500Y-96838152D02*
X208174405Y-97504819D01*
X208174405Y-97504819D02*
X207936310Y-96838152D01*
X207793453Y-97600057D02*
X207031548Y-97600057D01*
X206793452Y-97504819D02*
X206793452Y-96838152D01*
X206793452Y-97028628D02*
X206745833Y-96933390D01*
X206745833Y-96933390D02*
X206698214Y-96885771D01*
X206698214Y-96885771D02*
X206602976Y-96838152D01*
X206602976Y-96838152D02*
X206507738Y-96838152D01*
X205793452Y-97457200D02*
X205888690Y-97504819D01*
X205888690Y-97504819D02*
X206079166Y-97504819D01*
X206079166Y-97504819D02*
X206174404Y-97457200D01*
X206174404Y-97457200D02*
X206222023Y-97361961D01*
X206222023Y-97361961D02*
X206222023Y-96981009D01*
X206222023Y-96981009D02*
X206174404Y-96885771D01*
X206174404Y-96885771D02*
X206079166Y-96838152D01*
X206079166Y-96838152D02*
X205888690Y-96838152D01*
X205888690Y-96838152D02*
X205793452Y-96885771D01*
X205793452Y-96885771D02*
X205745833Y-96981009D01*
X205745833Y-96981009D02*
X205745833Y-97076247D01*
X205745833Y-97076247D02*
X206222023Y-97171485D01*
X205364880Y-97457200D02*
X205269642Y-97504819D01*
X205269642Y-97504819D02*
X205079166Y-97504819D01*
X205079166Y-97504819D02*
X204983928Y-97457200D01*
X204983928Y-97457200D02*
X204936309Y-97361961D01*
X204936309Y-97361961D02*
X204936309Y-97314342D01*
X204936309Y-97314342D02*
X204983928Y-97219104D01*
X204983928Y-97219104D02*
X205079166Y-97171485D01*
X205079166Y-97171485D02*
X205222023Y-97171485D01*
X205222023Y-97171485D02*
X205317261Y-97123866D01*
X205317261Y-97123866D02*
X205364880Y-97028628D01*
X205364880Y-97028628D02*
X205364880Y-96981009D01*
X205364880Y-96981009D02*
X205317261Y-96885771D01*
X205317261Y-96885771D02*
X205222023Y-96838152D01*
X205222023Y-96838152D02*
X205079166Y-96838152D01*
X205079166Y-96838152D02*
X204983928Y-96885771D01*
X204745833Y-97600057D02*
X203983928Y-97600057D01*
X203745832Y-97504819D02*
X203745832Y-96838152D01*
X203745832Y-97028628D02*
X203698213Y-96933390D01*
X203698213Y-96933390D02*
X203650594Y-96885771D01*
X203650594Y-96885771D02*
X203555356Y-96838152D01*
X203555356Y-96838152D02*
X203460118Y-96838152D01*
X202745832Y-97457200D02*
X202841070Y-97504819D01*
X202841070Y-97504819D02*
X203031546Y-97504819D01*
X203031546Y-97504819D02*
X203126784Y-97457200D01*
X203126784Y-97457200D02*
X203174403Y-97361961D01*
X203174403Y-97361961D02*
X203174403Y-96981009D01*
X203174403Y-96981009D02*
X203126784Y-96885771D01*
X203126784Y-96885771D02*
X203031546Y-96838152D01*
X203031546Y-96838152D02*
X202841070Y-96838152D01*
X202841070Y-96838152D02*
X202745832Y-96885771D01*
X202745832Y-96885771D02*
X202698213Y-96981009D01*
X202698213Y-96981009D02*
X202698213Y-97076247D01*
X202698213Y-97076247D02*
X203174403Y-97171485D01*
X201841070Y-96838152D02*
X201841070Y-97647676D01*
X201841070Y-97647676D02*
X201888689Y-97742914D01*
X201888689Y-97742914D02*
X201936308Y-97790533D01*
X201936308Y-97790533D02*
X202031546Y-97838152D01*
X202031546Y-97838152D02*
X202174403Y-97838152D01*
X202174403Y-97838152D02*
X202269641Y-97790533D01*
X201841070Y-97457200D02*
X201936308Y-97504819D01*
X201936308Y-97504819D02*
X202126784Y-97504819D01*
X202126784Y-97504819D02*
X202222022Y-97457200D01*
X202222022Y-97457200D02*
X202269641Y-97409580D01*
X202269641Y-97409580D02*
X202317260Y-97314342D01*
X202317260Y-97314342D02*
X202317260Y-97028628D01*
X202317260Y-97028628D02*
X202269641Y-96933390D01*
X202269641Y-96933390D02*
X202222022Y-96885771D01*
X202222022Y-96885771D02*
X202126784Y-96838152D01*
X202126784Y-96838152D02*
X201936308Y-96838152D01*
X201936308Y-96838152D02*
X201841070Y-96885771D01*
X200841070Y-97504819D02*
X201412498Y-97504819D01*
X201126784Y-97504819D02*
X201126784Y-96504819D01*
X201126784Y-96504819D02*
X201222022Y-96647676D01*
X201222022Y-96647676D02*
X201317260Y-96742914D01*
X201317260Y-96742914D02*
X201412498Y-96790533D01*
X200412498Y-97504819D02*
X200412498Y-96504819D01*
X200412498Y-96885771D02*
X200317260Y-96838152D01*
X200317260Y-96838152D02*
X200126784Y-96838152D01*
X200126784Y-96838152D02*
X200031546Y-96885771D01*
X200031546Y-96885771D02*
X199983927Y-96933390D01*
X199983927Y-96933390D02*
X199936308Y-97028628D01*
X199936308Y-97028628D02*
X199936308Y-97314342D01*
X199936308Y-97314342D02*
X199983927Y-97409580D01*
X199983927Y-97409580D02*
X200031546Y-97457200D01*
X200031546Y-97457200D02*
X200126784Y-97504819D01*
X200126784Y-97504819D02*
X200317260Y-97504819D01*
X200317260Y-97504819D02*
X200412498Y-97457200D01*
X198983927Y-97504819D02*
X199555355Y-97504819D01*
X199269641Y-97504819D02*
X199269641Y-96504819D01*
X199269641Y-96504819D02*
X199364879Y-96647676D01*
X199364879Y-96647676D02*
X199460117Y-96742914D01*
X199460117Y-96742914D02*
X199555355Y-96790533D01*
X209768452Y-94899819D02*
X209768452Y-93899819D01*
X209768452Y-93899819D02*
X209530357Y-93899819D01*
X209530357Y-93899819D02*
X209387500Y-93947438D01*
X209387500Y-93947438D02*
X209292262Y-94042676D01*
X209292262Y-94042676D02*
X209244643Y-94137914D01*
X209244643Y-94137914D02*
X209197024Y-94328390D01*
X209197024Y-94328390D02*
X209197024Y-94471247D01*
X209197024Y-94471247D02*
X209244643Y-94661723D01*
X209244643Y-94661723D02*
X209292262Y-94756961D01*
X209292262Y-94756961D02*
X209387500Y-94852200D01*
X209387500Y-94852200D02*
X209530357Y-94899819D01*
X209530357Y-94899819D02*
X209768452Y-94899819D01*
X208768452Y-94899819D02*
X208768452Y-94233152D01*
X208768452Y-93899819D02*
X208816071Y-93947438D01*
X208816071Y-93947438D02*
X208768452Y-93995057D01*
X208768452Y-93995057D02*
X208720833Y-93947438D01*
X208720833Y-93947438D02*
X208768452Y-93899819D01*
X208768452Y-93899819D02*
X208768452Y-93995057D01*
X208387500Y-94233152D02*
X208149405Y-94899819D01*
X208149405Y-94899819D02*
X207911310Y-94233152D01*
X207768453Y-94995057D02*
X207006548Y-94995057D01*
X206768452Y-94899819D02*
X206768452Y-94233152D01*
X206768452Y-94423628D02*
X206720833Y-94328390D01*
X206720833Y-94328390D02*
X206673214Y-94280771D01*
X206673214Y-94280771D02*
X206577976Y-94233152D01*
X206577976Y-94233152D02*
X206482738Y-94233152D01*
X205768452Y-94852200D02*
X205863690Y-94899819D01*
X205863690Y-94899819D02*
X206054166Y-94899819D01*
X206054166Y-94899819D02*
X206149404Y-94852200D01*
X206149404Y-94852200D02*
X206197023Y-94756961D01*
X206197023Y-94756961D02*
X206197023Y-94376009D01*
X206197023Y-94376009D02*
X206149404Y-94280771D01*
X206149404Y-94280771D02*
X206054166Y-94233152D01*
X206054166Y-94233152D02*
X205863690Y-94233152D01*
X205863690Y-94233152D02*
X205768452Y-94280771D01*
X205768452Y-94280771D02*
X205720833Y-94376009D01*
X205720833Y-94376009D02*
X205720833Y-94471247D01*
X205720833Y-94471247D02*
X206197023Y-94566485D01*
X205339880Y-94852200D02*
X205244642Y-94899819D01*
X205244642Y-94899819D02*
X205054166Y-94899819D01*
X205054166Y-94899819D02*
X204958928Y-94852200D01*
X204958928Y-94852200D02*
X204911309Y-94756961D01*
X204911309Y-94756961D02*
X204911309Y-94709342D01*
X204911309Y-94709342D02*
X204958928Y-94614104D01*
X204958928Y-94614104D02*
X205054166Y-94566485D01*
X205054166Y-94566485D02*
X205197023Y-94566485D01*
X205197023Y-94566485D02*
X205292261Y-94518866D01*
X205292261Y-94518866D02*
X205339880Y-94423628D01*
X205339880Y-94423628D02*
X205339880Y-94376009D01*
X205339880Y-94376009D02*
X205292261Y-94280771D01*
X205292261Y-94280771D02*
X205197023Y-94233152D01*
X205197023Y-94233152D02*
X205054166Y-94233152D01*
X205054166Y-94233152D02*
X204958928Y-94280771D01*
X204720833Y-94995057D02*
X203958928Y-94995057D01*
X203720832Y-94899819D02*
X203720832Y-94233152D01*
X203720832Y-94423628D02*
X203673213Y-94328390D01*
X203673213Y-94328390D02*
X203625594Y-94280771D01*
X203625594Y-94280771D02*
X203530356Y-94233152D01*
X203530356Y-94233152D02*
X203435118Y-94233152D01*
X202720832Y-94852200D02*
X202816070Y-94899819D01*
X202816070Y-94899819D02*
X203006546Y-94899819D01*
X203006546Y-94899819D02*
X203101784Y-94852200D01*
X203101784Y-94852200D02*
X203149403Y-94756961D01*
X203149403Y-94756961D02*
X203149403Y-94376009D01*
X203149403Y-94376009D02*
X203101784Y-94280771D01*
X203101784Y-94280771D02*
X203006546Y-94233152D01*
X203006546Y-94233152D02*
X202816070Y-94233152D01*
X202816070Y-94233152D02*
X202720832Y-94280771D01*
X202720832Y-94280771D02*
X202673213Y-94376009D01*
X202673213Y-94376009D02*
X202673213Y-94471247D01*
X202673213Y-94471247D02*
X203149403Y-94566485D01*
X201816070Y-94233152D02*
X201816070Y-95042676D01*
X201816070Y-95042676D02*
X201863689Y-95137914D01*
X201863689Y-95137914D02*
X201911308Y-95185533D01*
X201911308Y-95185533D02*
X202006546Y-95233152D01*
X202006546Y-95233152D02*
X202149403Y-95233152D01*
X202149403Y-95233152D02*
X202244641Y-95185533D01*
X201816070Y-94852200D02*
X201911308Y-94899819D01*
X201911308Y-94899819D02*
X202101784Y-94899819D01*
X202101784Y-94899819D02*
X202197022Y-94852200D01*
X202197022Y-94852200D02*
X202244641Y-94804580D01*
X202244641Y-94804580D02*
X202292260Y-94709342D01*
X202292260Y-94709342D02*
X202292260Y-94423628D01*
X202292260Y-94423628D02*
X202244641Y-94328390D01*
X202244641Y-94328390D02*
X202197022Y-94280771D01*
X202197022Y-94280771D02*
X202101784Y-94233152D01*
X202101784Y-94233152D02*
X201911308Y-94233152D01*
X201911308Y-94233152D02*
X201816070Y-94280771D01*
X201387498Y-93995057D02*
X201339879Y-93947438D01*
X201339879Y-93947438D02*
X201244641Y-93899819D01*
X201244641Y-93899819D02*
X201006546Y-93899819D01*
X201006546Y-93899819D02*
X200911308Y-93947438D01*
X200911308Y-93947438D02*
X200863689Y-93995057D01*
X200863689Y-93995057D02*
X200816070Y-94090295D01*
X200816070Y-94090295D02*
X200816070Y-94185533D01*
X200816070Y-94185533D02*
X200863689Y-94328390D01*
X200863689Y-94328390D02*
X201435117Y-94899819D01*
X201435117Y-94899819D02*
X200816070Y-94899819D01*
X200387498Y-94899819D02*
X200387498Y-93899819D01*
X200387498Y-94280771D02*
X200292260Y-94233152D01*
X200292260Y-94233152D02*
X200101784Y-94233152D01*
X200101784Y-94233152D02*
X200006546Y-94280771D01*
X200006546Y-94280771D02*
X199958927Y-94328390D01*
X199958927Y-94328390D02*
X199911308Y-94423628D01*
X199911308Y-94423628D02*
X199911308Y-94709342D01*
X199911308Y-94709342D02*
X199958927Y-94804580D01*
X199958927Y-94804580D02*
X200006546Y-94852200D01*
X200006546Y-94852200D02*
X200101784Y-94899819D01*
X200101784Y-94899819D02*
X200292260Y-94899819D01*
X200292260Y-94899819D02*
X200387498Y-94852200D01*
X198958927Y-94899819D02*
X199530355Y-94899819D01*
X199244641Y-94899819D02*
X199244641Y-93899819D01*
X199244641Y-93899819D02*
X199339879Y-94042676D01*
X199339879Y-94042676D02*
X199435117Y-94137914D01*
X199435117Y-94137914D02*
X199530355Y-94185533D01*
X203052381Y-94304819D02*
X203052381Y-93304819D01*
X203052381Y-93304819D02*
X202814286Y-93304819D01*
X202814286Y-93304819D02*
X202671429Y-93352438D01*
X202671429Y-93352438D02*
X202576191Y-93447676D01*
X202576191Y-93447676D02*
X202528572Y-93542914D01*
X202528572Y-93542914D02*
X202480953Y-93733390D01*
X202480953Y-93733390D02*
X202480953Y-93876247D01*
X202480953Y-93876247D02*
X202528572Y-94066723D01*
X202528572Y-94066723D02*
X202576191Y-94161961D01*
X202576191Y-94161961D02*
X202671429Y-94257200D01*
X202671429Y-94257200D02*
X202814286Y-94304819D01*
X202814286Y-94304819D02*
X203052381Y-94304819D01*
X202052381Y-94304819D02*
X202052381Y-93638152D01*
X202052381Y-93304819D02*
X202100000Y-93352438D01*
X202100000Y-93352438D02*
X202052381Y-93400057D01*
X202052381Y-93400057D02*
X202004762Y-93352438D01*
X202004762Y-93352438D02*
X202052381Y-93304819D01*
X202052381Y-93304819D02*
X202052381Y-93400057D01*
X201671429Y-93638152D02*
X201433334Y-94304819D01*
X201433334Y-94304819D02*
X201195239Y-93638152D01*
X201052382Y-94400057D02*
X200290477Y-94400057D01*
X200052381Y-94304819D02*
X200052381Y-93638152D01*
X200052381Y-93828628D02*
X200004762Y-93733390D01*
X200004762Y-93733390D02*
X199957143Y-93685771D01*
X199957143Y-93685771D02*
X199861905Y-93638152D01*
X199861905Y-93638152D02*
X199766667Y-93638152D01*
X199052381Y-94257200D02*
X199147619Y-94304819D01*
X199147619Y-94304819D02*
X199338095Y-94304819D01*
X199338095Y-94304819D02*
X199433333Y-94257200D01*
X199433333Y-94257200D02*
X199480952Y-94161961D01*
X199480952Y-94161961D02*
X199480952Y-93781009D01*
X199480952Y-93781009D02*
X199433333Y-93685771D01*
X199433333Y-93685771D02*
X199338095Y-93638152D01*
X199338095Y-93638152D02*
X199147619Y-93638152D01*
X199147619Y-93638152D02*
X199052381Y-93685771D01*
X199052381Y-93685771D02*
X199004762Y-93781009D01*
X199004762Y-93781009D02*
X199004762Y-93876247D01*
X199004762Y-93876247D02*
X199480952Y-93971485D01*
X198623809Y-94257200D02*
X198528571Y-94304819D01*
X198528571Y-94304819D02*
X198338095Y-94304819D01*
X198338095Y-94304819D02*
X198242857Y-94257200D01*
X198242857Y-94257200D02*
X198195238Y-94161961D01*
X198195238Y-94161961D02*
X198195238Y-94114342D01*
X198195238Y-94114342D02*
X198242857Y-94019104D01*
X198242857Y-94019104D02*
X198338095Y-93971485D01*
X198338095Y-93971485D02*
X198480952Y-93971485D01*
X198480952Y-93971485D02*
X198576190Y-93923866D01*
X198576190Y-93923866D02*
X198623809Y-93828628D01*
X198623809Y-93828628D02*
X198623809Y-93781009D01*
X198623809Y-93781009D02*
X198576190Y-93685771D01*
X198576190Y-93685771D02*
X198480952Y-93638152D01*
X198480952Y-93638152D02*
X198338095Y-93638152D01*
X198338095Y-93638152D02*
X198242857Y-93685771D01*
X198004762Y-94400057D02*
X197242857Y-94400057D01*
X197004761Y-94304819D02*
X197004761Y-93304819D01*
X197004761Y-93685771D02*
X196909523Y-93638152D01*
X196909523Y-93638152D02*
X196719047Y-93638152D01*
X196719047Y-93638152D02*
X196623809Y-93685771D01*
X196623809Y-93685771D02*
X196576190Y-93733390D01*
X196576190Y-93733390D02*
X196528571Y-93828628D01*
X196528571Y-93828628D02*
X196528571Y-94114342D01*
X196528571Y-94114342D02*
X196576190Y-94209580D01*
X196576190Y-94209580D02*
X196623809Y-94257200D01*
X196623809Y-94257200D02*
X196719047Y-94304819D01*
X196719047Y-94304819D02*
X196909523Y-94304819D01*
X196909523Y-94304819D02*
X197004761Y-94257200D01*
X195671428Y-94304819D02*
X195671428Y-93781009D01*
X195671428Y-93781009D02*
X195719047Y-93685771D01*
X195719047Y-93685771D02*
X195814285Y-93638152D01*
X195814285Y-93638152D02*
X196004761Y-93638152D01*
X196004761Y-93638152D02*
X196099999Y-93685771D01*
X195671428Y-94257200D02*
X195766666Y-94304819D01*
X195766666Y-94304819D02*
X196004761Y-94304819D01*
X196004761Y-94304819D02*
X196099999Y-94257200D01*
X196099999Y-94257200D02*
X196147618Y-94161961D01*
X196147618Y-94161961D02*
X196147618Y-94066723D01*
X196147618Y-94066723D02*
X196099999Y-93971485D01*
X196099999Y-93971485D02*
X196004761Y-93923866D01*
X196004761Y-93923866D02*
X195766666Y-93923866D01*
X195766666Y-93923866D02*
X195671428Y-93876247D01*
X195338094Y-93638152D02*
X194957142Y-93638152D01*
X195195237Y-93304819D02*
X195195237Y-94161961D01*
X195195237Y-94161961D02*
X195147618Y-94257200D01*
X195147618Y-94257200D02*
X195052380Y-94304819D01*
X195052380Y-94304819D02*
X194957142Y-94304819D01*
X194671427Y-93400057D02*
X194623808Y-93352438D01*
X194623808Y-93352438D02*
X194528570Y-93304819D01*
X194528570Y-93304819D02*
X194290475Y-93304819D01*
X194290475Y-93304819D02*
X194195237Y-93352438D01*
X194195237Y-93352438D02*
X194147618Y-93400057D01*
X194147618Y-93400057D02*
X194099999Y-93495295D01*
X194099999Y-93495295D02*
X194099999Y-93590533D01*
X194099999Y-93590533D02*
X194147618Y-93733390D01*
X194147618Y-93733390D02*
X194719046Y-94304819D01*
X194719046Y-94304819D02*
X194099999Y-94304819D01*
X209768452Y-92909819D02*
X209768452Y-91909819D01*
X209768452Y-91909819D02*
X209530357Y-91909819D01*
X209530357Y-91909819D02*
X209387500Y-91957438D01*
X209387500Y-91957438D02*
X209292262Y-92052676D01*
X209292262Y-92052676D02*
X209244643Y-92147914D01*
X209244643Y-92147914D02*
X209197024Y-92338390D01*
X209197024Y-92338390D02*
X209197024Y-92481247D01*
X209197024Y-92481247D02*
X209244643Y-92671723D01*
X209244643Y-92671723D02*
X209292262Y-92766961D01*
X209292262Y-92766961D02*
X209387500Y-92862200D01*
X209387500Y-92862200D02*
X209530357Y-92909819D01*
X209530357Y-92909819D02*
X209768452Y-92909819D01*
X208768452Y-92909819D02*
X208768452Y-92243152D01*
X208768452Y-91909819D02*
X208816071Y-91957438D01*
X208816071Y-91957438D02*
X208768452Y-92005057D01*
X208768452Y-92005057D02*
X208720833Y-91957438D01*
X208720833Y-91957438D02*
X208768452Y-91909819D01*
X208768452Y-91909819D02*
X208768452Y-92005057D01*
X208387500Y-92243152D02*
X208149405Y-92909819D01*
X208149405Y-92909819D02*
X207911310Y-92243152D01*
X207768453Y-93005057D02*
X207006548Y-93005057D01*
X206768452Y-92909819D02*
X206768452Y-92243152D01*
X206768452Y-92433628D02*
X206720833Y-92338390D01*
X206720833Y-92338390D02*
X206673214Y-92290771D01*
X206673214Y-92290771D02*
X206577976Y-92243152D01*
X206577976Y-92243152D02*
X206482738Y-92243152D01*
X205768452Y-92862200D02*
X205863690Y-92909819D01*
X205863690Y-92909819D02*
X206054166Y-92909819D01*
X206054166Y-92909819D02*
X206149404Y-92862200D01*
X206149404Y-92862200D02*
X206197023Y-92766961D01*
X206197023Y-92766961D02*
X206197023Y-92386009D01*
X206197023Y-92386009D02*
X206149404Y-92290771D01*
X206149404Y-92290771D02*
X206054166Y-92243152D01*
X206054166Y-92243152D02*
X205863690Y-92243152D01*
X205863690Y-92243152D02*
X205768452Y-92290771D01*
X205768452Y-92290771D02*
X205720833Y-92386009D01*
X205720833Y-92386009D02*
X205720833Y-92481247D01*
X205720833Y-92481247D02*
X206197023Y-92576485D01*
X205339880Y-92862200D02*
X205244642Y-92909819D01*
X205244642Y-92909819D02*
X205054166Y-92909819D01*
X205054166Y-92909819D02*
X204958928Y-92862200D01*
X204958928Y-92862200D02*
X204911309Y-92766961D01*
X204911309Y-92766961D02*
X204911309Y-92719342D01*
X204911309Y-92719342D02*
X204958928Y-92624104D01*
X204958928Y-92624104D02*
X205054166Y-92576485D01*
X205054166Y-92576485D02*
X205197023Y-92576485D01*
X205197023Y-92576485D02*
X205292261Y-92528866D01*
X205292261Y-92528866D02*
X205339880Y-92433628D01*
X205339880Y-92433628D02*
X205339880Y-92386009D01*
X205339880Y-92386009D02*
X205292261Y-92290771D01*
X205292261Y-92290771D02*
X205197023Y-92243152D01*
X205197023Y-92243152D02*
X205054166Y-92243152D01*
X205054166Y-92243152D02*
X204958928Y-92290771D01*
X204720833Y-93005057D02*
X203958928Y-93005057D01*
X203720832Y-92909819D02*
X203720832Y-92243152D01*
X203720832Y-92433628D02*
X203673213Y-92338390D01*
X203673213Y-92338390D02*
X203625594Y-92290771D01*
X203625594Y-92290771D02*
X203530356Y-92243152D01*
X203530356Y-92243152D02*
X203435118Y-92243152D01*
X202720832Y-92862200D02*
X202816070Y-92909819D01*
X202816070Y-92909819D02*
X203006546Y-92909819D01*
X203006546Y-92909819D02*
X203101784Y-92862200D01*
X203101784Y-92862200D02*
X203149403Y-92766961D01*
X203149403Y-92766961D02*
X203149403Y-92386009D01*
X203149403Y-92386009D02*
X203101784Y-92290771D01*
X203101784Y-92290771D02*
X203006546Y-92243152D01*
X203006546Y-92243152D02*
X202816070Y-92243152D01*
X202816070Y-92243152D02*
X202720832Y-92290771D01*
X202720832Y-92290771D02*
X202673213Y-92386009D01*
X202673213Y-92386009D02*
X202673213Y-92481247D01*
X202673213Y-92481247D02*
X203149403Y-92576485D01*
X201816070Y-92243152D02*
X201816070Y-93052676D01*
X201816070Y-93052676D02*
X201863689Y-93147914D01*
X201863689Y-93147914D02*
X201911308Y-93195533D01*
X201911308Y-93195533D02*
X202006546Y-93243152D01*
X202006546Y-93243152D02*
X202149403Y-93243152D01*
X202149403Y-93243152D02*
X202244641Y-93195533D01*
X201816070Y-92862200D02*
X201911308Y-92909819D01*
X201911308Y-92909819D02*
X202101784Y-92909819D01*
X202101784Y-92909819D02*
X202197022Y-92862200D01*
X202197022Y-92862200D02*
X202244641Y-92814580D01*
X202244641Y-92814580D02*
X202292260Y-92719342D01*
X202292260Y-92719342D02*
X202292260Y-92433628D01*
X202292260Y-92433628D02*
X202244641Y-92338390D01*
X202244641Y-92338390D02*
X202197022Y-92290771D01*
X202197022Y-92290771D02*
X202101784Y-92243152D01*
X202101784Y-92243152D02*
X201911308Y-92243152D01*
X201911308Y-92243152D02*
X201816070Y-92290771D01*
X201387498Y-92005057D02*
X201339879Y-91957438D01*
X201339879Y-91957438D02*
X201244641Y-91909819D01*
X201244641Y-91909819D02*
X201006546Y-91909819D01*
X201006546Y-91909819D02*
X200911308Y-91957438D01*
X200911308Y-91957438D02*
X200863689Y-92005057D01*
X200863689Y-92005057D02*
X200816070Y-92100295D01*
X200816070Y-92100295D02*
X200816070Y-92195533D01*
X200816070Y-92195533D02*
X200863689Y-92338390D01*
X200863689Y-92338390D02*
X201435117Y-92909819D01*
X201435117Y-92909819D02*
X200816070Y-92909819D01*
X199958927Y-92909819D02*
X199958927Y-92386009D01*
X199958927Y-92386009D02*
X200006546Y-92290771D01*
X200006546Y-92290771D02*
X200101784Y-92243152D01*
X200101784Y-92243152D02*
X200292260Y-92243152D01*
X200292260Y-92243152D02*
X200387498Y-92290771D01*
X199958927Y-92862200D02*
X200054165Y-92909819D01*
X200054165Y-92909819D02*
X200292260Y-92909819D01*
X200292260Y-92909819D02*
X200387498Y-92862200D01*
X200387498Y-92862200D02*
X200435117Y-92766961D01*
X200435117Y-92766961D02*
X200435117Y-92671723D01*
X200435117Y-92671723D02*
X200387498Y-92576485D01*
X200387498Y-92576485D02*
X200292260Y-92528866D01*
X200292260Y-92528866D02*
X200054165Y-92528866D01*
X200054165Y-92528866D02*
X199958927Y-92481247D01*
X198958927Y-92909819D02*
X199530355Y-92909819D01*
X199244641Y-92909819D02*
X199244641Y-91909819D01*
X199244641Y-91909819D02*
X199339879Y-92052676D01*
X199339879Y-92052676D02*
X199435117Y-92147914D01*
X199435117Y-92147914D02*
X199530355Y-92195533D01*
D12*
%TO.C,C8*%
X205612164Y-87240000D02*
X205827836Y-87240000D01*
X205612164Y-87960000D02*
X205827836Y-87960000D01*
%TO.C,C15*%
X198940000Y-80627836D02*
X198940000Y-80412164D01*
X199660000Y-80627836D02*
X199660000Y-80412164D01*
%TO.C,C10*%
X205612164Y-88240000D02*
X205827836Y-88240000D01*
X205612164Y-88960000D02*
X205827836Y-88960000D01*
%TO.C,Div_res_reg1a1*%
X200065000Y-98839564D02*
X200065000Y-98385436D01*
X201535000Y-98839564D02*
X201535000Y-98385436D01*
%TO.C,R6*%
X179765000Y-93960436D02*
X179765000Y-94414564D01*
X181235000Y-93960436D02*
X181235000Y-94414564D01*
%TO.C,CBAR_2*%
X203307836Y-77240000D02*
X203092164Y-77240000D01*
X203307836Y-77960000D02*
X203092164Y-77960000D01*
%TO.C,CIIM_1*%
X190307836Y-74240000D02*
X190092164Y-74240000D01*
X190307836Y-74960000D02*
X190092164Y-74960000D01*
%TO.C,C14*%
X198640000Y-92512164D02*
X198640000Y-92727836D01*
X199360000Y-92512164D02*
X199360000Y-92727836D01*
%TO.C,Div_res_bat1*%
X200765000Y-92572936D02*
X200765000Y-93027064D01*
X202235000Y-92572936D02*
X202235000Y-93027064D01*
%TO.C,R8*%
X182065000Y-94414564D02*
X182065000Y-93960436D01*
X183535000Y-94414564D02*
X183535000Y-93960436D01*
D13*
%TO.C,A1*%
X199625000Y-73500000D02*
X199630000Y-73500000D01*
X199625000Y-76500000D02*
X199625000Y-73500000D01*
X199630000Y-76500000D02*
X199625000Y-76500000D01*
X204625000Y-73500000D02*
X204620000Y-73500000D01*
X204625000Y-73500000D02*
X204625000Y-76500000D01*
X204625000Y-76500000D02*
X204620000Y-76500000D01*
D14*
X200350000Y-72350000D02*
G75*
G02*
X200150000Y-72350000I-100000J0D01*
G01*
X200150000Y-72350000D02*
G75*
G02*
X200350000Y-72350000I100000J0D01*
G01*
D12*
%TO.C,CX_1*%
X193565000Y-84061252D02*
X193565000Y-83538748D01*
X195035000Y-84061252D02*
X195035000Y-83538748D01*
%TO.C,C6*%
X194307836Y-87340000D02*
X194092164Y-87340000D01*
X194307836Y-88060000D02*
X194092164Y-88060000D01*
%TO.C,U4*%
X204890000Y-65540000D02*
X204890000Y-64790000D01*
X204890000Y-66660000D02*
X204890000Y-67710000D01*
X210110000Y-65540000D02*
X210110000Y-64490000D01*
X210110000Y-66660000D02*
X210110000Y-67710000D01*
X204890000Y-64490000D02*
X204700000Y-64630000D01*
X204700000Y-64350000D01*
X204890000Y-64490000D01*
G36*
X204890000Y-64490000D02*
G01*
X204700000Y-64630000D01*
X204700000Y-64350000D01*
X204890000Y-64490000D01*
G37*
%TO.C,CADXL_1*%
X203640000Y-64707836D02*
X203640000Y-64492164D01*
X204360000Y-64707836D02*
X204360000Y-64492164D01*
%TO.C,C11*%
X204092164Y-90640000D02*
X204307836Y-90640000D01*
X204092164Y-91360000D02*
X204307836Y-91360000D01*
%TO.C,U1*%
X191940000Y-72365000D02*
X192515000Y-72365000D01*
X191940000Y-72940000D02*
X191940000Y-72365000D01*
X191940000Y-77010000D02*
X191940000Y-77585000D01*
X191940000Y-77585000D02*
X192515000Y-77585000D01*
X196585000Y-77585000D02*
X196920000Y-77585000D01*
X197160000Y-72365000D02*
X196585000Y-72365000D01*
X197160000Y-72940000D02*
X197160000Y-72365000D01*
X197160000Y-77010000D02*
X197160000Y-77285000D01*
X197490000Y-77825000D02*
X197160000Y-77585000D01*
X197490000Y-77345000D01*
X197490000Y-77825000D01*
G36*
X197490000Y-77825000D02*
G01*
X197160000Y-77585000D01*
X197490000Y-77345000D01*
X197490000Y-77825000D01*
G37*
%TO.C,CIIM_2*%
X198040000Y-74292164D02*
X198040000Y-74507836D01*
X198760000Y-74292164D02*
X198760000Y-74507836D01*
%TO.C,CADXL_2*%
X212738748Y-64265000D02*
X213261252Y-64265000D01*
X212738748Y-65735000D02*
X213261252Y-65735000D01*
%TO.C,CIIM_3*%
X190307836Y-73040000D02*
X190092164Y-73040000D01*
X190307836Y-73760000D02*
X190092164Y-73760000D01*
%TO.C,C13*%
X194307836Y-86140000D02*
X194092164Y-86140000D01*
X194307836Y-86860000D02*
X194092164Y-86860000D01*
%TO.C,R7*%
X177565000Y-93960436D02*
X177565000Y-94414564D01*
X179035000Y-93960436D02*
X179035000Y-94414564D01*
%TO.C,C9*%
X205612164Y-86240000D02*
X205827836Y-86240000D01*
X205612164Y-86960000D02*
X205827836Y-86960000D01*
%TO.C,C7*%
X205612164Y-85240000D02*
X205827836Y-85240000D01*
X205612164Y-85960000D02*
X205827836Y-85960000D01*
%TO.C,CPS_2*%
X213738748Y-88965000D02*
X214261252Y-88965000D01*
X213738748Y-90435000D02*
X214261252Y-90435000D01*
%TO.C,Div_res_reg1b1*%
X204639564Y-97965000D02*
X204185436Y-97965000D01*
X204639564Y-99435000D02*
X204185436Y-99435000D01*
%TO.C,Div_res_reg2b1*%
X204614564Y-95360000D02*
X204160436Y-95360000D01*
X204614564Y-96830000D02*
X204160436Y-96830000D01*
%TO.C,CXB_2*%
X154784420Y-92290000D02*
X155065580Y-92290000D01*
X154784420Y-93310000D02*
X155065580Y-93310000D01*
%TO.C,CXB_1*%
X154777811Y-93886604D02*
X155058971Y-93886604D01*
X154777811Y-94906604D02*
X155058971Y-94906604D01*
%TO.C,CBAR_1*%
X199840000Y-71907836D02*
X199840000Y-71692164D01*
X200560000Y-71907836D02*
X200560000Y-71692164D01*
%TO.C,Div_res_bat2*%
X198827064Y-94765000D02*
X198372936Y-94765000D01*
X198827064Y-96235000D02*
X198372936Y-96235000D01*
%TO.C,CFLASH_1*%
X208807836Y-85940000D02*
X208592164Y-85940000D01*
X208807836Y-86660000D02*
X208592164Y-86660000D01*
%TO.C,Div_res_reg2a1*%
X204614564Y-93370000D02*
X204160436Y-93370000D01*
X204614564Y-94840000D02*
X204160436Y-94840000D01*
%TO.C,C12*%
X205612164Y-89240000D02*
X205827836Y-89240000D01*
X205612164Y-89960000D02*
X205827836Y-89960000D01*
%TO.C,CIIM_4*%
X190440000Y-76292164D02*
X190440000Y-76507836D01*
X191160000Y-76292164D02*
X191160000Y-76507836D01*
%TD*%
M02*
