%TF.GenerationSoftware,KiCad,Pcbnew,9.0.6*%
%TF.CreationDate,2026-04-11T19:46:43-03:00*%
%TF.ProjectId,flight_comp_srad-2026,666c6967-6874-45f6-936f-6d705f737261,rev?*%
%TF.SameCoordinates,Original*%
%TF.FileFunction,Soldermask,Bot*%
%TF.FilePolarity,Negative*%
%FSLAX46Y46*%
G04 Gerber Fmt 4.6, Leading zero omitted, Abs format (unit mm)*
G04 Created by KiCad (PCBNEW 9.0.6) date 2026-04-11 19:46:43*
%MOMM*%
%LPD*%
G01*
G04 APERTURE LIST*
G04 Aperture macros list*
%AMRoundRect*
0 Rectangle with rounded corners*
0 $1 Rounding radius*
0 $2 $3 $4 $5 $6 $7 $8 $9 X,Y pos of 4 corners*
0 Add a 4 corners polygon primitive as box body*
4,1,4,$2,$3,$4,$5,$6,$7,$8,$9,$2,$3,0*
0 Add four circle primitives for the rounded corners*
1,1,$1+$1,$2,$3*
1,1,$1+$1,$4,$5*
1,1,$1+$1,$6,$7*
1,1,$1+$1,$8,$9*
0 Add four rect primitives between the rounded corners*
20,1,$1+$1,$2,$3,$4,$5,0*
20,1,$1+$1,$4,$5,$6,$7,0*
20,1,$1+$1,$6,$7,$8,$9,0*
20,1,$1+$1,$8,$9,$2,$3,0*%
G04 Aperture macros list end*
%ADD10C,3.000000*%
%ADD11R,2.000000X2.000000*%
%ADD12C,2.000000*%
%ADD13RoundRect,0.200000X0.200000X0.275000X-0.200000X0.275000X-0.200000X-0.275000X0.200000X-0.275000X0*%
%ADD14RoundRect,0.250000X0.262500X0.450000X-0.262500X0.450000X-0.262500X-0.450000X0.262500X-0.450000X0*%
%ADD15RoundRect,0.140000X0.140000X0.170000X-0.140000X0.170000X-0.140000X-0.170000X0.140000X-0.170000X0*%
%ADD16RoundRect,0.140000X0.170000X-0.140000X0.170000X0.140000X-0.170000X0.140000X-0.170000X-0.140000X0*%
%ADD17RoundRect,0.140000X-0.140000X-0.170000X0.140000X-0.170000X0.140000X0.170000X-0.140000X0.170000X0*%
%ADD18O,1.700000X1.350000*%
%ADD19O,1.500000X1.100000*%
%ADD20RoundRect,0.250000X-0.450000X0.262500X-0.450000X-0.262500X0.450000X-0.262500X0.450000X0.262500X0*%
%ADD21RoundRect,0.102000X0.700000X-0.700000X0.700000X0.700000X-0.700000X0.700000X-0.700000X-0.700000X0*%
%ADD22C,1.604000*%
%ADD23RoundRect,0.250000X0.450000X-0.262500X0.450000X0.262500X-0.450000X0.262500X-0.450000X-0.262500X0*%
%ADD24RoundRect,0.140000X-0.170000X0.140000X-0.170000X-0.140000X0.170000X-0.140000X0.170000X0.140000X0*%
%ADD25RoundRect,0.200000X-0.275000X0.200000X-0.275000X-0.200000X0.275000X-0.200000X0.275000X0.200000X0*%
%ADD26RoundRect,0.250000X0.475000X-0.250000X0.475000X0.250000X-0.475000X0.250000X-0.475000X-0.250000X0*%
%ADD27RoundRect,0.102000X-0.300000X0.550000X-0.300000X-0.550000X0.300000X-0.550000X0.300000X0.550000X0*%
%ADD28RoundRect,0.150000X-0.150000X0.325000X-0.150000X-0.325000X0.150000X-0.325000X0.150000X0.325000X0*%
%ADD29RoundRect,0.150000X-0.325000X0.150000X-0.325000X-0.150000X0.325000X-0.150000X0.325000X0.150000X0*%
%ADD30RoundRect,0.250000X-0.250000X-0.475000X0.250000X-0.475000X0.250000X0.475000X-0.250000X0.475000X0*%
%ADD31RoundRect,0.150000X0.587500X0.150000X-0.587500X0.150000X-0.587500X-0.150000X0.587500X-0.150000X0*%
%ADD32RoundRect,0.044080X0.187920X-0.515420X0.187920X0.515420X-0.187920X0.515420X-0.187920X-0.515420X0*%
%ADD33RoundRect,0.044080X0.515420X-0.187920X0.515420X0.187920X-0.515420X0.187920X-0.515420X-0.187920X0*%
%ADD34RoundRect,0.102000X1.470000X-1.470000X1.470000X1.470000X-1.470000X1.470000X-1.470000X-1.470000X0*%
%ADD35C,1.000000*%
G04 APERTURE END LIST*
D10*
%TO.C,H5*%
X163000000Y-86000000D03*
%TD*%
%TO.C,H1*%
X163000000Y-69500000D03*
%TD*%
D11*
%TO.C,LS1*%
X202970785Y-68400000D03*
D12*
X197970785Y-68400000D03*
%TD*%
D13*
%TO.C,RI2C_2*%
X205380000Y-70770000D03*
X203730000Y-70770000D03*
%TD*%
D14*
%TO.C,Div_res_bat2*%
X199512500Y-95500000D03*
X197687500Y-95500000D03*
%TD*%
D15*
%TO.C,CFLASH_1*%
X210130000Y-85560000D03*
X209170000Y-85560000D03*
%TD*%
D14*
%TO.C,Div_res_reg2a1*%
X205300000Y-94105000D03*
X203475000Y-94105000D03*
%TD*%
D16*
%TO.C,CIIM_1*%
X188300000Y-73280000D03*
X188300000Y-72320000D03*
%TD*%
D17*
%TO.C,C12*%
X205240000Y-89600000D03*
X206200000Y-89600000D03*
%TD*%
D11*
%TO.C,J2*%
X191320000Y-98700000D03*
D12*
X193860000Y-98700000D03*
X196400000Y-98700000D03*
%TD*%
D10*
%TO.C,H8*%
X218100000Y-97500000D03*
%TD*%
%TO.C,H7*%
X218200000Y-63300000D03*
%TD*%
D11*
%TO.C,J5*%
X217680000Y-84430000D03*
D12*
X217680000Y-86970000D03*
%TD*%
D18*
%TO.C,J3*%
X219355000Y-80355000D03*
D19*
X216355000Y-80045000D03*
X216355000Y-75205000D03*
D18*
X219355000Y-74895000D03*
%TD*%
D10*
%TO.C,H6*%
X153900000Y-63200000D03*
%TD*%
D20*
%TO.C,R2*%
X195550000Y-64430000D03*
X195550000Y-66255000D03*
%TD*%
D21*
%TO.C,U7*%
X154250000Y-96400000D03*
D22*
X156250000Y-96400000D03*
X158250000Y-96400000D03*
X160250000Y-96400000D03*
X162250000Y-96400000D03*
X164250000Y-96400000D03*
X166250000Y-96400000D03*
X168250000Y-96400000D03*
X170250000Y-96400000D03*
X172250000Y-96400000D03*
X172250000Y-74400000D03*
X170250000Y-74400000D03*
X168250000Y-74400000D03*
X166250000Y-74400000D03*
X164250000Y-74400000D03*
X162250000Y-74400000D03*
X160250000Y-74400000D03*
X158250000Y-74400000D03*
X156250000Y-74400000D03*
X154250000Y-74400000D03*
%TD*%
D13*
%TO.C,RSPI_2*%
X196665000Y-77890000D03*
X195015000Y-77890000D03*
%TD*%
D20*
%TO.C,R6*%
X180500000Y-93275000D03*
X180500000Y-95100000D03*
%TD*%
D17*
%TO.C,C10*%
X205240000Y-88600000D03*
X206200000Y-88600000D03*
%TD*%
D23*
%TO.C,R1*%
X207560000Y-73452500D03*
X207560000Y-71627500D03*
%TD*%
D17*
%TO.C,C8*%
X205240000Y-87600000D03*
X206200000Y-87600000D03*
%TD*%
D23*
%TO.C,Div_res_reg1a1*%
X200800000Y-99525000D03*
X200800000Y-97700000D03*
%TD*%
D15*
%TO.C,CBAR_2*%
X203680000Y-77600000D03*
X202720000Y-77600000D03*
%TD*%
D16*
%TO.C,CIIM_4*%
X190050000Y-72670000D03*
X190050000Y-71710000D03*
%TD*%
D24*
%TO.C,CIIM_2*%
X189960000Y-74730000D03*
X189960000Y-75690000D03*
%TD*%
D25*
%TO.C,RI2C_1*%
X200620000Y-67390000D03*
X200620000Y-69040000D03*
%TD*%
D26*
%TO.C,CX_1*%
X194300000Y-84750000D03*
X194300000Y-82850000D03*
%TD*%
D23*
%TO.C,R8*%
X182800000Y-95100000D03*
X182800000Y-93275000D03*
%TD*%
D24*
%TO.C,C14*%
X199000000Y-92140000D03*
X199000000Y-93100000D03*
%TD*%
D25*
%TO.C,RSPI_1*%
X188450000Y-76055000D03*
X188450000Y-77705000D03*
%TD*%
D20*
%TO.C,Div_res_bat1*%
X201500000Y-91887500D03*
X201500000Y-93712500D03*
%TD*%
D24*
%TO.C,CIIM_3*%
X197400000Y-72630000D03*
X197400000Y-73590000D03*
%TD*%
D27*
%TO.C,A1*%
X200250000Y-73900000D03*
X201500000Y-73900000D03*
X202750000Y-73900000D03*
X204000000Y-73900000D03*
X204000000Y-76100000D03*
X202750000Y-76100000D03*
X201500000Y-76100000D03*
X200250000Y-76100000D03*
%TD*%
D15*
%TO.C,C6*%
X194680000Y-87700000D03*
X193720000Y-87700000D03*
%TD*%
D28*
%TO.C,U4*%
X205500000Y-65100000D03*
X206300000Y-65100000D03*
X207100000Y-65100000D03*
X207900000Y-65100000D03*
X208700000Y-65100000D03*
X209500000Y-65100000D03*
D29*
X209500000Y-66100000D03*
D28*
X209500000Y-67100000D03*
X208700000Y-67100000D03*
X207900000Y-67100000D03*
X207100000Y-67100000D03*
X206300000Y-67100000D03*
X205500000Y-67100000D03*
D29*
X205500000Y-66100000D03*
%TD*%
D30*
%TO.C,CADXL_2*%
X211540000Y-65010000D03*
X213440000Y-65010000D03*
%TD*%
D16*
%TO.C,CADXL_1*%
X204000000Y-65080000D03*
X204000000Y-64120000D03*
%TD*%
D31*
%TO.C,Q1*%
X200155000Y-63460000D03*
X200155000Y-65360000D03*
X198280000Y-64410000D03*
%TD*%
D15*
%TO.C,C13*%
X194680000Y-86500000D03*
X193720000Y-86500000D03*
%TD*%
D17*
%TO.C,C11*%
X203720000Y-91000000D03*
X204680000Y-91000000D03*
%TD*%
D32*
%TO.C,U1*%
X194780000Y-75702500D03*
X194280000Y-75702500D03*
X193780000Y-75702500D03*
X193280000Y-75702500D03*
X192780000Y-75702500D03*
X192280000Y-75702500D03*
D33*
X191372500Y-74795000D03*
X191372500Y-74295000D03*
X191372500Y-73795000D03*
X191372500Y-73295000D03*
X191372500Y-72795000D03*
X191372500Y-72295000D03*
D32*
X192280000Y-71387500D03*
X192780000Y-71387500D03*
X193280000Y-71387500D03*
X193780000Y-71387500D03*
X194280000Y-71387500D03*
X194780000Y-71387500D03*
D33*
X195687500Y-72295000D03*
X195687500Y-72795000D03*
X195687500Y-73295000D03*
X195687500Y-73795000D03*
X195687500Y-74295000D03*
X195687500Y-74795000D03*
D34*
X193530000Y-73545000D03*
%TD*%
D30*
%TO.C,CXB_1*%
X154210000Y-94210000D03*
X156110000Y-94210000D03*
%TD*%
D20*
%TO.C,R7*%
X178300000Y-93275000D03*
X178300000Y-95100000D03*
%TD*%
D17*
%TO.C,C9*%
X205240000Y-86600000D03*
X206200000Y-86600000D03*
%TD*%
D30*
%TO.C,CPS_2*%
X213050000Y-89700000D03*
X214950000Y-89700000D03*
%TD*%
D17*
%TO.C,C7*%
X205240000Y-85600000D03*
X206200000Y-85600000D03*
%TD*%
D14*
%TO.C,Div_res_reg1b1*%
X205325000Y-98700000D03*
X203500000Y-98700000D03*
%TD*%
D30*
%TO.C,CXB_2*%
X154210000Y-92070000D03*
X156110000Y-92070000D03*
%TD*%
D14*
%TO.C,Div_res_reg2b1*%
X205300000Y-96095000D03*
X203475000Y-96095000D03*
%TD*%
D16*
%TO.C,CBAR_1*%
X200200000Y-72280000D03*
X200200000Y-71320000D03*
%TD*%
D35*
%TO.C,TP3*%
X205270000Y-83660000D03*
%TD*%
M02*
