%TF.GenerationSoftware,KiCad,Pcbnew,9.0.6*%
%TF.CreationDate,2026-02-22T02:31:48-03:00*%
%TF.ProjectId,flight_comp_srad-2026,666c6967-6874-45f6-936f-6d705f737261,rev?*%
%TF.SameCoordinates,Original*%
%TF.FileFunction,Copper,L1,Top*%
%TF.FilePolarity,Positive*%
%FSLAX46Y46*%
G04 Gerber Fmt 4.6, Leading zero omitted, Abs format (unit mm)*
G04 Created by KiCad (PCBNEW 9.0.6) date 2026-02-22 02:31:48*
%MOMM*%
%LPD*%
G01*
G04 APERTURE LIST*
G04 Aperture macros list*
%AMRoundRect*
0 Rectangle with rounded corners*
0 $1 Rounding radius*
0 $2 $3 $4 $5 $6 $7 $8 $9 X,Y pos of 4 corners*
0 Add a 4 corners polygon primitive as box body*
4,1,4,$2,$3,$4,$5,$6,$7,$8,$9,$2,$3,0*
0 Add four circle primitives for the rounded corners*
1,1,$1+$1,$2,$3*
1,1,$1+$1,$4,$5*
1,1,$1+$1,$6,$7*
1,1,$1+$1,$8,$9*
0 Add four rect primitives between the rounded corners*
20,1,$1+$1,$2,$3,$4,$5,0*
20,1,$1+$1,$4,$5,$6,$7,0*
20,1,$1+$1,$6,$7,$8,$9,0*
20,1,$1+$1,$8,$9,$2,$3,0*%
G04 Aperture macros list end*
%TA.AperFunction,Conductor*%
%ADD10C,0.700000*%
%TD*%
%TA.AperFunction,SMDPad,CuDef*%
%ADD11R,1.050000X0.650000*%
%TD*%
%TA.AperFunction,SMDPad,CuDef*%
%ADD12RoundRect,0.200000X0.200000X0.275000X-0.200000X0.275000X-0.200000X-0.275000X0.200000X-0.275000X0*%
%TD*%
%TA.AperFunction,ComponentPad*%
%ADD13R,2.000000X2.000000*%
%TD*%
%TA.AperFunction,ComponentPad*%
%ADD14C,2.000000*%
%TD*%
%TA.AperFunction,SMDPad,CuDef*%
%ADD15RoundRect,0.140000X0.170000X-0.140000X0.170000X0.140000X-0.170000X0.140000X-0.170000X-0.140000X0*%
%TD*%
%TA.AperFunction,SMDPad,CuDef*%
%ADD16RoundRect,0.135000X-0.135000X-0.185000X0.135000X-0.185000X0.135000X0.185000X-0.135000X0.185000X0*%
%TD*%
%TA.AperFunction,SMDPad,CuDef*%
%ADD17RoundRect,0.050000X-0.050000X0.387500X-0.050000X-0.387500X0.050000X-0.387500X0.050000X0.387500X0*%
%TD*%
%TA.AperFunction,SMDPad,CuDef*%
%ADD18RoundRect,0.050000X-0.387500X0.050000X-0.387500X-0.050000X0.387500X-0.050000X0.387500X0.050000X0*%
%TD*%
%TA.AperFunction,HeatsinkPad*%
%ADD19C,0.600000*%
%TD*%
%TA.AperFunction,HeatsinkPad*%
%ADD20R,3.200000X3.200000*%
%TD*%
%TA.AperFunction,SMDPad,CuDef*%
%ADD21RoundRect,0.140000X-0.140000X-0.170000X0.140000X-0.170000X0.140000X0.170000X-0.140000X0.170000X0*%
%TD*%
%TA.AperFunction,SMDPad,CuDef*%
%ADD22RoundRect,0.250000X0.250000X0.475000X-0.250000X0.475000X-0.250000X-0.475000X0.250000X-0.475000X0*%
%TD*%
%TA.AperFunction,SMDPad,CuDef*%
%ADD23RoundRect,0.250000X-0.450000X0.262500X-0.450000X-0.262500X0.450000X-0.262500X0.450000X0.262500X0*%
%TD*%
%TA.AperFunction,SMDPad,CuDef*%
%ADD24R,0.700000X1.100000*%
%TD*%
%TA.AperFunction,SMDPad,CuDef*%
%ADD25R,0.900000X0.930000*%
%TD*%
%TA.AperFunction,SMDPad,CuDef*%
%ADD26R,1.050000X0.780000*%
%TD*%
%TA.AperFunction,SMDPad,CuDef*%
%ADD27R,1.140000X1.830000*%
%TD*%
%TA.AperFunction,SMDPad,CuDef*%
%ADD28R,0.860000X2.800000*%
%TD*%
%TA.AperFunction,SMDPad,CuDef*%
%ADD29R,0.700000X3.330000*%
%TD*%
%TA.AperFunction,SMDPad,CuDef*%
%ADD30RoundRect,0.150000X-0.150000X0.950000X-0.150000X-0.950000X0.150000X-0.950000X0.150000X0.950000X0*%
%TD*%
%TA.AperFunction,SMDPad,CuDef*%
%ADD31RoundRect,0.537500X-1.187500X0.537500X-1.187500X-0.537500X1.187500X-0.537500X1.187500X0.537500X0*%
%TD*%
%TA.AperFunction,SMDPad,CuDef*%
%ADD32RoundRect,0.250000X0.262500X0.450000X-0.262500X0.450000X-0.262500X-0.450000X0.262500X-0.450000X0*%
%TD*%
%TA.AperFunction,SMDPad,CuDef*%
%ADD33RoundRect,0.250000X-0.262500X-0.450000X0.262500X-0.450000X0.262500X0.450000X-0.262500X0.450000X0*%
%TD*%
%TA.AperFunction,SMDPad,CuDef*%
%ADD34RoundRect,0.250000X-0.475000X0.250000X-0.475000X-0.250000X0.475000X-0.250000X0.475000X0.250000X0*%
%TD*%
%TA.AperFunction,SMDPad,CuDef*%
%ADD35R,0.700000X1.800000*%
%TD*%
%TA.AperFunction,SMDPad,CuDef*%
%ADD36R,0.800000X1.800000*%
%TD*%
%TA.AperFunction,SMDPad,CuDef*%
%ADD37RoundRect,0.218750X0.218750X0.256250X-0.218750X0.256250X-0.218750X-0.256250X0.218750X-0.256250X0*%
%TD*%
%TA.AperFunction,SMDPad,CuDef*%
%ADD38RoundRect,0.250000X0.450000X-0.262500X0.450000X0.262500X-0.450000X0.262500X-0.450000X-0.262500X0*%
%TD*%
%TA.AperFunction,SMDPad,CuDef*%
%ADD39R,1.050000X1.300000*%
%TD*%
%TA.AperFunction,SMDPad,CuDef*%
%ADD40R,1.650000X0.400000*%
%TD*%
%TA.AperFunction,SMDPad,CuDef*%
%ADD41R,0.700000X1.825000*%
%TD*%
%TA.AperFunction,SMDPad,CuDef*%
%ADD42R,1.500000X2.000000*%
%TD*%
%TA.AperFunction,SMDPad,CuDef*%
%ADD43R,2.000000X1.350000*%
%TD*%
%TA.AperFunction,HeatsinkPad*%
%ADD44O,1.700000X1.350000*%
%TD*%
%TA.AperFunction,HeatsinkPad*%
%ADD45O,1.500000X1.100000*%
%TD*%
%TA.AperFunction,SMDPad,CuDef*%
%ADD46R,2.500000X1.430000*%
%TD*%
%TA.AperFunction,ComponentPad*%
%ADD47R,1.400000X1.400000*%
%TD*%
%TA.AperFunction,ComponentPad*%
%ADD48C,1.400000*%
%TD*%
%TA.AperFunction,SMDPad,CuDef*%
%ADD49RoundRect,0.175000X-0.175000X-0.550000X0.175000X-0.550000X0.175000X0.550000X-0.175000X0.550000X0*%
%TD*%
%TA.AperFunction,SMDPad,CuDef*%
%ADD50RoundRect,0.318750X-0.318750X-0.406250X0.318750X-0.406250X0.318750X0.406250X-0.318750X0.406250X0*%
%TD*%
%TA.AperFunction,SMDPad,CuDef*%
%ADD51RoundRect,0.162500X-0.162500X0.650000X-0.162500X-0.650000X0.162500X-0.650000X0.162500X0.650000X0*%
%TD*%
%TA.AperFunction,SMDPad,CuDef*%
%ADD52R,0.800000X0.650000*%
%TD*%
%TA.AperFunction,SMDPad,CuDef*%
%ADD53R,0.800000X1.600000*%
%TD*%
%TA.AperFunction,ViaPad*%
%ADD54C,0.600000*%
%TD*%
%TA.AperFunction,ViaPad*%
%ADD55C,1.000000*%
%TD*%
%TA.AperFunction,Conductor*%
%ADD56C,0.200000*%
%TD*%
%TA.AperFunction,Conductor*%
%ADD57C,0.400000*%
%TD*%
%TA.AperFunction,Conductor*%
%ADD58C,0.500000*%
%TD*%
%TA.AperFunction,Conductor*%
%ADD59C,0.800000*%
%TD*%
%TA.AperFunction,Conductor*%
%ADD60C,0.300000*%
%TD*%
G04 APERTURE END LIST*
D10*
%TO.N,/RF_IN*%
X182247192Y-64702808D02*
G75*
G02*
X184475000Y-62474992I2227808J8D01*
G01*
X184480970Y-62475000D02*
X185550000Y-62475000D01*
X182247192Y-64702800D02*
X182247192Y-67550000D01*
%TD*%
D11*
%TO.P,S1,1,NO_1*%
%TO.N,/~{USB_BOOT}*%
X219100000Y-71400000D03*
%TO.P,S1,2,NO_2*%
X214950000Y-71400000D03*
%TO.P,S1,3,COM_1*%
%TO.N,GND*%
X219100000Y-69250000D03*
%TO.P,S1,4,COM_2*%
X214950000Y-69250000D03*
%TD*%
D12*
%TO.P,R3,1*%
%TO.N,/USB_D+*%
X209855000Y-86770000D03*
%TO.P,R3,2*%
%TO.N,/USB_R+*%
X208205000Y-86770000D03*
%TD*%
D13*
%TO.P,J2,1,1*%
%TO.N,GND*%
X191320000Y-98700000D03*
D14*
%TO.P,J2,2,2*%
%TO.N,/SWDIO*%
X193860000Y-98700000D03*
%TO.P,J2,3,3*%
%TO.N,/SWCLK*%
X196400000Y-98700000D03*
%TD*%
D15*
%TO.P,C15,1*%
%TO.N,+3V3*%
X199300000Y-80485000D03*
%TO.P,C15,2*%
%TO.N,GND*%
X199300000Y-79525000D03*
%TD*%
D16*
%TO.P,RI2C_2,1*%
%TO.N,/RP_SDA1*%
X200670000Y-80787500D03*
%TO.P,RI2C_2,2*%
%TO.N,+3V3*%
X201690000Y-80787500D03*
%TD*%
D17*
%TO.P,U3,1,IOVDD*%
%TO.N,+3V3*%
X202670000Y-82742500D03*
%TO.P,U3,2,GPIO0*%
%TO.N,/BUZZER*%
X202270000Y-82742500D03*
%TO.P,U3,3,GPIO1*%
%TO.N,unconnected-(U3-GPIO1-Pad3)*%
X201870000Y-82742500D03*
%TO.P,U3,4,GPIO2*%
%TO.N,/RP_SDA1*%
X201470000Y-82742500D03*
%TO.P,U3,5,GPIO3*%
%TO.N,/RP_SCL1*%
X201070000Y-82742500D03*
%TO.P,U3,6,GPIO4*%
%TO.N,unconnected-(U3-GPIO4-Pad6)*%
X200670000Y-82742500D03*
%TO.P,U3,7,GPIO5*%
%TO.N,unconnected-(U3-GPIO5-Pad7)*%
X200270000Y-82742500D03*
%TO.P,U3,8,GPIO6*%
%TO.N,unconnected-(U3-GPIO6-Pad8)*%
X199870000Y-82742500D03*
%TO.P,U3,9,GPIO7*%
%TO.N,unconnected-(U3-GPIO7-Pad9)*%
X199470000Y-82742500D03*
%TO.P,U3,10,IOVDD*%
%TO.N,+3V3*%
X199070000Y-82742500D03*
%TO.P,U3,11,GPIO8*%
%TO.N,/IIM_MISO1*%
X198670000Y-82742500D03*
%TO.P,U3,12,GPIO9*%
%TO.N,/IIM_CS1*%
X198270000Y-82742500D03*
%TO.P,U3,13,GPIO10*%
%TO.N,/IIM_SCLK1*%
X197870000Y-82742500D03*
%TO.P,U3,14,GPIO11*%
%TO.N,/IIM_MOSI1*%
X197470000Y-82742500D03*
D18*
%TO.P,U3,15,GPIO12*%
%TO.N,/RP_SDA0*%
X196632500Y-83580000D03*
%TO.P,U3,16,GPIO13*%
%TO.N,/RP_SCL0*%
X196632500Y-83980000D03*
%TO.P,U3,17,GPIO14*%
%TO.N,unconnected-(U3-GPIO14-Pad17)*%
X196632500Y-84380000D03*
%TO.P,U3,18,GPIO15*%
%TO.N,unconnected-(U3-GPIO15-Pad18)*%
X196632500Y-84780000D03*
%TO.P,U3,19,TESTEN*%
%TO.N,GND*%
X196632500Y-85180000D03*
%TO.P,U3,20,XIN*%
%TO.N,/XIN*%
X196632500Y-85580000D03*
%TO.P,U3,21,XOUT*%
%TO.N,/XOUT*%
X196632500Y-85980000D03*
%TO.P,U3,22,IOVDD*%
%TO.N,+3V3*%
X196632500Y-86380000D03*
%TO.P,U3,23,DVDD*%
%TO.N,+1V1*%
X196632500Y-86780000D03*
%TO.P,U3,24,SWCLK*%
%TO.N,/SWCLK*%
X196632500Y-87180000D03*
%TO.P,U3,25,SWD*%
%TO.N,/SWDIO*%
X196632500Y-87580000D03*
%TO.P,U3,26,RUN*%
%TO.N,/RUN*%
X196632500Y-87980000D03*
%TO.P,U3,27,GPIO16*%
%TO.N,/UART_Tx0*%
X196632500Y-88380000D03*
%TO.P,U3,28,GPIO17*%
%TO.N,/UART_Rx0*%
X196632500Y-88780000D03*
D17*
%TO.P,U3,29,GPIO18*%
%TO.N,/SD_CMD*%
X197470000Y-89617500D03*
%TO.P,U3,30,GPIO19*%
%TO.N,/SD_DAT0*%
X197870000Y-89617500D03*
%TO.P,U3,31,GPIO20*%
%TO.N,/SD_DAT1*%
X198270000Y-89617500D03*
%TO.P,U3,32,GPIO21*%
%TO.N,/SD_DAT2*%
X198670000Y-89617500D03*
%TO.P,U3,33,IOVDD*%
%TO.N,+3V3*%
X199070000Y-89617500D03*
%TO.P,U3,34,GPIO22*%
%TO.N,/SD_DAT3*%
X199470000Y-89617500D03*
%TO.P,U3,35,GPIO23*%
%TO.N,unconnected-(U3-GPIO23-Pad35)*%
X199870000Y-89617500D03*
%TO.P,U3,36,GPIO24*%
%TO.N,/LED_1*%
X200270000Y-89617500D03*
%TO.P,U3,37,GPIO25*%
%TO.N,/LED_2*%
X200670000Y-89617500D03*
%TO.P,U3,38,GPIO26_ADC0*%
%TO.N,unconnected-(U3-GPIO26_ADC0-Pad38)*%
X201070000Y-89617500D03*
%TO.P,U3,39,GPIO27_ADC1*%
%TO.N,unconnected-(U3-GPIO27_ADC1-Pad39)*%
X201470000Y-89617500D03*
%TO.P,U3,40,GPIO28_ADC2*%
%TO.N,/ADC_BAT*%
X201870000Y-89617500D03*
%TO.P,U3,41,GPIO29_ADC3*%
%TO.N,unconnected-(U3-GPIO29_ADC3-Pad41)*%
X202270000Y-89617500D03*
%TO.P,U3,42,IOVDD*%
%TO.N,+3V3*%
X202670000Y-89617500D03*
D18*
%TO.P,U3,43,ADC_AVDD*%
X203507500Y-88780000D03*
%TO.P,U3,44,VREG_IN*%
X203507500Y-88380000D03*
%TO.P,U3,45,VREG_VOUT*%
%TO.N,+1V1*%
X203507500Y-87980000D03*
%TO.P,U3,46,USB_DM*%
%TO.N,/USB_R-*%
X203507500Y-87580000D03*
%TO.P,U3,47,USB_DP*%
%TO.N,/USB_R+*%
X203507500Y-87180000D03*
%TO.P,U3,48,USB_VDD*%
%TO.N,+3V3*%
X203507500Y-86780000D03*
%TO.P,U3,49,IOVDD*%
X203507500Y-86380000D03*
%TO.P,U3,50,DVDD*%
%TO.N,+1V1*%
X203507500Y-85980000D03*
%TO.P,U3,51,QSPI_SD3*%
%TO.N,/QSPI_SD3*%
X203507500Y-85580000D03*
%TO.P,U3,52,QSPI_SCLK*%
%TO.N,/QSPI_SCLK*%
X203507500Y-85180000D03*
%TO.P,U3,53,QSPI_SD0*%
%TO.N,/QSPI_SD0*%
X203507500Y-84780000D03*
%TO.P,U3,54,QSPI_SD2*%
%TO.N,/QSPI_SD2*%
X203507500Y-84380000D03*
%TO.P,U3,55,QSPI_SD1*%
%TO.N,/QSPI_SD1*%
X203507500Y-83980000D03*
%TO.P,U3,56,QSPI_SS*%
%TO.N,/QSPI_SS*%
X203507500Y-83580000D03*
D19*
%TO.P,U3,57,GND*%
%TO.N,GND*%
X201420000Y-84830000D03*
X198720000Y-84830000D03*
D20*
X200070000Y-86180000D03*
D19*
X201420000Y-87530000D03*
X198720000Y-87530000D03*
%TD*%
D21*
%TO.P,CGPS_2,1*%
%TO.N,+3V3*%
X182242418Y-82400000D03*
%TO.P,CGPS_2,2*%
%TO.N,GND*%
X183202418Y-82400000D03*
%TD*%
D22*
%TO.P,CX_2,1*%
%TO.N,GND*%
X192450000Y-82700000D03*
%TO.P,CX_2,2*%
%TO.N,Net-(CX_2-Pad2)*%
X190550000Y-82700000D03*
%TD*%
D21*
%TO.P,C16,1*%
%TO.N,+3V3*%
X202660000Y-80820000D03*
%TO.P,C16,2*%
%TO.N,GND*%
X203620000Y-80820000D03*
%TD*%
D23*
%TO.P,RFLASH_1,1*%
%TO.N,+3V3*%
X211565000Y-67672500D03*
%TO.P,RFLASH_1,2*%
%TO.N,/QSPI_SS*%
X211565000Y-69497500D03*
%TD*%
D24*
%TO.P,J1,1,DAT2*%
%TO.N,/SD_DAT2*%
X184820000Y-98865000D03*
%TO.P,J1,2,CD/DAT3^2*%
%TO.N,/SD_DAT3*%
X183720000Y-98865000D03*
%TO.P,J1,3,CMD*%
%TO.N,/SD_CMD*%
X182620000Y-98865000D03*
%TO.P,J1,4,VDD*%
%TO.N,+3V3*%
X181520000Y-98865000D03*
%TO.P,J1,5,CLK*%
%TO.N,/SD_CLK*%
X180420000Y-98865000D03*
%TO.P,J1,6,VSS*%
%TO.N,GND*%
X179320000Y-98865000D03*
%TO.P,J1,7,DAT0*%
%TO.N,/SD_DAT0*%
X178220000Y-98865000D03*
%TO.P,J1,8,DAT1*%
%TO.N,/SD_DAT1*%
X177120000Y-98865000D03*
D25*
%TO.P,J1,9,VSS__1*%
%TO.N,GND*%
X186610000Y-86400000D03*
D26*
%TO.P,J1,10,DETECT_SWITCH*%
%TO.N,/SD_DS*%
X182345000Y-86325000D03*
D27*
%TO.P,J1,P1,SHIELD*%
%TO.N,GND*%
X188700000Y-98850000D03*
D28*
%TO.P,J1,P2,SHIELD__1*%
X176040000Y-98365000D03*
D29*
%TO.P,J1,P3,SHIELD__2*%
X188920000Y-87600000D03*
%TO.P,J1,P4,SHIELD__3*%
X175960000Y-87600000D03*
%TD*%
D30*
%TO.P,U8,1,IN*%
%TO.N,VBUS*%
X212540000Y-92700000D03*
%TO.P,U8,2,OUT*%
%TO.N,+3V3*%
X211270000Y-92700000D03*
%TO.P,U8,3,GND-1*%
%TO.N,GND*%
X210000000Y-92700000D03*
%TO.P,U8,4,NR/FB*%
%TO.N,NR_Reg*%
X208730000Y-92700000D03*
%TO.P,U8,5,EN*%
%TO.N,VBUS*%
X207460000Y-92700000D03*
D31*
%TO.P,U8,6,GND*%
%TO.N,GND*%
X210000000Y-99000000D03*
%TD*%
D22*
%TO.P,CPS_3,1*%
%TO.N,+3V3*%
X209950000Y-90100000D03*
%TO.P,CPS_3,2*%
%TO.N,NR_Reg*%
X208050000Y-90100000D03*
%TD*%
D32*
%TO.P,RL_2,1*%
%TO.N,GND*%
X204625000Y-99100000D03*
%TO.P,RL_2,2*%
%TO.N,Net-(D2-K)*%
X202800000Y-99100000D03*
%TD*%
D21*
%TO.P,CGPS_3,1*%
%TO.N,+3V3*%
X182244837Y-83406049D03*
%TO.P,CGPS_3,2*%
%TO.N,GND*%
X183204837Y-83406049D03*
%TD*%
D33*
%TO.P,R_RST1,1*%
%TO.N,+3V3*%
X191187500Y-89300000D03*
%TO.P,R_RST1,2*%
%TO.N,/RUN*%
X193012500Y-89300000D03*
%TD*%
D21*
%TO.P,CGPS_1,1*%
%TO.N,+3V3*%
X182242418Y-81400000D03*
%TO.P,CGPS_1,2*%
%TO.N,GND*%
X183202418Y-81400000D03*
%TD*%
D34*
%TO.P,CPS_1,1*%
%TO.N,VBUS*%
X214900000Y-92050000D03*
%TO.P,CPS_1,2*%
%TO.N,GND*%
X214900000Y-93950000D03*
%TD*%
D35*
%TO.P,U5,1,GND*%
%TO.N,GND*%
X174550000Y-78787500D03*
D36*
%TO.P,U5,2,TXD*%
%TO.N,unconnected-(U5-TXD-Pad2)*%
X175650000Y-78787500D03*
%TO.P,U5,3,RXD*%
%TO.N,unconnected-(U5-RXD-Pad3)*%
X176750000Y-78787500D03*
%TO.P,U5,4,TIMEPULSE*%
%TO.N,unconnected-(U5-TIMEPULSE-Pad4)*%
X177850000Y-78787500D03*
%TO.P,U5,5,EXTINT*%
%TO.N,unconnected-(U5-EXTINT-Pad5)*%
X178950000Y-78787500D03*
%TO.P,U5,6,V_BCKP*%
%TO.N,unconnected-(U5-V_BCKP-Pad6)*%
X180050000Y-78787500D03*
%TO.P,U5,7,V_IO*%
%TO.N,+3V3*%
X181150000Y-78787500D03*
%TO.P,U5,8,VCC*%
X182250000Y-78787500D03*
D35*
%TO.P,U5,9,~{RESET}*%
%TO.N,unconnected-(U5-~{RESET}-Pad9)*%
X183350000Y-78787500D03*
%TO.P,U5,10,GND__1*%
%TO.N,GND*%
X183350000Y-69287500D03*
D36*
%TO.P,U5,11,RF_IN*%
%TO.N,/RF_IN*%
X182250000Y-69287500D03*
%TO.P,U5,12,GND__2*%
%TO.N,GND*%
X181150000Y-69287500D03*
%TO.P,U5,13,LNA_EN*%
%TO.N,unconnected-(U5-LNA_EN-Pad13)*%
X180050000Y-69287500D03*
%TO.P,U5,14,VCC_RF*%
%TO.N,unconnected-(U5-VCC_RF-Pad14)*%
X178950000Y-69287500D03*
%TO.P,U5,15,VIO_SEL*%
%TO.N,unconnected-(U5-VIO_SEL-Pad15)*%
X177850000Y-69287500D03*
%TO.P,U5,16,SDA*%
%TO.N,/RP_SDA0*%
X176750000Y-69287500D03*
%TO.P,U5,17,SCL*%
%TO.N,/RP_SCL0*%
X175650000Y-69287500D03*
D35*
%TO.P,U5,18,~{SAFEBOOT}*%
%TO.N,unconnected-(U5-~{SAFEBOOT}-Pad18)*%
X174550000Y-69287500D03*
%TD*%
D13*
%TO.P,bruh,1*%
%TO.N,+3V3*%
X202970785Y-68400000D03*
D14*
%TO.P,bruh,2*%
%TO.N,Net-(Q1-C)*%
X197970785Y-68400000D03*
%TD*%
D37*
%TO.P,D1,1,K*%
%TO.N,Net-(D1-K)*%
X200800000Y-97200000D03*
%TO.P,D1,2,A*%
%TO.N,/LED_1*%
X199225000Y-97200000D03*
%TD*%
D16*
%TO.P,RI2C_1,1*%
%TO.N,/RP_SCL1*%
X200270000Y-78877500D03*
%TO.P,RI2C_1,2*%
%TO.N,+3V3*%
X201290000Y-78877500D03*
%TD*%
D38*
%TO.P,RI2C_3,1*%
%TO.N,/RP_SCL0*%
X193950000Y-80875000D03*
%TO.P,RI2C_3,2*%
%TO.N,+3V3*%
X193950000Y-79050000D03*
%TD*%
D33*
%TO.P,RFLASH_2,1*%
%TO.N,/QSPI_SS*%
X210425000Y-71525000D03*
%TO.P,RFLASH_2,2*%
%TO.N,/~{USB_BOOT}*%
X212250000Y-71525000D03*
%TD*%
D39*
%TO.P,Y1,1*%
%TO.N,/XIN*%
X192375000Y-87150000D03*
%TO.P,Y1,2,GND*%
%TO.N,GND*%
X192375000Y-84850000D03*
%TO.P,Y1,3*%
%TO.N,Net-(CX_2-Pad2)*%
X190625000Y-84850000D03*
%TO.P,Y1,4,GND__1*%
%TO.N,GND*%
X190625000Y-87150000D03*
%TD*%
D23*
%TO.P,RX_1,1*%
%TO.N,Net-(CX_2-Pad2)*%
X188700000Y-82487500D03*
%TO.P,RX_1,2*%
%TO.N,/XOUT*%
X188700000Y-84312500D03*
%TD*%
D37*
%TO.P,D2,1,K*%
%TO.N,Net-(D2-K)*%
X204500000Y-97200000D03*
%TO.P,D2,2,A*%
%TO.N,/LED_2*%
X202925000Y-97200000D03*
%TD*%
D40*
%TO.P,J3,1,VBUS*%
%TO.N,VBUS*%
X216525000Y-78925000D03*
%TO.P,J3,2,D-*%
%TO.N,/USB_D-*%
X216525000Y-78275000D03*
%TO.P,J3,3,D+*%
%TO.N,/USB_D+*%
X216525000Y-77625000D03*
%TO.P,J3,4,ID*%
%TO.N,unconnected-(J3-ID-Pad4)*%
X216525000Y-76975000D03*
%TO.P,J3,5,GND*%
%TO.N,GND*%
X216525000Y-76325000D03*
D41*
%TO.P,J3,6,Shield*%
X217725000Y-80575000D03*
D42*
X216425000Y-80475000D03*
D43*
X218475000Y-80355000D03*
D44*
X219405000Y-80355000D03*
D45*
X216405000Y-80045000D03*
D46*
X219675000Y-78585000D03*
X219675000Y-76665000D03*
D45*
X216405000Y-75205000D03*
D44*
X219405000Y-74895000D03*
D43*
X218475000Y-74875000D03*
D42*
X216405000Y-74725000D03*
D41*
X217725000Y-74625000D03*
%TD*%
D13*
%TO.P,J5,1,1*%
%TO.N,VBUS*%
X217680000Y-84430000D03*
D14*
%TO.P,J5,2,2*%
%TO.N,GND*%
X217680000Y-86970000D03*
%TD*%
D32*
%TO.P,RL_1,1*%
%TO.N,GND*%
X200975000Y-99100000D03*
%TO.P,RL_1,2*%
%TO.N,Net-(D1-K)*%
X199150000Y-99100000D03*
%TD*%
D47*
%TO.P,U7,1,VCC*%
%TO.N,+3V3*%
X154250000Y-96400000D03*
D48*
%TO.P,U7,2,DOUT/DIO13*%
%TO.N,/UART_Rx0*%
X156250000Y-96400000D03*
%TO.P,U7,3,DIN/NCONFIG/DIO14*%
%TO.N,/UART_Tx0*%
X158250000Y-96400000D03*
%TO.P,U7,4,DIO12/SPI_MISO*%
%TO.N,unconnected-(U7-DIO12{slash}SPI_MISO-Pad4)*%
X160250000Y-96400000D03*
%TO.P,U7,5,~{RESET}*%
%TO.N,unconnected-(U7-~{RESET}-Pad5)*%
X162250000Y-96400000D03*
%TO.P,U7,6,DIO10/PWM0*%
%TO.N,unconnected-(U7-DIO10{slash}PWM0-Pad6)*%
X164250000Y-96400000D03*
%TO.P,U7,7,DIO11/PWM1*%
%TO.N,unconnected-(U7-DIO11{slash}PWM1-Pad7)*%
X166250000Y-96400000D03*
%TO.P,U7,8*%
%TO.N,N/C*%
X168250000Y-96400000D03*
%TO.P,U7,9,NDTR/SLEEP_RQ/DIO8*%
%TO.N,unconnected-(U7-NDTR{slash}SLEEP_RQ{slash}DIO8-Pad9)*%
X170250000Y-96400000D03*
%TO.P,U7,10,GND*%
%TO.N,GND*%
X172250000Y-96400000D03*
%TO.P,U7,11,DIO4/SPI_MOSI*%
%TO.N,unconnected-(U7-DIO4{slash}SPI_MOSI-Pad11)*%
X172250000Y-74400000D03*
%TO.P,U7,12,NCTS/DIO7*%
%TO.N,unconnected-(U7-NCTS{slash}DIO7-Pad12)*%
X170250000Y-74400000D03*
%TO.P,U7,13,ON_NSLEEP/DIO9*%
%TO.N,unconnected-(U7-ON_NSLEEP{slash}DIO9-Pad13)*%
X168250000Y-74400000D03*
%TO.P,U7,14,VREF*%
%TO.N,GND*%
X166250000Y-74400000D03*
%TO.P,U7,15,ASSOCIATE/DIO5*%
%TO.N,unconnected-(U7-ASSOCIATE{slash}DIO5-Pad15)*%
X164250000Y-74400000D03*
%TO.P,U7,16,NRTS/DIO6*%
%TO.N,unconnected-(U7-NRTS{slash}DIO6-Pad16)*%
X162250000Y-74400000D03*
%TO.P,U7,17,AD3/DIO3/SPI_NSSEL*%
%TO.N,unconnected-(U7-AD3{slash}DIO3{slash}SPI_NSSEL-Pad17)*%
X160250000Y-74400000D03*
%TO.P,U7,18,AD2/DIO2/SPI_CLK*%
%TO.N,unconnected-(U7-AD2{slash}DIO2{slash}SPI_CLK-Pad18)*%
X158250000Y-74400000D03*
%TO.P,U7,19,AD1/DIO1/SPI_NATTN*%
%TO.N,unconnected-(U7-AD1{slash}DIO1{slash}SPI_NATTN-Pad19)*%
X156250000Y-74400000D03*
%TO.P,U7,20,AD0/DIO0*%
%TO.N,unconnected-(U7-AD0{slash}DIO0-Pad20)*%
X154250000Y-74400000D03*
%TD*%
D38*
%TO.P,RI2C_4,1*%
%TO.N,/RP_SDA0*%
X191420000Y-79930000D03*
%TO.P,RI2C_4,2*%
%TO.N,+3V3*%
X191420000Y-78105000D03*
%TD*%
D49*
%TO.P,CTX1,1*%
%TO.N,/RF_IN*%
X182250000Y-65450000D03*
D50*
%TO.P,CTX1,2*%
%TO.N,GND*%
X180337500Y-65450000D03*
%TD*%
D51*
%TO.P,U6,1,~{CS}*%
%TO.N,/QSPI_SS*%
X211275000Y-76142500D03*
%TO.P,U6,2,DO(IO1)*%
%TO.N,/QSPI_SD1*%
X210005000Y-76142500D03*
%TO.P,U6,3,IO2*%
%TO.N,/QSPI_SD2*%
X208735000Y-76142500D03*
%TO.P,U6,4,GND*%
%TO.N,GND*%
X207465000Y-76142500D03*
%TO.P,U6,5,DI(IO0)*%
%TO.N,/QSPI_SD0*%
X207465000Y-83317500D03*
%TO.P,U6,6,CLK*%
%TO.N,/QSPI_SCLK*%
X208735000Y-83317500D03*
%TO.P,U6,7,IO3*%
%TO.N,/QSPI_SD3*%
X210005000Y-83317500D03*
%TO.P,U6,8,VCC*%
%TO.N,+3V3*%
X211275000Y-83317500D03*
%TD*%
D12*
%TO.P,R4,1*%
%TO.N,/USB_D-*%
X209850000Y-88280000D03*
%TO.P,R4,2*%
%TO.N,/USB_R-*%
X208200000Y-88280000D03*
%TD*%
D52*
%TO.P,AE1,1*%
%TO.N,/RF_IN*%
X186400000Y-62475000D03*
%TO.P,AE1,2*%
%TO.N,GND*%
X186400000Y-61525000D03*
D53*
%TO.P,AE1,3*%
X189600000Y-62000000D03*
%TD*%
D11*
%TO.P,S2,1,NO_1*%
%TO.N,/RUN*%
X191150000Y-91950000D03*
%TO.P,S2,2,NO_2*%
X195300000Y-91950000D03*
%TO.P,S2,3,COM_1*%
%TO.N,GND*%
X191150000Y-94100000D03*
%TO.P,S2,4,COM_2*%
X195300000Y-94100000D03*
%TD*%
D54*
%TO.N,/SWCLK*%
X198537443Y-88686063D03*
%TO.N,VBUS*%
X218750000Y-89640000D03*
X203400000Y-92400000D03*
X217350000Y-89640000D03*
X212720000Y-91110000D03*
X220150000Y-89640000D03*
X205800000Y-92400000D03*
X219450000Y-90840000D03*
X218050000Y-90840000D03*
%TO.N,/SD_DAT0*%
X178200000Y-97600000D03*
X187575000Y-95100000D03*
%TO.N,GND*%
X162920000Y-99340000D03*
X202000000Y-95100000D03*
D55*
X157225000Y-92950000D03*
D54*
X214200000Y-96600000D03*
X214925000Y-68270000D03*
X177670000Y-61410000D03*
X211725000Y-96575000D03*
X192980000Y-61410000D03*
X183425000Y-64950000D03*
X173420000Y-99340000D03*
X152160000Y-94360000D03*
X174625000Y-98475000D03*
X189600000Y-65100000D03*
X188600000Y-65100000D03*
X212480000Y-61410000D03*
X158170000Y-61410000D03*
X194480000Y-61410000D03*
X161420000Y-99340000D03*
X208125000Y-79600000D03*
X198554517Y-75555931D03*
X174670000Y-61410000D03*
X158050000Y-64380000D03*
X214300000Y-62930000D03*
X165920000Y-99340000D03*
X191480000Y-61410000D03*
X190400000Y-61450000D03*
X207800000Y-95150000D03*
X152160000Y-71860000D03*
X203480000Y-61410000D03*
X174375000Y-89325000D03*
X214200000Y-99000000D03*
X206525000Y-76150000D03*
X190410000Y-64400000D03*
X167170000Y-61410000D03*
X190430000Y-62480000D03*
X200600000Y-70400000D03*
X209480000Y-61410000D03*
X204980000Y-61410000D03*
X157520000Y-65580000D03*
X207100000Y-80950000D03*
X181450000Y-62970000D03*
X188150000Y-87525000D03*
X207050000Y-86180000D03*
X176170000Y-61410000D03*
X203610000Y-79240000D03*
X211775000Y-95125000D03*
X170420000Y-99340000D03*
X209875000Y-95125000D03*
X152160000Y-89860000D03*
X187025000Y-92625000D03*
X220090000Y-67470000D03*
X156570000Y-66660000D03*
X183350000Y-61425000D03*
X184525000Y-61225000D03*
X152160000Y-68860000D03*
X197480000Y-61410000D03*
X210075000Y-79600000D03*
X183920000Y-63900000D03*
X152160000Y-91360000D03*
X215070000Y-65890000D03*
X152160000Y-95860000D03*
X183350000Y-67400000D03*
X152160000Y-73360000D03*
X213980000Y-61410000D03*
X155420000Y-99340000D03*
X198980000Y-61410000D03*
X152160000Y-88360000D03*
D55*
X160375000Y-92975000D03*
D54*
X152160000Y-85360000D03*
X190420000Y-63470000D03*
X152160000Y-76360000D03*
X164420000Y-99340000D03*
X217350000Y-67370000D03*
X168920000Y-99340000D03*
X180670000Y-61410000D03*
X186600000Y-84875000D03*
X193720000Y-87100000D03*
X164170000Y-61410000D03*
X206480000Y-61410000D03*
X165670000Y-61410000D03*
X186100000Y-92625000D03*
X159670000Y-61410000D03*
X179611765Y-97736765D03*
X152160000Y-92860000D03*
X200480000Y-61410000D03*
X189875000Y-76875000D03*
X174625000Y-97250000D03*
X216150000Y-66840000D03*
X207980000Y-61410000D03*
X201980000Y-61410000D03*
X194600000Y-71500000D03*
X190125000Y-94100000D03*
X158140000Y-62890000D03*
X153610000Y-67430000D03*
X208925000Y-80950000D03*
X161170000Y-61410000D03*
X162670000Y-61410000D03*
X174375000Y-86675000D03*
X188925000Y-74000000D03*
X153920000Y-99340000D03*
X181190000Y-66970000D03*
X159920000Y-99340000D03*
X173170000Y-61410000D03*
X152160000Y-67360000D03*
X197647148Y-96951381D03*
X152160000Y-70360000D03*
X179170000Y-61410000D03*
X214200000Y-97800000D03*
X218840000Y-67460000D03*
X152160000Y-77860000D03*
X207020000Y-89070000D03*
X187560000Y-65100000D03*
X156920000Y-99340000D03*
X174350000Y-87925000D03*
X202000000Y-77600000D03*
X201950000Y-65350000D03*
X152160000Y-74860000D03*
X152150000Y-97500000D03*
X192425000Y-83775000D03*
X152160000Y-79360000D03*
X185630000Y-61060000D03*
X158420000Y-99340000D03*
X199300000Y-78725000D03*
X210980000Y-61410000D03*
X184900000Y-63650000D03*
X195800000Y-93375000D03*
X209075000Y-78175000D03*
X181125000Y-64275000D03*
X209825000Y-96575000D03*
X168670000Y-61410000D03*
X214200000Y-95400000D03*
X195980000Y-61410000D03*
X152160000Y-86860000D03*
X170170000Y-61410000D03*
X171920000Y-99340000D03*
X210850000Y-78175000D03*
X152420000Y-99340000D03*
X204000000Y-62750000D03*
X167420000Y-99340000D03*
X152160000Y-80860000D03*
X155170000Y-67240000D03*
X152160000Y-82360000D03*
X186450000Y-65100000D03*
X206310000Y-68280000D03*
D55*
X158775000Y-92975000D03*
D54*
X185600000Y-64500000D03*
X183360000Y-66170000D03*
X182125000Y-61850000D03*
X152160000Y-83860000D03*
X207750000Y-96600000D03*
X171670000Y-61410000D03*
X210700000Y-80950000D03*
%TO.N,/SD_CLK*%
X180500000Y-97600000D03*
%TO.N,/SD_DAT1*%
X177100000Y-97600000D03*
X187575000Y-96000000D03*
X177125000Y-99800000D03*
%TO.N,/RP_SCL0*%
X175675000Y-71775000D03*
X188900000Y-80875000D03*
%TO.N,/RP_SDA0*%
X176750000Y-71775000D03*
X188975000Y-79925000D03*
%TO.N,/IIM_CS1*%
X198295756Y-77960992D03*
%TO.N,/IIM_MOSI1*%
X196200000Y-80875000D03*
%TO.N,/IIM_SCLK1*%
X197625000Y-77525000D03*
%TO.N,/IIM_MISO1*%
X198870000Y-81450000D03*
%TO.N,/UART_Rx0*%
X195850000Y-89425000D03*
%TO.N,+3V3*%
X196175000Y-71250000D03*
D55*
X153250000Y-91375000D03*
D54*
X180000000Y-82875000D03*
D55*
X156750000Y-91400000D03*
D54*
X211300000Y-89600000D03*
X203200000Y-78500000D03*
X187775000Y-91350000D03*
X202900000Y-91000000D03*
X186750000Y-91325000D03*
X198425000Y-72950000D03*
X213500000Y-88000000D03*
X200825000Y-95925000D03*
X203075000Y-65375000D03*
X213400000Y-86900000D03*
X204510000Y-86580000D03*
X195075000Y-79050000D03*
X211300000Y-90400000D03*
X199605354Y-81765048D03*
X210950000Y-85580000D03*
X201200000Y-72000000D03*
X181520000Y-97490000D03*
X180650000Y-83400000D03*
X181225000Y-82875000D03*
X195363235Y-86863235D03*
X199270000Y-91300000D03*
X211300000Y-91425000D03*
X189875000Y-75925000D03*
X190000000Y-89300000D03*
X192875000Y-79050000D03*
X204357067Y-88600000D03*
X211300000Y-88800000D03*
D55*
X154975000Y-91400000D03*
D54*
X212300000Y-88000000D03*
X211540000Y-66335000D03*
X190680000Y-72480000D03*
X190400000Y-78100000D03*
%TO.N,+1V1*%
X197600000Y-86350000D03*
X202600000Y-85980000D03*
%TO.N,/XIN*%
X195480541Y-85268008D03*
%TO.N,/XOUT*%
X195441214Y-86067042D03*
X188800000Y-85400000D03*
%TO.N,/SWDIO*%
X197570000Y-88230000D03*
%TO.N,/UART_Tx0*%
X195200000Y-89925000D03*
%TO.N,/ADC_BAT*%
X201800000Y-90700000D03*
%TO.N,/RP_SCL1*%
X200280000Y-77787500D03*
%TO.N,/RP_SDA1*%
X201500000Y-79850000D03*
%TO.N,NR_Reg*%
X206774971Y-90374971D03*
%TO.N,Net-(Q1-B)*%
X202025000Y-63450000D03*
X208700000Y-69700000D03*
%TO.N,/BUZZER*%
X202070000Y-81705411D03*
%TD*%
D56*
%TO.N,/SWCLK*%
X198537443Y-88347500D02*
X198537443Y-88686063D01*
X198031023Y-87841080D02*
X198537443Y-88347500D01*
X198031023Y-87618978D02*
X198031023Y-87841080D01*
%TO.N,/SWDIO*%
X197450000Y-87725000D02*
X197450000Y-87730000D01*
X197450000Y-87730000D02*
X197570000Y-87850000D01*
X197305000Y-87580000D02*
X197450000Y-87725000D01*
X196632500Y-87580000D02*
X197305000Y-87580000D01*
X197570000Y-87850000D02*
X197570000Y-88230000D01*
%TO.N,/SWCLK*%
X197592045Y-87180000D02*
X198031023Y-87618978D01*
X196632500Y-87180000D02*
X197592045Y-87180000D01*
D57*
%TO.N,VBUS*%
X214000000Y-79100000D02*
X214000000Y-82150000D01*
X214000000Y-82150000D02*
X216280000Y-84430000D01*
X205800000Y-92400000D02*
X207160000Y-92400000D01*
X216280000Y-84430000D02*
X217680000Y-84430000D01*
X216525000Y-78925000D02*
X214175000Y-78925000D01*
X207160000Y-92400000D02*
X207460000Y-92700000D01*
X203400000Y-92400000D02*
X205800000Y-92400000D01*
X214175000Y-78925000D02*
X214000000Y-79100000D01*
D56*
%TO.N,/SD_DAT0*%
X178200000Y-98845000D02*
X178220000Y-98865000D01*
X188075000Y-95600000D02*
X187575000Y-95100000D01*
X196200000Y-95600000D02*
X188075000Y-95600000D01*
X197870000Y-89617500D02*
X197870000Y-93930000D01*
X178200000Y-97600000D02*
X178200000Y-98845000D01*
X197870000Y-93930000D02*
X196200000Y-95600000D01*
%TO.N,GND*%
X219095000Y-67715000D02*
X218840000Y-67460000D01*
X219095000Y-69370000D02*
X219095000Y-67715000D01*
D57*
X179320000Y-98028530D02*
X179611765Y-97736765D01*
D56*
X183170000Y-69107500D02*
X183350000Y-69287500D01*
D57*
X186200000Y-61650000D02*
X186325000Y-61525000D01*
D58*
X191320000Y-98700000D02*
X188850000Y-98700000D01*
D56*
X196632500Y-85180000D02*
X197220000Y-85180000D01*
X189000000Y-87600000D02*
X189450000Y-87150000D01*
X181260000Y-69177500D02*
X181150000Y-69287500D01*
X214925000Y-68270000D02*
X214925000Y-69430000D01*
X204625000Y-99100000D02*
X205600000Y-99100000D01*
X219100000Y-69375000D02*
X219095000Y-69370000D01*
X199300000Y-79525000D02*
X199300000Y-78725000D01*
X191150000Y-94100000D02*
X195300000Y-94100000D01*
D57*
X185720000Y-61650000D02*
X186200000Y-61650000D01*
X186325000Y-61525000D02*
X186400000Y-61525000D01*
D56*
X197580000Y-84830000D02*
X198720000Y-84830000D01*
X192450000Y-82700000D02*
X192450000Y-84775000D01*
X195300000Y-94100000D02*
X195300000Y-93875000D01*
X189450000Y-87150000D02*
X190790000Y-87150000D01*
D57*
X185620000Y-61370000D02*
X185620000Y-61550000D01*
X176040000Y-99487000D02*
X176040000Y-98365000D01*
X179320000Y-98865000D02*
X179320000Y-98028530D01*
D56*
X203610000Y-79240000D02*
X203610000Y-79480000D01*
X188920000Y-87600000D02*
X189000000Y-87600000D01*
D58*
X188850000Y-98700000D02*
X188700000Y-98850000D01*
D56*
X203610000Y-79480000D02*
X203620000Y-79490000D01*
D57*
X185630000Y-61360000D02*
X185620000Y-61370000D01*
D58*
X186610000Y-86400000D02*
X186760000Y-86250000D01*
D57*
X185620000Y-61550000D02*
X185720000Y-61650000D01*
D56*
X195300000Y-93875000D02*
X195800000Y-93375000D01*
X205574000Y-100101000D02*
X205775000Y-99900000D01*
X192450000Y-84775000D02*
X192375000Y-84850000D01*
X197220000Y-85180000D02*
X197575000Y-84825000D01*
X191150000Y-94100000D02*
X190125000Y-94100000D01*
X197575000Y-84825000D02*
X197580000Y-84830000D01*
D57*
X185630000Y-61060000D02*
X185630000Y-61360000D01*
D56*
X201976000Y-100101000D02*
X205574000Y-100101000D01*
X203620000Y-79490000D02*
X203620000Y-80820000D01*
X209807500Y-99322501D02*
X210230000Y-98900001D01*
D58*
X186760000Y-86250000D02*
X188050000Y-86250000D01*
D56*
X200975000Y-99100000D02*
X201976000Y-100101000D01*
%TO.N,/SD_DAT2*%
X185735000Y-98865000D02*
X184820000Y-98865000D01*
X188200000Y-96400000D02*
X185735000Y-98865000D01*
X198670000Y-94330000D02*
X196600000Y-96400000D01*
X196600000Y-96400000D02*
X188200000Y-96400000D01*
X198670000Y-89617500D02*
X198670000Y-94330000D01*
D57*
%TO.N,/RF_IN*%
X186393246Y-62468246D02*
X186400000Y-62475000D01*
%TO.N,Net-(CX_2-Pad2)*%
X189800000Y-82700000D02*
X189587500Y-82487500D01*
X190750000Y-84810000D02*
X190790000Y-84850000D01*
X189587500Y-82487500D02*
X188700000Y-82487500D01*
X190550000Y-82700000D02*
X190550000Y-84775000D01*
X190550000Y-84775000D02*
X190625000Y-84850000D01*
X190550000Y-82700000D02*
X189800000Y-82700000D01*
X190625000Y-82725000D02*
X190750000Y-82600000D01*
X190637500Y-82487500D02*
X190750000Y-82600000D01*
D56*
%TO.N,/LED_1*%
X200270000Y-90437100D02*
X200270000Y-89617500D01*
X199225000Y-97200000D02*
X199225000Y-95250000D01*
X199225000Y-95250000D02*
X200275000Y-94200000D01*
X200275000Y-90442100D02*
X200270000Y-90437100D01*
X200275000Y-94200000D02*
X200275000Y-90442100D01*
%TO.N,/SD_CLK*%
X180500000Y-97600000D02*
X180500000Y-98785000D01*
X180500000Y-98785000D02*
X180420000Y-98865000D01*
%TO.N,/SD_CMD*%
X188225000Y-94250000D02*
X187375000Y-94250000D01*
X184917836Y-97800000D02*
X182800000Y-97800000D01*
X189075000Y-95100000D02*
X188225000Y-94250000D01*
X197470000Y-89617500D02*
X197470000Y-93762900D01*
X196132900Y-95100000D02*
X189075000Y-95100000D01*
X187375000Y-94250000D02*
X186050000Y-95575000D01*
X186050000Y-95575000D02*
X186050000Y-96667836D01*
X182620000Y-97980000D02*
X182620000Y-98865000D01*
X197470000Y-93762900D02*
X196132900Y-95100000D01*
X182800000Y-97800000D02*
X182620000Y-97980000D01*
X186050000Y-96667836D02*
X184917836Y-97800000D01*
%TO.N,/SD_DAT3*%
X196950000Y-96800000D02*
X199871000Y-93879000D01*
X185350000Y-99900000D02*
X188450000Y-96800000D01*
X183720000Y-99620000D02*
X184000000Y-99900000D01*
X188450000Y-96800000D02*
X196950000Y-96800000D01*
X184000000Y-99900000D02*
X185350000Y-99900000D01*
X199871000Y-93879000D02*
X199871000Y-90596000D01*
X199871000Y-90596000D02*
X199470000Y-90195000D01*
X199470000Y-90195000D02*
X199470000Y-89617500D01*
X183720000Y-98865000D02*
X183720000Y-99620000D01*
%TO.N,/SD_DAT1*%
X177120000Y-98380000D02*
X177120000Y-98865000D01*
X198270000Y-94162900D02*
X196432900Y-96000000D01*
X196432900Y-96000000D02*
X187575000Y-96000000D01*
X177125000Y-98870000D02*
X177120000Y-98865000D01*
X177125000Y-99800000D02*
X177125000Y-98870000D01*
X177100000Y-97600000D02*
X177100000Y-98360000D01*
X177100000Y-98360000D02*
X177120000Y-98380000D01*
X198270000Y-89617500D02*
X198270000Y-94162900D01*
%TO.N,/LED_2*%
X202925000Y-97025000D02*
X202925000Y-97200000D01*
X200825000Y-90425000D02*
X200825000Y-95075057D01*
X202925000Y-97175057D02*
X202925000Y-97200000D01*
X200670000Y-89617500D02*
X200670000Y-90270000D01*
X200825000Y-95075057D02*
X202925000Y-97175057D01*
X200670000Y-90270000D02*
X200825000Y-90425000D01*
X202912500Y-97012500D02*
X202912500Y-97400000D01*
X202812500Y-97300000D02*
X202912500Y-97400000D01*
%TO.N,/RP_SCL0*%
X194100000Y-82100000D02*
X194100000Y-81600000D01*
X189550000Y-80875000D02*
X193950000Y-80875000D01*
X196632500Y-83980000D02*
X195980000Y-83980000D01*
X175650000Y-71750000D02*
X175675000Y-71775000D01*
X175650000Y-69287500D02*
X175650000Y-71750000D01*
X195980000Y-83980000D02*
X194100000Y-82100000D01*
X194100000Y-81600000D02*
X193500000Y-81000000D01*
X189550000Y-80875000D02*
X188900000Y-80875000D01*
%TO.N,/RP_SDA0*%
X194530000Y-79930000D02*
X191420000Y-79930000D01*
X188980000Y-79930000D02*
X188975000Y-79925000D01*
X196180000Y-83580000D02*
X195200000Y-82600000D01*
X196632500Y-83580000D02*
X196180000Y-83580000D01*
X195200000Y-80600000D02*
X194530000Y-79930000D01*
X191420000Y-79930000D02*
X188980000Y-79930000D01*
X176750000Y-69287500D02*
X176750000Y-71775000D01*
X195200000Y-82600000D02*
X195200000Y-80600000D01*
%TO.N,/IIM_CS1*%
X198000000Y-78256748D02*
X198295756Y-77960992D01*
X198270000Y-82742500D02*
X198270000Y-81395000D01*
X198270000Y-81395000D02*
X198000000Y-81125000D01*
X198000000Y-81125000D02*
X198000000Y-78256748D01*
%TO.N,/IIM_MOSI1*%
X196200000Y-81300000D02*
X196200000Y-80875000D01*
X197470000Y-82742500D02*
X197470000Y-82070000D01*
X197200000Y-81800000D02*
X196700000Y-81800000D01*
X197470000Y-82070000D02*
X197200000Y-81800000D01*
X196700000Y-81800000D02*
X196200000Y-81300000D01*
%TO.N,/IIM_SCLK1*%
X197870000Y-82742500D02*
X197870000Y-81745000D01*
X197600000Y-77550000D02*
X197625000Y-77525000D01*
X197870000Y-81745000D02*
X197600000Y-81475000D01*
X197600000Y-81475000D02*
X197600000Y-77550000D01*
%TO.N,/IIM_MISO1*%
X198670000Y-81650000D02*
X198870000Y-81450000D01*
X198670000Y-82742500D02*
X198670000Y-81650000D01*
%TO.N,/UART_Rx0*%
X195850000Y-89150000D02*
X195850000Y-89425000D01*
X196220000Y-88780000D02*
X195850000Y-89150000D01*
X196220000Y-88780000D02*
X196632500Y-88780000D01*
%TO.N,+3V3*%
X199300000Y-80485000D02*
X199605354Y-80790354D01*
X202670000Y-82742500D02*
X202670000Y-81700000D01*
X196095000Y-86380000D02*
X196075000Y-86400000D01*
X211275000Y-85255000D02*
X210950000Y-85580000D01*
X204290000Y-86580000D02*
X204090000Y-86780000D01*
X204250000Y-88570000D02*
X204327067Y-88570000D01*
X199605354Y-81765048D02*
X199509952Y-81765048D01*
X192475000Y-79050000D02*
X191530000Y-78105000D01*
X201290000Y-78877500D02*
X202000000Y-78877500D01*
X191420000Y-78105000D02*
X190405000Y-78105000D01*
X193950000Y-79050000D02*
X195075000Y-79050000D01*
X202361250Y-79238750D02*
X202660000Y-79537500D01*
X199070000Y-91100000D02*
X199270000Y-91300000D01*
X204250000Y-88570000D02*
X204040000Y-88780000D01*
X195611765Y-86863235D02*
X196075000Y-86400000D01*
X196075000Y-86400000D02*
X196125000Y-86400000D01*
D57*
X209950000Y-90100000D02*
X211270000Y-90100000D01*
D56*
X202387500Y-80787500D02*
X202372500Y-80787500D01*
X203507500Y-88380000D02*
X204060000Y-88380000D01*
D59*
X211270000Y-90100000D02*
X211270000Y-88830000D01*
D56*
X199605354Y-80790354D02*
X199605354Y-81765048D01*
X190405000Y-78105000D02*
X190400000Y-78100000D01*
D57*
X211200000Y-89700000D02*
X211300000Y-89600000D01*
D56*
X211275000Y-83317500D02*
X211275000Y-85255000D01*
X199509952Y-81765048D02*
X199070000Y-82205000D01*
X201690000Y-80787500D02*
X202372500Y-80787500D01*
X202670000Y-81700000D02*
X202670000Y-81070000D01*
X203100000Y-78500000D02*
X203200000Y-78500000D01*
X204130000Y-86380000D02*
X203507500Y-86380000D01*
X202670000Y-90770000D02*
X202900000Y-91000000D01*
X191530000Y-78105000D02*
X191420000Y-78105000D01*
X199070000Y-89617500D02*
X199070000Y-91100000D01*
X193950000Y-79050000D02*
X192875000Y-79050000D01*
X195363235Y-86863235D02*
X195611765Y-86863235D01*
X202660000Y-79537500D02*
X202660000Y-80500000D01*
X204060000Y-88380000D02*
X204250000Y-88570000D01*
X202670000Y-89617500D02*
X202670000Y-90770000D01*
X196632500Y-86380000D02*
X196095000Y-86380000D01*
X190000000Y-89300000D02*
X191187500Y-89300000D01*
X204510000Y-86580000D02*
X204330000Y-86580000D01*
X204330000Y-86580000D02*
X204130000Y-86380000D01*
X204510000Y-86580000D02*
X204290000Y-86580000D01*
X212050000Y-67637500D02*
X212075000Y-67662500D01*
X204090000Y-86780000D02*
X203507500Y-86780000D01*
X199070000Y-82205000D02*
X199070000Y-82742500D01*
X211540000Y-66335000D02*
X211540000Y-67647500D01*
X204040000Y-88780000D02*
X203507500Y-88780000D01*
X204327067Y-88570000D02*
X204357067Y-88600000D01*
X202361250Y-79238750D02*
X203100000Y-78500000D01*
X192875000Y-79050000D02*
X192475000Y-79050000D01*
X202000000Y-78877500D02*
X202361250Y-79238750D01*
D59*
X211270000Y-92700000D02*
X211270000Y-90100000D01*
D58*
X181520000Y-98865000D02*
X181520000Y-97490000D01*
D56*
%TO.N,+1V1*%
X203507500Y-87980000D02*
X202970000Y-87980000D01*
X197170000Y-86780000D02*
X197600000Y-86350000D01*
X203507500Y-85980000D02*
X202600000Y-85980000D01*
X202600000Y-87610000D02*
X202600000Y-85980000D01*
X202970000Y-87980000D02*
X202600000Y-87610000D01*
X196632500Y-86780000D02*
X197170000Y-86780000D01*
%TO.N,/QSPI_SS*%
X209670000Y-73330000D02*
X209670000Y-71630000D01*
X210737500Y-69487500D02*
X212075000Y-69487500D01*
X211275000Y-74935000D02*
X211275000Y-76142500D01*
X203507500Y-83580000D02*
X204270000Y-83580000D01*
X204570000Y-83280000D02*
X204570000Y-74230000D01*
X209670000Y-71630000D02*
X209775000Y-71525000D01*
X204570000Y-74230000D02*
X205470000Y-73330000D01*
X209775000Y-71525000D02*
X210425000Y-71525000D01*
X210425000Y-69800000D02*
X210737500Y-69487500D01*
X205470000Y-73330000D02*
X209670000Y-73330000D01*
X210425000Y-71525000D02*
X210425000Y-69800000D01*
X209670000Y-73330000D02*
X211275000Y-74935000D01*
X204270000Y-83580000D02*
X204570000Y-83280000D01*
%TO.N,/~{USB_BOOT}*%
X212250000Y-71525000D02*
X219100000Y-71525000D01*
D57*
%TO.N,/USB_D+*%
X213775000Y-77625000D02*
X216035000Y-77625000D01*
X212700000Y-85000000D02*
X210930000Y-86770000D01*
X210930000Y-86770000D02*
X209855000Y-86770000D01*
X212700000Y-78700000D02*
X213775000Y-77625000D01*
X212700000Y-85000000D02*
X212700000Y-78700000D01*
%TO.N,/USB_D-*%
X213301000Y-78948942D02*
X213301000Y-85298999D01*
X213974942Y-78275000D02*
X213301000Y-78948942D01*
X213301000Y-85298999D02*
X210319999Y-88280000D01*
X213974942Y-78275000D02*
X216525000Y-78275000D01*
X210319999Y-88280000D02*
X209850000Y-88280000D01*
D56*
%TO.N,/QSPI_SCLK*%
X207920000Y-85180000D02*
X208735000Y-84365000D01*
X203507500Y-85180000D02*
X207920000Y-85180000D01*
X208735000Y-84365000D02*
X208735000Y-83317500D01*
%TO.N,/QSPI_SD2*%
X205800000Y-83650000D02*
X205070000Y-84380000D01*
X208240000Y-74600000D02*
X206075000Y-74600000D01*
X205800000Y-74875000D02*
X205800000Y-83650000D01*
X205070000Y-84380000D02*
X203507500Y-84380000D01*
X208735000Y-75095000D02*
X208240000Y-74600000D01*
X208735000Y-76142500D02*
X208735000Y-75095000D01*
X206075000Y-74600000D02*
X205800000Y-74875000D01*
%TO.N,/QSPI_SD1*%
X210005000Y-74965000D02*
X208970000Y-73930000D01*
X205200000Y-83500000D02*
X204720000Y-83980000D01*
X208970000Y-73930000D02*
X205770000Y-73930000D01*
X210005000Y-76142500D02*
X210005000Y-74965000D01*
X204720000Y-83980000D02*
X203507500Y-83980000D01*
X205770000Y-73930000D02*
X205200000Y-74500000D01*
X205200000Y-74500000D02*
X205200000Y-83500000D01*
%TO.N,/QSPI_SD3*%
X208970000Y-85580000D02*
X210005000Y-84545000D01*
X203507500Y-85580000D02*
X208970000Y-85580000D01*
X210005000Y-84545000D02*
X210005000Y-83317500D01*
%TO.N,/QSPI_SD0*%
X207465000Y-84285000D02*
X207465000Y-83317500D01*
X203507500Y-84780000D02*
X206970000Y-84780000D01*
X206970000Y-84780000D02*
X207465000Y-84285000D01*
%TO.N,/XIN*%
X192375000Y-87150000D02*
X192375000Y-86625000D01*
X195480541Y-85268008D02*
X193606992Y-85268008D01*
X192375000Y-87150000D02*
X192375000Y-86500000D01*
X193606992Y-85268008D02*
X192375000Y-86500000D01*
X196005000Y-85580000D02*
X195792533Y-85580000D01*
X196632500Y-85580000D02*
X196005000Y-85580000D01*
X195792533Y-85580000D02*
X195480541Y-85268008D01*
%TO.N,/XOUT*%
X195528256Y-85980000D02*
X195441214Y-86067042D01*
X188700000Y-84312500D02*
X188700000Y-84537000D01*
X188800000Y-85400000D02*
X188800000Y-84412500D01*
X196632500Y-85980000D02*
X195528256Y-85980000D01*
X188800000Y-84412500D02*
X188700000Y-84312500D01*
%TO.N,/UART_Tx0*%
X195200000Y-89200000D02*
X195200000Y-89925000D01*
X196020000Y-88380000D02*
X196632500Y-88380000D01*
X195200000Y-89200000D02*
X196020000Y-88380000D01*
%TO.N,/RUN*%
X195745000Y-87980000D02*
X196632500Y-87980000D01*
X195500000Y-91950000D02*
X191150000Y-91950000D01*
X193012500Y-90687500D02*
X193012500Y-89300000D01*
X191150000Y-91950000D02*
X191100000Y-91900000D01*
X196632500Y-87980000D02*
X196097226Y-87980000D01*
X191150000Y-91950000D02*
X192100000Y-91000000D01*
X193012500Y-89300000D02*
X194425000Y-89300000D01*
X194425000Y-89300000D02*
X195745000Y-87980000D01*
X196097226Y-87980000D02*
X196096226Y-87979000D01*
X193012500Y-89300000D02*
X193312500Y-89600000D01*
X192100000Y-91000000D02*
X192700000Y-91000000D01*
X192700000Y-91000000D02*
X193012500Y-90687500D01*
%TO.N,/ADC_BAT*%
X201870000Y-89617500D02*
X201870000Y-90630000D01*
X201870000Y-90630000D02*
X201800000Y-90700000D01*
%TO.N,/USB_R+*%
X204787500Y-87180000D02*
X204800000Y-87192500D01*
X207137500Y-87192500D02*
X207560000Y-86770000D01*
X207560000Y-86770000D02*
X208205000Y-86770000D01*
X203507500Y-87180000D02*
X204787500Y-87180000D01*
X204800000Y-87192500D02*
X207137500Y-87192500D01*
%TO.N,/USB_R-*%
X208200000Y-88280000D02*
X207515000Y-88280000D01*
X204680000Y-87580000D02*
X205000000Y-87900000D01*
X207515000Y-88280000D02*
X207135000Y-87900000D01*
X203507500Y-87580000D02*
X204680000Y-87580000D01*
X205000000Y-87900000D02*
X207135000Y-87900000D01*
%TO.N,/RP_SCL1*%
X200206354Y-81531354D02*
X200099000Y-81424000D01*
X200270000Y-78877500D02*
X200270000Y-77797500D01*
X200270000Y-77797500D02*
X200280000Y-77787500D01*
X200099000Y-79551000D02*
X200270000Y-79380000D01*
X200206354Y-81806354D02*
X200206354Y-81531354D01*
X201070000Y-82742500D02*
X201070000Y-82070000D01*
X201000000Y-82000000D02*
X200400000Y-82000000D01*
X200099000Y-81424000D02*
X200099000Y-79551000D01*
X200270000Y-79380000D02*
X200270000Y-78877500D01*
X200400000Y-82000000D02*
X200206354Y-81806354D01*
X201070000Y-82070000D02*
X201000000Y-82000000D01*
%TO.N,/RP_SDA1*%
X200875000Y-79925000D02*
X201425000Y-79925000D01*
X200800000Y-81600000D02*
X200670000Y-81470000D01*
X201165100Y-81600000D02*
X200800000Y-81600000D01*
X200670000Y-81470000D02*
X200670000Y-80787500D01*
X201470000Y-82742500D02*
X201470000Y-81904900D01*
X201425000Y-79925000D02*
X201500000Y-79850000D01*
X200670000Y-80130000D02*
X200875000Y-79925000D01*
X200670000Y-80787500D02*
X200670000Y-80130000D01*
X201470000Y-81904900D02*
X201165100Y-81600000D01*
%TO.N,Net-(D1-K)*%
X199087500Y-99400000D02*
X199087500Y-99100000D01*
X200800000Y-97450000D02*
X200800000Y-97200000D01*
X199150000Y-99100000D02*
X200800000Y-97450000D01*
%TO.N,Net-(D2-K)*%
X204500000Y-97400000D02*
X204500000Y-97200000D01*
X202800000Y-99100000D02*
X204500000Y-97400000D01*
D60*
%TO.N,NR_Reg*%
X207149942Y-90000000D02*
X207950000Y-90000000D01*
X207950000Y-90000000D02*
X208050000Y-90100000D01*
D57*
X208050000Y-90100000D02*
X208050000Y-90850000D01*
X208050000Y-90850000D02*
X208730000Y-91530000D01*
X208730000Y-92700000D02*
X208730000Y-91530000D01*
D60*
X206774971Y-90374971D02*
X207149942Y-90000000D01*
D56*
%TO.N,Net-(Q1-B)*%
X206050000Y-63450000D02*
X208700000Y-66100000D01*
X208700000Y-66100000D02*
X208700000Y-69700000D01*
X202025000Y-63450000D02*
X206050000Y-63450000D01*
%TO.N,/BUZZER*%
X202070000Y-81705411D02*
X202070000Y-81770000D01*
X202070000Y-81770000D02*
X202270000Y-81970000D01*
X202270000Y-81970000D02*
X202270000Y-82742500D01*
%TD*%
%TA.AperFunction,Conductor*%
%TO.N,/RF_IN*%
G36*
X182553144Y-67219685D02*
G01*
X182598899Y-67272489D01*
X182609658Y-67313485D01*
X182649553Y-67782247D01*
X182650000Y-67792762D01*
X182650000Y-68400000D01*
X181850000Y-68400000D01*
X181850000Y-67792762D01*
X181850447Y-67782247D01*
X181890342Y-67313485D01*
X181915640Y-67248356D01*
X181972134Y-67207244D01*
X182013895Y-67200000D01*
X182486105Y-67200000D01*
X182553144Y-67219685D01*
G37*
%TD.AperFunction*%
%TD*%
%TA.AperFunction,Conductor*%
%TO.N,GND*%
G36*
X216881330Y-94319685D02*
G01*
X216927085Y-94372489D01*
X216937029Y-94441647D01*
X216908004Y-94505203D01*
X216868093Y-94535720D01*
X216547780Y-94689974D01*
X216242000Y-94882109D01*
X215959654Y-95107271D01*
X215704294Y-95362631D01*
X215479132Y-95644977D01*
X215286997Y-95950757D01*
X215130310Y-96276121D01*
X215011036Y-96616988D01*
X215011035Y-96616990D01*
X214930676Y-96969068D01*
X214930674Y-96969080D01*
X214890242Y-97327924D01*
X214890242Y-97452067D01*
X214885176Y-97469319D01*
X214885176Y-100105500D01*
X214865491Y-100172539D01*
X214812687Y-100218294D01*
X214761176Y-100229500D01*
X205624000Y-100229500D01*
X205556961Y-100209815D01*
X205511206Y-100157011D01*
X205500000Y-100105500D01*
X205500000Y-94424000D01*
X205519685Y-94356961D01*
X205572489Y-94311206D01*
X205624000Y-94300000D01*
X209424999Y-94300000D01*
X209425000Y-94300000D01*
X210525000Y-94300000D01*
X216814291Y-94300000D01*
X216881330Y-94319685D01*
G37*
%TD.AperFunction*%
%TD*%
%TA.AperFunction,Conductor*%
%TO.N,GND*%
G36*
X189193039Y-85944685D02*
G01*
X189238794Y-85997489D01*
X189250000Y-86049000D01*
X189250000Y-89126000D01*
X189230315Y-89193039D01*
X189177511Y-89238794D01*
X189126000Y-89250000D01*
X188662356Y-89250000D01*
X188595317Y-89230315D01*
X188562816Y-89199944D01*
X187974460Y-88407926D01*
X187950284Y-88342372D01*
X187950000Y-88333982D01*
X187950000Y-86110009D01*
X187969685Y-86042970D01*
X188022489Y-85997215D01*
X188059220Y-85986893D01*
X188567642Y-85925883D01*
X188582416Y-85925000D01*
X189126000Y-85925000D01*
X189193039Y-85944685D01*
G37*
%TD.AperFunction*%
%TD*%
%TA.AperFunction,Conductor*%
%TO.N,+3V3*%
G36*
X182593039Y-77894685D02*
G01*
X182638794Y-77947489D01*
X182650000Y-77999000D01*
X182650000Y-83642412D01*
X182630315Y-83709451D01*
X182577511Y-83755206D01*
X182526364Y-83766411D01*
X179724364Y-83774635D01*
X179657267Y-83755148D01*
X179611357Y-83702478D01*
X179600000Y-83650636D01*
X179600000Y-82624000D01*
X179619685Y-82556961D01*
X179672489Y-82511206D01*
X179724000Y-82500000D01*
X181850000Y-82500000D01*
X181850000Y-80675000D01*
X181849998Y-80674999D01*
X180838865Y-80376255D01*
X180780151Y-80338382D01*
X180751233Y-80274778D01*
X180750000Y-80257337D01*
X180750000Y-77999000D01*
X180769685Y-77931961D01*
X180822489Y-77886206D01*
X180874000Y-77875000D01*
X182526000Y-77875000D01*
X182593039Y-77894685D01*
G37*
%TD.AperFunction*%
%TD*%
%TA.AperFunction,Conductor*%
%TO.N,GND*%
G36*
X177990394Y-68187000D02*
G01*
X177430247Y-68187000D01*
X177371770Y-68198631D01*
X177371768Y-68198632D01*
X177368887Y-68200558D01*
X177361655Y-68202822D01*
X177360487Y-68203306D01*
X177360443Y-68203201D01*
X177302209Y-68221433D01*
X177234829Y-68202946D01*
X177231113Y-68200558D01*
X177228231Y-68198632D01*
X177228229Y-68198631D01*
X177169752Y-68187000D01*
X177169748Y-68187000D01*
X176330252Y-68187000D01*
X176330247Y-68187000D01*
X176271770Y-68198631D01*
X176271768Y-68198632D01*
X176268887Y-68200558D01*
X176261655Y-68202822D01*
X176260487Y-68203306D01*
X176260443Y-68203201D01*
X176202209Y-68221433D01*
X176134829Y-68202946D01*
X176131113Y-68200558D01*
X176128231Y-68198632D01*
X176128229Y-68198631D01*
X176069752Y-68187000D01*
X176069748Y-68187000D01*
X175230252Y-68187000D01*
X175230247Y-68187000D01*
X175171770Y-68198631D01*
X175171766Y-68198633D01*
X175143890Y-68217260D01*
X175077213Y-68238138D01*
X175009833Y-68219653D01*
X175006110Y-68217260D01*
X174978233Y-68198633D01*
X174978229Y-68198631D01*
X174919752Y-68187000D01*
X174919748Y-68187000D01*
X174180252Y-68187000D01*
X174180247Y-68187000D01*
X174121770Y-68198631D01*
X174121769Y-68198632D01*
X174055447Y-68242947D01*
X174011132Y-68309269D01*
X174011131Y-68309270D01*
X173999500Y-68367747D01*
X173999500Y-70207252D01*
X174011131Y-70265729D01*
X174011132Y-70265730D01*
X174055447Y-70332052D01*
X174121769Y-70376367D01*
X174121770Y-70376368D01*
X174180247Y-70387999D01*
X174180250Y-70388000D01*
X174180252Y-70388000D01*
X174919750Y-70388000D01*
X174919751Y-70387999D01*
X174934568Y-70385052D01*
X174978229Y-70376368D01*
X174978231Y-70376367D01*
X175006108Y-70357740D01*
X175072785Y-70336861D01*
X175114908Y-70343439D01*
X175130340Y-70348684D01*
X175171769Y-70376367D01*
X175230252Y-70388000D01*
X175245998Y-70388000D01*
X175265408Y-70394598D01*
X175277892Y-70403384D01*
X175292539Y-70407685D01*
X175305880Y-70423082D01*
X175322546Y-70434811D01*
X175328298Y-70448953D01*
X175338294Y-70460489D01*
X175344391Y-70488518D01*
X175348871Y-70499531D01*
X175347907Y-70504681D01*
X175349500Y-70512000D01*
X175349500Y-71341324D01*
X175329815Y-71408363D01*
X175313181Y-71429005D01*
X175274502Y-71467683D01*
X175274500Y-71467686D01*
X175208608Y-71581812D01*
X175190204Y-71650499D01*
X175174500Y-71709108D01*
X175174500Y-71840892D01*
X175180107Y-71861819D01*
X175208608Y-71968187D01*
X175215140Y-71979500D01*
X175274500Y-72082314D01*
X175367686Y-72175500D01*
X175481814Y-72241392D01*
X175609108Y-72275500D01*
X175609110Y-72275500D01*
X175740890Y-72275500D01*
X175740892Y-72275500D01*
X175868186Y-72241392D01*
X175982314Y-72175500D01*
X176075500Y-72082314D01*
X176105113Y-72031023D01*
X176155680Y-71982807D01*
X176224287Y-71969585D01*
X176289152Y-71995553D01*
X176319887Y-72031023D01*
X176349500Y-72082314D01*
X176442686Y-72175500D01*
X176556814Y-72241392D01*
X176684108Y-72275500D01*
X176684110Y-72275500D01*
X176815890Y-72275500D01*
X176815892Y-72275500D01*
X176943186Y-72241392D01*
X177057314Y-72175500D01*
X177150500Y-72082314D01*
X177216392Y-71968186D01*
X177225523Y-71934108D01*
X200699500Y-71934108D01*
X200699500Y-72065891D01*
X200733608Y-72193187D01*
X200761439Y-72241391D01*
X200799500Y-72307314D01*
X200892686Y-72400500D01*
X201006814Y-72466392D01*
X201134108Y-72500500D01*
X201134110Y-72500500D01*
X201265890Y-72500500D01*
X201265892Y-72500500D01*
X201393186Y-72466392D01*
X201507314Y-72400500D01*
X201600500Y-72307314D01*
X201666392Y-72193186D01*
X201700500Y-72065892D01*
X201700500Y-71934108D01*
X201666392Y-71806814D01*
X201600500Y-71692686D01*
X201507314Y-71599500D01*
X201445887Y-71564035D01*
X201393187Y-71533608D01*
X201320022Y-71514004D01*
X201265892Y-71499500D01*
X201134108Y-71499500D01*
X201006812Y-71533608D01*
X200892686Y-71599500D01*
X200892683Y-71599502D01*
X200799502Y-71692683D01*
X200799500Y-71692686D01*
X200733608Y-71806812D01*
X200699500Y-71934108D01*
X177225523Y-71934108D01*
X177250500Y-71840892D01*
X177250500Y-71709108D01*
X177216392Y-71581814D01*
X177212764Y-71575531D01*
X177188560Y-71533608D01*
X177150500Y-71467686D01*
X177086818Y-71404004D01*
X177072113Y-71377073D01*
X177055523Y-71351258D01*
X177054631Y-71345055D01*
X177053334Y-71342680D01*
X177050500Y-71316323D01*
X177050500Y-71184108D01*
X195674500Y-71184108D01*
X195674500Y-71315892D01*
X195681678Y-71342680D01*
X195708608Y-71443187D01*
X195709941Y-71445495D01*
X195774500Y-71557314D01*
X195867686Y-71650500D01*
X195981814Y-71716392D01*
X196109108Y-71750500D01*
X196109110Y-71750500D01*
X196240890Y-71750500D01*
X196240892Y-71750500D01*
X196368186Y-71716392D01*
X196482314Y-71650500D01*
X196575500Y-71557314D01*
X196641392Y-71443186D01*
X196675500Y-71315892D01*
X196675500Y-71184108D01*
X196641392Y-71056814D01*
X196640488Y-71055249D01*
X196606725Y-70996770D01*
X196575500Y-70942686D01*
X196482314Y-70849500D01*
X196425250Y-70816554D01*
X196368187Y-70783608D01*
X196253394Y-70752850D01*
X196240892Y-70749500D01*
X196109108Y-70749500D01*
X195981812Y-70783608D01*
X195867686Y-70849500D01*
X195867683Y-70849502D01*
X195774502Y-70942683D01*
X195774500Y-70942686D01*
X195708608Y-71056812D01*
X195696902Y-71100500D01*
X195674500Y-71184108D01*
X177050500Y-71184108D01*
X177050500Y-70512000D01*
X177070185Y-70444961D01*
X177122989Y-70399206D01*
X177163857Y-70390315D01*
X177163688Y-70388597D01*
X177169742Y-70388000D01*
X177169748Y-70388000D01*
X177184568Y-70385052D01*
X177228229Y-70376368D01*
X177228231Y-70376367D01*
X177231108Y-70374445D01*
X177238335Y-70372181D01*
X177239513Y-70371694D01*
X177239556Y-70371799D01*
X177297785Y-70353566D01*
X177365165Y-70372050D01*
X177368892Y-70374445D01*
X177371768Y-70376367D01*
X177371770Y-70376368D01*
X177430247Y-70387999D01*
X177430250Y-70388000D01*
X177430252Y-70388000D01*
X178269750Y-70388000D01*
X178269751Y-70387999D01*
X178284568Y-70385052D01*
X178328229Y-70376368D01*
X178328231Y-70376367D01*
X178331108Y-70374445D01*
X178338335Y-70372181D01*
X178339513Y-70371694D01*
X178339556Y-70371799D01*
X178397785Y-70353566D01*
X178465165Y-70372050D01*
X178468892Y-70374445D01*
X178471768Y-70376367D01*
X178471770Y-70376368D01*
X178530247Y-70387999D01*
X178530250Y-70388000D01*
X178530252Y-70388000D01*
X179369750Y-70388000D01*
X179369751Y-70387999D01*
X179384568Y-70385052D01*
X179428229Y-70376368D01*
X179428231Y-70376367D01*
X179431108Y-70374445D01*
X179438335Y-70372181D01*
X179439513Y-70371694D01*
X179439556Y-70371799D01*
X179497785Y-70353566D01*
X179565165Y-70372050D01*
X179568892Y-70374445D01*
X179571768Y-70376367D01*
X179571770Y-70376368D01*
X179630247Y-70387999D01*
X179630250Y-70388000D01*
X179630252Y-70388000D01*
X180469750Y-70388000D01*
X180469751Y-70387999D01*
X180484568Y-70385052D01*
X180528229Y-70376368D01*
X180528229Y-70376367D01*
X180528231Y-70376367D01*
X180594552Y-70332052D01*
X180638867Y-70265731D01*
X180638867Y-70265729D01*
X180638868Y-70265729D01*
X180650499Y-70207252D01*
X180650500Y-70207250D01*
X180650500Y-68560000D01*
X181649500Y-68560000D01*
X181649500Y-70207252D01*
X181661131Y-70265729D01*
X181661132Y-70265730D01*
X181705447Y-70332052D01*
X181771769Y-70376367D01*
X181771770Y-70376368D01*
X181830247Y-70387999D01*
X181830250Y-70388000D01*
X181830252Y-70388000D01*
X182669750Y-70388000D01*
X182669751Y-70387999D01*
X182684568Y-70385052D01*
X182728229Y-70376368D01*
X182728229Y-70376367D01*
X182728231Y-70376367D01*
X182794552Y-70332052D01*
X182838867Y-70265731D01*
X182838867Y-70265729D01*
X182838868Y-70265729D01*
X182850499Y-70207252D01*
X182850500Y-70207250D01*
X182850500Y-68560000D01*
X193090000Y-68560000D01*
X193090272Y-68305513D01*
X196770285Y-68305513D01*
X196770285Y-68494486D01*
X196799844Y-68681118D01*
X196858239Y-68860836D01*
X196884742Y-68912850D01*
X196944025Y-69029199D01*
X197055095Y-69182073D01*
X197188712Y-69315690D01*
X197341586Y-69426760D01*
X197421132Y-69467290D01*
X197509948Y-69512545D01*
X197509950Y-69512545D01*
X197509953Y-69512547D01*
X197601304Y-69542229D01*
X197689666Y-69570940D01*
X197876299Y-69600500D01*
X197876304Y-69600500D01*
X198065271Y-69600500D01*
X198251903Y-69570940D01*
X198286988Y-69559540D01*
X198431617Y-69512547D01*
X198599984Y-69426760D01*
X198752858Y-69315690D01*
X198886475Y-69182073D01*
X198997545Y-69029199D01*
X199083332Y-68860832D01*
X199141725Y-68681118D01*
X199160908Y-68560000D01*
X199171285Y-68494486D01*
X199171285Y-68305513D01*
X199141725Y-68118881D01*
X199083330Y-67939163D01*
X199038075Y-67850347D01*
X198997545Y-67770801D01*
X198886475Y-67617927D01*
X198752858Y-67484310D01*
X198609628Y-67380247D01*
X201770285Y-67380247D01*
X201770285Y-69419752D01*
X201781916Y-69478229D01*
X201781917Y-69478230D01*
X201826232Y-69544552D01*
X201892554Y-69588867D01*
X201892555Y-69588868D01*
X201951032Y-69600499D01*
X201951035Y-69600500D01*
X201951037Y-69600500D01*
X203990535Y-69600500D01*
X203990536Y-69600499D01*
X204005353Y-69597552D01*
X204049014Y-69588868D01*
X204049014Y-69588867D01*
X204049016Y-69588867D01*
X204115337Y-69544552D01*
X204159652Y-69478231D01*
X204159652Y-69478229D01*
X204159653Y-69478229D01*
X204171284Y-69419752D01*
X204171285Y-69419750D01*
X204171285Y-67380249D01*
X204171284Y-67380247D01*
X204159653Y-67321770D01*
X204159652Y-67321769D01*
X204115337Y-67255447D01*
X204049015Y-67211132D01*
X204049014Y-67211131D01*
X203990537Y-67199500D01*
X203990533Y-67199500D01*
X201951037Y-67199500D01*
X201951032Y-67199500D01*
X201892555Y-67211131D01*
X201892554Y-67211132D01*
X201826232Y-67255447D01*
X201781917Y-67321769D01*
X201781916Y-67321770D01*
X201770285Y-67380247D01*
X198609628Y-67380247D01*
X198599984Y-67373240D01*
X198431621Y-67287454D01*
X198251903Y-67229059D01*
X198065271Y-67199500D01*
X198065266Y-67199500D01*
X197876304Y-67199500D01*
X197876299Y-67199500D01*
X197689666Y-67229059D01*
X197509948Y-67287454D01*
X197341585Y-67373240D01*
X197254364Y-67436610D01*
X197188712Y-67484310D01*
X197188710Y-67484312D01*
X197188709Y-67484312D01*
X197055097Y-67617924D01*
X197055097Y-67617925D01*
X197055095Y-67617927D01*
X197007395Y-67683579D01*
X196944025Y-67770800D01*
X196858239Y-67939163D01*
X196799844Y-68118881D01*
X196770285Y-68305513D01*
X193090272Y-68305513D01*
X193093469Y-65309108D01*
X202574500Y-65309108D01*
X202574500Y-65440891D01*
X202608608Y-65568187D01*
X202641554Y-65625250D01*
X202674500Y-65682314D01*
X202767686Y-65775500D01*
X202881814Y-65841392D01*
X203009108Y-65875500D01*
X203009110Y-65875500D01*
X203140890Y-65875500D01*
X203140892Y-65875500D01*
X203268186Y-65841392D01*
X203382314Y-65775500D01*
X203475500Y-65682314D01*
X203541392Y-65568186D01*
X203575500Y-65440892D01*
X203575500Y-65309108D01*
X203541392Y-65181814D01*
X203475500Y-65067686D01*
X203382314Y-64974500D01*
X203325250Y-64941554D01*
X203268187Y-64908608D01*
X203204539Y-64891554D01*
X203140892Y-64874500D01*
X203009108Y-64874500D01*
X202881812Y-64908608D01*
X202767686Y-64974500D01*
X202767683Y-64974502D01*
X202674502Y-65067683D01*
X202674500Y-65067686D01*
X202608608Y-65181812D01*
X202574500Y-65309108D01*
X193093469Y-65309108D01*
X193095523Y-63384108D01*
X201524500Y-63384108D01*
X201524500Y-63515891D01*
X201558608Y-63643187D01*
X201591554Y-63700250D01*
X201624500Y-63757314D01*
X201717686Y-63850500D01*
X201831814Y-63916392D01*
X201959108Y-63950500D01*
X201959110Y-63950500D01*
X202090890Y-63950500D01*
X202090892Y-63950500D01*
X202218186Y-63916392D01*
X202332314Y-63850500D01*
X202395995Y-63786819D01*
X202457318Y-63753334D01*
X202483676Y-63750500D01*
X205874167Y-63750500D01*
X205941206Y-63770185D01*
X205961848Y-63786819D01*
X208363181Y-66188152D01*
X208396666Y-66249475D01*
X208399500Y-66275833D01*
X208399500Y-69241323D01*
X208379815Y-69308362D01*
X208363182Y-69329004D01*
X208299500Y-69392686D01*
X208233608Y-69506812D01*
X208211622Y-69588867D01*
X208199500Y-69634108D01*
X208199500Y-69765892D01*
X208216554Y-69829539D01*
X208233608Y-69893187D01*
X208266554Y-69950250D01*
X208299500Y-70007314D01*
X208392686Y-70100500D01*
X208482749Y-70152498D01*
X208500578Y-70162792D01*
X208506814Y-70166392D01*
X208634108Y-70200500D01*
X208634110Y-70200500D01*
X208765890Y-70200500D01*
X208765892Y-70200500D01*
X208893186Y-70166392D01*
X209007314Y-70100500D01*
X209100500Y-70007314D01*
X209166392Y-69893186D01*
X209200500Y-69765892D01*
X209200500Y-69634108D01*
X209166392Y-69506814D01*
X209100500Y-69392686D01*
X209036818Y-69329004D01*
X209003334Y-69267680D01*
X209000500Y-69241323D01*
X209000500Y-67355730D01*
X210664500Y-67355730D01*
X210664500Y-67989269D01*
X210667353Y-68019699D01*
X210667353Y-68019701D01*
X210702059Y-68118881D01*
X210712207Y-68147882D01*
X210792850Y-68257150D01*
X210902118Y-68337793D01*
X210944845Y-68352744D01*
X211030299Y-68382646D01*
X211060730Y-68385500D01*
X211060734Y-68385500D01*
X212069270Y-68385500D01*
X212099699Y-68382646D01*
X212099701Y-68382646D01*
X212163790Y-68360219D01*
X212227882Y-68337793D01*
X212337150Y-68257150D01*
X212417793Y-68147882D01*
X212454374Y-68043339D01*
X212462646Y-68019701D01*
X212462646Y-68019699D01*
X212465500Y-67989269D01*
X212465500Y-67355730D01*
X212462646Y-67325300D01*
X212462646Y-67325298D01*
X212422697Y-67211133D01*
X212417793Y-67197118D01*
X212337150Y-67087850D01*
X212227882Y-67007207D01*
X212227880Y-67007206D01*
X212099700Y-66962353D01*
X212069270Y-66959500D01*
X212069266Y-66959500D01*
X211964500Y-66959500D01*
X211955814Y-66956949D01*
X211946853Y-66958238D01*
X211922812Y-66947259D01*
X211897461Y-66939815D01*
X211891533Y-66932974D01*
X211883297Y-66929213D01*
X211869007Y-66906978D01*
X211851706Y-66887011D01*
X211849418Y-66876496D01*
X211845523Y-66870435D01*
X211840500Y-66835500D01*
X211840500Y-66793676D01*
X211860185Y-66726637D01*
X211876819Y-66705995D01*
X211940500Y-66642314D01*
X212006392Y-66528186D01*
X212040500Y-66400892D01*
X212040500Y-66269108D01*
X212006392Y-66141814D01*
X211940500Y-66027686D01*
X211847314Y-65934500D01*
X211790250Y-65901554D01*
X211733187Y-65868608D01*
X211669498Y-65851543D01*
X211605892Y-65834500D01*
X211474108Y-65834500D01*
X211346812Y-65868608D01*
X211232686Y-65934500D01*
X211232683Y-65934502D01*
X211139502Y-66027683D01*
X211139500Y-66027686D01*
X211073608Y-66141812D01*
X211039500Y-66269108D01*
X211039500Y-66400891D01*
X211073608Y-66528187D01*
X211082063Y-66542831D01*
X211139500Y-66642314D01*
X211139502Y-66642316D01*
X211203181Y-66705995D01*
X211217884Y-66732922D01*
X211234477Y-66758741D01*
X211235368Y-66764941D01*
X211236666Y-66767318D01*
X211239500Y-66793676D01*
X211239500Y-66835500D01*
X211219815Y-66902539D01*
X211167011Y-66948294D01*
X211115500Y-66959500D01*
X211060730Y-66959500D01*
X211030300Y-66962353D01*
X211030298Y-66962353D01*
X210902119Y-67007206D01*
X210902117Y-67007207D01*
X210792850Y-67087850D01*
X210712207Y-67197117D01*
X210712206Y-67197119D01*
X210667353Y-67325298D01*
X210667353Y-67325300D01*
X210664500Y-67355730D01*
X209000500Y-67355730D01*
X209000500Y-66060439D01*
X208996009Y-66043678D01*
X208980021Y-65984011D01*
X208980017Y-65984004D01*
X208940464Y-65915495D01*
X208940458Y-65915487D01*
X206234512Y-63209541D01*
X206234504Y-63209535D01*
X206165995Y-63169982D01*
X206165990Y-63169979D01*
X206140513Y-63163152D01*
X206089562Y-63149500D01*
X206089560Y-63149500D01*
X202483676Y-63149500D01*
X202416637Y-63129815D01*
X202395995Y-63113181D01*
X202332316Y-63049502D01*
X202332314Y-63049500D01*
X202275250Y-63016554D01*
X202218187Y-62983608D01*
X202154539Y-62966554D01*
X202090892Y-62949500D01*
X201959108Y-62949500D01*
X201831812Y-62983608D01*
X201717686Y-63049500D01*
X201717683Y-63049502D01*
X201624502Y-63142683D01*
X201624500Y-63142686D01*
X201558608Y-63256812D01*
X201524500Y-63384108D01*
X193095523Y-63384108D01*
X193098355Y-60730500D01*
X214905658Y-60730500D01*
X214972697Y-60750185D01*
X215018452Y-60802989D01*
X215029658Y-60854500D01*
X215029658Y-63275982D01*
X215031890Y-63280070D01*
X215034724Y-63306428D01*
X215034724Y-63430570D01*
X215075156Y-63789414D01*
X215075158Y-63789426D01*
X215155517Y-64141504D01*
X215155518Y-64141506D01*
X215274792Y-64482373D01*
X215431479Y-64807737D01*
X215431481Y-64807740D01*
X215623615Y-65113519D01*
X215848777Y-65395864D01*
X216104136Y-65651223D01*
X216386481Y-65876385D01*
X216692260Y-66068519D01*
X217017628Y-66225208D01*
X217358495Y-66344482D01*
X217710573Y-66424842D01*
X218069430Y-66465275D01*
X218069431Y-66465276D01*
X218069434Y-66465276D01*
X218193572Y-66465276D01*
X218210825Y-66470342D01*
X218250000Y-66470342D01*
X220765500Y-66470342D01*
X220832539Y-66490027D01*
X220878294Y-66542831D01*
X220889500Y-66594342D01*
X220889500Y-84778962D01*
X220869815Y-84846001D01*
X220817011Y-84891756D01*
X220765756Y-84902962D01*
X219004756Y-84906601D01*
X218937676Y-84887055D01*
X218891812Y-84834345D01*
X218880500Y-84782601D01*
X218880500Y-83410249D01*
X218880499Y-83410247D01*
X218868868Y-83351770D01*
X218868867Y-83351769D01*
X218824552Y-83285447D01*
X218758230Y-83241132D01*
X218758229Y-83241131D01*
X218699752Y-83229500D01*
X218699748Y-83229500D01*
X216660252Y-83229500D01*
X216660247Y-83229500D01*
X216601770Y-83241131D01*
X216601769Y-83241132D01*
X216535447Y-83285447D01*
X216491132Y-83351769D01*
X216491131Y-83351770D01*
X216479500Y-83410247D01*
X216479500Y-83763745D01*
X216459815Y-83830784D01*
X216407011Y-83876539D01*
X216337853Y-83886483D01*
X216274297Y-83857458D01*
X216267819Y-83851426D01*
X214436819Y-82020426D01*
X214403334Y-81959103D01*
X214400500Y-81932745D01*
X214400500Y-79449500D01*
X214420185Y-79382461D01*
X214472989Y-79336706D01*
X214524500Y-79325500D01*
X217369750Y-79325500D01*
X217369751Y-79325499D01*
X217384568Y-79322552D01*
X217428229Y-79313868D01*
X217428229Y-79313867D01*
X217428231Y-79313867D01*
X217494552Y-79269552D01*
X217538867Y-79203231D01*
X217538867Y-79203229D01*
X217538868Y-79203229D01*
X217550499Y-79144752D01*
X217550500Y-79144750D01*
X217550500Y-78705249D01*
X217550499Y-78705247D01*
X217536485Y-78634790D01*
X217537762Y-78634535D01*
X217531680Y-78577991D01*
X217538694Y-78554100D01*
X217548367Y-78505472D01*
X217550500Y-78494748D01*
X217550500Y-78055252D01*
X217550500Y-78055249D01*
X217550499Y-78055247D01*
X217536485Y-77984790D01*
X217537762Y-77984535D01*
X217531680Y-77927991D01*
X217538694Y-77904100D01*
X217545925Y-77867747D01*
X217550500Y-77844748D01*
X217550500Y-77405252D01*
X217550500Y-77405249D01*
X217550499Y-77405247D01*
X217536485Y-77334790D01*
X217537762Y-77334535D01*
X217531680Y-77277991D01*
X217538694Y-77254100D01*
X217541289Y-77241053D01*
X217550500Y-77194748D01*
X217550500Y-76755252D01*
X217550500Y-76755249D01*
X217550499Y-76755247D01*
X217538868Y-76696770D01*
X217538867Y-76696769D01*
X217494552Y-76630447D01*
X217428230Y-76586132D01*
X217428229Y-76586131D01*
X217369752Y-76574500D01*
X217369748Y-76574500D01*
X215680252Y-76574500D01*
X215680247Y-76574500D01*
X215621770Y-76586131D01*
X215621769Y-76586132D01*
X215555447Y-76630447D01*
X215511132Y-76696769D01*
X215511131Y-76696770D01*
X215499500Y-76755247D01*
X215499500Y-77100500D01*
X215479815Y-77167539D01*
X215427011Y-77213294D01*
X215375500Y-77224500D01*
X213835339Y-77224500D01*
X213835323Y-77224499D01*
X213827727Y-77224499D01*
X213722273Y-77224499D01*
X213660498Y-77241052D01*
X213620412Y-77251793D01*
X213529084Y-77304522D01*
X212379522Y-78454084D01*
X212379520Y-78454087D01*
X212326791Y-78545414D01*
X212307883Y-78615986D01*
X212307883Y-78615987D01*
X212299500Y-78647272D01*
X212299500Y-82176000D01*
X212279815Y-82243039D01*
X212227011Y-82288794D01*
X212175500Y-82300000D01*
X206224500Y-82300000D01*
X206157461Y-82280315D01*
X206111706Y-82227511D01*
X206100500Y-82176000D01*
X206100500Y-75050833D01*
X206109144Y-75021392D01*
X206115668Y-74991406D01*
X206119422Y-74986390D01*
X206120185Y-74983794D01*
X206136819Y-74963152D01*
X206163152Y-74936819D01*
X206224475Y-74903334D01*
X206250833Y-74900500D01*
X208064167Y-74900500D01*
X208131206Y-74920185D01*
X208151848Y-74936819D01*
X208163681Y-74948652D01*
X208197166Y-75009975D01*
X208200000Y-75036333D01*
X208200000Y-77175000D01*
X211825000Y-77175000D01*
X211825000Y-74925000D01*
X211678570Y-74925000D01*
X211611531Y-74905315D01*
X211565776Y-74852511D01*
X211558796Y-74833095D01*
X211555022Y-74819013D01*
X211555022Y-74819012D01*
X211515460Y-74750489D01*
X210006819Y-73241848D01*
X209973334Y-73180525D01*
X209970500Y-73154167D01*
X209970500Y-72548756D01*
X209990185Y-72481717D01*
X210042989Y-72435962D01*
X210105335Y-72425423D01*
X210105338Y-72425365D01*
X210105608Y-72425377D01*
X210106080Y-72425298D01*
X210108234Y-72425500D01*
X210741770Y-72425500D01*
X210772199Y-72422646D01*
X210772201Y-72422646D01*
X210836290Y-72400219D01*
X210900382Y-72377793D01*
X211009650Y-72297150D01*
X211090293Y-72187882D01*
X211127233Y-72082314D01*
X211135146Y-72059701D01*
X211135146Y-72059699D01*
X211138000Y-72029269D01*
X211138000Y-71020730D01*
X211537000Y-71020730D01*
X211537000Y-72029269D01*
X211539853Y-72059699D01*
X211539853Y-72059701D01*
X211580373Y-72175497D01*
X211584707Y-72187882D01*
X211665350Y-72297150D01*
X211774618Y-72377793D01*
X211817345Y-72392744D01*
X211902799Y-72422646D01*
X211933230Y-72425500D01*
X211933234Y-72425500D01*
X212566770Y-72425500D01*
X212597199Y-72422646D01*
X212597201Y-72422646D01*
X212661290Y-72400219D01*
X212725382Y-72377793D01*
X212834650Y-72297150D01*
X212915293Y-72187882D01*
X212952233Y-72082314D01*
X212960146Y-72059701D01*
X212960146Y-72059699D01*
X212963000Y-72029269D01*
X212963000Y-71949500D01*
X212982685Y-71882461D01*
X213035489Y-71836706D01*
X213087000Y-71825500D01*
X214185033Y-71825500D01*
X214252072Y-71845185D01*
X214272714Y-71861819D01*
X214280446Y-71869551D01*
X214346769Y-71913867D01*
X214346770Y-71913868D01*
X214405247Y-71925499D01*
X214405250Y-71925500D01*
X214405252Y-71925500D01*
X215494750Y-71925500D01*
X215494751Y-71925499D01*
X215509568Y-71922552D01*
X215553229Y-71913868D01*
X215553229Y-71913867D01*
X215553231Y-71913867D01*
X215619552Y-71869552D01*
X215619553Y-71869551D01*
X215627286Y-71861819D01*
X215688609Y-71828334D01*
X215714967Y-71825500D01*
X218335033Y-71825500D01*
X218402072Y-71845185D01*
X218422714Y-71861819D01*
X218430446Y-71869551D01*
X218496769Y-71913867D01*
X218496770Y-71913868D01*
X218555247Y-71925499D01*
X218555250Y-71925500D01*
X218555252Y-71925500D01*
X219644750Y-71925500D01*
X219644751Y-71925499D01*
X219659568Y-71922552D01*
X219703229Y-71913868D01*
X219703229Y-71913867D01*
X219703231Y-71913867D01*
X219769552Y-71869552D01*
X219813867Y-71803231D01*
X219813867Y-71803229D01*
X219813868Y-71803229D01*
X219825499Y-71744752D01*
X219825500Y-71744750D01*
X219825500Y-71055249D01*
X219825499Y-71055247D01*
X219813868Y-70996770D01*
X219813867Y-70996769D01*
X219769552Y-70930447D01*
X219703230Y-70886132D01*
X219703229Y-70886131D01*
X219644752Y-70874500D01*
X219644748Y-70874500D01*
X218555252Y-70874500D01*
X218555247Y-70874500D01*
X218496770Y-70886131D01*
X218496769Y-70886132D01*
X218430447Y-70930447D01*
X218386132Y-70996769D01*
X218386131Y-70996770D01*
X218374500Y-71055247D01*
X218374500Y-71100500D01*
X218354815Y-71167539D01*
X218302011Y-71213294D01*
X218250500Y-71224500D01*
X215799500Y-71224500D01*
X215732461Y-71204815D01*
X215686706Y-71152011D01*
X215675500Y-71100500D01*
X215675500Y-71055249D01*
X215675499Y-71055247D01*
X215663868Y-70996770D01*
X215663867Y-70996769D01*
X215619552Y-70930447D01*
X215553230Y-70886132D01*
X215553229Y-70886131D01*
X215494752Y-70874500D01*
X215494748Y-70874500D01*
X214405252Y-70874500D01*
X214405247Y-70874500D01*
X214346770Y-70886131D01*
X214346769Y-70886132D01*
X214280447Y-70930447D01*
X214236132Y-70996769D01*
X214236131Y-70996770D01*
X214224500Y-71055247D01*
X214224500Y-71100500D01*
X214204815Y-71167539D01*
X214152011Y-71213294D01*
X214100500Y-71224500D01*
X213087000Y-71224500D01*
X213019961Y-71204815D01*
X212974206Y-71152011D01*
X212963000Y-71100500D01*
X212963000Y-71020730D01*
X212960146Y-70990300D01*
X212960146Y-70990298D01*
X212923695Y-70886131D01*
X212915293Y-70862118D01*
X212834650Y-70752850D01*
X212725382Y-70672207D01*
X212725380Y-70672206D01*
X212597200Y-70627353D01*
X212566770Y-70624500D01*
X212566766Y-70624500D01*
X211933234Y-70624500D01*
X211933230Y-70624500D01*
X211902800Y-70627353D01*
X211902798Y-70627353D01*
X211774619Y-70672206D01*
X211774617Y-70672207D01*
X211665350Y-70752850D01*
X211584707Y-70862117D01*
X211584706Y-70862119D01*
X211539853Y-70990298D01*
X211539853Y-70990300D01*
X211537000Y-71020730D01*
X211138000Y-71020730D01*
X211135146Y-70990300D01*
X211135146Y-70990298D01*
X211098695Y-70886131D01*
X211090293Y-70862118D01*
X211009650Y-70752850D01*
X210900382Y-70672207D01*
X210861527Y-70658611D01*
X210808544Y-70640071D01*
X210789555Y-70626451D01*
X210768297Y-70616743D01*
X210761693Y-70606467D01*
X210751769Y-70599349D01*
X210743157Y-70577625D01*
X210730523Y-70557965D01*
X210727767Y-70538798D01*
X210726022Y-70534396D01*
X210725500Y-70523030D01*
X210725500Y-70275236D01*
X210745185Y-70208197D01*
X210797989Y-70162442D01*
X210867147Y-70152498D01*
X210892940Y-70160888D01*
X210893348Y-70159724D01*
X210902117Y-70162792D01*
X210902118Y-70162793D01*
X210930029Y-70172559D01*
X211030299Y-70207646D01*
X211060730Y-70210500D01*
X211060734Y-70210500D01*
X212069270Y-70210500D01*
X212099699Y-70207646D01*
X212099701Y-70207646D01*
X212163790Y-70185219D01*
X212227882Y-70162793D01*
X212337150Y-70082150D01*
X212417793Y-69972882D01*
X212440219Y-69908790D01*
X212462646Y-69844701D01*
X212462646Y-69844699D01*
X212465500Y-69814269D01*
X212465500Y-69180730D01*
X212462646Y-69150300D01*
X212462646Y-69150298D01*
X212429006Y-69054163D01*
X212417793Y-69022118D01*
X212337150Y-68912850D01*
X212227882Y-68832207D01*
X212227880Y-68832206D01*
X212099700Y-68787353D01*
X212069270Y-68784500D01*
X212069266Y-68784500D01*
X211060734Y-68784500D01*
X211060730Y-68784500D01*
X211030300Y-68787353D01*
X211030298Y-68787353D01*
X210902119Y-68832206D01*
X210902117Y-68832207D01*
X210792850Y-68912850D01*
X210712207Y-69022117D01*
X210669082Y-69145359D01*
X210628360Y-69202135D01*
X210614043Y-69211789D01*
X210552992Y-69247038D01*
X210552986Y-69247042D01*
X210184541Y-69615487D01*
X210184535Y-69615495D01*
X210144982Y-69684004D01*
X210144979Y-69684009D01*
X210124500Y-69760439D01*
X210124500Y-70523030D01*
X210104815Y-70590069D01*
X210052011Y-70635824D01*
X210041456Y-70640071D01*
X209949617Y-70672207D01*
X209840350Y-70752850D01*
X209759707Y-70862117D01*
X209759706Y-70862119D01*
X209714853Y-70990298D01*
X209714853Y-70990300D01*
X209712000Y-71020730D01*
X209712000Y-71142794D01*
X209708617Y-71154311D01*
X209709759Y-71166260D01*
X209698956Y-71187214D01*
X209692315Y-71209833D01*
X209682444Y-71219244D01*
X209677744Y-71228363D01*
X209650001Y-71250180D01*
X209607879Y-71274500D01*
X209607877Y-71274500D01*
X209607877Y-71274501D01*
X209590492Y-71284537D01*
X209590487Y-71284541D01*
X209429541Y-71445487D01*
X209429535Y-71445495D01*
X209389982Y-71514004D01*
X209389979Y-71514009D01*
X209379144Y-71554446D01*
X209371812Y-71581812D01*
X209369500Y-71590439D01*
X209369500Y-72905500D01*
X209349815Y-72972539D01*
X209297011Y-73018294D01*
X209245500Y-73029500D01*
X205430438Y-73029500D01*
X205392224Y-73039739D01*
X205354009Y-73049979D01*
X205316583Y-73071587D01*
X205292854Y-73085288D01*
X205288056Y-73088057D01*
X205285485Y-73089542D01*
X205285484Y-73089543D01*
X204385489Y-73989540D01*
X204329541Y-74045487D01*
X204329535Y-74045495D01*
X204289982Y-74114004D01*
X204289979Y-74114009D01*
X204269500Y-74190439D01*
X204269500Y-81176000D01*
X204249815Y-81243039D01*
X204197011Y-81288794D01*
X204145500Y-81300000D01*
X203225786Y-81300000D01*
X203158747Y-81280315D01*
X203112992Y-81227511D01*
X203103048Y-81158353D01*
X203113404Y-81123596D01*
X203133972Y-81079487D01*
X203133972Y-81079486D01*
X203140500Y-81029901D01*
X203140499Y-80610100D01*
X203133972Y-80560513D01*
X203083224Y-80451684D01*
X202998316Y-80366776D01*
X202996819Y-80365279D01*
X202963334Y-80303956D01*
X202960500Y-80277598D01*
X202960500Y-79497939D01*
X202960500Y-79497938D01*
X202940021Y-79421511D01*
X202917476Y-79382461D01*
X202900464Y-79352995D01*
X202900458Y-79352987D01*
X202873901Y-79326430D01*
X202869562Y-79318484D01*
X202862315Y-79313059D01*
X202853080Y-79288299D01*
X202840416Y-79265107D01*
X202841061Y-79256077D01*
X202837898Y-79247595D01*
X202843514Y-79221774D01*
X202845400Y-79195415D01*
X202851218Y-79186361D01*
X202852750Y-79179322D01*
X202873896Y-79151074D01*
X202997018Y-79027951D01*
X203058339Y-78994468D01*
X203116790Y-78995859D01*
X203134108Y-79000500D01*
X203134110Y-79000500D01*
X203265890Y-79000500D01*
X203265892Y-79000500D01*
X203393186Y-78966392D01*
X203507314Y-78900500D01*
X203600500Y-78807314D01*
X203666392Y-78693186D01*
X203700500Y-78565892D01*
X203700500Y-78434108D01*
X203666392Y-78306814D01*
X203600500Y-78192686D01*
X203507314Y-78099500D01*
X203450250Y-78066554D01*
X203393187Y-78033608D01*
X203329539Y-78016554D01*
X203265892Y-77999500D01*
X203134108Y-77999500D01*
X203006812Y-78033608D01*
X202892686Y-78099500D01*
X202892683Y-78099502D01*
X202799502Y-78192683D01*
X202799500Y-78192686D01*
X202733608Y-78306812D01*
X202699500Y-78434107D01*
X202698714Y-78440080D01*
X202670445Y-78503976D01*
X202663456Y-78511572D01*
X202448931Y-78726098D01*
X202443713Y-78728946D01*
X202440390Y-78733879D01*
X202413392Y-78745503D01*
X202387608Y-78759583D01*
X202381678Y-78759158D01*
X202376216Y-78761511D01*
X202347225Y-78756695D01*
X202317917Y-78754599D01*
X202311644Y-78750784D01*
X202307291Y-78750061D01*
X202288506Y-78736712D01*
X202278023Y-78730337D01*
X202275749Y-78728278D01*
X202184511Y-78637040D01*
X202169653Y-78628462D01*
X202115989Y-78597479D01*
X202039562Y-78577000D01*
X202039560Y-78577000D01*
X201820321Y-78577000D01*
X201753282Y-78557315D01*
X201707939Y-78505404D01*
X201704065Y-78497096D01*
X201620404Y-78413435D01*
X201513173Y-78363432D01*
X201513171Y-78363431D01*
X201513172Y-78363431D01*
X201464317Y-78357000D01*
X201464316Y-78357000D01*
X201115684Y-78357000D01*
X201115683Y-78357000D01*
X201066828Y-78363431D01*
X200959595Y-78413435D01*
X200868264Y-78504767D01*
X200865440Y-78501943D01*
X200826958Y-78532683D01*
X200757458Y-78539852D01*
X200695114Y-78508308D01*
X200692191Y-78505472D01*
X200684263Y-78497521D01*
X200684065Y-78497096D01*
X200606689Y-78419720D01*
X200589914Y-78388892D01*
X200573334Y-78358527D01*
X200573319Y-78358394D01*
X200573296Y-78358351D01*
X200573303Y-78358245D01*
X200570500Y-78332169D01*
X200570500Y-78256176D01*
X200590185Y-78189137D01*
X200606819Y-78168495D01*
X200626819Y-78148495D01*
X200680500Y-78094814D01*
X200746392Y-77980686D01*
X200780500Y-77853392D01*
X200780500Y-77721608D01*
X200746392Y-77594314D01*
X200680500Y-77480186D01*
X200587314Y-77387000D01*
X200496884Y-77334790D01*
X200473187Y-77321108D01*
X200394409Y-77300000D01*
X200345892Y-77287000D01*
X200214108Y-77287000D01*
X200086812Y-77321108D01*
X199972686Y-77387000D01*
X199972683Y-77387002D01*
X199879502Y-77480183D01*
X199879500Y-77480186D01*
X199813608Y-77594312D01*
X199789201Y-77685403D01*
X199779500Y-77721608D01*
X199779500Y-77853392D01*
X199783347Y-77867749D01*
X199813608Y-77980687D01*
X199824470Y-77999500D01*
X199879500Y-78094814D01*
X199879502Y-78094816D01*
X199933181Y-78148495D01*
X199947884Y-78175422D01*
X199964477Y-78201241D01*
X199965368Y-78207441D01*
X199966666Y-78209818D01*
X199969500Y-78236176D01*
X199969500Y-78332169D01*
X199949815Y-78399208D01*
X199933181Y-78419850D01*
X199855935Y-78497095D01*
X199805931Y-78604328D01*
X199799500Y-78653183D01*
X199799500Y-79101816D01*
X199805931Y-79150671D01*
X199805932Y-79150673D01*
X199849072Y-79243187D01*
X199857829Y-79261965D01*
X199858815Y-79268459D01*
X199862627Y-79273812D01*
X199863997Y-79302576D01*
X199868321Y-79331042D01*
X199865716Y-79338664D01*
X199865952Y-79343602D01*
X199852835Y-79376369D01*
X199817254Y-79437999D01*
X199766688Y-79486215D01*
X199709866Y-79500000D01*
X198424500Y-79500000D01*
X198357461Y-79480315D01*
X198311706Y-79427511D01*
X198300500Y-79376000D01*
X198300500Y-78573024D01*
X198320185Y-78505985D01*
X198372989Y-78460230D01*
X198392397Y-78453252D01*
X198488942Y-78427384D01*
X198603070Y-78361492D01*
X198696256Y-78268306D01*
X198762148Y-78154178D01*
X198796256Y-78026884D01*
X198796256Y-77895100D01*
X198762148Y-77767806D01*
X198696256Y-77653678D01*
X198603070Y-77560492D01*
X198533542Y-77520350D01*
X198488943Y-77494600D01*
X198425295Y-77477546D01*
X198361648Y-77460492D01*
X198229864Y-77460492D01*
X198221737Y-77460492D01*
X198221737Y-77457116D01*
X198168135Y-77448729D01*
X198115903Y-77402322D01*
X198101270Y-77368679D01*
X198091392Y-77331814D01*
X198025500Y-77217686D01*
X197932314Y-77124500D01*
X197853236Y-77078844D01*
X197818187Y-77058608D01*
X197754539Y-77041554D01*
X197690892Y-77024500D01*
X197559108Y-77024500D01*
X197431812Y-77058608D01*
X197317686Y-77124500D01*
X197317683Y-77124502D01*
X197224502Y-77217683D01*
X197224500Y-77217686D01*
X197158608Y-77331812D01*
X197129699Y-77439706D01*
X197124500Y-77459108D01*
X197124500Y-77590892D01*
X197128349Y-77605257D01*
X197158608Y-77718187D01*
X197181478Y-77757798D01*
X197224500Y-77832314D01*
X197224502Y-77832316D01*
X197263181Y-77870995D01*
X197296666Y-77932318D01*
X197299500Y-77958676D01*
X197299500Y-81375500D01*
X197279815Y-81442539D01*
X197227011Y-81488294D01*
X197175500Y-81499500D01*
X196875833Y-81499500D01*
X196846392Y-81490855D01*
X196816406Y-81484332D01*
X196811390Y-81480577D01*
X196808794Y-81479815D01*
X196788152Y-81463181D01*
X196633661Y-81308690D01*
X196600176Y-81247367D01*
X196605160Y-81177675D01*
X196613951Y-81159015D01*
X196666392Y-81068186D01*
X196700500Y-80940892D01*
X196700500Y-80809108D01*
X196666392Y-80681814D01*
X196600500Y-80567686D01*
X196507314Y-80474500D01*
X196405115Y-80415495D01*
X196393187Y-80408608D01*
X196329539Y-80391554D01*
X196265892Y-80374500D01*
X196134108Y-80374500D01*
X196006812Y-80408608D01*
X195892686Y-80474500D01*
X195892683Y-80474502D01*
X195799502Y-80567683D01*
X195799500Y-80567686D01*
X195731887Y-80684794D01*
X195681319Y-80733009D01*
X195612712Y-80746231D01*
X195547848Y-80720263D01*
X195507320Y-80663349D01*
X195500500Y-80622793D01*
X195500500Y-80560439D01*
X195480020Y-80484009D01*
X195480017Y-80484004D01*
X195440464Y-80415495D01*
X195440458Y-80415487D01*
X194771053Y-79746082D01*
X194754541Y-79715843D01*
X194737749Y-79685579D01*
X194737777Y-79685142D01*
X194737568Y-79684759D01*
X194740034Y-79650275D01*
X194742262Y-79615855D01*
X194742531Y-79615353D01*
X194742552Y-79615067D01*
X194758962Y-79584770D01*
X194771180Y-79568216D01*
X194826828Y-79525968D01*
X194896484Y-79520512D01*
X194903024Y-79522075D01*
X195009108Y-79550500D01*
X195009110Y-79550500D01*
X195140890Y-79550500D01*
X195140892Y-79550500D01*
X195268186Y-79516392D01*
X195382314Y-79450500D01*
X195475500Y-79357314D01*
X195541392Y-79243186D01*
X195575500Y-79115892D01*
X195575500Y-78984108D01*
X195541392Y-78856814D01*
X195475500Y-78742686D01*
X195382314Y-78649500D01*
X195304074Y-78604328D01*
X195268187Y-78583608D01*
X195202061Y-78565890D01*
X195140892Y-78549500D01*
X195009108Y-78549500D01*
X195009106Y-78549500D01*
X194903038Y-78577920D01*
X194833188Y-78576257D01*
X194775326Y-78537093D01*
X194771176Y-78531778D01*
X194722151Y-78465351D01*
X194716922Y-78461492D01*
X194612882Y-78384707D01*
X194612880Y-78384706D01*
X194484700Y-78339853D01*
X194454270Y-78337000D01*
X194454266Y-78337000D01*
X193445734Y-78337000D01*
X193445730Y-78337000D01*
X193415300Y-78339853D01*
X193415298Y-78339853D01*
X193287119Y-78384706D01*
X193287117Y-78384707D01*
X193177850Y-78465350D01*
X193137078Y-78520594D01*
X193081430Y-78562845D01*
X193011774Y-78568303D01*
X193005216Y-78566735D01*
X192940893Y-78549500D01*
X192940892Y-78549500D01*
X192809108Y-78549500D01*
X192681811Y-78583608D01*
X192606838Y-78626894D01*
X192579775Y-78633458D01*
X192553685Y-78643190D01*
X192546290Y-78641581D01*
X192538937Y-78643365D01*
X192512622Y-78634257D01*
X192485412Y-78628338D01*
X192476720Y-78621831D01*
X192472911Y-78620513D01*
X192457158Y-78607187D01*
X192356819Y-78506848D01*
X192323334Y-78445525D01*
X192320500Y-78419167D01*
X192320500Y-77788230D01*
X192317646Y-77757800D01*
X192317646Y-77757798D01*
X192272793Y-77629619D01*
X192272792Y-77629617D01*
X192270962Y-77627137D01*
X192192150Y-77520350D01*
X192082882Y-77439707D01*
X192082880Y-77439706D01*
X191954700Y-77394853D01*
X191924270Y-77392000D01*
X191924266Y-77392000D01*
X190915734Y-77392000D01*
X190915730Y-77392000D01*
X190885300Y-77394853D01*
X190885298Y-77394853D01*
X190757119Y-77439706D01*
X190757117Y-77439707D01*
X190647850Y-77520350D01*
X190647846Y-77520354D01*
X190619238Y-77559116D01*
X190563590Y-77601366D01*
X190493934Y-77606823D01*
X190487379Y-77605257D01*
X190472856Y-77601366D01*
X190465892Y-77599500D01*
X190334108Y-77599500D01*
X190206812Y-77633608D01*
X190092686Y-77699500D01*
X190092683Y-77699502D01*
X189999502Y-77792683D01*
X189999500Y-77792686D01*
X189933608Y-77906812D01*
X189909505Y-77996769D01*
X189899500Y-78034108D01*
X189899500Y-78165892D01*
X189908025Y-78197707D01*
X189933608Y-78293187D01*
X189941475Y-78306812D01*
X189999500Y-78407314D01*
X190092686Y-78500500D01*
X190184019Y-78553231D01*
X190205944Y-78565890D01*
X190206814Y-78566392D01*
X190334108Y-78600500D01*
X190341260Y-78600500D01*
X190408299Y-78620185D01*
X190454054Y-78672989D01*
X190465253Y-78723276D01*
X190465612Y-78759583D01*
X190468565Y-79059342D01*
X190449542Y-79126573D01*
X190397191Y-79172845D01*
X190344571Y-79184564D01*
X188380000Y-79184564D01*
X188380000Y-81597889D01*
X188360315Y-81664928D01*
X188307511Y-81710683D01*
X188255537Y-81721888D01*
X187750000Y-81719999D01*
X187750000Y-84847433D01*
X187730315Y-84914472D01*
X187677511Y-84960227D01*
X187626258Y-84971432D01*
X187588385Y-84971510D01*
X187700000Y-84750000D01*
X185475000Y-84775000D01*
X185582069Y-84975656D01*
X185582068Y-84975656D01*
X175050000Y-84997416D01*
X175050000Y-84997417D01*
X166196882Y-85015708D01*
X166192369Y-84975656D01*
X166185476Y-84914472D01*
X166180362Y-84869082D01*
X166180361Y-84869077D01*
X166180360Y-84869068D01*
X166100000Y-84516990D01*
X165980726Y-84176123D01*
X165852814Y-83910512D01*
X165824038Y-83850757D01*
X165821779Y-83847162D01*
X165631903Y-83544976D01*
X165406741Y-83262631D01*
X165151382Y-83007272D01*
X164869037Y-82782110D01*
X164563258Y-82589976D01*
X164563255Y-82589974D01*
X164237891Y-82433287D01*
X163897024Y-82314013D01*
X163897022Y-82314012D01*
X163625304Y-82251994D01*
X163544945Y-82233653D01*
X163544941Y-82233652D01*
X163544932Y-82233651D01*
X163186088Y-82193219D01*
X163186084Y-82193219D01*
X162824952Y-82193219D01*
X162824947Y-82193219D01*
X162466103Y-82233651D01*
X162466091Y-82233653D01*
X162114013Y-82314012D01*
X162114011Y-82314013D01*
X161773144Y-82433287D01*
X161447780Y-82589974D01*
X161142000Y-82782109D01*
X160859654Y-83007271D01*
X160604294Y-83262631D01*
X160379132Y-83544977D01*
X160186997Y-83850757D01*
X160030310Y-84176121D01*
X159911036Y-84516988D01*
X159911035Y-84516990D01*
X159830676Y-84869068D01*
X159830674Y-84869080D01*
X159812666Y-85028899D01*
X151390500Y-85046300D01*
X151390500Y-77867747D01*
X175049500Y-77867747D01*
X175049500Y-79707252D01*
X175061131Y-79765729D01*
X175061132Y-79765730D01*
X175105447Y-79832052D01*
X175171769Y-79876367D01*
X175171770Y-79876368D01*
X175230247Y-79887999D01*
X175230250Y-79888000D01*
X175230252Y-79888000D01*
X176069750Y-79888000D01*
X176069751Y-79887999D01*
X176084568Y-79885052D01*
X176128229Y-79876368D01*
X176128231Y-79876367D01*
X176131108Y-79874445D01*
X176138335Y-79872181D01*
X176139513Y-79871694D01*
X176139556Y-79871799D01*
X176197785Y-79853566D01*
X176265165Y-79872050D01*
X176268892Y-79874445D01*
X176271768Y-79876367D01*
X176271770Y-79876368D01*
X176330247Y-79887999D01*
X176330250Y-79888000D01*
X176330252Y-79888000D01*
X177169750Y-79888000D01*
X177169751Y-79887999D01*
X177184568Y-79885052D01*
X177228229Y-79876368D01*
X177228231Y-79876367D01*
X177231108Y-79874445D01*
X177238335Y-79872181D01*
X177239513Y-79871694D01*
X177239556Y-79871799D01*
X177297785Y-79853566D01*
X177365165Y-79872050D01*
X177368892Y-79874445D01*
X177371768Y-79876367D01*
X177371770Y-79876368D01*
X177430247Y-79887999D01*
X177430250Y-79888000D01*
X177430252Y-79888000D01*
X178269750Y-79888000D01*
X178269751Y-79887999D01*
X178284568Y-79885052D01*
X178328229Y-79876368D01*
X178328231Y-79876367D01*
X178331108Y-79874445D01*
X178338335Y-79872181D01*
X178339513Y-79871694D01*
X178339556Y-79871799D01*
X178397785Y-79853566D01*
X178465165Y-79872050D01*
X178468892Y-79874445D01*
X178471768Y-79876367D01*
X178471770Y-79876368D01*
X178530247Y-79887999D01*
X178530250Y-79888000D01*
X178530252Y-79888000D01*
X179369750Y-79888000D01*
X179369751Y-79887999D01*
X179384568Y-79885052D01*
X179428229Y-79876368D01*
X179428231Y-79876367D01*
X179431108Y-79874445D01*
X179438335Y-79872181D01*
X179439513Y-79871694D01*
X179439556Y-79871799D01*
X179497785Y-79853566D01*
X179565165Y-79872050D01*
X179568892Y-79874445D01*
X179571768Y-79876367D01*
X179571770Y-79876368D01*
X179630247Y-79887999D01*
X179630250Y-79888000D01*
X180420500Y-79888000D01*
X180487539Y-79907685D01*
X180533294Y-79960489D01*
X180544500Y-80012000D01*
X180544500Y-80257323D01*
X180545012Y-80271827D01*
X180546245Y-80289271D01*
X180546246Y-80289278D01*
X180564159Y-80359828D01*
X180564160Y-80359831D01*
X180593080Y-80423440D01*
X180604859Y-80445635D01*
X180604863Y-80445640D01*
X180668759Y-80511073D01*
X180698115Y-80530008D01*
X180727472Y-80548945D01*
X180780637Y-80573333D01*
X181555636Y-80802309D01*
X181614349Y-80840182D01*
X181643267Y-80903786D01*
X181644500Y-80921227D01*
X181644500Y-82170500D01*
X181624815Y-82237539D01*
X181572011Y-82283294D01*
X181520500Y-82294500D01*
X179723992Y-82294500D01*
X179680313Y-82299197D01*
X179628825Y-82310397D01*
X179618627Y-82312890D01*
X179618624Y-82312891D01*
X179537916Y-82355899D01*
X179537913Y-82355901D01*
X179485104Y-82401660D01*
X179467160Y-82419242D01*
X179467154Y-82419249D01*
X179422511Y-82499059D01*
X179422509Y-82499064D01*
X179402826Y-82566096D01*
X179402825Y-82566101D01*
X179402825Y-82566102D01*
X179394500Y-82624000D01*
X179394500Y-83650636D01*
X179399260Y-83694612D01*
X179410617Y-83746454D01*
X179413200Y-83756921D01*
X179456446Y-83837507D01*
X179502356Y-83890177D01*
X179520003Y-83908082D01*
X179520005Y-83908083D01*
X179520007Y-83908085D01*
X179599947Y-83952491D01*
X179599952Y-83952493D01*
X179667040Y-83971978D01*
X179667045Y-83971979D01*
X179667049Y-83971980D01*
X179724967Y-83980134D01*
X182526967Y-83971910D01*
X182570341Y-83967150D01*
X182621488Y-83955945D01*
X182631373Y-83953522D01*
X182712085Y-83910512D01*
X182764889Y-83864757D01*
X182782843Y-83847166D01*
X182827490Y-83767349D01*
X182847175Y-83700310D01*
X182855500Y-83642412D01*
X182855500Y-80012000D01*
X182875185Y-79944961D01*
X182927989Y-79899206D01*
X182979500Y-79888000D01*
X183719750Y-79888000D01*
X183719751Y-79887999D01*
X183734568Y-79885052D01*
X183778229Y-79876368D01*
X183778229Y-79876367D01*
X183778231Y-79876367D01*
X183844552Y-79832052D01*
X183888867Y-79765731D01*
X183888867Y-79765729D01*
X183888868Y-79765729D01*
X183900499Y-79707252D01*
X183900500Y-79707250D01*
X183900500Y-77867749D01*
X183900499Y-77867747D01*
X183888868Y-77809270D01*
X183888867Y-77809269D01*
X183844552Y-77742947D01*
X183778230Y-77698632D01*
X183778229Y-77698631D01*
X183719752Y-77687000D01*
X183719748Y-77687000D01*
X182980252Y-77687000D01*
X182980247Y-77687000D01*
X182921770Y-77698631D01*
X182921766Y-77698633D01*
X182893890Y-77717260D01*
X182827213Y-77738138D01*
X182793078Y-77733979D01*
X182773206Y-77728684D01*
X182728231Y-77698633D01*
X182669748Y-77687000D01*
X182616738Y-77687000D01*
X182601052Y-77682821D01*
X182600165Y-77682282D01*
X182598036Y-77681976D01*
X182583907Y-77677827D01*
X182583902Y-77677826D01*
X182583898Y-77677825D01*
X182526000Y-77669500D01*
X180874000Y-77669500D01*
X180873992Y-77669500D01*
X180830315Y-77674197D01*
X180784527Y-77684157D01*
X180778805Y-77685403D01*
X180778732Y-77685420D01*
X180771484Y-77687000D01*
X180730252Y-77687000D01*
X180671769Y-77698633D01*
X180649356Y-77713608D01*
X180626397Y-77718611D01*
X180614034Y-77717730D01*
X180602209Y-77721433D01*
X180579842Y-77715296D01*
X180556704Y-77713649D01*
X180546779Y-77706224D01*
X180534829Y-77702946D01*
X180531113Y-77700558D01*
X180528231Y-77698632D01*
X180528229Y-77698631D01*
X180469752Y-77687000D01*
X180469748Y-77687000D01*
X179630252Y-77687000D01*
X179630247Y-77687000D01*
X179571770Y-77698631D01*
X179571768Y-77698632D01*
X179568887Y-77700558D01*
X179561655Y-77702822D01*
X179560487Y-77703306D01*
X179560443Y-77703201D01*
X179502209Y-77721433D01*
X179434829Y-77702946D01*
X179431113Y-77700558D01*
X179428231Y-77698632D01*
X179428229Y-77698631D01*
X179369752Y-77687000D01*
X179369748Y-77687000D01*
X178530252Y-77687000D01*
X178530247Y-77687000D01*
X178471770Y-77698631D01*
X178471768Y-77698632D01*
X178468887Y-77700558D01*
X178461655Y-77702822D01*
X178460487Y-77703306D01*
X178460443Y-77703201D01*
X178402209Y-77721433D01*
X178334829Y-77702946D01*
X178331113Y-77700558D01*
X178328231Y-77698632D01*
X178328229Y-77698631D01*
X178269752Y-77687000D01*
X178269748Y-77687000D01*
X177430252Y-77687000D01*
X177430247Y-77687000D01*
X177371770Y-77698631D01*
X177371768Y-77698632D01*
X177368887Y-77700558D01*
X177361655Y-77702822D01*
X177360487Y-77703306D01*
X177360443Y-77703201D01*
X177302209Y-77721433D01*
X177234829Y-77702946D01*
X177231113Y-77700558D01*
X177228231Y-77698632D01*
X177228229Y-77698631D01*
X177169752Y-77687000D01*
X177169748Y-77687000D01*
X176330252Y-77687000D01*
X176330247Y-77687000D01*
X176271770Y-77698631D01*
X176271768Y-77698632D01*
X176268887Y-77700558D01*
X176261655Y-77702822D01*
X176260487Y-77703306D01*
X176260443Y-77703201D01*
X176202209Y-77721433D01*
X176134829Y-77702946D01*
X176131113Y-77700558D01*
X176128231Y-77698632D01*
X176128229Y-77698631D01*
X176069752Y-77687000D01*
X176069748Y-77687000D01*
X175230252Y-77687000D01*
X175230247Y-77687000D01*
X175171770Y-77698631D01*
X175171769Y-77698632D01*
X175105447Y-77742947D01*
X175061132Y-77809269D01*
X175061131Y-77809270D01*
X175049500Y-77867747D01*
X151390500Y-77867747D01*
X151390500Y-76887500D01*
X174400000Y-76887500D01*
X174402408Y-76936509D01*
X174409607Y-76985045D01*
X174415579Y-77008889D01*
X174421529Y-77032640D01*
X174438061Y-77078844D01*
X174459040Y-77123201D01*
X174484267Y-77165289D01*
X174506119Y-77194752D01*
X174513495Y-77204697D01*
X174546447Y-77241053D01*
X174582803Y-77274005D01*
X174582817Y-77274015D01*
X174582819Y-77274017D01*
X174622210Y-77303232D01*
X174664298Y-77328459D01*
X174664301Y-77328460D01*
X174664302Y-77328461D01*
X174708658Y-77349440D01*
X174754858Y-77365970D01*
X174802455Y-77377893D01*
X174850991Y-77385092D01*
X174900000Y-77387500D01*
X174949009Y-77385092D01*
X174997545Y-77377893D01*
X175045142Y-77365970D01*
X175091342Y-77349440D01*
X175135698Y-77328461D01*
X175177785Y-77303235D01*
X175217197Y-77274005D01*
X175253553Y-77241053D01*
X175286505Y-77204697D01*
X175315735Y-77165285D01*
X175340961Y-77123198D01*
X175361940Y-77078842D01*
X175378470Y-77032642D01*
X175390393Y-76985045D01*
X175397592Y-76936509D01*
X175400000Y-76887500D01*
X175397592Y-76838491D01*
X175390393Y-76789955D01*
X175378470Y-76742358D01*
X175361940Y-76696158D01*
X175340961Y-76651802D01*
X175315735Y-76609715D01*
X175315734Y-76609714D01*
X175315732Y-76609710D01*
X175286517Y-76570319D01*
X175286515Y-76570317D01*
X175286505Y-76570303D01*
X175253553Y-76533947D01*
X175217197Y-76500995D01*
X175217184Y-76500985D01*
X175217180Y-76500982D01*
X175177789Y-76471767D01*
X175135701Y-76446540D01*
X175091344Y-76425561D01*
X175091342Y-76425560D01*
X175068242Y-76417295D01*
X175045140Y-76409029D01*
X175021389Y-76403079D01*
X174997545Y-76397107D01*
X174967753Y-76392688D01*
X174949017Y-76389909D01*
X174949015Y-76389908D01*
X174949009Y-76389908D01*
X174900000Y-76387500D01*
X174850991Y-76389908D01*
X174850985Y-76389908D01*
X174850982Y-76389909D01*
X174817350Y-76394897D01*
X174802455Y-76397107D01*
X174790533Y-76400093D01*
X174754859Y-76409029D01*
X174708655Y-76425561D01*
X174664298Y-76446540D01*
X174622210Y-76471767D01*
X174582819Y-76500982D01*
X174582801Y-76500997D01*
X174546447Y-76533947D01*
X174513497Y-76570301D01*
X174513482Y-76570319D01*
X174484267Y-76609710D01*
X174459040Y-76651798D01*
X174438061Y-76696155D01*
X174421529Y-76742359D01*
X174418300Y-76755252D01*
X174409607Y-76789955D01*
X174402408Y-76838491D01*
X174400000Y-76887500D01*
X151390500Y-76887500D01*
X151390500Y-75859108D01*
X189374500Y-75859108D01*
X189374500Y-75990891D01*
X189408608Y-76118187D01*
X189441554Y-76175250D01*
X189474500Y-76232314D01*
X189567686Y-76325500D01*
X189666521Y-76382563D01*
X189679243Y-76389908D01*
X189681814Y-76391392D01*
X189809108Y-76425500D01*
X189809110Y-76425500D01*
X189940890Y-76425500D01*
X189940892Y-76425500D01*
X190068186Y-76391392D01*
X190182314Y-76325500D01*
X190275500Y-76232314D01*
X190341392Y-76118186D01*
X190375500Y-75990892D01*
X190375500Y-75859108D01*
X190341392Y-75731814D01*
X190275500Y-75617686D01*
X190182314Y-75524500D01*
X190125250Y-75491554D01*
X190068187Y-75458608D01*
X190004539Y-75441554D01*
X189940892Y-75424500D01*
X189809108Y-75424500D01*
X189681812Y-75458608D01*
X189567686Y-75524500D01*
X189567683Y-75524502D01*
X189474502Y-75617683D01*
X189474500Y-75617686D01*
X189408608Y-75731812D01*
X189374500Y-75859108D01*
X151390500Y-75859108D01*
X151390500Y-74311304D01*
X153349500Y-74311304D01*
X153349500Y-74488695D01*
X153384103Y-74662658D01*
X153384106Y-74662667D01*
X153451983Y-74826540D01*
X153451990Y-74826553D01*
X153550535Y-74974034D01*
X153550538Y-74974038D01*
X153675961Y-75099461D01*
X153675965Y-75099464D01*
X153823446Y-75198009D01*
X153823459Y-75198016D01*
X153946363Y-75248923D01*
X153987334Y-75265894D01*
X153987336Y-75265894D01*
X153987341Y-75265896D01*
X154161304Y-75300499D01*
X154161307Y-75300500D01*
X154161309Y-75300500D01*
X154338693Y-75300500D01*
X154338694Y-75300499D01*
X154396682Y-75288964D01*
X154512658Y-75265896D01*
X154512661Y-75265894D01*
X154512666Y-75265894D01*
X154676547Y-75198013D01*
X154824035Y-75099464D01*
X154949464Y-74974035D01*
X155048013Y-74826547D01*
X155115894Y-74662666D01*
X155128383Y-74599882D01*
X155160768Y-74537971D01*
X155221483Y-74503397D01*
X155291253Y-74507136D01*
X155347925Y-74548003D01*
X155371617Y-74599882D01*
X155384103Y-74662658D01*
X155384106Y-74662667D01*
X155451983Y-74826540D01*
X155451990Y-74826553D01*
X155550535Y-74974034D01*
X155550538Y-74974038D01*
X155675961Y-75099461D01*
X155675965Y-75099464D01*
X155823446Y-75198009D01*
X155823459Y-75198016D01*
X155946363Y-75248923D01*
X155987334Y-75265894D01*
X155987336Y-75265894D01*
X155987341Y-75265896D01*
X156161304Y-75300499D01*
X156161307Y-75300500D01*
X156161309Y-75300500D01*
X156338693Y-75300500D01*
X156338694Y-75300499D01*
X156396682Y-75288964D01*
X156512658Y-75265896D01*
X156512661Y-75265894D01*
X156512666Y-75265894D01*
X156676547Y-75198013D01*
X156824035Y-75099464D01*
X156949464Y-74974035D01*
X157048013Y-74826547D01*
X157115894Y-74662666D01*
X157128383Y-74599882D01*
X157160768Y-74537971D01*
X157221483Y-74503397D01*
X157291253Y-74507136D01*
X157347925Y-74548003D01*
X157371617Y-74599882D01*
X157384103Y-74662658D01*
X157384106Y-74662667D01*
X157451983Y-74826540D01*
X157451990Y-74826553D01*
X157550535Y-74974034D01*
X157550538Y-74974038D01*
X157675961Y-75099461D01*
X157675965Y-75099464D01*
X157823446Y-75198009D01*
X157823459Y-75198016D01*
X157946363Y-75248923D01*
X157987334Y-75265894D01*
X157987336Y-75265894D01*
X157987341Y-75265896D01*
X158161304Y-75300499D01*
X158161307Y-75300500D01*
X158161309Y-75300500D01*
X158338693Y-75300500D01*
X158338694Y-75300499D01*
X158396682Y-75288964D01*
X158512658Y-75265896D01*
X158512661Y-75265894D01*
X158512666Y-75265894D01*
X158676547Y-75198013D01*
X158824035Y-75099464D01*
X158949464Y-74974035D01*
X159048013Y-74826547D01*
X159115894Y-74662666D01*
X159128383Y-74599882D01*
X159160768Y-74537971D01*
X159221483Y-74503397D01*
X159291253Y-74507136D01*
X159347925Y-74548003D01*
X159371617Y-74599882D01*
X159384103Y-74662658D01*
X159384106Y-74662667D01*
X159451983Y-74826540D01*
X159451990Y-74826553D01*
X159550535Y-74974034D01*
X159550538Y-74974038D01*
X159675961Y-75099461D01*
X159675965Y-75099464D01*
X159823446Y-75198009D01*
X159823459Y-75198016D01*
X159946363Y-75248923D01*
X159987334Y-75265894D01*
X159987336Y-75265894D01*
X159987341Y-75265896D01*
X160161304Y-75300499D01*
X160161307Y-75300500D01*
X160161309Y-75300500D01*
X160338693Y-75300500D01*
X160338694Y-75300499D01*
X160396682Y-75288964D01*
X160512658Y-75265896D01*
X160512661Y-75265894D01*
X160512666Y-75265894D01*
X160676547Y-75198013D01*
X160824035Y-75099464D01*
X160949464Y-74974035D01*
X161048013Y-74826547D01*
X161115894Y-74662666D01*
X161128383Y-74599882D01*
X161160768Y-74537971D01*
X161221483Y-74503397D01*
X161291253Y-74507136D01*
X161347925Y-74548003D01*
X161371617Y-74599882D01*
X161384103Y-74662658D01*
X161384106Y-74662667D01*
X161451983Y-74826540D01*
X161451990Y-74826553D01*
X161550535Y-74974034D01*
X161550538Y-74974038D01*
X161675961Y-75099461D01*
X161675965Y-75099464D01*
X161823446Y-75198009D01*
X161823459Y-75198016D01*
X161946363Y-75248923D01*
X161987334Y-75265894D01*
X161987336Y-75265894D01*
X161987341Y-75265896D01*
X162161304Y-75300499D01*
X162161307Y-75300500D01*
X162161309Y-75300500D01*
X162338693Y-75300500D01*
X162338694Y-75300499D01*
X162396682Y-75288964D01*
X162512658Y-75265896D01*
X162512661Y-75265894D01*
X162512666Y-75265894D01*
X162676547Y-75198013D01*
X162824035Y-75099464D01*
X162949464Y-74974035D01*
X163048013Y-74826547D01*
X163115894Y-74662666D01*
X163128383Y-74599882D01*
X163160768Y-74537971D01*
X163221483Y-74503397D01*
X163291253Y-74507136D01*
X163347925Y-74548003D01*
X163371617Y-74599882D01*
X163384103Y-74662658D01*
X163384106Y-74662667D01*
X163451983Y-74826540D01*
X163451990Y-74826553D01*
X163550535Y-74974034D01*
X163550538Y-74974038D01*
X163675961Y-75099461D01*
X163675965Y-75099464D01*
X163823446Y-75198009D01*
X163823459Y-75198016D01*
X163946363Y-75248923D01*
X163987334Y-75265894D01*
X163987336Y-75265894D01*
X163987341Y-75265896D01*
X164161304Y-75300499D01*
X164161307Y-75300500D01*
X164161309Y-75300500D01*
X164338693Y-75300500D01*
X164338694Y-75300499D01*
X164396682Y-75288964D01*
X164512658Y-75265896D01*
X164512661Y-75265894D01*
X164512666Y-75265894D01*
X164676547Y-75198013D01*
X164824035Y-75099464D01*
X164949464Y-74974035D01*
X165048013Y-74826547D01*
X165115894Y-74662666D01*
X165150500Y-74488691D01*
X165150500Y-74311309D01*
X165150500Y-74311306D01*
X165150499Y-74311304D01*
X167349500Y-74311304D01*
X167349500Y-74488695D01*
X167384103Y-74662658D01*
X167384106Y-74662667D01*
X167451983Y-74826540D01*
X167451990Y-74826553D01*
X167550535Y-74974034D01*
X167550538Y-74974038D01*
X167675961Y-75099461D01*
X167675965Y-75099464D01*
X167823446Y-75198009D01*
X167823459Y-75198016D01*
X167946363Y-75248923D01*
X167987334Y-75265894D01*
X167987336Y-75265894D01*
X167987341Y-75265896D01*
X168161304Y-75300499D01*
X168161307Y-75300500D01*
X168161309Y-75300500D01*
X168338693Y-75300500D01*
X168338694Y-75300499D01*
X168396682Y-75288964D01*
X168512658Y-75265896D01*
X168512661Y-75265894D01*
X168512666Y-75265894D01*
X168676547Y-75198013D01*
X168824035Y-75099464D01*
X168949464Y-74974035D01*
X169048013Y-74826547D01*
X169115894Y-74662666D01*
X169128383Y-74599882D01*
X169160768Y-74537971D01*
X169221483Y-74503397D01*
X169291253Y-74507136D01*
X169347925Y-74548003D01*
X169371617Y-74599882D01*
X169384103Y-74662658D01*
X169384106Y-74662667D01*
X169451983Y-74826540D01*
X169451990Y-74826553D01*
X169550535Y-74974034D01*
X169550538Y-74974038D01*
X169675961Y-75099461D01*
X169675965Y-75099464D01*
X169823446Y-75198009D01*
X169823459Y-75198016D01*
X169946363Y-75248923D01*
X169987334Y-75265894D01*
X169987336Y-75265894D01*
X169987341Y-75265896D01*
X170161304Y-75300499D01*
X170161307Y-75300500D01*
X170161309Y-75300500D01*
X170338693Y-75300500D01*
X170338694Y-75300499D01*
X170396682Y-75288964D01*
X170512658Y-75265896D01*
X170512661Y-75265894D01*
X170512666Y-75265894D01*
X170676547Y-75198013D01*
X170824035Y-75099464D01*
X170949464Y-74974035D01*
X171048013Y-74826547D01*
X171115894Y-74662666D01*
X171128383Y-74599882D01*
X171160768Y-74537971D01*
X171221483Y-74503397D01*
X171291253Y-74507136D01*
X171347925Y-74548003D01*
X171371617Y-74599882D01*
X171384103Y-74662658D01*
X171384106Y-74662667D01*
X171451983Y-74826540D01*
X171451990Y-74826553D01*
X171550535Y-74974034D01*
X171550538Y-74974038D01*
X171675961Y-75099461D01*
X171675965Y-75099464D01*
X171823446Y-75198009D01*
X171823459Y-75198016D01*
X171946363Y-75248923D01*
X171987334Y-75265894D01*
X171987336Y-75265894D01*
X171987341Y-75265896D01*
X172161304Y-75300499D01*
X172161307Y-75300500D01*
X172161309Y-75300500D01*
X172338693Y-75300500D01*
X172338694Y-75300499D01*
X172396682Y-75288964D01*
X172512658Y-75265896D01*
X172512661Y-75265894D01*
X172512666Y-75265894D01*
X172676547Y-75198013D01*
X172824035Y-75099464D01*
X172949464Y-74974035D01*
X173048013Y-74826547D01*
X173115894Y-74662666D01*
X173150500Y-74488691D01*
X173150500Y-74311309D01*
X173150500Y-74311306D01*
X173150499Y-74311304D01*
X173115896Y-74137341D01*
X173115893Y-74137332D01*
X173106232Y-74114009D01*
X173098923Y-74096363D01*
X173048016Y-73973459D01*
X173048009Y-73973446D01*
X172949464Y-73825965D01*
X172949461Y-73825961D01*
X172824038Y-73700538D01*
X172824034Y-73700535D01*
X172676553Y-73601990D01*
X172676540Y-73601983D01*
X172512667Y-73534106D01*
X172512658Y-73534103D01*
X172338694Y-73499500D01*
X172338691Y-73499500D01*
X172161309Y-73499500D01*
X172161306Y-73499500D01*
X171987341Y-73534103D01*
X171987332Y-73534106D01*
X171823459Y-73601983D01*
X171823446Y-73601990D01*
X171675965Y-73700535D01*
X171675961Y-73700538D01*
X171550538Y-73825961D01*
X171550535Y-73825965D01*
X171451990Y-73973446D01*
X171451983Y-73973459D01*
X171384106Y-74137332D01*
X171384104Y-74137340D01*
X171371617Y-74200118D01*
X171339232Y-74262028D01*
X171278516Y-74296603D01*
X171208747Y-74292863D01*
X171152075Y-74251996D01*
X171128383Y-74200118D01*
X171115895Y-74137340D01*
X171115894Y-74137334D01*
X171098923Y-74096363D01*
X171048016Y-73973459D01*
X171048009Y-73973446D01*
X170949464Y-73825965D01*
X170949461Y-73825961D01*
X170824038Y-73700538D01*
X170824034Y-73700535D01*
X170676553Y-73601990D01*
X170676540Y-73601983D01*
X170512667Y-73534106D01*
X170512658Y-73534103D01*
X170338694Y-73499500D01*
X170338691Y-73499500D01*
X170161309Y-73499500D01*
X170161306Y-73499500D01*
X169987341Y-73534103D01*
X169987332Y-73534106D01*
X169823459Y-73601983D01*
X169823446Y-73601990D01*
X169675965Y-73700535D01*
X169675961Y-73700538D01*
X169550538Y-73825961D01*
X169550535Y-73825965D01*
X169451990Y-73973446D01*
X169451983Y-73973459D01*
X169384106Y-74137332D01*
X169384104Y-74137340D01*
X169371617Y-74200118D01*
X169339232Y-74262028D01*
X169278516Y-74296603D01*
X169208747Y-74292863D01*
X169152075Y-74251996D01*
X169128383Y-74200118D01*
X169115895Y-74137340D01*
X169115894Y-74137334D01*
X169098923Y-74096363D01*
X169048016Y-73973459D01*
X169048009Y-73973446D01*
X168949464Y-73825965D01*
X168949461Y-73825961D01*
X168824038Y-73700538D01*
X168824034Y-73700535D01*
X168676553Y-73601990D01*
X168676540Y-73601983D01*
X168512667Y-73534106D01*
X168512658Y-73534103D01*
X168338694Y-73499500D01*
X168338691Y-73499500D01*
X168161309Y-73499500D01*
X168161306Y-73499500D01*
X167987341Y-73534103D01*
X167987332Y-73534106D01*
X167823459Y-73601983D01*
X167823446Y-73601990D01*
X167675965Y-73700535D01*
X167675961Y-73700538D01*
X167550538Y-73825961D01*
X167550535Y-73825965D01*
X167451990Y-73973446D01*
X167451983Y-73973459D01*
X167384106Y-74137332D01*
X167384103Y-74137341D01*
X167349500Y-74311304D01*
X165150499Y-74311304D01*
X165115896Y-74137341D01*
X165115893Y-74137332D01*
X165106232Y-74114009D01*
X165098923Y-74096363D01*
X165048016Y-73973459D01*
X165048009Y-73973446D01*
X164949464Y-73825965D01*
X164949461Y-73825961D01*
X164824038Y-73700538D01*
X164824034Y-73700535D01*
X164676553Y-73601990D01*
X164676540Y-73601983D01*
X164512667Y-73534106D01*
X164512658Y-73534103D01*
X164338694Y-73499500D01*
X164338691Y-73499500D01*
X164161309Y-73499500D01*
X164161306Y-73499500D01*
X163987341Y-73534103D01*
X163987332Y-73534106D01*
X163823459Y-73601983D01*
X163823446Y-73601990D01*
X163675965Y-73700535D01*
X163675961Y-73700538D01*
X163550538Y-73825961D01*
X163550535Y-73825965D01*
X163451990Y-73973446D01*
X163451983Y-73973459D01*
X163384106Y-74137332D01*
X163384104Y-74137340D01*
X163371617Y-74200118D01*
X163339232Y-74262028D01*
X163278516Y-74296603D01*
X163208747Y-74292863D01*
X163152075Y-74251996D01*
X163128383Y-74200118D01*
X163115895Y-74137340D01*
X163115894Y-74137334D01*
X163098923Y-74096363D01*
X163048016Y-73973459D01*
X163048009Y-73973446D01*
X162949464Y-73825965D01*
X162949461Y-73825961D01*
X162824038Y-73700538D01*
X162824034Y-73700535D01*
X162676553Y-73601990D01*
X162676540Y-73601983D01*
X162512667Y-73534106D01*
X162512658Y-73534103D01*
X162338694Y-73499500D01*
X162338691Y-73499500D01*
X162161309Y-73499500D01*
X162161306Y-73499500D01*
X161987341Y-73534103D01*
X161987332Y-73534106D01*
X161823459Y-73601983D01*
X161823446Y-73601990D01*
X161675965Y-73700535D01*
X161675961Y-73700538D01*
X161550538Y-73825961D01*
X161550535Y-73825965D01*
X161451990Y-73973446D01*
X161451983Y-73973459D01*
X161384106Y-74137332D01*
X161384104Y-74137340D01*
X161371617Y-74200118D01*
X161339232Y-74262028D01*
X161278516Y-74296603D01*
X161208747Y-74292863D01*
X161152075Y-74251996D01*
X161128383Y-74200118D01*
X161115895Y-74137340D01*
X161115894Y-74137334D01*
X161098923Y-74096363D01*
X161048016Y-73973459D01*
X161048009Y-73973446D01*
X160949464Y-73825965D01*
X160949461Y-73825961D01*
X160824038Y-73700538D01*
X160824034Y-73700535D01*
X160676553Y-73601990D01*
X160676540Y-73601983D01*
X160512667Y-73534106D01*
X160512658Y-73534103D01*
X160338694Y-73499500D01*
X160338691Y-73499500D01*
X160161309Y-73499500D01*
X160161306Y-73499500D01*
X159987341Y-73534103D01*
X159987332Y-73534106D01*
X159823459Y-73601983D01*
X159823446Y-73601990D01*
X159675965Y-73700535D01*
X159675961Y-73700538D01*
X159550538Y-73825961D01*
X159550535Y-73825965D01*
X159451990Y-73973446D01*
X159451983Y-73973459D01*
X159384106Y-74137332D01*
X159384104Y-74137340D01*
X159371617Y-74200118D01*
X159339232Y-74262028D01*
X159278516Y-74296603D01*
X159208747Y-74292863D01*
X159152075Y-74251996D01*
X159128383Y-74200118D01*
X159115895Y-74137340D01*
X159115894Y-74137334D01*
X159098923Y-74096363D01*
X159048016Y-73973459D01*
X159048009Y-73973446D01*
X158949464Y-73825965D01*
X158949461Y-73825961D01*
X158824038Y-73700538D01*
X158824034Y-73700535D01*
X158676553Y-73601990D01*
X158676540Y-73601983D01*
X158512667Y-73534106D01*
X158512658Y-73534103D01*
X158338694Y-73499500D01*
X158338691Y-73499500D01*
X158161309Y-73499500D01*
X158161306Y-73499500D01*
X157987341Y-73534103D01*
X157987332Y-73534106D01*
X157823459Y-73601983D01*
X157823446Y-73601990D01*
X157675965Y-73700535D01*
X157675961Y-73700538D01*
X157550538Y-73825961D01*
X157550535Y-73825965D01*
X157451990Y-73973446D01*
X157451983Y-73973459D01*
X157384106Y-74137332D01*
X157384104Y-74137340D01*
X157371617Y-74200118D01*
X157339232Y-74262028D01*
X157278516Y-74296603D01*
X157208747Y-74292863D01*
X157152075Y-74251996D01*
X157128383Y-74200118D01*
X157115895Y-74137340D01*
X157115894Y-74137334D01*
X157098923Y-74096363D01*
X157048016Y-73973459D01*
X157048009Y-73973446D01*
X156949464Y-73825965D01*
X156949461Y-73825961D01*
X156824038Y-73700538D01*
X156824034Y-73700535D01*
X156676553Y-73601990D01*
X156676540Y-73601983D01*
X156512667Y-73534106D01*
X156512658Y-73534103D01*
X156338694Y-73499500D01*
X156338691Y-73499500D01*
X156161309Y-73499500D01*
X156161306Y-73499500D01*
X155987341Y-73534103D01*
X155987332Y-73534106D01*
X155823459Y-73601983D01*
X155823446Y-73601990D01*
X155675965Y-73700535D01*
X155675961Y-73700538D01*
X155550538Y-73825961D01*
X155550535Y-73825965D01*
X155451990Y-73973446D01*
X155451983Y-73973459D01*
X155384106Y-74137332D01*
X155384104Y-74137340D01*
X155371617Y-74200118D01*
X155339232Y-74262028D01*
X155278516Y-74296603D01*
X155208747Y-74292863D01*
X155152075Y-74251996D01*
X155128383Y-74200118D01*
X155115895Y-74137340D01*
X155115894Y-74137334D01*
X155098923Y-74096363D01*
X155048016Y-73973459D01*
X155048009Y-73973446D01*
X154949464Y-73825965D01*
X154949461Y-73825961D01*
X154824038Y-73700538D01*
X154824034Y-73700535D01*
X154676553Y-73601990D01*
X154676540Y-73601983D01*
X154512667Y-73534106D01*
X154512658Y-73534103D01*
X154338694Y-73499500D01*
X154338691Y-73499500D01*
X154161309Y-73499500D01*
X154161306Y-73499500D01*
X153987341Y-73534103D01*
X153987332Y-73534106D01*
X153823459Y-73601983D01*
X153823446Y-73601990D01*
X153675965Y-73700535D01*
X153675961Y-73700538D01*
X153550538Y-73825961D01*
X153550535Y-73825965D01*
X153451990Y-73973446D01*
X153451983Y-73973459D01*
X153384106Y-74137332D01*
X153384103Y-74137341D01*
X153349500Y-74311304D01*
X151390500Y-74311304D01*
X151390500Y-72414108D01*
X190179500Y-72414108D01*
X190179500Y-72545892D01*
X190196554Y-72609539D01*
X190213608Y-72673187D01*
X190246554Y-72730250D01*
X190279500Y-72787314D01*
X190372686Y-72880500D01*
X190486814Y-72946392D01*
X190614108Y-72980500D01*
X190614110Y-72980500D01*
X190745890Y-72980500D01*
X190745892Y-72980500D01*
X190873186Y-72946392D01*
X190981065Y-72884108D01*
X197924500Y-72884108D01*
X197924500Y-73015892D01*
X197941554Y-73079539D01*
X197958608Y-73143187D01*
X197980166Y-73180525D01*
X198024500Y-73257314D01*
X198117686Y-73350500D01*
X198231814Y-73416392D01*
X198359108Y-73450500D01*
X198359110Y-73450500D01*
X198490890Y-73450500D01*
X198490892Y-73450500D01*
X198618186Y-73416392D01*
X198732314Y-73350500D01*
X198825500Y-73257314D01*
X198891392Y-73143186D01*
X198925500Y-73015892D01*
X198925500Y-72884108D01*
X198891392Y-72756814D01*
X198825500Y-72642686D01*
X198732314Y-72549500D01*
X198647442Y-72500499D01*
X198618187Y-72483608D01*
X198553931Y-72466391D01*
X198490892Y-72449500D01*
X198359108Y-72449500D01*
X198231812Y-72483608D01*
X198117686Y-72549500D01*
X198117683Y-72549502D01*
X198024502Y-72642683D01*
X198024500Y-72642686D01*
X197958608Y-72756812D01*
X197950435Y-72787316D01*
X197924500Y-72884108D01*
X190981065Y-72884108D01*
X190987314Y-72880500D01*
X191080500Y-72787314D01*
X191146392Y-72673186D01*
X191180500Y-72545892D01*
X191180500Y-72414108D01*
X191146392Y-72286814D01*
X191080500Y-72172686D01*
X190987314Y-72079500D01*
X190907410Y-72033367D01*
X190907409Y-72033366D01*
X190873188Y-72013609D01*
X190873187Y-72013608D01*
X190873186Y-72013608D01*
X190745892Y-71979500D01*
X190614108Y-71979500D01*
X190486812Y-72013608D01*
X190372686Y-72079500D01*
X190372683Y-72079502D01*
X190279502Y-72172683D01*
X190279500Y-72172686D01*
X190213608Y-72286812D01*
X190189231Y-72377792D01*
X190179500Y-72414108D01*
X151390500Y-72414108D01*
X151390500Y-69085258D01*
X161749500Y-69085258D01*
X161749500Y-69314741D01*
X161771025Y-69478229D01*
X161779452Y-69542238D01*
X161799081Y-69615495D01*
X161838842Y-69763887D01*
X161926650Y-69975876D01*
X161926656Y-69975888D01*
X162033465Y-70160888D01*
X162041392Y-70174617D01*
X162181081Y-70356661D01*
X162181089Y-70356670D01*
X162343330Y-70518911D01*
X162343338Y-70518918D01*
X162525382Y-70658607D01*
X162525385Y-70658608D01*
X162525388Y-70658611D01*
X162724112Y-70773344D01*
X162724117Y-70773346D01*
X162724123Y-70773349D01*
X162748891Y-70783608D01*
X162936113Y-70861158D01*
X163157762Y-70920548D01*
X163385266Y-70950500D01*
X163385273Y-70950500D01*
X163614727Y-70950500D01*
X163614734Y-70950500D01*
X163842238Y-70920548D01*
X164063887Y-70861158D01*
X164275888Y-70773344D01*
X164474612Y-70658611D01*
X164656661Y-70518919D01*
X164656665Y-70518914D01*
X164656670Y-70518911D01*
X164818911Y-70356670D01*
X164818914Y-70356665D01*
X164818919Y-70356661D01*
X164958611Y-70174612D01*
X165073344Y-69975888D01*
X165161158Y-69763887D01*
X165220548Y-69542238D01*
X165250500Y-69314734D01*
X165250500Y-69085266D01*
X165220548Y-68857762D01*
X165161158Y-68636113D01*
X165102492Y-68494481D01*
X165073349Y-68424123D01*
X165073346Y-68424117D01*
X165073344Y-68424112D01*
X164958611Y-68225388D01*
X164958608Y-68225385D01*
X164958607Y-68225382D01*
X164818918Y-68043338D01*
X164818911Y-68043330D01*
X164656670Y-67881089D01*
X164656661Y-67881081D01*
X164474617Y-67741392D01*
X164275890Y-67626657D01*
X164275876Y-67626650D01*
X164063887Y-67538842D01*
X163842238Y-67479452D01*
X163804215Y-67474446D01*
X163614741Y-67449500D01*
X163614734Y-67449500D01*
X163385266Y-67449500D01*
X163385258Y-67449500D01*
X163168715Y-67478009D01*
X163157762Y-67479452D01*
X163064076Y-67504554D01*
X162936112Y-67538842D01*
X162724123Y-67626650D01*
X162724109Y-67626657D01*
X162525382Y-67741392D01*
X162343338Y-67881081D01*
X162181081Y-68043338D01*
X162041392Y-68225382D01*
X161926657Y-68424109D01*
X161926650Y-68424123D01*
X161838842Y-68636112D01*
X161838842Y-68636113D01*
X161786300Y-68832207D01*
X161779453Y-68857759D01*
X161779451Y-68857770D01*
X161749500Y-69085258D01*
X151390500Y-69085258D01*
X151390500Y-66569500D01*
X151410185Y-66502461D01*
X151462989Y-66456706D01*
X151514500Y-66445500D01*
X153921846Y-66445500D01*
X153925934Y-66443268D01*
X153952292Y-66440434D01*
X154076433Y-66440434D01*
X154076433Y-66440433D01*
X154435291Y-66400000D01*
X154787369Y-66319640D01*
X155128236Y-66200366D01*
X155453604Y-66043677D01*
X155759383Y-65851543D01*
X156041728Y-65626381D01*
X156297087Y-65371022D01*
X156522249Y-65088677D01*
X156714383Y-64782898D01*
X156871072Y-64457530D01*
X156990346Y-64116663D01*
X157070706Y-63764585D01*
X157111140Y-63405724D01*
X157111140Y-63281586D01*
X157116206Y-63264333D01*
X157116206Y-60854500D01*
X157135891Y-60787461D01*
X157188695Y-60741706D01*
X157240206Y-60730500D01*
X177998272Y-60730500D01*
X177990394Y-68187000D01*
G37*
%TD.AperFunction*%
%TD*%
%TA.AperFunction,Conductor*%
%TO.N,GND*%
G36*
X210268039Y-91669685D02*
G01*
X210313794Y-91722489D01*
X210325000Y-91774000D01*
X210325000Y-93600004D01*
X210524999Y-94299999D01*
X210525000Y-94300000D01*
X209425000Y-94300000D01*
X209675000Y-93600000D01*
X209675000Y-91774000D01*
X209694685Y-91706961D01*
X209747489Y-91661206D01*
X209799000Y-91650000D01*
X210201000Y-91650000D01*
X210268039Y-91669685D01*
G37*
%TD.AperFunction*%
%TD*%
%TA.AperFunction,Conductor*%
%TO.N,/RF_IN*%
G36*
X185562125Y-62125673D02*
G01*
X185989139Y-62149396D01*
X185997070Y-62153210D01*
X186000000Y-62160878D01*
X186000000Y-62789121D01*
X185996632Y-62797253D01*
X185989138Y-62800603D01*
X185562138Y-62824325D01*
X185553832Y-62821413D01*
X185550018Y-62813481D01*
X185550000Y-62812843D01*
X185550000Y-62137156D01*
X185553368Y-62129024D01*
X185561500Y-62125656D01*
X185562125Y-62125673D01*
G37*
%TD.AperFunction*%
%TD*%
%TA.AperFunction,Conductor*%
%TO.N,GND*%
G36*
X187588385Y-84971510D02*
G01*
X187588385Y-84971511D01*
X187588384Y-84971511D01*
X187084365Y-85971798D01*
X187036619Y-86022809D01*
X186973628Y-86040000D01*
X186224383Y-86040000D01*
X186157344Y-86020315D01*
X186114983Y-85974375D01*
X185582069Y-84975655D01*
X185475000Y-84775000D01*
X187700000Y-84750000D01*
X187588385Y-84971510D01*
G37*
%TD.AperFunction*%
%TD*%
%TA.AperFunction,Conductor*%
%TO.N,VBUS*%
G36*
X220766163Y-88799288D02*
G01*
X220833093Y-88819328D01*
X220878567Y-88872374D01*
X220889500Y-88923285D01*
X220889500Y-91576000D01*
X220869815Y-91643039D01*
X220817011Y-91688794D01*
X220765500Y-91700000D01*
X213425000Y-91700000D01*
X213424999Y-91700000D01*
X213424999Y-91700001D01*
X213174999Y-92100001D01*
X212846879Y-93646855D01*
X212813712Y-93708350D01*
X212752563Y-93742152D01*
X212719680Y-93744984D01*
X212414722Y-93730462D01*
X212348695Y-93707611D01*
X212305503Y-93652690D01*
X212296672Y-93610197D01*
X212241361Y-91701794D01*
X212241309Y-91698202D01*
X212241309Y-90823219D01*
X212260994Y-90756180D01*
X212313798Y-90710425D01*
X212364522Y-90699221D01*
X216200000Y-90675000D01*
X216200000Y-88899661D01*
X216219685Y-88832622D01*
X216272489Y-88786867D01*
X216324659Y-88775663D01*
X220766163Y-88799288D01*
G37*
%TD.AperFunction*%
%TD*%
%TA.AperFunction,Conductor*%
%TO.N,GND*%
G36*
X185943039Y-60750185D02*
G01*
X185988794Y-60802989D01*
X186000000Y-60854500D01*
X186000000Y-61612793D01*
X185980315Y-61679832D01*
X185927511Y-61725587D01*
X185869122Y-61736602D01*
X185584600Y-61720795D01*
X185573134Y-61720322D01*
X185572534Y-61720305D01*
X185529708Y-61721404D01*
X185523244Y-61722254D01*
X185523211Y-61722006D01*
X185502134Y-61724500D01*
X184526370Y-61724500D01*
X184526343Y-61724492D01*
X184475000Y-61724492D01*
X184318913Y-61724492D01*
X184008450Y-61757123D01*
X184008445Y-61757123D01*
X184008445Y-61757124D01*
X183703102Y-61822026D01*
X183703101Y-61822027D01*
X183406210Y-61918492D01*
X183121017Y-62045468D01*
X183121011Y-62045471D01*
X182850669Y-62201553D01*
X182850668Y-62201553D01*
X182598105Y-62385053D01*
X182366125Y-62593930D01*
X182366112Y-62593943D01*
X182157242Y-62825920D01*
X182157234Y-62825929D01*
X181973749Y-63078475D01*
X181973746Y-63078480D01*
X181817668Y-63348818D01*
X181817665Y-63348823D01*
X181690688Y-63634020D01*
X181594228Y-63930894D01*
X181594224Y-63930911D01*
X181529324Y-64236244D01*
X181529323Y-64236250D01*
X181529322Y-64236260D01*
X181502385Y-64492562D01*
X181496692Y-64546727D01*
X181496692Y-67220082D01*
X181493492Y-67248070D01*
X181486302Y-67279102D01*
X181446410Y-67747822D01*
X181445312Y-67765044D01*
X181444866Y-67775537D01*
X181444500Y-67792762D01*
X181444500Y-68399998D01*
X181447973Y-68421926D01*
X181449500Y-68441324D01*
X181449500Y-68560000D01*
X180850499Y-68560000D01*
X180850499Y-68355982D01*
X180850499Y-68355981D01*
X180835646Y-68262196D01*
X180778050Y-68149158D01*
X180778046Y-68149154D01*
X180778045Y-68149152D01*
X180688347Y-68059454D01*
X180688344Y-68059452D01*
X180688342Y-68059450D01*
X180611517Y-68020305D01*
X180575301Y-68001852D01*
X180481524Y-67987000D01*
X179618481Y-67987000D01*
X179519396Y-68002693D01*
X179480603Y-68002692D01*
X179381525Y-67987000D01*
X178518481Y-67987000D01*
X178419396Y-68002693D01*
X178380603Y-68002692D01*
X178281525Y-67987000D01*
X177990605Y-67987000D01*
X177998272Y-60730500D01*
X185876000Y-60730500D01*
X185943039Y-60750185D01*
G37*
%TD.AperFunction*%
%TA.AperFunction,Conductor*%
G36*
X193090000Y-68560000D02*
G01*
X183050499Y-68560000D01*
X183050499Y-68441331D01*
X183052026Y-68421933D01*
X183055500Y-68399999D01*
X183055500Y-67792762D01*
X183055134Y-67775539D01*
X183054687Y-67765024D01*
X183053592Y-67747860D01*
X183013697Y-67279098D01*
X183013695Y-67279085D01*
X183001878Y-67210560D01*
X183001750Y-67210072D01*
X183001717Y-67209820D01*
X183001314Y-67207962D01*
X183001425Y-67207937D01*
X183001424Y-67207927D01*
X183001472Y-67207918D01*
X182997692Y-67178608D01*
X182997692Y-66067175D01*
X182998753Y-66050988D01*
X183000500Y-66037719D01*
X183000500Y-64862286D01*
X183000499Y-64862272D01*
X182998753Y-64849010D01*
X182997692Y-64832824D01*
X182997692Y-64707232D01*
X182998008Y-64698387D01*
X183012095Y-64501407D01*
X183014613Y-64483895D01*
X183055648Y-64295255D01*
X183060624Y-64278308D01*
X183128096Y-64097408D01*
X183135441Y-64081326D01*
X183227959Y-63911890D01*
X183237515Y-63897019D01*
X183353216Y-63742459D01*
X183364791Y-63729102D01*
X183501300Y-63592593D01*
X183514654Y-63581020D01*
X183669212Y-63465319D01*
X183684085Y-63455761D01*
X183853521Y-63363243D01*
X183869603Y-63355898D01*
X184050499Y-63288427D01*
X184067450Y-63283450D01*
X184256095Y-63242413D01*
X184273596Y-63239896D01*
X184470470Y-63225816D01*
X184479316Y-63225500D01*
X184553881Y-63225500D01*
X185542019Y-63225500D01*
X185554592Y-63226138D01*
X185584631Y-63229201D01*
X185869124Y-63213395D01*
X185937150Y-63229330D01*
X185985763Y-63279515D01*
X186000000Y-63337204D01*
X186000000Y-64750000D01*
X190000000Y-64750000D01*
X190000000Y-60854500D01*
X190019685Y-60787461D01*
X190072489Y-60741706D01*
X190124000Y-60730500D01*
X193098355Y-60730500D01*
X193090000Y-68560000D01*
G37*
%TD.AperFunction*%
%TD*%
%TA.AperFunction,Conductor*%
%TO.N,/RF_IN*%
G36*
X182565630Y-68449641D02*
G01*
X182553594Y-68514022D01*
X182547086Y-68528085D01*
X182533869Y-68543181D01*
X182524776Y-68561066D01*
X182511326Y-68568931D01*
X182501063Y-68580655D01*
X182481783Y-68586209D01*
X182464463Y-68596339D01*
X182434555Y-68600000D01*
X182066738Y-68600000D01*
X181999699Y-68580315D01*
X181953944Y-68527511D01*
X181947472Y-68509934D01*
X181922973Y-68423830D01*
X181922971Y-68423825D01*
X181904979Y-68400000D01*
X182596366Y-68400000D01*
X182565630Y-68449641D01*
G37*
%TD.AperFunction*%
%TD*%
%TA.AperFunction,Conductor*%
%TO.N,GND*%
G36*
X175050000Y-85725000D02*
G01*
X175640481Y-85921827D01*
X175697856Y-85961701D01*
X175724564Y-86026265D01*
X175725268Y-86039090D01*
X175734625Y-89140626D01*
X175715143Y-89207724D01*
X175690055Y-89236221D01*
X175655554Y-89265000D01*
X175610000Y-89265000D01*
X175610000Y-89302999D01*
X175565429Y-89340178D01*
X175550979Y-89346451D01*
X175538717Y-89357193D01*
X175075000Y-89574999D01*
X175074999Y-89575000D01*
X175051394Y-96137332D01*
X175050000Y-96525000D01*
X175225213Y-96662667D01*
X175609999Y-96965000D01*
X175899765Y-96965000D01*
X175966804Y-96984685D01*
X176012559Y-97037489D01*
X176023760Y-97090097D01*
X176001088Y-99652097D01*
X175980811Y-99718960D01*
X175927604Y-99764246D01*
X175877093Y-99775000D01*
X175599999Y-99775000D01*
X175282659Y-100181773D01*
X175225903Y-100222522D01*
X175184892Y-100229500D01*
X151514500Y-100229500D01*
X151447461Y-100209815D01*
X151401706Y-100157011D01*
X151390500Y-100105500D01*
X151390500Y-95680247D01*
X153349500Y-95680247D01*
X153349500Y-97119752D01*
X153361131Y-97178229D01*
X153361132Y-97178230D01*
X153405447Y-97244552D01*
X153471769Y-97288867D01*
X153471770Y-97288868D01*
X153530247Y-97300499D01*
X153530250Y-97300500D01*
X153530252Y-97300500D01*
X154969750Y-97300500D01*
X154969751Y-97300499D01*
X154984568Y-97297552D01*
X155028229Y-97288868D01*
X155028229Y-97288867D01*
X155028231Y-97288867D01*
X155094552Y-97244552D01*
X155138867Y-97178231D01*
X155138867Y-97178229D01*
X155138868Y-97178229D01*
X155150499Y-97119752D01*
X155150500Y-97119750D01*
X155150500Y-96722080D01*
X155170185Y-96655041D01*
X155222989Y-96609286D01*
X155292147Y-96599342D01*
X155355703Y-96628367D01*
X155389061Y-96674628D01*
X155451983Y-96826541D01*
X155451990Y-96826553D01*
X155550535Y-96974034D01*
X155550538Y-96974038D01*
X155675961Y-97099461D01*
X155675965Y-97099464D01*
X155823446Y-97198009D01*
X155823459Y-97198016D01*
X155935809Y-97244552D01*
X155987334Y-97265894D01*
X155987336Y-97265894D01*
X155987341Y-97265896D01*
X156161304Y-97300499D01*
X156161307Y-97300500D01*
X156161309Y-97300500D01*
X156338693Y-97300500D01*
X156338694Y-97300499D01*
X156397174Y-97288867D01*
X156512658Y-97265896D01*
X156512661Y-97265894D01*
X156512666Y-97265894D01*
X156676547Y-97198013D01*
X156824035Y-97099464D01*
X156949464Y-96974035D01*
X157048013Y-96826547D01*
X157115894Y-96662666D01*
X157128383Y-96599882D01*
X157160768Y-96537971D01*
X157221483Y-96503397D01*
X157291253Y-96507136D01*
X157347925Y-96548003D01*
X157371617Y-96599882D01*
X157384103Y-96662658D01*
X157384106Y-96662667D01*
X157451983Y-96826540D01*
X157451990Y-96826553D01*
X157550535Y-96974034D01*
X157550538Y-96974038D01*
X157675961Y-97099461D01*
X157675965Y-97099464D01*
X157823446Y-97198009D01*
X157823459Y-97198016D01*
X157935809Y-97244552D01*
X157987334Y-97265894D01*
X157987336Y-97265894D01*
X157987341Y-97265896D01*
X158161304Y-97300499D01*
X158161307Y-97300500D01*
X158161309Y-97300500D01*
X158338693Y-97300500D01*
X158338694Y-97300499D01*
X158397174Y-97288867D01*
X158512658Y-97265896D01*
X158512661Y-97265894D01*
X158512666Y-97265894D01*
X158676547Y-97198013D01*
X158824035Y-97099464D01*
X158949464Y-96974035D01*
X159048013Y-96826547D01*
X159115894Y-96662666D01*
X159128383Y-96599882D01*
X159160768Y-96537971D01*
X159221483Y-96503397D01*
X159291253Y-96507136D01*
X159347925Y-96548003D01*
X159371617Y-96599882D01*
X159384103Y-96662658D01*
X159384106Y-96662667D01*
X159451983Y-96826540D01*
X159451990Y-96826553D01*
X159550535Y-96974034D01*
X159550538Y-96974038D01*
X159675961Y-97099461D01*
X159675965Y-97099464D01*
X159823446Y-97198009D01*
X159823459Y-97198016D01*
X159935809Y-97244552D01*
X159987334Y-97265894D01*
X159987336Y-97265894D01*
X159987341Y-97265896D01*
X160161304Y-97300499D01*
X160161307Y-97300500D01*
X160161309Y-97300500D01*
X160338693Y-97300500D01*
X160338694Y-97300499D01*
X160397174Y-97288867D01*
X160512658Y-97265896D01*
X160512661Y-97265894D01*
X160512666Y-97265894D01*
X160676547Y-97198013D01*
X160824035Y-97099464D01*
X160949464Y-96974035D01*
X161048013Y-96826547D01*
X161115894Y-96662666D01*
X161128383Y-96599882D01*
X161160768Y-96537971D01*
X161221483Y-96503397D01*
X161291253Y-96507136D01*
X161347925Y-96548003D01*
X161371617Y-96599882D01*
X161384103Y-96662658D01*
X161384106Y-96662667D01*
X161451983Y-96826540D01*
X161451990Y-96826553D01*
X161550535Y-96974034D01*
X161550538Y-96974038D01*
X161675961Y-97099461D01*
X161675965Y-97099464D01*
X161823446Y-97198009D01*
X161823459Y-97198016D01*
X161935809Y-97244552D01*
X161987334Y-97265894D01*
X161987336Y-97265894D01*
X161987341Y-97265896D01*
X162161304Y-97300499D01*
X162161307Y-97300500D01*
X162161309Y-97300500D01*
X162338693Y-97300500D01*
X162338694Y-97300499D01*
X162397174Y-97288867D01*
X162512658Y-97265896D01*
X162512661Y-97265894D01*
X162512666Y-97265894D01*
X162676547Y-97198013D01*
X162824035Y-97099464D01*
X162949464Y-96974035D01*
X163048013Y-96826547D01*
X163115894Y-96662666D01*
X163128383Y-96599882D01*
X163160768Y-96537971D01*
X163221483Y-96503397D01*
X163291253Y-96507136D01*
X163347925Y-96548003D01*
X163371617Y-96599882D01*
X163384103Y-96662658D01*
X163384106Y-96662667D01*
X163451983Y-96826540D01*
X163451990Y-96826553D01*
X163550535Y-96974034D01*
X163550538Y-96974038D01*
X163675961Y-97099461D01*
X163675965Y-97099464D01*
X163823446Y-97198009D01*
X163823459Y-97198016D01*
X163935809Y-97244552D01*
X163987334Y-97265894D01*
X163987336Y-97265894D01*
X163987341Y-97265896D01*
X164161304Y-97300499D01*
X164161307Y-97300500D01*
X164161309Y-97300500D01*
X164338693Y-97300500D01*
X164338694Y-97300499D01*
X164397174Y-97288867D01*
X164512658Y-97265896D01*
X164512661Y-97265894D01*
X164512666Y-97265894D01*
X164676547Y-97198013D01*
X164824035Y-97099464D01*
X164949464Y-96974035D01*
X165048013Y-96826547D01*
X165115894Y-96662666D01*
X165128383Y-96599882D01*
X165160768Y-96537971D01*
X165221483Y-96503397D01*
X165291253Y-96507136D01*
X165347925Y-96548003D01*
X165371617Y-96599882D01*
X165384103Y-96662658D01*
X165384106Y-96662667D01*
X165451983Y-96826540D01*
X165451990Y-96826553D01*
X165550535Y-96974034D01*
X165550538Y-96974038D01*
X165675961Y-97099461D01*
X165675965Y-97099464D01*
X165823446Y-97198009D01*
X165823459Y-97198016D01*
X165935809Y-97244552D01*
X165987334Y-97265894D01*
X165987336Y-97265894D01*
X165987341Y-97265896D01*
X166161304Y-97300499D01*
X166161307Y-97300500D01*
X166161309Y-97300500D01*
X166338693Y-97300500D01*
X166338694Y-97300499D01*
X166397174Y-97288867D01*
X166512658Y-97265896D01*
X166512661Y-97265894D01*
X166512666Y-97265894D01*
X166676547Y-97198013D01*
X166824035Y-97099464D01*
X166949464Y-96974035D01*
X167048013Y-96826547D01*
X167115894Y-96662666D01*
X167128383Y-96599882D01*
X167160768Y-96537971D01*
X167221483Y-96503397D01*
X167291253Y-96507136D01*
X167347925Y-96548003D01*
X167371617Y-96599882D01*
X167384103Y-96662658D01*
X167384106Y-96662667D01*
X167451983Y-96826540D01*
X167451990Y-96826553D01*
X167550535Y-96974034D01*
X167550538Y-96974038D01*
X167675961Y-97099461D01*
X167675965Y-97099464D01*
X167823446Y-97198009D01*
X167823459Y-97198016D01*
X167935809Y-97244552D01*
X167987334Y-97265894D01*
X167987336Y-97265894D01*
X167987341Y-97265896D01*
X168161304Y-97300499D01*
X168161307Y-97300500D01*
X168161309Y-97300500D01*
X168338693Y-97300500D01*
X168338694Y-97300499D01*
X168397174Y-97288867D01*
X168512658Y-97265896D01*
X168512661Y-97265894D01*
X168512666Y-97265894D01*
X168676547Y-97198013D01*
X168824035Y-97099464D01*
X168949464Y-96974035D01*
X169048013Y-96826547D01*
X169115894Y-96662666D01*
X169128383Y-96599882D01*
X169160768Y-96537971D01*
X169221483Y-96503397D01*
X169291253Y-96507136D01*
X169347925Y-96548003D01*
X169371617Y-96599882D01*
X169384103Y-96662658D01*
X169384106Y-96662667D01*
X169451983Y-96826540D01*
X169451990Y-96826553D01*
X169550535Y-96974034D01*
X169550538Y-96974038D01*
X169675961Y-97099461D01*
X169675965Y-97099464D01*
X169823446Y-97198009D01*
X169823459Y-97198016D01*
X169935809Y-97244552D01*
X169987334Y-97265894D01*
X169987336Y-97265894D01*
X169987341Y-97265896D01*
X170161304Y-97300499D01*
X170161307Y-97300500D01*
X170161309Y-97300500D01*
X170338693Y-97300500D01*
X170338694Y-97300499D01*
X170397174Y-97288867D01*
X170512658Y-97265896D01*
X170512661Y-97265894D01*
X170512666Y-97265894D01*
X170676547Y-97198013D01*
X170824035Y-97099464D01*
X170949464Y-96974035D01*
X171048013Y-96826547D01*
X171115894Y-96662666D01*
X171150500Y-96488691D01*
X171150500Y-96311309D01*
X171150500Y-96311306D01*
X171150499Y-96311304D01*
X171115896Y-96137341D01*
X171115893Y-96137332D01*
X171048016Y-95973459D01*
X171048009Y-95973446D01*
X170949464Y-95825965D01*
X170949461Y-95825961D01*
X170824038Y-95700538D01*
X170824034Y-95700535D01*
X170676553Y-95601990D01*
X170676540Y-95601983D01*
X170512667Y-95534106D01*
X170512658Y-95534103D01*
X170338694Y-95499500D01*
X170338691Y-95499500D01*
X170161309Y-95499500D01*
X170161306Y-95499500D01*
X169987341Y-95534103D01*
X169987332Y-95534106D01*
X169823459Y-95601983D01*
X169823446Y-95601990D01*
X169675965Y-95700535D01*
X169675961Y-95700538D01*
X169550538Y-95825961D01*
X169550535Y-95825965D01*
X169451990Y-95973446D01*
X169451983Y-95973459D01*
X169384106Y-96137332D01*
X169384104Y-96137340D01*
X169371617Y-96200118D01*
X169339232Y-96262028D01*
X169278516Y-96296603D01*
X169208747Y-96292863D01*
X169152075Y-96251996D01*
X169128383Y-96200118D01*
X169115895Y-96137340D01*
X169115894Y-96137334D01*
X169091284Y-96077919D01*
X169048016Y-95973459D01*
X169048009Y-95973446D01*
X168949464Y-95825965D01*
X168949461Y-95825961D01*
X168824038Y-95700538D01*
X168824034Y-95700535D01*
X168676553Y-95601990D01*
X168676540Y-95601983D01*
X168512667Y-95534106D01*
X168512658Y-95534103D01*
X168338694Y-95499500D01*
X168338691Y-95499500D01*
X168161309Y-95499500D01*
X168161306Y-95499500D01*
X167987341Y-95534103D01*
X167987332Y-95534106D01*
X167823459Y-95601983D01*
X167823446Y-95601990D01*
X167675965Y-95700535D01*
X167675961Y-95700538D01*
X167550538Y-95825961D01*
X167550535Y-95825965D01*
X167451990Y-95973446D01*
X167451983Y-95973459D01*
X167384106Y-96137332D01*
X167384104Y-96137340D01*
X167371617Y-96200118D01*
X167339232Y-96262028D01*
X167278516Y-96296603D01*
X167208747Y-96292863D01*
X167152075Y-96251996D01*
X167128383Y-96200118D01*
X167115895Y-96137340D01*
X167115894Y-96137334D01*
X167091284Y-96077919D01*
X167048016Y-95973459D01*
X167048009Y-95973446D01*
X166949464Y-95825965D01*
X166949461Y-95825961D01*
X166824038Y-95700538D01*
X166824034Y-95700535D01*
X166676553Y-95601990D01*
X166676540Y-95601983D01*
X166512667Y-95534106D01*
X166512658Y-95534103D01*
X166338694Y-95499500D01*
X166338691Y-95499500D01*
X166161309Y-95499500D01*
X166161306Y-95499500D01*
X165987341Y-95534103D01*
X165987332Y-95534106D01*
X165823459Y-95601983D01*
X165823446Y-95601990D01*
X165675965Y-95700535D01*
X165675961Y-95700538D01*
X165550538Y-95825961D01*
X165550535Y-95825965D01*
X165451990Y-95973446D01*
X165451983Y-95973459D01*
X165384106Y-96137332D01*
X165384104Y-96137340D01*
X165371617Y-96200118D01*
X165339232Y-96262028D01*
X165278516Y-96296603D01*
X165208747Y-96292863D01*
X165152075Y-96251996D01*
X165128383Y-96200118D01*
X165115895Y-96137340D01*
X165115894Y-96137334D01*
X165091284Y-96077919D01*
X165048016Y-95973459D01*
X165048009Y-95973446D01*
X164949464Y-95825965D01*
X164949461Y-95825961D01*
X164824038Y-95700538D01*
X164824034Y-95700535D01*
X164676553Y-95601990D01*
X164676540Y-95601983D01*
X164512667Y-95534106D01*
X164512658Y-95534103D01*
X164338694Y-95499500D01*
X164338691Y-95499500D01*
X164161309Y-95499500D01*
X164161306Y-95499500D01*
X163987341Y-95534103D01*
X163987332Y-95534106D01*
X163823459Y-95601983D01*
X163823446Y-95601990D01*
X163675965Y-95700535D01*
X163675961Y-95700538D01*
X163550538Y-95825961D01*
X163550535Y-95825965D01*
X163451990Y-95973446D01*
X163451983Y-95973459D01*
X163384106Y-96137332D01*
X163384104Y-96137340D01*
X163371617Y-96200118D01*
X163339232Y-96262028D01*
X163278516Y-96296603D01*
X163208747Y-96292863D01*
X163152075Y-96251996D01*
X163128383Y-96200118D01*
X163115895Y-96137340D01*
X163115894Y-96137334D01*
X163091284Y-96077919D01*
X163048016Y-95973459D01*
X163048009Y-95973446D01*
X162949464Y-95825965D01*
X162949461Y-95825961D01*
X162824038Y-95700538D01*
X162824034Y-95700535D01*
X162676553Y-95601990D01*
X162676540Y-95601983D01*
X162512667Y-95534106D01*
X162512658Y-95534103D01*
X162338694Y-95499500D01*
X162338691Y-95499500D01*
X162161309Y-95499500D01*
X162161306Y-95499500D01*
X161987341Y-95534103D01*
X161987332Y-95534106D01*
X161823459Y-95601983D01*
X161823446Y-95601990D01*
X161675965Y-95700535D01*
X161675961Y-95700538D01*
X161550538Y-95825961D01*
X161550535Y-95825965D01*
X161451990Y-95973446D01*
X161451983Y-95973459D01*
X161384106Y-96137332D01*
X161384104Y-96137340D01*
X161371617Y-96200118D01*
X161339232Y-96262028D01*
X161278516Y-96296603D01*
X161208747Y-96292863D01*
X161152075Y-96251996D01*
X161128383Y-96200118D01*
X161115895Y-96137340D01*
X161115894Y-96137334D01*
X161091284Y-96077919D01*
X161048016Y-95973459D01*
X161048009Y-95973446D01*
X160949464Y-95825965D01*
X160949461Y-95825961D01*
X160824038Y-95700538D01*
X160824034Y-95700535D01*
X160676553Y-95601990D01*
X160676540Y-95601983D01*
X160512667Y-95534106D01*
X160512658Y-95534103D01*
X160338694Y-95499500D01*
X160338691Y-95499500D01*
X160161309Y-95499500D01*
X160161306Y-95499500D01*
X159987341Y-95534103D01*
X159987332Y-95534106D01*
X159823459Y-95601983D01*
X159823446Y-95601990D01*
X159675965Y-95700535D01*
X159675961Y-95700538D01*
X159550538Y-95825961D01*
X159550535Y-95825965D01*
X159451990Y-95973446D01*
X159451983Y-95973459D01*
X159384106Y-96137332D01*
X159384104Y-96137340D01*
X159371617Y-96200118D01*
X159339232Y-96262028D01*
X159278516Y-96296603D01*
X159208747Y-96292863D01*
X159152075Y-96251996D01*
X159128383Y-96200118D01*
X159115895Y-96137340D01*
X159115894Y-96137334D01*
X159091284Y-96077919D01*
X159048016Y-95973459D01*
X159048009Y-95973446D01*
X158949464Y-95825965D01*
X158949461Y-95825961D01*
X158824038Y-95700538D01*
X158824034Y-95700535D01*
X158676553Y-95601990D01*
X158676540Y-95601983D01*
X158512667Y-95534106D01*
X158512658Y-95534103D01*
X158338694Y-95499500D01*
X158338691Y-95499500D01*
X158161309Y-95499500D01*
X158161306Y-95499500D01*
X157987341Y-95534103D01*
X157987332Y-95534106D01*
X157823459Y-95601983D01*
X157823446Y-95601990D01*
X157675965Y-95700535D01*
X157675961Y-95700538D01*
X157550538Y-95825961D01*
X157550535Y-95825965D01*
X157451990Y-95973446D01*
X157451983Y-95973459D01*
X157384106Y-96137332D01*
X157384104Y-96137340D01*
X157371617Y-96200118D01*
X157339232Y-96262028D01*
X157278516Y-96296603D01*
X157208747Y-96292863D01*
X157152075Y-96251996D01*
X157128383Y-96200118D01*
X157115895Y-96137340D01*
X157115894Y-96137334D01*
X157091284Y-96077919D01*
X157048016Y-95973459D01*
X157048009Y-95973446D01*
X156949464Y-95825965D01*
X156949461Y-95825961D01*
X156824038Y-95700538D01*
X156824034Y-95700535D01*
X156676553Y-95601990D01*
X156676540Y-95601983D01*
X156512667Y-95534106D01*
X156512658Y-95534103D01*
X156338694Y-95499500D01*
X156338691Y-95499500D01*
X156161309Y-95499500D01*
X156161306Y-95499500D01*
X155987341Y-95534103D01*
X155987332Y-95534106D01*
X155823459Y-95601983D01*
X155823446Y-95601990D01*
X155675965Y-95700535D01*
X155675961Y-95700538D01*
X155550538Y-95825961D01*
X155550535Y-95825965D01*
X155451990Y-95973446D01*
X155451983Y-95973459D01*
X155389061Y-96125371D01*
X155345221Y-96179775D01*
X155278927Y-96201840D01*
X155211227Y-96184561D01*
X155163616Y-96133424D01*
X155150500Y-96077919D01*
X155150500Y-95680249D01*
X155150499Y-95680247D01*
X155138868Y-95621770D01*
X155138867Y-95621769D01*
X155094552Y-95555447D01*
X155028230Y-95511132D01*
X155028229Y-95511131D01*
X154969752Y-95499500D01*
X154969748Y-95499500D01*
X153530252Y-95499500D01*
X153530247Y-95499500D01*
X153471770Y-95511131D01*
X153471769Y-95511132D01*
X153405447Y-95555447D01*
X153361132Y-95621769D01*
X153361131Y-95621770D01*
X153349500Y-95680247D01*
X151390500Y-95680247D01*
X151390500Y-91443995D01*
X152549499Y-91443995D01*
X152576418Y-91579322D01*
X152576421Y-91579332D01*
X152629221Y-91706804D01*
X152629228Y-91706817D01*
X152705885Y-91821541D01*
X152705888Y-91821545D01*
X152803454Y-91919111D01*
X152803458Y-91919114D01*
X152918182Y-91995771D01*
X152918195Y-91995778D01*
X153045667Y-92048578D01*
X153045672Y-92048580D01*
X153045676Y-92048580D01*
X153045677Y-92048581D01*
X153181004Y-92075500D01*
X153181007Y-92075500D01*
X153318995Y-92075500D01*
X153410041Y-92057389D01*
X153454328Y-92048580D01*
X153581811Y-91995775D01*
X153696542Y-91919114D01*
X153794114Y-91821542D01*
X153870775Y-91706811D01*
X153923580Y-91579328D01*
X153945527Y-91468995D01*
X154274499Y-91468995D01*
X154301418Y-91604322D01*
X154301421Y-91604332D01*
X154354221Y-91731804D01*
X154354228Y-91731817D01*
X154430885Y-91846541D01*
X154430888Y-91846545D01*
X154528454Y-91944111D01*
X154528458Y-91944114D01*
X154643182Y-92020771D01*
X154643195Y-92020778D01*
X154770667Y-92073578D01*
X154770672Y-92073580D01*
X154770676Y-92073580D01*
X154770677Y-92073581D01*
X154906004Y-92100500D01*
X154906007Y-92100500D01*
X155043995Y-92100500D01*
X155135041Y-92082389D01*
X155179328Y-92073580D01*
X155306811Y-92020775D01*
X155421542Y-91944114D01*
X155519114Y-91846542D01*
X155595775Y-91731811D01*
X155648580Y-91604328D01*
X155675500Y-91468995D01*
X156049499Y-91468995D01*
X156076418Y-91604322D01*
X156076421Y-91604332D01*
X156129221Y-91731804D01*
X156129228Y-91731817D01*
X156205885Y-91846541D01*
X156205888Y-91846545D01*
X156303454Y-91944111D01*
X156303458Y-91944114D01*
X156418182Y-92020771D01*
X156418195Y-92020778D01*
X156545667Y-92073578D01*
X156545672Y-92073580D01*
X156545676Y-92073580D01*
X156545677Y-92073581D01*
X156681004Y-92100500D01*
X156681007Y-92100500D01*
X156818995Y-92100500D01*
X156910041Y-92082389D01*
X156954328Y-92073580D01*
X157081811Y-92020775D01*
X157196542Y-91944114D01*
X157294114Y-91846542D01*
X157370775Y-91731811D01*
X157423580Y-91604328D01*
X157450500Y-91468993D01*
X157450500Y-91331007D01*
X157450500Y-91331004D01*
X157423581Y-91195677D01*
X157423580Y-91195676D01*
X157423580Y-91195672D01*
X157413223Y-91170667D01*
X157370778Y-91068195D01*
X157370771Y-91068182D01*
X157294114Y-90953458D01*
X157294111Y-90953454D01*
X157196545Y-90855888D01*
X157196541Y-90855885D01*
X157081817Y-90779228D01*
X157081804Y-90779221D01*
X156954332Y-90726421D01*
X156954322Y-90726418D01*
X156818995Y-90699500D01*
X156818993Y-90699500D01*
X156681007Y-90699500D01*
X156681005Y-90699500D01*
X156545677Y-90726418D01*
X156545667Y-90726421D01*
X156418195Y-90779221D01*
X156418182Y-90779228D01*
X156303458Y-90855885D01*
X156303454Y-90855888D01*
X156205888Y-90953454D01*
X156205885Y-90953458D01*
X156129228Y-91068182D01*
X156129221Y-91068195D01*
X156076421Y-91195667D01*
X156076418Y-91195677D01*
X156049500Y-91331004D01*
X156049500Y-91331007D01*
X156049500Y-91468993D01*
X156049500Y-91468995D01*
X156049499Y-91468995D01*
X155675500Y-91468995D01*
X155675500Y-91468993D01*
X155675500Y-91331007D01*
X155675500Y-91331004D01*
X155648581Y-91195677D01*
X155648580Y-91195676D01*
X155648580Y-91195672D01*
X155638223Y-91170667D01*
X155595778Y-91068195D01*
X155595771Y-91068182D01*
X155519114Y-90953458D01*
X155519111Y-90953454D01*
X155421545Y-90855888D01*
X155421541Y-90855885D01*
X155306817Y-90779228D01*
X155306804Y-90779221D01*
X155179332Y-90726421D01*
X155179322Y-90726418D01*
X155043995Y-90699500D01*
X155043993Y-90699500D01*
X154906007Y-90699500D01*
X154906005Y-90699500D01*
X154770677Y-90726418D01*
X154770667Y-90726421D01*
X154643195Y-90779221D01*
X154643182Y-90779228D01*
X154528458Y-90855885D01*
X154528454Y-90855888D01*
X154430888Y-90953454D01*
X154430885Y-90953458D01*
X154354228Y-91068182D01*
X154354221Y-91068195D01*
X154301421Y-91195667D01*
X154301418Y-91195677D01*
X154274500Y-91331004D01*
X154274500Y-91331007D01*
X154274500Y-91468993D01*
X154274500Y-91468995D01*
X154274499Y-91468995D01*
X153945527Y-91468995D01*
X153950500Y-91443993D01*
X153950500Y-91306007D01*
X153950500Y-91306004D01*
X153923581Y-91170677D01*
X153923580Y-91170676D01*
X153923580Y-91170672D01*
X153881133Y-91068195D01*
X153870778Y-91043195D01*
X153870771Y-91043182D01*
X153794114Y-90928458D01*
X153794111Y-90928454D01*
X153696545Y-90830888D01*
X153696541Y-90830885D01*
X153581817Y-90754228D01*
X153581804Y-90754221D01*
X153454332Y-90701421D01*
X153454322Y-90701418D01*
X153318995Y-90674500D01*
X153318993Y-90674500D01*
X153181007Y-90674500D01*
X153181005Y-90674500D01*
X153045677Y-90701418D01*
X153045667Y-90701421D01*
X152918195Y-90754221D01*
X152918182Y-90754228D01*
X152803458Y-90830885D01*
X152803454Y-90830888D01*
X152705888Y-90928454D01*
X152705885Y-90928458D01*
X152629228Y-91043182D01*
X152629221Y-91043195D01*
X152576421Y-91170667D01*
X152576418Y-91170677D01*
X152549500Y-91306004D01*
X152549500Y-91306007D01*
X152549500Y-91443993D01*
X152549500Y-91443995D01*
X152549499Y-91443995D01*
X151390500Y-91443995D01*
X151390500Y-85046300D01*
X159812666Y-85028899D01*
X159790242Y-85227924D01*
X159790242Y-85589065D01*
X159830674Y-85947909D01*
X159830676Y-85947921D01*
X159911035Y-86299999D01*
X159911036Y-86300001D01*
X160030310Y-86640868D01*
X160186997Y-86966232D01*
X160186999Y-86966235D01*
X160379133Y-87272014D01*
X160604295Y-87554359D01*
X160859654Y-87809718D01*
X161141999Y-88034880D01*
X161447778Y-88227014D01*
X161773146Y-88383703D01*
X162114013Y-88502977D01*
X162466091Y-88583337D01*
X162824948Y-88623770D01*
X162824949Y-88623771D01*
X162824952Y-88623771D01*
X163186087Y-88623771D01*
X163186087Y-88623770D01*
X163544945Y-88583337D01*
X163897023Y-88502977D01*
X164237890Y-88383703D01*
X164563258Y-88227014D01*
X164869037Y-88034880D01*
X165151382Y-87809718D01*
X165406741Y-87554359D01*
X165631903Y-87272014D01*
X165824037Y-86966235D01*
X165980726Y-86640867D01*
X166100000Y-86300000D01*
X166180360Y-85947922D01*
X166220794Y-85589061D01*
X166220794Y-85227929D01*
X166196882Y-85015708D01*
X175050000Y-84997417D01*
X175050000Y-85725000D01*
G37*
%TD.AperFunction*%
%TD*%
%TA.AperFunction,Conductor*%
%TO.N,+3V3*%
G36*
X214020617Y-85679041D02*
G01*
X214076084Y-85721529D01*
X214099774Y-85787260D01*
X214100000Y-85794736D01*
X214100000Y-90276000D01*
X214080315Y-90343039D01*
X214027511Y-90388794D01*
X213976000Y-90400000D01*
X212199999Y-90400000D01*
X212036319Y-90563681D01*
X211974996Y-90597166D01*
X211948638Y-90600000D01*
X210924000Y-90600000D01*
X210856961Y-90580315D01*
X210811206Y-90527511D01*
X210800000Y-90476000D01*
X210800000Y-88779881D01*
X210819685Y-88712842D01*
X210837291Y-88691238D01*
X213889296Y-85706088D01*
X213950985Y-85673285D01*
X214020617Y-85679041D01*
G37*
%TD.AperFunction*%
%TD*%
M02*
