%TF.GenerationSoftware,KiCad,Pcbnew,9.0.6*%
%TF.CreationDate,2026-01-07T02:43:41-03:00*%
%TF.ProjectId,flight_comp_srad-2026,666c6967-6874-45f6-936f-6d705f737261,rev?*%
%TF.SameCoordinates,Original*%
%TF.FileFunction,Copper,L4,Bot*%
%TF.FilePolarity,Positive*%
%FSLAX46Y46*%
G04 Gerber Fmt 4.6, Leading zero omitted, Abs format (unit mm)*
G04 Created by KiCad (PCBNEW 9.0.6) date 2026-01-07 02:43:41*
%MOMM*%
%LPD*%
G01*
G04 APERTURE LIST*
G04 Aperture macros list*
%AMRoundRect*
0 Rectangle with rounded corners*
0 $1 Rounding radius*
0 $2 $3 $4 $5 $6 $7 $8 $9 X,Y pos of 4 corners*
0 Add a 4 corners polygon primitive as box body*
4,1,4,$2,$3,$4,$5,$6,$7,$8,$9,$2,$3,0*
0 Add four circle primitives for the rounded corners*
1,1,$1+$1,$2,$3*
1,1,$1+$1,$4,$5*
1,1,$1+$1,$6,$7*
1,1,$1+$1,$8,$9*
0 Add four rect primitives between the rounded corners*
20,1,$1+$1,$2,$3,$4,$5,0*
20,1,$1+$1,$4,$5,$6,$7,0*
20,1,$1+$1,$6,$7,$8,$9,0*
20,1,$1+$1,$8,$9,$2,$3,0*%
%AMFreePoly0*
4,1,19,0.398209,0.132453,0.423861,0.088024,0.425000,0.075000,0.425000,0.031066,0.407453,-0.017143,0.403033,-0.021967,0.296967,-0.128033,0.250471,-0.149715,0.243934,-0.150000,-0.350000,-0.150000,-0.398209,-0.132453,-0.423861,-0.088024,-0.425000,-0.075000,-0.425000,0.075000,-0.407453,0.123209,-0.363024,0.148861,-0.350000,0.150000,0.350000,0.150000,0.398209,0.132453,0.398209,0.132453,
$1*%
%AMFreePoly1*
4,1,19,0.292143,0.132453,0.296967,0.128033,0.403033,0.021967,0.424715,-0.024529,0.425000,-0.031066,0.425000,-0.075000,0.407453,-0.123209,0.363024,-0.148861,0.350000,-0.150000,-0.350000,-0.150000,-0.398209,-0.132453,-0.423861,-0.088024,-0.425000,-0.075000,-0.425000,0.075000,-0.407453,0.123209,-0.363024,0.148861,-0.350000,0.150000,0.243934,0.150000,0.292143,0.132453,0.292143,0.132453,
$1*%
%AMFreePoly2*
4,1,19,0.123209,0.407453,0.148861,0.363024,0.150000,0.350000,0.150000,-0.350000,0.132453,-0.398209,0.088024,-0.423861,0.075000,-0.425000,0.031066,-0.425000,-0.017143,-0.407453,-0.021967,-0.403033,-0.128033,-0.296967,-0.149715,-0.250471,-0.150000,-0.243934,-0.150000,0.350000,-0.132453,0.398209,-0.088024,0.423861,-0.075000,0.425000,0.075000,0.425000,0.123209,0.407453,0.123209,0.407453,
$1*%
%AMFreePoly3*
4,1,19,0.123209,0.407453,0.148861,0.363024,0.150000,0.350000,0.150000,-0.243934,0.132453,-0.292143,0.128033,-0.296967,0.021967,-0.403033,-0.024529,-0.424715,-0.031066,-0.425000,-0.075000,-0.425000,-0.123209,-0.407453,-0.148861,-0.363024,-0.150000,-0.350000,-0.150000,0.350000,-0.132453,0.398209,-0.088024,0.423861,-0.075000,0.425000,0.075000,0.425000,0.123209,0.407453,0.123209,0.407453,
$1*%
%AMFreePoly4*
4,1,19,0.398209,0.132453,0.423861,0.088024,0.425000,0.075000,0.425000,-0.075000,0.407453,-0.123209,0.363024,-0.148861,0.350000,-0.150000,-0.350000,-0.150000,-0.398209,-0.132453,-0.423861,-0.088024,-0.425000,-0.075000,-0.425000,-0.031066,-0.407453,0.017143,-0.403033,0.021967,-0.296967,0.128033,-0.250471,0.149715,-0.243934,0.150000,0.350000,0.150000,0.398209,0.132453,0.398209,0.132453,
$1*%
%AMFreePoly5*
4,1,19,0.398209,0.132453,0.423861,0.088024,0.425000,0.075000,0.425000,-0.075000,0.407453,-0.123209,0.363024,-0.148861,0.350000,-0.150000,-0.243934,-0.150000,-0.292143,-0.132453,-0.296967,-0.128033,-0.403033,-0.021967,-0.424715,0.024529,-0.425000,0.031066,-0.425000,0.075000,-0.407453,0.123209,-0.363024,0.148861,-0.350000,0.150000,0.350000,0.150000,0.398209,0.132453,0.398209,0.132453,
$1*%
%AMFreePoly6*
4,1,19,0.017143,0.407453,0.021967,0.403033,0.128033,0.296967,0.149715,0.250471,0.150000,0.243934,0.150000,-0.350000,0.132453,-0.398209,0.088024,-0.423861,0.075000,-0.425000,-0.075000,-0.425000,-0.123209,-0.407453,-0.148861,-0.363024,-0.150000,-0.350000,-0.150000,0.350000,-0.132453,0.398209,-0.088024,0.423861,-0.075000,0.425000,-0.031066,0.425000,0.017143,0.407453,0.017143,0.407453,
$1*%
%AMFreePoly7*
4,1,19,0.123209,0.407453,0.148861,0.363024,0.150000,0.350000,0.150000,-0.350000,0.132453,-0.398209,0.088024,-0.423861,0.075000,-0.425000,-0.075000,-0.425000,-0.123209,-0.407453,-0.148861,-0.363024,-0.150000,-0.350000,-0.150000,0.243934,-0.132453,0.292143,-0.128033,0.296967,-0.021967,0.403033,0.024529,0.424715,0.031066,0.425000,0.075000,0.425000,0.123209,0.407453,0.123209,0.407453,
$1*%
G04 Aperture macros list end*
%TA.AperFunction,ComponentPad*%
%ADD10R,2.000000X2.000000*%
%TD*%
%TA.AperFunction,ComponentPad*%
%ADD11C,2.000000*%
%TD*%
%TA.AperFunction,HeatsinkPad*%
%ADD12C,0.500000*%
%TD*%
%TA.AperFunction,HeatsinkPad*%
%ADD13R,3.200000X3.200000*%
%TD*%
%TA.AperFunction,HeatsinkPad*%
%ADD14O,1.700000X1.350000*%
%TD*%
%TA.AperFunction,HeatsinkPad*%
%ADD15O,1.500000X1.100000*%
%TD*%
%TA.AperFunction,ComponentPad*%
%ADD16R,1.400000X1.400000*%
%TD*%
%TA.AperFunction,ComponentPad*%
%ADD17C,1.400000*%
%TD*%
%TA.AperFunction,SMDPad,CuDef*%
%ADD18RoundRect,0.140000X-0.140000X-0.170000X0.140000X-0.170000X0.140000X0.170000X-0.140000X0.170000X0*%
%TD*%
%TA.AperFunction,SMDPad,CuDef*%
%ADD19RoundRect,0.140000X0.170000X-0.140000X0.170000X0.140000X-0.170000X0.140000X-0.170000X-0.140000X0*%
%TD*%
%TA.AperFunction,SMDPad,CuDef*%
%ADD20RoundRect,0.250000X-0.450000X0.262500X-0.450000X-0.262500X0.450000X-0.262500X0.450000X0.262500X0*%
%TD*%
%TA.AperFunction,SMDPad,CuDef*%
%ADD21RoundRect,0.140000X0.140000X0.170000X-0.140000X0.170000X-0.140000X-0.170000X0.140000X-0.170000X0*%
%TD*%
%TA.AperFunction,SMDPad,CuDef*%
%ADD22RoundRect,0.250000X0.450000X-0.262500X0.450000X0.262500X-0.450000X0.262500X-0.450000X-0.262500X0*%
%TD*%
%TA.AperFunction,SMDPad,CuDef*%
%ADD23R,0.600000X1.100000*%
%TD*%
%TA.AperFunction,SMDPad,CuDef*%
%ADD24RoundRect,0.150000X-0.150000X0.325000X-0.150000X-0.325000X0.150000X-0.325000X0.150000X0.325000X0*%
%TD*%
%TA.AperFunction,SMDPad,CuDef*%
%ADD25RoundRect,0.150000X-0.325000X0.150000X-0.325000X-0.150000X0.325000X-0.150000X0.325000X0.150000X0*%
%TD*%
%TA.AperFunction,SMDPad,CuDef*%
%ADD26FreePoly0,90.000000*%
%TD*%
%TA.AperFunction,SMDPad,CuDef*%
%ADD27RoundRect,0.075000X0.075000X-0.350000X0.075000X0.350000X-0.075000X0.350000X-0.075000X-0.350000X0*%
%TD*%
%TA.AperFunction,SMDPad,CuDef*%
%ADD28FreePoly1,90.000000*%
%TD*%
%TA.AperFunction,SMDPad,CuDef*%
%ADD29FreePoly2,90.000000*%
%TD*%
%TA.AperFunction,SMDPad,CuDef*%
%ADD30RoundRect,0.075000X0.350000X-0.075000X0.350000X0.075000X-0.350000X0.075000X-0.350000X-0.075000X0*%
%TD*%
%TA.AperFunction,SMDPad,CuDef*%
%ADD31FreePoly3,90.000000*%
%TD*%
%TA.AperFunction,SMDPad,CuDef*%
%ADD32FreePoly4,90.000000*%
%TD*%
%TA.AperFunction,SMDPad,CuDef*%
%ADD33FreePoly5,90.000000*%
%TD*%
%TA.AperFunction,SMDPad,CuDef*%
%ADD34FreePoly6,90.000000*%
%TD*%
%TA.AperFunction,SMDPad,CuDef*%
%ADD35FreePoly7,90.000000*%
%TD*%
%TA.AperFunction,HeatsinkPad*%
%ADD36R,3.250000X3.250000*%
%TD*%
%TA.AperFunction,SMDPad,CuDef*%
%ADD37RoundRect,0.140000X-0.170000X0.140000X-0.170000X-0.140000X0.170000X-0.140000X0.170000X0.140000X0*%
%TD*%
%TA.AperFunction,SMDPad,CuDef*%
%ADD38RoundRect,0.250000X-0.250000X-0.475000X0.250000X-0.475000X0.250000X0.475000X-0.250000X0.475000X0*%
%TD*%
%TA.AperFunction,SMDPad,CuDef*%
%ADD39RoundRect,0.225000X-0.225000X-0.250000X0.225000X-0.250000X0.225000X0.250000X-0.225000X0.250000X0*%
%TD*%
%TA.AperFunction,ViaPad*%
%ADD40C,0.400000*%
%TD*%
%TA.AperFunction,ViaPad*%
%ADD41C,0.600000*%
%TD*%
%TA.AperFunction,Conductor*%
%ADD42C,0.200000*%
%TD*%
%TA.AperFunction,Conductor*%
%ADD43C,0.500000*%
%TD*%
%TA.AperFunction,Conductor*%
%ADD44C,0.400000*%
%TD*%
%TA.AperFunction,Conductor*%
%ADD45C,1.000000*%
%TD*%
G04 APERTURE END LIST*
D10*
%TO.P,J2,1,1*%
%TO.N,GND*%
X192020000Y-98700000D03*
D11*
%TO.P,J2,2,2*%
%TO.N,/SWDIO*%
X194560000Y-98700000D03*
%TO.P,J2,3,3*%
%TO.N,/SWCLK*%
X197100000Y-98700000D03*
%TD*%
D12*
%TO.P,U3,57,GND*%
%TO.N,GND*%
X201420000Y-84830000D03*
X198720000Y-84830000D03*
D13*
X200070000Y-86180000D03*
D12*
X201420000Y-87530000D03*
X198720000Y-87530000D03*
%TD*%
D14*
%TO.P,J3,6,Shield*%
%TO.N,GND*%
X218300000Y-87200000D03*
D15*
X215300000Y-86890000D03*
X215300000Y-82050000D03*
D14*
X218300000Y-81740000D03*
%TD*%
D10*
%TO.P,J5,1,1*%
%TO.N,VBUS*%
X217200000Y-75200000D03*
D11*
%TO.P,J5,2,2*%
%TO.N,GND*%
X217200000Y-77740000D03*
%TD*%
D16*
%TO.P,U7,1,VCC*%
%TO.N,+3V3*%
X154250000Y-96400000D03*
D17*
%TO.P,U7,2,DOUT/DIO13*%
%TO.N,/UART_Rx0*%
X156250000Y-96400000D03*
%TO.P,U7,3,DIN/NCONFIG/DIO14*%
%TO.N,/UART_Tx0*%
X158250000Y-96400000D03*
%TO.P,U7,4,DIO12/SPI_MISO*%
%TO.N,unconnected-(U7-DIO12{slash}SPI_MISO-Pad4)*%
X160250000Y-96400000D03*
%TO.P,U7,5,~{RESET}*%
%TO.N,unconnected-(U7-~{RESET}-Pad5)*%
X162250000Y-96400000D03*
%TO.P,U7,6,DIO10/PWM0*%
%TO.N,unconnected-(U7-DIO10{slash}PWM0-Pad6)*%
X164250000Y-96400000D03*
%TO.P,U7,7,DIO11/PWM1*%
%TO.N,unconnected-(U7-DIO11{slash}PWM1-Pad7)*%
X166250000Y-96400000D03*
%TO.P,U7,8*%
%TO.N,N/C*%
X168250000Y-96400000D03*
%TO.P,U7,9,NDTR/SLEEP_RQ/DIO8*%
%TO.N,unconnected-(U7-NDTR{slash}SLEEP_RQ{slash}DIO8-Pad9)*%
X170250000Y-96400000D03*
%TO.P,U7,10,GND*%
%TO.N,GND*%
X172250000Y-96400000D03*
%TO.P,U7,11,DIO4/SPI_MOSI*%
%TO.N,unconnected-(U7-DIO4{slash}SPI_MOSI-Pad11)*%
X172250000Y-74400000D03*
%TO.P,U7,12,NCTS/DIO7*%
%TO.N,unconnected-(U7-NCTS{slash}DIO7-Pad12)*%
X170250000Y-74400000D03*
%TO.P,U7,13,ON_NSLEEP/DIO9*%
%TO.N,unconnected-(U7-ON_NSLEEP{slash}DIO9-Pad13)*%
X168250000Y-74400000D03*
%TO.P,U7,14,VREF*%
%TO.N,GND*%
X166250000Y-74400000D03*
%TO.P,U7,15,ASSOCIATE/DIO5*%
%TO.N,unconnected-(U7-ASSOCIATE{slash}DIO5-Pad15)*%
X164250000Y-74400000D03*
%TO.P,U7,16,NRTS/DIO6*%
%TO.N,unconnected-(U7-NRTS{slash}DIO6-Pad16)*%
X162250000Y-74400000D03*
%TO.P,U7,17,AD3/DIO3/SPI_NSSEL*%
%TO.N,unconnected-(U7-AD3{slash}DIO3{slash}SPI_NSSEL-Pad17)*%
X160250000Y-74400000D03*
%TO.P,U7,18,AD2/DIO2/SPI_CLK*%
%TO.N,unconnected-(U7-AD2{slash}DIO2{slash}SPI_CLK-Pad18)*%
X158250000Y-74400000D03*
%TO.P,U7,19,AD1/DIO1/SPI_NATTN*%
%TO.N,unconnected-(U7-AD1{slash}DIO1{slash}SPI_NATTN-Pad19)*%
X156250000Y-74400000D03*
%TO.P,U7,20,AD0/DIO0*%
%TO.N,unconnected-(U7-AD0{slash}DIO0-Pad20)*%
X154250000Y-74400000D03*
%TD*%
D18*
%TO.P,C8,1*%
%TO.N,+1V1*%
X205240000Y-87600000D03*
%TO.P,C8,2*%
%TO.N,GND*%
X206200000Y-87600000D03*
%TD*%
D19*
%TO.P,C15,1*%
%TO.N,+3V3*%
X199300000Y-81000000D03*
%TO.P,C15,2*%
%TO.N,GND*%
X199300000Y-80040000D03*
%TD*%
D18*
%TO.P,C10,1*%
%TO.N,+3V3*%
X205240000Y-88600000D03*
%TO.P,C10,2*%
%TO.N,GND*%
X206200000Y-88600000D03*
%TD*%
D20*
%TO.P,R6,1*%
%TO.N,+3V3*%
X180500000Y-93275000D03*
%TO.P,R6,2*%
%TO.N,/SD_DAT0*%
X180500000Y-95100000D03*
%TD*%
D21*
%TO.P,CBAR_2,1*%
%TO.N,+3V3*%
X203680000Y-77600000D03*
%TO.P,CBAR_2,2*%
%TO.N,GND*%
X202720000Y-77600000D03*
%TD*%
%TO.P,CIIM_1,1*%
%TO.N,Net-(U1-REGOUT)*%
X190680000Y-74600000D03*
%TO.P,CIIM_1,2*%
%TO.N,GND*%
X189720000Y-74600000D03*
%TD*%
D22*
%TO.P,R8,1*%
%TO.N,/SD_CLK*%
X182800000Y-95100000D03*
%TO.P,R8,2*%
%TO.N,GND*%
X182800000Y-93275000D03*
%TD*%
D23*
%TO.P,A1,1,VDD*%
%TO.N,+3V3*%
X200250000Y-73900000D03*
%TO.P,A1,2,PS*%
X201500000Y-73900000D03*
%TO.P,A1,3,GND*%
%TO.N,GND*%
X202750000Y-73900000D03*
%TO.P,A1,4,~{CSB}*%
%TO.N,+3V3*%
X204000000Y-73900000D03*
%TO.P,A1,5,~{CSB__1}*%
X204000000Y-76100000D03*
%TO.P,A1,6,SDO*%
%TO.N,unconnected-(A1-SDO-Pad6)*%
X202750000Y-76100000D03*
%TO.P,A1,7,SDI/SDA*%
%TO.N,/RP_SDA1*%
X201500000Y-76100000D03*
%TO.P,A1,8,SCLK*%
%TO.N,/RP_SCL1*%
X200250000Y-76100000D03*
%TD*%
D21*
%TO.P,C6,1*%
%TO.N,+1V1*%
X194900000Y-87700000D03*
%TO.P,C6,2*%
%TO.N,GND*%
X193940000Y-87700000D03*
%TD*%
D24*
%TO.P,U4,1,VDDI/O*%
%TO.N,+3V3*%
X205500000Y-65100000D03*
%TO.P,U4,2,GND*%
%TO.N,GND*%
X206300000Y-65100000D03*
%TO.P,U4,3,RESERVED*%
%TO.N,unconnected-(U4-RESERVED-Pad3)*%
X207100000Y-65100000D03*
%TO.P,U4,4,GND*%
%TO.N,GND*%
X207900000Y-65100000D03*
%TO.P,U4,5,GND*%
X208700000Y-65100000D03*
%TO.P,U4,6,VS*%
%TO.N,+3V3*%
X209500000Y-65100000D03*
D25*
%TO.P,U4,7,\u002ACS*%
X209500000Y-66100000D03*
D24*
%TO.P,U4,8,INT1*%
%TO.N,unconnected-(U4-INT1-Pad8)*%
X209500000Y-67100000D03*
%TO.P,U4,9,INT2*%
%TO.N,unconnected-(U4-INT2-Pad9)*%
X208700000Y-67100000D03*
%TO.P,U4,10,NC*%
%TO.N,unconnected-(U4-NC-Pad10)*%
X207900000Y-67100000D03*
%TO.P,U4,11,RESERVED*%
%TO.N,unconnected-(U4-RESERVED-Pad11)*%
X207100000Y-67100000D03*
%TO.P,U4,12,SDO/ALTADDRESS*%
%TO.N,GND*%
X206300000Y-67100000D03*
%TO.P,U4,13,SDA/SDI/SDIO*%
%TO.N,/RP_SDA1*%
X205500000Y-67100000D03*
D25*
%TO.P,U4,14,SCL/SCLK*%
%TO.N,/RP_SCL1*%
X205500000Y-66100000D03*
%TD*%
D19*
%TO.P,CADXL_1,1*%
%TO.N,+3V3*%
X204000000Y-65080000D03*
%TO.P,CADXL_1,2*%
%TO.N,GND*%
X204000000Y-64120000D03*
%TD*%
D26*
%TO.P,U1,1,MOSI*%
%TO.N,/IIM_MOSI1*%
X196175000Y-77425000D03*
D27*
%TO.P,U1,2,GND*%
%TO.N,GND*%
X195525000Y-77425000D03*
%TO.P,U1,3,GND__1*%
X194875000Y-77425000D03*
%TO.P,U1,4,GND__2*%
X194225000Y-77425000D03*
%TO.P,U1,5,GND__3*%
X193575000Y-77425000D03*
D28*
%TO.P,U1,6,FL*%
%TO.N,unconnected-(U1-FL-Pad6)*%
X192925000Y-77425000D03*
D29*
%TO.P,U1,7,GND__4*%
%TO.N,GND*%
X192100000Y-76600000D03*
D30*
%TO.P,U1,8,VDDIO*%
%TO.N,+3V3*%
X192100000Y-75950000D03*
%TO.P,U1,9,MISO*%
%TO.N,/IIM_MISO1*%
X192100000Y-75300000D03*
%TO.P,U1,10,REGOUT*%
%TO.N,Net-(U1-REGOUT)*%
X192100000Y-74650000D03*
%TO.P,U1,11,VDD*%
%TO.N,+3V3*%
X192100000Y-74000000D03*
D31*
%TO.P,U1,12,ODR*%
%TO.N,unconnected-(U1-ODR-Pad12)*%
X192100000Y-73350000D03*
D32*
%TO.P,U1,13,FL__1*%
%TO.N,unconnected-(U1-FL__1-Pad13)*%
X192925000Y-72525000D03*
D27*
%TO.P,U1,14,GND__5*%
%TO.N,GND*%
X193575000Y-72525000D03*
%TO.P,U1,15,GND__6*%
X194225000Y-72525000D03*
%TO.P,U1,16,GND__7*%
X194875000Y-72525000D03*
%TO.P,U1,17,GND__8*%
X195525000Y-72525000D03*
D33*
%TO.P,U1,18,~{RESET}*%
%TO.N,+3V3*%
X196175000Y-72525000D03*
D34*
%TO.P,U1,19,FL__2*%
%TO.N,unconnected-(U1-FL__2-Pad19)*%
X197000000Y-73350000D03*
D30*
%TO.P,U1,20,VPP*%
%TO.N,+3V3*%
X197000000Y-74000000D03*
%TO.P,U1,21,FL__3*%
%TO.N,unconnected-(U1-FL__3-Pad21)*%
X197000000Y-74650000D03*
%TO.P,U1,22,GND__9*%
%TO.N,GND*%
X197000000Y-75300000D03*
%TO.P,U1,23,NCS*%
%TO.N,/IIM_CS1*%
X197000000Y-75950000D03*
D35*
%TO.P,U1,24,SCLK*%
%TO.N,/IIM_SCLK1*%
X197000000Y-76600000D03*
D36*
%TO.P,U1,25,EXP*%
%TO.N,unconnected-(U1-EXP-Pad25)*%
X194550000Y-74975000D03*
%TD*%
D37*
%TO.P,CIIM_2,1*%
%TO.N,+3V3*%
X198400000Y-73920000D03*
%TO.P,CIIM_2,2*%
%TO.N,GND*%
X198400000Y-74880000D03*
%TD*%
D38*
%TO.P,CADXL_2,1*%
%TO.N,+3V3*%
X212050000Y-65000000D03*
%TO.P,CADXL_2,2*%
%TO.N,GND*%
X213950000Y-65000000D03*
%TD*%
D21*
%TO.P,CIIM_3,1*%
%TO.N,+3V3*%
X190680000Y-73400000D03*
%TO.P,CIIM_3,2*%
%TO.N,GND*%
X189720000Y-73400000D03*
%TD*%
%TO.P,C13,1*%
%TO.N,+3V3*%
X194900000Y-86500000D03*
%TO.P,C13,2*%
%TO.N,GND*%
X193940000Y-86500000D03*
%TD*%
D20*
%TO.P,R7,1*%
%TO.N,+3V3*%
X178300000Y-93275000D03*
%TO.P,R7,2*%
%TO.N,/SD_DAT1*%
X178300000Y-95100000D03*
%TD*%
D18*
%TO.P,C9,1*%
%TO.N,+3V3*%
X205240000Y-86600000D03*
%TO.P,C9,2*%
%TO.N,GND*%
X206200000Y-86600000D03*
%TD*%
%TO.P,C7,1*%
%TO.N,+1V1*%
X205240000Y-85600000D03*
%TO.P,C7,2*%
%TO.N,GND*%
X206200000Y-85600000D03*
%TD*%
D39*
%TO.P,CXB_2,1*%
%TO.N,+3V3*%
X154150000Y-92800000D03*
%TO.P,CXB_2,2*%
%TO.N,GND*%
X155700000Y-92800000D03*
%TD*%
%TO.P,CXB_1,1*%
%TO.N,+3V3*%
X154143391Y-94396604D03*
%TO.P,CXB_1,2*%
%TO.N,GND*%
X155693391Y-94396604D03*
%TD*%
D19*
%TO.P,CBAR_1,1*%
%TO.N,+3V3*%
X200200000Y-72280000D03*
%TO.P,CBAR_1,2*%
%TO.N,GND*%
X200200000Y-71320000D03*
%TD*%
D21*
%TO.P,CFLASH_1,1*%
%TO.N,+3V3*%
X208600000Y-86300000D03*
%TO.P,CFLASH_1,2*%
%TO.N,GND*%
X207640000Y-86300000D03*
%TD*%
D18*
%TO.P,C12,1*%
%TO.N,+3V3*%
X205240000Y-89600000D03*
%TO.P,C12,2*%
%TO.N,GND*%
X206200000Y-89600000D03*
%TD*%
D37*
%TO.P,CIIM_4,1*%
%TO.N,+3V3*%
X190800000Y-75920000D03*
%TO.P,CIIM_4,2*%
%TO.N,GND*%
X190800000Y-76880000D03*
%TD*%
D40*
%TO.N,VBUS*%
X212700000Y-89200000D03*
X203800000Y-96000000D03*
%TO.N,/SD_DAT0*%
X178200000Y-97600000D03*
X187200000Y-94200000D03*
%TO.N,GND*%
X220120000Y-93117500D03*
X219120000Y-93617500D03*
X214925000Y-68270000D03*
X219095000Y-68210000D03*
X202600000Y-65400000D03*
X206800000Y-86200000D03*
X211030000Y-98287500D03*
X198800000Y-75800000D03*
X157000000Y-93600000D03*
X182600000Y-91000000D03*
X189800000Y-77000000D03*
X206600000Y-68600000D03*
X219120000Y-92617500D03*
X200600000Y-70400000D03*
X204200000Y-91800000D03*
X206380000Y-76157500D03*
X195200000Y-84000000D03*
X190800000Y-86600000D03*
X219120000Y-90617500D03*
X220120000Y-90117500D03*
X212030000Y-98287500D03*
X220120000Y-91117500D03*
X219120000Y-91617500D03*
X199550000Y-93170000D03*
X213530000Y-99287500D03*
X194600000Y-71000000D03*
X188600000Y-75200000D03*
X207200000Y-88600000D03*
X202000000Y-77600000D03*
X214030000Y-98287500D03*
X220120000Y-92117500D03*
X212530000Y-99287500D03*
X211530000Y-99287500D03*
X214530000Y-99287500D03*
X213030000Y-98287500D03*
%TO.N,/SD_CLK*%
X180500000Y-97600000D03*
%TO.N,/SD_CMD*%
X183400000Y-97800000D03*
X189000000Y-95100000D03*
%TO.N,/SD_DAT1*%
X177100000Y-97600000D03*
%TO.N,/IIM_CS1*%
X198000000Y-76000000D03*
%TO.N,/IIM_MOSI1*%
X196200000Y-81300000D03*
%TO.N,/IIM_SCLK1*%
X198000000Y-76600000D03*
%TO.N,/IIM_MISO1*%
X198700000Y-81700000D03*
%TO.N,/UART_Rx0*%
X195700000Y-89007108D03*
%TO.N,+3V3*%
X194200000Y-79000000D03*
X208110000Y-92487500D03*
X212825000Y-67150000D03*
X204500000Y-88900000D03*
X181800000Y-100000000D03*
X208110000Y-95487500D03*
X209110000Y-94987500D03*
X203200000Y-78500000D03*
X195653554Y-86480000D03*
X209620000Y-86300000D03*
X208110000Y-93487500D03*
X192600000Y-80800000D03*
X204500000Y-86600000D03*
X208110000Y-91487500D03*
X178200000Y-91000000D03*
X201200000Y-72000000D03*
X208110000Y-94487500D03*
X199300000Y-81700000D03*
X203200000Y-91800000D03*
X198400000Y-72600000D03*
X189853554Y-76253554D03*
X190200000Y-88099000D03*
D41*
X186900000Y-80600000D03*
D40*
X209110000Y-93987500D03*
X209110000Y-92987500D03*
X180800000Y-82400000D03*
X190600000Y-72400000D03*
X209110000Y-91987500D03*
X209110000Y-90987500D03*
X180400000Y-91000000D03*
X204500000Y-89600000D03*
X200150000Y-92200000D03*
%TO.N,+1V1*%
X195656349Y-87108310D03*
X204500000Y-86000000D03*
X204500000Y-88000000D03*
%TO.N,/SWCLK*%
X197500000Y-87000000D03*
%TO.N,/SWDIO*%
X197500000Y-87700000D03*
%TO.N,/UART_Tx0*%
X194700000Y-89300000D03*
%TO.N,/RP_SCL1*%
X200280000Y-77787500D03*
%TO.N,/RP_SDA1*%
X200670000Y-79877500D03*
%TD*%
D42*
%TO.N,VBUS*%
X203800000Y-93800000D02*
X208400000Y-89200000D01*
X208400000Y-89200000D02*
X212700000Y-89200000D01*
X203800000Y-96000000D02*
X203800000Y-93800000D01*
%TO.N,/SD_DAT0*%
X181400000Y-94200000D02*
X187200000Y-94200000D01*
X178200000Y-97600000D02*
X178900000Y-97600000D01*
X180500000Y-96000000D02*
X180500000Y-95100000D01*
X180500000Y-95100000D02*
X181400000Y-94200000D01*
X178900000Y-97600000D02*
X180500000Y-96000000D01*
%TO.N,GND*%
X206800000Y-86200000D02*
X206400000Y-86600000D01*
X202750000Y-73900000D02*
X202750000Y-72350000D01*
X206200000Y-89600000D02*
X206200000Y-89200000D01*
X195525000Y-71725000D02*
X195525000Y-72525000D01*
D43*
X155693391Y-93600000D02*
X156200000Y-93600000D01*
D44*
X193940000Y-86500000D02*
X193940000Y-87700000D01*
D42*
X206400000Y-88200000D02*
X206400000Y-88400000D01*
D43*
X156200000Y-93600000D02*
X157000000Y-93600000D01*
D42*
X200200000Y-70800000D02*
X200600000Y-70400000D01*
X193024999Y-78400000D02*
X192600000Y-78400000D01*
X198800000Y-77400000D02*
X198800000Y-75800000D01*
X195525000Y-78275000D02*
X195525000Y-77425000D01*
X206400000Y-88400000D02*
X206200000Y-88600000D01*
X194875000Y-71475000D02*
X194800000Y-71400000D01*
X190800000Y-76880000D02*
X189920000Y-76880000D01*
X194600000Y-71400000D02*
X194800000Y-71400000D01*
X192100000Y-77900000D02*
X192100000Y-76600000D01*
X208320000Y-64120000D02*
X208700000Y-64500000D01*
X191400000Y-76600000D02*
X192100000Y-76600000D01*
X201720000Y-71320000D02*
X200200000Y-71320000D01*
X206400000Y-89000000D02*
X206600000Y-88800000D01*
X194875000Y-72525000D02*
X194875000Y-71475000D01*
X205795000Y-64120000D02*
X205837500Y-64162500D01*
X206200000Y-87600000D02*
X206200000Y-88000000D01*
X189720000Y-74600000D02*
X188800000Y-74600000D01*
D43*
X155693391Y-93093391D02*
X156200000Y-93600000D01*
D42*
X194200000Y-71400000D02*
X194600000Y-71400000D01*
X203880000Y-64120000D02*
X202600000Y-65400000D01*
X205400000Y-64120000D02*
X208320000Y-64120000D01*
X204000000Y-64120000D02*
X205400000Y-64120000D01*
D43*
X155693391Y-92806609D02*
X155693391Y-93093391D01*
D42*
X194225000Y-78175000D02*
X194225000Y-77425000D01*
X206200000Y-87600000D02*
X206200000Y-89600000D01*
X188600000Y-74000000D02*
X188600000Y-74800000D01*
X206200000Y-88600000D02*
X206800000Y-88600000D01*
X207437500Y-64162500D02*
X207900000Y-64625001D01*
X206800000Y-86200000D02*
X207540000Y-86200000D01*
X206400000Y-86600000D02*
X206200000Y-86600000D01*
X194000000Y-78400000D02*
X194225000Y-78175000D01*
X197980000Y-75300000D02*
X197000000Y-75300000D01*
X204000000Y-64120000D02*
X203880000Y-64120000D01*
X194600000Y-71400000D02*
X194600000Y-71000000D01*
X194225000Y-71425000D02*
X194200000Y-71400000D01*
X193575000Y-71825000D02*
X194000000Y-71400000D01*
X206600000Y-88800000D02*
X206600000Y-88400000D01*
X194800000Y-71400000D02*
X195200000Y-71400000D01*
X213950000Y-67295000D02*
X214925000Y-68270000D01*
X206300000Y-67100000D02*
X206300000Y-68300000D01*
X206600000Y-88400000D02*
X206800000Y-88600000D01*
X195400000Y-78400000D02*
X195525000Y-78275000D01*
X206300000Y-68300000D02*
X206600000Y-68600000D01*
X189720000Y-73400000D02*
X189200000Y-73400000D01*
X198400000Y-74880000D02*
X198400000Y-75400000D01*
D43*
X155693391Y-94106609D02*
X156200000Y-93600000D01*
D42*
X198400000Y-75400000D02*
X198800000Y-75800000D01*
X206600000Y-88800000D02*
X206800000Y-88600000D01*
X194600000Y-78400000D02*
X195400000Y-78400000D01*
X191120000Y-76880000D02*
X191400000Y-76600000D01*
X208700000Y-64500000D02*
X208700000Y-65100000D01*
X206400000Y-88200000D02*
X206600000Y-88400000D01*
X193575000Y-77849999D02*
X193024999Y-78400000D01*
X206400000Y-88800000D02*
X206600000Y-88800000D01*
X206600000Y-88600000D02*
X206400000Y-88400000D01*
X194600000Y-78400000D02*
X194875000Y-78125000D01*
X194000000Y-78400000D02*
X194600000Y-78400000D01*
X198400000Y-74880000D02*
X197980000Y-75300000D01*
X202750000Y-72350000D02*
X201720000Y-71320000D01*
X193575000Y-72525000D02*
X193575000Y-71825000D01*
X206400000Y-88800000D02*
X206400000Y-89000000D01*
X206200000Y-88000000D02*
X206400000Y-88200000D01*
X206200000Y-85600000D02*
X206800000Y-86200000D01*
X193575000Y-77425000D02*
X193575000Y-77849999D01*
D44*
X182800000Y-91200000D02*
X182600000Y-91000000D01*
D42*
X206200000Y-88600000D02*
X206400000Y-88800000D01*
X206300000Y-64625001D02*
X205837500Y-64162500D01*
X190800000Y-76880000D02*
X191120000Y-76880000D01*
X194875000Y-78125000D02*
X194875000Y-77425000D01*
X206800000Y-88600000D02*
X207200000Y-88600000D01*
X213950000Y-65000000D02*
X213950000Y-67295000D01*
D43*
X155700000Y-92800000D02*
X155693391Y-92806609D01*
D42*
X202720000Y-77600000D02*
X202000000Y-77600000D01*
X199300000Y-80040000D02*
X199300000Y-77900000D01*
D43*
X155693391Y-94396604D02*
X155693391Y-93600000D01*
D42*
X200200000Y-71320000D02*
X200200000Y-70800000D01*
X189920000Y-76880000D02*
X189800000Y-77000000D01*
X206200000Y-89200000D02*
X206400000Y-89000000D01*
X207900000Y-64625001D02*
X207900000Y-65100000D01*
X190800000Y-86600000D02*
X190900000Y-86500000D01*
D44*
X182800000Y-93275000D02*
X182800000Y-91200000D01*
D42*
X194225000Y-72525000D02*
X194225000Y-71425000D01*
X207540000Y-86200000D02*
X207640000Y-86300000D01*
X205400000Y-64120000D02*
X205795000Y-64120000D01*
X190900000Y-86500000D02*
X193940000Y-86500000D01*
D43*
X155693391Y-94396604D02*
X155693391Y-94106609D01*
X155693391Y-93600000D02*
X155693391Y-92806609D01*
D42*
X188800000Y-74600000D02*
X188600000Y-74800000D01*
X194000000Y-71400000D02*
X194200000Y-71400000D01*
X188600000Y-74800000D02*
X188600000Y-75200000D01*
X199300000Y-77900000D02*
X198800000Y-77400000D01*
X206300000Y-65100000D02*
X206300000Y-64625001D01*
X193024999Y-78400000D02*
X194000000Y-78400000D01*
X189200000Y-73400000D02*
X188600000Y-74000000D01*
X192600000Y-78400000D02*
X192100000Y-77900000D01*
X206600000Y-88800000D02*
X206600000Y-88600000D01*
X195200000Y-71400000D02*
X195525000Y-71725000D01*
%TO.N,/SD_CLK*%
X181800000Y-97600000D02*
X182800000Y-96600000D01*
X182800000Y-96600000D02*
X182800000Y-95100000D01*
X180500000Y-97600000D02*
X181800000Y-97600000D01*
%TO.N,/SD_CMD*%
X185800000Y-97800000D02*
X183400000Y-97800000D01*
X189000000Y-95100000D02*
X188500000Y-95100000D01*
X188500000Y-95100000D02*
X185800000Y-97800000D01*
%TO.N,/SD_DAT1*%
X178200000Y-95200000D02*
X178300000Y-95100000D01*
X177100000Y-97600000D02*
X178200000Y-96500000D01*
X178200000Y-96500000D02*
X178200000Y-95200000D01*
%TO.N,unconnected-(U1-EXP-Pad25)*%
X195475000Y-75350000D02*
X194825000Y-75350000D01*
%TO.N,Net-(U1-REGOUT)*%
X192050000Y-74600000D02*
X192100000Y-74650000D01*
X190680000Y-74600000D02*
X192050000Y-74600000D01*
%TO.N,/IIM_CS1*%
X197050000Y-76000000D02*
X197000000Y-75950000D01*
X198000000Y-76000000D02*
X197050000Y-76000000D01*
%TO.N,/IIM_MOSI1*%
X196200000Y-77450000D02*
X196175000Y-77425000D01*
X196200000Y-81300000D02*
X196200000Y-77450000D01*
%TO.N,/IIM_SCLK1*%
X198000000Y-76600000D02*
X197000000Y-76600000D01*
%TO.N,/IIM_MISO1*%
X190100000Y-75300000D02*
X192100000Y-75300000D01*
X189000000Y-78900000D02*
X189000000Y-76400000D01*
X196708521Y-81500000D02*
X196407521Y-81801000D01*
X198500000Y-81500000D02*
X196708521Y-81500000D01*
X189000000Y-76400000D02*
X190100000Y-75300000D01*
X191901000Y-81801000D02*
X189000000Y-78900000D01*
X196407521Y-81801000D02*
X191901000Y-81801000D01*
X198700000Y-81700000D02*
X198500000Y-81500000D01*
%TO.N,/UART_Rx0*%
X164051000Y-88599000D02*
X156250000Y-96400000D01*
X195291892Y-88599000D02*
X164051000Y-88599000D01*
X195700000Y-89007108D02*
X195291892Y-88599000D01*
%TO.N,+3V3*%
X204000000Y-76100000D02*
X204500000Y-76100000D01*
X205500000Y-65100000D02*
X204020000Y-65100000D01*
X204700000Y-73900000D02*
X204000000Y-73900000D01*
X203680000Y-78020000D02*
X203200000Y-78500000D01*
X191280000Y-74000000D02*
X192100000Y-74000000D01*
D45*
X154200000Y-92850000D02*
X154150000Y-92800000D01*
D42*
X196175000Y-71825000D02*
X196400000Y-71600000D01*
X190680000Y-73400000D02*
X190680000Y-72480000D01*
X205240000Y-88600000D02*
X205240000Y-88560000D01*
X208600000Y-86300000D02*
X209620000Y-86300000D01*
X203920000Y-65080000D02*
X197400000Y-71600000D01*
X195633554Y-86500000D02*
X195653554Y-86480000D01*
X204020000Y-65100000D02*
X204000000Y-65080000D01*
X204500000Y-76100000D02*
X205000000Y-75600000D01*
X212825000Y-67150000D02*
X212050000Y-66375000D01*
X196400000Y-71600000D02*
X197400000Y-71600000D01*
X205240000Y-86600000D02*
X204500000Y-86600000D01*
X199300000Y-81700000D02*
X199300000Y-81180000D01*
X190800000Y-75920000D02*
X190187108Y-75920000D01*
X203680000Y-77600000D02*
X204000000Y-77280000D01*
X212050000Y-65000000D02*
X209600000Y-65000000D01*
D44*
X178300000Y-93275000D02*
X178300000Y-91100000D01*
D42*
X203680000Y-77600000D02*
X203680000Y-78020000D01*
D45*
X154250000Y-96400000D02*
X154200000Y-96350000D01*
D42*
X198320000Y-74000000D02*
X198400000Y-73920000D01*
D45*
X154150000Y-84150000D02*
X157700000Y-80600000D01*
D42*
X204000000Y-65080000D02*
X203920000Y-65080000D01*
X190680000Y-73400000D02*
X191280000Y-74000000D01*
D45*
X154150000Y-92800000D02*
X154150000Y-84150000D01*
D42*
X200920000Y-72280000D02*
X201200000Y-72000000D01*
X200250000Y-72800000D02*
X200250000Y-72330000D01*
X200250000Y-73900000D02*
X200250000Y-72800000D01*
X200200000Y-72280000D02*
X200920000Y-72280000D01*
D44*
X180500000Y-91100000D02*
X180400000Y-91000000D01*
D42*
X205240000Y-88600000D02*
X204800000Y-88600000D01*
X204800000Y-88600000D02*
X204500000Y-88900000D01*
X190800000Y-75920000D02*
X192070000Y-75920000D01*
X197000000Y-74000000D02*
X198320000Y-74000000D01*
X209600000Y-65000000D02*
X209500000Y-65100000D01*
X205000000Y-74200000D02*
X204700000Y-73900000D01*
X200250000Y-72800000D02*
X201200000Y-72800000D01*
X197800000Y-71600000D02*
X198400000Y-72200000D01*
X198400000Y-72200000D02*
X198400000Y-72600000D01*
D44*
X180500000Y-93275000D02*
X180500000Y-91100000D01*
D42*
X205000000Y-75600000D02*
X205000000Y-74200000D01*
D45*
X154200000Y-96350000D02*
X154200000Y-92850000D01*
X157700000Y-80600000D02*
X186900000Y-80600000D01*
D42*
X212050000Y-66375000D02*
X212050000Y-65000000D01*
X200250000Y-72330000D02*
X200200000Y-72280000D01*
X196175000Y-72525000D02*
X196175000Y-71825000D01*
X190187108Y-75920000D02*
X189853554Y-76253554D01*
D44*
X178300000Y-91100000D02*
X178200000Y-91000000D01*
D42*
X194900000Y-86500000D02*
X195633554Y-86500000D01*
X201200000Y-72800000D02*
X201500000Y-73100000D01*
X204000000Y-77280000D02*
X204000000Y-76100000D01*
X197400000Y-71600000D02*
X197800000Y-71600000D01*
X192070000Y-75920000D02*
X192100000Y-75950000D01*
X201500000Y-73100000D02*
X201500000Y-73900000D01*
X205240000Y-88560000D02*
X205300000Y-88500000D01*
X204500000Y-89600000D02*
X205240000Y-89600000D01*
X198400000Y-73920000D02*
X198400000Y-72600000D01*
D44*
X205175604Y-88535604D02*
X205240000Y-88600000D01*
D42*
X190680000Y-72480000D02*
X190600000Y-72400000D01*
X209500000Y-66100000D02*
X209500000Y-65100000D01*
%TO.N,+1V1*%
X204900000Y-87600000D02*
X204500000Y-88000000D01*
X197600000Y-84200000D02*
X198000000Y-83800000D01*
X203000000Y-88000000D02*
X202600000Y-87600000D01*
X202600000Y-84200000D02*
X202600000Y-85400000D01*
X204500000Y-86000000D02*
X204840000Y-86000000D01*
X202600000Y-87600000D02*
X202600000Y-85400000D01*
X202600000Y-85600000D02*
X203000000Y-86000000D01*
X202200000Y-83800000D02*
X202600000Y-84200000D01*
X204500000Y-88000000D02*
X203000000Y-88000000D01*
X203000000Y-86000000D02*
X204500000Y-86000000D01*
X197600000Y-85242075D02*
X197600000Y-84200000D01*
X195656349Y-87108310D02*
X195733765Y-87108310D01*
X198000000Y-83800000D02*
X202200000Y-83800000D01*
X205240000Y-87600000D02*
X204900000Y-87600000D01*
X195491690Y-87108310D02*
X194900000Y-87700000D01*
X204840000Y-86000000D02*
X205240000Y-85600000D01*
X195656349Y-87108310D02*
X195491690Y-87108310D01*
X202600000Y-85400000D02*
X202600000Y-85600000D01*
X195733765Y-87108310D02*
X197600000Y-85242075D01*
%TO.N,/SWCLK*%
X197100000Y-98700000D02*
X197100000Y-92500000D01*
X197100000Y-92500000D02*
X198001000Y-91599000D01*
X198001000Y-87492479D02*
X197508521Y-87000000D01*
X197508521Y-87000000D02*
X197500000Y-87000000D01*
X198001000Y-91599000D02*
X198001000Y-87492479D01*
%TO.N,/SWDIO*%
X197500000Y-88700000D02*
X194560000Y-91640000D01*
X194600000Y-98660000D02*
X194560000Y-98700000D01*
X197500000Y-87700000D02*
X197500000Y-88700000D01*
X194560000Y-98045000D02*
X194515000Y-98000000D01*
X194560000Y-91640000D02*
X194560000Y-98700000D01*
%TO.N,/UART_Tx0*%
X194100000Y-89900000D02*
X164750000Y-89900000D01*
X164750000Y-89900000D02*
X158250000Y-96400000D01*
X194700000Y-89300000D02*
X194100000Y-89900000D01*
%TO.N,/RP_SCL1*%
X199200000Y-70600000D02*
X203700000Y-66100000D01*
X200280000Y-76130000D02*
X200250000Y-76100000D01*
X200280000Y-77787500D02*
X200280000Y-76130000D01*
X199200000Y-75500000D02*
X199200000Y-70600000D01*
X200250000Y-76100000D02*
X199800000Y-76100000D01*
X199800000Y-76100000D02*
X199200000Y-75500000D01*
X203700000Y-66100000D02*
X205500000Y-66100000D01*
%TO.N,/RP_SDA1*%
X205400000Y-67914968D02*
X205400000Y-77200000D01*
X205500000Y-67814968D02*
X205500000Y-67100000D01*
X205400000Y-77200000D02*
X203600000Y-79000000D01*
X205500000Y-67100000D02*
X205699000Y-67299000D01*
X205400000Y-67914968D02*
X205500000Y-67814968D01*
X203600000Y-79000000D02*
X201547500Y-79000000D01*
X201547500Y-79000000D02*
X201500000Y-79047500D01*
X200670000Y-79877500D02*
X201500000Y-79047500D01*
X201500000Y-79047500D02*
X201500000Y-79000000D01*
X201500000Y-79000000D02*
X201500000Y-76100000D01*
%TD*%
M02*
