%TF.GenerationSoftware,KiCad,Pcbnew,9.0.6*%
%TF.CreationDate,2026-02-22T02:31:48-03:00*%
%TF.ProjectId,flight_comp_srad-2026,666c6967-6874-45f6-936f-6d705f737261,rev?*%
%TF.SameCoordinates,Original*%
%TF.FileFunction,Copper,L2,Inr*%
%TF.FilePolarity,Positive*%
%FSLAX46Y46*%
G04 Gerber Fmt 4.6, Leading zero omitted, Abs format (unit mm)*
G04 Created by KiCad (PCBNEW 9.0.6) date 2026-02-22 02:31:48*
%MOMM*%
%LPD*%
G01*
G04 APERTURE LIST*
%TA.AperFunction,ComponentPad*%
%ADD10R,2.000000X2.000000*%
%TD*%
%TA.AperFunction,ComponentPad*%
%ADD11C,2.000000*%
%TD*%
%TA.AperFunction,HeatsinkPad*%
%ADD12C,0.600000*%
%TD*%
%TA.AperFunction,HeatsinkPad*%
%ADD13O,1.700000X1.350000*%
%TD*%
%TA.AperFunction,HeatsinkPad*%
%ADD14O,1.500000X1.100000*%
%TD*%
%TA.AperFunction,ComponentPad*%
%ADD15R,1.400000X1.400000*%
%TD*%
%TA.AperFunction,ComponentPad*%
%ADD16C,1.400000*%
%TD*%
%TA.AperFunction,ViaPad*%
%ADD17C,0.600000*%
%TD*%
%TA.AperFunction,ViaPad*%
%ADD18C,1.000000*%
%TD*%
G04 APERTURE END LIST*
D10*
%TO.N,GND*%
%TO.C,J2*%
X191320000Y-98700000D03*
D11*
%TO.N,/SWDIO*%
X193860000Y-98700000D03*
%TO.N,/SWCLK*%
X196400000Y-98700000D03*
%TD*%
D12*
%TO.N,GND*%
%TO.C,U3*%
X201420000Y-84830000D03*
X198720000Y-84830000D03*
X201420000Y-87530000D03*
X198720000Y-87530000D03*
%TD*%
D10*
%TO.N,+3V3*%
%TO.C,bruh*%
X202970785Y-68400000D03*
D11*
%TO.N,Net-(Q1-C)*%
X197970785Y-68400000D03*
%TD*%
D13*
%TO.N,GND*%
%TO.C,J3*%
X219405000Y-80355000D03*
D14*
X216405000Y-80045000D03*
X216405000Y-75205000D03*
D13*
X219405000Y-74895000D03*
%TD*%
D10*
%TO.N,VBUS*%
%TO.C,J5*%
X217680000Y-84430000D03*
D11*
%TO.N,GND*%
X217680000Y-86970000D03*
%TD*%
D15*
%TO.N,+3V3*%
%TO.C,U7*%
X154250000Y-96400000D03*
D16*
%TO.N,/UART_Rx0*%
X156250000Y-96400000D03*
%TO.N,/UART_Tx0*%
X158250000Y-96400000D03*
%TO.N,unconnected-(U7-DIO12{slash}SPI_MISO-Pad4)*%
X160250000Y-96400000D03*
%TO.N,unconnected-(U7-~{RESET}-Pad5)*%
X162250000Y-96400000D03*
%TO.N,unconnected-(U7-DIO10{slash}PWM0-Pad6)*%
X164250000Y-96400000D03*
%TO.N,unconnected-(U7-DIO11{slash}PWM1-Pad7)*%
X166250000Y-96400000D03*
%TO.N,N/C*%
X168250000Y-96400000D03*
%TO.N,unconnected-(U7-NDTR{slash}SLEEP_RQ{slash}DIO8-Pad9)*%
X170250000Y-96400000D03*
%TO.N,GND*%
X172250000Y-96400000D03*
%TO.N,unconnected-(U7-DIO4{slash}SPI_MOSI-Pad11)*%
X172250000Y-74400000D03*
%TO.N,unconnected-(U7-NCTS{slash}DIO7-Pad12)*%
X170250000Y-74400000D03*
%TO.N,unconnected-(U7-ON_NSLEEP{slash}DIO9-Pad13)*%
X168250000Y-74400000D03*
%TO.N,GND*%
X166250000Y-74400000D03*
%TO.N,unconnected-(U7-ASSOCIATE{slash}DIO5-Pad15)*%
X164250000Y-74400000D03*
%TO.N,unconnected-(U7-NRTS{slash}DIO6-Pad16)*%
X162250000Y-74400000D03*
%TO.N,unconnected-(U7-AD3{slash}DIO3{slash}SPI_NSSEL-Pad17)*%
X160250000Y-74400000D03*
%TO.N,unconnected-(U7-AD2{slash}DIO2{slash}SPI_CLK-Pad18)*%
X158250000Y-74400000D03*
%TO.N,unconnected-(U7-AD1{slash}DIO1{slash}SPI_NATTN-Pad19)*%
X156250000Y-74400000D03*
%TO.N,unconnected-(U7-AD0{slash}DIO0-Pad20)*%
X154250000Y-74400000D03*
%TD*%
D17*
%TO.N,/SWCLK*%
X198537443Y-88686063D03*
%TO.N,VBUS*%
X218750000Y-89640000D03*
X203400000Y-92400000D03*
X217350000Y-89640000D03*
X212720000Y-91110000D03*
X220150000Y-89640000D03*
X205800000Y-92400000D03*
X219450000Y-90840000D03*
X218050000Y-90840000D03*
%TO.N,/SD_DAT0*%
X178200000Y-97600000D03*
X187575000Y-95100000D03*
%TO.N,GND*%
X162920000Y-99340000D03*
X202000000Y-95100000D03*
D18*
X157225000Y-92950000D03*
D17*
X214200000Y-96600000D03*
X214925000Y-68270000D03*
X177670000Y-61410000D03*
X211725000Y-96575000D03*
X192980000Y-61410000D03*
X183425000Y-64950000D03*
X173420000Y-99340000D03*
X152160000Y-94360000D03*
X174625000Y-98475000D03*
X189600000Y-65100000D03*
X188600000Y-65100000D03*
X212480000Y-61410000D03*
X158170000Y-61410000D03*
X194480000Y-61410000D03*
X161420000Y-99340000D03*
X208125000Y-79600000D03*
X198554517Y-75555931D03*
X174670000Y-61410000D03*
X158050000Y-64380000D03*
X214300000Y-62930000D03*
X165920000Y-99340000D03*
X191480000Y-61410000D03*
X190400000Y-61450000D03*
X207800000Y-95150000D03*
X152160000Y-71860000D03*
X203480000Y-61410000D03*
X174375000Y-89325000D03*
X214200000Y-99000000D03*
X206525000Y-76150000D03*
X190410000Y-64400000D03*
X167170000Y-61410000D03*
X190430000Y-62480000D03*
X200600000Y-70400000D03*
X209480000Y-61410000D03*
X204980000Y-61410000D03*
X157520000Y-65580000D03*
X207100000Y-80950000D03*
X181450000Y-62970000D03*
X188150000Y-87525000D03*
X207050000Y-86180000D03*
X176170000Y-61410000D03*
X203610000Y-79240000D03*
X211775000Y-95125000D03*
X170420000Y-99340000D03*
X209875000Y-95125000D03*
X152160000Y-89860000D03*
X187025000Y-92625000D03*
X220090000Y-67470000D03*
X156570000Y-66660000D03*
X183350000Y-61425000D03*
X184525000Y-61225000D03*
X152160000Y-68860000D03*
X197480000Y-61410000D03*
X210075000Y-79600000D03*
X183920000Y-63900000D03*
X152160000Y-91360000D03*
X215070000Y-65890000D03*
X152160000Y-95860000D03*
X183350000Y-67400000D03*
X152160000Y-73360000D03*
X213980000Y-61410000D03*
X155420000Y-99340000D03*
X198980000Y-61410000D03*
X152160000Y-88360000D03*
D18*
X160375000Y-92975000D03*
D17*
X152160000Y-85360000D03*
X190420000Y-63470000D03*
X152160000Y-76360000D03*
X164420000Y-99340000D03*
X217350000Y-67370000D03*
X168920000Y-99340000D03*
X180670000Y-61410000D03*
X186600000Y-84875000D03*
X193720000Y-87100000D03*
X164170000Y-61410000D03*
X206480000Y-61410000D03*
X165670000Y-61410000D03*
X186100000Y-92625000D03*
X159670000Y-61410000D03*
X179611765Y-97736765D03*
X152160000Y-92860000D03*
X200480000Y-61410000D03*
X189875000Y-76875000D03*
X174625000Y-97250000D03*
X216150000Y-66840000D03*
X207980000Y-61410000D03*
X201980000Y-61410000D03*
X194600000Y-71500000D03*
X190125000Y-94100000D03*
X158140000Y-62890000D03*
X153610000Y-67430000D03*
X208925000Y-80950000D03*
X161170000Y-61410000D03*
X162670000Y-61410000D03*
X174375000Y-86675000D03*
X188925000Y-74000000D03*
X153920000Y-99340000D03*
X181190000Y-66970000D03*
X159920000Y-99340000D03*
X173170000Y-61410000D03*
X152160000Y-67360000D03*
X197647148Y-96951381D03*
X152160000Y-70360000D03*
X179170000Y-61410000D03*
X214200000Y-97800000D03*
X218840000Y-67460000D03*
X152160000Y-77860000D03*
X207020000Y-89070000D03*
X187560000Y-65100000D03*
X156920000Y-99340000D03*
X174350000Y-87925000D03*
X202000000Y-77600000D03*
X201950000Y-65350000D03*
X152160000Y-74860000D03*
X152150000Y-97500000D03*
X192425000Y-83775000D03*
X152160000Y-79360000D03*
X185630000Y-61060000D03*
X158420000Y-99340000D03*
X199300000Y-78725000D03*
X210980000Y-61410000D03*
X184900000Y-63650000D03*
X195800000Y-93375000D03*
X209075000Y-78175000D03*
X181125000Y-64275000D03*
X209825000Y-96575000D03*
X168670000Y-61410000D03*
X214200000Y-95400000D03*
X195980000Y-61410000D03*
X152160000Y-86860000D03*
X170170000Y-61410000D03*
X171920000Y-99340000D03*
X210850000Y-78175000D03*
X152420000Y-99340000D03*
X204000000Y-62750000D03*
X167420000Y-99340000D03*
X152160000Y-80860000D03*
X155170000Y-67240000D03*
X152160000Y-82360000D03*
X186450000Y-65100000D03*
X206310000Y-68280000D03*
D18*
X158775000Y-92975000D03*
D17*
X185600000Y-64500000D03*
X183360000Y-66170000D03*
X182125000Y-61850000D03*
X152160000Y-83860000D03*
X207750000Y-96600000D03*
X171670000Y-61410000D03*
X210700000Y-80950000D03*
%TO.N,/SD_CLK*%
X180500000Y-97600000D03*
%TO.N,/SD_DAT1*%
X177100000Y-97600000D03*
X187575000Y-96000000D03*
X177125000Y-99800000D03*
%TO.N,/RP_SCL0*%
X175675000Y-71775000D03*
X188900000Y-80875000D03*
%TO.N,/RP_SDA0*%
X176750000Y-71775000D03*
X188975000Y-79925000D03*
%TO.N,/IIM_CS1*%
X198295756Y-77960992D03*
%TO.N,/IIM_MOSI1*%
X196200000Y-80875000D03*
%TO.N,/IIM_SCLK1*%
X197625000Y-77525000D03*
%TO.N,/IIM_MISO1*%
X198870000Y-81450000D03*
%TO.N,/UART_Rx0*%
X195850000Y-89425000D03*
%TO.N,+3V3*%
X196175000Y-71250000D03*
D18*
X153250000Y-91375000D03*
D17*
X180000000Y-82875000D03*
D18*
X156750000Y-91400000D03*
D17*
X211300000Y-89600000D03*
X203200000Y-78500000D03*
X187775000Y-91350000D03*
X202900000Y-91000000D03*
X186750000Y-91325000D03*
X198425000Y-72950000D03*
X213500000Y-88000000D03*
X200825000Y-95925000D03*
X203075000Y-65375000D03*
X213400000Y-86900000D03*
X204510000Y-86580000D03*
X195075000Y-79050000D03*
X211300000Y-90400000D03*
X199605354Y-81765048D03*
X210950000Y-85580000D03*
X201200000Y-72000000D03*
X181520000Y-97490000D03*
X180650000Y-83400000D03*
X181225000Y-82875000D03*
X195363235Y-86863235D03*
X199270000Y-91300000D03*
X211300000Y-91425000D03*
X189875000Y-75925000D03*
X190000000Y-89300000D03*
X192875000Y-79050000D03*
X204357067Y-88600000D03*
X211300000Y-88800000D03*
D18*
X154975000Y-91400000D03*
D17*
X212300000Y-88000000D03*
X211540000Y-66335000D03*
X190680000Y-72480000D03*
X190400000Y-78100000D03*
%TO.N,+1V1*%
X197600000Y-86350000D03*
X202600000Y-85980000D03*
%TO.N,/XIN*%
X195480541Y-85268008D03*
%TO.N,/XOUT*%
X195441214Y-86067042D03*
X188800000Y-85400000D03*
%TO.N,/SWDIO*%
X197570000Y-88230000D03*
%TO.N,/UART_Tx0*%
X195200000Y-89925000D03*
%TO.N,/ADC_BAT*%
X201800000Y-90700000D03*
%TO.N,/RP_SCL1*%
X200280000Y-77787500D03*
%TO.N,/RP_SDA1*%
X201500000Y-79850000D03*
%TO.N,NR_Reg*%
X206774971Y-90374971D03*
%TO.N,Net-(Q1-B)*%
X202025000Y-63450000D03*
X208700000Y-69700000D03*
%TO.N,/BUZZER*%
X202070000Y-81705411D03*
%TD*%
%TA.AperFunction,Conductor*%
%TO.N,GND*%
G36*
X220832539Y-60750185D02*
G01*
X220878294Y-60802989D01*
X220889500Y-60854500D01*
X220889500Y-100105500D01*
X220869815Y-100172539D01*
X220817011Y-100218294D01*
X220765500Y-100229500D01*
X177669730Y-100229500D01*
X177602691Y-100209815D01*
X177556936Y-100157011D01*
X177546992Y-100087853D01*
X177562344Y-100043499D01*
X177591389Y-99993191D01*
X177591388Y-99993191D01*
X177591392Y-99993186D01*
X177625500Y-99865892D01*
X177625500Y-99734108D01*
X177591392Y-99606814D01*
X177525500Y-99492686D01*
X177432314Y-99399500D01*
X177375250Y-99366554D01*
X177318187Y-99333608D01*
X177254539Y-99316554D01*
X177190892Y-99299500D01*
X177059108Y-99299500D01*
X176931812Y-99333608D01*
X176817686Y-99399500D01*
X176817683Y-99399502D01*
X176724502Y-99492683D01*
X176724500Y-99492686D01*
X176658608Y-99606812D01*
X176624500Y-99734108D01*
X176624500Y-99865891D01*
X176658609Y-99993188D01*
X176658610Y-99993191D01*
X176687656Y-100043499D01*
X176704130Y-100111399D01*
X176681278Y-100177426D01*
X176626357Y-100220617D01*
X176580270Y-100229500D01*
X151514500Y-100229500D01*
X151447461Y-100209815D01*
X151401706Y-100157011D01*
X151390500Y-100105500D01*
X151390500Y-98605513D01*
X192659500Y-98605513D01*
X192659500Y-98794486D01*
X192689059Y-98981118D01*
X192747454Y-99160836D01*
X192833240Y-99329199D01*
X192944310Y-99482073D01*
X193077927Y-99615690D01*
X193230801Y-99726760D01*
X193310347Y-99767290D01*
X193399163Y-99812545D01*
X193399165Y-99812545D01*
X193399168Y-99812547D01*
X193495497Y-99843846D01*
X193578881Y-99870940D01*
X193765514Y-99900500D01*
X193765519Y-99900500D01*
X193954486Y-99900500D01*
X194141118Y-99870940D01*
X194156660Y-99865890D01*
X194320832Y-99812547D01*
X194489199Y-99726760D01*
X194642073Y-99615690D01*
X194775690Y-99482073D01*
X194886760Y-99329199D01*
X194972547Y-99160832D01*
X195012069Y-99039195D01*
X195051507Y-98981521D01*
X195115866Y-98954323D01*
X195184712Y-98966238D01*
X195236188Y-99013482D01*
X195247931Y-99039196D01*
X195287454Y-99160836D01*
X195373240Y-99329199D01*
X195484310Y-99482073D01*
X195617927Y-99615690D01*
X195770801Y-99726760D01*
X195850347Y-99767290D01*
X195939163Y-99812545D01*
X195939165Y-99812545D01*
X195939168Y-99812547D01*
X196035497Y-99843846D01*
X196118881Y-99870940D01*
X196305514Y-99900500D01*
X196305519Y-99900500D01*
X196494486Y-99900500D01*
X196681118Y-99870940D01*
X196696660Y-99865890D01*
X196860832Y-99812547D01*
X197029199Y-99726760D01*
X197182073Y-99615690D01*
X197315690Y-99482073D01*
X197426760Y-99329199D01*
X197512547Y-99160832D01*
X197570940Y-98981118D01*
X197575184Y-98954323D01*
X197600500Y-98794486D01*
X197600500Y-98605513D01*
X197570940Y-98418881D01*
X197512545Y-98239163D01*
X197426759Y-98070800D01*
X197315690Y-97917927D01*
X197182073Y-97784310D01*
X197029199Y-97673240D01*
X197014774Y-97665890D01*
X196860836Y-97587454D01*
X196681118Y-97529059D01*
X196520878Y-97503680D01*
X196494486Y-97499500D01*
X196494481Y-97499500D01*
X196305519Y-97499500D01*
X196305514Y-97499500D01*
X196118881Y-97529059D01*
X195939163Y-97587454D01*
X195770800Y-97673240D01*
X195683579Y-97736610D01*
X195617927Y-97784310D01*
X195617925Y-97784312D01*
X195617924Y-97784312D01*
X195484312Y-97917924D01*
X195484312Y-97917925D01*
X195484310Y-97917927D01*
X195436610Y-97983579D01*
X195373240Y-98070800D01*
X195287454Y-98239163D01*
X195247931Y-98360803D01*
X195208493Y-98418478D01*
X195144134Y-98445676D01*
X195075288Y-98433761D01*
X195023812Y-98386516D01*
X195012069Y-98360803D01*
X194972545Y-98239163D01*
X194886759Y-98070800D01*
X194775690Y-97917927D01*
X194642073Y-97784310D01*
X194489199Y-97673240D01*
X194474774Y-97665890D01*
X194320836Y-97587454D01*
X194141118Y-97529059D01*
X193954486Y-97499500D01*
X193954481Y-97499500D01*
X193765519Y-97499500D01*
X193765514Y-97499500D01*
X193578881Y-97529059D01*
X193399163Y-97587454D01*
X193230800Y-97673240D01*
X193143579Y-97736610D01*
X193077927Y-97784310D01*
X193077925Y-97784312D01*
X193077924Y-97784312D01*
X192944312Y-97917924D01*
X192944312Y-97917925D01*
X192944310Y-97917927D01*
X192896610Y-97983579D01*
X192833240Y-98070800D01*
X192747454Y-98239163D01*
X192689059Y-98418881D01*
X192659500Y-98605513D01*
X151390500Y-98605513D01*
X151390500Y-97534108D01*
X176599500Y-97534108D01*
X176599500Y-97665891D01*
X176633608Y-97793187D01*
X176661923Y-97842229D01*
X176699500Y-97907314D01*
X176792686Y-98000500D01*
X176906814Y-98066392D01*
X177034108Y-98100500D01*
X177034110Y-98100500D01*
X177165890Y-98100500D01*
X177165892Y-98100500D01*
X177293186Y-98066392D01*
X177407314Y-98000500D01*
X177500500Y-97907314D01*
X177542613Y-97834371D01*
X177593180Y-97786156D01*
X177661787Y-97772933D01*
X177726652Y-97798901D01*
X177757386Y-97834371D01*
X177799500Y-97907314D01*
X177892686Y-98000500D01*
X178006814Y-98066392D01*
X178134108Y-98100500D01*
X178134110Y-98100500D01*
X178265890Y-98100500D01*
X178265892Y-98100500D01*
X178393186Y-98066392D01*
X178507314Y-98000500D01*
X178600500Y-97907314D01*
X178666392Y-97793186D01*
X178700500Y-97665892D01*
X178700500Y-97534108D01*
X179999500Y-97534108D01*
X179999500Y-97665891D01*
X180033608Y-97793187D01*
X180061923Y-97842229D01*
X180099500Y-97907314D01*
X180192686Y-98000500D01*
X180306814Y-98066392D01*
X180434108Y-98100500D01*
X180434110Y-98100500D01*
X180565890Y-98100500D01*
X180565892Y-98100500D01*
X180693186Y-98066392D01*
X180807314Y-98000500D01*
X180900500Y-97907314D01*
X180940124Y-97838682D01*
X180990688Y-97790470D01*
X181059295Y-97777246D01*
X181124160Y-97803214D01*
X181135190Y-97813004D01*
X181212686Y-97890500D01*
X181326814Y-97956392D01*
X181454108Y-97990500D01*
X181454110Y-97990500D01*
X181585890Y-97990500D01*
X181585892Y-97990500D01*
X181713186Y-97956392D01*
X181827314Y-97890500D01*
X181920500Y-97797314D01*
X181986392Y-97683186D01*
X182020500Y-97555892D01*
X182020500Y-97424108D01*
X182010090Y-97385258D01*
X216349500Y-97385258D01*
X216349500Y-97614741D01*
X216372636Y-97790470D01*
X216379452Y-97842238D01*
X216421858Y-98000500D01*
X216438842Y-98063887D01*
X216526650Y-98275876D01*
X216526657Y-98275890D01*
X216641392Y-98474617D01*
X216781081Y-98656661D01*
X216781089Y-98656670D01*
X216943330Y-98818911D01*
X216943338Y-98818918D01*
X217125382Y-98958607D01*
X217125385Y-98958608D01*
X217125388Y-98958611D01*
X217324112Y-99073344D01*
X217324117Y-99073346D01*
X217324123Y-99073349D01*
X217415480Y-99111190D01*
X217536113Y-99161158D01*
X217757762Y-99220548D01*
X217985266Y-99250500D01*
X217985273Y-99250500D01*
X218214727Y-99250500D01*
X218214734Y-99250500D01*
X218442238Y-99220548D01*
X218663887Y-99161158D01*
X218875888Y-99073344D01*
X219074612Y-98958611D01*
X219256661Y-98818919D01*
X219256665Y-98818914D01*
X219256670Y-98818911D01*
X219418911Y-98656670D01*
X219418914Y-98656665D01*
X219418919Y-98656661D01*
X219558611Y-98474612D01*
X219673344Y-98275888D01*
X219761158Y-98063887D01*
X219820548Y-97842238D01*
X219850500Y-97614734D01*
X219850500Y-97385266D01*
X219820548Y-97157762D01*
X219761158Y-96936113D01*
X219673344Y-96724112D01*
X219558611Y-96525388D01*
X219558608Y-96525385D01*
X219558607Y-96525382D01*
X219418918Y-96343338D01*
X219418911Y-96343330D01*
X219256670Y-96181089D01*
X219256661Y-96181081D01*
X219074617Y-96041392D01*
X218875890Y-95926657D01*
X218875876Y-95926650D01*
X218663887Y-95838842D01*
X218442238Y-95779452D01*
X218404215Y-95774446D01*
X218214741Y-95749500D01*
X218214734Y-95749500D01*
X217985266Y-95749500D01*
X217985258Y-95749500D01*
X217768715Y-95778009D01*
X217757762Y-95779452D01*
X217664076Y-95804554D01*
X217536112Y-95838842D01*
X217324123Y-95926650D01*
X217324109Y-95926657D01*
X217125382Y-96041392D01*
X216943338Y-96181081D01*
X216781081Y-96343338D01*
X216641392Y-96525382D01*
X216526657Y-96724109D01*
X216526650Y-96724123D01*
X216438842Y-96936112D01*
X216379453Y-97157759D01*
X216379451Y-97157770D01*
X216349500Y-97385258D01*
X182010090Y-97385258D01*
X181986392Y-97296814D01*
X181920500Y-97182686D01*
X181827314Y-97089500D01*
X181770250Y-97056554D01*
X181713187Y-97023608D01*
X181649539Y-97006554D01*
X181585892Y-96989500D01*
X181454108Y-96989500D01*
X181326812Y-97023608D01*
X181212686Y-97089500D01*
X181212683Y-97089502D01*
X181119502Y-97182683D01*
X181119500Y-97182686D01*
X181079877Y-97251315D01*
X181029309Y-97299530D01*
X180960702Y-97312752D01*
X180895838Y-97286784D01*
X180884809Y-97276995D01*
X180807316Y-97199502D01*
X180807314Y-97199500D01*
X180735017Y-97157759D01*
X180693187Y-97133608D01*
X180629539Y-97116554D01*
X180565892Y-97099500D01*
X180434108Y-97099500D01*
X180306812Y-97133608D01*
X180192686Y-97199500D01*
X180192683Y-97199502D01*
X180099502Y-97292683D01*
X180099500Y-97292686D01*
X180033608Y-97406812D01*
X179999500Y-97534108D01*
X178700500Y-97534108D01*
X178666392Y-97406814D01*
X178600500Y-97292686D01*
X178507314Y-97199500D01*
X178435017Y-97157759D01*
X178393187Y-97133608D01*
X178329539Y-97116554D01*
X178265892Y-97099500D01*
X178134108Y-97099500D01*
X178006812Y-97133608D01*
X177892686Y-97199500D01*
X177892683Y-97199502D01*
X177799502Y-97292683D01*
X177799500Y-97292686D01*
X177757387Y-97365628D01*
X177706820Y-97413843D01*
X177638212Y-97427065D01*
X177573348Y-97401097D01*
X177542613Y-97365628D01*
X177500500Y-97292686D01*
X177407314Y-97199500D01*
X177335017Y-97157759D01*
X177293187Y-97133608D01*
X177229539Y-97116554D01*
X177165892Y-97099500D01*
X177034108Y-97099500D01*
X176906812Y-97133608D01*
X176792686Y-97199500D01*
X176792683Y-97199502D01*
X176699502Y-97292683D01*
X176699500Y-97292686D01*
X176633608Y-97406812D01*
X176599500Y-97534108D01*
X151390500Y-97534108D01*
X151390500Y-95680247D01*
X153349500Y-95680247D01*
X153349500Y-97119752D01*
X153361131Y-97178229D01*
X153361132Y-97178230D01*
X153405447Y-97244552D01*
X153471769Y-97288867D01*
X153471770Y-97288868D01*
X153530247Y-97300499D01*
X153530250Y-97300500D01*
X153530252Y-97300500D01*
X154969750Y-97300500D01*
X154969751Y-97300499D01*
X154988289Y-97296812D01*
X155028229Y-97288868D01*
X155028229Y-97288867D01*
X155028231Y-97288867D01*
X155094552Y-97244552D01*
X155138867Y-97178231D01*
X155138867Y-97178229D01*
X155138868Y-97178229D01*
X155150499Y-97119752D01*
X155150500Y-97119750D01*
X155150500Y-96722080D01*
X155170185Y-96655041D01*
X155222989Y-96609286D01*
X155292147Y-96599342D01*
X155355703Y-96628367D01*
X155389061Y-96674628D01*
X155451983Y-96826541D01*
X155451990Y-96826553D01*
X155550535Y-96974034D01*
X155550538Y-96974038D01*
X155675961Y-97099461D01*
X155675965Y-97099464D01*
X155823446Y-97198009D01*
X155823459Y-97198016D01*
X155935809Y-97244552D01*
X155987334Y-97265894D01*
X155987336Y-97265894D01*
X155987341Y-97265896D01*
X156161304Y-97300499D01*
X156161307Y-97300500D01*
X156161309Y-97300500D01*
X156338693Y-97300500D01*
X156338694Y-97300499D01*
X156407646Y-97286784D01*
X156512658Y-97265896D01*
X156512661Y-97265894D01*
X156512666Y-97265894D01*
X156676547Y-97198013D01*
X156824035Y-97099464D01*
X156949464Y-96974035D01*
X157048013Y-96826547D01*
X157115894Y-96662666D01*
X157128383Y-96599882D01*
X157160768Y-96537971D01*
X157221483Y-96503397D01*
X157291253Y-96507136D01*
X157347925Y-96548003D01*
X157371617Y-96599882D01*
X157384103Y-96662658D01*
X157384106Y-96662667D01*
X157451983Y-96826540D01*
X157451990Y-96826553D01*
X157550535Y-96974034D01*
X157550538Y-96974038D01*
X157675961Y-97099461D01*
X157675965Y-97099464D01*
X157823446Y-97198009D01*
X157823459Y-97198016D01*
X157935809Y-97244552D01*
X157987334Y-97265894D01*
X157987336Y-97265894D01*
X157987341Y-97265896D01*
X158161304Y-97300499D01*
X158161307Y-97300500D01*
X158161309Y-97300500D01*
X158338693Y-97300500D01*
X158338694Y-97300499D01*
X158407646Y-97286784D01*
X158512658Y-97265896D01*
X158512661Y-97265894D01*
X158512666Y-97265894D01*
X158676547Y-97198013D01*
X158824035Y-97099464D01*
X158949464Y-96974035D01*
X159048013Y-96826547D01*
X159115894Y-96662666D01*
X159128383Y-96599882D01*
X159160768Y-96537971D01*
X159221483Y-96503397D01*
X159291253Y-96507136D01*
X159347925Y-96548003D01*
X159371617Y-96599882D01*
X159384103Y-96662658D01*
X159384106Y-96662667D01*
X159451983Y-96826540D01*
X159451990Y-96826553D01*
X159550535Y-96974034D01*
X159550538Y-96974038D01*
X159675961Y-97099461D01*
X159675965Y-97099464D01*
X159823446Y-97198009D01*
X159823459Y-97198016D01*
X159935809Y-97244552D01*
X159987334Y-97265894D01*
X159987336Y-97265894D01*
X159987341Y-97265896D01*
X160161304Y-97300499D01*
X160161307Y-97300500D01*
X160161309Y-97300500D01*
X160338693Y-97300500D01*
X160338694Y-97300499D01*
X160407646Y-97286784D01*
X160512658Y-97265896D01*
X160512661Y-97265894D01*
X160512666Y-97265894D01*
X160676547Y-97198013D01*
X160824035Y-97099464D01*
X160949464Y-96974035D01*
X161048013Y-96826547D01*
X161115894Y-96662666D01*
X161128383Y-96599882D01*
X161160768Y-96537971D01*
X161221483Y-96503397D01*
X161291253Y-96507136D01*
X161347925Y-96548003D01*
X161371617Y-96599882D01*
X161384103Y-96662658D01*
X161384106Y-96662667D01*
X161451983Y-96826540D01*
X161451990Y-96826553D01*
X161550535Y-96974034D01*
X161550538Y-96974038D01*
X161675961Y-97099461D01*
X161675965Y-97099464D01*
X161823446Y-97198009D01*
X161823459Y-97198016D01*
X161935809Y-97244552D01*
X161987334Y-97265894D01*
X161987336Y-97265894D01*
X161987341Y-97265896D01*
X162161304Y-97300499D01*
X162161307Y-97300500D01*
X162161309Y-97300500D01*
X162338693Y-97300500D01*
X162338694Y-97300499D01*
X162407646Y-97286784D01*
X162512658Y-97265896D01*
X162512661Y-97265894D01*
X162512666Y-97265894D01*
X162676547Y-97198013D01*
X162824035Y-97099464D01*
X162949464Y-96974035D01*
X163048013Y-96826547D01*
X163115894Y-96662666D01*
X163128383Y-96599882D01*
X163160768Y-96537971D01*
X163221483Y-96503397D01*
X163291253Y-96507136D01*
X163347925Y-96548003D01*
X163371617Y-96599882D01*
X163384103Y-96662658D01*
X163384106Y-96662667D01*
X163451983Y-96826540D01*
X163451990Y-96826553D01*
X163550535Y-96974034D01*
X163550538Y-96974038D01*
X163675961Y-97099461D01*
X163675965Y-97099464D01*
X163823446Y-97198009D01*
X163823459Y-97198016D01*
X163935809Y-97244552D01*
X163987334Y-97265894D01*
X163987336Y-97265894D01*
X163987341Y-97265896D01*
X164161304Y-97300499D01*
X164161307Y-97300500D01*
X164161309Y-97300500D01*
X164338693Y-97300500D01*
X164338694Y-97300499D01*
X164407646Y-97286784D01*
X164512658Y-97265896D01*
X164512661Y-97265894D01*
X164512666Y-97265894D01*
X164676547Y-97198013D01*
X164824035Y-97099464D01*
X164949464Y-96974035D01*
X165048013Y-96826547D01*
X165115894Y-96662666D01*
X165128383Y-96599882D01*
X165160768Y-96537971D01*
X165221483Y-96503397D01*
X165291253Y-96507136D01*
X165347925Y-96548003D01*
X165371617Y-96599882D01*
X165384103Y-96662658D01*
X165384106Y-96662667D01*
X165451983Y-96826540D01*
X165451990Y-96826553D01*
X165550535Y-96974034D01*
X165550538Y-96974038D01*
X165675961Y-97099461D01*
X165675965Y-97099464D01*
X165823446Y-97198009D01*
X165823459Y-97198016D01*
X165935809Y-97244552D01*
X165987334Y-97265894D01*
X165987336Y-97265894D01*
X165987341Y-97265896D01*
X166161304Y-97300499D01*
X166161307Y-97300500D01*
X166161309Y-97300500D01*
X166338693Y-97300500D01*
X166338694Y-97300499D01*
X166407646Y-97286784D01*
X166512658Y-97265896D01*
X166512661Y-97265894D01*
X166512666Y-97265894D01*
X166676547Y-97198013D01*
X166824035Y-97099464D01*
X166949464Y-96974035D01*
X167048013Y-96826547D01*
X167115894Y-96662666D01*
X167128383Y-96599882D01*
X167160768Y-96537971D01*
X167221483Y-96503397D01*
X167291253Y-96507136D01*
X167347925Y-96548003D01*
X167371617Y-96599882D01*
X167384103Y-96662658D01*
X167384106Y-96662667D01*
X167451983Y-96826540D01*
X167451990Y-96826553D01*
X167550535Y-96974034D01*
X167550538Y-96974038D01*
X167675961Y-97099461D01*
X167675965Y-97099464D01*
X167823446Y-97198009D01*
X167823459Y-97198016D01*
X167935809Y-97244552D01*
X167987334Y-97265894D01*
X167987336Y-97265894D01*
X167987341Y-97265896D01*
X168161304Y-97300499D01*
X168161307Y-97300500D01*
X168161309Y-97300500D01*
X168338693Y-97300500D01*
X168338694Y-97300499D01*
X168407646Y-97286784D01*
X168512658Y-97265896D01*
X168512661Y-97265894D01*
X168512666Y-97265894D01*
X168676547Y-97198013D01*
X168824035Y-97099464D01*
X168949464Y-96974035D01*
X169048013Y-96826547D01*
X169115894Y-96662666D01*
X169128383Y-96599882D01*
X169160768Y-96537971D01*
X169221483Y-96503397D01*
X169291253Y-96507136D01*
X169347925Y-96548003D01*
X169371617Y-96599882D01*
X169384103Y-96662658D01*
X169384106Y-96662667D01*
X169451983Y-96826540D01*
X169451990Y-96826553D01*
X169550535Y-96974034D01*
X169550538Y-96974038D01*
X169675961Y-97099461D01*
X169675965Y-97099464D01*
X169823446Y-97198009D01*
X169823459Y-97198016D01*
X169935809Y-97244552D01*
X169987334Y-97265894D01*
X169987336Y-97265894D01*
X169987341Y-97265896D01*
X170161304Y-97300499D01*
X170161307Y-97300500D01*
X170161309Y-97300500D01*
X170338693Y-97300500D01*
X170338694Y-97300499D01*
X170407646Y-97286784D01*
X170512658Y-97265896D01*
X170512661Y-97265894D01*
X170512666Y-97265894D01*
X170676547Y-97198013D01*
X170824035Y-97099464D01*
X170949464Y-96974035D01*
X171048013Y-96826547D01*
X171115894Y-96662666D01*
X171150500Y-96488691D01*
X171150500Y-96311309D01*
X171150500Y-96311306D01*
X171150499Y-96311304D01*
X171115896Y-96137341D01*
X171115893Y-96137332D01*
X171048016Y-95973459D01*
X171048009Y-95973446D01*
X170949464Y-95825965D01*
X170949461Y-95825961D01*
X170824038Y-95700538D01*
X170824034Y-95700535D01*
X170676553Y-95601990D01*
X170676540Y-95601983D01*
X170512667Y-95534106D01*
X170512658Y-95534103D01*
X170338694Y-95499500D01*
X170338691Y-95499500D01*
X170161309Y-95499500D01*
X170161306Y-95499500D01*
X169987341Y-95534103D01*
X169987332Y-95534106D01*
X169823459Y-95601983D01*
X169823446Y-95601990D01*
X169675965Y-95700535D01*
X169675961Y-95700538D01*
X169550538Y-95825961D01*
X169550535Y-95825965D01*
X169451990Y-95973446D01*
X169451983Y-95973459D01*
X169384106Y-96137332D01*
X169384104Y-96137340D01*
X169371617Y-96200118D01*
X169339232Y-96262028D01*
X169278516Y-96296603D01*
X169208747Y-96292863D01*
X169152075Y-96251996D01*
X169128383Y-96200118D01*
X169115895Y-96137340D01*
X169115894Y-96137334D01*
X169076153Y-96041389D01*
X169048016Y-95973459D01*
X169048009Y-95973446D01*
X168949464Y-95825965D01*
X168949461Y-95825961D01*
X168824038Y-95700538D01*
X168824034Y-95700535D01*
X168676553Y-95601990D01*
X168676540Y-95601983D01*
X168512667Y-95534106D01*
X168512658Y-95534103D01*
X168338694Y-95499500D01*
X168338691Y-95499500D01*
X168161309Y-95499500D01*
X168161306Y-95499500D01*
X167987341Y-95534103D01*
X167987332Y-95534106D01*
X167823459Y-95601983D01*
X167823446Y-95601990D01*
X167675965Y-95700535D01*
X167675961Y-95700538D01*
X167550538Y-95825961D01*
X167550535Y-95825965D01*
X167451990Y-95973446D01*
X167451983Y-95973459D01*
X167384106Y-96137332D01*
X167384104Y-96137340D01*
X167371617Y-96200118D01*
X167339232Y-96262028D01*
X167278516Y-96296603D01*
X167208747Y-96292863D01*
X167152075Y-96251996D01*
X167128383Y-96200118D01*
X167115895Y-96137340D01*
X167115894Y-96137334D01*
X167076153Y-96041389D01*
X167048016Y-95973459D01*
X167048009Y-95973446D01*
X166949464Y-95825965D01*
X166949461Y-95825961D01*
X166824038Y-95700538D01*
X166824034Y-95700535D01*
X166676553Y-95601990D01*
X166676540Y-95601983D01*
X166512667Y-95534106D01*
X166512658Y-95534103D01*
X166338694Y-95499500D01*
X166338691Y-95499500D01*
X166161309Y-95499500D01*
X166161306Y-95499500D01*
X165987341Y-95534103D01*
X165987332Y-95534106D01*
X165823459Y-95601983D01*
X165823446Y-95601990D01*
X165675965Y-95700535D01*
X165675961Y-95700538D01*
X165550538Y-95825961D01*
X165550535Y-95825965D01*
X165451990Y-95973446D01*
X165451983Y-95973459D01*
X165384106Y-96137332D01*
X165384104Y-96137340D01*
X165371617Y-96200118D01*
X165339232Y-96262028D01*
X165278516Y-96296603D01*
X165208747Y-96292863D01*
X165152075Y-96251996D01*
X165128383Y-96200118D01*
X165115895Y-96137340D01*
X165115894Y-96137334D01*
X165076153Y-96041389D01*
X165048016Y-95973459D01*
X165048009Y-95973446D01*
X164949464Y-95825965D01*
X164949461Y-95825961D01*
X164824038Y-95700538D01*
X164824034Y-95700535D01*
X164676553Y-95601990D01*
X164676540Y-95601983D01*
X164512667Y-95534106D01*
X164512658Y-95534103D01*
X164338694Y-95499500D01*
X164338691Y-95499500D01*
X164161309Y-95499500D01*
X164161306Y-95499500D01*
X163987341Y-95534103D01*
X163987332Y-95534106D01*
X163823459Y-95601983D01*
X163823446Y-95601990D01*
X163675965Y-95700535D01*
X163675961Y-95700538D01*
X163550538Y-95825961D01*
X163550535Y-95825965D01*
X163451990Y-95973446D01*
X163451983Y-95973459D01*
X163384106Y-96137332D01*
X163384104Y-96137340D01*
X163371617Y-96200118D01*
X163339232Y-96262028D01*
X163278516Y-96296603D01*
X163208747Y-96292863D01*
X163152075Y-96251996D01*
X163128383Y-96200118D01*
X163115895Y-96137340D01*
X163115894Y-96137334D01*
X163076153Y-96041389D01*
X163048016Y-95973459D01*
X163048009Y-95973446D01*
X162949464Y-95825965D01*
X162949461Y-95825961D01*
X162824038Y-95700538D01*
X162824034Y-95700535D01*
X162676553Y-95601990D01*
X162676540Y-95601983D01*
X162512667Y-95534106D01*
X162512658Y-95534103D01*
X162338694Y-95499500D01*
X162338691Y-95499500D01*
X162161309Y-95499500D01*
X162161306Y-95499500D01*
X161987341Y-95534103D01*
X161987332Y-95534106D01*
X161823459Y-95601983D01*
X161823446Y-95601990D01*
X161675965Y-95700535D01*
X161675961Y-95700538D01*
X161550538Y-95825961D01*
X161550535Y-95825965D01*
X161451990Y-95973446D01*
X161451983Y-95973459D01*
X161384106Y-96137332D01*
X161384104Y-96137340D01*
X161371617Y-96200118D01*
X161339232Y-96262028D01*
X161278516Y-96296603D01*
X161208747Y-96292863D01*
X161152075Y-96251996D01*
X161128383Y-96200118D01*
X161115895Y-96137340D01*
X161115894Y-96137334D01*
X161076153Y-96041389D01*
X161048016Y-95973459D01*
X161048009Y-95973446D01*
X160949464Y-95825965D01*
X160949461Y-95825961D01*
X160824038Y-95700538D01*
X160824034Y-95700535D01*
X160676553Y-95601990D01*
X160676540Y-95601983D01*
X160512667Y-95534106D01*
X160512658Y-95534103D01*
X160338694Y-95499500D01*
X160338691Y-95499500D01*
X160161309Y-95499500D01*
X160161306Y-95499500D01*
X159987341Y-95534103D01*
X159987332Y-95534106D01*
X159823459Y-95601983D01*
X159823446Y-95601990D01*
X159675965Y-95700535D01*
X159675961Y-95700538D01*
X159550538Y-95825961D01*
X159550535Y-95825965D01*
X159451990Y-95973446D01*
X159451983Y-95973459D01*
X159384106Y-96137332D01*
X159384104Y-96137340D01*
X159371617Y-96200118D01*
X159339232Y-96262028D01*
X159278516Y-96296603D01*
X159208747Y-96292863D01*
X159152075Y-96251996D01*
X159128383Y-96200118D01*
X159115895Y-96137340D01*
X159115894Y-96137334D01*
X159076153Y-96041389D01*
X159048016Y-95973459D01*
X159048009Y-95973446D01*
X158949464Y-95825965D01*
X158949461Y-95825961D01*
X158824038Y-95700538D01*
X158824034Y-95700535D01*
X158676553Y-95601990D01*
X158676540Y-95601983D01*
X158512667Y-95534106D01*
X158512658Y-95534103D01*
X158338694Y-95499500D01*
X158338691Y-95499500D01*
X158161309Y-95499500D01*
X158161306Y-95499500D01*
X157987341Y-95534103D01*
X157987332Y-95534106D01*
X157823459Y-95601983D01*
X157823446Y-95601990D01*
X157675965Y-95700535D01*
X157675961Y-95700538D01*
X157550538Y-95825961D01*
X157550535Y-95825965D01*
X157451990Y-95973446D01*
X157451983Y-95973459D01*
X157384106Y-96137332D01*
X157384104Y-96137340D01*
X157371617Y-96200118D01*
X157339232Y-96262028D01*
X157278516Y-96296603D01*
X157208747Y-96292863D01*
X157152075Y-96251996D01*
X157128383Y-96200118D01*
X157115895Y-96137340D01*
X157115894Y-96137334D01*
X157076153Y-96041389D01*
X157048016Y-95973459D01*
X157048009Y-95973446D01*
X156949464Y-95825965D01*
X156949461Y-95825961D01*
X156824038Y-95700538D01*
X156824034Y-95700535D01*
X156676553Y-95601990D01*
X156676540Y-95601983D01*
X156512667Y-95534106D01*
X156512658Y-95534103D01*
X156338694Y-95499500D01*
X156338691Y-95499500D01*
X156161309Y-95499500D01*
X156161306Y-95499500D01*
X155987341Y-95534103D01*
X155987332Y-95534106D01*
X155823459Y-95601983D01*
X155823446Y-95601990D01*
X155675965Y-95700535D01*
X155675961Y-95700538D01*
X155550538Y-95825961D01*
X155550535Y-95825965D01*
X155451990Y-95973446D01*
X155451983Y-95973459D01*
X155389061Y-96125371D01*
X155345221Y-96179775D01*
X155278927Y-96201840D01*
X155211227Y-96184561D01*
X155163616Y-96133424D01*
X155150500Y-96077919D01*
X155150500Y-95680249D01*
X155150499Y-95680247D01*
X155138868Y-95621770D01*
X155138867Y-95621769D01*
X155094552Y-95555447D01*
X155028230Y-95511132D01*
X155028229Y-95511131D01*
X154969752Y-95499500D01*
X154969748Y-95499500D01*
X153530252Y-95499500D01*
X153530247Y-95499500D01*
X153471770Y-95511131D01*
X153471769Y-95511132D01*
X153405447Y-95555447D01*
X153361132Y-95621769D01*
X153361131Y-95621770D01*
X153349500Y-95680247D01*
X151390500Y-95680247D01*
X151390500Y-95034108D01*
X187074500Y-95034108D01*
X187074500Y-95165891D01*
X187108608Y-95293187D01*
X187141554Y-95350250D01*
X187174500Y-95407314D01*
X187174502Y-95407316D01*
X187229505Y-95462319D01*
X187262990Y-95523642D01*
X187258006Y-95593334D01*
X187229505Y-95637681D01*
X187174502Y-95692683D01*
X187174500Y-95692686D01*
X187108608Y-95806812D01*
X187074500Y-95934108D01*
X187074500Y-96065891D01*
X187108608Y-96193187D01*
X187131200Y-96232316D01*
X187174500Y-96307314D01*
X187267686Y-96400500D01*
X187381814Y-96466392D01*
X187509108Y-96500500D01*
X187509110Y-96500500D01*
X187640890Y-96500500D01*
X187640892Y-96500500D01*
X187768186Y-96466392D01*
X187882314Y-96400500D01*
X187975500Y-96307314D01*
X188041392Y-96193186D01*
X188075500Y-96065892D01*
X188075500Y-95934108D01*
X188055404Y-95859108D01*
X200324500Y-95859108D01*
X200324500Y-95990891D01*
X200358608Y-96118187D01*
X200369667Y-96137341D01*
X200424500Y-96232314D01*
X200517686Y-96325500D01*
X200631814Y-96391392D01*
X200759108Y-96425500D01*
X200759110Y-96425500D01*
X200890890Y-96425500D01*
X200890892Y-96425500D01*
X201018186Y-96391392D01*
X201132314Y-96325500D01*
X201225500Y-96232314D01*
X201291392Y-96118186D01*
X201325500Y-95990892D01*
X201325500Y-95859108D01*
X201291392Y-95731814D01*
X201225500Y-95617686D01*
X201132314Y-95524500D01*
X201075250Y-95491554D01*
X201018187Y-95458608D01*
X200954539Y-95441554D01*
X200890892Y-95424500D01*
X200759108Y-95424500D01*
X200631812Y-95458608D01*
X200517686Y-95524500D01*
X200517683Y-95524502D01*
X200424502Y-95617683D01*
X200424500Y-95617686D01*
X200358608Y-95731812D01*
X200324500Y-95859108D01*
X188055404Y-95859108D01*
X188041392Y-95806814D01*
X187975500Y-95692686D01*
X187920495Y-95637681D01*
X187887010Y-95576358D01*
X187891994Y-95506666D01*
X187920495Y-95462319D01*
X187924206Y-95458608D01*
X187975500Y-95407314D01*
X188041392Y-95293186D01*
X188075500Y-95165892D01*
X188075500Y-95034108D01*
X188041392Y-94906814D01*
X187975500Y-94792686D01*
X187882314Y-94699500D01*
X187825250Y-94666554D01*
X187768187Y-94633608D01*
X187704539Y-94616554D01*
X187640892Y-94599500D01*
X187509108Y-94599500D01*
X187381812Y-94633608D01*
X187267686Y-94699500D01*
X187267683Y-94699502D01*
X187174502Y-94792683D01*
X187174500Y-94792686D01*
X187108608Y-94906812D01*
X187074500Y-95034108D01*
X151390500Y-95034108D01*
X151390500Y-92334108D01*
X202899500Y-92334108D01*
X202899500Y-92465891D01*
X202933608Y-92593187D01*
X202966554Y-92650250D01*
X202999500Y-92707314D01*
X203092686Y-92800500D01*
X203206814Y-92866392D01*
X203334108Y-92900500D01*
X203334110Y-92900500D01*
X203465890Y-92900500D01*
X203465892Y-92900500D01*
X203593186Y-92866392D01*
X203707314Y-92800500D01*
X203800500Y-92707314D01*
X203866392Y-92593186D01*
X203900500Y-92465892D01*
X203900500Y-92334108D01*
X205299500Y-92334108D01*
X205299500Y-92465891D01*
X205333608Y-92593187D01*
X205366554Y-92650250D01*
X205399500Y-92707314D01*
X205492686Y-92800500D01*
X205606814Y-92866392D01*
X205734108Y-92900500D01*
X205734110Y-92900500D01*
X205865890Y-92900500D01*
X205865892Y-92900500D01*
X205993186Y-92866392D01*
X206107314Y-92800500D01*
X206200500Y-92707314D01*
X206266392Y-92593186D01*
X206300500Y-92465892D01*
X206300500Y-92334108D01*
X206266392Y-92206814D01*
X206200500Y-92092686D01*
X206107314Y-91999500D01*
X206050250Y-91966554D01*
X205993187Y-91933608D01*
X205929539Y-91916554D01*
X205865892Y-91899500D01*
X205734108Y-91899500D01*
X205606812Y-91933608D01*
X205492686Y-91999500D01*
X205492683Y-91999502D01*
X205399502Y-92092683D01*
X205399500Y-92092686D01*
X205333608Y-92206812D01*
X205299500Y-92334108D01*
X203900500Y-92334108D01*
X203866392Y-92206814D01*
X203800500Y-92092686D01*
X203707314Y-91999500D01*
X203650250Y-91966554D01*
X203593187Y-91933608D01*
X203529539Y-91916554D01*
X203465892Y-91899500D01*
X203334108Y-91899500D01*
X203206812Y-91933608D01*
X203092686Y-91999500D01*
X203092683Y-91999502D01*
X202999502Y-92092683D01*
X202999500Y-92092686D01*
X202933608Y-92206812D01*
X202899500Y-92334108D01*
X151390500Y-92334108D01*
X151390500Y-91443995D01*
X152549499Y-91443995D01*
X152576418Y-91579322D01*
X152576421Y-91579332D01*
X152629221Y-91706804D01*
X152629228Y-91706817D01*
X152705885Y-91821541D01*
X152705888Y-91821545D01*
X152803454Y-91919111D01*
X152803458Y-91919114D01*
X152918182Y-91995771D01*
X152918195Y-91995778D01*
X153045667Y-92048578D01*
X153045672Y-92048580D01*
X153045676Y-92048580D01*
X153045677Y-92048581D01*
X153181004Y-92075500D01*
X153181007Y-92075500D01*
X153318995Y-92075500D01*
X153410041Y-92057389D01*
X153454328Y-92048580D01*
X153581811Y-91995775D01*
X153696542Y-91919114D01*
X153794114Y-91821542D01*
X153870775Y-91706811D01*
X153923580Y-91579328D01*
X153937271Y-91510499D01*
X153945527Y-91468995D01*
X154274499Y-91468995D01*
X154301418Y-91604322D01*
X154301421Y-91604332D01*
X154354221Y-91731804D01*
X154354228Y-91731817D01*
X154430885Y-91846541D01*
X154430888Y-91846545D01*
X154528454Y-91944111D01*
X154528458Y-91944114D01*
X154643182Y-92020771D01*
X154643195Y-92020778D01*
X154770667Y-92073578D01*
X154770672Y-92073580D01*
X154770676Y-92073580D01*
X154770677Y-92073581D01*
X154906004Y-92100500D01*
X154906007Y-92100500D01*
X155043995Y-92100500D01*
X155135041Y-92082389D01*
X155179328Y-92073580D01*
X155306811Y-92020775D01*
X155421542Y-91944114D01*
X155519114Y-91846542D01*
X155595775Y-91731811D01*
X155648580Y-91604328D01*
X155669233Y-91500499D01*
X155675500Y-91468995D01*
X156049499Y-91468995D01*
X156076418Y-91604322D01*
X156076421Y-91604332D01*
X156129221Y-91731804D01*
X156129228Y-91731817D01*
X156205885Y-91846541D01*
X156205888Y-91846545D01*
X156303454Y-91944111D01*
X156303458Y-91944114D01*
X156418182Y-92020771D01*
X156418195Y-92020778D01*
X156545667Y-92073578D01*
X156545672Y-92073580D01*
X156545676Y-92073580D01*
X156545677Y-92073581D01*
X156681004Y-92100500D01*
X156681007Y-92100500D01*
X156818995Y-92100500D01*
X156910041Y-92082389D01*
X156954328Y-92073580D01*
X157081811Y-92020775D01*
X157196542Y-91944114D01*
X157294114Y-91846542D01*
X157370775Y-91731811D01*
X157423580Y-91604328D01*
X157444233Y-91500499D01*
X157450500Y-91468995D01*
X157450500Y-91331004D01*
X157439394Y-91275173D01*
X157439394Y-91275172D01*
X157436198Y-91259108D01*
X186249500Y-91259108D01*
X186249500Y-91390892D01*
X186256580Y-91417314D01*
X186283608Y-91518187D01*
X186298042Y-91543187D01*
X186349500Y-91632314D01*
X186442686Y-91725500D01*
X186556814Y-91791392D01*
X186684108Y-91825500D01*
X186684110Y-91825500D01*
X186815890Y-91825500D01*
X186815892Y-91825500D01*
X186943186Y-91791392D01*
X187057314Y-91725500D01*
X187150500Y-91632314D01*
X187150504Y-91632306D01*
X187155448Y-91625865D01*
X187157632Y-91627541D01*
X187198459Y-91588610D01*
X187267066Y-91575385D01*
X187331931Y-91601351D01*
X187362670Y-91636824D01*
X187374500Y-91657314D01*
X187467686Y-91750500D01*
X187581814Y-91816392D01*
X187709108Y-91850500D01*
X187709110Y-91850500D01*
X187840890Y-91850500D01*
X187840892Y-91850500D01*
X187968186Y-91816392D01*
X188082314Y-91750500D01*
X188175500Y-91657314D01*
X188241392Y-91543186D01*
X188275500Y-91415892D01*
X188275500Y-91284108D01*
X188262103Y-91234108D01*
X198769500Y-91234108D01*
X198769500Y-91365892D01*
X198776199Y-91390892D01*
X198803608Y-91493187D01*
X198818042Y-91518187D01*
X198869500Y-91607314D01*
X198962686Y-91700500D01*
X199076814Y-91766392D01*
X199204108Y-91800500D01*
X199204110Y-91800500D01*
X199335890Y-91800500D01*
X199335892Y-91800500D01*
X199463186Y-91766392D01*
X199577314Y-91700500D01*
X199670500Y-91607314D01*
X199736392Y-91493186D01*
X199770500Y-91365892D01*
X199770500Y-91234108D01*
X199736392Y-91106814D01*
X199670500Y-90992686D01*
X199577314Y-90899500D01*
X199490712Y-90849500D01*
X199463187Y-90833608D01*
X199363188Y-90806814D01*
X199335892Y-90799500D01*
X199204108Y-90799500D01*
X199076812Y-90833608D01*
X198962686Y-90899500D01*
X198962683Y-90899502D01*
X198869502Y-90992683D01*
X198869500Y-90992686D01*
X198803608Y-91106812D01*
X198779800Y-91195667D01*
X198769500Y-91234108D01*
X188262103Y-91234108D01*
X188241392Y-91156814D01*
X188175500Y-91042686D01*
X188082314Y-90949500D01*
X188006783Y-90905892D01*
X187968187Y-90883608D01*
X187903934Y-90866392D01*
X187840892Y-90849500D01*
X187709108Y-90849500D01*
X187581812Y-90883608D01*
X187467686Y-90949500D01*
X187467683Y-90949502D01*
X187374502Y-91042683D01*
X187369552Y-91049135D01*
X187367374Y-91047463D01*
X187326488Y-91086415D01*
X187257876Y-91099608D01*
X187193022Y-91073612D01*
X187162330Y-91038176D01*
X187150500Y-91017686D01*
X187057314Y-90924500D01*
X186986487Y-90883608D01*
X186943187Y-90858608D01*
X186878822Y-90841362D01*
X186815892Y-90824500D01*
X186684108Y-90824500D01*
X186556812Y-90858608D01*
X186442686Y-90924500D01*
X186442683Y-90924502D01*
X186349502Y-91017683D01*
X186349500Y-91017686D01*
X186283608Y-91131812D01*
X186265204Y-91200499D01*
X186249500Y-91259108D01*
X157436198Y-91259108D01*
X157423581Y-91195679D01*
X157423581Y-91195677D01*
X157423580Y-91195672D01*
X157415387Y-91175892D01*
X157370778Y-91068195D01*
X157370771Y-91068182D01*
X157294114Y-90953458D01*
X157294111Y-90953454D01*
X157196545Y-90855888D01*
X157196541Y-90855885D01*
X157081817Y-90779228D01*
X157081804Y-90779221D01*
X156988422Y-90740542D01*
X156954328Y-90726420D01*
X156954322Y-90726418D01*
X156818995Y-90699500D01*
X156818993Y-90699500D01*
X156681007Y-90699500D01*
X156681005Y-90699500D01*
X156545677Y-90726418D01*
X156545667Y-90726421D01*
X156418195Y-90779221D01*
X156418182Y-90779228D01*
X156303458Y-90855885D01*
X156303454Y-90855888D01*
X156205888Y-90953454D01*
X156205885Y-90953458D01*
X156129228Y-91068182D01*
X156129221Y-91068195D01*
X156076421Y-91195667D01*
X156076418Y-91195677D01*
X156049500Y-91331004D01*
X156049500Y-91331007D01*
X156049500Y-91468993D01*
X156049500Y-91468995D01*
X156049499Y-91468995D01*
X155675500Y-91468995D01*
X155675500Y-91331004D01*
X155648581Y-91195677D01*
X155648580Y-91195676D01*
X155648580Y-91195672D01*
X155640387Y-91175892D01*
X155595778Y-91068195D01*
X155595771Y-91068182D01*
X155519114Y-90953458D01*
X155519111Y-90953454D01*
X155421545Y-90855888D01*
X155421541Y-90855885D01*
X155306817Y-90779228D01*
X155306804Y-90779221D01*
X155179332Y-90726421D01*
X155179322Y-90726418D01*
X155043995Y-90699500D01*
X155043993Y-90699500D01*
X154906007Y-90699500D01*
X154906005Y-90699500D01*
X154770677Y-90726418D01*
X154770667Y-90726421D01*
X154643195Y-90779221D01*
X154643182Y-90779228D01*
X154528458Y-90855885D01*
X154528454Y-90855888D01*
X154430888Y-90953454D01*
X154430885Y-90953458D01*
X154354228Y-91068182D01*
X154354221Y-91068195D01*
X154301421Y-91195667D01*
X154301418Y-91195677D01*
X154274500Y-91331004D01*
X154274500Y-91331007D01*
X154274500Y-91468993D01*
X154274500Y-91468995D01*
X154274499Y-91468995D01*
X153945527Y-91468995D01*
X153950500Y-91443995D01*
X153950500Y-91306004D01*
X153923581Y-91170677D01*
X153923580Y-91170676D01*
X153923580Y-91170672D01*
X153913905Y-91147314D01*
X153870778Y-91043195D01*
X153870771Y-91043182D01*
X153794114Y-90928458D01*
X153794111Y-90928454D01*
X153696545Y-90830888D01*
X153696541Y-90830885D01*
X153581817Y-90754228D01*
X153581804Y-90754221D01*
X153454332Y-90701421D01*
X153454322Y-90701418D01*
X153318995Y-90674500D01*
X153318993Y-90674500D01*
X153181007Y-90674500D01*
X153181005Y-90674500D01*
X153045677Y-90701418D01*
X153045667Y-90701421D01*
X152918195Y-90754221D01*
X152918182Y-90754228D01*
X152803458Y-90830885D01*
X152803454Y-90830888D01*
X152705888Y-90928454D01*
X152705885Y-90928458D01*
X152629228Y-91043182D01*
X152629221Y-91043195D01*
X152576421Y-91170667D01*
X152576418Y-91170677D01*
X152549500Y-91306004D01*
X152549500Y-91306007D01*
X152549500Y-91443993D01*
X152549500Y-91443995D01*
X152549499Y-91443995D01*
X151390500Y-91443995D01*
X151390500Y-90634108D01*
X201299500Y-90634108D01*
X201299500Y-90765892D01*
X201308505Y-90799500D01*
X201333608Y-90893187D01*
X201362504Y-90943235D01*
X201399500Y-91007314D01*
X201492686Y-91100500D01*
X201606814Y-91166392D01*
X201734108Y-91200500D01*
X201734110Y-91200500D01*
X201865890Y-91200500D01*
X201865892Y-91200500D01*
X201993186Y-91166392D01*
X202107314Y-91100500D01*
X202193202Y-91014611D01*
X202254521Y-90981129D01*
X202324213Y-90986113D01*
X202380147Y-91027984D01*
X202400655Y-91070202D01*
X202433608Y-91193187D01*
X202460923Y-91240497D01*
X202499500Y-91307314D01*
X202592686Y-91400500D01*
X202706814Y-91466392D01*
X202834108Y-91500500D01*
X202834110Y-91500500D01*
X202965890Y-91500500D01*
X202965892Y-91500500D01*
X203093186Y-91466392D01*
X203207314Y-91400500D01*
X203300500Y-91307314D01*
X203366392Y-91193186D01*
X203400500Y-91065892D01*
X203400500Y-90934108D01*
X203366392Y-90806814D01*
X203364010Y-90802689D01*
X203347509Y-90774108D01*
X203300500Y-90692686D01*
X203207314Y-90599500D01*
X203150250Y-90566554D01*
X203093187Y-90533608D01*
X202993188Y-90506814D01*
X202965892Y-90499500D01*
X202834108Y-90499500D01*
X202706812Y-90533608D01*
X202592686Y-90599500D01*
X202506800Y-90685386D01*
X202445476Y-90718870D01*
X202375785Y-90713886D01*
X202319851Y-90672014D01*
X202299345Y-90629801D01*
X202266392Y-90506814D01*
X202200500Y-90392686D01*
X202116893Y-90309079D01*
X206274471Y-90309079D01*
X206274471Y-90440863D01*
X206290183Y-90499500D01*
X206308579Y-90568158D01*
X206323030Y-90593187D01*
X206374471Y-90682285D01*
X206467657Y-90775471D01*
X206581785Y-90841363D01*
X206709079Y-90875471D01*
X206709081Y-90875471D01*
X206840861Y-90875471D01*
X206840863Y-90875471D01*
X206968157Y-90841363D01*
X207082285Y-90775471D01*
X207175471Y-90682285D01*
X207241363Y-90568157D01*
X207275471Y-90440863D01*
X207275471Y-90309079D01*
X207241363Y-90181785D01*
X207175471Y-90067657D01*
X207082285Y-89974471D01*
X206997465Y-89925500D01*
X206968158Y-89908579D01*
X206904010Y-89891391D01*
X206840863Y-89874471D01*
X206709079Y-89874471D01*
X206581783Y-89908579D01*
X206467657Y-89974471D01*
X206467654Y-89974473D01*
X206374473Y-90067654D01*
X206374471Y-90067657D01*
X206308579Y-90181783D01*
X206295040Y-90232313D01*
X206274471Y-90309079D01*
X202116893Y-90309079D01*
X202107314Y-90299500D01*
X202050250Y-90266554D01*
X201993187Y-90233608D01*
X201893188Y-90206814D01*
X201865892Y-90199500D01*
X201734108Y-90199500D01*
X201606812Y-90233608D01*
X201492686Y-90299500D01*
X201492683Y-90299502D01*
X201399502Y-90392683D01*
X201399500Y-90392686D01*
X201333608Y-90506812D01*
X201306094Y-90609500D01*
X201299500Y-90634108D01*
X151390500Y-90634108D01*
X151390500Y-89859108D01*
X194699500Y-89859108D01*
X194699500Y-89990892D01*
X194712792Y-90040499D01*
X194733608Y-90118187D01*
X194746490Y-90140499D01*
X194799500Y-90232314D01*
X194892686Y-90325500D01*
X195006814Y-90391392D01*
X195134108Y-90425500D01*
X195134110Y-90425500D01*
X195265890Y-90425500D01*
X195265892Y-90425500D01*
X195393186Y-90391392D01*
X195507314Y-90325500D01*
X195600500Y-90232314D01*
X195666392Y-90118186D01*
X195693395Y-90017405D01*
X195729760Y-89957746D01*
X195792607Y-89927217D01*
X195813170Y-89925500D01*
X195915890Y-89925500D01*
X195915892Y-89925500D01*
X196043186Y-89891392D01*
X196157314Y-89825500D01*
X196250500Y-89732314D01*
X196316392Y-89618186D01*
X196350500Y-89490892D01*
X196350500Y-89359108D01*
X196316392Y-89231814D01*
X196250500Y-89117686D01*
X196157314Y-89024500D01*
X196100250Y-88991554D01*
X196043187Y-88958608D01*
X195979539Y-88941554D01*
X195915892Y-88924500D01*
X195784108Y-88924500D01*
X195656812Y-88958608D01*
X195542686Y-89024500D01*
X195542683Y-89024502D01*
X195449502Y-89117683D01*
X195449500Y-89117686D01*
X195383608Y-89231812D01*
X195356605Y-89332593D01*
X195320240Y-89392254D01*
X195257393Y-89422783D01*
X195236830Y-89424500D01*
X195134108Y-89424500D01*
X195006812Y-89458608D01*
X194892686Y-89524500D01*
X194892683Y-89524502D01*
X194799502Y-89617683D01*
X194799500Y-89617686D01*
X194733608Y-89731812D01*
X194717163Y-89793187D01*
X194699500Y-89859108D01*
X151390500Y-89859108D01*
X151390500Y-89234108D01*
X189499500Y-89234108D01*
X189499500Y-89365891D01*
X189533608Y-89493187D01*
X189560936Y-89540520D01*
X189599500Y-89607314D01*
X189692686Y-89700500D01*
X189767327Y-89743594D01*
X189806810Y-89766390D01*
X189806814Y-89766392D01*
X189934108Y-89800500D01*
X189934110Y-89800500D01*
X190065890Y-89800500D01*
X190065892Y-89800500D01*
X190193186Y-89766392D01*
X190307314Y-89700500D01*
X190400500Y-89607314D01*
X190466392Y-89493186D01*
X190500500Y-89365892D01*
X190500500Y-89234108D01*
X190466392Y-89106814D01*
X190400500Y-88992686D01*
X190307314Y-88899500D01*
X190249100Y-88865890D01*
X190193187Y-88833608D01*
X190129539Y-88816554D01*
X190065892Y-88799500D01*
X189934108Y-88799500D01*
X189806812Y-88833608D01*
X189692686Y-88899500D01*
X189692683Y-88899502D01*
X189599502Y-88992683D01*
X189599500Y-88992686D01*
X189533608Y-89106812D01*
X189499500Y-89234108D01*
X151390500Y-89234108D01*
X151390500Y-88164108D01*
X197069500Y-88164108D01*
X197069500Y-88295892D01*
X197072561Y-88307316D01*
X197103608Y-88423187D01*
X197128552Y-88466391D01*
X197169500Y-88537314D01*
X197262686Y-88630500D01*
X197376814Y-88696392D01*
X197504108Y-88730500D01*
X197504110Y-88730500D01*
X197635890Y-88730500D01*
X197635892Y-88730500D01*
X197763186Y-88696392D01*
X197850944Y-88645724D01*
X197918842Y-88629252D01*
X197984869Y-88652104D01*
X198028060Y-88707025D01*
X198035184Y-88743986D01*
X198035882Y-88743895D01*
X198036943Y-88751954D01*
X198071051Y-88879250D01*
X198097177Y-88924500D01*
X198136943Y-88993377D01*
X198230129Y-89086563D01*
X198344257Y-89152455D01*
X198471551Y-89186563D01*
X198471553Y-89186563D01*
X198603333Y-89186563D01*
X198603335Y-89186563D01*
X198730629Y-89152455D01*
X198844757Y-89086563D01*
X198937943Y-88993377D01*
X199003835Y-88879249D01*
X199037943Y-88751955D01*
X199037943Y-88620171D01*
X199014883Y-88534108D01*
X203856567Y-88534108D01*
X203856567Y-88665892D01*
X203873621Y-88729539D01*
X203890675Y-88793187D01*
X203894320Y-88799500D01*
X203956567Y-88907314D01*
X204049753Y-89000500D01*
X204163881Y-89066392D01*
X204291175Y-89100500D01*
X204291177Y-89100500D01*
X204422957Y-89100500D01*
X204422959Y-89100500D01*
X204550253Y-89066392D01*
X204664381Y-89000500D01*
X204757567Y-88907314D01*
X204823459Y-88793186D01*
X204839289Y-88734108D01*
X210799500Y-88734108D01*
X210799500Y-88865892D01*
X210815204Y-88924500D01*
X210833608Y-88993187D01*
X210851687Y-89024500D01*
X210899500Y-89107314D01*
X210899502Y-89107316D01*
X210904505Y-89112319D01*
X210937990Y-89173642D01*
X210933006Y-89243334D01*
X210904505Y-89287681D01*
X210899502Y-89292683D01*
X210899500Y-89292686D01*
X210833608Y-89406812D01*
X210799500Y-89534108D01*
X210799500Y-89665891D01*
X210833608Y-89793187D01*
X210866554Y-89850250D01*
X210899500Y-89907314D01*
X210899502Y-89907316D01*
X210904505Y-89912319D01*
X210937990Y-89973642D01*
X210933006Y-90043334D01*
X210904505Y-90087681D01*
X210899502Y-90092683D01*
X210899500Y-90092686D01*
X210833608Y-90206812D01*
X210799500Y-90334108D01*
X210799500Y-90465891D01*
X210833608Y-90593187D01*
X210843027Y-90609500D01*
X210899500Y-90707314D01*
X210992686Y-90800500D01*
X210992689Y-90800501D01*
X210992692Y-90800504D01*
X211000678Y-90805115D01*
X211048892Y-90855683D01*
X211062113Y-90924291D01*
X211036143Y-90989155D01*
X211000678Y-91019885D01*
X210992692Y-91024495D01*
X210992683Y-91024502D01*
X210899502Y-91117683D01*
X210899500Y-91117686D01*
X210833608Y-91231812D01*
X210804486Y-91340499D01*
X210799500Y-91359108D01*
X210799500Y-91490892D01*
X210804753Y-91510497D01*
X210833608Y-91618187D01*
X210856200Y-91657316D01*
X210899500Y-91732314D01*
X210992686Y-91825500D01*
X211106814Y-91891392D01*
X211234108Y-91925500D01*
X211234110Y-91925500D01*
X211365890Y-91925500D01*
X211365892Y-91925500D01*
X211493186Y-91891392D01*
X211607314Y-91825500D01*
X211700500Y-91732314D01*
X211766392Y-91618186D01*
X211800500Y-91490892D01*
X211800500Y-91359108D01*
X211766392Y-91231814D01*
X211700500Y-91117686D01*
X211626922Y-91044108D01*
X212219500Y-91044108D01*
X212219500Y-91175892D01*
X212226094Y-91200500D01*
X212253608Y-91303187D01*
X212275151Y-91340499D01*
X212319500Y-91417314D01*
X212412686Y-91510500D01*
X212526814Y-91576392D01*
X212654108Y-91610500D01*
X212654110Y-91610500D01*
X212785890Y-91610500D01*
X212785892Y-91610500D01*
X212913186Y-91576392D01*
X213027314Y-91510500D01*
X213120500Y-91417314D01*
X213186392Y-91303186D01*
X213220500Y-91175892D01*
X213220500Y-91044108D01*
X213186392Y-90916814D01*
X213120500Y-90802686D01*
X213091922Y-90774108D01*
X217549500Y-90774108D01*
X217549500Y-90905892D01*
X217563625Y-90958608D01*
X217583608Y-91033187D01*
X217604979Y-91070202D01*
X217649500Y-91147314D01*
X217742686Y-91240500D01*
X217856814Y-91306392D01*
X217984108Y-91340500D01*
X217984110Y-91340500D01*
X218115890Y-91340500D01*
X218115892Y-91340500D01*
X218243186Y-91306392D01*
X218357314Y-91240500D01*
X218450500Y-91147314D01*
X218516392Y-91033186D01*
X218550500Y-90905892D01*
X218550500Y-90774108D01*
X218949500Y-90774108D01*
X218949500Y-90905892D01*
X218963625Y-90958608D01*
X218983608Y-91033187D01*
X219004979Y-91070202D01*
X219049500Y-91147314D01*
X219142686Y-91240500D01*
X219256814Y-91306392D01*
X219384108Y-91340500D01*
X219384110Y-91340500D01*
X219515890Y-91340500D01*
X219515892Y-91340500D01*
X219643186Y-91306392D01*
X219757314Y-91240500D01*
X219850500Y-91147314D01*
X219916392Y-91033186D01*
X219950500Y-90905892D01*
X219950500Y-90774108D01*
X219916392Y-90646814D01*
X219850500Y-90532686D01*
X219757314Y-90439500D01*
X219673987Y-90391391D01*
X219643187Y-90373608D01*
X219579539Y-90356554D01*
X219515892Y-90339500D01*
X219384108Y-90339500D01*
X219256812Y-90373608D01*
X219142686Y-90439500D01*
X219142683Y-90439502D01*
X219049502Y-90532683D01*
X219049500Y-90532686D01*
X218983608Y-90646812D01*
X218954827Y-90754228D01*
X218949500Y-90774108D01*
X218550500Y-90774108D01*
X218516392Y-90646814D01*
X218450500Y-90532686D01*
X218357314Y-90439500D01*
X218273987Y-90391391D01*
X218243187Y-90373608D01*
X218179539Y-90356554D01*
X218115892Y-90339500D01*
X217984108Y-90339500D01*
X217856812Y-90373608D01*
X217742686Y-90439500D01*
X217742683Y-90439502D01*
X217649502Y-90532683D01*
X217649500Y-90532686D01*
X217583608Y-90646812D01*
X217554827Y-90754228D01*
X217549500Y-90774108D01*
X213091922Y-90774108D01*
X213027314Y-90709500D01*
X212962387Y-90672014D01*
X212913187Y-90643608D01*
X212849539Y-90626554D01*
X212785892Y-90609500D01*
X212654108Y-90609500D01*
X212526812Y-90643608D01*
X212412686Y-90709500D01*
X212412683Y-90709502D01*
X212319502Y-90802683D01*
X212319500Y-90802686D01*
X212253608Y-90916812D01*
X212222426Y-91033187D01*
X212219500Y-91044108D01*
X211626922Y-91044108D01*
X211607314Y-91024500D01*
X211587162Y-91012865D01*
X211576880Y-91003303D01*
X211565918Y-90984852D01*
X211551108Y-90969320D01*
X211548427Y-90955411D01*
X211541193Y-90943235D01*
X211541946Y-90921787D01*
X211537885Y-90900713D01*
X211543149Y-90887562D01*
X211543647Y-90873408D01*
X211555875Y-90855773D01*
X211563853Y-90835848D01*
X211578487Y-90823167D01*
X211583463Y-90815993D01*
X211589803Y-90813362D01*
X211599324Y-90805113D01*
X211607314Y-90800500D01*
X211700500Y-90707314D01*
X211766392Y-90593186D01*
X211800500Y-90465892D01*
X211800500Y-90334108D01*
X211766392Y-90206814D01*
X211700500Y-90092686D01*
X211695495Y-90087681D01*
X211662010Y-90026358D01*
X211666994Y-89956666D01*
X211695495Y-89912319D01*
X211700500Y-89907314D01*
X211766392Y-89793186D01*
X211800500Y-89665892D01*
X211800500Y-89574108D01*
X216849500Y-89574108D01*
X216849500Y-89705892D01*
X216865710Y-89766390D01*
X216883608Y-89833187D01*
X216898574Y-89859108D01*
X216949500Y-89947314D01*
X217042686Y-90040500D01*
X217156814Y-90106392D01*
X217284108Y-90140500D01*
X217284110Y-90140500D01*
X217415890Y-90140500D01*
X217415892Y-90140500D01*
X217543186Y-90106392D01*
X217657314Y-90040500D01*
X217750500Y-89947314D01*
X217816392Y-89833186D01*
X217850500Y-89705892D01*
X217850500Y-89574108D01*
X218249500Y-89574108D01*
X218249500Y-89705892D01*
X218265710Y-89766390D01*
X218283608Y-89833187D01*
X218298574Y-89859108D01*
X218349500Y-89947314D01*
X218442686Y-90040500D01*
X218556814Y-90106392D01*
X218684108Y-90140500D01*
X218684110Y-90140500D01*
X218815890Y-90140500D01*
X218815892Y-90140500D01*
X218943186Y-90106392D01*
X219057314Y-90040500D01*
X219150500Y-89947314D01*
X219216392Y-89833186D01*
X219250500Y-89705892D01*
X219250500Y-89574108D01*
X219649500Y-89574108D01*
X219649500Y-89705892D01*
X219665710Y-89766390D01*
X219683608Y-89833187D01*
X219698574Y-89859108D01*
X219749500Y-89947314D01*
X219842686Y-90040500D01*
X219956814Y-90106392D01*
X220084108Y-90140500D01*
X220084110Y-90140500D01*
X220215890Y-90140500D01*
X220215892Y-90140500D01*
X220343186Y-90106392D01*
X220457314Y-90040500D01*
X220550500Y-89947314D01*
X220616392Y-89833186D01*
X220650500Y-89705892D01*
X220650500Y-89574108D01*
X220616392Y-89446814D01*
X220550500Y-89332686D01*
X220457314Y-89239500D01*
X220365625Y-89186563D01*
X220343187Y-89173608D01*
X220264237Y-89152454D01*
X220215892Y-89139500D01*
X220084108Y-89139500D01*
X219956812Y-89173608D01*
X219842686Y-89239500D01*
X219842683Y-89239502D01*
X219749502Y-89332683D01*
X219749500Y-89332686D01*
X219683608Y-89446812D01*
X219662792Y-89524500D01*
X219649500Y-89574108D01*
X219250500Y-89574108D01*
X219216392Y-89446814D01*
X219150500Y-89332686D01*
X219057314Y-89239500D01*
X218965625Y-89186563D01*
X218943187Y-89173608D01*
X218864237Y-89152454D01*
X218815892Y-89139500D01*
X218684108Y-89139500D01*
X218556812Y-89173608D01*
X218442686Y-89239500D01*
X218442683Y-89239502D01*
X218349502Y-89332683D01*
X218349500Y-89332686D01*
X218283608Y-89446812D01*
X218262792Y-89524500D01*
X218249500Y-89574108D01*
X217850500Y-89574108D01*
X217816392Y-89446814D01*
X217750500Y-89332686D01*
X217657314Y-89239500D01*
X217565625Y-89186563D01*
X217543187Y-89173608D01*
X217464237Y-89152454D01*
X217415892Y-89139500D01*
X217284108Y-89139500D01*
X217156812Y-89173608D01*
X217042686Y-89239500D01*
X217042683Y-89239502D01*
X216949502Y-89332683D01*
X216949500Y-89332686D01*
X216883608Y-89446812D01*
X216862792Y-89524500D01*
X216849500Y-89574108D01*
X211800500Y-89574108D01*
X211800500Y-89534108D01*
X211766392Y-89406814D01*
X211700500Y-89292686D01*
X211695495Y-89287681D01*
X211662010Y-89226358D01*
X211666994Y-89156666D01*
X211695495Y-89112319D01*
X211700500Y-89107314D01*
X211766392Y-88993186D01*
X211800500Y-88865892D01*
X211800500Y-88734108D01*
X211766392Y-88606814D01*
X211700500Y-88492686D01*
X211607314Y-88399500D01*
X211550250Y-88366554D01*
X211493187Y-88333608D01*
X211429539Y-88316554D01*
X211365892Y-88299500D01*
X211234108Y-88299500D01*
X211106812Y-88333608D01*
X210992686Y-88399500D01*
X210992683Y-88399502D01*
X210899502Y-88492683D01*
X210899500Y-88492686D01*
X210833608Y-88606812D01*
X210817778Y-88665892D01*
X210799500Y-88734108D01*
X204839289Y-88734108D01*
X204857567Y-88665892D01*
X204857567Y-88534108D01*
X204823459Y-88406814D01*
X204757567Y-88292686D01*
X204664381Y-88199500D01*
X204603080Y-88164108D01*
X204550254Y-88133608D01*
X204486606Y-88116554D01*
X204422959Y-88099500D01*
X204291175Y-88099500D01*
X204163879Y-88133608D01*
X204049753Y-88199500D01*
X204049750Y-88199502D01*
X203956569Y-88292683D01*
X203956567Y-88292686D01*
X203890675Y-88406812D01*
X203874711Y-88466392D01*
X203856567Y-88534108D01*
X199014883Y-88534108D01*
X199003835Y-88492877D01*
X198937943Y-88378749D01*
X198844757Y-88285563D01*
X198787693Y-88252617D01*
X198730630Y-88219671D01*
X198665157Y-88202128D01*
X198603335Y-88185563D01*
X198471551Y-88185563D01*
X198344257Y-88219671D01*
X198344256Y-88219671D01*
X198344254Y-88219672D01*
X198344253Y-88219672D01*
X198256500Y-88270337D01*
X198188600Y-88286810D01*
X198122573Y-88263957D01*
X198079382Y-88209036D01*
X198076852Y-88202128D01*
X198070500Y-88183053D01*
X198070500Y-88164108D01*
X198036392Y-88036814D01*
X197977095Y-87934108D01*
X211799500Y-87934108D01*
X211799500Y-88065892D01*
X211808505Y-88099500D01*
X211833608Y-88193187D01*
X211866554Y-88250250D01*
X211899500Y-88307314D01*
X211992686Y-88400500D01*
X212106814Y-88466392D01*
X212234108Y-88500500D01*
X212234110Y-88500500D01*
X212365890Y-88500500D01*
X212365892Y-88500500D01*
X212493186Y-88466392D01*
X212607314Y-88400500D01*
X212700500Y-88307314D01*
X212766392Y-88193186D01*
X212780225Y-88141556D01*
X212816590Y-88081897D01*
X212879436Y-88051368D01*
X212948812Y-88059662D01*
X213002690Y-88104147D01*
X213019773Y-88141555D01*
X213025817Y-88164108D01*
X213033608Y-88193187D01*
X213066554Y-88250250D01*
X213099500Y-88307314D01*
X213192686Y-88400500D01*
X213306814Y-88466392D01*
X213434108Y-88500500D01*
X213434110Y-88500500D01*
X213565890Y-88500500D01*
X213565892Y-88500500D01*
X213693186Y-88466392D01*
X213807314Y-88400500D01*
X213900500Y-88307314D01*
X213966392Y-88193186D01*
X214000500Y-88065892D01*
X214000500Y-87934108D01*
X213966392Y-87806814D01*
X213900500Y-87692686D01*
X213807314Y-87599500D01*
X213693186Y-87533608D01*
X213693185Y-87533607D01*
X213686147Y-87529544D01*
X213687618Y-87526994D01*
X213644212Y-87492003D01*
X213622158Y-87425705D01*
X213639449Y-87358009D01*
X213684079Y-87313914D01*
X213707314Y-87300500D01*
X213800500Y-87207314D01*
X213866392Y-87093186D01*
X213900500Y-86965892D01*
X213900500Y-86834108D01*
X213866392Y-86706814D01*
X213800500Y-86592686D01*
X213707314Y-86499500D01*
X213643635Y-86462735D01*
X213593187Y-86433608D01*
X213527061Y-86415890D01*
X213465892Y-86399500D01*
X213334108Y-86399500D01*
X213206812Y-86433608D01*
X213092686Y-86499500D01*
X213092683Y-86499502D01*
X212999502Y-86592683D01*
X212999500Y-86592686D01*
X212933608Y-86706812D01*
X212904247Y-86816391D01*
X212899500Y-86834108D01*
X212899500Y-86965892D01*
X212903414Y-86980499D01*
X212933608Y-87093187D01*
X212949404Y-87120546D01*
X212999500Y-87207314D01*
X213092686Y-87300500D01*
X213202210Y-87363734D01*
X213213853Y-87370456D01*
X213212378Y-87373009D01*
X213255770Y-87407971D01*
X213277840Y-87474264D01*
X213260565Y-87541965D01*
X213215920Y-87586085D01*
X213192692Y-87599496D01*
X213192683Y-87599502D01*
X213099502Y-87692683D01*
X213099500Y-87692686D01*
X213033608Y-87806812D01*
X213019775Y-87858441D01*
X212983410Y-87918102D01*
X212920563Y-87948631D01*
X212851188Y-87940336D01*
X212797310Y-87895851D01*
X212780225Y-87858441D01*
X212772471Y-87829502D01*
X212766392Y-87806814D01*
X212700500Y-87692686D01*
X212607314Y-87599500D01*
X212507661Y-87541965D01*
X212493187Y-87533608D01*
X212429539Y-87516554D01*
X212365892Y-87499500D01*
X212234108Y-87499500D01*
X212106812Y-87533608D01*
X211992686Y-87599500D01*
X211992683Y-87599502D01*
X211899502Y-87692683D01*
X211899500Y-87692686D01*
X211833608Y-87806812D01*
X211809751Y-87895851D01*
X211799500Y-87934108D01*
X197977095Y-87934108D01*
X197970500Y-87922686D01*
X197877314Y-87829500D01*
X197820250Y-87796554D01*
X197763187Y-87763608D01*
X197699539Y-87746554D01*
X197635892Y-87729500D01*
X197504108Y-87729500D01*
X197376812Y-87763608D01*
X197262686Y-87829500D01*
X197262683Y-87829502D01*
X197169502Y-87922683D01*
X197169500Y-87922686D01*
X197103608Y-88036812D01*
X197091528Y-88081897D01*
X197069500Y-88164108D01*
X151390500Y-88164108D01*
X151390500Y-85285258D01*
X161249500Y-85285258D01*
X161249500Y-85514741D01*
X161269486Y-85666542D01*
X161279452Y-85742238D01*
X161334987Y-85949500D01*
X161338842Y-85963887D01*
X161426650Y-86175876D01*
X161426657Y-86175890D01*
X161541392Y-86374617D01*
X161681081Y-86556661D01*
X161681089Y-86556670D01*
X161843330Y-86718911D01*
X161843338Y-86718918D01*
X162025382Y-86858607D01*
X162025385Y-86858608D01*
X162025388Y-86858611D01*
X162224112Y-86973344D01*
X162224117Y-86973346D01*
X162224123Y-86973349D01*
X162315480Y-87011190D01*
X162436113Y-87061158D01*
X162657762Y-87120548D01*
X162885266Y-87150500D01*
X162885273Y-87150500D01*
X163114727Y-87150500D01*
X163114734Y-87150500D01*
X163342238Y-87120548D01*
X163563887Y-87061158D01*
X163775888Y-86973344D01*
X163974612Y-86858611D01*
X164054458Y-86797343D01*
X194862735Y-86797343D01*
X194862735Y-86929126D01*
X194896843Y-87056422D01*
X194910744Y-87080499D01*
X194962735Y-87170549D01*
X195055921Y-87263735D01*
X195170049Y-87329627D01*
X195297343Y-87363735D01*
X195297345Y-87363735D01*
X195429125Y-87363735D01*
X195429127Y-87363735D01*
X195556421Y-87329627D01*
X195670549Y-87263735D01*
X195763735Y-87170549D01*
X195829627Y-87056421D01*
X195863735Y-86929127D01*
X195863735Y-86797343D01*
X195829627Y-86670049D01*
X195773393Y-86572649D01*
X195756921Y-86504752D01*
X195779773Y-86438725D01*
X195793100Y-86422970D01*
X195816570Y-86399500D01*
X195841714Y-86374356D01*
X195893819Y-86284108D01*
X197099500Y-86284108D01*
X197099500Y-86415892D01*
X197112051Y-86462735D01*
X197133608Y-86543187D01*
X197141393Y-86556670D01*
X197199500Y-86657314D01*
X197292686Y-86750500D01*
X197406814Y-86816392D01*
X197534108Y-86850500D01*
X197534110Y-86850500D01*
X197665890Y-86850500D01*
X197665892Y-86850500D01*
X197793186Y-86816392D01*
X197907314Y-86750500D01*
X198000500Y-86657314D01*
X198066392Y-86543186D01*
X198074183Y-86514108D01*
X204009500Y-86514108D01*
X204009500Y-86645892D01*
X204012561Y-86657316D01*
X204043608Y-86773187D01*
X204057555Y-86797343D01*
X204109500Y-86887314D01*
X204202686Y-86980500D01*
X204316814Y-87046392D01*
X204444108Y-87080500D01*
X204444110Y-87080500D01*
X204575890Y-87080500D01*
X204575892Y-87080500D01*
X204703186Y-87046392D01*
X204817314Y-86980500D01*
X204910500Y-86887314D01*
X204976392Y-86773186D01*
X205010500Y-86645892D01*
X205010500Y-86514108D01*
X204976392Y-86386814D01*
X204910500Y-86272686D01*
X204817314Y-86179500D01*
X204736656Y-86132932D01*
X204703187Y-86113608D01*
X204639539Y-86096554D01*
X204575892Y-86079500D01*
X204444108Y-86079500D01*
X204316812Y-86113608D01*
X204202686Y-86179500D01*
X204202683Y-86179502D01*
X204109502Y-86272683D01*
X204109500Y-86272686D01*
X204043608Y-86386812D01*
X204014801Y-86494324D01*
X204009500Y-86514108D01*
X198074183Y-86514108D01*
X198100500Y-86415892D01*
X198100500Y-86284108D01*
X198066392Y-86156814D01*
X198000500Y-86042686D01*
X197907314Y-85949500D01*
X197846013Y-85914108D01*
X202099500Y-85914108D01*
X202099500Y-86045891D01*
X202133608Y-86173187D01*
X202166554Y-86230250D01*
X202199500Y-86287314D01*
X202292686Y-86380500D01*
X202353987Y-86415892D01*
X202406810Y-86446390D01*
X202406814Y-86446392D01*
X202534108Y-86480500D01*
X202534110Y-86480500D01*
X202665890Y-86480500D01*
X202665892Y-86480500D01*
X202793186Y-86446392D01*
X202907314Y-86380500D01*
X203000500Y-86287314D01*
X203066392Y-86173186D01*
X203100500Y-86045892D01*
X203100500Y-85914108D01*
X203066392Y-85786814D01*
X203000500Y-85672686D01*
X202907314Y-85579500D01*
X202850250Y-85546554D01*
X202794053Y-85514108D01*
X210449500Y-85514108D01*
X210449500Y-85645892D01*
X210459224Y-85682183D01*
X210483608Y-85773187D01*
X210516554Y-85830250D01*
X210549500Y-85887314D01*
X210642686Y-85980500D01*
X210741521Y-86037563D01*
X210755944Y-86045890D01*
X210756814Y-86046392D01*
X210884108Y-86080500D01*
X210884110Y-86080500D01*
X211015890Y-86080500D01*
X211015892Y-86080500D01*
X211143186Y-86046392D01*
X211257314Y-85980500D01*
X211350500Y-85887314D01*
X211416392Y-85773186D01*
X211450500Y-85645892D01*
X211450500Y-85514108D01*
X211416392Y-85386814D01*
X211350500Y-85272686D01*
X211257314Y-85179500D01*
X211200250Y-85146554D01*
X211143187Y-85113608D01*
X211065092Y-85092683D01*
X211015892Y-85079500D01*
X210884108Y-85079500D01*
X210756812Y-85113608D01*
X210642686Y-85179500D01*
X210642683Y-85179502D01*
X210549502Y-85272683D01*
X210549500Y-85272686D01*
X210483608Y-85386812D01*
X210462419Y-85465892D01*
X210449500Y-85514108D01*
X202794053Y-85514108D01*
X202793187Y-85513608D01*
X202729539Y-85496554D01*
X202665892Y-85479500D01*
X202534108Y-85479500D01*
X202406812Y-85513608D01*
X202292686Y-85579500D01*
X202292683Y-85579502D01*
X202199502Y-85672683D01*
X202199500Y-85672686D01*
X202133608Y-85786812D01*
X202099500Y-85914108D01*
X197846013Y-85914108D01*
X197822442Y-85900499D01*
X197793187Y-85883608D01*
X197728931Y-85866391D01*
X197665892Y-85849500D01*
X197534108Y-85849500D01*
X197406812Y-85883608D01*
X197292686Y-85949500D01*
X197292683Y-85949502D01*
X197199502Y-86042683D01*
X197199500Y-86042686D01*
X197133608Y-86156812D01*
X197105898Y-86260229D01*
X197099500Y-86284108D01*
X195893819Y-86284108D01*
X195907606Y-86260228D01*
X195941714Y-86132934D01*
X195941714Y-86001150D01*
X195907606Y-85873856D01*
X195841714Y-85759728D01*
X195841712Y-85759726D01*
X195837650Y-85752690D01*
X195840053Y-85751302D01*
X195819731Y-85698769D01*
X195833755Y-85630321D01*
X195855613Y-85600749D01*
X195881041Y-85575322D01*
X195946933Y-85461194D01*
X195981041Y-85333900D01*
X195981041Y-85202116D01*
X195946933Y-85074822D01*
X195881041Y-84960694D01*
X195787855Y-84867508D01*
X195730791Y-84834562D01*
X195673728Y-84801616D01*
X195610080Y-84784562D01*
X195546433Y-84767508D01*
X195414649Y-84767508D01*
X195287353Y-84801616D01*
X195173227Y-84867508D01*
X195173224Y-84867510D01*
X195080043Y-84960691D01*
X195080041Y-84960694D01*
X195014149Y-85074820D01*
X195009363Y-85092683D01*
X194980041Y-85202116D01*
X194980041Y-85333900D01*
X194994219Y-85386812D01*
X195014149Y-85461195D01*
X195016861Y-85465892D01*
X195080041Y-85575322D01*
X195080042Y-85575323D01*
X195084105Y-85582360D01*
X195081701Y-85583747D01*
X195102023Y-85636288D01*
X195087995Y-85704735D01*
X195066138Y-85734304D01*
X195040714Y-85759728D01*
X194974822Y-85873854D01*
X194964036Y-85914110D01*
X194940714Y-86001150D01*
X194940714Y-86132934D01*
X194970443Y-86243887D01*
X194974823Y-86260230D01*
X194974823Y-86260231D01*
X195031054Y-86357626D01*
X195047527Y-86425526D01*
X195024674Y-86491553D01*
X195011349Y-86507306D01*
X194962738Y-86555917D01*
X194962735Y-86555921D01*
X194896843Y-86670047D01*
X194862735Y-86797343D01*
X164054458Y-86797343D01*
X164156661Y-86718919D01*
X164156665Y-86718914D01*
X164156670Y-86718911D01*
X164318911Y-86556670D01*
X164318914Y-86556665D01*
X164318919Y-86556661D01*
X164458611Y-86374612D01*
X164573344Y-86175888D01*
X164661158Y-85963887D01*
X164720548Y-85742238D01*
X164750500Y-85514734D01*
X164750500Y-85334108D01*
X188299500Y-85334108D01*
X188299500Y-85465891D01*
X188333608Y-85593187D01*
X188355048Y-85630321D01*
X188399500Y-85707314D01*
X188492686Y-85800500D01*
X188606814Y-85866392D01*
X188734108Y-85900500D01*
X188734110Y-85900500D01*
X188865890Y-85900500D01*
X188865892Y-85900500D01*
X188993186Y-85866392D01*
X189107314Y-85800500D01*
X189200500Y-85707314D01*
X189266392Y-85593186D01*
X189300500Y-85465892D01*
X189300500Y-85334108D01*
X189266392Y-85206814D01*
X189200500Y-85092686D01*
X189107314Y-84999500D01*
X189040095Y-84960691D01*
X188993187Y-84933608D01*
X188929539Y-84916554D01*
X188865892Y-84899500D01*
X188734108Y-84899500D01*
X188606812Y-84933608D01*
X188492686Y-84999500D01*
X188492683Y-84999502D01*
X188399502Y-85092683D01*
X188399500Y-85092686D01*
X188333608Y-85206812D01*
X188299500Y-85334108D01*
X164750500Y-85334108D01*
X164750500Y-85285266D01*
X164720548Y-85057762D01*
X164661158Y-84836113D01*
X164573344Y-84624112D01*
X164458611Y-84425388D01*
X164458608Y-84425385D01*
X164458607Y-84425382D01*
X164318918Y-84243338D01*
X164318911Y-84243330D01*
X164156670Y-84081089D01*
X164156661Y-84081081D01*
X163974617Y-83941392D01*
X163775890Y-83826657D01*
X163775876Y-83826650D01*
X163563887Y-83738842D01*
X163342238Y-83679452D01*
X163304215Y-83674446D01*
X163114741Y-83649500D01*
X163114734Y-83649500D01*
X162885266Y-83649500D01*
X162885258Y-83649500D01*
X162668715Y-83678009D01*
X162657762Y-83679452D01*
X162564076Y-83704554D01*
X162436112Y-83738842D01*
X162224123Y-83826650D01*
X162224109Y-83826657D01*
X162025382Y-83941392D01*
X161843338Y-84081081D01*
X161681081Y-84243338D01*
X161541392Y-84425382D01*
X161426657Y-84624109D01*
X161426650Y-84624123D01*
X161338842Y-84836112D01*
X161279453Y-85057759D01*
X161279451Y-85057770D01*
X161249500Y-85285258D01*
X151390500Y-85285258D01*
X151390500Y-82809108D01*
X179499500Y-82809108D01*
X179499500Y-82940891D01*
X179533608Y-83068187D01*
X179566554Y-83125250D01*
X179599500Y-83182314D01*
X179692686Y-83275500D01*
X179791521Y-83332563D01*
X179806810Y-83341390D01*
X179806814Y-83341392D01*
X179934108Y-83375500D01*
X179934110Y-83375500D01*
X180030131Y-83375500D01*
X180097170Y-83395185D01*
X180142925Y-83447989D01*
X180149904Y-83467402D01*
X180183608Y-83593186D01*
X180249500Y-83707314D01*
X180342686Y-83800500D01*
X180456814Y-83866392D01*
X180584108Y-83900500D01*
X180584110Y-83900500D01*
X180715890Y-83900500D01*
X180715892Y-83900500D01*
X180843186Y-83866392D01*
X180957314Y-83800500D01*
X181050500Y-83707314D01*
X181116392Y-83593186D01*
X181150094Y-83467405D01*
X181184935Y-83410247D01*
X216479500Y-83410247D01*
X216479500Y-85449752D01*
X216491131Y-85508229D01*
X216491132Y-85508230D01*
X216535447Y-85574552D01*
X216601769Y-85618867D01*
X216601770Y-85618868D01*
X216660247Y-85630499D01*
X216660250Y-85630500D01*
X216660252Y-85630500D01*
X218699750Y-85630500D01*
X218699751Y-85630499D01*
X218714568Y-85627552D01*
X218758229Y-85618868D01*
X218758229Y-85618867D01*
X218758231Y-85618867D01*
X218824552Y-85574552D01*
X218868867Y-85508231D01*
X218868867Y-85508229D01*
X218868868Y-85508229D01*
X218880499Y-85449752D01*
X218880500Y-85449750D01*
X218880500Y-83410249D01*
X218880499Y-83410247D01*
X218868868Y-83351770D01*
X218868867Y-83351769D01*
X218824552Y-83285447D01*
X218758230Y-83241132D01*
X218758229Y-83241131D01*
X218699752Y-83229500D01*
X218699748Y-83229500D01*
X216660252Y-83229500D01*
X216660247Y-83229500D01*
X216601770Y-83241131D01*
X216601769Y-83241132D01*
X216535447Y-83285447D01*
X216491132Y-83351769D01*
X216491131Y-83351770D01*
X216479500Y-83410247D01*
X181184935Y-83410247D01*
X181186459Y-83407746D01*
X181249306Y-83377217D01*
X181269869Y-83375500D01*
X181290890Y-83375500D01*
X181290892Y-83375500D01*
X181418186Y-83341392D01*
X181532314Y-83275500D01*
X181625500Y-83182314D01*
X181691392Y-83068186D01*
X181725500Y-82940892D01*
X181725500Y-82809108D01*
X181691392Y-82681814D01*
X181625500Y-82567686D01*
X181532314Y-82474500D01*
X181475250Y-82441554D01*
X181418187Y-82408608D01*
X181354539Y-82391554D01*
X181290892Y-82374500D01*
X181159108Y-82374500D01*
X181031812Y-82408608D01*
X180917686Y-82474500D01*
X180917683Y-82474502D01*
X180824502Y-82567683D01*
X180824500Y-82567686D01*
X180758608Y-82681812D01*
X180732275Y-82780092D01*
X180695910Y-82839753D01*
X180633063Y-82870282D01*
X180563688Y-82861987D01*
X180509810Y-82817502D01*
X180492725Y-82780092D01*
X180466391Y-82681812D01*
X180457563Y-82666521D01*
X180400500Y-82567686D01*
X180307314Y-82474500D01*
X180250250Y-82441554D01*
X180193187Y-82408608D01*
X180129539Y-82391554D01*
X180065892Y-82374500D01*
X179934108Y-82374500D01*
X179806812Y-82408608D01*
X179692686Y-82474500D01*
X179692683Y-82474502D01*
X179599502Y-82567683D01*
X179599500Y-82567686D01*
X179533608Y-82681812D01*
X179499500Y-82809108D01*
X151390500Y-82809108D01*
X151390500Y-81384108D01*
X198369500Y-81384108D01*
X198369500Y-81515891D01*
X198403608Y-81643187D01*
X198415328Y-81663486D01*
X198469500Y-81757314D01*
X198562686Y-81850500D01*
X198676814Y-81916392D01*
X198804108Y-81950500D01*
X198804110Y-81950500D01*
X198935889Y-81950500D01*
X198935892Y-81950500D01*
X199015985Y-81929039D01*
X199085831Y-81930702D01*
X199143693Y-81969864D01*
X199155462Y-81986813D01*
X199204854Y-82072362D01*
X199298040Y-82165548D01*
X199412168Y-82231440D01*
X199539462Y-82265548D01*
X199539464Y-82265548D01*
X199671244Y-82265548D01*
X199671246Y-82265548D01*
X199798540Y-82231440D01*
X199912668Y-82165548D01*
X200005854Y-82072362D01*
X200071746Y-81958234D01*
X200105854Y-81830940D01*
X200105854Y-81699156D01*
X200089874Y-81639519D01*
X201569500Y-81639519D01*
X201569500Y-81771302D01*
X201603608Y-81898598D01*
X201622144Y-81930702D01*
X201669500Y-82012725D01*
X201762686Y-82105911D01*
X201876814Y-82171803D01*
X202004108Y-82205911D01*
X202004110Y-82205911D01*
X202135890Y-82205911D01*
X202135892Y-82205911D01*
X202263186Y-82171803D01*
X202377314Y-82105911D01*
X202470500Y-82012725D01*
X202536392Y-81898597D01*
X202570500Y-81771303D01*
X202570500Y-81639519D01*
X202536392Y-81512225D01*
X202470500Y-81398097D01*
X202377314Y-81304911D01*
X202320250Y-81271965D01*
X202263187Y-81239019D01*
X202199539Y-81221965D01*
X202135892Y-81204911D01*
X202004108Y-81204911D01*
X201876812Y-81239019D01*
X201762686Y-81304911D01*
X201762683Y-81304913D01*
X201669502Y-81398094D01*
X201669500Y-81398097D01*
X201603608Y-81512223D01*
X201569500Y-81639519D01*
X200089874Y-81639519D01*
X200071746Y-81571862D01*
X200005854Y-81457734D01*
X199912668Y-81364548D01*
X199854454Y-81330938D01*
X199798541Y-81298656D01*
X199734893Y-81281602D01*
X199671246Y-81264548D01*
X199539462Y-81264548D01*
X199539460Y-81264548D01*
X199459369Y-81286008D01*
X199389519Y-81284345D01*
X199331657Y-81245182D01*
X199319894Y-81228239D01*
X199270500Y-81142686D01*
X199177314Y-81049500D01*
X199120250Y-81016554D01*
X199063187Y-80983608D01*
X198999539Y-80966554D01*
X198935892Y-80949500D01*
X198804108Y-80949500D01*
X198676812Y-80983608D01*
X198562686Y-81049500D01*
X198562683Y-81049502D01*
X198469502Y-81142683D01*
X198469500Y-81142686D01*
X198403608Y-81256812D01*
X198369500Y-81384108D01*
X151390500Y-81384108D01*
X151390500Y-80809108D01*
X188399500Y-80809108D01*
X188399500Y-80940892D01*
X188410946Y-80983608D01*
X188433608Y-81068187D01*
X188466554Y-81125250D01*
X188499500Y-81182314D01*
X188592686Y-81275500D01*
X188706814Y-81341392D01*
X188834108Y-81375500D01*
X188834110Y-81375500D01*
X188965890Y-81375500D01*
X188965892Y-81375500D01*
X189093186Y-81341392D01*
X189207314Y-81275500D01*
X189300500Y-81182314D01*
X189366392Y-81068186D01*
X189400500Y-80940892D01*
X189400500Y-80809108D01*
X195699500Y-80809108D01*
X195699500Y-80940892D01*
X195710946Y-80983608D01*
X195733608Y-81068187D01*
X195766554Y-81125250D01*
X195799500Y-81182314D01*
X195892686Y-81275500D01*
X196006814Y-81341392D01*
X196134108Y-81375500D01*
X196134110Y-81375500D01*
X196265890Y-81375500D01*
X196265892Y-81375500D01*
X196393186Y-81341392D01*
X196507314Y-81275500D01*
X196600500Y-81182314D01*
X196666392Y-81068186D01*
X196700500Y-80940892D01*
X196700500Y-80809108D01*
X196666392Y-80681814D01*
X196600500Y-80567686D01*
X196507314Y-80474500D01*
X196450250Y-80441554D01*
X196393187Y-80408608D01*
X196328934Y-80391392D01*
X196265892Y-80374500D01*
X196134108Y-80374500D01*
X196006812Y-80408608D01*
X195892686Y-80474500D01*
X195892683Y-80474502D01*
X195799502Y-80567683D01*
X195799500Y-80567686D01*
X195733608Y-80681812D01*
X195699500Y-80809108D01*
X189400500Y-80809108D01*
X189366392Y-80681814D01*
X189300500Y-80567686D01*
X189254571Y-80521757D01*
X189221086Y-80460434D01*
X189226070Y-80390742D01*
X189267942Y-80334809D01*
X189280240Y-80326696D01*
X189282314Y-80325500D01*
X189375500Y-80232314D01*
X189441392Y-80118186D01*
X189475500Y-79990892D01*
X189475500Y-79859108D01*
X189455404Y-79784108D01*
X200999500Y-79784108D01*
X200999500Y-79915891D01*
X201033608Y-80043187D01*
X201066554Y-80100250D01*
X201099500Y-80157314D01*
X201192686Y-80250500D01*
X201306814Y-80316392D01*
X201434108Y-80350500D01*
X201434110Y-80350500D01*
X201565890Y-80350500D01*
X201565892Y-80350500D01*
X201693186Y-80316392D01*
X201807314Y-80250500D01*
X201900500Y-80157314D01*
X201966392Y-80043186D01*
X202000500Y-79915892D01*
X202000500Y-79784108D01*
X201966392Y-79656814D01*
X201900500Y-79542686D01*
X201807314Y-79449500D01*
X201750250Y-79416554D01*
X201693187Y-79383608D01*
X201629539Y-79366554D01*
X201565892Y-79349500D01*
X201434108Y-79349500D01*
X201306812Y-79383608D01*
X201192686Y-79449500D01*
X201192683Y-79449502D01*
X201099502Y-79542683D01*
X201099500Y-79542686D01*
X201033608Y-79656812D01*
X200999500Y-79784108D01*
X189455404Y-79784108D01*
X189441392Y-79731814D01*
X189375500Y-79617686D01*
X189282314Y-79524500D01*
X189225250Y-79491554D01*
X189168187Y-79458608D01*
X189104539Y-79441554D01*
X189040892Y-79424500D01*
X188909108Y-79424500D01*
X188781812Y-79458608D01*
X188667686Y-79524500D01*
X188667683Y-79524502D01*
X188574502Y-79617683D01*
X188574500Y-79617686D01*
X188508608Y-79731812D01*
X188474500Y-79859108D01*
X188474500Y-79990891D01*
X188508608Y-80118187D01*
X188531200Y-80157316D01*
X188574500Y-80232314D01*
X188574502Y-80232316D01*
X188620428Y-80278242D01*
X188653913Y-80339565D01*
X188648929Y-80409257D01*
X188607057Y-80465190D01*
X188594754Y-80473305D01*
X188592686Y-80474500D01*
X188592683Y-80474502D01*
X188499502Y-80567683D01*
X188499500Y-80567686D01*
X188433608Y-80681812D01*
X188399500Y-80809108D01*
X151390500Y-80809108D01*
X151390500Y-78984108D01*
X192374500Y-78984108D01*
X192374500Y-79115891D01*
X192408608Y-79243187D01*
X192441554Y-79300250D01*
X192474500Y-79357314D01*
X192567686Y-79450500D01*
X192681814Y-79516392D01*
X192809108Y-79550500D01*
X192809110Y-79550500D01*
X192940890Y-79550500D01*
X192940892Y-79550500D01*
X193068186Y-79516392D01*
X193182314Y-79450500D01*
X193275500Y-79357314D01*
X193341392Y-79243186D01*
X193375500Y-79115892D01*
X193375500Y-78984108D01*
X194574500Y-78984108D01*
X194574500Y-79115891D01*
X194608608Y-79243187D01*
X194641554Y-79300250D01*
X194674500Y-79357314D01*
X194767686Y-79450500D01*
X194881814Y-79516392D01*
X195009108Y-79550500D01*
X195009110Y-79550500D01*
X195140890Y-79550500D01*
X195140892Y-79550500D01*
X195268186Y-79516392D01*
X195382314Y-79450500D01*
X195475500Y-79357314D01*
X195541392Y-79243186D01*
X195575500Y-79115892D01*
X195575500Y-78984108D01*
X195541392Y-78856814D01*
X195475500Y-78742686D01*
X195382314Y-78649500D01*
X195297442Y-78600499D01*
X195268187Y-78583608D01*
X195202061Y-78565890D01*
X195140892Y-78549500D01*
X195009108Y-78549500D01*
X194881812Y-78583608D01*
X194767686Y-78649500D01*
X194767683Y-78649502D01*
X194674502Y-78742683D01*
X194674500Y-78742686D01*
X194608608Y-78856812D01*
X194574500Y-78984108D01*
X193375500Y-78984108D01*
X193341392Y-78856814D01*
X193275500Y-78742686D01*
X193182314Y-78649500D01*
X193097442Y-78600499D01*
X193068187Y-78583608D01*
X193002061Y-78565890D01*
X192940892Y-78549500D01*
X192809108Y-78549500D01*
X192681812Y-78583608D01*
X192567686Y-78649500D01*
X192567683Y-78649502D01*
X192474502Y-78742683D01*
X192474500Y-78742686D01*
X192408608Y-78856812D01*
X192374500Y-78984108D01*
X151390500Y-78984108D01*
X151390500Y-78034108D01*
X189899500Y-78034108D01*
X189899500Y-78165892D01*
X189916554Y-78229539D01*
X189933608Y-78293187D01*
X189941475Y-78306812D01*
X189999500Y-78407314D01*
X190092686Y-78500500D01*
X190191521Y-78557563D01*
X190205944Y-78565890D01*
X190206814Y-78566392D01*
X190334108Y-78600500D01*
X190334110Y-78600500D01*
X190465890Y-78600500D01*
X190465892Y-78600500D01*
X190593186Y-78566392D01*
X190707314Y-78500500D01*
X190800500Y-78407314D01*
X190866392Y-78293186D01*
X190900500Y-78165892D01*
X190900500Y-78034108D01*
X190866392Y-77906814D01*
X190800500Y-77792686D01*
X190707314Y-77699500D01*
X190650250Y-77666554D01*
X190593187Y-77633608D01*
X190529539Y-77616554D01*
X190465892Y-77599500D01*
X190334108Y-77599500D01*
X190206812Y-77633608D01*
X190092686Y-77699500D01*
X190092683Y-77699502D01*
X189999502Y-77792683D01*
X189999500Y-77792686D01*
X189933608Y-77906812D01*
X189909299Y-77997536D01*
X189899500Y-78034108D01*
X151390500Y-78034108D01*
X151390500Y-77459108D01*
X197124500Y-77459108D01*
X197124500Y-77590892D01*
X197135946Y-77633608D01*
X197158608Y-77718187D01*
X197187255Y-77767804D01*
X197224500Y-77832314D01*
X197317686Y-77925500D01*
X197431814Y-77991392D01*
X197559108Y-78025500D01*
X197559110Y-78025500D01*
X197699019Y-78025500D01*
X197699019Y-78028905D01*
X197752440Y-78037177D01*
X197804746Y-78083501D01*
X197819487Y-78117315D01*
X197829364Y-78154179D01*
X197862310Y-78211242D01*
X197895256Y-78268306D01*
X197988442Y-78361492D01*
X198102570Y-78427384D01*
X198229864Y-78461492D01*
X198229866Y-78461492D01*
X198361646Y-78461492D01*
X198361648Y-78461492D01*
X198463847Y-78434108D01*
X202699500Y-78434108D01*
X202699500Y-78565891D01*
X202733608Y-78693187D01*
X202762185Y-78742683D01*
X202799500Y-78807314D01*
X202892686Y-78900500D01*
X203006814Y-78966392D01*
X203134108Y-79000500D01*
X203134110Y-79000500D01*
X203265890Y-79000500D01*
X203265892Y-79000500D01*
X203393186Y-78966392D01*
X203507314Y-78900500D01*
X203600500Y-78807314D01*
X203666392Y-78693186D01*
X203700500Y-78565892D01*
X203700500Y-78434108D01*
X203666392Y-78306814D01*
X203600500Y-78192686D01*
X203507314Y-78099500D01*
X203450250Y-78066554D01*
X203393187Y-78033608D01*
X203329539Y-78016554D01*
X203265892Y-77999500D01*
X203134108Y-77999500D01*
X203006812Y-78033608D01*
X202892686Y-78099500D01*
X202892683Y-78099502D01*
X202799502Y-78192683D01*
X202799500Y-78192686D01*
X202733608Y-78306812D01*
X202699500Y-78434108D01*
X198463847Y-78434108D01*
X198488942Y-78427384D01*
X198603070Y-78361492D01*
X198696256Y-78268306D01*
X198762148Y-78154178D01*
X198796256Y-78026884D01*
X198796256Y-77895100D01*
X198762148Y-77767806D01*
X198735476Y-77721608D01*
X199779500Y-77721608D01*
X199779500Y-77853391D01*
X199813608Y-77980687D01*
X199819789Y-77991392D01*
X199879500Y-78094814D01*
X199972686Y-78188000D01*
X200086814Y-78253892D01*
X200214108Y-78288000D01*
X200214110Y-78288000D01*
X200345890Y-78288000D01*
X200345892Y-78288000D01*
X200473186Y-78253892D01*
X200587314Y-78188000D01*
X200680500Y-78094814D01*
X200746392Y-77980686D01*
X200780500Y-77853392D01*
X200780500Y-77721608D01*
X200746392Y-77594314D01*
X200680500Y-77480186D01*
X200587314Y-77387000D01*
X200530250Y-77354054D01*
X200473187Y-77321108D01*
X200409539Y-77304054D01*
X200345892Y-77287000D01*
X200214108Y-77287000D01*
X200086812Y-77321108D01*
X199972686Y-77387000D01*
X199972683Y-77387002D01*
X199879502Y-77480183D01*
X199879500Y-77480186D01*
X199813608Y-77594312D01*
X199779500Y-77721608D01*
X198735476Y-77721608D01*
X198696256Y-77653678D01*
X198603070Y-77560492D01*
X198546006Y-77527546D01*
X198488943Y-77494600D01*
X198425295Y-77477546D01*
X198361648Y-77460492D01*
X198229864Y-77460492D01*
X198221737Y-77460492D01*
X198221737Y-77457116D01*
X198168135Y-77448729D01*
X198115903Y-77402322D01*
X198101270Y-77368679D01*
X198091392Y-77331814D01*
X198025500Y-77217686D01*
X197932314Y-77124500D01*
X197875250Y-77091554D01*
X197818187Y-77058608D01*
X197754539Y-77041554D01*
X197690892Y-77024500D01*
X197559108Y-77024500D01*
X197431812Y-77058608D01*
X197317686Y-77124500D01*
X197317683Y-77124502D01*
X197224502Y-77217683D01*
X197224500Y-77217686D01*
X197158608Y-77331812D01*
X197127281Y-77448729D01*
X197124500Y-77459108D01*
X151390500Y-77459108D01*
X151390500Y-75859108D01*
X189374500Y-75859108D01*
X189374500Y-75990891D01*
X189408608Y-76118187D01*
X189441554Y-76175250D01*
X189474500Y-76232314D01*
X189567686Y-76325500D01*
X189681814Y-76391392D01*
X189809108Y-76425500D01*
X189809110Y-76425500D01*
X189940890Y-76425500D01*
X189940892Y-76425500D01*
X190068186Y-76391392D01*
X190182314Y-76325500D01*
X190275500Y-76232314D01*
X190341392Y-76118186D01*
X190375500Y-75990892D01*
X190375500Y-75859108D01*
X190341392Y-75731814D01*
X190275500Y-75617686D01*
X190182314Y-75524500D01*
X190125250Y-75491554D01*
X190068187Y-75458608D01*
X190004539Y-75441554D01*
X189940892Y-75424500D01*
X189809108Y-75424500D01*
X189681812Y-75458608D01*
X189567686Y-75524500D01*
X189567683Y-75524502D01*
X189474502Y-75617683D01*
X189474500Y-75617686D01*
X189408608Y-75731812D01*
X189374500Y-75859108D01*
X151390500Y-75859108D01*
X151390500Y-74311304D01*
X153349500Y-74311304D01*
X153349500Y-74488695D01*
X153384103Y-74662658D01*
X153384106Y-74662667D01*
X153451983Y-74826540D01*
X153451990Y-74826553D01*
X153550535Y-74974034D01*
X153550538Y-74974038D01*
X153675961Y-75099461D01*
X153675965Y-75099464D01*
X153823446Y-75198009D01*
X153823459Y-75198016D01*
X153946363Y-75248923D01*
X153987334Y-75265894D01*
X153987336Y-75265894D01*
X153987341Y-75265896D01*
X154161304Y-75300499D01*
X154161307Y-75300500D01*
X154161309Y-75300500D01*
X154338693Y-75300500D01*
X154338694Y-75300499D01*
X154396682Y-75288964D01*
X154512658Y-75265896D01*
X154512661Y-75265894D01*
X154512666Y-75265894D01*
X154676547Y-75198013D01*
X154824035Y-75099464D01*
X154949464Y-74974035D01*
X155048013Y-74826547D01*
X155115894Y-74662666D01*
X155128383Y-74599882D01*
X155160768Y-74537971D01*
X155221483Y-74503397D01*
X155291253Y-74507136D01*
X155347925Y-74548003D01*
X155371617Y-74599882D01*
X155384103Y-74662658D01*
X155384106Y-74662667D01*
X155451983Y-74826540D01*
X155451990Y-74826553D01*
X155550535Y-74974034D01*
X155550538Y-74974038D01*
X155675961Y-75099461D01*
X155675965Y-75099464D01*
X155823446Y-75198009D01*
X155823459Y-75198016D01*
X155946363Y-75248923D01*
X155987334Y-75265894D01*
X155987336Y-75265894D01*
X155987341Y-75265896D01*
X156161304Y-75300499D01*
X156161307Y-75300500D01*
X156161309Y-75300500D01*
X156338693Y-75300500D01*
X156338694Y-75300499D01*
X156396682Y-75288964D01*
X156512658Y-75265896D01*
X156512661Y-75265894D01*
X156512666Y-75265894D01*
X156676547Y-75198013D01*
X156824035Y-75099464D01*
X156949464Y-74974035D01*
X157048013Y-74826547D01*
X157115894Y-74662666D01*
X157128383Y-74599882D01*
X157160768Y-74537971D01*
X157221483Y-74503397D01*
X157291253Y-74507136D01*
X157347925Y-74548003D01*
X157371617Y-74599882D01*
X157384103Y-74662658D01*
X157384106Y-74662667D01*
X157451983Y-74826540D01*
X157451990Y-74826553D01*
X157550535Y-74974034D01*
X157550538Y-74974038D01*
X157675961Y-75099461D01*
X157675965Y-75099464D01*
X157823446Y-75198009D01*
X157823459Y-75198016D01*
X157946363Y-75248923D01*
X157987334Y-75265894D01*
X157987336Y-75265894D01*
X157987341Y-75265896D01*
X158161304Y-75300499D01*
X158161307Y-75300500D01*
X158161309Y-75300500D01*
X158338693Y-75300500D01*
X158338694Y-75300499D01*
X158396682Y-75288964D01*
X158512658Y-75265896D01*
X158512661Y-75265894D01*
X158512666Y-75265894D01*
X158676547Y-75198013D01*
X158824035Y-75099464D01*
X158949464Y-74974035D01*
X159048013Y-74826547D01*
X159115894Y-74662666D01*
X159128383Y-74599882D01*
X159160768Y-74537971D01*
X159221483Y-74503397D01*
X159291253Y-74507136D01*
X159347925Y-74548003D01*
X159371617Y-74599882D01*
X159384103Y-74662658D01*
X159384106Y-74662667D01*
X159451983Y-74826540D01*
X159451990Y-74826553D01*
X159550535Y-74974034D01*
X159550538Y-74974038D01*
X159675961Y-75099461D01*
X159675965Y-75099464D01*
X159823446Y-75198009D01*
X159823459Y-75198016D01*
X159946363Y-75248923D01*
X159987334Y-75265894D01*
X159987336Y-75265894D01*
X159987341Y-75265896D01*
X160161304Y-75300499D01*
X160161307Y-75300500D01*
X160161309Y-75300500D01*
X160338693Y-75300500D01*
X160338694Y-75300499D01*
X160396682Y-75288964D01*
X160512658Y-75265896D01*
X160512661Y-75265894D01*
X160512666Y-75265894D01*
X160676547Y-75198013D01*
X160824035Y-75099464D01*
X160949464Y-74974035D01*
X161048013Y-74826547D01*
X161115894Y-74662666D01*
X161128383Y-74599882D01*
X161160768Y-74537971D01*
X161221483Y-74503397D01*
X161291253Y-74507136D01*
X161347925Y-74548003D01*
X161371617Y-74599882D01*
X161384103Y-74662658D01*
X161384106Y-74662667D01*
X161451983Y-74826540D01*
X161451990Y-74826553D01*
X161550535Y-74974034D01*
X161550538Y-74974038D01*
X161675961Y-75099461D01*
X161675965Y-75099464D01*
X161823446Y-75198009D01*
X161823459Y-75198016D01*
X161946363Y-75248923D01*
X161987334Y-75265894D01*
X161987336Y-75265894D01*
X161987341Y-75265896D01*
X162161304Y-75300499D01*
X162161307Y-75300500D01*
X162161309Y-75300500D01*
X162338693Y-75300500D01*
X162338694Y-75300499D01*
X162396682Y-75288964D01*
X162512658Y-75265896D01*
X162512661Y-75265894D01*
X162512666Y-75265894D01*
X162676547Y-75198013D01*
X162824035Y-75099464D01*
X162949464Y-74974035D01*
X163048013Y-74826547D01*
X163115894Y-74662666D01*
X163128383Y-74599882D01*
X163160768Y-74537971D01*
X163221483Y-74503397D01*
X163291253Y-74507136D01*
X163347925Y-74548003D01*
X163371617Y-74599882D01*
X163384103Y-74662658D01*
X163384106Y-74662667D01*
X163451983Y-74826540D01*
X163451990Y-74826553D01*
X163550535Y-74974034D01*
X163550538Y-74974038D01*
X163675961Y-75099461D01*
X163675965Y-75099464D01*
X163823446Y-75198009D01*
X163823459Y-75198016D01*
X163946363Y-75248923D01*
X163987334Y-75265894D01*
X163987336Y-75265894D01*
X163987341Y-75265896D01*
X164161304Y-75300499D01*
X164161307Y-75300500D01*
X164161309Y-75300500D01*
X164338693Y-75300500D01*
X164338694Y-75300499D01*
X164396682Y-75288964D01*
X164512658Y-75265896D01*
X164512661Y-75265894D01*
X164512666Y-75265894D01*
X164676547Y-75198013D01*
X164824035Y-75099464D01*
X164949464Y-74974035D01*
X165048013Y-74826547D01*
X165115894Y-74662666D01*
X165150500Y-74488691D01*
X165150500Y-74311309D01*
X165150500Y-74311306D01*
X165150499Y-74311304D01*
X167349500Y-74311304D01*
X167349500Y-74488695D01*
X167384103Y-74662658D01*
X167384106Y-74662667D01*
X167451983Y-74826540D01*
X167451990Y-74826553D01*
X167550535Y-74974034D01*
X167550538Y-74974038D01*
X167675961Y-75099461D01*
X167675965Y-75099464D01*
X167823446Y-75198009D01*
X167823459Y-75198016D01*
X167946363Y-75248923D01*
X167987334Y-75265894D01*
X167987336Y-75265894D01*
X167987341Y-75265896D01*
X168161304Y-75300499D01*
X168161307Y-75300500D01*
X168161309Y-75300500D01*
X168338693Y-75300500D01*
X168338694Y-75300499D01*
X168396682Y-75288964D01*
X168512658Y-75265896D01*
X168512661Y-75265894D01*
X168512666Y-75265894D01*
X168676547Y-75198013D01*
X168824035Y-75099464D01*
X168949464Y-74974035D01*
X169048013Y-74826547D01*
X169115894Y-74662666D01*
X169128383Y-74599882D01*
X169160768Y-74537971D01*
X169221483Y-74503397D01*
X169291253Y-74507136D01*
X169347925Y-74548003D01*
X169371617Y-74599882D01*
X169384103Y-74662658D01*
X169384106Y-74662667D01*
X169451983Y-74826540D01*
X169451990Y-74826553D01*
X169550535Y-74974034D01*
X169550538Y-74974038D01*
X169675961Y-75099461D01*
X169675965Y-75099464D01*
X169823446Y-75198009D01*
X169823459Y-75198016D01*
X169946363Y-75248923D01*
X169987334Y-75265894D01*
X169987336Y-75265894D01*
X169987341Y-75265896D01*
X170161304Y-75300499D01*
X170161307Y-75300500D01*
X170161309Y-75300500D01*
X170338693Y-75300500D01*
X170338694Y-75300499D01*
X170396682Y-75288964D01*
X170512658Y-75265896D01*
X170512661Y-75265894D01*
X170512666Y-75265894D01*
X170676547Y-75198013D01*
X170824035Y-75099464D01*
X170949464Y-74974035D01*
X171048013Y-74826547D01*
X171115894Y-74662666D01*
X171128383Y-74599882D01*
X171160768Y-74537971D01*
X171221483Y-74503397D01*
X171291253Y-74507136D01*
X171347925Y-74548003D01*
X171371617Y-74599882D01*
X171384103Y-74662658D01*
X171384106Y-74662667D01*
X171451983Y-74826540D01*
X171451990Y-74826553D01*
X171550535Y-74974034D01*
X171550538Y-74974038D01*
X171675961Y-75099461D01*
X171675965Y-75099464D01*
X171823446Y-75198009D01*
X171823459Y-75198016D01*
X171946363Y-75248923D01*
X171987334Y-75265894D01*
X171987336Y-75265894D01*
X171987341Y-75265896D01*
X172161304Y-75300499D01*
X172161307Y-75300500D01*
X172161309Y-75300500D01*
X172338693Y-75300500D01*
X172338694Y-75300499D01*
X172396682Y-75288964D01*
X172512658Y-75265896D01*
X172512661Y-75265894D01*
X172512666Y-75265894D01*
X172676547Y-75198013D01*
X172824035Y-75099464D01*
X172949464Y-74974035D01*
X173048013Y-74826547D01*
X173115894Y-74662666D01*
X173150500Y-74488691D01*
X173150500Y-74311309D01*
X173150500Y-74311306D01*
X173150499Y-74311304D01*
X173115896Y-74137341D01*
X173115893Y-74137332D01*
X173048016Y-73973459D01*
X173048009Y-73973446D01*
X172949464Y-73825965D01*
X172949461Y-73825961D01*
X172824038Y-73700538D01*
X172824034Y-73700535D01*
X172676553Y-73601990D01*
X172676540Y-73601983D01*
X172512667Y-73534106D01*
X172512658Y-73534103D01*
X172338694Y-73499500D01*
X172338691Y-73499500D01*
X172161309Y-73499500D01*
X172161306Y-73499500D01*
X171987341Y-73534103D01*
X171987332Y-73534106D01*
X171823459Y-73601983D01*
X171823446Y-73601990D01*
X171675965Y-73700535D01*
X171675961Y-73700538D01*
X171550538Y-73825961D01*
X171550535Y-73825965D01*
X171451990Y-73973446D01*
X171451983Y-73973459D01*
X171384106Y-74137332D01*
X171384104Y-74137340D01*
X171371617Y-74200118D01*
X171339232Y-74262028D01*
X171278516Y-74296603D01*
X171208747Y-74292863D01*
X171152075Y-74251996D01*
X171128383Y-74200118D01*
X171115895Y-74137340D01*
X171115894Y-74137334D01*
X171098923Y-74096363D01*
X171048016Y-73973459D01*
X171048009Y-73973446D01*
X170949464Y-73825965D01*
X170949461Y-73825961D01*
X170824038Y-73700538D01*
X170824034Y-73700535D01*
X170676553Y-73601990D01*
X170676540Y-73601983D01*
X170512667Y-73534106D01*
X170512658Y-73534103D01*
X170338694Y-73499500D01*
X170338691Y-73499500D01*
X170161309Y-73499500D01*
X170161306Y-73499500D01*
X169987341Y-73534103D01*
X169987332Y-73534106D01*
X169823459Y-73601983D01*
X169823446Y-73601990D01*
X169675965Y-73700535D01*
X169675961Y-73700538D01*
X169550538Y-73825961D01*
X169550535Y-73825965D01*
X169451990Y-73973446D01*
X169451983Y-73973459D01*
X169384106Y-74137332D01*
X169384104Y-74137340D01*
X169371617Y-74200118D01*
X169339232Y-74262028D01*
X169278516Y-74296603D01*
X169208747Y-74292863D01*
X169152075Y-74251996D01*
X169128383Y-74200118D01*
X169115895Y-74137340D01*
X169115894Y-74137334D01*
X169098923Y-74096363D01*
X169048016Y-73973459D01*
X169048009Y-73973446D01*
X168949464Y-73825965D01*
X168949461Y-73825961D01*
X168824038Y-73700538D01*
X168824034Y-73700535D01*
X168676553Y-73601990D01*
X168676540Y-73601983D01*
X168512667Y-73534106D01*
X168512658Y-73534103D01*
X168338694Y-73499500D01*
X168338691Y-73499500D01*
X168161309Y-73499500D01*
X168161306Y-73499500D01*
X167987341Y-73534103D01*
X167987332Y-73534106D01*
X167823459Y-73601983D01*
X167823446Y-73601990D01*
X167675965Y-73700535D01*
X167675961Y-73700538D01*
X167550538Y-73825961D01*
X167550535Y-73825965D01*
X167451990Y-73973446D01*
X167451983Y-73973459D01*
X167384106Y-74137332D01*
X167384103Y-74137341D01*
X167349500Y-74311304D01*
X165150499Y-74311304D01*
X165115896Y-74137341D01*
X165115893Y-74137332D01*
X165048016Y-73973459D01*
X165048009Y-73973446D01*
X164949464Y-73825965D01*
X164949461Y-73825961D01*
X164824038Y-73700538D01*
X164824034Y-73700535D01*
X164676553Y-73601990D01*
X164676540Y-73601983D01*
X164512667Y-73534106D01*
X164512658Y-73534103D01*
X164338694Y-73499500D01*
X164338691Y-73499500D01*
X164161309Y-73499500D01*
X164161306Y-73499500D01*
X163987341Y-73534103D01*
X163987332Y-73534106D01*
X163823459Y-73601983D01*
X163823446Y-73601990D01*
X163675965Y-73700535D01*
X163675961Y-73700538D01*
X163550538Y-73825961D01*
X163550535Y-73825965D01*
X163451990Y-73973446D01*
X163451983Y-73973459D01*
X163384106Y-74137332D01*
X163384104Y-74137340D01*
X163371617Y-74200118D01*
X163339232Y-74262028D01*
X163278516Y-74296603D01*
X163208747Y-74292863D01*
X163152075Y-74251996D01*
X163128383Y-74200118D01*
X163115895Y-74137340D01*
X163115894Y-74137334D01*
X163098923Y-74096363D01*
X163048016Y-73973459D01*
X163048009Y-73973446D01*
X162949464Y-73825965D01*
X162949461Y-73825961D01*
X162824038Y-73700538D01*
X162824034Y-73700535D01*
X162676553Y-73601990D01*
X162676540Y-73601983D01*
X162512667Y-73534106D01*
X162512658Y-73534103D01*
X162338694Y-73499500D01*
X162338691Y-73499500D01*
X162161309Y-73499500D01*
X162161306Y-73499500D01*
X161987341Y-73534103D01*
X161987332Y-73534106D01*
X161823459Y-73601983D01*
X161823446Y-73601990D01*
X161675965Y-73700535D01*
X161675961Y-73700538D01*
X161550538Y-73825961D01*
X161550535Y-73825965D01*
X161451990Y-73973446D01*
X161451983Y-73973459D01*
X161384106Y-74137332D01*
X161384104Y-74137340D01*
X161371617Y-74200118D01*
X161339232Y-74262028D01*
X161278516Y-74296603D01*
X161208747Y-74292863D01*
X161152075Y-74251996D01*
X161128383Y-74200118D01*
X161115895Y-74137340D01*
X161115894Y-74137334D01*
X161098923Y-74096363D01*
X161048016Y-73973459D01*
X161048009Y-73973446D01*
X160949464Y-73825965D01*
X160949461Y-73825961D01*
X160824038Y-73700538D01*
X160824034Y-73700535D01*
X160676553Y-73601990D01*
X160676540Y-73601983D01*
X160512667Y-73534106D01*
X160512658Y-73534103D01*
X160338694Y-73499500D01*
X160338691Y-73499500D01*
X160161309Y-73499500D01*
X160161306Y-73499500D01*
X159987341Y-73534103D01*
X159987332Y-73534106D01*
X159823459Y-73601983D01*
X159823446Y-73601990D01*
X159675965Y-73700535D01*
X159675961Y-73700538D01*
X159550538Y-73825961D01*
X159550535Y-73825965D01*
X159451990Y-73973446D01*
X159451983Y-73973459D01*
X159384106Y-74137332D01*
X159384104Y-74137340D01*
X159371617Y-74200118D01*
X159339232Y-74262028D01*
X159278516Y-74296603D01*
X159208747Y-74292863D01*
X159152075Y-74251996D01*
X159128383Y-74200118D01*
X159115895Y-74137340D01*
X159115894Y-74137334D01*
X159098923Y-74096363D01*
X159048016Y-73973459D01*
X159048009Y-73973446D01*
X158949464Y-73825965D01*
X158949461Y-73825961D01*
X158824038Y-73700538D01*
X158824034Y-73700535D01*
X158676553Y-73601990D01*
X158676540Y-73601983D01*
X158512667Y-73534106D01*
X158512658Y-73534103D01*
X158338694Y-73499500D01*
X158338691Y-73499500D01*
X158161309Y-73499500D01*
X158161306Y-73499500D01*
X157987341Y-73534103D01*
X157987332Y-73534106D01*
X157823459Y-73601983D01*
X157823446Y-73601990D01*
X157675965Y-73700535D01*
X157675961Y-73700538D01*
X157550538Y-73825961D01*
X157550535Y-73825965D01*
X157451990Y-73973446D01*
X157451983Y-73973459D01*
X157384106Y-74137332D01*
X157384104Y-74137340D01*
X157371617Y-74200118D01*
X157339232Y-74262028D01*
X157278516Y-74296603D01*
X157208747Y-74292863D01*
X157152075Y-74251996D01*
X157128383Y-74200118D01*
X157115895Y-74137340D01*
X157115894Y-74137334D01*
X157098923Y-74096363D01*
X157048016Y-73973459D01*
X157048009Y-73973446D01*
X156949464Y-73825965D01*
X156949461Y-73825961D01*
X156824038Y-73700538D01*
X156824034Y-73700535D01*
X156676553Y-73601990D01*
X156676540Y-73601983D01*
X156512667Y-73534106D01*
X156512658Y-73534103D01*
X156338694Y-73499500D01*
X156338691Y-73499500D01*
X156161309Y-73499500D01*
X156161306Y-73499500D01*
X155987341Y-73534103D01*
X155987332Y-73534106D01*
X155823459Y-73601983D01*
X155823446Y-73601990D01*
X155675965Y-73700535D01*
X155675961Y-73700538D01*
X155550538Y-73825961D01*
X155550535Y-73825965D01*
X155451990Y-73973446D01*
X155451983Y-73973459D01*
X155384106Y-74137332D01*
X155384104Y-74137340D01*
X155371617Y-74200118D01*
X155339232Y-74262028D01*
X155278516Y-74296603D01*
X155208747Y-74292863D01*
X155152075Y-74251996D01*
X155128383Y-74200118D01*
X155115895Y-74137340D01*
X155115894Y-74137334D01*
X155098923Y-74096363D01*
X155048016Y-73973459D01*
X155048009Y-73973446D01*
X154949464Y-73825965D01*
X154949461Y-73825961D01*
X154824038Y-73700538D01*
X154824034Y-73700535D01*
X154676553Y-73601990D01*
X154676540Y-73601983D01*
X154512667Y-73534106D01*
X154512658Y-73534103D01*
X154338694Y-73499500D01*
X154338691Y-73499500D01*
X154161309Y-73499500D01*
X154161306Y-73499500D01*
X153987341Y-73534103D01*
X153987332Y-73534106D01*
X153823459Y-73601983D01*
X153823446Y-73601990D01*
X153675965Y-73700535D01*
X153675961Y-73700538D01*
X153550538Y-73825961D01*
X153550535Y-73825965D01*
X153451990Y-73973446D01*
X153451983Y-73973459D01*
X153384106Y-74137332D01*
X153384103Y-74137341D01*
X153349500Y-74311304D01*
X151390500Y-74311304D01*
X151390500Y-72414108D01*
X190179500Y-72414108D01*
X190179500Y-72545892D01*
X190196554Y-72609539D01*
X190213608Y-72673187D01*
X190246554Y-72730250D01*
X190279500Y-72787314D01*
X190372686Y-72880500D01*
X190486814Y-72946392D01*
X190614108Y-72980500D01*
X190614110Y-72980500D01*
X190745890Y-72980500D01*
X190745892Y-72980500D01*
X190873186Y-72946392D01*
X190981065Y-72884108D01*
X197924500Y-72884108D01*
X197924500Y-73015891D01*
X197958608Y-73143187D01*
X197991554Y-73200250D01*
X198024500Y-73257314D01*
X198117686Y-73350500D01*
X198231814Y-73416392D01*
X198359108Y-73450500D01*
X198359110Y-73450500D01*
X198490890Y-73450500D01*
X198490892Y-73450500D01*
X198618186Y-73416392D01*
X198732314Y-73350500D01*
X198825500Y-73257314D01*
X198891392Y-73143186D01*
X198925500Y-73015892D01*
X198925500Y-72884108D01*
X198891392Y-72756814D01*
X198825500Y-72642686D01*
X198732314Y-72549500D01*
X198647442Y-72500499D01*
X198618187Y-72483608D01*
X198553931Y-72466391D01*
X198490892Y-72449500D01*
X198359108Y-72449500D01*
X198231812Y-72483608D01*
X198117686Y-72549500D01*
X198117683Y-72549502D01*
X198024502Y-72642683D01*
X198024500Y-72642686D01*
X197958608Y-72756812D01*
X197924500Y-72884108D01*
X190981065Y-72884108D01*
X190987314Y-72880500D01*
X191080500Y-72787314D01*
X191146392Y-72673186D01*
X191180500Y-72545892D01*
X191180500Y-72414108D01*
X191146392Y-72286814D01*
X191080500Y-72172686D01*
X190987314Y-72079500D01*
X190907410Y-72033367D01*
X190907409Y-72033366D01*
X190873188Y-72013609D01*
X190873187Y-72013608D01*
X190873186Y-72013608D01*
X190745892Y-71979500D01*
X190614108Y-71979500D01*
X190486812Y-72013608D01*
X190372686Y-72079500D01*
X190372683Y-72079502D01*
X190279502Y-72172683D01*
X190279500Y-72172686D01*
X190213608Y-72286812D01*
X190183147Y-72400497D01*
X190179500Y-72414108D01*
X151390500Y-72414108D01*
X151390500Y-71709108D01*
X175174500Y-71709108D01*
X175174500Y-71840891D01*
X175208608Y-71968187D01*
X175215140Y-71979500D01*
X175274500Y-72082314D01*
X175367686Y-72175500D01*
X175481814Y-72241392D01*
X175609108Y-72275500D01*
X175609110Y-72275500D01*
X175740890Y-72275500D01*
X175740892Y-72275500D01*
X175868186Y-72241392D01*
X175982314Y-72175500D01*
X176075500Y-72082314D01*
X176105113Y-72031023D01*
X176155680Y-71982807D01*
X176224287Y-71969585D01*
X176289152Y-71995553D01*
X176319887Y-72031023D01*
X176349500Y-72082314D01*
X176442686Y-72175500D01*
X176556814Y-72241392D01*
X176684108Y-72275500D01*
X176684110Y-72275500D01*
X176815890Y-72275500D01*
X176815892Y-72275500D01*
X176943186Y-72241392D01*
X177057314Y-72175500D01*
X177150500Y-72082314D01*
X177216392Y-71968186D01*
X177225523Y-71934108D01*
X200699500Y-71934108D01*
X200699500Y-72065891D01*
X200733608Y-72193187D01*
X200761439Y-72241391D01*
X200799500Y-72307314D01*
X200892686Y-72400500D01*
X201006814Y-72466392D01*
X201134108Y-72500500D01*
X201134110Y-72500500D01*
X201265890Y-72500500D01*
X201265892Y-72500500D01*
X201393186Y-72466392D01*
X201507314Y-72400500D01*
X201600500Y-72307314D01*
X201666392Y-72193186D01*
X201700500Y-72065892D01*
X201700500Y-71934108D01*
X201666392Y-71806814D01*
X201600500Y-71692686D01*
X201507314Y-71599500D01*
X201450250Y-71566554D01*
X201393187Y-71533608D01*
X201329539Y-71516554D01*
X201265892Y-71499500D01*
X201134108Y-71499500D01*
X201006812Y-71533608D01*
X200892686Y-71599500D01*
X200892683Y-71599502D01*
X200799502Y-71692683D01*
X200799500Y-71692686D01*
X200733608Y-71806812D01*
X200699500Y-71934108D01*
X177225523Y-71934108D01*
X177250500Y-71840892D01*
X177250500Y-71709108D01*
X177216392Y-71581814D01*
X177150500Y-71467686D01*
X177057314Y-71374500D01*
X177000250Y-71341554D01*
X176943187Y-71308608D01*
X176921645Y-71302836D01*
X176815892Y-71274500D01*
X176684108Y-71274500D01*
X176556812Y-71308608D01*
X176442686Y-71374500D01*
X176442683Y-71374502D01*
X176349502Y-71467683D01*
X176349500Y-71467686D01*
X176319887Y-71518977D01*
X176269319Y-71567192D01*
X176200712Y-71580414D01*
X176135847Y-71554446D01*
X176105113Y-71518977D01*
X176093868Y-71499500D01*
X176075500Y-71467686D01*
X175982314Y-71374500D01*
X175925250Y-71341554D01*
X175868187Y-71308608D01*
X175804539Y-71291554D01*
X175740892Y-71274500D01*
X175609108Y-71274500D01*
X175481812Y-71308608D01*
X175367686Y-71374500D01*
X175367683Y-71374502D01*
X175274502Y-71467683D01*
X175274500Y-71467686D01*
X175208608Y-71581812D01*
X175174500Y-71709108D01*
X151390500Y-71709108D01*
X151390500Y-71184108D01*
X195674500Y-71184108D01*
X195674500Y-71315891D01*
X195708608Y-71443187D01*
X195722751Y-71467683D01*
X195774500Y-71557314D01*
X195867686Y-71650500D01*
X195981814Y-71716392D01*
X196109108Y-71750500D01*
X196109110Y-71750500D01*
X196240890Y-71750500D01*
X196240892Y-71750500D01*
X196368186Y-71716392D01*
X196482314Y-71650500D01*
X196575500Y-71557314D01*
X196641392Y-71443186D01*
X196675500Y-71315892D01*
X196675500Y-71184108D01*
X196641392Y-71056814D01*
X196575500Y-70942686D01*
X196482314Y-70849500D01*
X196425250Y-70816554D01*
X196368187Y-70783608D01*
X196304539Y-70766554D01*
X196240892Y-70749500D01*
X196109108Y-70749500D01*
X195981812Y-70783608D01*
X195867686Y-70849500D01*
X195867683Y-70849502D01*
X195774502Y-70942683D01*
X195774500Y-70942686D01*
X195708608Y-71056812D01*
X195674500Y-71184108D01*
X151390500Y-71184108D01*
X151390500Y-69085258D01*
X161749500Y-69085258D01*
X161749500Y-69314741D01*
X161771025Y-69478229D01*
X161779452Y-69542238D01*
X161795063Y-69600499D01*
X161838842Y-69763887D01*
X161926650Y-69975876D01*
X161926657Y-69975890D01*
X162041392Y-70174617D01*
X162181081Y-70356661D01*
X162181089Y-70356670D01*
X162343330Y-70518911D01*
X162343338Y-70518918D01*
X162525382Y-70658607D01*
X162525385Y-70658608D01*
X162525388Y-70658611D01*
X162724112Y-70773344D01*
X162724117Y-70773346D01*
X162724123Y-70773349D01*
X162748891Y-70783608D01*
X162936113Y-70861158D01*
X163157762Y-70920548D01*
X163385266Y-70950500D01*
X163385273Y-70950500D01*
X163614727Y-70950500D01*
X163614734Y-70950500D01*
X163842238Y-70920548D01*
X164063887Y-70861158D01*
X164275888Y-70773344D01*
X164474612Y-70658611D01*
X164656661Y-70518919D01*
X164656665Y-70518914D01*
X164656670Y-70518911D01*
X164818911Y-70356670D01*
X164818914Y-70356665D01*
X164818919Y-70356661D01*
X164958611Y-70174612D01*
X165073344Y-69975888D01*
X165161158Y-69763887D01*
X165195932Y-69634108D01*
X208199500Y-69634108D01*
X208199500Y-69765891D01*
X208233608Y-69893187D01*
X208266554Y-69950250D01*
X208299500Y-70007314D01*
X208392686Y-70100500D01*
X208506814Y-70166392D01*
X208634108Y-70200500D01*
X208634110Y-70200500D01*
X208765890Y-70200500D01*
X208765892Y-70200500D01*
X208893186Y-70166392D01*
X209007314Y-70100500D01*
X209100500Y-70007314D01*
X209166392Y-69893186D01*
X209200500Y-69765892D01*
X209200500Y-69634108D01*
X209166392Y-69506814D01*
X209100500Y-69392686D01*
X209007314Y-69299500D01*
X208950250Y-69266554D01*
X208893187Y-69233608D01*
X208829539Y-69216554D01*
X208765892Y-69199500D01*
X208634108Y-69199500D01*
X208506812Y-69233608D01*
X208392686Y-69299500D01*
X208392683Y-69299502D01*
X208299502Y-69392683D01*
X208299500Y-69392686D01*
X208233608Y-69506812D01*
X208199500Y-69634108D01*
X165195932Y-69634108D01*
X165220548Y-69542238D01*
X165250500Y-69314734D01*
X165250500Y-69085266D01*
X165220548Y-68857762D01*
X165161158Y-68636113D01*
X165073344Y-68424112D01*
X165004871Y-68305513D01*
X196770285Y-68305513D01*
X196770285Y-68494486D01*
X196799844Y-68681118D01*
X196858239Y-68860836D01*
X196944025Y-69029199D01*
X197055095Y-69182073D01*
X197188712Y-69315690D01*
X197341586Y-69426760D01*
X197421132Y-69467290D01*
X197509948Y-69512545D01*
X197509950Y-69512545D01*
X197509953Y-69512547D01*
X197601304Y-69542229D01*
X197689666Y-69570940D01*
X197876299Y-69600500D01*
X197876304Y-69600500D01*
X198065271Y-69600500D01*
X198251903Y-69570940D01*
X198431617Y-69512547D01*
X198599984Y-69426760D01*
X198752858Y-69315690D01*
X198886475Y-69182073D01*
X198997545Y-69029199D01*
X199083332Y-68860832D01*
X199141725Y-68681118D01*
X199148853Y-68636112D01*
X199171285Y-68494486D01*
X199171285Y-68305513D01*
X199141725Y-68118881D01*
X199083330Y-67939163D01*
X198997544Y-67770800D01*
X198886475Y-67617927D01*
X198752858Y-67484310D01*
X198609628Y-67380247D01*
X201770285Y-67380247D01*
X201770285Y-69419752D01*
X201781916Y-69478229D01*
X201781917Y-69478230D01*
X201826232Y-69544552D01*
X201892554Y-69588867D01*
X201892555Y-69588868D01*
X201951032Y-69600499D01*
X201951035Y-69600500D01*
X201951037Y-69600500D01*
X203990535Y-69600500D01*
X203990536Y-69600499D01*
X204005353Y-69597552D01*
X204049014Y-69588868D01*
X204049014Y-69588867D01*
X204049016Y-69588867D01*
X204115337Y-69544552D01*
X204159652Y-69478231D01*
X204159652Y-69478229D01*
X204159653Y-69478229D01*
X204171284Y-69419752D01*
X204171285Y-69419750D01*
X204171285Y-67380249D01*
X204171284Y-67380247D01*
X204159653Y-67321770D01*
X204159652Y-67321769D01*
X204115337Y-67255447D01*
X204049015Y-67211132D01*
X204049014Y-67211131D01*
X203990537Y-67199500D01*
X203990533Y-67199500D01*
X201951037Y-67199500D01*
X201951032Y-67199500D01*
X201892555Y-67211131D01*
X201892554Y-67211132D01*
X201826232Y-67255447D01*
X201781917Y-67321769D01*
X201781916Y-67321770D01*
X201770285Y-67380247D01*
X198609628Y-67380247D01*
X198599984Y-67373240D01*
X198431621Y-67287454D01*
X198251903Y-67229059D01*
X198065271Y-67199500D01*
X198065266Y-67199500D01*
X197876304Y-67199500D01*
X197876299Y-67199500D01*
X197689666Y-67229059D01*
X197509948Y-67287454D01*
X197341585Y-67373240D01*
X197254364Y-67436610D01*
X197188712Y-67484310D01*
X197188710Y-67484312D01*
X197188709Y-67484312D01*
X197055097Y-67617924D01*
X197055097Y-67617925D01*
X197055095Y-67617927D01*
X197007395Y-67683579D01*
X196944025Y-67770800D01*
X196858239Y-67939163D01*
X196799844Y-68118881D01*
X196770285Y-68305513D01*
X165004871Y-68305513D01*
X164958611Y-68225388D01*
X164958608Y-68225385D01*
X164958607Y-68225382D01*
X164818918Y-68043338D01*
X164818911Y-68043330D01*
X164656670Y-67881089D01*
X164656661Y-67881081D01*
X164474617Y-67741392D01*
X164275890Y-67626657D01*
X164275876Y-67626650D01*
X164063887Y-67538842D01*
X163842238Y-67479452D01*
X163804215Y-67474446D01*
X163614741Y-67449500D01*
X163614734Y-67449500D01*
X163385266Y-67449500D01*
X163385258Y-67449500D01*
X163168715Y-67478009D01*
X163157762Y-67479452D01*
X163064076Y-67504554D01*
X162936112Y-67538842D01*
X162724123Y-67626650D01*
X162724109Y-67626657D01*
X162525382Y-67741392D01*
X162343338Y-67881081D01*
X162181081Y-68043338D01*
X162041392Y-68225382D01*
X161926657Y-68424109D01*
X161926650Y-68424123D01*
X161838842Y-68636112D01*
X161779453Y-68857759D01*
X161779451Y-68857770D01*
X161749500Y-69085258D01*
X151390500Y-69085258D01*
X151390500Y-66269108D01*
X211039500Y-66269108D01*
X211039500Y-66400891D01*
X211073608Y-66528187D01*
X211106554Y-66585250D01*
X211139500Y-66642314D01*
X211232686Y-66735500D01*
X211346814Y-66801392D01*
X211474108Y-66835500D01*
X211474110Y-66835500D01*
X211605890Y-66835500D01*
X211605892Y-66835500D01*
X211733186Y-66801392D01*
X211847314Y-66735500D01*
X211940500Y-66642314D01*
X212006392Y-66528186D01*
X212040500Y-66400892D01*
X212040500Y-66269108D01*
X212006392Y-66141814D01*
X211940500Y-66027686D01*
X211847314Y-65934500D01*
X211790250Y-65901554D01*
X211733187Y-65868608D01*
X211669539Y-65851554D01*
X211605892Y-65834500D01*
X211474108Y-65834500D01*
X211346812Y-65868608D01*
X211232686Y-65934500D01*
X211232683Y-65934502D01*
X211139502Y-66027683D01*
X211139500Y-66027686D01*
X211073608Y-66141812D01*
X211039500Y-66269108D01*
X151390500Y-66269108D01*
X151390500Y-65309108D01*
X202574500Y-65309108D01*
X202574500Y-65440891D01*
X202608608Y-65568187D01*
X202641554Y-65625250D01*
X202674500Y-65682314D01*
X202767686Y-65775500D01*
X202881814Y-65841392D01*
X203009108Y-65875500D01*
X203009110Y-65875500D01*
X203140890Y-65875500D01*
X203140892Y-65875500D01*
X203268186Y-65841392D01*
X203382314Y-65775500D01*
X203475500Y-65682314D01*
X203541392Y-65568186D01*
X203575500Y-65440892D01*
X203575500Y-65309108D01*
X203541392Y-65181814D01*
X203475500Y-65067686D01*
X203382314Y-64974500D01*
X203288867Y-64920548D01*
X203268187Y-64908608D01*
X203204539Y-64891554D01*
X203140892Y-64874500D01*
X203009108Y-64874500D01*
X202881812Y-64908608D01*
X202767686Y-64974500D01*
X202767683Y-64974502D01*
X202674502Y-65067683D01*
X202674500Y-65067686D01*
X202608608Y-65181812D01*
X202574500Y-65309108D01*
X151390500Y-65309108D01*
X151390500Y-63085258D01*
X152149500Y-63085258D01*
X152149500Y-63314741D01*
X152162665Y-63414734D01*
X152179452Y-63542238D01*
X152179453Y-63542240D01*
X152238842Y-63763887D01*
X152326650Y-63975876D01*
X152326657Y-63975890D01*
X152441392Y-64174617D01*
X152581081Y-64356661D01*
X152581089Y-64356670D01*
X152743330Y-64518911D01*
X152743338Y-64518918D01*
X152925382Y-64658607D01*
X152925385Y-64658608D01*
X152925388Y-64658611D01*
X153124112Y-64773344D01*
X153124117Y-64773346D01*
X153124123Y-64773349D01*
X153215480Y-64811190D01*
X153336113Y-64861158D01*
X153557762Y-64920548D01*
X153785266Y-64950500D01*
X153785273Y-64950500D01*
X154014727Y-64950500D01*
X154014734Y-64950500D01*
X154242238Y-64920548D01*
X154463887Y-64861158D01*
X154675888Y-64773344D01*
X154874612Y-64658611D01*
X155056661Y-64518919D01*
X155056665Y-64518914D01*
X155056670Y-64518911D01*
X155218911Y-64356670D01*
X155218914Y-64356665D01*
X155218919Y-64356661D01*
X155358611Y-64174612D01*
X155473344Y-63975888D01*
X155561158Y-63763887D01*
X155620548Y-63542238D01*
X155637457Y-63413796D01*
X155641366Y-63384108D01*
X201524500Y-63384108D01*
X201524500Y-63515891D01*
X201558608Y-63643187D01*
X201591554Y-63700250D01*
X201624500Y-63757314D01*
X201717686Y-63850500D01*
X201831814Y-63916392D01*
X201959108Y-63950500D01*
X201959110Y-63950500D01*
X202090890Y-63950500D01*
X202090892Y-63950500D01*
X202218186Y-63916392D01*
X202332314Y-63850500D01*
X202425500Y-63757314D01*
X202491392Y-63643186D01*
X202525500Y-63515892D01*
X202525500Y-63384108D01*
X202491392Y-63256814D01*
X202450079Y-63185258D01*
X216449500Y-63185258D01*
X216449500Y-63414741D01*
X216474446Y-63604215D01*
X216479452Y-63642238D01*
X216535254Y-63850497D01*
X216538842Y-63863887D01*
X216626650Y-64075876D01*
X216626657Y-64075890D01*
X216741392Y-64274617D01*
X216881081Y-64456661D01*
X216881089Y-64456670D01*
X217043330Y-64618911D01*
X217043338Y-64618918D01*
X217225382Y-64758607D01*
X217225385Y-64758608D01*
X217225388Y-64758611D01*
X217424112Y-64873344D01*
X217424117Y-64873346D01*
X217424123Y-64873349D01*
X217515480Y-64911190D01*
X217636113Y-64961158D01*
X217857762Y-65020548D01*
X218085266Y-65050500D01*
X218085273Y-65050500D01*
X218314727Y-65050500D01*
X218314734Y-65050500D01*
X218542238Y-65020548D01*
X218763887Y-64961158D01*
X218975888Y-64873344D01*
X219174612Y-64758611D01*
X219356661Y-64618919D01*
X219356665Y-64618914D01*
X219356670Y-64618911D01*
X219518911Y-64456670D01*
X219518914Y-64456665D01*
X219518919Y-64456661D01*
X219658611Y-64274612D01*
X219773344Y-64075888D01*
X219861158Y-63863887D01*
X219920548Y-63642238D01*
X219950500Y-63414734D01*
X219950500Y-63185266D01*
X219920548Y-62957762D01*
X219861158Y-62736113D01*
X219773344Y-62524112D01*
X219658611Y-62325388D01*
X219658608Y-62325385D01*
X219658607Y-62325382D01*
X219518918Y-62143338D01*
X219518911Y-62143330D01*
X219356670Y-61981089D01*
X219356661Y-61981081D01*
X219174617Y-61841392D01*
X218975890Y-61726657D01*
X218975876Y-61726650D01*
X218763887Y-61638842D01*
X218718411Y-61626657D01*
X218542238Y-61579452D01*
X218504215Y-61574446D01*
X218314741Y-61549500D01*
X218314734Y-61549500D01*
X218085266Y-61549500D01*
X218085258Y-61549500D01*
X217868715Y-61578009D01*
X217857762Y-61579452D01*
X217764076Y-61604554D01*
X217636112Y-61638842D01*
X217424123Y-61726650D01*
X217424109Y-61726657D01*
X217225382Y-61841392D01*
X217043338Y-61981081D01*
X216881081Y-62143338D01*
X216741392Y-62325382D01*
X216626657Y-62524109D01*
X216626650Y-62524123D01*
X216538842Y-62736112D01*
X216479453Y-62957759D01*
X216479451Y-62957770D01*
X216449500Y-63185258D01*
X202450079Y-63185258D01*
X202425500Y-63142686D01*
X202332314Y-63049500D01*
X202275250Y-63016554D01*
X202218187Y-62983608D01*
X202121715Y-62957759D01*
X202090892Y-62949500D01*
X201959108Y-62949500D01*
X201831812Y-62983608D01*
X201717686Y-63049500D01*
X201717683Y-63049502D01*
X201624502Y-63142683D01*
X201624500Y-63142686D01*
X201558608Y-63256812D01*
X201524500Y-63384108D01*
X155641366Y-63384108D01*
X155644568Y-63359795D01*
X155644568Y-63359794D01*
X155646638Y-63344067D01*
X155650500Y-63314734D01*
X155650500Y-63085266D01*
X155620548Y-62857762D01*
X155561158Y-62636113D01*
X155473344Y-62424112D01*
X155358611Y-62225388D01*
X155358608Y-62225385D01*
X155358607Y-62225382D01*
X155218918Y-62043338D01*
X155218911Y-62043330D01*
X155056670Y-61881089D01*
X155056661Y-61881081D01*
X154874617Y-61741392D01*
X154849093Y-61726656D01*
X154675888Y-61626656D01*
X154675876Y-61626650D01*
X154463887Y-61538842D01*
X154242238Y-61479452D01*
X154204215Y-61474446D01*
X154014741Y-61449500D01*
X154014734Y-61449500D01*
X153785266Y-61449500D01*
X153785258Y-61449500D01*
X153568715Y-61478009D01*
X153557762Y-61479452D01*
X153464076Y-61504554D01*
X153336112Y-61538842D01*
X153124123Y-61626650D01*
X153124109Y-61626657D01*
X152925382Y-61741392D01*
X152743338Y-61881081D01*
X152581081Y-62043338D01*
X152441392Y-62225382D01*
X152326657Y-62424109D01*
X152326650Y-62424123D01*
X152238842Y-62636112D01*
X152179453Y-62857759D01*
X152179451Y-62857770D01*
X152149500Y-63085258D01*
X151390500Y-63085258D01*
X151390500Y-60854500D01*
X151410185Y-60787461D01*
X151462989Y-60741706D01*
X151514500Y-60730500D01*
X220765500Y-60730500D01*
X220832539Y-60750185D01*
G37*
%TD.AperFunction*%
%TD*%
M02*
