%TF.GenerationSoftware,KiCad,Pcbnew,9.0.6*%
%TF.CreationDate,2026-01-07T02:43:41-03:00*%
%TF.ProjectId,flight_comp_srad-2026,666c6967-6874-45f6-936f-6d705f737261,rev?*%
%TF.SameCoordinates,Original*%
%TF.FileFunction,Copper,L1,Top*%
%TF.FilePolarity,Positive*%
%FSLAX46Y46*%
G04 Gerber Fmt 4.6, Leading zero omitted, Abs format (unit mm)*
G04 Created by KiCad (PCBNEW 9.0.6) date 2026-01-07 02:43:41*
%MOMM*%
%LPD*%
G01*
G04 APERTURE LIST*
G04 Aperture macros list*
%AMRoundRect*
0 Rectangle with rounded corners*
0 $1 Rounding radius*
0 $2 $3 $4 $5 $6 $7 $8 $9 X,Y pos of 4 corners*
0 Add a 4 corners polygon primitive as box body*
4,1,4,$2,$3,$4,$5,$6,$7,$8,$9,$2,$3,0*
0 Add four circle primitives for the rounded corners*
1,1,$1+$1,$2,$3*
1,1,$1+$1,$4,$5*
1,1,$1+$1,$6,$7*
1,1,$1+$1,$8,$9*
0 Add four rect primitives between the rounded corners*
20,1,$1+$1,$2,$3,$4,$5,0*
20,1,$1+$1,$4,$5,$6,$7,0*
20,1,$1+$1,$6,$7,$8,$9,0*
20,1,$1+$1,$8,$9,$2,$3,0*%
G04 Aperture macros list end*
%TA.AperFunction,SMDPad,CuDef*%
%ADD10R,1.050000X0.650000*%
%TD*%
%TA.AperFunction,SMDPad,CuDef*%
%ADD11RoundRect,0.135000X0.185000X-0.135000X0.185000X0.135000X-0.185000X0.135000X-0.185000X-0.135000X0*%
%TD*%
%TA.AperFunction,ComponentPad*%
%ADD12R,2.000000X2.000000*%
%TD*%
%TA.AperFunction,ComponentPad*%
%ADD13C,2.000000*%
%TD*%
%TA.AperFunction,SMDPad,CuDef*%
%ADD14RoundRect,0.135000X-0.135000X-0.185000X0.135000X-0.185000X0.135000X0.185000X-0.135000X0.185000X0*%
%TD*%
%TA.AperFunction,SMDPad,CuDef*%
%ADD15RoundRect,0.140000X-0.140000X-0.170000X0.140000X-0.170000X0.140000X0.170000X-0.140000X0.170000X0*%
%TD*%
%TA.AperFunction,SMDPad,CuDef*%
%ADD16RoundRect,0.100000X0.130000X0.100000X-0.130000X0.100000X-0.130000X-0.100000X0.130000X-0.100000X0*%
%TD*%
%TA.AperFunction,SMDPad,CuDef*%
%ADD17RoundRect,0.140000X-0.170000X0.140000X-0.170000X-0.140000X0.170000X-0.140000X0.170000X0.140000X0*%
%TD*%
%TA.AperFunction,SMDPad,CuDef*%
%ADD18RoundRect,0.135000X-0.185000X0.135000X-0.185000X-0.135000X0.185000X-0.135000X0.185000X0.135000X0*%
%TD*%
%TA.AperFunction,SMDPad,CuDef*%
%ADD19R,0.700000X1.100000*%
%TD*%
%TA.AperFunction,SMDPad,CuDef*%
%ADD20R,0.900000X0.930000*%
%TD*%
%TA.AperFunction,SMDPad,CuDef*%
%ADD21R,1.050000X0.780000*%
%TD*%
%TA.AperFunction,SMDPad,CuDef*%
%ADD22R,1.140000X1.830000*%
%TD*%
%TA.AperFunction,SMDPad,CuDef*%
%ADD23R,0.860000X2.800000*%
%TD*%
%TA.AperFunction,SMDPad,CuDef*%
%ADD24R,0.700000X3.330000*%
%TD*%
%TA.AperFunction,SMDPad,CuDef*%
%ADD25RoundRect,0.050000X-0.050000X0.387500X-0.050000X-0.387500X0.050000X-0.387500X0.050000X0.387500X0*%
%TD*%
%TA.AperFunction,SMDPad,CuDef*%
%ADD26RoundRect,0.050000X-0.387500X0.050000X-0.387500X-0.050000X0.387500X-0.050000X0.387500X0.050000X0*%
%TD*%
%TA.AperFunction,HeatsinkPad*%
%ADD27C,0.500000*%
%TD*%
%TA.AperFunction,HeatsinkPad*%
%ADD28R,3.200000X3.200000*%
%TD*%
%TA.AperFunction,SMDPad,CuDef*%
%ADD29RoundRect,0.100000X-0.100000X0.130000X-0.100000X-0.130000X0.100000X-0.130000X0.100000X0.130000X0*%
%TD*%
%TA.AperFunction,SMDPad,CuDef*%
%ADD30RoundRect,0.250000X-0.250000X-0.475000X0.250000X-0.475000X0.250000X0.475000X-0.250000X0.475000X0*%
%TD*%
%TA.AperFunction,SMDPad,CuDef*%
%ADD31R,0.700000X1.800000*%
%TD*%
%TA.AperFunction,SMDPad,CuDef*%
%ADD32R,0.800000X1.800000*%
%TD*%
%TA.AperFunction,SMDPad,CuDef*%
%ADD33RoundRect,0.218750X0.256250X-0.218750X0.256250X0.218750X-0.256250X0.218750X-0.256250X-0.218750X0*%
%TD*%
%TA.AperFunction,SMDPad,CuDef*%
%ADD34R,1.050000X1.300000*%
%TD*%
%TA.AperFunction,SMDPad,CuDef*%
%ADD35R,1.650000X0.400000*%
%TD*%
%TA.AperFunction,SMDPad,CuDef*%
%ADD36R,0.700000X1.825000*%
%TD*%
%TA.AperFunction,SMDPad,CuDef*%
%ADD37R,1.500000X2.000000*%
%TD*%
%TA.AperFunction,SMDPad,CuDef*%
%ADD38R,2.000000X1.350000*%
%TD*%
%TA.AperFunction,HeatsinkPad*%
%ADD39O,1.700000X1.350000*%
%TD*%
%TA.AperFunction,HeatsinkPad*%
%ADD40O,1.500000X1.100000*%
%TD*%
%TA.AperFunction,SMDPad,CuDef*%
%ADD41R,2.500000X1.430000*%
%TD*%
%TA.AperFunction,ComponentPad*%
%ADD42R,1.400000X1.400000*%
%TD*%
%TA.AperFunction,ComponentPad*%
%ADD43C,1.400000*%
%TD*%
%TA.AperFunction,SMDPad,CuDef*%
%ADD44R,0.800000X0.650000*%
%TD*%
%TA.AperFunction,SMDPad,CuDef*%
%ADD45R,0.800000X1.600000*%
%TD*%
%TA.AperFunction,SMDPad,CuDef*%
%ADD46RoundRect,0.162500X-0.162500X0.650000X-0.162500X-0.650000X0.162500X-0.650000X0.162500X0.650000X0*%
%TD*%
%TA.AperFunction,SMDPad,CuDef*%
%ADD47RoundRect,0.375000X0.625000X0.375000X-0.625000X0.375000X-0.625000X-0.375000X0.625000X-0.375000X0*%
%TD*%
%TA.AperFunction,SMDPad,CuDef*%
%ADD48RoundRect,0.500000X0.500000X1.400000X-0.500000X1.400000X-0.500000X-1.400000X0.500000X-1.400000X0*%
%TD*%
%TA.AperFunction,ViaPad*%
%ADD49C,0.400000*%
%TD*%
%TA.AperFunction,ViaPad*%
%ADD50C,0.600000*%
%TD*%
%TA.AperFunction,Conductor*%
%ADD51C,0.400000*%
%TD*%
%TA.AperFunction,Conductor*%
%ADD52C,0.200000*%
%TD*%
%TA.AperFunction,Conductor*%
%ADD53C,0.500000*%
%TD*%
G04 APERTURE END LIST*
D10*
%TO.P,S1,1,NO_1*%
%TO.N,/~{USB_BOOT}*%
X219100000Y-71400000D03*
%TO.P,S1,2,NO_2*%
X214950000Y-71400000D03*
%TO.P,S1,3,COM_1*%
%TO.N,GND*%
X219100000Y-69250000D03*
%TO.P,S1,4,COM_2*%
X214950000Y-69250000D03*
%TD*%
D11*
%TO.P,RI2C_4,1*%
%TO.N,/RP_SDA0*%
X195200000Y-80000000D03*
%TO.P,RI2C_4,2*%
%TO.N,+3V3*%
X195200000Y-78980000D03*
%TD*%
D12*
%TO.P,J2,1,1*%
%TO.N,GND*%
X192020000Y-98700000D03*
D13*
%TO.P,J2,2,2*%
%TO.N,/SWDIO*%
X194560000Y-98700000D03*
%TO.P,J2,3,3*%
%TO.N,/SWCLK*%
X197100000Y-98700000D03*
%TD*%
D14*
%TO.P,RI2C_2,1*%
%TO.N,/RP_SDA1*%
X200670000Y-80787500D03*
%TO.P,RI2C_2,2*%
%TO.N,+3V3*%
X201690000Y-80787500D03*
%TD*%
D15*
%TO.P,CGPS_2,1*%
%TO.N,+3V3*%
X182242418Y-82400000D03*
%TO.P,CGPS_2,2*%
%TO.N,GND*%
X183202418Y-82400000D03*
%TD*%
D16*
%TO.P,CX_2,1*%
%TO.N,GND*%
X193475000Y-82500000D03*
%TO.P,CX_2,2*%
%TO.N,Net-(CX_2-Pad2)*%
X192835000Y-82500000D03*
%TD*%
D15*
%TO.P,C16,1*%
%TO.N,+3V3*%
X202740000Y-81400000D03*
%TO.P,C16,2*%
%TO.N,GND*%
X203700000Y-81400000D03*
%TD*%
D17*
%TO.P,C14,1*%
%TO.N,+3V3*%
X199400000Y-91440000D03*
%TO.P,C14,2*%
%TO.N,GND*%
X199400000Y-92400000D03*
%TD*%
D18*
%TO.P,Div_res_bat1,1*%
%TO.N,/ADC_BAT*%
X203800000Y-94090000D03*
%TO.P,Div_res_bat1,2*%
%TO.N,VBUS*%
X203800000Y-95110000D03*
%TD*%
D19*
%TO.P,J1,1,DAT2*%
%TO.N,/SD_DAT2*%
X184820000Y-98865000D03*
%TO.P,J1,2,CD/DAT3^2*%
%TO.N,/SD_DAT3*%
X183720000Y-98865000D03*
%TO.P,J1,3,CMD*%
%TO.N,/SD_CMD*%
X182620000Y-98865000D03*
%TO.P,J1,4,VDD*%
%TO.N,+3V3*%
X181520000Y-98865000D03*
%TO.P,J1,5,CLK*%
%TO.N,/SD_CLK*%
X180420000Y-98865000D03*
%TO.P,J1,6,VSS*%
%TO.N,GND*%
X179320000Y-98865000D03*
%TO.P,J1,7,DAT0*%
%TO.N,/SD_DAT0*%
X178220000Y-98865000D03*
%TO.P,J1,8,DAT1*%
%TO.N,/SD_DAT1*%
X177120000Y-98865000D03*
D20*
%TO.P,J1,9,VSS__1*%
%TO.N,GND*%
X186610000Y-86400000D03*
D21*
%TO.P,J1,10,DETECT_SWITCH*%
%TO.N,/SD_DS*%
X182345000Y-86325000D03*
D22*
%TO.P,J1,P1,SHIELD*%
%TO.N,GND*%
X188700000Y-98850000D03*
D23*
%TO.P,J1,P2,SHIELD__1*%
X176040000Y-98365000D03*
D24*
%TO.P,J1,P3,SHIELD__2*%
X188920000Y-87600000D03*
%TO.P,J1,P4,SHIELD__3*%
X175960000Y-87600000D03*
%TD*%
D25*
%TO.P,U3,1,IOVDD*%
%TO.N,+3V3*%
X202670000Y-82742500D03*
%TO.P,U3,2,GPIO0*%
%TO.N,unconnected-(U3-GPIO0-Pad2)*%
X202270000Y-82742500D03*
%TO.P,U3,3,GPIO1*%
%TO.N,unconnected-(U3-GPIO1-Pad3)*%
X201870000Y-82742500D03*
%TO.P,U3,4,GPIO2*%
%TO.N,/RP_SDA1*%
X201470000Y-82742500D03*
%TO.P,U3,5,GPIO3*%
%TO.N,/RP_SCL1*%
X201070000Y-82742500D03*
%TO.P,U3,6,GPIO4*%
%TO.N,unconnected-(U3-GPIO4-Pad6)*%
X200670000Y-82742500D03*
%TO.P,U3,7,GPIO5*%
%TO.N,unconnected-(U3-GPIO5-Pad7)*%
X200270000Y-82742500D03*
%TO.P,U3,8,GPIO6*%
%TO.N,unconnected-(U3-GPIO6-Pad8)*%
X199870000Y-82742500D03*
%TO.P,U3,9,GPIO7*%
%TO.N,unconnected-(U3-GPIO7-Pad9)*%
X199470000Y-82742500D03*
%TO.P,U3,10,IOVDD*%
%TO.N,+3V3*%
X199070000Y-82742500D03*
%TO.P,U3,11,GPIO8*%
%TO.N,/IIM_MISO1*%
X198670000Y-82742500D03*
%TO.P,U3,12,GPIO9*%
%TO.N,/IIM_CS1*%
X198270000Y-82742500D03*
%TO.P,U3,13,GPIO10*%
%TO.N,/IIM_SCLK1*%
X197870000Y-82742500D03*
%TO.P,U3,14,GPIO11*%
%TO.N,/IIM_MOSI1*%
X197470000Y-82742500D03*
D26*
%TO.P,U3,15,GPIO12*%
%TO.N,/RP_SDA0*%
X196632500Y-83580000D03*
%TO.P,U3,16,GPIO13*%
%TO.N,/RP_SCL0*%
X196632500Y-83980000D03*
%TO.P,U3,17,GPIO14*%
%TO.N,unconnected-(U3-GPIO14-Pad17)*%
X196632500Y-84380000D03*
%TO.P,U3,18,GPIO15*%
%TO.N,unconnected-(U3-GPIO15-Pad18)*%
X196632500Y-84780000D03*
%TO.P,U3,19,TESTEN*%
%TO.N,GND*%
X196632500Y-85180000D03*
%TO.P,U3,20,XIN*%
%TO.N,/XIN*%
X196632500Y-85580000D03*
%TO.P,U3,21,XOUT*%
%TO.N,/XOUT*%
X196632500Y-85980000D03*
%TO.P,U3,22,IOVDD*%
%TO.N,+3V3*%
X196632500Y-86380000D03*
%TO.P,U3,23,DVDD*%
%TO.N,+1V1*%
X196632500Y-86780000D03*
%TO.P,U3,24,SWCLK*%
%TO.N,/SWCLK*%
X196632500Y-87180000D03*
%TO.P,U3,25,SWD*%
%TO.N,/SWDIO*%
X196632500Y-87580000D03*
%TO.P,U3,26,RUN*%
%TO.N,/RUN*%
X196632500Y-87980000D03*
%TO.P,U3,27,GPIO16*%
%TO.N,/UART_Tx0*%
X196632500Y-88380000D03*
%TO.P,U3,28,GPIO17*%
%TO.N,/UART_Rx0*%
X196632500Y-88780000D03*
D25*
%TO.P,U3,29,GPIO18*%
%TO.N,/SD_CMD*%
X197470000Y-89617500D03*
%TO.P,U3,30,GPIO19*%
%TO.N,/SD_DAT0*%
X197870000Y-89617500D03*
%TO.P,U3,31,GPIO20*%
%TO.N,/SD_DAT1*%
X198270000Y-89617500D03*
%TO.P,U3,32,GPIO21*%
%TO.N,/SD_DAT2*%
X198670000Y-89617500D03*
%TO.P,U3,33,IOVDD*%
%TO.N,+3V3*%
X199070000Y-89617500D03*
%TO.P,U3,34,GPIO22*%
%TO.N,/SD_DAT3*%
X199470000Y-89617500D03*
%TO.P,U3,35,GPIO23*%
%TO.N,unconnected-(U3-GPIO23-Pad35)*%
X199870000Y-89617500D03*
%TO.P,U3,36,GPIO24*%
%TO.N,/LED_1*%
X200270000Y-89617500D03*
%TO.P,U3,37,GPIO25*%
%TO.N,/LED_2*%
X200670000Y-89617500D03*
%TO.P,U3,38,GPIO26_ADC0*%
%TO.N,unconnected-(U3-GPIO26_ADC0-Pad38)*%
X201070000Y-89617500D03*
%TO.P,U3,39,GPIO27_ADC1*%
%TO.N,unconnected-(U3-GPIO27_ADC1-Pad39)*%
X201470000Y-89617500D03*
%TO.P,U3,40,GPIO28_ADC2*%
%TO.N,/ADC_BAT*%
X201870000Y-89617500D03*
%TO.P,U3,41,GPIO29_ADC3*%
%TO.N,unconnected-(U3-GPIO29_ADC3-Pad41)*%
X202270000Y-89617500D03*
%TO.P,U3,42,IOVDD*%
%TO.N,+3V3*%
X202670000Y-89617500D03*
D26*
%TO.P,U3,43,ADC_AVDD*%
X203507500Y-88780000D03*
%TO.P,U3,44,VREG_IN*%
X203507500Y-88380000D03*
%TO.P,U3,45,VREG_VOUT*%
%TO.N,+1V1*%
X203507500Y-87980000D03*
%TO.P,U3,46,USB_DM*%
%TO.N,/USB_R-*%
X203507500Y-87580000D03*
%TO.P,U3,47,USB_DP*%
%TO.N,/USB_R+*%
X203507500Y-87180000D03*
%TO.P,U3,48,USB_VDD*%
%TO.N,+3V3*%
X203507500Y-86780000D03*
%TO.P,U3,49,IOVDD*%
X203507500Y-86380000D03*
%TO.P,U3,50,DVDD*%
%TO.N,+1V1*%
X203507500Y-85980000D03*
%TO.P,U3,51,QSPI_SD3*%
%TO.N,/QSPI_SD3*%
X203507500Y-85580000D03*
%TO.P,U3,52,QSPI_SCLK*%
%TO.N,/QSPI_SCLK*%
X203507500Y-85180000D03*
%TO.P,U3,53,QSPI_SD0*%
%TO.N,/QSPI_SD0*%
X203507500Y-84780000D03*
%TO.P,U3,54,QSPI_SD2*%
%TO.N,/QSPI_SD2*%
X203507500Y-84380000D03*
%TO.P,U3,55,QSPI_SD1*%
%TO.N,/QSPI_SD1*%
X203507500Y-83980000D03*
%TO.P,U3,56,QSPI_SS*%
%TO.N,/QSPI_SS*%
X203507500Y-83580000D03*
D27*
%TO.P,U3,57,GND*%
%TO.N,GND*%
X201420000Y-84830000D03*
X198720000Y-84830000D03*
D28*
X200070000Y-86180000D03*
D27*
X201420000Y-87530000D03*
X198720000Y-87530000D03*
%TD*%
D11*
%TO.P,RL_2,1*%
%TO.N,GND*%
X202200000Y-99685000D03*
%TO.P,RL_2,2*%
%TO.N,Net-(D2-K)*%
X202200000Y-98665000D03*
%TD*%
D29*
%TO.P,CX_1,1*%
%TO.N,GND*%
X195250000Y-84725000D03*
%TO.P,CX_1,2*%
%TO.N,/XIN*%
X195250000Y-85365000D03*
%TD*%
D15*
%TO.P,CGPS_3,1*%
%TO.N,+3V3*%
X182244837Y-83406049D03*
%TO.P,CGPS_3,2*%
%TO.N,GND*%
X183204837Y-83406049D03*
%TD*%
D14*
%TO.P,R_RST1,1*%
%TO.N,+3V3*%
X191490000Y-88200000D03*
%TO.P,R_RST1,2*%
%TO.N,/RUN*%
X192510000Y-88200000D03*
%TD*%
D15*
%TO.P,CGPS_1,1*%
%TO.N,+3V3*%
X182242418Y-81400000D03*
%TO.P,CGPS_1,2*%
%TO.N,GND*%
X183202418Y-81400000D03*
%TD*%
D30*
%TO.P,CPS_1,1*%
%TO.N,VBUS*%
X215150000Y-91137500D03*
%TO.P,CPS_1,2*%
%TO.N,GND*%
X217050000Y-91137500D03*
%TD*%
D31*
%TO.P,U5,1,GND*%
%TO.N,GND*%
X174550000Y-78787500D03*
D32*
%TO.P,U5,2,TXD*%
%TO.N,unconnected-(U5-TXD-Pad2)*%
X175650000Y-78787500D03*
%TO.P,U5,3,RXD*%
%TO.N,unconnected-(U5-RXD-Pad3)*%
X176750000Y-78787500D03*
%TO.P,U5,4,TIMEPULSE*%
%TO.N,unconnected-(U5-TIMEPULSE-Pad4)*%
X177850000Y-78787500D03*
%TO.P,U5,5,EXTINT*%
%TO.N,unconnected-(U5-EXTINT-Pad5)*%
X178950000Y-78787500D03*
%TO.P,U5,6,V_BCKP*%
%TO.N,unconnected-(U5-V_BCKP-Pad6)*%
X180050000Y-78787500D03*
%TO.P,U5,7,V_IO*%
%TO.N,+3V3*%
X181150000Y-78787500D03*
%TO.P,U5,8,VCC*%
X182250000Y-78787500D03*
D31*
%TO.P,U5,9,~{RESET}*%
%TO.N,unconnected-(U5-~{RESET}-Pad9)*%
X183350000Y-78787500D03*
%TO.P,U5,10,GND__1*%
%TO.N,GND*%
X183350000Y-69287500D03*
D32*
%TO.P,U5,11,RF_IN*%
%TO.N,Net-(U5-RF_IN)*%
X182250000Y-69287500D03*
%TO.P,U5,12,GND__2*%
%TO.N,GND*%
X181150000Y-69287500D03*
%TO.P,U5,13,LNA_EN*%
%TO.N,unconnected-(U5-LNA_EN-Pad13)*%
X180050000Y-69287500D03*
%TO.P,U5,14,VCC_RF*%
%TO.N,unconnected-(U5-VCC_RF-Pad14)*%
X178950000Y-69287500D03*
%TO.P,U5,15,VIO_SEL*%
%TO.N,unconnected-(U5-VIO_SEL-Pad15)*%
X177850000Y-69287500D03*
%TO.P,U5,16,SDA*%
%TO.N,/RP_SDA0*%
X176750000Y-69287500D03*
%TO.P,U5,17,SCL*%
%TO.N,/RP_SCL0*%
X175650000Y-69287500D03*
D31*
%TO.P,U5,18,~{SAFEBOOT}*%
%TO.N,unconnected-(U5-~{SAFEBOOT}-Pad18)*%
X174550000Y-69287500D03*
%TD*%
D15*
%TO.P,C11,1*%
%TO.N,+3V3*%
X202920000Y-91000000D03*
%TO.P,C11,2*%
%TO.N,GND*%
X203880000Y-91000000D03*
%TD*%
D33*
%TO.P,D1,1,K*%
%TO.N,Net-(D1-K)*%
X200200000Y-97175000D03*
%TO.P,D1,2,A*%
%TO.N,/LED_1*%
X200200000Y-95600000D03*
%TD*%
D14*
%TO.P,RI2C_1,1*%
%TO.N,/RP_SCL1*%
X200270000Y-78877500D03*
%TO.P,RI2C_1,2*%
%TO.N,+3V3*%
X201290000Y-78877500D03*
%TD*%
D18*
%TO.P,RFLASH_1,1*%
%TO.N,+3V3*%
X212835000Y-68050000D03*
%TO.P,RFLASH_1,2*%
%TO.N,/QSPI_SS*%
X212835000Y-69070000D03*
%TD*%
D11*
%TO.P,RI2C_3,1*%
%TO.N,/RP_SCL0*%
X194100000Y-81600000D03*
%TO.P,RI2C_3,2*%
%TO.N,+3V3*%
X194100000Y-80580000D03*
%TD*%
D16*
%TO.P,R4,1*%
%TO.N,/USB_D-*%
X207775000Y-87900000D03*
%TO.P,R4,2*%
%TO.N,/USB_R-*%
X207135000Y-87900000D03*
%TD*%
D18*
%TO.P,RFLASH_2,1*%
%TO.N,/QSPI_SS*%
X212835000Y-70090000D03*
%TO.P,RFLASH_2,2*%
%TO.N,/~{USB_BOOT}*%
X212835000Y-71110000D03*
%TD*%
D34*
%TO.P,Y1,1*%
%TO.N,/XIN*%
X194000000Y-86250000D03*
%TO.P,Y1,2,GND*%
%TO.N,GND*%
X194000000Y-83950000D03*
%TO.P,Y1,3*%
%TO.N,Net-(CX_2-Pad2)*%
X192250000Y-83950000D03*
%TO.P,Y1,4,GND__1*%
%TO.N,GND*%
X192250000Y-86250000D03*
%TD*%
D29*
%TO.P,RX_1,1*%
%TO.N,Net-(CX_2-Pad2)*%
X190750000Y-84930000D03*
%TO.P,RX_1,2*%
%TO.N,/XOUT*%
X190750000Y-85570000D03*
%TD*%
D33*
%TO.P,D2,1,K*%
%TO.N,Net-(D2-K)*%
X202200000Y-97175000D03*
%TO.P,D2,2,A*%
%TO.N,/LED_2*%
X202200000Y-95600000D03*
%TD*%
D30*
%TO.P,CPS_2,1*%
%TO.N,+3V3*%
X215150000Y-93367500D03*
%TO.P,CPS_2,2*%
%TO.N,GND*%
X217050000Y-93367500D03*
%TD*%
D35*
%TO.P,J3,1,VBUS*%
%TO.N,VBUS*%
X215420000Y-85770000D03*
%TO.P,J3,2,D-*%
%TO.N,/USB_D-*%
X215420000Y-85120000D03*
%TO.P,J3,3,D+*%
%TO.N,/USB_D+*%
X215420000Y-84470000D03*
%TO.P,J3,4,ID*%
%TO.N,unconnected-(J3-ID-Pad4)*%
X215420000Y-83820000D03*
%TO.P,J3,5,GND*%
%TO.N,GND*%
X215420000Y-83170000D03*
D36*
%TO.P,J3,6,Shield*%
X216620000Y-87420000D03*
D37*
X215320000Y-87320000D03*
D38*
X217370000Y-87200000D03*
D39*
X218300000Y-87200000D03*
D40*
X215300000Y-86890000D03*
D41*
X218570000Y-85430000D03*
X218570000Y-83510000D03*
D40*
X215300000Y-82050000D03*
D39*
X218300000Y-81740000D03*
D38*
X217370000Y-81720000D03*
D37*
X215300000Y-81570000D03*
D36*
X216620000Y-81470000D03*
%TD*%
D12*
%TO.P,J5,1,1*%
%TO.N,VBUS*%
X217200000Y-75200000D03*
D13*
%TO.P,J5,2,2*%
%TO.N,GND*%
X217200000Y-77740000D03*
%TD*%
D11*
%TO.P,RL_1,1*%
%TO.N,GND*%
X200200000Y-99685000D03*
%TO.P,RL_1,2*%
%TO.N,Net-(D1-K)*%
X200200000Y-98665000D03*
%TD*%
D42*
%TO.P,U7,1,VCC*%
%TO.N,+3V3*%
X154250000Y-96400000D03*
D43*
%TO.P,U7,2,DOUT/DIO13*%
%TO.N,/UART_Rx0*%
X156250000Y-96400000D03*
%TO.P,U7,3,DIN/NCONFIG/DIO14*%
%TO.N,/UART_Tx0*%
X158250000Y-96400000D03*
%TO.P,U7,4,DIO12/SPI_MISO*%
%TO.N,unconnected-(U7-DIO12{slash}SPI_MISO-Pad4)*%
X160250000Y-96400000D03*
%TO.P,U7,5,~{RESET}*%
%TO.N,unconnected-(U7-~{RESET}-Pad5)*%
X162250000Y-96400000D03*
%TO.P,U7,6,DIO10/PWM0*%
%TO.N,unconnected-(U7-DIO10{slash}PWM0-Pad6)*%
X164250000Y-96400000D03*
%TO.P,U7,7,DIO11/PWM1*%
%TO.N,unconnected-(U7-DIO11{slash}PWM1-Pad7)*%
X166250000Y-96400000D03*
%TO.P,U7,8*%
%TO.N,N/C*%
X168250000Y-96400000D03*
%TO.P,U7,9,NDTR/SLEEP_RQ/DIO8*%
%TO.N,unconnected-(U7-NDTR{slash}SLEEP_RQ{slash}DIO8-Pad9)*%
X170250000Y-96400000D03*
%TO.P,U7,10,GND*%
%TO.N,GND*%
X172250000Y-96400000D03*
%TO.P,U7,11,DIO4/SPI_MOSI*%
%TO.N,unconnected-(U7-DIO4{slash}SPI_MOSI-Pad11)*%
X172250000Y-74400000D03*
%TO.P,U7,12,NCTS/DIO7*%
%TO.N,unconnected-(U7-NCTS{slash}DIO7-Pad12)*%
X170250000Y-74400000D03*
%TO.P,U7,13,ON_NSLEEP/DIO9*%
%TO.N,unconnected-(U7-ON_NSLEEP{slash}DIO9-Pad13)*%
X168250000Y-74400000D03*
%TO.P,U7,14,VREF*%
%TO.N,GND*%
X166250000Y-74400000D03*
%TO.P,U7,15,ASSOCIATE/DIO5*%
%TO.N,unconnected-(U7-ASSOCIATE{slash}DIO5-Pad15)*%
X164250000Y-74400000D03*
%TO.P,U7,16,NRTS/DIO6*%
%TO.N,unconnected-(U7-NRTS{slash}DIO6-Pad16)*%
X162250000Y-74400000D03*
%TO.P,U7,17,AD3/DIO3/SPI_NSSEL*%
%TO.N,unconnected-(U7-AD3{slash}DIO3{slash}SPI_NSSEL-Pad17)*%
X160250000Y-74400000D03*
%TO.P,U7,18,AD2/DIO2/SPI_CLK*%
%TO.N,unconnected-(U7-AD2{slash}DIO2{slash}SPI_CLK-Pad18)*%
X158250000Y-74400000D03*
%TO.P,U7,19,AD1/DIO1/SPI_NATTN*%
%TO.N,unconnected-(U7-AD1{slash}DIO1{slash}SPI_NATTN-Pad19)*%
X156250000Y-74400000D03*
%TO.P,U7,20,AD0/DIO0*%
%TO.N,unconnected-(U7-AD0{slash}DIO0-Pad20)*%
X154250000Y-74400000D03*
%TD*%
D14*
%TO.P,Div_res_bat2,1*%
%TO.N,/ADC_BAT*%
X202490000Y-92800000D03*
%TO.P,Div_res_bat2,2*%
%TO.N,GND*%
X203510000Y-92800000D03*
%TD*%
D16*
%TO.P,R3,1*%
%TO.N,/USB_D+*%
X207775000Y-87192500D03*
%TO.P,R3,2*%
%TO.N,/USB_R+*%
X207135000Y-87192500D03*
%TD*%
D44*
%TO.P,AE1,1*%
%TO.N,Net-(U5-RF_IN)*%
X186400000Y-62475000D03*
%TO.P,AE1,2*%
%TO.N,GND*%
X186400000Y-61525000D03*
D45*
%TO.P,AE1,3*%
X189600000Y-62000000D03*
%TD*%
D46*
%TO.P,U6,1,~{CS}*%
%TO.N,/QSPI_SS*%
X211275000Y-76142500D03*
%TO.P,U6,2,DO(IO1)*%
%TO.N,/QSPI_SD1*%
X210005000Y-76142500D03*
%TO.P,U6,3,IO2*%
%TO.N,/QSPI_SD2*%
X208735000Y-76142500D03*
%TO.P,U6,4,GND*%
%TO.N,GND*%
X207465000Y-76142500D03*
%TO.P,U6,5,DI(IO0)*%
%TO.N,/QSPI_SD0*%
X207465000Y-83317500D03*
%TO.P,U6,6,CLK*%
%TO.N,/QSPI_SCLK*%
X208735000Y-83317500D03*
%TO.P,U6,7,IO3*%
%TO.N,/QSPI_SD3*%
X210005000Y-83317500D03*
%TO.P,U6,8,VCC*%
%TO.N,+3V3*%
X211275000Y-83317500D03*
%TD*%
D10*
%TO.P,S2,1,NO_1*%
%TO.N,/RUN*%
X191150000Y-91950000D03*
%TO.P,S2,2,NO_2*%
X195300000Y-91950000D03*
%TO.P,S2,3,COM_1*%
%TO.N,GND*%
X191150000Y-94100000D03*
%TO.P,S2,4,COM_2*%
X195300000Y-94100000D03*
%TD*%
D47*
%TO.P,U2,1,GND*%
%TO.N,GND*%
X212520000Y-95620000D03*
%TO.P,U2,2,VO*%
%TO.N,+3V3*%
X212520000Y-93320000D03*
D48*
X206220000Y-93320000D03*
D47*
%TO.P,U2,3,VI*%
%TO.N,VBUS*%
X212520000Y-91020000D03*
%TD*%
D49*
%TO.N,VBUS*%
X212700000Y-89200000D03*
X203800000Y-96000000D03*
%TO.N,/SD_DAT0*%
X178200000Y-97600000D03*
X187200000Y-94200000D03*
%TO.N,GND*%
X220120000Y-93117500D03*
X219120000Y-93617500D03*
X214925000Y-68270000D03*
X219095000Y-68210000D03*
X202600000Y-65400000D03*
X206800000Y-86200000D03*
X211030000Y-98287500D03*
X198800000Y-75800000D03*
X157000000Y-93600000D03*
X182600000Y-91000000D03*
X189800000Y-77000000D03*
X206600000Y-68600000D03*
X219120000Y-92617500D03*
X200600000Y-70400000D03*
X204200000Y-91800000D03*
X206380000Y-76157500D03*
X195200000Y-84000000D03*
X190800000Y-86600000D03*
X219120000Y-90617500D03*
X220120000Y-90117500D03*
X212030000Y-98287500D03*
X220120000Y-91117500D03*
X219120000Y-91617500D03*
X199550000Y-93170000D03*
X213530000Y-99287500D03*
X194600000Y-71000000D03*
X188600000Y-75200000D03*
X207200000Y-88600000D03*
X202000000Y-77600000D03*
X214030000Y-98287500D03*
X220120000Y-92117500D03*
X212530000Y-99287500D03*
X211530000Y-99287500D03*
X214530000Y-99287500D03*
X213030000Y-98287500D03*
%TO.N,/SD_CLK*%
X180500000Y-97600000D03*
%TO.N,/SD_CMD*%
X183400000Y-97800000D03*
X189000000Y-95100000D03*
%TO.N,/SD_DAT1*%
X177100000Y-97600000D03*
%TO.N,/IIM_CS1*%
X198000000Y-76000000D03*
%TO.N,/IIM_MOSI1*%
X196200000Y-81300000D03*
%TO.N,/IIM_SCLK1*%
X198000000Y-76600000D03*
%TO.N,/IIM_MISO1*%
X198700000Y-81700000D03*
%TO.N,/UART_Rx0*%
X195700000Y-89007108D03*
%TO.N,+3V3*%
X194200000Y-79000000D03*
X208110000Y-92487500D03*
X212825000Y-67150000D03*
X204500000Y-88900000D03*
X181800000Y-100000000D03*
X208110000Y-95487500D03*
X209110000Y-94987500D03*
X203200000Y-78500000D03*
X195653554Y-86480000D03*
X209620000Y-86300000D03*
X208110000Y-93487500D03*
X192600000Y-80800000D03*
X204500000Y-86600000D03*
X208110000Y-91487500D03*
X178200000Y-91000000D03*
X201200000Y-72000000D03*
X208110000Y-94487500D03*
X199300000Y-81700000D03*
X203200000Y-91800000D03*
X198400000Y-72600000D03*
X189853554Y-76253554D03*
X190200000Y-88099000D03*
D50*
X186900000Y-80600000D03*
D49*
X209110000Y-93987500D03*
X209110000Y-92987500D03*
X180800000Y-82400000D03*
X190600000Y-72400000D03*
X209110000Y-91987500D03*
X209110000Y-90987500D03*
X180400000Y-91000000D03*
X204500000Y-89600000D03*
X200150000Y-92200000D03*
%TO.N,+1V1*%
X195656349Y-87108310D03*
X204500000Y-86000000D03*
X204500000Y-88000000D03*
%TO.N,/SWCLK*%
X197500000Y-87000000D03*
%TO.N,/SWDIO*%
X197500000Y-87700000D03*
%TO.N,/UART_Tx0*%
X194700000Y-89300000D03*
%TO.N,/RP_SCL1*%
X200280000Y-77787500D03*
%TO.N,/RP_SDA1*%
X200670000Y-79877500D03*
%TD*%
D51*
%TO.N,VBUS*%
X213570000Y-86395000D02*
X213567500Y-86395000D01*
X213567500Y-86395000D02*
X212870000Y-87092500D01*
X215420000Y-85770000D02*
X214195000Y-85770000D01*
X217200000Y-75200000D02*
X217300000Y-75200000D01*
D52*
X203800000Y-95110000D02*
X203800000Y-96000000D01*
D51*
X212520000Y-91020000D02*
X212520000Y-89380000D01*
X217300000Y-75200000D02*
X217400000Y-75300000D01*
X214195000Y-85770000D02*
X213570000Y-86395000D01*
X212520000Y-89380000D02*
X212700000Y-89200000D01*
X213570000Y-86395000D02*
X213570000Y-87142500D01*
D52*
%TO.N,/SD_DAT0*%
X178200000Y-98845000D02*
X178220000Y-98865000D01*
X196200000Y-95600000D02*
X188600000Y-95600000D01*
X188600000Y-95600000D02*
X187200000Y-94200000D01*
X178200000Y-97600000D02*
X178200000Y-98845000D01*
X197870000Y-89617500D02*
X197870000Y-93930000D01*
X197870000Y-93930000D02*
X196200000Y-95600000D01*
D53*
%TO.N,GND*%
X188920000Y-87600000D02*
X188920000Y-84280000D01*
D52*
X203510000Y-92800000D02*
X203800000Y-92800000D01*
D51*
X191870000Y-98850000D02*
X192020000Y-98700000D01*
D52*
X195525000Y-84725000D02*
X195980000Y-85180000D01*
X191150000Y-94100000D02*
X195300000Y-94100000D01*
X219095000Y-68210000D02*
X219095000Y-69370000D01*
D51*
X179000000Y-100000000D02*
X176553000Y-100000000D01*
D52*
X188920000Y-90620000D02*
X188920000Y-87600000D01*
X204200000Y-92400000D02*
X204200000Y-91800000D01*
D51*
X194000000Y-83950000D02*
X194475000Y-83950000D01*
D52*
X191150000Y-86250000D02*
X190800000Y-86600000D01*
X207465000Y-76142500D02*
X206395000Y-76142500D01*
D51*
X179320000Y-98865000D02*
X179320000Y-99680000D01*
X194000000Y-83000000D02*
X194000000Y-83950000D01*
D53*
X217050000Y-91137500D02*
X217050000Y-93367500D01*
D51*
X200200000Y-99685000D02*
X211285000Y-99685000D01*
X192020000Y-98045000D02*
X191975000Y-98000000D01*
D52*
X191150000Y-93575000D02*
X189900000Y-92325000D01*
X214925000Y-68270000D02*
X214925000Y-69430000D01*
D51*
X188700000Y-98850000D02*
X191870000Y-98850000D01*
X179320000Y-99680000D02*
X179000000Y-100000000D01*
X176553000Y-100000000D02*
X176040000Y-99487000D01*
X193500000Y-82500000D02*
X194000000Y-83000000D01*
X176040000Y-99487000D02*
X176040000Y-98365000D01*
D52*
X219095000Y-69370000D02*
X219100000Y-69375000D01*
X204200000Y-91800000D02*
X204000000Y-91800000D01*
X191150000Y-94100000D02*
X191150000Y-93575000D01*
X203800000Y-92800000D02*
X204200000Y-92400000D01*
X189900000Y-92325000D02*
X189900000Y-91600000D01*
X189900000Y-91600000D02*
X188920000Y-90620000D01*
D51*
X193475000Y-82500000D02*
X193500000Y-82500000D01*
X194475000Y-83950000D02*
X194862500Y-84337500D01*
D52*
X203880000Y-91680000D02*
X203880000Y-91000000D01*
D51*
X194862500Y-84337500D02*
X195250000Y-84725000D01*
D52*
X192250000Y-86250000D02*
X191150000Y-86250000D01*
D53*
X186610000Y-86400000D02*
X186610000Y-84410000D01*
D51*
X176040000Y-98365000D02*
X174215000Y-98365000D01*
D52*
X195250000Y-84725000D02*
X195525000Y-84725000D01*
X195980000Y-85180000D02*
X196632500Y-85180000D01*
D51*
X194862500Y-84337500D02*
X195200000Y-84000000D01*
D52*
X199400000Y-92400000D02*
X199400000Y-93020000D01*
X206395000Y-76142500D02*
X206380000Y-76157500D01*
D51*
X175960000Y-87600000D02*
X174600000Y-87600000D01*
D52*
X204000000Y-91800000D02*
X203880000Y-91680000D01*
%TO.N,/SD_DAT2*%
X185735000Y-98865000D02*
X184820000Y-98865000D01*
X188200000Y-96400000D02*
X185735000Y-98865000D01*
X198670000Y-94330000D02*
X196600000Y-96400000D01*
X196600000Y-96400000D02*
X188200000Y-96400000D01*
X198670000Y-89617500D02*
X198670000Y-94330000D01*
%TO.N,Net-(CX_2-Pad2)*%
X191730000Y-83950000D02*
X190750000Y-84930000D01*
X192250000Y-83950000D02*
X191730000Y-83950000D01*
X192250000Y-83950000D02*
X192250000Y-83085000D01*
X192225000Y-83925000D02*
X192250000Y-83950000D01*
X192250000Y-83085000D02*
X192835000Y-82500000D01*
%TO.N,/LED_1*%
X201052000Y-93265100D02*
X200200000Y-94117100D01*
X201052000Y-91284900D02*
X201052000Y-93265100D01*
X200200000Y-94117100D02*
X200200000Y-95600000D01*
X200270000Y-90502900D02*
X201052000Y-91284900D01*
X200270000Y-89617500D02*
X200270000Y-90502900D01*
%TO.N,/SD_CLK*%
X180500000Y-97600000D02*
X180500000Y-98785000D01*
X180500000Y-98785000D02*
X180420000Y-98865000D01*
%TO.N,/SD_CMD*%
X183400000Y-97800000D02*
X182800000Y-97800000D01*
X182620000Y-97980000D02*
X182620000Y-98865000D01*
X196132900Y-95100000D02*
X189000000Y-95100000D01*
X182800000Y-97800000D02*
X182620000Y-97980000D01*
X197470000Y-93762900D02*
X196132900Y-95100000D01*
X197470000Y-89617500D02*
X197470000Y-93762900D01*
%TO.N,/SD_DAT3*%
X200651000Y-91451000D02*
X200651000Y-93099000D01*
X188450000Y-96800000D02*
X185121000Y-100129000D01*
X184234000Y-100129000D02*
X183720000Y-99615000D01*
X196950000Y-96800000D02*
X188450000Y-96800000D01*
X200651000Y-93099000D02*
X196950000Y-96800000D01*
X199470000Y-90270000D02*
X200651000Y-91451000D01*
X199470000Y-89617500D02*
X199470000Y-90270000D01*
X185121000Y-100129000D02*
X184234000Y-100129000D01*
X183720000Y-99615000D02*
X183720000Y-98865000D01*
%TO.N,/SD_DAT1*%
X177120000Y-98380000D02*
X177120000Y-98865000D01*
X177601000Y-97099000D02*
X186901000Y-97099000D01*
X188000000Y-96000000D02*
X196432900Y-96000000D01*
X177100000Y-97600000D02*
X177100000Y-98360000D01*
X177100000Y-97600000D02*
X177601000Y-97099000D01*
X177100000Y-98360000D02*
X177120000Y-98380000D01*
X186901000Y-97099000D02*
X188000000Y-96000000D01*
X196432900Y-96000000D02*
X198270000Y-94162900D01*
X198270000Y-94162900D02*
X198270000Y-89617500D01*
%TO.N,/LED_2*%
X200670000Y-90335800D02*
X200670000Y-89617500D01*
X202200000Y-93947000D02*
X201453000Y-93200000D01*
X201453000Y-93200000D02*
X201453000Y-91118800D01*
X202200000Y-95600000D02*
X202200000Y-93947000D01*
X201453000Y-91118800D02*
X200670000Y-90335800D01*
%TO.N,/RP_SCL0*%
X175650000Y-75250000D02*
X175650000Y-69287500D01*
X194100000Y-82100000D02*
X194100000Y-81600000D01*
X196632500Y-83980000D02*
X195980000Y-83980000D01*
X189300000Y-81600000D02*
X184600000Y-76900000D01*
X194100000Y-81600000D02*
X189300000Y-81600000D01*
X177300000Y-76900000D02*
X175650000Y-75250000D01*
X184600000Y-76900000D02*
X177300000Y-76900000D01*
X195980000Y-83980000D02*
X194100000Y-82100000D01*
%TO.N,/RP_SDA0*%
X189600000Y-80000000D02*
X185300000Y-75700000D01*
X195200000Y-80000000D02*
X189600000Y-80000000D01*
X196180000Y-83580000D02*
X195200000Y-82600000D01*
X195200000Y-82600000D02*
X195200000Y-80000000D01*
X176750000Y-74550000D02*
X176750000Y-69287500D01*
X196632500Y-83580000D02*
X196180000Y-83580000D01*
X185300000Y-75700000D02*
X177900000Y-75700000D01*
X177900000Y-75700000D02*
X176750000Y-74550000D01*
%TO.N,/IIM_CS1*%
X198270000Y-82742500D02*
X198270000Y-81230000D01*
X198108521Y-76000000D02*
X198000000Y-76000000D01*
X198270000Y-81230000D02*
X198800000Y-80700000D01*
X198800000Y-80700000D02*
X198800000Y-76691479D01*
X198800000Y-76691479D02*
X198108521Y-76000000D01*
%TO.N,/IIM_MOSI1*%
X197470000Y-82742500D02*
X197470000Y-82070000D01*
X197200000Y-81800000D02*
X196700000Y-81800000D01*
X197470000Y-82070000D02*
X197200000Y-81800000D01*
X196700000Y-81800000D02*
X196200000Y-81300000D01*
%TO.N,/IIM_SCLK1*%
X198300000Y-76900000D02*
X198000000Y-76600000D01*
X198300000Y-80400000D02*
X198300000Y-76900000D01*
X197870000Y-82742500D02*
X197870000Y-80830000D01*
X197870000Y-80830000D02*
X198300000Y-80400000D01*
%TO.N,/IIM_MISO1*%
X198670000Y-82742500D02*
X198670000Y-81730000D01*
X198670000Y-81730000D02*
X198700000Y-81700000D01*
%TO.N,/UART_Rx0*%
X195992892Y-89007108D02*
X196220000Y-88780000D01*
X195700000Y-89007108D02*
X195992892Y-89007108D01*
X196220000Y-88780000D02*
X196632500Y-88780000D01*
D53*
%TO.N,+3V3*%
X181150000Y-79850000D02*
X181700000Y-80400000D01*
D52*
X196632500Y-86380000D02*
X195753554Y-86380000D01*
X202670000Y-82742500D02*
X202670000Y-81700000D01*
X195200000Y-78980000D02*
X194220000Y-78980000D01*
X202670000Y-89617500D02*
X202670000Y-90750000D01*
X199300000Y-81700000D02*
X199300000Y-81900000D01*
X204200000Y-86600000D02*
X204500000Y-86600000D01*
X201290000Y-78877500D02*
X202000000Y-78877500D01*
X202670000Y-81070000D02*
X202387500Y-80787500D01*
D53*
X212520000Y-93320000D02*
X215102500Y-93320000D01*
X181700000Y-80400000D02*
X182200000Y-80400000D01*
D52*
X202361250Y-79238750D02*
X202660000Y-79537500D01*
X182200000Y-80400000D02*
X182250000Y-80350000D01*
X181520000Y-99720000D02*
X181800000Y-100000000D01*
D53*
X182250000Y-80350000D02*
X182250000Y-78787500D01*
D52*
X204082500Y-86382500D02*
X204082500Y-86380000D01*
D53*
X181150000Y-78787500D02*
X181150000Y-79850000D01*
D52*
X199300000Y-81900000D02*
X199070000Y-82130000D01*
X202387500Y-80787500D02*
X202372500Y-80787500D01*
X204200000Y-86700000D02*
X204200000Y-86600000D01*
X200150000Y-92200000D02*
X199730000Y-91780000D01*
X182200000Y-80400000D02*
X182244837Y-80444837D01*
X199400000Y-90800000D02*
X199070000Y-90470000D01*
X204100000Y-89200000D02*
X204100000Y-88800000D01*
X202670000Y-90750000D02*
X202920000Y-91000000D01*
X190301000Y-88200000D02*
X191490000Y-88200000D01*
X199730000Y-91780000D02*
X199730000Y-91770000D01*
X204171479Y-88380000D02*
X204500000Y-88708521D01*
X203507500Y-86780000D02*
X204120000Y-86780000D01*
X192820000Y-80580000D02*
X192600000Y-80800000D01*
X201690000Y-80787500D02*
X202372500Y-80787500D01*
X203200000Y-91800000D02*
X203000000Y-91800000D01*
X199400000Y-91440000D02*
X199400000Y-90800000D01*
X211275000Y-83317500D02*
X211275000Y-85625000D01*
X212835000Y-67160000D02*
X212825000Y-67150000D01*
X202670000Y-81700000D02*
X202670000Y-81070000D01*
X204120000Y-86780000D02*
X204200000Y-86700000D01*
X204082500Y-86380000D02*
X203507500Y-86380000D01*
X203100000Y-78500000D02*
X203200000Y-78500000D01*
X203507500Y-88380000D02*
X204171479Y-88380000D01*
X181520000Y-98865000D02*
X181520000Y-99720000D01*
X199070000Y-90470000D02*
X199070000Y-89617500D01*
X202372500Y-80787500D02*
X202660000Y-80500000D01*
X212835000Y-68050000D02*
X212835000Y-67160000D01*
X202660000Y-79537500D02*
X202660000Y-80500000D01*
D53*
X215102500Y-93320000D02*
X215150000Y-93367500D01*
D52*
X204200000Y-86600000D02*
X204200000Y-86500000D01*
X195753554Y-86380000D02*
X195653554Y-86480000D01*
X199070000Y-82130000D02*
X199070000Y-82742500D01*
X203000000Y-91800000D02*
X202920000Y-91720000D01*
X204100000Y-88800000D02*
X204080000Y-88780000D01*
X210600000Y-86300000D02*
X209620000Y-86300000D01*
X199730000Y-91770000D02*
X199400000Y-91440000D01*
X204500000Y-88708521D02*
X204500000Y-88900000D01*
X190200000Y-88099000D02*
X190301000Y-88200000D01*
X204080000Y-88780000D02*
X203507500Y-88780000D01*
X204500000Y-89600000D02*
X204100000Y-89200000D01*
X211275000Y-85625000D02*
X210600000Y-86300000D01*
X204200000Y-86500000D02*
X204082500Y-86382500D01*
X194220000Y-78980000D02*
X194200000Y-79000000D01*
X202920000Y-91720000D02*
X202920000Y-91000000D01*
X194100000Y-80580000D02*
X192820000Y-80580000D01*
X202361250Y-79238750D02*
X203100000Y-78500000D01*
D53*
X212520000Y-93320000D02*
X209842500Y-93320000D01*
X209842500Y-93320000D02*
X209820000Y-93297500D01*
D52*
X202000000Y-78877500D02*
X202361250Y-79238750D01*
D51*
X182242418Y-82400000D02*
X180800000Y-82400000D01*
D53*
X182244837Y-80444837D02*
X182244837Y-83406049D01*
D52*
%TO.N,+1V1*%
X195733765Y-87108310D02*
X196042075Y-86800000D01*
X195656349Y-87108310D02*
X195733765Y-87108310D01*
X204480000Y-87980000D02*
X203507500Y-87980000D01*
X195656349Y-87108310D02*
X195656349Y-87043651D01*
X203507500Y-85980000D02*
X204480000Y-85980000D01*
X204480000Y-85980000D02*
X204500000Y-86000000D01*
X196062075Y-86780000D02*
X196632500Y-86780000D01*
X204500000Y-88000000D02*
X204480000Y-87980000D01*
X196042075Y-86800000D02*
X196062075Y-86780000D01*
%TO.N,/QSPI_SS*%
X212835000Y-69070000D02*
X212835000Y-70090000D01*
X211275000Y-74935000D02*
X211275000Y-76142500D01*
X203507500Y-83580000D02*
X204270000Y-83580000D01*
X212820000Y-70075000D02*
X212835000Y-70090000D01*
X204570000Y-83280000D02*
X204570000Y-74230000D01*
X204570000Y-74230000D02*
X205470000Y-73330000D01*
X209670000Y-73330000D02*
X209670000Y-72330000D01*
X205470000Y-73330000D02*
X209670000Y-73330000D01*
X211910000Y-70090000D02*
X212835000Y-70090000D01*
X209670000Y-72330000D02*
X211910000Y-70090000D01*
X209670000Y-73330000D02*
X211275000Y-74935000D01*
X204270000Y-83580000D02*
X204570000Y-83280000D01*
%TO.N,/~{USB_BOOT}*%
X214950000Y-71525000D02*
X213250000Y-71525000D01*
X214950000Y-71525000D02*
X219100000Y-71525000D01*
X213250000Y-71525000D02*
X212835000Y-71110000D01*
D51*
%TO.N,/USB_D+*%
X213292500Y-84470000D02*
X210570000Y-87192500D01*
D52*
X210570000Y-87192500D02*
X210507500Y-87192500D01*
X215400000Y-84450000D02*
X215420000Y-84470000D01*
D51*
X207775000Y-87192500D02*
X210507500Y-87192500D01*
X215420000Y-84470000D02*
X213292500Y-84470000D01*
%TO.N,/USB_D-*%
X210700000Y-87900000D02*
X213480000Y-85120000D01*
X213480000Y-85120000D02*
X215420000Y-85120000D01*
X207775000Y-87900000D02*
X210700000Y-87900000D01*
D52*
%TO.N,/QSPI_SCLK*%
X207920000Y-85180000D02*
X208735000Y-84365000D01*
X203507500Y-85180000D02*
X207920000Y-85180000D01*
X208735000Y-84365000D02*
X208735000Y-83317500D01*
%TO.N,/QSPI_SD2*%
X205800000Y-83650000D02*
X205070000Y-84380000D01*
X208240000Y-74600000D02*
X206075000Y-74600000D01*
X205800000Y-74875000D02*
X205800000Y-83650000D01*
X205070000Y-84380000D02*
X203507500Y-84380000D01*
X208735000Y-75095000D02*
X208240000Y-74600000D01*
X208735000Y-76142500D02*
X208735000Y-75095000D01*
X206075000Y-74600000D02*
X205800000Y-74875000D01*
%TO.N,/QSPI_SD1*%
X210005000Y-74965000D02*
X208970000Y-73930000D01*
X205200000Y-83500000D02*
X204720000Y-83980000D01*
X208970000Y-73930000D02*
X205770000Y-73930000D01*
X210005000Y-76142500D02*
X210005000Y-74965000D01*
X204720000Y-83980000D02*
X203507500Y-83980000D01*
X205770000Y-73930000D02*
X205200000Y-74500000D01*
X205200000Y-74500000D02*
X205200000Y-83500000D01*
%TO.N,/QSPI_SD3*%
X208970000Y-85580000D02*
X210005000Y-84545000D01*
X203507500Y-85580000D02*
X208970000Y-85580000D01*
X210005000Y-84545000D02*
X210005000Y-83317500D01*
%TO.N,/QSPI_SD0*%
X207465000Y-84285000D02*
X207465000Y-83317500D01*
X203507500Y-84780000D02*
X206970000Y-84780000D01*
X206970000Y-84780000D02*
X207465000Y-84285000D01*
%TO.N,/XIN*%
X194200000Y-85365000D02*
X195250000Y-85365000D01*
X195465000Y-85580000D02*
X195250000Y-85365000D01*
X196632500Y-85580000D02*
X195465000Y-85580000D01*
X194000000Y-85565000D02*
X194200000Y-85365000D01*
X194000000Y-85565000D02*
X194000000Y-86250000D01*
%TO.N,/XOUT*%
X195000000Y-86300000D02*
X195000000Y-87100000D01*
X195000000Y-87100000D02*
X194600000Y-87500000D01*
X190200000Y-87000000D02*
X190200000Y-86120000D01*
X190700000Y-87500000D02*
X190200000Y-87000000D01*
X195320000Y-85980000D02*
X195000000Y-86300000D01*
X190200000Y-86120000D02*
X190750000Y-85570000D01*
X196632500Y-85980000D02*
X195320000Y-85980000D01*
X194600000Y-87500000D02*
X190700000Y-87500000D01*
%TO.N,/SWCLK*%
X197320000Y-87180000D02*
X197500000Y-87000000D01*
X196632500Y-87180000D02*
X197320000Y-87180000D01*
%TO.N,/SWDIO*%
X197380000Y-87580000D02*
X197500000Y-87700000D01*
X196632500Y-87580000D02*
X197380000Y-87580000D01*
%TO.N,/UART_Tx0*%
X195620000Y-88380000D02*
X196632500Y-88380000D01*
X194700000Y-89300000D02*
X195620000Y-88380000D01*
%TO.N,/RUN*%
X195500000Y-91950000D02*
X191150000Y-91950000D01*
X192510000Y-88200000D02*
X192731000Y-87979000D01*
X191150000Y-91950000D02*
X191100000Y-91900000D01*
X196632500Y-87980000D02*
X196097226Y-87980000D01*
X191100000Y-89610000D02*
X192510000Y-88200000D01*
X191100000Y-91900000D02*
X191100000Y-89610000D01*
X192731000Y-87979000D02*
X196096226Y-87979000D01*
X196097226Y-87980000D02*
X196096226Y-87979000D01*
%TO.N,/ADC_BAT*%
X201870000Y-92180000D02*
X202490000Y-92800000D01*
X201870000Y-89617500D02*
X201870000Y-92180000D01*
X202490000Y-93490000D02*
X203090000Y-94090000D01*
X202490000Y-92800000D02*
X202490000Y-93490000D01*
X203090000Y-94090000D02*
X203800000Y-94090000D01*
%TO.N,/USB_R+*%
X203507500Y-87180000D02*
X204787500Y-87180000D01*
X207135000Y-87192500D02*
X204800000Y-87192500D01*
X204787500Y-87180000D02*
X204800000Y-87192500D01*
%TO.N,/USB_R-*%
X204680000Y-87580000D02*
X205000000Y-87900000D01*
X203507500Y-87580000D02*
X204680000Y-87580000D01*
X205000000Y-87900000D02*
X207135000Y-87900000D01*
%TO.N,/RP_SCL1*%
X200000000Y-79147500D02*
X200270000Y-78877500D01*
X201070000Y-82070000D02*
X200800000Y-81800000D01*
X200270000Y-78877500D02*
X200270000Y-77797500D01*
X200270000Y-77797500D02*
X200280000Y-77787500D01*
X201070000Y-82742500D02*
X201070000Y-82070000D01*
X200800000Y-81800000D02*
X200200000Y-81800000D01*
X200200000Y-81800000D02*
X200000000Y-81600000D01*
X200000000Y-81600000D02*
X200000000Y-79147500D01*
%TO.N,/RP_SDA1*%
X201200000Y-81400000D02*
X201470000Y-81670000D01*
X201470000Y-81670000D02*
X201470000Y-82742500D01*
X200670000Y-81270000D02*
X200800000Y-81400000D01*
X200800000Y-81400000D02*
X201200000Y-81400000D01*
X200670000Y-80787500D02*
X200670000Y-79877500D01*
X200670000Y-80787500D02*
X200670000Y-81270000D01*
%TO.N,Net-(D1-K)*%
X200200000Y-97175000D02*
X200200000Y-98665000D01*
%TO.N,Net-(D2-K)*%
X202200000Y-98665000D02*
X202200000Y-97175000D01*
%TD*%
%TA.AperFunction,Conductor*%
%TO.N,GND*%
G36*
X211456293Y-94587185D02*
G01*
X211502048Y-94639989D01*
X211511992Y-94709147D01*
X211482967Y-94772703D01*
X211476935Y-94779181D01*
X211397232Y-94858883D01*
X211397226Y-94858891D01*
X211316844Y-94994811D01*
X211316843Y-94994814D01*
X211272789Y-95146446D01*
X211272788Y-95146452D01*
X211270000Y-95181881D01*
X211270000Y-95420000D01*
X213770000Y-95420000D01*
X213770000Y-95181894D01*
X213769999Y-95181881D01*
X213767211Y-95146452D01*
X213767210Y-95146446D01*
X213723156Y-94994814D01*
X213723155Y-94994811D01*
X213642773Y-94858891D01*
X213642767Y-94858883D01*
X213563065Y-94779181D01*
X213529580Y-94717858D01*
X213534564Y-94648166D01*
X213576436Y-94592233D01*
X213641900Y-94567816D01*
X213650746Y-94567500D01*
X216241252Y-94567500D01*
X217731139Y-94567500D01*
X217710021Y-94569879D01*
X217710007Y-94569882D01*
X217357929Y-94650241D01*
X217357927Y-94650242D01*
X217017060Y-94769516D01*
X216691696Y-94926203D01*
X216385916Y-95118338D01*
X216103570Y-95343500D01*
X215848210Y-95598860D01*
X215623048Y-95881206D01*
X215430913Y-96186986D01*
X215274226Y-96512350D01*
X215154952Y-96853217D01*
X215154951Y-96853219D01*
X215074592Y-97205297D01*
X215074590Y-97205309D01*
X215034158Y-97564153D01*
X215034158Y-97688296D01*
X215029092Y-97705548D01*
X215029092Y-100105500D01*
X215009407Y-100172539D01*
X214956603Y-100218294D01*
X214905092Y-100229500D01*
X210884000Y-100229500D01*
X210816961Y-100209815D01*
X210771206Y-100157011D01*
X210760000Y-100105500D01*
X210760000Y-96058118D01*
X211270000Y-96058118D01*
X211272788Y-96093547D01*
X211272789Y-96093553D01*
X211316843Y-96245185D01*
X211316844Y-96245188D01*
X211397226Y-96381108D01*
X211397232Y-96381116D01*
X211508883Y-96492767D01*
X211508891Y-96492773D01*
X211644811Y-96573155D01*
X211644814Y-96573156D01*
X211796446Y-96617210D01*
X211796452Y-96617211D01*
X211831881Y-96619999D01*
X211831894Y-96620000D01*
X212320000Y-96620000D01*
X212720000Y-96620000D01*
X213208106Y-96620000D01*
X213208118Y-96619999D01*
X213243547Y-96617211D01*
X213243553Y-96617210D01*
X213395185Y-96573156D01*
X213395188Y-96573155D01*
X213531108Y-96492773D01*
X213531116Y-96492767D01*
X213642767Y-96381116D01*
X213642773Y-96381108D01*
X213723155Y-96245188D01*
X213723156Y-96245185D01*
X213767210Y-96093553D01*
X213767211Y-96093547D01*
X213769999Y-96058118D01*
X213770000Y-96058105D01*
X213770000Y-95820000D01*
X212720000Y-95820000D01*
X212720000Y-96620000D01*
X212320000Y-96620000D01*
X212320000Y-95820000D01*
X211270000Y-95820000D01*
X211270000Y-96058118D01*
X210760000Y-96058118D01*
X210760000Y-94691500D01*
X210779685Y-94624461D01*
X210832489Y-94578706D01*
X210884000Y-94567500D01*
X211389254Y-94567500D01*
X211456293Y-94587185D01*
G37*
%TD.AperFunction*%
%TD*%
%TA.AperFunction,Conductor*%
%TO.N,GND*%
G36*
X220889500Y-88627500D02*
G01*
X216241252Y-88627500D01*
X216241252Y-86170500D01*
X216264750Y-86170500D01*
X216264751Y-86170499D01*
X216279568Y-86167552D01*
X216323229Y-86158868D01*
X216323229Y-86158867D01*
X216323231Y-86158867D01*
X216389552Y-86114552D01*
X216433867Y-86048231D01*
X216433867Y-86048229D01*
X216433868Y-86048229D01*
X216445499Y-85989752D01*
X216445500Y-85989750D01*
X216445500Y-85550249D01*
X216445499Y-85550247D01*
X216431485Y-85479790D01*
X216432762Y-85479535D01*
X216426680Y-85422991D01*
X216433694Y-85399100D01*
X216445499Y-85339752D01*
X216445500Y-85339750D01*
X216445500Y-84900249D01*
X216445499Y-84900247D01*
X216431485Y-84829790D01*
X216432762Y-84829535D01*
X216426680Y-84772991D01*
X216433694Y-84749100D01*
X216445499Y-84689752D01*
X216445500Y-84689750D01*
X216445500Y-84250249D01*
X216445499Y-84250247D01*
X216431485Y-84179790D01*
X216432762Y-84179535D01*
X216426680Y-84122991D01*
X216433694Y-84099100D01*
X216445499Y-84039752D01*
X216445500Y-84039750D01*
X216445500Y-83600249D01*
X216445499Y-83600247D01*
X216433868Y-83541770D01*
X216433867Y-83541769D01*
X216389552Y-83475447D01*
X216323230Y-83431132D01*
X216323229Y-83431131D01*
X216264752Y-83419500D01*
X216264748Y-83419500D01*
X216241252Y-83419500D01*
X216241252Y-79680000D01*
X220889500Y-79680000D01*
X220889500Y-88627500D01*
G37*
%TD.AperFunction*%
%TD*%
%TA.AperFunction,Conductor*%
%TO.N,VBUS*%
G36*
X215938039Y-89122185D02*
G01*
X215983794Y-89174989D01*
X215995000Y-89226500D01*
X215995000Y-90250428D01*
X215975315Y-90317467D01*
X215922511Y-90363222D01*
X215853353Y-90373166D01*
X215789797Y-90344141D01*
X215771735Y-90324741D01*
X215757189Y-90305311D01*
X215757187Y-90305309D01*
X215642093Y-90219149D01*
X215642086Y-90219145D01*
X215507379Y-90168903D01*
X215507372Y-90168901D01*
X215447844Y-90162500D01*
X215350000Y-90162500D01*
X215350000Y-91013500D01*
X215330315Y-91080539D01*
X215277511Y-91126294D01*
X215226000Y-91137500D01*
X215150000Y-91137500D01*
X215150000Y-91213500D01*
X215130315Y-91280539D01*
X215077511Y-91326294D01*
X215026000Y-91337500D01*
X214400000Y-91337500D01*
X214400000Y-91660344D01*
X214406401Y-91719872D01*
X214406403Y-91719879D01*
X214456645Y-91854586D01*
X214456649Y-91854593D01*
X214542809Y-91969687D01*
X214548941Y-91975819D01*
X214582426Y-92037142D01*
X214577442Y-92106834D01*
X214535570Y-92162767D01*
X214470106Y-92187184D01*
X214461260Y-92187500D01*
X213770000Y-92187500D01*
X213770000Y-90614655D01*
X214400000Y-90614655D01*
X214400000Y-90937500D01*
X214950000Y-90937500D01*
X214950000Y-90162500D01*
X214852155Y-90162500D01*
X214792627Y-90168901D01*
X214792620Y-90168903D01*
X214657913Y-90219145D01*
X214657906Y-90219149D01*
X214542812Y-90305309D01*
X214542809Y-90305312D01*
X214456649Y-90420406D01*
X214456645Y-90420413D01*
X214406403Y-90555120D01*
X214406401Y-90555127D01*
X214400000Y-90614655D01*
X213770000Y-90614655D01*
X213770000Y-89102500D01*
X215871000Y-89102500D01*
X215938039Y-89122185D01*
G37*
%TD.AperFunction*%
%TD*%
%TA.AperFunction,Conductor*%
%TO.N,GND*%
G36*
X220889500Y-94400382D02*
G01*
X220869815Y-94467421D01*
X220817011Y-94513176D01*
X220765500Y-94524382D01*
X218223452Y-94524382D01*
X218219364Y-94526614D01*
X218193006Y-94529448D01*
X218068863Y-94529448D01*
X217710019Y-94569880D01*
X217710007Y-94569882D01*
X217357929Y-94650241D01*
X217357927Y-94650242D01*
X217017060Y-94769516D01*
X216709768Y-94917500D01*
X216241252Y-94917500D01*
X216241252Y-94296523D01*
X216260937Y-94229484D01*
X216313741Y-94183729D01*
X216382899Y-94173785D01*
X216439564Y-94197257D01*
X216557910Y-94285852D01*
X216557913Y-94285854D01*
X216692620Y-94336096D01*
X216692627Y-94336098D01*
X216752155Y-94342499D01*
X216752172Y-94342500D01*
X216850000Y-94342500D01*
X217250000Y-94342500D01*
X217347828Y-94342500D01*
X217347844Y-94342499D01*
X217407372Y-94336098D01*
X217407379Y-94336096D01*
X217542086Y-94285854D01*
X217542093Y-94285850D01*
X217657187Y-94199690D01*
X217657190Y-94199687D01*
X217743350Y-94084593D01*
X217743354Y-94084586D01*
X217793596Y-93949879D01*
X217793598Y-93949872D01*
X217799999Y-93890344D01*
X217800000Y-93890327D01*
X217800000Y-93567500D01*
X217250000Y-93567500D01*
X217250000Y-94342500D01*
X216850000Y-94342500D01*
X216850000Y-93167500D01*
X217250000Y-93167500D01*
X217800000Y-93167500D01*
X217800000Y-92844672D01*
X217799999Y-92844655D01*
X217793598Y-92785127D01*
X217793596Y-92785120D01*
X217743354Y-92650413D01*
X217743350Y-92650406D01*
X217657190Y-92535312D01*
X217657187Y-92535309D01*
X217542093Y-92449149D01*
X217542086Y-92449145D01*
X217407379Y-92398903D01*
X217407372Y-92398901D01*
X217347844Y-92392500D01*
X217250000Y-92392500D01*
X217250000Y-93167500D01*
X216850000Y-93167500D01*
X216850000Y-92392500D01*
X216752155Y-92392500D01*
X216692627Y-92398901D01*
X216692620Y-92398903D01*
X216557913Y-92449145D01*
X216557906Y-92449149D01*
X216439563Y-92537742D01*
X216374099Y-92562160D01*
X216305826Y-92547309D01*
X216256420Y-92497904D01*
X216241252Y-92438476D01*
X216241252Y-92066523D01*
X216260937Y-91999484D01*
X216313741Y-91953729D01*
X216382899Y-91943785D01*
X216439564Y-91967257D01*
X216557910Y-92055852D01*
X216557913Y-92055854D01*
X216692620Y-92106096D01*
X216692627Y-92106098D01*
X216752155Y-92112499D01*
X216752172Y-92112500D01*
X216850000Y-92112500D01*
X217250000Y-92112500D01*
X217347828Y-92112500D01*
X217347844Y-92112499D01*
X217407372Y-92106098D01*
X217407379Y-92106096D01*
X217542086Y-92055854D01*
X217542093Y-92055850D01*
X217657187Y-91969690D01*
X217657190Y-91969687D01*
X217743350Y-91854593D01*
X217743354Y-91854586D01*
X217793596Y-91719879D01*
X217793598Y-91719872D01*
X217799999Y-91660344D01*
X217800000Y-91660327D01*
X217800000Y-91337500D01*
X217250000Y-91337500D01*
X217250000Y-92112500D01*
X216850000Y-92112500D01*
X216850000Y-90937500D01*
X217250000Y-90937500D01*
X217800000Y-90937500D01*
X217800000Y-90614672D01*
X217799999Y-90614655D01*
X217793598Y-90555127D01*
X217793596Y-90555120D01*
X217743354Y-90420413D01*
X217743350Y-90420406D01*
X217657190Y-90305312D01*
X217657187Y-90305309D01*
X217542093Y-90219149D01*
X217542086Y-90219145D01*
X217407379Y-90168903D01*
X217407372Y-90168901D01*
X217347844Y-90162500D01*
X217250000Y-90162500D01*
X217250000Y-90937500D01*
X216850000Y-90937500D01*
X216850000Y-90162500D01*
X216752155Y-90162500D01*
X216692627Y-90168901D01*
X216692620Y-90168903D01*
X216557913Y-90219145D01*
X216557906Y-90219149D01*
X216439563Y-90307742D01*
X216374099Y-90332160D01*
X216305826Y-90317309D01*
X216256420Y-90267904D01*
X216241252Y-90208476D01*
X216241252Y-88807500D01*
X216241252Y-88622500D01*
X220889500Y-88622500D01*
X220889500Y-94400382D01*
G37*
%TD.AperFunction*%
%TD*%
%TA.AperFunction,Conductor*%
%TO.N,GND*%
G36*
X185943039Y-60750185D02*
G01*
X185988794Y-60802989D01*
X186000000Y-60854500D01*
X186000000Y-61845874D01*
X185980315Y-61912913D01*
X185927511Y-61958668D01*
X185923456Y-61960434D01*
X185921768Y-61961132D01*
X185855447Y-62005447D01*
X185811132Y-62071769D01*
X185811131Y-62071770D01*
X185799500Y-62130247D01*
X185799500Y-62819752D01*
X185811131Y-62878229D01*
X185811132Y-62878230D01*
X185855447Y-62944552D01*
X185921764Y-62988864D01*
X185921765Y-62988864D01*
X185921769Y-62988867D01*
X185921773Y-62988867D01*
X185923449Y-62989562D01*
X185926557Y-62992067D01*
X185931923Y-62995652D01*
X185931602Y-62996131D01*
X185977854Y-63033401D01*
X185999921Y-63099695D01*
X186000000Y-63104125D01*
X186000000Y-64750000D01*
X190000000Y-64750000D01*
X190000000Y-60854500D01*
X190019685Y-60787461D01*
X190072489Y-60741706D01*
X190124000Y-60730500D01*
X214905658Y-60730500D01*
X214972697Y-60750185D01*
X215018452Y-60802989D01*
X215029658Y-60854500D01*
X215029658Y-63275982D01*
X215031890Y-63280070D01*
X215034724Y-63306428D01*
X215034724Y-63430570D01*
X215075156Y-63789414D01*
X215075158Y-63789426D01*
X215155517Y-64141504D01*
X215155518Y-64141506D01*
X215274792Y-64482373D01*
X215431479Y-64807737D01*
X215431481Y-64807740D01*
X215623615Y-65113519D01*
X215848777Y-65395864D01*
X216104136Y-65651223D01*
X216386481Y-65876385D01*
X216692260Y-66068519D01*
X217017628Y-66225208D01*
X217358495Y-66344482D01*
X217710573Y-66424842D01*
X218069430Y-66465275D01*
X218069431Y-66465276D01*
X218069434Y-66465276D01*
X218193572Y-66465276D01*
X218210825Y-66470342D01*
X218250000Y-66470342D01*
X220765500Y-66470342D01*
X220832539Y-66490027D01*
X220878294Y-66542831D01*
X220889500Y-66594342D01*
X220889500Y-84902707D01*
X216445500Y-84911888D01*
X216445500Y-84900252D01*
X216433867Y-84841769D01*
X216427440Y-84832150D01*
X216425164Y-84805586D01*
X216428445Y-84789406D01*
X216426680Y-84772991D01*
X216433694Y-84749100D01*
X216433867Y-84748231D01*
X216445500Y-84689748D01*
X216445500Y-84250252D01*
X216445500Y-84250249D01*
X216445499Y-84250247D01*
X216431485Y-84179790D01*
X216432762Y-84179535D01*
X216426680Y-84122991D01*
X216433694Y-84099100D01*
X216445499Y-84039752D01*
X216445500Y-84039750D01*
X216445500Y-83600249D01*
X216445499Y-83600247D01*
X216433868Y-83541770D01*
X216433867Y-83541769D01*
X216389552Y-83475447D01*
X216323230Y-83431132D01*
X216323229Y-83431131D01*
X216264752Y-83419500D01*
X216264748Y-83419500D01*
X214575252Y-83419500D01*
X214575247Y-83419500D01*
X214516770Y-83431131D01*
X214516769Y-83431132D01*
X214450447Y-83475447D01*
X214406132Y-83541769D01*
X214406131Y-83541770D01*
X214394500Y-83600247D01*
X214394500Y-83945500D01*
X214374815Y-84012539D01*
X214322011Y-84058294D01*
X214270500Y-84069500D01*
X213239773Y-84069500D01*
X213137913Y-84096793D01*
X213137910Y-84096794D01*
X213063873Y-84139540D01*
X213063871Y-84139541D01*
X213046590Y-84149517D01*
X213046585Y-84149521D01*
X212311815Y-84884290D01*
X212250492Y-84917775D01*
X212224390Y-84920609D01*
X211699756Y-84921693D01*
X211632676Y-84902147D01*
X211586812Y-84849437D01*
X211575500Y-84797693D01*
X211575500Y-84381496D01*
X211595185Y-84314457D01*
X211645039Y-84270095D01*
X211651347Y-84267012D01*
X211737012Y-84181347D01*
X211790220Y-84072509D01*
X211800500Y-84001949D01*
X211800499Y-82633052D01*
X211799320Y-82624961D01*
X211791474Y-82571098D01*
X211790220Y-82562491D01*
X211737012Y-82453653D01*
X211737010Y-82453651D01*
X211737010Y-82453650D01*
X211651348Y-82367988D01*
X211542511Y-82314780D01*
X211524869Y-82312210D01*
X211471949Y-82304500D01*
X211471943Y-82304500D01*
X211078049Y-82304500D01*
X211007493Y-82314779D01*
X210898650Y-82367989D01*
X210812988Y-82453651D01*
X210759780Y-82562488D01*
X210758473Y-82566721D01*
X210755571Y-82571098D01*
X210755550Y-82571143D01*
X210755544Y-82571140D01*
X210719873Y-82624961D01*
X210655914Y-82653087D01*
X210586903Y-82642169D01*
X210534750Y-82595674D01*
X210521528Y-82566724D01*
X210520220Y-82562494D01*
X210520220Y-82562493D01*
X210520220Y-82562491D01*
X210467012Y-82453653D01*
X210467010Y-82453651D01*
X210467010Y-82453650D01*
X210381348Y-82367988D01*
X210272511Y-82314780D01*
X210254869Y-82312210D01*
X210201949Y-82304500D01*
X210201943Y-82304500D01*
X209808049Y-82304500D01*
X209737493Y-82314779D01*
X209628650Y-82367989D01*
X209542988Y-82453651D01*
X209489780Y-82562488D01*
X209488473Y-82566721D01*
X209485571Y-82571098D01*
X209485550Y-82571143D01*
X209485544Y-82571140D01*
X209449873Y-82624961D01*
X209385914Y-82653087D01*
X209316903Y-82642169D01*
X209264750Y-82595674D01*
X209251528Y-82566724D01*
X209250220Y-82562494D01*
X209250220Y-82562493D01*
X209250220Y-82562491D01*
X209197012Y-82453653D01*
X209197010Y-82453651D01*
X209197010Y-82453650D01*
X209111348Y-82367988D01*
X209002511Y-82314780D01*
X208984869Y-82312210D01*
X208931949Y-82304500D01*
X208931943Y-82304500D01*
X208538049Y-82304500D01*
X208467493Y-82314779D01*
X208358650Y-82367989D01*
X208272988Y-82453651D01*
X208219780Y-82562488D01*
X208218473Y-82566721D01*
X208215571Y-82571098D01*
X208215550Y-82571143D01*
X208215544Y-82571140D01*
X208179873Y-82624961D01*
X208115914Y-82653087D01*
X208046903Y-82642169D01*
X207994750Y-82595674D01*
X207981528Y-82566724D01*
X207980220Y-82562494D01*
X207980220Y-82562493D01*
X207980220Y-82562491D01*
X207927012Y-82453653D01*
X207927010Y-82453651D01*
X207927010Y-82453650D01*
X207841348Y-82367988D01*
X207732511Y-82314780D01*
X207714869Y-82312210D01*
X207661949Y-82304500D01*
X207661943Y-82304500D01*
X207268049Y-82304500D01*
X207197493Y-82314779D01*
X207088650Y-82367989D01*
X207002988Y-82453651D01*
X206949780Y-82562488D01*
X206949163Y-82566724D01*
X206939500Y-82633051D01*
X206939500Y-82633055D01*
X206939500Y-82633056D01*
X206939500Y-84001950D01*
X206949779Y-84072506D01*
X206949779Y-84072507D01*
X206949780Y-84072509D01*
X206982550Y-84139540D01*
X207007501Y-84190578D01*
X207005325Y-84191641D01*
X207011598Y-84209698D01*
X207023336Y-84241167D01*
X207023025Y-84242592D01*
X207023505Y-84243972D01*
X207015619Y-84276639D01*
X207008484Y-84309440D01*
X207007329Y-84310982D01*
X207007110Y-84311891D01*
X206987334Y-84337695D01*
X206881846Y-84443182D01*
X206820526Y-84476666D01*
X206794167Y-84479500D01*
X205694833Y-84479500D01*
X205627794Y-84459815D01*
X205582039Y-84407011D01*
X205572095Y-84337853D01*
X205601120Y-84274297D01*
X205607152Y-84267819D01*
X205816677Y-84058294D01*
X206040460Y-83834511D01*
X206041760Y-83832260D01*
X206080021Y-83765989D01*
X206100500Y-83689562D01*
X206100500Y-75050833D01*
X206109144Y-75021392D01*
X206115668Y-74991406D01*
X206119422Y-74986390D01*
X206120185Y-74983794D01*
X206136819Y-74963152D01*
X206163152Y-74936819D01*
X206224475Y-74903334D01*
X206250833Y-74900500D01*
X208064167Y-74900500D01*
X208131206Y-74920185D01*
X208151848Y-74936819D01*
X208295653Y-75080624D01*
X208329138Y-75141947D01*
X208324154Y-75211639D01*
X208295655Y-75255985D01*
X208272987Y-75278653D01*
X208219780Y-75387488D01*
X208218030Y-75399500D01*
X208209500Y-75458051D01*
X208209500Y-75458055D01*
X208209500Y-75458056D01*
X208209500Y-76826950D01*
X208219779Y-76897506D01*
X208272989Y-77006349D01*
X208358651Y-77092011D01*
X208467488Y-77145219D01*
X208467489Y-77145219D01*
X208467491Y-77145220D01*
X208538051Y-77155500D01*
X208931948Y-77155499D01*
X208931950Y-77155499D01*
X208960172Y-77151387D01*
X209002509Y-77145220D01*
X209111347Y-77092012D01*
X209197012Y-77006347D01*
X209250220Y-76897509D01*
X209250221Y-76897501D01*
X209251523Y-76893288D01*
X209254424Y-76888909D01*
X209254450Y-76888857D01*
X209254456Y-76888860D01*
X209290117Y-76835045D01*
X209354074Y-76806914D01*
X209423086Y-76817826D01*
X209475244Y-76864316D01*
X209488469Y-76893270D01*
X209489776Y-76897500D01*
X209542989Y-77006349D01*
X209628651Y-77092011D01*
X209737488Y-77145219D01*
X209737489Y-77145219D01*
X209737491Y-77145220D01*
X209808051Y-77155500D01*
X210201948Y-77155499D01*
X210201950Y-77155499D01*
X210230172Y-77151387D01*
X210272509Y-77145220D01*
X210381347Y-77092012D01*
X210467012Y-77006347D01*
X210520220Y-76897509D01*
X210520221Y-76897501D01*
X210521523Y-76893288D01*
X210524424Y-76888909D01*
X210524450Y-76888857D01*
X210524456Y-76888860D01*
X210560117Y-76835045D01*
X210624074Y-76806914D01*
X210693086Y-76817826D01*
X210745244Y-76864316D01*
X210758469Y-76893270D01*
X210759776Y-76897500D01*
X210812989Y-77006349D01*
X210898651Y-77092011D01*
X211007488Y-77145219D01*
X211007489Y-77145219D01*
X211007491Y-77145220D01*
X211078051Y-77155500D01*
X211471948Y-77155499D01*
X211471950Y-77155499D01*
X211500172Y-77151387D01*
X211542509Y-77145220D01*
X211651347Y-77092012D01*
X211737012Y-77006347D01*
X211790220Y-76897509D01*
X211800500Y-76826949D01*
X211800499Y-75458052D01*
X211797069Y-75434509D01*
X211790220Y-75387493D01*
X211790220Y-75387491D01*
X211737012Y-75278653D01*
X211737010Y-75278651D01*
X211737010Y-75278650D01*
X211651350Y-75192990D01*
X211651347Y-75192988D01*
X211645037Y-75189903D01*
X211634715Y-75180472D01*
X211621793Y-75175135D01*
X211609432Y-75157371D01*
X211593456Y-75142774D01*
X211589064Y-75128100D01*
X211581886Y-75117784D01*
X211577020Y-75087857D01*
X211575584Y-75083057D01*
X211575500Y-75080770D01*
X211575500Y-74895438D01*
X211571235Y-74879520D01*
X211555022Y-74819012D01*
X211515460Y-74750489D01*
X210945218Y-74180247D01*
X215999500Y-74180247D01*
X215999500Y-76219752D01*
X216011131Y-76278229D01*
X216011132Y-76278230D01*
X216055447Y-76344552D01*
X216121769Y-76388867D01*
X216121770Y-76388868D01*
X216180247Y-76400499D01*
X216180250Y-76400500D01*
X216180252Y-76400500D01*
X218219750Y-76400500D01*
X218219751Y-76400499D01*
X218236806Y-76397107D01*
X218278229Y-76388868D01*
X218278229Y-76388867D01*
X218278231Y-76388867D01*
X218344552Y-76344552D01*
X218388867Y-76278231D01*
X218388867Y-76278229D01*
X218388868Y-76278229D01*
X218400499Y-76219752D01*
X218400500Y-76219750D01*
X218400500Y-74180249D01*
X218400499Y-74180247D01*
X218388868Y-74121770D01*
X218388867Y-74121769D01*
X218344552Y-74055447D01*
X218278230Y-74011132D01*
X218278229Y-74011131D01*
X218219752Y-73999500D01*
X218219748Y-73999500D01*
X216180252Y-73999500D01*
X216180247Y-73999500D01*
X216121770Y-74011131D01*
X216121769Y-74011132D01*
X216055447Y-74055447D01*
X216011132Y-74121769D01*
X216011131Y-74121770D01*
X215999500Y-74180247D01*
X210945218Y-74180247D01*
X210006819Y-73241848D01*
X209973334Y-73180525D01*
X209970500Y-73154167D01*
X209970500Y-72505833D01*
X209990185Y-72438794D01*
X210006819Y-72418152D01*
X211998152Y-70426819D01*
X212025079Y-70412115D01*
X212050898Y-70395523D01*
X212057098Y-70394631D01*
X212059475Y-70393334D01*
X212085833Y-70390500D01*
X212289669Y-70390500D01*
X212356708Y-70410185D01*
X212377350Y-70426819D01*
X212462267Y-70511736D01*
X212459443Y-70514559D01*
X212490183Y-70553042D01*
X212497352Y-70622542D01*
X212465808Y-70684886D01*
X212462101Y-70688098D01*
X212462267Y-70688264D01*
X212370935Y-70779595D01*
X212320931Y-70886828D01*
X212314500Y-70935683D01*
X212314500Y-71284316D01*
X212320931Y-71333171D01*
X212320932Y-71333173D01*
X212370935Y-71440404D01*
X212454596Y-71524065D01*
X212561827Y-71574068D01*
X212610683Y-71580500D01*
X212610684Y-71580500D01*
X212829167Y-71580500D01*
X212896206Y-71600185D01*
X212916848Y-71616819D01*
X213065489Y-71765460D01*
X213134012Y-71805022D01*
X213210438Y-71825500D01*
X213289562Y-71825500D01*
X214185033Y-71825500D01*
X214252072Y-71845185D01*
X214272714Y-71861819D01*
X214280446Y-71869551D01*
X214346769Y-71913867D01*
X214346770Y-71913868D01*
X214405247Y-71925499D01*
X214405250Y-71925500D01*
X214405252Y-71925500D01*
X215494750Y-71925500D01*
X215494751Y-71925499D01*
X215509568Y-71922552D01*
X215553229Y-71913868D01*
X215553229Y-71913867D01*
X215553231Y-71913867D01*
X215619552Y-71869552D01*
X215619553Y-71869551D01*
X215627286Y-71861819D01*
X215688609Y-71828334D01*
X215714967Y-71825500D01*
X218335033Y-71825500D01*
X218402072Y-71845185D01*
X218422714Y-71861819D01*
X218430446Y-71869551D01*
X218496769Y-71913867D01*
X218496770Y-71913868D01*
X218555247Y-71925499D01*
X218555250Y-71925500D01*
X218555252Y-71925500D01*
X219644750Y-71925500D01*
X219644751Y-71925499D01*
X219659568Y-71922552D01*
X219703229Y-71913868D01*
X219703229Y-71913867D01*
X219703231Y-71913867D01*
X219769552Y-71869552D01*
X219813867Y-71803231D01*
X219813867Y-71803229D01*
X219813868Y-71803229D01*
X219825499Y-71744752D01*
X219825500Y-71744750D01*
X219825500Y-71055249D01*
X219825499Y-71055247D01*
X219813868Y-70996770D01*
X219813867Y-70996769D01*
X219769552Y-70930447D01*
X219703230Y-70886132D01*
X219703229Y-70886131D01*
X219644752Y-70874500D01*
X219644748Y-70874500D01*
X218555252Y-70874500D01*
X218555247Y-70874500D01*
X218496770Y-70886131D01*
X218496769Y-70886132D01*
X218430447Y-70930447D01*
X218386132Y-70996769D01*
X218386131Y-70996770D01*
X218374500Y-71055247D01*
X218374500Y-71100500D01*
X218354815Y-71167539D01*
X218302011Y-71213294D01*
X218250500Y-71224500D01*
X215799500Y-71224500D01*
X215732461Y-71204815D01*
X215686706Y-71152011D01*
X215675500Y-71100500D01*
X215675500Y-71055249D01*
X215675499Y-71055247D01*
X215663868Y-70996770D01*
X215663867Y-70996769D01*
X215619552Y-70930447D01*
X215553230Y-70886132D01*
X215553229Y-70886131D01*
X215494752Y-70874500D01*
X215494748Y-70874500D01*
X214405252Y-70874500D01*
X214405247Y-70874500D01*
X214346770Y-70886131D01*
X214346769Y-70886132D01*
X214280447Y-70930447D01*
X214236132Y-70996769D01*
X214236131Y-70996770D01*
X214224500Y-71055247D01*
X214224500Y-71100500D01*
X214204815Y-71167539D01*
X214152011Y-71213294D01*
X214100500Y-71224500D01*
X213479500Y-71224500D01*
X213412461Y-71204815D01*
X213366706Y-71152011D01*
X213355500Y-71100500D01*
X213355500Y-70935683D01*
X213349068Y-70886828D01*
X213348744Y-70886133D01*
X213299065Y-70779596D01*
X213215404Y-70695935D01*
X213207733Y-70688264D01*
X213210561Y-70685435D01*
X213179843Y-70647023D01*
X213172635Y-70577526D01*
X213204143Y-70515165D01*
X213207903Y-70511906D01*
X213207733Y-70511736D01*
X213230951Y-70488518D01*
X213299065Y-70420404D01*
X213349068Y-70313173D01*
X213355500Y-70264316D01*
X213355500Y-69915684D01*
X213349068Y-69866827D01*
X213299065Y-69759596D01*
X213215404Y-69675935D01*
X213207733Y-69668264D01*
X213210553Y-69665443D01*
X213179805Y-69626930D01*
X213172653Y-69557427D01*
X213204212Y-69495091D01*
X213207898Y-69491901D01*
X213207733Y-69491736D01*
X213215404Y-69484065D01*
X213299065Y-69400404D01*
X213349068Y-69293173D01*
X213355500Y-69244316D01*
X213355500Y-68895684D01*
X213349068Y-68846827D01*
X213299065Y-68739596D01*
X213215404Y-68655935D01*
X213207733Y-68648264D01*
X213210561Y-68645435D01*
X213179843Y-68607023D01*
X213172635Y-68537526D01*
X213204143Y-68475165D01*
X213207903Y-68471906D01*
X213207733Y-68471736D01*
X213215404Y-68464065D01*
X213299065Y-68380404D01*
X213349068Y-68273173D01*
X213355500Y-68224316D01*
X213355500Y-67875684D01*
X213349068Y-67826827D01*
X213299065Y-67719596D01*
X213215404Y-67635935D01*
X213215401Y-67635932D01*
X213207089Y-67632056D01*
X213194073Y-67620594D01*
X213178297Y-67613390D01*
X213168396Y-67597983D01*
X213154652Y-67585881D01*
X213149767Y-67568997D01*
X213140523Y-67554612D01*
X213135500Y-67519677D01*
X213135500Y-67446423D01*
X213152111Y-67384426D01*
X213198207Y-67304587D01*
X213225500Y-67202727D01*
X213225500Y-67097273D01*
X213198207Y-66995413D01*
X213145480Y-66904087D01*
X213070913Y-66829520D01*
X212979587Y-66776793D01*
X212877727Y-66749500D01*
X212772273Y-66749500D01*
X212670413Y-66776793D01*
X212670410Y-66776794D01*
X212579085Y-66829521D01*
X212504521Y-66904085D01*
X212451794Y-66995410D01*
X212451793Y-66995413D01*
X212424500Y-67097273D01*
X212424500Y-67202727D01*
X212451793Y-67304587D01*
X212504520Y-67395913D01*
X212504523Y-67395916D01*
X212508876Y-67401589D01*
X212517118Y-67422909D01*
X212529477Y-67442140D01*
X212532392Y-67462419D01*
X212534070Y-67466758D01*
X212534500Y-67477075D01*
X212534500Y-67519677D01*
X212514815Y-67586716D01*
X212462911Y-67632056D01*
X212454598Y-67635932D01*
X212370935Y-67719595D01*
X212320931Y-67826828D01*
X212314500Y-67875683D01*
X212314500Y-68224316D01*
X212320931Y-68273171D01*
X212370935Y-68380404D01*
X212462267Y-68471736D01*
X212459443Y-68474559D01*
X212490183Y-68513042D01*
X212497352Y-68582542D01*
X212465808Y-68644886D01*
X212462101Y-68648098D01*
X212462267Y-68648264D01*
X212370935Y-68739595D01*
X212320931Y-68846828D01*
X212314500Y-68895683D01*
X212314500Y-69244316D01*
X212320931Y-69293171D01*
X212370935Y-69400404D01*
X212462267Y-69491736D01*
X212459436Y-69494566D01*
X212490145Y-69532948D01*
X212497370Y-69602443D01*
X212465876Y-69664812D01*
X212462972Y-69667807D01*
X212455017Y-69675738D01*
X212454596Y-69675935D01*
X212377223Y-69753308D01*
X212346512Y-69770019D01*
X212316027Y-69786666D01*
X212315895Y-69786680D01*
X212315852Y-69786704D01*
X212315745Y-69786696D01*
X212289669Y-69789500D01*
X211870438Y-69789500D01*
X211832224Y-69799739D01*
X211794009Y-69809979D01*
X211765650Y-69826353D01*
X211751470Y-69834540D01*
X211743750Y-69838996D01*
X211725489Y-69849539D01*
X209429541Y-72145487D01*
X209429535Y-72145495D01*
X209389982Y-72214004D01*
X209389979Y-72214009D01*
X209369500Y-72290439D01*
X209369500Y-72905500D01*
X209349815Y-72972539D01*
X209297011Y-73018294D01*
X209245500Y-73029500D01*
X205430438Y-73029500D01*
X205392224Y-73039739D01*
X205354009Y-73049979D01*
X205354004Y-73049982D01*
X205285495Y-73089535D01*
X205285487Y-73089541D01*
X204329541Y-74045487D01*
X204329535Y-74045495D01*
X204289982Y-74114004D01*
X204289979Y-74114009D01*
X204276326Y-74164962D01*
X204272230Y-74180252D01*
X204269500Y-74190439D01*
X204269500Y-82076000D01*
X204249815Y-82143039D01*
X204197011Y-82188794D01*
X204145500Y-82200000D01*
X203094500Y-82200000D01*
X203085814Y-82197449D01*
X203076853Y-82198738D01*
X203052812Y-82187759D01*
X203027461Y-82180315D01*
X203021533Y-82173474D01*
X203013297Y-82169713D01*
X202999007Y-82147478D01*
X202981706Y-82127511D01*
X202979418Y-82116996D01*
X202975523Y-82110935D01*
X202970500Y-82076000D01*
X202970500Y-81982496D01*
X202990185Y-81915457D01*
X203042097Y-81870113D01*
X203078316Y-81853224D01*
X203163224Y-81768316D01*
X203213972Y-81659487D01*
X203220500Y-81609901D01*
X203220499Y-81190100D01*
X203213972Y-81140513D01*
X203163224Y-81031684D01*
X203078316Y-80946776D01*
X202969487Y-80896028D01*
X202969485Y-80896027D01*
X202969484Y-80896027D01*
X202960376Y-80893372D01*
X202960842Y-80891772D01*
X202906973Y-80867938D01*
X202868506Y-80809611D01*
X202867679Y-80739746D01*
X202896014Y-80691341D01*
X202895513Y-80690957D01*
X202898579Y-80686961D01*
X202899383Y-80685587D01*
X202900460Y-80684511D01*
X202907965Y-80671512D01*
X202940021Y-80615989D01*
X202960500Y-80539562D01*
X202960500Y-79497938D01*
X202940021Y-79421511D01*
X202928604Y-79401736D01*
X202900464Y-79352995D01*
X202900458Y-79352987D01*
X202873901Y-79326430D01*
X202840416Y-79265107D01*
X202845400Y-79195415D01*
X202873897Y-79151072D01*
X203088151Y-78936818D01*
X203149474Y-78903334D01*
X203175832Y-78900500D01*
X203252725Y-78900500D01*
X203252727Y-78900500D01*
X203354587Y-78873207D01*
X203445913Y-78820480D01*
X203520480Y-78745913D01*
X203573207Y-78654587D01*
X203600500Y-78552727D01*
X203600500Y-78447273D01*
X203573207Y-78345413D01*
X203520480Y-78254087D01*
X203445913Y-78179520D01*
X203354587Y-78126793D01*
X203252727Y-78099500D01*
X203147273Y-78099500D01*
X203045413Y-78126793D01*
X203045410Y-78126794D01*
X202954085Y-78179521D01*
X202879520Y-78254086D01*
X202831098Y-78337954D01*
X202811393Y-78363634D01*
X202448931Y-78726097D01*
X202442730Y-78729482D01*
X202438679Y-78735270D01*
X202412468Y-78746007D01*
X202387608Y-78759582D01*
X202380561Y-78759078D01*
X202374024Y-78761756D01*
X202346169Y-78756618D01*
X202317917Y-78754598D01*
X202310599Y-78750057D01*
X202305313Y-78749083D01*
X202283087Y-78732989D01*
X202276401Y-78728841D01*
X202274957Y-78727486D01*
X202184511Y-78637040D01*
X202181476Y-78635288D01*
X202115989Y-78597479D01*
X202039562Y-78577000D01*
X202039560Y-78577000D01*
X201820321Y-78577000D01*
X201753282Y-78557315D01*
X201707939Y-78505404D01*
X201704065Y-78497096D01*
X201620404Y-78413435D01*
X201513173Y-78363432D01*
X201513171Y-78363431D01*
X201513172Y-78363431D01*
X201464317Y-78357000D01*
X201464316Y-78357000D01*
X201115684Y-78357000D01*
X201115683Y-78357000D01*
X201066828Y-78363431D01*
X200959595Y-78413435D01*
X200868264Y-78504767D01*
X200865440Y-78501943D01*
X200826958Y-78532683D01*
X200757458Y-78539852D01*
X200695114Y-78508308D01*
X200692191Y-78505472D01*
X200684263Y-78497521D01*
X200684065Y-78497096D01*
X200606689Y-78419720D01*
X200589914Y-78388892D01*
X200573334Y-78358527D01*
X200573319Y-78358394D01*
X200573296Y-78358351D01*
X200573303Y-78358245D01*
X200570500Y-78332169D01*
X200570500Y-78114575D01*
X200590185Y-78047536D01*
X200596124Y-78039089D01*
X200600472Y-78033420D01*
X200600480Y-78033413D01*
X200653207Y-77942087D01*
X200680500Y-77840227D01*
X200680500Y-77734773D01*
X200653207Y-77632913D01*
X200600480Y-77541587D01*
X200525913Y-77467020D01*
X200434587Y-77414293D01*
X200332727Y-77387000D01*
X200227273Y-77387000D01*
X200125413Y-77414293D01*
X200125410Y-77414294D01*
X200034085Y-77467021D01*
X199959521Y-77541585D01*
X199906794Y-77632910D01*
X199906793Y-77632913D01*
X199879500Y-77734773D01*
X199879500Y-77840227D01*
X199906793Y-77942087D01*
X199952888Y-78021926D01*
X199957037Y-78037411D01*
X199964477Y-78048988D01*
X199969500Y-78083923D01*
X199969500Y-78332169D01*
X199949815Y-78399208D01*
X199933181Y-78419850D01*
X199855935Y-78497095D01*
X199805931Y-78604328D01*
X199799500Y-78653183D01*
X199799500Y-78871667D01*
X199779815Y-78938706D01*
X199763181Y-78959348D01*
X199759541Y-78962987D01*
X199759535Y-78962995D01*
X199719982Y-79031504D01*
X199719979Y-79031509D01*
X199699500Y-79107939D01*
X199699500Y-79376000D01*
X199679815Y-79443039D01*
X199627011Y-79488794D01*
X199575500Y-79500000D01*
X199224500Y-79500000D01*
X199157461Y-79480315D01*
X199111706Y-79427511D01*
X199100500Y-79376000D01*
X199100500Y-76651918D01*
X199093759Y-76626760D01*
X199080021Y-76575490D01*
X199063730Y-76547273D01*
X199040464Y-76506974D01*
X199040458Y-76506966D01*
X198376967Y-75843475D01*
X198357260Y-75817793D01*
X198320480Y-75754087D01*
X198245913Y-75679520D01*
X198154587Y-75626793D01*
X198052727Y-75599500D01*
X197947273Y-75599500D01*
X197845413Y-75626793D01*
X197845410Y-75626794D01*
X197754085Y-75679521D01*
X197679521Y-75754085D01*
X197626794Y-75845410D01*
X197626793Y-75845413D01*
X197599500Y-75947273D01*
X197599500Y-76052726D01*
X197626793Y-76154586D01*
X197626794Y-76154589D01*
X197674951Y-76238000D01*
X197691424Y-76305901D01*
X197674951Y-76362000D01*
X197626794Y-76445410D01*
X197626793Y-76445413D01*
X197599500Y-76547273D01*
X197599500Y-76652727D01*
X197626793Y-76754587D01*
X197679520Y-76845913D01*
X197754087Y-76920480D01*
X197845413Y-76973207D01*
X197907593Y-76989868D01*
X197967253Y-77026231D01*
X197997783Y-77089078D01*
X197999500Y-77109642D01*
X197999500Y-80224167D01*
X197979815Y-80291206D01*
X197963181Y-80311848D01*
X197629541Y-80645487D01*
X197629535Y-80645495D01*
X197589982Y-80714004D01*
X197589979Y-80714009D01*
X197569500Y-80790439D01*
X197569500Y-81451568D01*
X197567791Y-81457386D01*
X197568940Y-81463341D01*
X197558061Y-81490521D01*
X197549815Y-81518607D01*
X197545232Y-81522577D01*
X197542979Y-81528208D01*
X197519134Y-81545192D01*
X197497011Y-81564362D01*
X197491009Y-81565224D01*
X197486070Y-81568743D01*
X197456830Y-81570139D01*
X197427853Y-81574306D01*
X197420786Y-81571860D01*
X197416280Y-81572076D01*
X197383530Y-81558968D01*
X197383512Y-81558962D01*
X197374943Y-81554016D01*
X197374941Y-81554014D01*
X197374939Y-81554013D01*
X197374939Y-81554012D01*
X197374938Y-81554011D01*
X197374930Y-81554009D01*
X197315989Y-81519979D01*
X197239562Y-81499500D01*
X197239560Y-81499500D01*
X196875833Y-81499500D01*
X196846392Y-81490855D01*
X196816406Y-81484332D01*
X196811390Y-81480577D01*
X196808794Y-81479815D01*
X196788152Y-81463181D01*
X196634336Y-81309365D01*
X196602242Y-81253777D01*
X196600500Y-81247275D01*
X196600500Y-81247273D01*
X196573207Y-81145413D01*
X196520480Y-81054087D01*
X196445913Y-80979520D01*
X196354587Y-80926793D01*
X196252727Y-80899500D01*
X196147273Y-80899500D01*
X196045413Y-80926793D01*
X196045410Y-80926794D01*
X195954085Y-80979521D01*
X195879521Y-81054085D01*
X195826794Y-81145410D01*
X195826793Y-81145413D01*
X195799500Y-81247273D01*
X195799500Y-81352727D01*
X195826793Y-81454587D01*
X195879520Y-81545913D01*
X195954087Y-81620480D01*
X196045413Y-81673207D01*
X196147273Y-81700500D01*
X196147276Y-81700500D01*
X196153777Y-81702242D01*
X196209365Y-81734336D01*
X196515489Y-82040460D01*
X196574829Y-82074720D01*
X196583142Y-82079520D01*
X196584012Y-82080022D01*
X196660438Y-82100500D01*
X196739562Y-82100500D01*
X197024167Y-82100500D01*
X197053607Y-82109144D01*
X197083594Y-82115668D01*
X197088609Y-82119422D01*
X197091206Y-82120185D01*
X197111848Y-82136819D01*
X197133181Y-82158152D01*
X197166666Y-82219475D01*
X197169500Y-82245833D01*
X197169500Y-83155500D01*
X197149815Y-83222539D01*
X197097011Y-83268294D01*
X197045500Y-83279500D01*
X196355833Y-83279500D01*
X196288794Y-83259815D01*
X196268152Y-83243181D01*
X195536819Y-82511848D01*
X195503334Y-82450525D01*
X195500500Y-82424167D01*
X195500500Y-80530321D01*
X195520185Y-80463282D01*
X195572095Y-80417939D01*
X195580404Y-80414065D01*
X195664065Y-80330404D01*
X195714068Y-80223173D01*
X195720500Y-80174316D01*
X195720500Y-79825684D01*
X195714068Y-79776827D01*
X195664065Y-79669596D01*
X195580404Y-79585935D01*
X195572733Y-79578264D01*
X195575561Y-79575435D01*
X195544843Y-79537023D01*
X195537635Y-79467526D01*
X195569143Y-79405165D01*
X195572903Y-79401906D01*
X195572733Y-79401736D01*
X195601264Y-79373205D01*
X195664065Y-79310404D01*
X195714068Y-79203173D01*
X195720500Y-79154316D01*
X195720500Y-78805684D01*
X195714068Y-78756827D01*
X195664065Y-78649596D01*
X195580404Y-78565935D01*
X195473173Y-78515932D01*
X195473171Y-78515931D01*
X195473172Y-78515931D01*
X195424317Y-78509500D01*
X195424316Y-78509500D01*
X194975684Y-78509500D01*
X194975683Y-78509500D01*
X194926828Y-78515931D01*
X194819595Y-78565935D01*
X194742350Y-78643181D01*
X194715422Y-78657884D01*
X194689604Y-78674477D01*
X194683403Y-78675368D01*
X194681027Y-78676666D01*
X194654669Y-78679500D01*
X194479104Y-78679500D01*
X194417104Y-78662887D01*
X194354589Y-78626794D01*
X194354588Y-78626793D01*
X194354587Y-78626793D01*
X194252727Y-78599500D01*
X194147273Y-78599500D01*
X194045413Y-78626793D01*
X194045410Y-78626794D01*
X193954085Y-78679521D01*
X193879521Y-78754085D01*
X193826794Y-78845410D01*
X193826793Y-78845413D01*
X193799500Y-78947273D01*
X193799500Y-79052727D01*
X193826793Y-79154587D01*
X193879520Y-79245913D01*
X193954087Y-79320480D01*
X194045413Y-79373207D01*
X194147273Y-79400500D01*
X194147275Y-79400500D01*
X194252725Y-79400500D01*
X194252727Y-79400500D01*
X194354587Y-79373207D01*
X194445913Y-79320480D01*
X194449574Y-79316819D01*
X194476501Y-79302115D01*
X194502320Y-79285523D01*
X194508520Y-79284631D01*
X194510897Y-79283334D01*
X194537255Y-79280500D01*
X194654669Y-79280500D01*
X194721708Y-79300185D01*
X194742350Y-79316819D01*
X194827267Y-79401736D01*
X194824443Y-79404559D01*
X194855183Y-79443042D01*
X194862352Y-79512542D01*
X194830808Y-79574886D01*
X194827101Y-79578098D01*
X194827267Y-79578264D01*
X194742350Y-79663181D01*
X194681027Y-79696666D01*
X194654669Y-79699500D01*
X189775833Y-79699500D01*
X189708794Y-79679815D01*
X189688152Y-79663181D01*
X186225798Y-76200827D01*
X189453054Y-76200827D01*
X189453054Y-76306281D01*
X189480347Y-76408141D01*
X189533074Y-76499467D01*
X189607641Y-76574034D01*
X189698967Y-76626761D01*
X189800827Y-76654054D01*
X189800829Y-76654054D01*
X189906279Y-76654054D01*
X189906281Y-76654054D01*
X190008141Y-76626761D01*
X190099467Y-76574034D01*
X190174034Y-76499467D01*
X190226761Y-76408141D01*
X190254054Y-76306281D01*
X190254054Y-76200827D01*
X190226761Y-76098967D01*
X190174034Y-76007641D01*
X190099467Y-75933074D01*
X190008141Y-75880347D01*
X189906281Y-75853054D01*
X189800827Y-75853054D01*
X189698967Y-75880347D01*
X189698964Y-75880348D01*
X189607639Y-75933075D01*
X189533075Y-76007639D01*
X189480348Y-76098964D01*
X189480347Y-76098967D01*
X189453054Y-76200827D01*
X186225798Y-76200827D01*
X185484512Y-75459541D01*
X185484507Y-75459537D01*
X185457616Y-75444012D01*
X185441159Y-75434511D01*
X185441157Y-75434509D01*
X185441157Y-75434510D01*
X185441155Y-75434509D01*
X185435838Y-75431439D01*
X185415990Y-75419979D01*
X185415991Y-75419979D01*
X185377775Y-75409739D01*
X185339562Y-75399500D01*
X185339560Y-75399500D01*
X178075833Y-75399500D01*
X178008794Y-75379815D01*
X177988152Y-75363181D01*
X177086819Y-74461848D01*
X177053334Y-74400525D01*
X177050500Y-74374167D01*
X177050500Y-72347273D01*
X190199500Y-72347273D01*
X190199500Y-72452727D01*
X190226793Y-72554587D01*
X190279520Y-72645913D01*
X190354087Y-72720480D01*
X190445413Y-72773207D01*
X190547273Y-72800500D01*
X190547275Y-72800500D01*
X190652725Y-72800500D01*
X190652727Y-72800500D01*
X190754587Y-72773207D01*
X190845913Y-72720480D01*
X190920480Y-72645913D01*
X190973207Y-72554587D01*
X190975167Y-72547273D01*
X197999500Y-72547273D01*
X197999500Y-72652727D01*
X198026793Y-72754587D01*
X198079520Y-72845913D01*
X198154087Y-72920480D01*
X198245413Y-72973207D01*
X198347273Y-73000500D01*
X198347275Y-73000500D01*
X198452725Y-73000500D01*
X198452727Y-73000500D01*
X198554587Y-72973207D01*
X198645913Y-72920480D01*
X198720480Y-72845913D01*
X198773207Y-72754587D01*
X198800500Y-72652727D01*
X198800500Y-72547273D01*
X198773207Y-72445413D01*
X198720480Y-72354087D01*
X198645913Y-72279520D01*
X198554587Y-72226793D01*
X198452727Y-72199500D01*
X198347273Y-72199500D01*
X198245413Y-72226793D01*
X198245410Y-72226794D01*
X198154085Y-72279521D01*
X198079521Y-72354085D01*
X198026794Y-72445410D01*
X198026793Y-72445413D01*
X197999500Y-72547273D01*
X190975167Y-72547273D01*
X191000500Y-72452727D01*
X191000500Y-72347273D01*
X190973207Y-72245413D01*
X190920480Y-72154087D01*
X190845913Y-72079520D01*
X190754587Y-72026793D01*
X190652727Y-71999500D01*
X190547273Y-71999500D01*
X190445413Y-72026793D01*
X190445410Y-72026794D01*
X190354085Y-72079521D01*
X190279521Y-72154085D01*
X190226794Y-72245410D01*
X190226793Y-72245413D01*
X190199500Y-72347273D01*
X177050500Y-72347273D01*
X177050500Y-71947273D01*
X200799500Y-71947273D01*
X200799500Y-72052727D01*
X200826793Y-72154587D01*
X200879520Y-72245913D01*
X200954087Y-72320480D01*
X201045413Y-72373207D01*
X201147273Y-72400500D01*
X201147275Y-72400500D01*
X201252725Y-72400500D01*
X201252727Y-72400500D01*
X201354587Y-72373207D01*
X201445913Y-72320480D01*
X201520480Y-72245913D01*
X201573207Y-72154587D01*
X201600500Y-72052727D01*
X201600500Y-71947273D01*
X201573207Y-71845413D01*
X201520480Y-71754087D01*
X201445913Y-71679520D01*
X201354587Y-71626793D01*
X201252727Y-71599500D01*
X201147273Y-71599500D01*
X201045413Y-71626793D01*
X201045410Y-71626794D01*
X200954085Y-71679521D01*
X200879521Y-71754085D01*
X200826794Y-71845410D01*
X200826793Y-71845413D01*
X200799500Y-71947273D01*
X177050500Y-71947273D01*
X177050500Y-70512000D01*
X177070185Y-70444961D01*
X177122989Y-70399206D01*
X177141672Y-70392424D01*
X177157787Y-70388000D01*
X177169748Y-70388000D01*
X177228231Y-70376367D01*
X177247807Y-70363286D01*
X177267172Y-70357970D01*
X177282836Y-70358246D01*
X177297785Y-70353566D01*
X177317053Y-70358851D01*
X177337031Y-70359205D01*
X177350058Y-70367905D01*
X177365165Y-70372050D01*
X177368892Y-70374445D01*
X177371768Y-70376367D01*
X177371770Y-70376368D01*
X177430247Y-70387999D01*
X177430250Y-70388000D01*
X177430252Y-70388000D01*
X178269750Y-70388000D01*
X178269751Y-70387999D01*
X178284568Y-70385052D01*
X178328229Y-70376368D01*
X178328231Y-70376367D01*
X178331108Y-70374445D01*
X178338335Y-70372181D01*
X178339513Y-70371694D01*
X178339556Y-70371799D01*
X178397785Y-70353566D01*
X178465165Y-70372050D01*
X178468892Y-70374445D01*
X178471768Y-70376367D01*
X178471770Y-70376368D01*
X178530247Y-70387999D01*
X178530250Y-70388000D01*
X178530252Y-70388000D01*
X179369750Y-70388000D01*
X179369751Y-70387999D01*
X179384568Y-70385052D01*
X179428229Y-70376368D01*
X179428231Y-70376367D01*
X179431108Y-70374445D01*
X179438335Y-70372181D01*
X179439513Y-70371694D01*
X179439556Y-70371799D01*
X179497785Y-70353566D01*
X179565165Y-70372050D01*
X179568892Y-70374445D01*
X179571768Y-70376367D01*
X179571770Y-70376368D01*
X179630247Y-70387999D01*
X179630250Y-70388000D01*
X179630252Y-70388000D01*
X180469750Y-70388000D01*
X180469751Y-70387999D01*
X180484568Y-70385052D01*
X180528229Y-70376368D01*
X180528229Y-70376367D01*
X180528231Y-70376367D01*
X180594552Y-70332052D01*
X180638867Y-70265731D01*
X180638867Y-70265729D01*
X180638868Y-70265729D01*
X180650499Y-70207252D01*
X180650500Y-70207250D01*
X180650500Y-68367749D01*
X180650499Y-68367747D01*
X181649500Y-68367747D01*
X181649500Y-70207252D01*
X181661131Y-70265729D01*
X181661132Y-70265730D01*
X181705447Y-70332052D01*
X181771769Y-70376367D01*
X181771770Y-70376368D01*
X181830247Y-70387999D01*
X181830250Y-70388000D01*
X181830252Y-70388000D01*
X182669750Y-70388000D01*
X182669751Y-70387999D01*
X182684568Y-70385052D01*
X182728229Y-70376368D01*
X182728229Y-70376367D01*
X182728231Y-70376367D01*
X182794552Y-70332052D01*
X182838867Y-70265731D01*
X182838867Y-70265729D01*
X182838868Y-70265729D01*
X182850499Y-70207252D01*
X182850500Y-70207250D01*
X182850500Y-68367749D01*
X182850499Y-68367747D01*
X182838868Y-68309270D01*
X182838867Y-68309269D01*
X182794552Y-68242947D01*
X182728230Y-68198632D01*
X182728229Y-68198631D01*
X182669752Y-68187000D01*
X182669748Y-68187000D01*
X181830252Y-68187000D01*
X181830247Y-68187000D01*
X181771770Y-68198631D01*
X181771769Y-68198632D01*
X181705447Y-68242947D01*
X181661132Y-68309269D01*
X181661131Y-68309270D01*
X181649500Y-68367747D01*
X180650499Y-68367747D01*
X180638868Y-68309270D01*
X180638867Y-68309269D01*
X180594552Y-68242947D01*
X180528230Y-68198632D01*
X180528229Y-68198631D01*
X180469752Y-68187000D01*
X180469748Y-68187000D01*
X179630252Y-68187000D01*
X179630247Y-68187000D01*
X179571770Y-68198631D01*
X179571768Y-68198632D01*
X179568887Y-68200558D01*
X179561655Y-68202822D01*
X179560487Y-68203306D01*
X179560443Y-68203201D01*
X179502209Y-68221433D01*
X179434829Y-68202946D01*
X179431113Y-68200558D01*
X179428231Y-68198632D01*
X179428229Y-68198631D01*
X179369752Y-68187000D01*
X179369748Y-68187000D01*
X178530252Y-68187000D01*
X178530247Y-68187000D01*
X178471770Y-68198631D01*
X178471768Y-68198632D01*
X178468887Y-68200558D01*
X178461655Y-68202822D01*
X178460487Y-68203306D01*
X178460443Y-68203201D01*
X178402209Y-68221433D01*
X178334829Y-68202946D01*
X178331113Y-68200558D01*
X178328231Y-68198632D01*
X178328229Y-68198631D01*
X178269752Y-68187000D01*
X178269748Y-68187000D01*
X177430252Y-68187000D01*
X177430247Y-68187000D01*
X177371770Y-68198631D01*
X177371768Y-68198632D01*
X177368887Y-68200558D01*
X177361655Y-68202822D01*
X177360487Y-68203306D01*
X177360443Y-68203201D01*
X177302209Y-68221433D01*
X177234829Y-68202946D01*
X177231113Y-68200558D01*
X177228231Y-68198632D01*
X177228229Y-68198631D01*
X177169752Y-68187000D01*
X177169748Y-68187000D01*
X176330252Y-68187000D01*
X176330247Y-68187000D01*
X176271770Y-68198631D01*
X176271768Y-68198632D01*
X176268887Y-68200558D01*
X176261655Y-68202822D01*
X176260487Y-68203306D01*
X176260443Y-68203201D01*
X176202209Y-68221433D01*
X176134829Y-68202946D01*
X176131113Y-68200558D01*
X176128231Y-68198632D01*
X176128229Y-68198631D01*
X176069752Y-68187000D01*
X176069748Y-68187000D01*
X175230252Y-68187000D01*
X175230247Y-68187000D01*
X175171770Y-68198631D01*
X175171766Y-68198633D01*
X175143890Y-68217260D01*
X175077213Y-68238138D01*
X175009833Y-68219653D01*
X175006110Y-68217260D01*
X174978233Y-68198633D01*
X174978229Y-68198631D01*
X174919752Y-68187000D01*
X174919748Y-68187000D01*
X174180252Y-68187000D01*
X174180247Y-68187000D01*
X174121770Y-68198631D01*
X174121769Y-68198632D01*
X174055447Y-68242947D01*
X174011132Y-68309269D01*
X174011131Y-68309270D01*
X173999500Y-68367747D01*
X173999500Y-70207252D01*
X174011131Y-70265729D01*
X174011132Y-70265730D01*
X174055447Y-70332052D01*
X174121769Y-70376367D01*
X174121770Y-70376368D01*
X174180247Y-70387999D01*
X174180250Y-70388000D01*
X174180252Y-70388000D01*
X174919750Y-70388000D01*
X174919751Y-70387999D01*
X174934568Y-70385052D01*
X174978229Y-70376368D01*
X174978231Y-70376367D01*
X175006108Y-70357740D01*
X175072785Y-70336861D01*
X175114908Y-70343439D01*
X175130340Y-70348684D01*
X175171769Y-70376367D01*
X175230252Y-70388000D01*
X175245998Y-70388000D01*
X175265408Y-70394598D01*
X175277892Y-70403384D01*
X175292539Y-70407685D01*
X175305880Y-70423082D01*
X175322546Y-70434811D01*
X175328298Y-70448953D01*
X175338294Y-70460489D01*
X175344391Y-70488518D01*
X175348871Y-70499531D01*
X175347907Y-70504681D01*
X175349500Y-70512000D01*
X175349500Y-75289562D01*
X175352431Y-75300499D01*
X175369979Y-75365990D01*
X175400532Y-75418907D01*
X175400534Y-75418914D01*
X175400535Y-75418914D01*
X175409537Y-75434508D01*
X175409540Y-75434512D01*
X176253258Y-76278229D01*
X177059540Y-77084511D01*
X177115489Y-77140460D01*
X177115491Y-77140461D01*
X177115495Y-77140464D01*
X177141537Y-77155499D01*
X177184011Y-77180021D01*
X177260438Y-77200500D01*
X184424167Y-77200500D01*
X184491206Y-77220185D01*
X184511848Y-77236819D01*
X187196870Y-79921841D01*
X187230355Y-79983164D01*
X187225371Y-80052856D01*
X187183499Y-80108789D01*
X187118035Y-80133206D01*
X187077097Y-80129297D01*
X186965892Y-80099500D01*
X186834108Y-80099500D01*
X186706812Y-80133608D01*
X186592686Y-80199500D01*
X186592683Y-80199502D01*
X186499502Y-80292683D01*
X186499500Y-80292686D01*
X186433608Y-80406812D01*
X186400515Y-80530321D01*
X186399500Y-80534108D01*
X186399500Y-80665892D01*
X186412393Y-80714009D01*
X186433608Y-80793187D01*
X186443091Y-80809611D01*
X186499500Y-80907314D01*
X186592686Y-81000500D01*
X186706814Y-81066392D01*
X186834108Y-81100500D01*
X186834110Y-81100500D01*
X186965890Y-81100500D01*
X186965892Y-81100500D01*
X187093186Y-81066392D01*
X187207314Y-81000500D01*
X187300500Y-80907314D01*
X187366392Y-80793186D01*
X187400500Y-80665892D01*
X187400500Y-80534108D01*
X187370702Y-80422899D01*
X187372365Y-80353054D01*
X187411527Y-80295191D01*
X187475756Y-80267687D01*
X187544658Y-80279273D01*
X187578158Y-80303129D01*
X189115489Y-81840460D01*
X189184012Y-81880022D01*
X189260438Y-81900500D01*
X192504480Y-81900500D01*
X192571519Y-81920185D01*
X192617274Y-81972989D01*
X192627218Y-82042147D01*
X192598193Y-82105703D01*
X192554569Y-82137932D01*
X192532951Y-82147478D01*
X192532233Y-82147795D01*
X192452794Y-82227234D01*
X192407415Y-82330006D01*
X192407415Y-82330008D01*
X192404501Y-82355123D01*
X192404500Y-82355137D01*
X192404500Y-82454166D01*
X192384815Y-82521205D01*
X192368181Y-82541847D01*
X192065489Y-82844540D01*
X192009541Y-82900487D01*
X192009535Y-82900495D01*
X191969982Y-82969004D01*
X191969979Y-82969009D01*
X191964678Y-82988791D01*
X191959640Y-83007595D01*
X191923275Y-83067254D01*
X191860428Y-83097783D01*
X191839866Y-83099500D01*
X191705247Y-83099500D01*
X191646770Y-83111131D01*
X191646769Y-83111132D01*
X191580447Y-83155447D01*
X191536132Y-83221769D01*
X191536131Y-83221770D01*
X191524500Y-83280247D01*
X191524500Y-83679166D01*
X191504815Y-83746205D01*
X191488181Y-83766847D01*
X190791846Y-84463181D01*
X190730523Y-84496666D01*
X190704166Y-84499500D01*
X190605143Y-84499500D01*
X190605118Y-84499502D01*
X190580011Y-84502414D01*
X190580008Y-84502415D01*
X190477235Y-84547793D01*
X190397794Y-84627234D01*
X190352415Y-84730006D01*
X190352415Y-84730008D01*
X190349500Y-84755131D01*
X190349500Y-84842061D01*
X190329815Y-84909100D01*
X190277011Y-84954855D01*
X190225756Y-84966061D01*
X175050000Y-84997417D01*
X166196882Y-85015708D01*
X166191288Y-84966061D01*
X166188942Y-84945239D01*
X166180362Y-84869082D01*
X166180361Y-84869077D01*
X166180360Y-84869068D01*
X166100000Y-84516990D01*
X165980726Y-84176123D01*
X165824037Y-83850755D01*
X165631903Y-83544976D01*
X165406741Y-83262631D01*
X165151382Y-83007272D01*
X164869037Y-82782110D01*
X164618936Y-82624961D01*
X164563255Y-82589974D01*
X164237891Y-82433287D01*
X163897024Y-82314013D01*
X163897022Y-82314012D01*
X163625304Y-82251994D01*
X163544945Y-82233653D01*
X163544941Y-82233652D01*
X163544932Y-82233651D01*
X163186088Y-82193219D01*
X163186084Y-82193219D01*
X162824952Y-82193219D01*
X162824947Y-82193219D01*
X162466103Y-82233651D01*
X162466091Y-82233653D01*
X162114013Y-82314012D01*
X162114011Y-82314013D01*
X161773144Y-82433287D01*
X161447780Y-82589974D01*
X161142000Y-82782109D01*
X160859654Y-83007271D01*
X160604294Y-83262631D01*
X160379132Y-83544977D01*
X160186997Y-83850757D01*
X160030310Y-84176121D01*
X159911036Y-84516988D01*
X159911035Y-84516990D01*
X159830676Y-84869068D01*
X159830674Y-84869080D01*
X159812666Y-85028899D01*
X151390500Y-85046300D01*
X151390500Y-77867747D01*
X175049500Y-77867747D01*
X175049500Y-79707252D01*
X175061131Y-79765729D01*
X175061132Y-79765730D01*
X175105447Y-79832052D01*
X175171769Y-79876367D01*
X175171770Y-79876368D01*
X175230247Y-79887999D01*
X175230250Y-79888000D01*
X175230252Y-79888000D01*
X176069750Y-79888000D01*
X176069751Y-79887999D01*
X176084568Y-79885052D01*
X176128229Y-79876368D01*
X176128231Y-79876367D01*
X176131108Y-79874445D01*
X176138335Y-79872181D01*
X176139513Y-79871694D01*
X176139556Y-79871799D01*
X176197785Y-79853566D01*
X176265165Y-79872050D01*
X176268892Y-79874445D01*
X176271768Y-79876367D01*
X176271770Y-79876368D01*
X176330247Y-79887999D01*
X176330250Y-79888000D01*
X176330252Y-79888000D01*
X177169750Y-79888000D01*
X177169751Y-79887999D01*
X177184568Y-79885052D01*
X177228229Y-79876368D01*
X177228231Y-79876367D01*
X177231108Y-79874445D01*
X177238335Y-79872181D01*
X177239513Y-79871694D01*
X177239556Y-79871799D01*
X177297785Y-79853566D01*
X177365165Y-79872050D01*
X177368892Y-79874445D01*
X177371768Y-79876367D01*
X177371770Y-79876368D01*
X177430247Y-79887999D01*
X177430250Y-79888000D01*
X177430252Y-79888000D01*
X178269750Y-79888000D01*
X178269751Y-79887999D01*
X178284568Y-79885052D01*
X178328229Y-79876368D01*
X178328231Y-79876367D01*
X178331108Y-79874445D01*
X178338335Y-79872181D01*
X178339513Y-79871694D01*
X178339556Y-79871799D01*
X178397785Y-79853566D01*
X178465165Y-79872050D01*
X178468892Y-79874445D01*
X178471768Y-79876367D01*
X178471770Y-79876368D01*
X178530247Y-79887999D01*
X178530250Y-79888000D01*
X178530252Y-79888000D01*
X179369750Y-79888000D01*
X179369751Y-79887999D01*
X179384568Y-79885052D01*
X179428229Y-79876368D01*
X179428231Y-79876367D01*
X179431108Y-79874445D01*
X179438335Y-79872181D01*
X179439513Y-79871694D01*
X179439556Y-79871799D01*
X179497785Y-79853566D01*
X179565165Y-79872050D01*
X179568892Y-79874445D01*
X179571768Y-79876367D01*
X179571770Y-79876368D01*
X179630247Y-79887999D01*
X179630250Y-79888000D01*
X179630252Y-79888000D01*
X180469750Y-79888000D01*
X180469751Y-79887999D01*
X180484568Y-79885052D01*
X180528229Y-79876368D01*
X180539513Y-79871694D01*
X180540727Y-79874624D01*
X180549704Y-79871811D01*
X180576290Y-79860425D01*
X180582631Y-79861491D01*
X180588771Y-79859567D01*
X180616673Y-79867213D01*
X180645193Y-79872008D01*
X180649951Y-79876333D01*
X180656156Y-79878034D01*
X180675492Y-79899549D01*
X180696895Y-79919004D01*
X180700462Y-79927332D01*
X180702860Y-79930001D01*
X180710790Y-79951448D01*
X180713198Y-79960433D01*
X180713200Y-79960438D01*
X180730201Y-80023888D01*
X180746926Y-80052856D01*
X180789511Y-80126614D01*
X181423386Y-80760489D01*
X181423390Y-80760491D01*
X181423391Y-80760492D01*
X181438991Y-80769499D01*
X181438996Y-80769501D01*
X181526108Y-80819796D01*
X181526109Y-80819797D01*
X181526111Y-80819797D01*
X181526114Y-80819799D01*
X181640691Y-80850500D01*
X181670337Y-80850500D01*
X181679022Y-80853050D01*
X181687984Y-80851762D01*
X181712024Y-80862740D01*
X181737376Y-80870185D01*
X181743303Y-80877025D01*
X181751540Y-80880787D01*
X181765829Y-80903021D01*
X181783131Y-80922989D01*
X181785418Y-80933503D01*
X181789314Y-80939565D01*
X181794337Y-80974500D01*
X181794337Y-81057499D01*
X181782719Y-81109904D01*
X181768447Y-81140509D01*
X181768445Y-81140516D01*
X181761918Y-81190098D01*
X181761918Y-81609894D01*
X181768445Y-81659483D01*
X181768446Y-81659487D01*
X181782719Y-81690096D01*
X181785158Y-81701099D01*
X181789314Y-81707565D01*
X181794337Y-81742500D01*
X181794337Y-81875500D01*
X181774652Y-81942539D01*
X181721848Y-81988294D01*
X181670337Y-81999500D01*
X180747273Y-81999500D01*
X180645413Y-82026793D01*
X180645410Y-82026794D01*
X180554085Y-82079521D01*
X180479521Y-82154085D01*
X180426794Y-82245410D01*
X180426793Y-82245413D01*
X180399500Y-82347273D01*
X180399500Y-82452727D01*
X180423380Y-82541847D01*
X180426793Y-82554586D01*
X180426794Y-82554589D01*
X180433800Y-82566724D01*
X180479520Y-82645913D01*
X180554087Y-82720480D01*
X180645413Y-82773207D01*
X180747273Y-82800500D01*
X180852727Y-82800500D01*
X181670337Y-82800500D01*
X181679022Y-82803050D01*
X181687984Y-82801762D01*
X181712024Y-82812740D01*
X181737376Y-82820185D01*
X181743303Y-82827025D01*
X181751540Y-82830787D01*
X181765829Y-82853021D01*
X181783131Y-82872989D01*
X181785418Y-82883503D01*
X181789314Y-82889565D01*
X181794337Y-82924500D01*
X181794337Y-83068735D01*
X181782719Y-83121139D01*
X181770867Y-83146555D01*
X181770864Y-83146565D01*
X181764337Y-83196147D01*
X181764337Y-83615943D01*
X181764338Y-83615949D01*
X181770865Y-83665536D01*
X181770866Y-83665538D01*
X181770866Y-83665539D01*
X181786936Y-83700000D01*
X181821613Y-83774365D01*
X181906521Y-83859273D01*
X182015350Y-83910021D01*
X182064936Y-83916549D01*
X182424737Y-83916548D01*
X182474324Y-83910021D01*
X182583153Y-83859273D01*
X182668061Y-83774365D01*
X182718809Y-83665536D01*
X182725337Y-83615950D01*
X182725336Y-83196149D01*
X182718809Y-83146562D01*
X182718806Y-83146555D01*
X182718806Y-83146554D01*
X182706955Y-83121139D01*
X182695337Y-83068735D01*
X182695337Y-82732124D01*
X182706954Y-82679722D01*
X182716390Y-82659487D01*
X182722918Y-82609901D01*
X182722917Y-82190100D01*
X182716390Y-82140513D01*
X182706954Y-82120277D01*
X182695337Y-82067874D01*
X182695337Y-81732124D01*
X182706954Y-81679722D01*
X182716390Y-81659487D01*
X182722918Y-81609901D01*
X182722917Y-81190100D01*
X182716390Y-81140513D01*
X182706954Y-81120277D01*
X182695337Y-81067874D01*
X182695337Y-80444902D01*
X182699562Y-80412808D01*
X182700500Y-80409309D01*
X182700500Y-79961175D01*
X182702738Y-79953549D01*
X182701469Y-79945706D01*
X182712442Y-79920504D01*
X182720185Y-79894136D01*
X182726899Y-79887300D01*
X182729362Y-79881646D01*
X182755619Y-79858066D01*
X182756123Y-79857729D01*
X182822802Y-79836860D01*
X182890180Y-79855354D01*
X182893892Y-79857740D01*
X182921768Y-79876367D01*
X182921770Y-79876368D01*
X182980247Y-79887999D01*
X182980250Y-79888000D01*
X182980252Y-79888000D01*
X183719750Y-79888000D01*
X183719751Y-79887999D01*
X183734568Y-79885052D01*
X183778229Y-79876368D01*
X183778229Y-79876367D01*
X183778231Y-79876367D01*
X183844552Y-79832052D01*
X183888867Y-79765731D01*
X183888867Y-79765729D01*
X183888868Y-79765729D01*
X183900499Y-79707252D01*
X183900500Y-79707250D01*
X183900500Y-77867749D01*
X183900499Y-77867747D01*
X183888868Y-77809270D01*
X183888867Y-77809269D01*
X183844552Y-77742947D01*
X183778230Y-77698632D01*
X183778229Y-77698631D01*
X183719752Y-77687000D01*
X183719748Y-77687000D01*
X182980252Y-77687000D01*
X182980247Y-77687000D01*
X182921770Y-77698631D01*
X182921766Y-77698633D01*
X182893890Y-77717260D01*
X182827213Y-77738138D01*
X182759833Y-77719653D01*
X182756110Y-77717260D01*
X182728233Y-77698633D01*
X182728229Y-77698631D01*
X182669752Y-77687000D01*
X182669748Y-77687000D01*
X181830252Y-77687000D01*
X181830247Y-77687000D01*
X181771770Y-77698631D01*
X181771768Y-77698632D01*
X181768887Y-77700558D01*
X181761655Y-77702822D01*
X181760487Y-77703306D01*
X181760443Y-77703201D01*
X181702209Y-77721433D01*
X181634829Y-77702946D01*
X181631113Y-77700558D01*
X181628231Y-77698632D01*
X181628229Y-77698631D01*
X181569752Y-77687000D01*
X181569748Y-77687000D01*
X180730252Y-77687000D01*
X180730247Y-77687000D01*
X180671770Y-77698631D01*
X180671768Y-77698632D01*
X180668887Y-77700558D01*
X180661655Y-77702822D01*
X180660487Y-77703306D01*
X180660443Y-77703201D01*
X180602209Y-77721433D01*
X180534829Y-77702946D01*
X180531113Y-77700558D01*
X180528231Y-77698632D01*
X180528229Y-77698631D01*
X180469752Y-77687000D01*
X180469748Y-77687000D01*
X179630252Y-77687000D01*
X179630247Y-77687000D01*
X179571770Y-77698631D01*
X179571768Y-77698632D01*
X179568887Y-77700558D01*
X179561655Y-77702822D01*
X179560487Y-77703306D01*
X179560443Y-77703201D01*
X179502209Y-77721433D01*
X179434829Y-77702946D01*
X179431113Y-77700558D01*
X179428231Y-77698632D01*
X179428229Y-77698631D01*
X179369752Y-77687000D01*
X179369748Y-77687000D01*
X178530252Y-77687000D01*
X178530247Y-77687000D01*
X178471770Y-77698631D01*
X178471768Y-77698632D01*
X178468887Y-77700558D01*
X178461655Y-77702822D01*
X178460487Y-77703306D01*
X178460443Y-77703201D01*
X178402209Y-77721433D01*
X178334829Y-77702946D01*
X178331113Y-77700558D01*
X178328231Y-77698632D01*
X178328229Y-77698631D01*
X178269752Y-77687000D01*
X178269748Y-77687000D01*
X177430252Y-77687000D01*
X177430247Y-77687000D01*
X177371770Y-77698631D01*
X177371768Y-77698632D01*
X177368887Y-77700558D01*
X177361655Y-77702822D01*
X177360487Y-77703306D01*
X177360443Y-77703201D01*
X177302209Y-77721433D01*
X177234829Y-77702946D01*
X177231113Y-77700558D01*
X177228231Y-77698632D01*
X177228229Y-77698631D01*
X177169752Y-77687000D01*
X177169748Y-77687000D01*
X176330252Y-77687000D01*
X176330247Y-77687000D01*
X176271770Y-77698631D01*
X176271768Y-77698632D01*
X176268887Y-77700558D01*
X176261655Y-77702822D01*
X176260487Y-77703306D01*
X176260443Y-77703201D01*
X176202209Y-77721433D01*
X176134829Y-77702946D01*
X176131113Y-77700558D01*
X176128231Y-77698632D01*
X176128229Y-77698631D01*
X176069752Y-77687000D01*
X176069748Y-77687000D01*
X175230252Y-77687000D01*
X175230247Y-77687000D01*
X175171770Y-77698631D01*
X175171769Y-77698632D01*
X175105447Y-77742947D01*
X175061132Y-77809269D01*
X175061131Y-77809270D01*
X175049500Y-77867747D01*
X151390500Y-77867747D01*
X151390500Y-76887500D01*
X174400000Y-76887500D01*
X174402408Y-76936509D01*
X174409607Y-76985045D01*
X174414943Y-77006347D01*
X174421529Y-77032640D01*
X174438061Y-77078844D01*
X174459040Y-77123201D01*
X174484267Y-77165289D01*
X174510382Y-77200500D01*
X174513495Y-77204697D01*
X174546447Y-77241053D01*
X174582803Y-77274005D01*
X174582817Y-77274015D01*
X174582819Y-77274017D01*
X174622210Y-77303232D01*
X174664298Y-77328459D01*
X174664301Y-77328460D01*
X174664302Y-77328461D01*
X174708658Y-77349440D01*
X174754858Y-77365970D01*
X174802455Y-77377893D01*
X174850991Y-77385092D01*
X174900000Y-77387500D01*
X174949009Y-77385092D01*
X174997545Y-77377893D01*
X175045142Y-77365970D01*
X175091342Y-77349440D01*
X175135698Y-77328461D01*
X175177785Y-77303235D01*
X175217197Y-77274005D01*
X175253553Y-77241053D01*
X175286505Y-77204697D01*
X175315735Y-77165285D01*
X175340961Y-77123198D01*
X175361940Y-77078842D01*
X175378470Y-77032642D01*
X175390393Y-76985045D01*
X175397592Y-76936509D01*
X175400000Y-76887500D01*
X175397592Y-76838491D01*
X175390393Y-76789955D01*
X175378470Y-76742358D01*
X175361940Y-76696158D01*
X175340961Y-76651802D01*
X175325951Y-76626760D01*
X175315732Y-76609710D01*
X175286517Y-76570319D01*
X175286515Y-76570317D01*
X175286505Y-76570303D01*
X175253553Y-76533947D01*
X175217197Y-76500995D01*
X175217184Y-76500985D01*
X175217180Y-76500982D01*
X175177789Y-76471767D01*
X175135701Y-76446540D01*
X175091344Y-76425561D01*
X175091342Y-76425560D01*
X175068242Y-76417295D01*
X175045140Y-76409029D01*
X175021389Y-76403079D01*
X174997545Y-76397107D01*
X174967753Y-76392688D01*
X174949017Y-76389909D01*
X174949015Y-76389908D01*
X174949009Y-76389908D01*
X174900000Y-76387500D01*
X174850991Y-76389908D01*
X174850985Y-76389908D01*
X174850982Y-76389909D01*
X174817350Y-76394897D01*
X174802455Y-76397107D01*
X174790533Y-76400093D01*
X174754859Y-76409029D01*
X174708655Y-76425561D01*
X174664298Y-76446540D01*
X174622210Y-76471767D01*
X174582819Y-76500982D01*
X174582806Y-76500992D01*
X174582803Y-76500995D01*
X174546447Y-76533947D01*
X174513497Y-76570301D01*
X174513482Y-76570319D01*
X174484267Y-76609710D01*
X174459040Y-76651798D01*
X174438061Y-76696155D01*
X174421529Y-76742359D01*
X174418466Y-76754589D01*
X174409607Y-76789955D01*
X174402408Y-76838491D01*
X174400000Y-76887500D01*
X151390500Y-76887500D01*
X151390500Y-74311304D01*
X153349500Y-74311304D01*
X153349500Y-74488695D01*
X153384103Y-74662658D01*
X153384106Y-74662667D01*
X153451983Y-74826540D01*
X153451990Y-74826553D01*
X153550535Y-74974034D01*
X153550538Y-74974038D01*
X153675961Y-75099461D01*
X153675965Y-75099464D01*
X153823446Y-75198009D01*
X153823459Y-75198016D01*
X153856349Y-75211639D01*
X153987334Y-75265894D01*
X153987336Y-75265894D01*
X153987341Y-75265896D01*
X154161304Y-75300499D01*
X154161307Y-75300500D01*
X154161309Y-75300500D01*
X154338693Y-75300500D01*
X154338694Y-75300499D01*
X154396682Y-75288964D01*
X154512658Y-75265896D01*
X154512661Y-75265894D01*
X154512666Y-75265894D01*
X154676547Y-75198013D01*
X154824035Y-75099464D01*
X154949464Y-74974035D01*
X155048013Y-74826547D01*
X155115894Y-74662666D01*
X155128383Y-74599882D01*
X155160768Y-74537971D01*
X155221483Y-74503397D01*
X155291253Y-74507136D01*
X155347925Y-74548003D01*
X155371617Y-74599882D01*
X155384103Y-74662658D01*
X155384106Y-74662667D01*
X155451983Y-74826540D01*
X155451990Y-74826553D01*
X155550535Y-74974034D01*
X155550538Y-74974038D01*
X155675961Y-75099461D01*
X155675965Y-75099464D01*
X155823446Y-75198009D01*
X155823459Y-75198016D01*
X155856349Y-75211639D01*
X155987334Y-75265894D01*
X155987336Y-75265894D01*
X155987341Y-75265896D01*
X156161304Y-75300499D01*
X156161307Y-75300500D01*
X156161309Y-75300500D01*
X156338693Y-75300500D01*
X156338694Y-75300499D01*
X156396682Y-75288964D01*
X156512658Y-75265896D01*
X156512661Y-75265894D01*
X156512666Y-75265894D01*
X156676547Y-75198013D01*
X156824035Y-75099464D01*
X156949464Y-74974035D01*
X157048013Y-74826547D01*
X157115894Y-74662666D01*
X157128383Y-74599882D01*
X157160768Y-74537971D01*
X157221483Y-74503397D01*
X157291253Y-74507136D01*
X157347925Y-74548003D01*
X157371617Y-74599882D01*
X157384103Y-74662658D01*
X157384106Y-74662667D01*
X157451983Y-74826540D01*
X157451990Y-74826553D01*
X157550535Y-74974034D01*
X157550538Y-74974038D01*
X157675961Y-75099461D01*
X157675965Y-75099464D01*
X157823446Y-75198009D01*
X157823459Y-75198016D01*
X157856349Y-75211639D01*
X157987334Y-75265894D01*
X157987336Y-75265894D01*
X157987341Y-75265896D01*
X158161304Y-75300499D01*
X158161307Y-75300500D01*
X158161309Y-75300500D01*
X158338693Y-75300500D01*
X158338694Y-75300499D01*
X158396682Y-75288964D01*
X158512658Y-75265896D01*
X158512661Y-75265894D01*
X158512666Y-75265894D01*
X158676547Y-75198013D01*
X158824035Y-75099464D01*
X158949464Y-74974035D01*
X159048013Y-74826547D01*
X159115894Y-74662666D01*
X159128383Y-74599882D01*
X159160768Y-74537971D01*
X159221483Y-74503397D01*
X159291253Y-74507136D01*
X159347925Y-74548003D01*
X159371617Y-74599882D01*
X159384103Y-74662658D01*
X159384106Y-74662667D01*
X159451983Y-74826540D01*
X159451990Y-74826553D01*
X159550535Y-74974034D01*
X159550538Y-74974038D01*
X159675961Y-75099461D01*
X159675965Y-75099464D01*
X159823446Y-75198009D01*
X159823459Y-75198016D01*
X159856349Y-75211639D01*
X159987334Y-75265894D01*
X159987336Y-75265894D01*
X159987341Y-75265896D01*
X160161304Y-75300499D01*
X160161307Y-75300500D01*
X160161309Y-75300500D01*
X160338693Y-75300500D01*
X160338694Y-75300499D01*
X160396682Y-75288964D01*
X160512658Y-75265896D01*
X160512661Y-75265894D01*
X160512666Y-75265894D01*
X160676547Y-75198013D01*
X160824035Y-75099464D01*
X160949464Y-74974035D01*
X161048013Y-74826547D01*
X161115894Y-74662666D01*
X161128383Y-74599882D01*
X161160768Y-74537971D01*
X161221483Y-74503397D01*
X161291253Y-74507136D01*
X161347925Y-74548003D01*
X161371617Y-74599882D01*
X161384103Y-74662658D01*
X161384106Y-74662667D01*
X161451983Y-74826540D01*
X161451990Y-74826553D01*
X161550535Y-74974034D01*
X161550538Y-74974038D01*
X161675961Y-75099461D01*
X161675965Y-75099464D01*
X161823446Y-75198009D01*
X161823459Y-75198016D01*
X161856349Y-75211639D01*
X161987334Y-75265894D01*
X161987336Y-75265894D01*
X161987341Y-75265896D01*
X162161304Y-75300499D01*
X162161307Y-75300500D01*
X162161309Y-75300500D01*
X162338693Y-75300500D01*
X162338694Y-75300499D01*
X162396682Y-75288964D01*
X162512658Y-75265896D01*
X162512661Y-75265894D01*
X162512666Y-75265894D01*
X162676547Y-75198013D01*
X162824035Y-75099464D01*
X162949464Y-74974035D01*
X163048013Y-74826547D01*
X163115894Y-74662666D01*
X163128383Y-74599882D01*
X163160768Y-74537971D01*
X163221483Y-74503397D01*
X163291253Y-74507136D01*
X163347925Y-74548003D01*
X163371617Y-74599882D01*
X163384103Y-74662658D01*
X163384106Y-74662667D01*
X163451983Y-74826540D01*
X163451990Y-74826553D01*
X163550535Y-74974034D01*
X163550538Y-74974038D01*
X163675961Y-75099461D01*
X163675965Y-75099464D01*
X163823446Y-75198009D01*
X163823459Y-75198016D01*
X163856349Y-75211639D01*
X163987334Y-75265894D01*
X163987336Y-75265894D01*
X163987341Y-75265896D01*
X164161304Y-75300499D01*
X164161307Y-75300500D01*
X164161309Y-75300500D01*
X164338693Y-75300500D01*
X164338694Y-75300499D01*
X164396682Y-75288964D01*
X164512658Y-75265896D01*
X164512661Y-75265894D01*
X164512666Y-75265894D01*
X164676547Y-75198013D01*
X164824035Y-75099464D01*
X164949464Y-74974035D01*
X165048013Y-74826547D01*
X165115894Y-74662666D01*
X165150500Y-74488691D01*
X165150500Y-74311309D01*
X165150500Y-74311306D01*
X165150499Y-74311304D01*
X167349500Y-74311304D01*
X167349500Y-74488695D01*
X167384103Y-74662658D01*
X167384106Y-74662667D01*
X167451983Y-74826540D01*
X167451990Y-74826553D01*
X167550535Y-74974034D01*
X167550538Y-74974038D01*
X167675961Y-75099461D01*
X167675965Y-75099464D01*
X167823446Y-75198009D01*
X167823459Y-75198016D01*
X167856349Y-75211639D01*
X167987334Y-75265894D01*
X167987336Y-75265894D01*
X167987341Y-75265896D01*
X168161304Y-75300499D01*
X168161307Y-75300500D01*
X168161309Y-75300500D01*
X168338693Y-75300500D01*
X168338694Y-75300499D01*
X168396682Y-75288964D01*
X168512658Y-75265896D01*
X168512661Y-75265894D01*
X168512666Y-75265894D01*
X168676547Y-75198013D01*
X168824035Y-75099464D01*
X168949464Y-74974035D01*
X169048013Y-74826547D01*
X169115894Y-74662666D01*
X169128383Y-74599882D01*
X169160768Y-74537971D01*
X169221483Y-74503397D01*
X169291253Y-74507136D01*
X169347925Y-74548003D01*
X169371617Y-74599882D01*
X169384103Y-74662658D01*
X169384106Y-74662667D01*
X169451983Y-74826540D01*
X169451990Y-74826553D01*
X169550535Y-74974034D01*
X169550538Y-74974038D01*
X169675961Y-75099461D01*
X169675965Y-75099464D01*
X169823446Y-75198009D01*
X169823459Y-75198016D01*
X169856349Y-75211639D01*
X169987334Y-75265894D01*
X169987336Y-75265894D01*
X169987341Y-75265896D01*
X170161304Y-75300499D01*
X170161307Y-75300500D01*
X170161309Y-75300500D01*
X170338693Y-75300500D01*
X170338694Y-75300499D01*
X170396682Y-75288964D01*
X170512658Y-75265896D01*
X170512661Y-75265894D01*
X170512666Y-75265894D01*
X170676547Y-75198013D01*
X170824035Y-75099464D01*
X170949464Y-74974035D01*
X171048013Y-74826547D01*
X171115894Y-74662666D01*
X171128383Y-74599882D01*
X171160768Y-74537971D01*
X171221483Y-74503397D01*
X171291253Y-74507136D01*
X171347925Y-74548003D01*
X171371617Y-74599882D01*
X171384103Y-74662658D01*
X171384106Y-74662667D01*
X171451983Y-74826540D01*
X171451990Y-74826553D01*
X171550535Y-74974034D01*
X171550538Y-74974038D01*
X171675961Y-75099461D01*
X171675965Y-75099464D01*
X171823446Y-75198009D01*
X171823459Y-75198016D01*
X171856349Y-75211639D01*
X171987334Y-75265894D01*
X171987336Y-75265894D01*
X171987341Y-75265896D01*
X172161304Y-75300499D01*
X172161307Y-75300500D01*
X172161309Y-75300500D01*
X172338693Y-75300500D01*
X172338694Y-75300499D01*
X172396682Y-75288964D01*
X172512658Y-75265896D01*
X172512661Y-75265894D01*
X172512666Y-75265894D01*
X172676547Y-75198013D01*
X172824035Y-75099464D01*
X172949464Y-74974035D01*
X173048013Y-74826547D01*
X173115894Y-74662666D01*
X173150500Y-74488691D01*
X173150500Y-74311309D01*
X173150500Y-74311306D01*
X173150499Y-74311304D01*
X173115896Y-74137341D01*
X173115893Y-74137332D01*
X173106232Y-74114009D01*
X173081976Y-74055447D01*
X173048016Y-73973459D01*
X173048009Y-73973446D01*
X172949464Y-73825965D01*
X172949461Y-73825961D01*
X172824038Y-73700538D01*
X172824034Y-73700535D01*
X172676553Y-73601990D01*
X172676540Y-73601983D01*
X172512667Y-73534106D01*
X172512658Y-73534103D01*
X172338694Y-73499500D01*
X172338691Y-73499500D01*
X172161309Y-73499500D01*
X172161306Y-73499500D01*
X171987341Y-73534103D01*
X171987332Y-73534106D01*
X171823459Y-73601983D01*
X171823446Y-73601990D01*
X171675965Y-73700535D01*
X171675961Y-73700538D01*
X171550538Y-73825961D01*
X171550535Y-73825965D01*
X171451990Y-73973446D01*
X171451983Y-73973459D01*
X171384106Y-74137332D01*
X171384104Y-74137340D01*
X171371617Y-74200118D01*
X171339232Y-74262028D01*
X171278516Y-74296603D01*
X171208747Y-74292863D01*
X171152075Y-74251996D01*
X171128383Y-74200118D01*
X171115895Y-74137340D01*
X171115894Y-74137334D01*
X171081976Y-74055447D01*
X171048016Y-73973459D01*
X171048009Y-73973446D01*
X170949464Y-73825965D01*
X170949461Y-73825961D01*
X170824038Y-73700538D01*
X170824034Y-73700535D01*
X170676553Y-73601990D01*
X170676540Y-73601983D01*
X170512667Y-73534106D01*
X170512658Y-73534103D01*
X170338694Y-73499500D01*
X170338691Y-73499500D01*
X170161309Y-73499500D01*
X170161306Y-73499500D01*
X169987341Y-73534103D01*
X169987332Y-73534106D01*
X169823459Y-73601983D01*
X169823446Y-73601990D01*
X169675965Y-73700535D01*
X169675961Y-73700538D01*
X169550538Y-73825961D01*
X169550535Y-73825965D01*
X169451990Y-73973446D01*
X169451983Y-73973459D01*
X169384106Y-74137332D01*
X169384104Y-74137340D01*
X169371617Y-74200118D01*
X169339232Y-74262028D01*
X169278516Y-74296603D01*
X169208747Y-74292863D01*
X169152075Y-74251996D01*
X169128383Y-74200118D01*
X169115895Y-74137340D01*
X169115894Y-74137334D01*
X169081976Y-74055447D01*
X169048016Y-73973459D01*
X169048009Y-73973446D01*
X168949464Y-73825965D01*
X168949461Y-73825961D01*
X168824038Y-73700538D01*
X168824034Y-73700535D01*
X168676553Y-73601990D01*
X168676540Y-73601983D01*
X168512667Y-73534106D01*
X168512658Y-73534103D01*
X168338694Y-73499500D01*
X168338691Y-73499500D01*
X168161309Y-73499500D01*
X168161306Y-73499500D01*
X167987341Y-73534103D01*
X167987332Y-73534106D01*
X167823459Y-73601983D01*
X167823446Y-73601990D01*
X167675965Y-73700535D01*
X167675961Y-73700538D01*
X167550538Y-73825961D01*
X167550535Y-73825965D01*
X167451990Y-73973446D01*
X167451983Y-73973459D01*
X167384106Y-74137332D01*
X167384103Y-74137341D01*
X167349500Y-74311304D01*
X165150499Y-74311304D01*
X165115896Y-74137341D01*
X165115893Y-74137332D01*
X165106232Y-74114009D01*
X165081976Y-74055447D01*
X165048016Y-73973459D01*
X165048009Y-73973446D01*
X164949464Y-73825965D01*
X164949461Y-73825961D01*
X164824038Y-73700538D01*
X164824034Y-73700535D01*
X164676553Y-73601990D01*
X164676540Y-73601983D01*
X164512667Y-73534106D01*
X164512658Y-73534103D01*
X164338694Y-73499500D01*
X164338691Y-73499500D01*
X164161309Y-73499500D01*
X164161306Y-73499500D01*
X163987341Y-73534103D01*
X163987332Y-73534106D01*
X163823459Y-73601983D01*
X163823446Y-73601990D01*
X163675965Y-73700535D01*
X163675961Y-73700538D01*
X163550538Y-73825961D01*
X163550535Y-73825965D01*
X163451990Y-73973446D01*
X163451983Y-73973459D01*
X163384106Y-74137332D01*
X163384104Y-74137340D01*
X163371617Y-74200118D01*
X163339232Y-74262028D01*
X163278516Y-74296603D01*
X163208747Y-74292863D01*
X163152075Y-74251996D01*
X163128383Y-74200118D01*
X163115895Y-74137340D01*
X163115894Y-74137334D01*
X163081976Y-74055447D01*
X163048016Y-73973459D01*
X163048009Y-73973446D01*
X162949464Y-73825965D01*
X162949461Y-73825961D01*
X162824038Y-73700538D01*
X162824034Y-73700535D01*
X162676553Y-73601990D01*
X162676540Y-73601983D01*
X162512667Y-73534106D01*
X162512658Y-73534103D01*
X162338694Y-73499500D01*
X162338691Y-73499500D01*
X162161309Y-73499500D01*
X162161306Y-73499500D01*
X161987341Y-73534103D01*
X161987332Y-73534106D01*
X161823459Y-73601983D01*
X161823446Y-73601990D01*
X161675965Y-73700535D01*
X161675961Y-73700538D01*
X161550538Y-73825961D01*
X161550535Y-73825965D01*
X161451990Y-73973446D01*
X161451983Y-73973459D01*
X161384106Y-74137332D01*
X161384104Y-74137340D01*
X161371617Y-74200118D01*
X161339232Y-74262028D01*
X161278516Y-74296603D01*
X161208747Y-74292863D01*
X161152075Y-74251996D01*
X161128383Y-74200118D01*
X161115895Y-74137340D01*
X161115894Y-74137334D01*
X161081976Y-74055447D01*
X161048016Y-73973459D01*
X161048009Y-73973446D01*
X160949464Y-73825965D01*
X160949461Y-73825961D01*
X160824038Y-73700538D01*
X160824034Y-73700535D01*
X160676553Y-73601990D01*
X160676540Y-73601983D01*
X160512667Y-73534106D01*
X160512658Y-73534103D01*
X160338694Y-73499500D01*
X160338691Y-73499500D01*
X160161309Y-73499500D01*
X160161306Y-73499500D01*
X159987341Y-73534103D01*
X159987332Y-73534106D01*
X159823459Y-73601983D01*
X159823446Y-73601990D01*
X159675965Y-73700535D01*
X159675961Y-73700538D01*
X159550538Y-73825961D01*
X159550535Y-73825965D01*
X159451990Y-73973446D01*
X159451983Y-73973459D01*
X159384106Y-74137332D01*
X159384104Y-74137340D01*
X159371617Y-74200118D01*
X159339232Y-74262028D01*
X159278516Y-74296603D01*
X159208747Y-74292863D01*
X159152075Y-74251996D01*
X159128383Y-74200118D01*
X159115895Y-74137340D01*
X159115894Y-74137334D01*
X159081976Y-74055447D01*
X159048016Y-73973459D01*
X159048009Y-73973446D01*
X158949464Y-73825965D01*
X158949461Y-73825961D01*
X158824038Y-73700538D01*
X158824034Y-73700535D01*
X158676553Y-73601990D01*
X158676540Y-73601983D01*
X158512667Y-73534106D01*
X158512658Y-73534103D01*
X158338694Y-73499500D01*
X158338691Y-73499500D01*
X158161309Y-73499500D01*
X158161306Y-73499500D01*
X157987341Y-73534103D01*
X157987332Y-73534106D01*
X157823459Y-73601983D01*
X157823446Y-73601990D01*
X157675965Y-73700535D01*
X157675961Y-73700538D01*
X157550538Y-73825961D01*
X157550535Y-73825965D01*
X157451990Y-73973446D01*
X157451983Y-73973459D01*
X157384106Y-74137332D01*
X157384104Y-74137340D01*
X157371617Y-74200118D01*
X157339232Y-74262028D01*
X157278516Y-74296603D01*
X157208747Y-74292863D01*
X157152075Y-74251996D01*
X157128383Y-74200118D01*
X157115895Y-74137340D01*
X157115894Y-74137334D01*
X157081976Y-74055447D01*
X157048016Y-73973459D01*
X157048009Y-73973446D01*
X156949464Y-73825965D01*
X156949461Y-73825961D01*
X156824038Y-73700538D01*
X156824034Y-73700535D01*
X156676553Y-73601990D01*
X156676540Y-73601983D01*
X156512667Y-73534106D01*
X156512658Y-73534103D01*
X156338694Y-73499500D01*
X156338691Y-73499500D01*
X156161309Y-73499500D01*
X156161306Y-73499500D01*
X155987341Y-73534103D01*
X155987332Y-73534106D01*
X155823459Y-73601983D01*
X155823446Y-73601990D01*
X155675965Y-73700535D01*
X155675961Y-73700538D01*
X155550538Y-73825961D01*
X155550535Y-73825965D01*
X155451990Y-73973446D01*
X155451983Y-73973459D01*
X155384106Y-74137332D01*
X155384104Y-74137340D01*
X155371617Y-74200118D01*
X155339232Y-74262028D01*
X155278516Y-74296603D01*
X155208747Y-74292863D01*
X155152075Y-74251996D01*
X155128383Y-74200118D01*
X155115895Y-74137340D01*
X155115894Y-74137334D01*
X155081976Y-74055447D01*
X155048016Y-73973459D01*
X155048009Y-73973446D01*
X154949464Y-73825965D01*
X154949461Y-73825961D01*
X154824038Y-73700538D01*
X154824034Y-73700535D01*
X154676553Y-73601990D01*
X154676540Y-73601983D01*
X154512667Y-73534106D01*
X154512658Y-73534103D01*
X154338694Y-73499500D01*
X154338691Y-73499500D01*
X154161309Y-73499500D01*
X154161306Y-73499500D01*
X153987341Y-73534103D01*
X153987332Y-73534106D01*
X153823459Y-73601983D01*
X153823446Y-73601990D01*
X153675965Y-73700535D01*
X153675961Y-73700538D01*
X153550538Y-73825961D01*
X153550535Y-73825965D01*
X153451990Y-73973446D01*
X153451983Y-73973459D01*
X153384106Y-74137332D01*
X153384103Y-74137341D01*
X153349500Y-74311304D01*
X151390500Y-74311304D01*
X151390500Y-66569500D01*
X151410185Y-66502461D01*
X151462989Y-66456706D01*
X151514500Y-66445500D01*
X153921846Y-66445500D01*
X153925934Y-66443268D01*
X153952292Y-66440434D01*
X154076433Y-66440434D01*
X154076433Y-66440433D01*
X154435291Y-66400000D01*
X154787369Y-66319640D01*
X155128236Y-66200366D01*
X155453604Y-66043677D01*
X155759383Y-65851543D01*
X156041728Y-65626381D01*
X156297087Y-65371022D01*
X156522249Y-65088677D01*
X156714383Y-64782898D01*
X156871072Y-64457530D01*
X156990346Y-64116663D01*
X157070706Y-63764585D01*
X157111140Y-63405724D01*
X157111140Y-63281586D01*
X157116206Y-63264333D01*
X157116206Y-60854500D01*
X157135891Y-60787461D01*
X157188695Y-60741706D01*
X157240206Y-60730500D01*
X185876000Y-60730500D01*
X185943039Y-60750185D01*
G37*
%TD.AperFunction*%
%TD*%
%TA.AperFunction,Conductor*%
%TO.N,GND*%
G36*
X216241252Y-88807500D02*
G01*
X214194000Y-88807500D01*
X214126961Y-88787815D01*
X214081206Y-88735011D01*
X214070000Y-88683500D01*
X214070000Y-86512755D01*
X214089685Y-86445716D01*
X214106319Y-86425074D01*
X214324574Y-86206819D01*
X214385897Y-86173334D01*
X214412255Y-86170500D01*
X216241252Y-86170500D01*
X216241252Y-88807500D01*
G37*
%TD.AperFunction*%
%TA.AperFunction,Conductor*%
G36*
X216241252Y-83419500D02*
G01*
X214575247Y-83419500D01*
X214516770Y-83431131D01*
X214516769Y-83431132D01*
X214450447Y-83475447D01*
X214406132Y-83541769D01*
X214406131Y-83541770D01*
X214394500Y-83600247D01*
X214394500Y-83945500D01*
X214374815Y-84012539D01*
X214322011Y-84058294D01*
X214270500Y-84069500D01*
X214070000Y-84069500D01*
X214070000Y-79680000D01*
X216241252Y-79680000D01*
X216241252Y-83419500D01*
G37*
%TD.AperFunction*%
%TD*%
%TA.AperFunction,Conductor*%
%TO.N,+3V3*%
G36*
X210344130Y-90137185D02*
G01*
X210389885Y-90189989D01*
X210401086Y-90240404D01*
X210458874Y-96780087D01*
X210439783Y-96847298D01*
X210387385Y-96893518D01*
X210332605Y-96905162D01*
X204721180Y-96802223D01*
X204654513Y-96781312D01*
X204609734Y-96727678D01*
X204599455Y-96678805D01*
X204590886Y-94769986D01*
X204970001Y-94769986D01*
X204980494Y-94872697D01*
X205035641Y-95039119D01*
X205035643Y-95039124D01*
X205127684Y-95188345D01*
X205251654Y-95312315D01*
X205400875Y-95404356D01*
X205400880Y-95404358D01*
X205567302Y-95459505D01*
X205567309Y-95459506D01*
X205670019Y-95469999D01*
X206019999Y-95469999D01*
X206420000Y-95469999D01*
X206769972Y-95469999D01*
X206769986Y-95469998D01*
X206872697Y-95459505D01*
X207039119Y-95404358D01*
X207039124Y-95404356D01*
X207188345Y-95312315D01*
X207312315Y-95188345D01*
X207404356Y-95039124D01*
X207404358Y-95039119D01*
X207459505Y-94872697D01*
X207459506Y-94872690D01*
X207469999Y-94769986D01*
X207470000Y-94769973D01*
X207470000Y-93520000D01*
X206420000Y-93520000D01*
X206420000Y-95469999D01*
X206019999Y-95469999D01*
X206020000Y-95469998D01*
X206020000Y-93520000D01*
X204970001Y-93520000D01*
X204970001Y-94769986D01*
X204590886Y-94769986D01*
X204578238Y-91952687D01*
X204582461Y-91920049D01*
X204595868Y-91870013D01*
X204970000Y-91870013D01*
X204970000Y-93120000D01*
X206020000Y-93120000D01*
X206420000Y-93120000D01*
X207469999Y-93120000D01*
X207469999Y-91870028D01*
X207469998Y-91870013D01*
X207459505Y-91767302D01*
X207404358Y-91600880D01*
X207404356Y-91600875D01*
X207312315Y-91451654D01*
X207188345Y-91327684D01*
X207039124Y-91235643D01*
X207039119Y-91235641D01*
X206872697Y-91180494D01*
X206872690Y-91180493D01*
X206769986Y-91170000D01*
X206420000Y-91170000D01*
X206420000Y-93120000D01*
X206020000Y-93120000D01*
X206020000Y-91170000D01*
X205670028Y-91170000D01*
X205670012Y-91170001D01*
X205567302Y-91180494D01*
X205400880Y-91235641D01*
X205400875Y-91235643D01*
X205251654Y-91327684D01*
X205127684Y-91451654D01*
X205035643Y-91600875D01*
X205035641Y-91600880D01*
X204980494Y-91767302D01*
X204980493Y-91767309D01*
X204970000Y-91870013D01*
X204595868Y-91870013D01*
X204600500Y-91852727D01*
X204600500Y-91747273D01*
X204581070Y-91674760D01*
X204576849Y-91643245D01*
X204570559Y-90242056D01*
X204589943Y-90174929D01*
X204642541Y-90128938D01*
X204694558Y-90117500D01*
X210277091Y-90117500D01*
X210344130Y-90137185D01*
G37*
%TD.AperFunction*%
%TD*%
%TA.AperFunction,Conductor*%
%TO.N,VBUS*%
G36*
X213713039Y-86837185D02*
G01*
X213758794Y-86889989D01*
X213770000Y-86941500D01*
X213770000Y-90581894D01*
X213769999Y-90581881D01*
X213767211Y-90546452D01*
X213767210Y-90546446D01*
X213723156Y-90394814D01*
X213723155Y-90394811D01*
X213642773Y-90258891D01*
X213642767Y-90258883D01*
X213531116Y-90147232D01*
X213531108Y-90147226D01*
X213395188Y-90066844D01*
X213395185Y-90066843D01*
X213243553Y-90022789D01*
X213243547Y-90022788D01*
X213208118Y-90020000D01*
X212720000Y-90020000D01*
X212720000Y-90820000D01*
X213770000Y-90820000D01*
X213770000Y-91220000D01*
X211270000Y-91220000D01*
X211270000Y-91458118D01*
X211272788Y-91493547D01*
X211272789Y-91493553D01*
X211316843Y-91645185D01*
X211316844Y-91645188D01*
X211397226Y-91781108D01*
X211397232Y-91781116D01*
X211508883Y-91892767D01*
X211508891Y-91892773D01*
X211617101Y-91956768D01*
X211664784Y-92007837D01*
X211677288Y-92076578D01*
X211650643Y-92141168D01*
X211593308Y-92181098D01*
X211553980Y-92187500D01*
X210892443Y-92187500D01*
X210825404Y-92167815D01*
X210779649Y-92115011D01*
X210768444Y-92063905D01*
X210763601Y-90581881D01*
X211270000Y-90581881D01*
X211270000Y-90820000D01*
X212320000Y-90820000D01*
X212320000Y-90020000D01*
X211831881Y-90020000D01*
X211796452Y-90022788D01*
X211796446Y-90022789D01*
X211644814Y-90066843D01*
X211644811Y-90066844D01*
X211508891Y-90147226D01*
X211508883Y-90147232D01*
X211397232Y-90258883D01*
X211397226Y-90258891D01*
X211316844Y-90394811D01*
X211316843Y-90394814D01*
X211272789Y-90546446D01*
X211272788Y-90546452D01*
X211270000Y-90581881D01*
X210763601Y-90581881D01*
X210763594Y-90579858D01*
X210763485Y-90546446D01*
X210756454Y-88395053D01*
X210775919Y-88327952D01*
X210828573Y-88282025D01*
X210848365Y-88274874D01*
X210854588Y-88273207D01*
X210945913Y-88220480D01*
X212312574Y-86853819D01*
X212373897Y-86820334D01*
X212400255Y-86817500D01*
X213646000Y-86817500D01*
X213713039Y-86837185D01*
G37*
%TD.AperFunction*%
%TA.AperFunction,Conductor*%
G36*
X213770000Y-92187500D02*
G01*
X213486020Y-92187500D01*
X213418981Y-92167815D01*
X213373226Y-92115011D01*
X213363282Y-92045853D01*
X213392307Y-91982297D01*
X213422899Y-91956768D01*
X213531108Y-91892773D01*
X213531116Y-91892767D01*
X213642767Y-91781116D01*
X213642773Y-91781108D01*
X213723155Y-91645188D01*
X213723156Y-91645185D01*
X213767210Y-91493553D01*
X213767211Y-91493547D01*
X213769999Y-91458118D01*
X213770000Y-91458105D01*
X213770000Y-92187500D01*
G37*
%TD.AperFunction*%
%TD*%
%TA.AperFunction,Conductor*%
%TO.N,GND*%
G36*
X159790242Y-85227924D02*
G01*
X159790242Y-85589065D01*
X159830674Y-85947909D01*
X159830676Y-85947921D01*
X159911035Y-86299999D01*
X159911036Y-86300001D01*
X160030310Y-86640868D01*
X160186997Y-86966232D01*
X160186999Y-86966235D01*
X160379133Y-87272014D01*
X160604295Y-87554359D01*
X160859654Y-87809718D01*
X161141999Y-88034880D01*
X161447778Y-88227014D01*
X161773146Y-88383703D01*
X162114013Y-88502977D01*
X162466091Y-88583337D01*
X162824948Y-88623770D01*
X162824949Y-88623771D01*
X162824952Y-88623771D01*
X163186087Y-88623771D01*
X163186087Y-88623770D01*
X163544945Y-88583337D01*
X163897023Y-88502977D01*
X164237890Y-88383703D01*
X164563258Y-88227014D01*
X164869037Y-88034880D01*
X165151382Y-87809718D01*
X165406741Y-87554359D01*
X165631903Y-87272014D01*
X165824037Y-86966235D01*
X165980726Y-86640867D01*
X166100000Y-86300000D01*
X166180360Y-85947922D01*
X166220794Y-85589061D01*
X166220794Y-85227929D01*
X166183845Y-84900000D01*
X175050000Y-84900000D01*
X175050000Y-84997416D01*
X175050000Y-100105500D01*
X175030315Y-100172539D01*
X174977511Y-100218294D01*
X174926000Y-100229500D01*
X151514500Y-100229500D01*
X151447461Y-100209815D01*
X151401706Y-100157011D01*
X151390500Y-100105500D01*
X151390500Y-95680247D01*
X153349500Y-95680247D01*
X153349500Y-97119752D01*
X153361131Y-97178229D01*
X153361132Y-97178230D01*
X153405447Y-97244552D01*
X153471769Y-97288867D01*
X153471770Y-97288868D01*
X153530247Y-97300499D01*
X153530250Y-97300500D01*
X153530252Y-97300500D01*
X154969750Y-97300500D01*
X154969751Y-97300499D01*
X154984568Y-97297552D01*
X155028229Y-97288868D01*
X155028229Y-97288867D01*
X155028231Y-97288867D01*
X155094552Y-97244552D01*
X155138867Y-97178231D01*
X155138867Y-97178229D01*
X155138868Y-97178229D01*
X155150499Y-97119752D01*
X155150500Y-97119750D01*
X155150500Y-96722080D01*
X155170185Y-96655041D01*
X155222989Y-96609286D01*
X155292147Y-96599342D01*
X155355703Y-96628367D01*
X155389061Y-96674628D01*
X155451983Y-96826541D01*
X155451990Y-96826553D01*
X155550535Y-96974034D01*
X155550538Y-96974038D01*
X155675961Y-97099461D01*
X155675965Y-97099464D01*
X155823446Y-97198009D01*
X155823459Y-97198016D01*
X155935809Y-97244552D01*
X155987334Y-97265894D01*
X155987336Y-97265894D01*
X155987341Y-97265896D01*
X156161304Y-97300499D01*
X156161307Y-97300500D01*
X156161309Y-97300500D01*
X156338693Y-97300500D01*
X156338694Y-97300499D01*
X156397174Y-97288867D01*
X156512658Y-97265896D01*
X156512661Y-97265894D01*
X156512666Y-97265894D01*
X156676547Y-97198013D01*
X156824035Y-97099464D01*
X156949464Y-96974035D01*
X157048013Y-96826547D01*
X157115894Y-96662666D01*
X157128383Y-96599882D01*
X157160768Y-96537971D01*
X157221483Y-96503397D01*
X157291253Y-96507136D01*
X157347925Y-96548003D01*
X157371617Y-96599882D01*
X157384103Y-96662658D01*
X157384106Y-96662667D01*
X157451983Y-96826540D01*
X157451990Y-96826553D01*
X157550535Y-96974034D01*
X157550538Y-96974038D01*
X157675961Y-97099461D01*
X157675965Y-97099464D01*
X157823446Y-97198009D01*
X157823459Y-97198016D01*
X157935809Y-97244552D01*
X157987334Y-97265894D01*
X157987336Y-97265894D01*
X157987341Y-97265896D01*
X158161304Y-97300499D01*
X158161307Y-97300500D01*
X158161309Y-97300500D01*
X158338693Y-97300500D01*
X158338694Y-97300499D01*
X158397174Y-97288867D01*
X158512658Y-97265896D01*
X158512661Y-97265894D01*
X158512666Y-97265894D01*
X158676547Y-97198013D01*
X158824035Y-97099464D01*
X158949464Y-96974035D01*
X159048013Y-96826547D01*
X159115894Y-96662666D01*
X159128383Y-96599882D01*
X159160768Y-96537971D01*
X159221483Y-96503397D01*
X159291253Y-96507136D01*
X159347925Y-96548003D01*
X159371617Y-96599882D01*
X159384103Y-96662658D01*
X159384106Y-96662667D01*
X159451983Y-96826540D01*
X159451990Y-96826553D01*
X159550535Y-96974034D01*
X159550538Y-96974038D01*
X159675961Y-97099461D01*
X159675965Y-97099464D01*
X159823446Y-97198009D01*
X159823459Y-97198016D01*
X159935809Y-97244552D01*
X159987334Y-97265894D01*
X159987336Y-97265894D01*
X159987341Y-97265896D01*
X160161304Y-97300499D01*
X160161307Y-97300500D01*
X160161309Y-97300500D01*
X160338693Y-97300500D01*
X160338694Y-97300499D01*
X160397174Y-97288867D01*
X160512658Y-97265896D01*
X160512661Y-97265894D01*
X160512666Y-97265894D01*
X160676547Y-97198013D01*
X160824035Y-97099464D01*
X160949464Y-96974035D01*
X161048013Y-96826547D01*
X161115894Y-96662666D01*
X161128383Y-96599882D01*
X161160768Y-96537971D01*
X161221483Y-96503397D01*
X161291253Y-96507136D01*
X161347925Y-96548003D01*
X161371617Y-96599882D01*
X161384103Y-96662658D01*
X161384106Y-96662667D01*
X161451983Y-96826540D01*
X161451990Y-96826553D01*
X161550535Y-96974034D01*
X161550538Y-96974038D01*
X161675961Y-97099461D01*
X161675965Y-97099464D01*
X161823446Y-97198009D01*
X161823459Y-97198016D01*
X161935809Y-97244552D01*
X161987334Y-97265894D01*
X161987336Y-97265894D01*
X161987341Y-97265896D01*
X162161304Y-97300499D01*
X162161307Y-97300500D01*
X162161309Y-97300500D01*
X162338693Y-97300500D01*
X162338694Y-97300499D01*
X162397174Y-97288867D01*
X162512658Y-97265896D01*
X162512661Y-97265894D01*
X162512666Y-97265894D01*
X162676547Y-97198013D01*
X162824035Y-97099464D01*
X162949464Y-96974035D01*
X163048013Y-96826547D01*
X163115894Y-96662666D01*
X163128383Y-96599882D01*
X163160768Y-96537971D01*
X163221483Y-96503397D01*
X163291253Y-96507136D01*
X163347925Y-96548003D01*
X163371617Y-96599882D01*
X163384103Y-96662658D01*
X163384106Y-96662667D01*
X163451983Y-96826540D01*
X163451990Y-96826553D01*
X163550535Y-96974034D01*
X163550538Y-96974038D01*
X163675961Y-97099461D01*
X163675965Y-97099464D01*
X163823446Y-97198009D01*
X163823459Y-97198016D01*
X163935809Y-97244552D01*
X163987334Y-97265894D01*
X163987336Y-97265894D01*
X163987341Y-97265896D01*
X164161304Y-97300499D01*
X164161307Y-97300500D01*
X164161309Y-97300500D01*
X164338693Y-97300500D01*
X164338694Y-97300499D01*
X164397174Y-97288867D01*
X164512658Y-97265896D01*
X164512661Y-97265894D01*
X164512666Y-97265894D01*
X164676547Y-97198013D01*
X164824035Y-97099464D01*
X164949464Y-96974035D01*
X165048013Y-96826547D01*
X165115894Y-96662666D01*
X165128383Y-96599882D01*
X165160768Y-96537971D01*
X165221483Y-96503397D01*
X165291253Y-96507136D01*
X165347925Y-96548003D01*
X165371617Y-96599882D01*
X165384103Y-96662658D01*
X165384106Y-96662667D01*
X165451983Y-96826540D01*
X165451990Y-96826553D01*
X165550535Y-96974034D01*
X165550538Y-96974038D01*
X165675961Y-97099461D01*
X165675965Y-97099464D01*
X165823446Y-97198009D01*
X165823459Y-97198016D01*
X165935809Y-97244552D01*
X165987334Y-97265894D01*
X165987336Y-97265894D01*
X165987341Y-97265896D01*
X166161304Y-97300499D01*
X166161307Y-97300500D01*
X166161309Y-97300500D01*
X166338693Y-97300500D01*
X166338694Y-97300499D01*
X166397174Y-97288867D01*
X166512658Y-97265896D01*
X166512661Y-97265894D01*
X166512666Y-97265894D01*
X166676547Y-97198013D01*
X166824035Y-97099464D01*
X166949464Y-96974035D01*
X167048013Y-96826547D01*
X167115894Y-96662666D01*
X167128383Y-96599882D01*
X167160768Y-96537971D01*
X167221483Y-96503397D01*
X167291253Y-96507136D01*
X167347925Y-96548003D01*
X167371617Y-96599882D01*
X167384103Y-96662658D01*
X167384106Y-96662667D01*
X167451983Y-96826540D01*
X167451990Y-96826553D01*
X167550535Y-96974034D01*
X167550538Y-96974038D01*
X167675961Y-97099461D01*
X167675965Y-97099464D01*
X167823446Y-97198009D01*
X167823459Y-97198016D01*
X167935809Y-97244552D01*
X167987334Y-97265894D01*
X167987336Y-97265894D01*
X167987341Y-97265896D01*
X168161304Y-97300499D01*
X168161307Y-97300500D01*
X168161309Y-97300500D01*
X168338693Y-97300500D01*
X168338694Y-97300499D01*
X168397174Y-97288867D01*
X168512658Y-97265896D01*
X168512661Y-97265894D01*
X168512666Y-97265894D01*
X168676547Y-97198013D01*
X168824035Y-97099464D01*
X168949464Y-96974035D01*
X169048013Y-96826547D01*
X169115894Y-96662666D01*
X169128383Y-96599882D01*
X169160768Y-96537971D01*
X169221483Y-96503397D01*
X169291253Y-96507136D01*
X169347925Y-96548003D01*
X169371617Y-96599882D01*
X169384103Y-96662658D01*
X169384106Y-96662667D01*
X169451983Y-96826540D01*
X169451990Y-96826553D01*
X169550535Y-96974034D01*
X169550538Y-96974038D01*
X169675961Y-97099461D01*
X169675965Y-97099464D01*
X169823446Y-97198009D01*
X169823459Y-97198016D01*
X169935809Y-97244552D01*
X169987334Y-97265894D01*
X169987336Y-97265894D01*
X169987341Y-97265896D01*
X170161304Y-97300499D01*
X170161307Y-97300500D01*
X170161309Y-97300500D01*
X170338693Y-97300500D01*
X170338694Y-97300499D01*
X170397174Y-97288867D01*
X170512658Y-97265896D01*
X170512661Y-97265894D01*
X170512666Y-97265894D01*
X170676547Y-97198013D01*
X170824035Y-97099464D01*
X170949464Y-96974035D01*
X171048013Y-96826547D01*
X171115894Y-96662666D01*
X171150500Y-96488691D01*
X171150500Y-96311309D01*
X171150500Y-96311306D01*
X171150499Y-96311304D01*
X171115896Y-96137341D01*
X171115893Y-96137332D01*
X171048016Y-95973459D01*
X171048009Y-95973446D01*
X170949464Y-95825965D01*
X170949461Y-95825961D01*
X170824038Y-95700538D01*
X170824034Y-95700535D01*
X170676553Y-95601990D01*
X170676540Y-95601983D01*
X170512667Y-95534106D01*
X170512658Y-95534103D01*
X170338694Y-95499500D01*
X170338691Y-95499500D01*
X170161309Y-95499500D01*
X170161306Y-95499500D01*
X169987341Y-95534103D01*
X169987332Y-95534106D01*
X169823459Y-95601983D01*
X169823446Y-95601990D01*
X169675965Y-95700535D01*
X169675961Y-95700538D01*
X169550538Y-95825961D01*
X169550535Y-95825965D01*
X169451990Y-95973446D01*
X169451983Y-95973459D01*
X169384106Y-96137332D01*
X169384104Y-96137340D01*
X169371617Y-96200118D01*
X169339232Y-96262028D01*
X169278516Y-96296603D01*
X169208747Y-96292863D01*
X169152075Y-96251996D01*
X169128383Y-96200118D01*
X169115895Y-96137340D01*
X169115894Y-96137334D01*
X169091284Y-96077919D01*
X169048016Y-95973459D01*
X169048009Y-95973446D01*
X168949464Y-95825965D01*
X168949461Y-95825961D01*
X168824038Y-95700538D01*
X168824034Y-95700535D01*
X168676553Y-95601990D01*
X168676540Y-95601983D01*
X168512667Y-95534106D01*
X168512658Y-95534103D01*
X168338694Y-95499500D01*
X168338691Y-95499500D01*
X168161309Y-95499500D01*
X168161306Y-95499500D01*
X167987341Y-95534103D01*
X167987332Y-95534106D01*
X167823459Y-95601983D01*
X167823446Y-95601990D01*
X167675965Y-95700535D01*
X167675961Y-95700538D01*
X167550538Y-95825961D01*
X167550535Y-95825965D01*
X167451990Y-95973446D01*
X167451983Y-95973459D01*
X167384106Y-96137332D01*
X167384104Y-96137340D01*
X167371617Y-96200118D01*
X167339232Y-96262028D01*
X167278516Y-96296603D01*
X167208747Y-96292863D01*
X167152075Y-96251996D01*
X167128383Y-96200118D01*
X167115895Y-96137340D01*
X167115894Y-96137334D01*
X167091284Y-96077919D01*
X167048016Y-95973459D01*
X167048009Y-95973446D01*
X166949464Y-95825965D01*
X166949461Y-95825961D01*
X166824038Y-95700538D01*
X166824034Y-95700535D01*
X166676553Y-95601990D01*
X166676540Y-95601983D01*
X166512667Y-95534106D01*
X166512658Y-95534103D01*
X166338694Y-95499500D01*
X166338691Y-95499500D01*
X166161309Y-95499500D01*
X166161306Y-95499500D01*
X165987341Y-95534103D01*
X165987332Y-95534106D01*
X165823459Y-95601983D01*
X165823446Y-95601990D01*
X165675965Y-95700535D01*
X165675961Y-95700538D01*
X165550538Y-95825961D01*
X165550535Y-95825965D01*
X165451990Y-95973446D01*
X165451983Y-95973459D01*
X165384106Y-96137332D01*
X165384104Y-96137340D01*
X165371617Y-96200118D01*
X165339232Y-96262028D01*
X165278516Y-96296603D01*
X165208747Y-96292863D01*
X165152075Y-96251996D01*
X165128383Y-96200118D01*
X165115895Y-96137340D01*
X165115894Y-96137334D01*
X165091284Y-96077919D01*
X165048016Y-95973459D01*
X165048009Y-95973446D01*
X164949464Y-95825965D01*
X164949461Y-95825961D01*
X164824038Y-95700538D01*
X164824034Y-95700535D01*
X164676553Y-95601990D01*
X164676540Y-95601983D01*
X164512667Y-95534106D01*
X164512658Y-95534103D01*
X164338694Y-95499500D01*
X164338691Y-95499500D01*
X164161309Y-95499500D01*
X164161306Y-95499500D01*
X163987341Y-95534103D01*
X163987332Y-95534106D01*
X163823459Y-95601983D01*
X163823446Y-95601990D01*
X163675965Y-95700535D01*
X163675961Y-95700538D01*
X163550538Y-95825961D01*
X163550535Y-95825965D01*
X163451990Y-95973446D01*
X163451983Y-95973459D01*
X163384106Y-96137332D01*
X163384104Y-96137340D01*
X163371617Y-96200118D01*
X163339232Y-96262028D01*
X163278516Y-96296603D01*
X163208747Y-96292863D01*
X163152075Y-96251996D01*
X163128383Y-96200118D01*
X163115895Y-96137340D01*
X163115894Y-96137334D01*
X163091284Y-96077919D01*
X163048016Y-95973459D01*
X163048009Y-95973446D01*
X162949464Y-95825965D01*
X162949461Y-95825961D01*
X162824038Y-95700538D01*
X162824034Y-95700535D01*
X162676553Y-95601990D01*
X162676540Y-95601983D01*
X162512667Y-95534106D01*
X162512658Y-95534103D01*
X162338694Y-95499500D01*
X162338691Y-95499500D01*
X162161309Y-95499500D01*
X162161306Y-95499500D01*
X161987341Y-95534103D01*
X161987332Y-95534106D01*
X161823459Y-95601983D01*
X161823446Y-95601990D01*
X161675965Y-95700535D01*
X161675961Y-95700538D01*
X161550538Y-95825961D01*
X161550535Y-95825965D01*
X161451990Y-95973446D01*
X161451983Y-95973459D01*
X161384106Y-96137332D01*
X161384104Y-96137340D01*
X161371617Y-96200118D01*
X161339232Y-96262028D01*
X161278516Y-96296603D01*
X161208747Y-96292863D01*
X161152075Y-96251996D01*
X161128383Y-96200118D01*
X161115895Y-96137340D01*
X161115894Y-96137334D01*
X161091284Y-96077919D01*
X161048016Y-95973459D01*
X161048009Y-95973446D01*
X160949464Y-95825965D01*
X160949461Y-95825961D01*
X160824038Y-95700538D01*
X160824034Y-95700535D01*
X160676553Y-95601990D01*
X160676540Y-95601983D01*
X160512667Y-95534106D01*
X160512658Y-95534103D01*
X160338694Y-95499500D01*
X160338691Y-95499500D01*
X160161309Y-95499500D01*
X160161306Y-95499500D01*
X159987341Y-95534103D01*
X159987332Y-95534106D01*
X159823459Y-95601983D01*
X159823446Y-95601990D01*
X159675965Y-95700535D01*
X159675961Y-95700538D01*
X159550538Y-95825961D01*
X159550535Y-95825965D01*
X159451990Y-95973446D01*
X159451983Y-95973459D01*
X159384106Y-96137332D01*
X159384104Y-96137340D01*
X159371617Y-96200118D01*
X159339232Y-96262028D01*
X159278516Y-96296603D01*
X159208747Y-96292863D01*
X159152075Y-96251996D01*
X159128383Y-96200118D01*
X159115895Y-96137340D01*
X159115894Y-96137334D01*
X159091284Y-96077919D01*
X159048016Y-95973459D01*
X159048009Y-95973446D01*
X158949464Y-95825965D01*
X158949461Y-95825961D01*
X158824038Y-95700538D01*
X158824034Y-95700535D01*
X158676553Y-95601990D01*
X158676540Y-95601983D01*
X158512667Y-95534106D01*
X158512658Y-95534103D01*
X158338694Y-95499500D01*
X158338691Y-95499500D01*
X158161309Y-95499500D01*
X158161306Y-95499500D01*
X157987341Y-95534103D01*
X157987332Y-95534106D01*
X157823459Y-95601983D01*
X157823446Y-95601990D01*
X157675965Y-95700535D01*
X157675961Y-95700538D01*
X157550538Y-95825961D01*
X157550535Y-95825965D01*
X157451990Y-95973446D01*
X157451983Y-95973459D01*
X157384106Y-96137332D01*
X157384104Y-96137340D01*
X157371617Y-96200118D01*
X157339232Y-96262028D01*
X157278516Y-96296603D01*
X157208747Y-96292863D01*
X157152075Y-96251996D01*
X157128383Y-96200118D01*
X157115895Y-96137340D01*
X157115894Y-96137334D01*
X157091284Y-96077919D01*
X157048016Y-95973459D01*
X157048009Y-95973446D01*
X156949464Y-95825965D01*
X156949461Y-95825961D01*
X156824038Y-95700538D01*
X156824034Y-95700535D01*
X156676553Y-95601990D01*
X156676540Y-95601983D01*
X156512667Y-95534106D01*
X156512658Y-95534103D01*
X156338694Y-95499500D01*
X156338691Y-95499500D01*
X156161309Y-95499500D01*
X156161306Y-95499500D01*
X155987341Y-95534103D01*
X155987332Y-95534106D01*
X155823459Y-95601983D01*
X155823446Y-95601990D01*
X155675965Y-95700535D01*
X155675961Y-95700538D01*
X155550538Y-95825961D01*
X155550535Y-95825965D01*
X155451990Y-95973446D01*
X155451983Y-95973459D01*
X155389061Y-96125371D01*
X155345221Y-96179775D01*
X155278927Y-96201840D01*
X155211227Y-96184561D01*
X155163616Y-96133424D01*
X155150500Y-96077919D01*
X155150500Y-95680249D01*
X155150499Y-95680247D01*
X155138868Y-95621770D01*
X155138867Y-95621769D01*
X155094552Y-95555447D01*
X155028230Y-95511132D01*
X155028229Y-95511131D01*
X154969752Y-95499500D01*
X154969748Y-95499500D01*
X153530252Y-95499500D01*
X153530247Y-95499500D01*
X153471770Y-95511131D01*
X153471769Y-95511132D01*
X153405447Y-95555447D01*
X153361132Y-95621769D01*
X153361131Y-95621770D01*
X153349500Y-95680247D01*
X151390500Y-95680247D01*
X151390500Y-84900000D01*
X159827190Y-84900000D01*
X159790242Y-85227924D01*
G37*
%TD.AperFunction*%
%TD*%
M02*
