%TF.GenerationSoftware,KiCad,Pcbnew,9.0.6*%
%TF.CreationDate,2026-04-11T19:46:43-03:00*%
%TF.ProjectId,flight_comp_srad-2026,666c6967-6874-45f6-936f-6d705f737261,rev?*%
%TF.SameCoordinates,Original*%
%TF.FileFunction,Copper,L2,Inr*%
%TF.FilePolarity,Positive*%
%FSLAX46Y46*%
G04 Gerber Fmt 4.6, Leading zero omitted, Abs format (unit mm)*
G04 Created by KiCad (PCBNEW 9.0.6) date 2026-04-11 19:46:43*
%MOMM*%
%LPD*%
G01*
G04 APERTURE LIST*
%TA.AperFunction,ComponentPad*%
%ADD10R,2.000000X2.000000*%
%TD*%
%TA.AperFunction,ComponentPad*%
%ADD11C,2.000000*%
%TD*%
%TA.AperFunction,HeatsinkPad*%
%ADD12C,0.600000*%
%TD*%
%TA.AperFunction,HeatsinkPad*%
%ADD13O,1.700000X1.350000*%
%TD*%
%TA.AperFunction,HeatsinkPad*%
%ADD14O,1.500000X1.100000*%
%TD*%
%TA.AperFunction,ComponentPad*%
%ADD15R,1.400000X1.400000*%
%TD*%
%TA.AperFunction,ComponentPad*%
%ADD16C,1.400000*%
%TD*%
%TA.AperFunction,ViaPad*%
%ADD17C,0.600000*%
%TD*%
G04 APERTURE END LIST*
D10*
%TO.N,+3V3*%
%TO.C,LS1*%
X202970785Y-68400000D03*
D11*
%TO.N,Net-(Q1-C)*%
X197970785Y-68400000D03*
%TD*%
D10*
%TO.N,GND*%
%TO.C,J2*%
X191320000Y-98700000D03*
D11*
%TO.N,/SWDIO*%
X193860000Y-98700000D03*
%TO.N,/SWCLK*%
X196400000Y-98700000D03*
%TD*%
D12*
%TO.N,GND*%
%TO.C,U3*%
X201420000Y-84830000D03*
X198720000Y-84830000D03*
X201420000Y-87530000D03*
X198720000Y-87530000D03*
%TD*%
D10*
%TO.N,VBUS*%
%TO.C,J5*%
X217680000Y-84430000D03*
D11*
%TO.N,GND*%
X217680000Y-86970000D03*
%TD*%
D13*
%TO.N,GND*%
%TO.C,J3*%
X219355000Y-80355000D03*
D14*
X216355000Y-80045000D03*
X216355000Y-75205000D03*
D13*
X219355000Y-74895000D03*
%TD*%
D15*
%TO.N,+3V3*%
%TO.C,U7*%
X154250000Y-96400000D03*
D16*
%TO.N,/UART_Rx0*%
X156250000Y-96400000D03*
%TO.N,/UART_Tx0*%
X158250000Y-96400000D03*
%TO.N,unconnected-(U7-DIO12{slash}SPI_MISO-Pad4)*%
X160250000Y-96400000D03*
%TO.N,unconnected-(U7-~{RESET}-Pad5)*%
X162250000Y-96400000D03*
%TO.N,unconnected-(U7-DIO10{slash}PWM0-Pad6)*%
X164250000Y-96400000D03*
%TO.N,unconnected-(U7-DIO11{slash}PWM1-Pad7)*%
X166250000Y-96400000D03*
%TO.N,N/C*%
X168250000Y-96400000D03*
%TO.N,unconnected-(U7-NDTR{slash}SLEEP_RQ{slash}DIO8-Pad9)*%
X170250000Y-96400000D03*
%TO.N,GND*%
X172250000Y-96400000D03*
%TO.N,unconnected-(U7-DIO4{slash}SPI_MOSI-Pad11)*%
X172250000Y-74400000D03*
%TO.N,unconnected-(U7-NCTS{slash}DIO7-Pad12)*%
X170250000Y-74400000D03*
%TO.N,unconnected-(U7-ON_NSLEEP{slash}DIO9-Pad13)*%
X168250000Y-74400000D03*
%TO.N,GND*%
X166250000Y-74400000D03*
%TO.N,unconnected-(U7-ASSOCIATE{slash}DIO5-Pad15)*%
X164250000Y-74400000D03*
%TO.N,unconnected-(U7-NRTS{slash}DIO6-Pad16)*%
X162250000Y-74400000D03*
%TO.N,unconnected-(U7-AD3{slash}DIO3{slash}SPI_NSSEL-Pad17)*%
X160250000Y-74400000D03*
%TO.N,unconnected-(U7-AD2{slash}DIO2{slash}SPI_CLK-Pad18)*%
X158250000Y-74400000D03*
%TO.N,unconnected-(U7-AD1{slash}DIO1{slash}SPI_NATTN-Pad19)*%
X156250000Y-74400000D03*
%TO.N,unconnected-(U7-AD0{slash}DIO0-Pad20)*%
X154250000Y-74400000D03*
%TD*%
D17*
%TO.N,GND*%
X213440000Y-76140000D03*
%TO.N,+3V3*%
X193660000Y-77880000D03*
X192620000Y-79050000D03*
%TO.N,GND*%
X194160000Y-76800000D03*
X185350000Y-83180000D03*
X179611765Y-97736765D03*
X155420000Y-99340000D03*
X190420000Y-63470000D03*
X183350000Y-67400000D03*
X183920000Y-63900000D03*
X152160000Y-91360000D03*
X215070000Y-65890000D03*
X198980000Y-61410000D03*
X213980000Y-61410000D03*
X164420000Y-99340000D03*
X217350000Y-67370000D03*
X197480000Y-61410000D03*
X152160000Y-76360000D03*
X168920000Y-99340000D03*
X180670000Y-61410000D03*
X152160000Y-95860000D03*
X152160000Y-85360000D03*
X186600000Y-84875000D03*
X193720000Y-87100000D03*
X164170000Y-61410000D03*
X206480000Y-61410000D03*
X210075000Y-79600000D03*
X165670000Y-61410000D03*
X152160000Y-88360000D03*
X186100000Y-92625000D03*
X152160000Y-73360000D03*
X159670000Y-61410000D03*
X200480000Y-61410000D03*
X173170000Y-61410000D03*
X152160000Y-67360000D03*
X181040000Y-65640000D03*
X207980000Y-61410000D03*
X216150000Y-66840000D03*
X185340000Y-82340000D03*
X152160000Y-70360000D03*
X190125000Y-94100000D03*
X153920000Y-99340000D03*
X174625000Y-97250000D03*
X201980000Y-61410000D03*
X159920000Y-99340000D03*
X208925000Y-80950000D03*
X162670000Y-61410000D03*
X174375000Y-86675000D03*
X184960000Y-81360000D03*
X153610000Y-67430000D03*
X161170000Y-61410000D03*
X197647148Y-96951381D03*
X179170000Y-61410000D03*
X152160000Y-92860000D03*
X181190000Y-66970000D03*
X158140000Y-62890000D03*
X158420000Y-99340000D03*
X201950000Y-65350000D03*
X207020000Y-89070000D03*
X152150000Y-97500000D03*
X210980000Y-61410000D03*
X152160000Y-74860000D03*
X192425000Y-83775000D03*
X192870000Y-76800000D03*
X174350000Y-87925000D03*
X187320000Y-89280000D03*
X214200000Y-95400000D03*
X195980000Y-61410000D03*
X155170000Y-67240000D03*
X209075000Y-78175000D03*
X218840000Y-67460000D03*
X202000000Y-77600000D03*
X152160000Y-79360000D03*
X185630000Y-61060000D03*
X184900000Y-63650000D03*
X209825000Y-96575000D03*
X187560000Y-65100000D03*
X181125000Y-64275000D03*
X156920000Y-99340000D03*
X168670000Y-61410000D03*
X214200000Y-97800000D03*
X199670000Y-79080000D03*
X152160000Y-77860000D03*
X157450000Y-92060000D03*
X170170000Y-61410000D03*
X171920000Y-99340000D03*
X198240000Y-73590000D03*
X210850000Y-78175000D03*
X152580000Y-99060000D03*
X167420000Y-99340000D03*
X152160000Y-86860000D03*
X152160000Y-80860000D03*
X195800000Y-93375000D03*
X184940000Y-80540000D03*
X204000000Y-62750000D03*
X152160000Y-82360000D03*
X193520000Y-70270000D03*
X185600000Y-64500000D03*
X186450000Y-65100000D03*
X158600000Y-95040000D03*
X188300000Y-71640000D03*
X183360000Y-66170000D03*
X182125000Y-61850000D03*
X152160000Y-83860000D03*
X207750000Y-96600000D03*
X171670000Y-61410000D03*
X210700000Y-80950000D03*
X206310000Y-68280000D03*
%TO.N,/SD_CLK*%
X180500000Y-97600000D03*
%TO.N,+3V3*%
X211540000Y-66335000D03*
%TO.N,Net-(Q1-B)*%
X207570000Y-70350000D03*
%TO.N,/XIN*%
X195480541Y-85268008D03*
%TO.N,/XOUT*%
X195441214Y-86067042D03*
%TO.N,/SWDIO*%
X197570000Y-88230000D03*
%TO.N,/ADC_BAT*%
X201800000Y-90700000D03*
%TO.N,+3V3*%
X190380000Y-78180000D03*
%TO.N,+1V1*%
X197600000Y-86350000D03*
%TO.N,/BUZZER*%
X202070000Y-81705411D03*
%TO.N,Net-(Q1-B)*%
X202025000Y-63450000D03*
%TO.N,+3V3*%
X187310000Y-77740000D03*
X197410000Y-71820000D03*
%TO.N,/XOUT*%
X188800000Y-85400000D03*
%TO.N,+3V3*%
X195020000Y-78840000D03*
%TO.N,NR_Reg*%
X206774971Y-90374971D03*
%TO.N,+1V1*%
X202600000Y-85980000D03*
%TO.N,/UART_Tx0*%
X195200000Y-89925000D03*
%TO.N,+3V3*%
X212300000Y-88000000D03*
%TO.N,/SWCLK*%
X198537443Y-88686063D03*
%TO.N,/RP_SCL1*%
X200600000Y-79690000D03*
%TO.N,/RP_SDA1*%
X201980000Y-79970000D03*
%TO.N,+3V3*%
X200825000Y-95925000D03*
X180310000Y-81590000D03*
X186750000Y-91325000D03*
%TO.N,/SD_DAT1*%
X177125000Y-99800000D03*
%TO.N,/RP_SDA0*%
X176750000Y-71775000D03*
%TO.N,/IIM_MOSI1*%
X196690000Y-80720000D03*
%TO.N,+3V3*%
X195860000Y-71390000D03*
X180310000Y-82530000D03*
X211300000Y-89600000D03*
X203200000Y-78500000D03*
%TO.N,/SD_DAT1*%
X187575000Y-96000000D03*
%TO.N,/IIM_SCLK1*%
X197625000Y-77525000D03*
%TO.N,/RP_SCL0*%
X189380000Y-81160000D03*
%TO.N,/IIM_MISO1*%
X198870000Y-81450000D03*
%TO.N,+3V3*%
X201080000Y-70180000D03*
X196580000Y-70780000D03*
%TO.N,/IIM_CS1*%
X198610000Y-76850000D03*
%TO.N,+3V3*%
X187775000Y-91350000D03*
%TO.N,/UART_Rx0*%
X195850000Y-89425000D03*
%TO.N,+3V3*%
X202900000Y-91000000D03*
X154240000Y-90600000D03*
X181030000Y-81190000D03*
%TO.N,/SD_DAT1*%
X177100000Y-97600000D03*
%TO.N,/RP_SCL0*%
X176361000Y-73941000D03*
%TO.N,/RP_SDA0*%
X189150000Y-79750000D03*
%TO.N,+3V3*%
X212440000Y-66330000D03*
X213500000Y-88000000D03*
X204510000Y-86580000D03*
X181050000Y-82050000D03*
X181520000Y-97490000D03*
X195830000Y-80940000D03*
X199270000Y-91300000D03*
X210950000Y-85580000D03*
X213400000Y-86900000D03*
X199605354Y-81765048D03*
X203075000Y-65375000D03*
X211300000Y-90400000D03*
X201200000Y-72000000D03*
X195363235Y-86863235D03*
X203720000Y-71840000D03*
X180340000Y-83440000D03*
X181050000Y-83020000D03*
X211300000Y-91425000D03*
X202080000Y-78560000D03*
X189100000Y-74740000D03*
X202570000Y-70760000D03*
X189240000Y-72670000D03*
X211300000Y-88800000D03*
X195070000Y-70430000D03*
X190000000Y-89300000D03*
X204357067Y-88600000D03*
%TO.N,GND*%
X152160000Y-71860000D03*
X158170000Y-61410000D03*
X208125000Y-79600000D03*
X207800000Y-95150000D03*
X173420000Y-99340000D03*
X174625000Y-98475000D03*
X183425000Y-64950000D03*
X152160000Y-94360000D03*
X189600000Y-65100000D03*
X194480000Y-61410000D03*
X158050000Y-64380000D03*
X165920000Y-99340000D03*
X214300000Y-62930000D03*
X206525000Y-76150000D03*
X189950000Y-76370000D03*
X191480000Y-61410000D03*
X212480000Y-61410000D03*
X161420000Y-99340000D03*
X190400000Y-61450000D03*
X194160000Y-70260000D03*
X192980000Y-61410000D03*
X174380000Y-89280000D03*
X157520000Y-65580000D03*
X207050000Y-86180000D03*
X188600000Y-65100000D03*
X204980000Y-61410000D03*
X174670000Y-61410000D03*
X214200000Y-99000000D03*
X176410000Y-72960000D03*
X190430000Y-62480000D03*
X200230000Y-70580000D03*
X190410000Y-64400000D03*
X167170000Y-61410000D03*
X193520000Y-76810000D03*
X181450000Y-62970000D03*
X188150000Y-87525000D03*
X176170000Y-61410000D03*
X203610000Y-79240000D03*
X203480000Y-61410000D03*
X207100000Y-80950000D03*
X209480000Y-61410000D03*
X170420000Y-99340000D03*
X152160000Y-89860000D03*
X187025000Y-92625000D03*
X220090000Y-67470000D03*
X211775000Y-95125000D03*
X192870000Y-70260000D03*
X183350000Y-61425000D03*
X184525000Y-61225000D03*
X209875000Y-95125000D03*
X185340000Y-84040000D03*
X156570000Y-66660000D03*
X152160000Y-68860000D03*
%TO.N,VBUS*%
X218050000Y-90840000D03*
%TO.N,GND*%
X214925000Y-68270000D03*
%TO.N,VBUS*%
X217350000Y-89640000D03*
X220150000Y-89640000D03*
%TO.N,/SD_DAT0*%
X178200000Y-97600000D03*
%TO.N,VBUS*%
X212720000Y-91110000D03*
X205800000Y-92400000D03*
%TO.N,GND*%
X202000000Y-95100000D03*
X188440000Y-80500000D03*
%TO.N,VBUS*%
X219450000Y-90840000D03*
X203400000Y-92400000D03*
%TO.N,GND*%
X190040000Y-71080000D03*
X177670000Y-61410000D03*
%TO.N,VBUS*%
X218750000Y-89640000D03*
%TO.N,/SD_DAT0*%
X187575000Y-95100000D03*
%TO.N,GND*%
X211725000Y-96575000D03*
X162920000Y-99340000D03*
X157400000Y-94230000D03*
X214200000Y-96600000D03*
%TD*%
%TA.AperFunction,Conductor*%
%TO.N,GND*%
G36*
X218643736Y-60730726D02*
G01*
X218903662Y-60746448D01*
X218918524Y-60748253D01*
X218989528Y-60761264D01*
X219170969Y-60794515D01*
X219185498Y-60798096D01*
X219430523Y-60874449D01*
X219444516Y-60879755D01*
X219678562Y-60985091D01*
X219691808Y-60992044D01*
X219911449Y-61124821D01*
X219923760Y-61133319D01*
X219937810Y-61144326D01*
X220125792Y-61291601D01*
X220137000Y-61301531D01*
X220318468Y-61482999D01*
X220328398Y-61494207D01*
X220371718Y-61549500D01*
X220395183Y-61579452D01*
X220486676Y-61696233D01*
X220495180Y-61708553D01*
X220626493Y-61925771D01*
X220627952Y-61928185D01*
X220634911Y-61941444D01*
X220740242Y-62175480D01*
X220745551Y-62189480D01*
X220821901Y-62434494D01*
X220825485Y-62449034D01*
X220871746Y-62701475D01*
X220873551Y-62716339D01*
X220889274Y-62976263D01*
X220889500Y-62983750D01*
X220889500Y-97976249D01*
X220889274Y-97983736D01*
X220873551Y-98243660D01*
X220871746Y-98258524D01*
X220825485Y-98510965D01*
X220821901Y-98525505D01*
X220745551Y-98770519D01*
X220740242Y-98784519D01*
X220634911Y-99018555D01*
X220627952Y-99031814D01*
X220495182Y-99251443D01*
X220486676Y-99263766D01*
X220328398Y-99465792D01*
X220318468Y-99477000D01*
X220137000Y-99658468D01*
X220125792Y-99668398D01*
X219923766Y-99826676D01*
X219911443Y-99835182D01*
X219691814Y-99967952D01*
X219678555Y-99974911D01*
X219444519Y-100080242D01*
X219430519Y-100085551D01*
X219185505Y-100161901D01*
X219170965Y-100165485D01*
X218918524Y-100211746D01*
X218903660Y-100213551D01*
X218643736Y-100229274D01*
X218636249Y-100229500D01*
X177669730Y-100229500D01*
X177602691Y-100209815D01*
X177556936Y-100157011D01*
X177546992Y-100087853D01*
X177562344Y-100043499D01*
X177591389Y-99993191D01*
X177591388Y-99993191D01*
X177591392Y-99993186D01*
X177625500Y-99865892D01*
X177625500Y-99734108D01*
X177591392Y-99606814D01*
X177525500Y-99492686D01*
X177432314Y-99399500D01*
X177375250Y-99366554D01*
X177318187Y-99333608D01*
X177254539Y-99316554D01*
X177190892Y-99299500D01*
X177059108Y-99299500D01*
X176931812Y-99333608D01*
X176817686Y-99399500D01*
X176817683Y-99399502D01*
X176724502Y-99492683D01*
X176724500Y-99492686D01*
X176658608Y-99606812D01*
X176626469Y-99726759D01*
X176624500Y-99734108D01*
X176624500Y-99865892D01*
X176653711Y-99974911D01*
X176658609Y-99993188D01*
X176658610Y-99993191D01*
X176687656Y-100043499D01*
X176704130Y-100111399D01*
X176681278Y-100177426D01*
X176626357Y-100220617D01*
X176580270Y-100229500D01*
X153643751Y-100229500D01*
X153636264Y-100229274D01*
X153376339Y-100213551D01*
X153361475Y-100211746D01*
X153109034Y-100165485D01*
X153094494Y-100161901D01*
X152849480Y-100085551D01*
X152835480Y-100080242D01*
X152601444Y-99974911D01*
X152588185Y-99967952D01*
X152368553Y-99835180D01*
X152356233Y-99826676D01*
X152338196Y-99812545D01*
X152154207Y-99668398D01*
X152142999Y-99658468D01*
X151961531Y-99477000D01*
X151951601Y-99465792D01*
X151899666Y-99399502D01*
X151793319Y-99263760D01*
X151784821Y-99251449D01*
X151652044Y-99031808D01*
X151645091Y-99018562D01*
X151539755Y-98784516D01*
X151534448Y-98770519D01*
X151483030Y-98605513D01*
X192659500Y-98605513D01*
X192659500Y-98794486D01*
X192689059Y-98981118D01*
X192747454Y-99160836D01*
X192833240Y-99329199D01*
X192944310Y-99482073D01*
X193077927Y-99615690D01*
X193230801Y-99726760D01*
X193310347Y-99767290D01*
X193399163Y-99812545D01*
X193399165Y-99812545D01*
X193399168Y-99812547D01*
X193456890Y-99831302D01*
X193578881Y-99870940D01*
X193765514Y-99900500D01*
X193765519Y-99900500D01*
X193954486Y-99900500D01*
X194141118Y-99870940D01*
X194156660Y-99865890D01*
X194320832Y-99812547D01*
X194489199Y-99726760D01*
X194642073Y-99615690D01*
X194775690Y-99482073D01*
X194886760Y-99329199D01*
X194972547Y-99160832D01*
X195012069Y-99039195D01*
X195051507Y-98981521D01*
X195115866Y-98954323D01*
X195184712Y-98966238D01*
X195236188Y-99013482D01*
X195247931Y-99039196D01*
X195287454Y-99160836D01*
X195373240Y-99329199D01*
X195484310Y-99482073D01*
X195617927Y-99615690D01*
X195770801Y-99726760D01*
X195850347Y-99767290D01*
X195939163Y-99812545D01*
X195939165Y-99812545D01*
X195939168Y-99812547D01*
X195996890Y-99831302D01*
X196118881Y-99870940D01*
X196305514Y-99900500D01*
X196305519Y-99900500D01*
X196494486Y-99900500D01*
X196681118Y-99870940D01*
X196696660Y-99865890D01*
X196860832Y-99812547D01*
X197029199Y-99726760D01*
X197182073Y-99615690D01*
X197315690Y-99482073D01*
X197426760Y-99329199D01*
X197512547Y-99160832D01*
X197570940Y-98981118D01*
X197575184Y-98954323D01*
X197600500Y-98794486D01*
X197600500Y-98605513D01*
X197570940Y-98418881D01*
X197516439Y-98251147D01*
X197512547Y-98239168D01*
X197512545Y-98239165D01*
X197512545Y-98239163D01*
X197426759Y-98070800D01*
X197315690Y-97917927D01*
X197182073Y-97784310D01*
X197029199Y-97673240D01*
X197014774Y-97665890D01*
X196860836Y-97587454D01*
X196681118Y-97529059D01*
X196520878Y-97503680D01*
X196494486Y-97499500D01*
X196494481Y-97499500D01*
X196305519Y-97499500D01*
X196305514Y-97499500D01*
X196118881Y-97529059D01*
X195939163Y-97587454D01*
X195770800Y-97673240D01*
X195683579Y-97736610D01*
X195617927Y-97784310D01*
X195617925Y-97784312D01*
X195617924Y-97784312D01*
X195484312Y-97917924D01*
X195484312Y-97917925D01*
X195484310Y-97917927D01*
X195441936Y-97976249D01*
X195373240Y-98070800D01*
X195287454Y-98239163D01*
X195247931Y-98360803D01*
X195208493Y-98418478D01*
X195144134Y-98445676D01*
X195075288Y-98433761D01*
X195023812Y-98386516D01*
X195012069Y-98360803D01*
X194976439Y-98251147D01*
X194972547Y-98239168D01*
X194972545Y-98239165D01*
X194972545Y-98239163D01*
X194886759Y-98070800D01*
X194775690Y-97917927D01*
X194642073Y-97784310D01*
X194489199Y-97673240D01*
X194474774Y-97665890D01*
X194320836Y-97587454D01*
X194141118Y-97529059D01*
X193954486Y-97499500D01*
X193954481Y-97499500D01*
X193765519Y-97499500D01*
X193765514Y-97499500D01*
X193578881Y-97529059D01*
X193399163Y-97587454D01*
X193230800Y-97673240D01*
X193143579Y-97736610D01*
X193077927Y-97784310D01*
X193077925Y-97784312D01*
X193077924Y-97784312D01*
X192944312Y-97917924D01*
X192944312Y-97917925D01*
X192944310Y-97917927D01*
X192901936Y-97976249D01*
X192833240Y-98070800D01*
X192747454Y-98239163D01*
X192689059Y-98418881D01*
X192659500Y-98605513D01*
X151483030Y-98605513D01*
X151458097Y-98525502D01*
X151454514Y-98510965D01*
X151442549Y-98445676D01*
X151408253Y-98258524D01*
X151406448Y-98243660D01*
X151390726Y-97983736D01*
X151390500Y-97976249D01*
X151390500Y-97534108D01*
X176599500Y-97534108D01*
X176599500Y-97665891D01*
X176633608Y-97793187D01*
X176661923Y-97842229D01*
X176699500Y-97907314D01*
X176792686Y-98000500D01*
X176906814Y-98066392D01*
X177034108Y-98100500D01*
X177034110Y-98100500D01*
X177165890Y-98100500D01*
X177165892Y-98100500D01*
X177293186Y-98066392D01*
X177407314Y-98000500D01*
X177500500Y-97907314D01*
X177542613Y-97834371D01*
X177593180Y-97786156D01*
X177661787Y-97772933D01*
X177726652Y-97798901D01*
X177757386Y-97834371D01*
X177799500Y-97907314D01*
X177892686Y-98000500D01*
X178006814Y-98066392D01*
X178134108Y-98100500D01*
X178134110Y-98100500D01*
X178265890Y-98100500D01*
X178265892Y-98100500D01*
X178393186Y-98066392D01*
X178507314Y-98000500D01*
X178600500Y-97907314D01*
X178666392Y-97793186D01*
X178700500Y-97665892D01*
X178700500Y-97534108D01*
X179999500Y-97534108D01*
X179999500Y-97665891D01*
X180033608Y-97793187D01*
X180061923Y-97842229D01*
X180099500Y-97907314D01*
X180192686Y-98000500D01*
X180306814Y-98066392D01*
X180434108Y-98100500D01*
X180434110Y-98100500D01*
X180565890Y-98100500D01*
X180565892Y-98100500D01*
X180693186Y-98066392D01*
X180807314Y-98000500D01*
X180900500Y-97907314D01*
X180940124Y-97838682D01*
X180990688Y-97790470D01*
X181059295Y-97777246D01*
X181124160Y-97803214D01*
X181135190Y-97813004D01*
X181212686Y-97890500D01*
X181326814Y-97956392D01*
X181454108Y-97990500D01*
X181454110Y-97990500D01*
X181585890Y-97990500D01*
X181585892Y-97990500D01*
X181713186Y-97956392D01*
X181827314Y-97890500D01*
X181920500Y-97797314D01*
X181986392Y-97683186D01*
X182020500Y-97555892D01*
X182020500Y-97424108D01*
X182010090Y-97385258D01*
X216349500Y-97385258D01*
X216349500Y-97614741D01*
X216372636Y-97790470D01*
X216379452Y-97842238D01*
X216421858Y-98000500D01*
X216438842Y-98063887D01*
X216526650Y-98275876D01*
X216526657Y-98275890D01*
X216641392Y-98474617D01*
X216781081Y-98656661D01*
X216781089Y-98656670D01*
X216943330Y-98818911D01*
X216943338Y-98818918D01*
X217125382Y-98958607D01*
X217125385Y-98958608D01*
X217125388Y-98958611D01*
X217324112Y-99073344D01*
X217324117Y-99073346D01*
X217324123Y-99073349D01*
X217415480Y-99111190D01*
X217536113Y-99161158D01*
X217757762Y-99220548D01*
X217985266Y-99250500D01*
X217985273Y-99250500D01*
X218214727Y-99250500D01*
X218214734Y-99250500D01*
X218442238Y-99220548D01*
X218663887Y-99161158D01*
X218875888Y-99073344D01*
X219074612Y-98958611D01*
X219256661Y-98818919D01*
X219256665Y-98818914D01*
X219256670Y-98818911D01*
X219418911Y-98656670D01*
X219418914Y-98656665D01*
X219418919Y-98656661D01*
X219558611Y-98474612D01*
X219673344Y-98275888D01*
X219761158Y-98063887D01*
X219820548Y-97842238D01*
X219850500Y-97614734D01*
X219850500Y-97385266D01*
X219820548Y-97157762D01*
X219761158Y-96936113D01*
X219673344Y-96724112D01*
X219558611Y-96525388D01*
X219558608Y-96525385D01*
X219558607Y-96525382D01*
X219418918Y-96343338D01*
X219418911Y-96343330D01*
X219256670Y-96181089D01*
X219256661Y-96181081D01*
X219074617Y-96041392D01*
X218875890Y-95926657D01*
X218875876Y-95926650D01*
X218663887Y-95838842D01*
X218442238Y-95779452D01*
X218404215Y-95774446D01*
X218214741Y-95749500D01*
X218214734Y-95749500D01*
X217985266Y-95749500D01*
X217985258Y-95749500D01*
X217768715Y-95778009D01*
X217757762Y-95779452D01*
X217664076Y-95804554D01*
X217536112Y-95838842D01*
X217324123Y-95926650D01*
X217324109Y-95926657D01*
X217125382Y-96041392D01*
X216943338Y-96181081D01*
X216781081Y-96343338D01*
X216641392Y-96525382D01*
X216526657Y-96724109D01*
X216526650Y-96724123D01*
X216438842Y-96936112D01*
X216379453Y-97157759D01*
X216379451Y-97157770D01*
X216349500Y-97385258D01*
X182010090Y-97385258D01*
X181986392Y-97296814D01*
X181920500Y-97182686D01*
X181827314Y-97089500D01*
X181770250Y-97056554D01*
X181713187Y-97023608D01*
X181649539Y-97006554D01*
X181585892Y-96989500D01*
X181454108Y-96989500D01*
X181326812Y-97023608D01*
X181212686Y-97089500D01*
X181212683Y-97089502D01*
X181119502Y-97182683D01*
X181119500Y-97182686D01*
X181079877Y-97251315D01*
X181029309Y-97299530D01*
X180960702Y-97312752D01*
X180895838Y-97286784D01*
X180884809Y-97276995D01*
X180807316Y-97199502D01*
X180807314Y-97199500D01*
X180735017Y-97157759D01*
X180693187Y-97133608D01*
X180629539Y-97116554D01*
X180565892Y-97099500D01*
X180434108Y-97099500D01*
X180306812Y-97133608D01*
X180192686Y-97199500D01*
X180192683Y-97199502D01*
X180099502Y-97292683D01*
X180099500Y-97292686D01*
X180033608Y-97406812D01*
X179999500Y-97534108D01*
X178700500Y-97534108D01*
X178666392Y-97406814D01*
X178600500Y-97292686D01*
X178507314Y-97199500D01*
X178435017Y-97157759D01*
X178393187Y-97133608D01*
X178329539Y-97116554D01*
X178265892Y-97099500D01*
X178134108Y-97099500D01*
X178006812Y-97133608D01*
X177892686Y-97199500D01*
X177892683Y-97199502D01*
X177799502Y-97292683D01*
X177799500Y-97292686D01*
X177757387Y-97365628D01*
X177706820Y-97413843D01*
X177638212Y-97427065D01*
X177573348Y-97401097D01*
X177542613Y-97365628D01*
X177500500Y-97292686D01*
X177407314Y-97199500D01*
X177335017Y-97157759D01*
X177293187Y-97133608D01*
X177229539Y-97116554D01*
X177165892Y-97099500D01*
X177034108Y-97099500D01*
X176906812Y-97133608D01*
X176792686Y-97199500D01*
X176792683Y-97199502D01*
X176699502Y-97292683D01*
X176699500Y-97292686D01*
X176633608Y-97406812D01*
X176599500Y-97534108D01*
X151390500Y-97534108D01*
X151390500Y-95680247D01*
X153349500Y-95680247D01*
X153349500Y-97119752D01*
X153361131Y-97178229D01*
X153361132Y-97178230D01*
X153405447Y-97244552D01*
X153471769Y-97288867D01*
X153471770Y-97288868D01*
X153530247Y-97300499D01*
X153530250Y-97300500D01*
X153530252Y-97300500D01*
X154969750Y-97300500D01*
X154969751Y-97300499D01*
X154988289Y-97296812D01*
X155028229Y-97288868D01*
X155028229Y-97288867D01*
X155028231Y-97288867D01*
X155094552Y-97244552D01*
X155138867Y-97178231D01*
X155138867Y-97178229D01*
X155138868Y-97178229D01*
X155150499Y-97119752D01*
X155150500Y-97119750D01*
X155150500Y-96722080D01*
X155170185Y-96655041D01*
X155222989Y-96609286D01*
X155292147Y-96599342D01*
X155355703Y-96628367D01*
X155389061Y-96674628D01*
X155451983Y-96826541D01*
X155451990Y-96826553D01*
X155550535Y-96974034D01*
X155550538Y-96974038D01*
X155675961Y-97099461D01*
X155675965Y-97099464D01*
X155823446Y-97198009D01*
X155823459Y-97198016D01*
X155935809Y-97244552D01*
X155987334Y-97265894D01*
X155987336Y-97265894D01*
X155987341Y-97265896D01*
X156161304Y-97300499D01*
X156161307Y-97300500D01*
X156161309Y-97300500D01*
X156338693Y-97300500D01*
X156338694Y-97300499D01*
X156407646Y-97286784D01*
X156512658Y-97265896D01*
X156512661Y-97265894D01*
X156512666Y-97265894D01*
X156676547Y-97198013D01*
X156824035Y-97099464D01*
X156949464Y-96974035D01*
X157048013Y-96826547D01*
X157115894Y-96662666D01*
X157128383Y-96599882D01*
X157160768Y-96537971D01*
X157221483Y-96503397D01*
X157291253Y-96507136D01*
X157347925Y-96548003D01*
X157371617Y-96599882D01*
X157384103Y-96662658D01*
X157384106Y-96662667D01*
X157451983Y-96826540D01*
X157451990Y-96826553D01*
X157550535Y-96974034D01*
X157550538Y-96974038D01*
X157675961Y-97099461D01*
X157675965Y-97099464D01*
X157823446Y-97198009D01*
X157823459Y-97198016D01*
X157935809Y-97244552D01*
X157987334Y-97265894D01*
X157987336Y-97265894D01*
X157987341Y-97265896D01*
X158161304Y-97300499D01*
X158161307Y-97300500D01*
X158161309Y-97300500D01*
X158338693Y-97300500D01*
X158338694Y-97300499D01*
X158407646Y-97286784D01*
X158512658Y-97265896D01*
X158512661Y-97265894D01*
X158512666Y-97265894D01*
X158676547Y-97198013D01*
X158824035Y-97099464D01*
X158949464Y-96974035D01*
X159048013Y-96826547D01*
X159115894Y-96662666D01*
X159128383Y-96599882D01*
X159160768Y-96537971D01*
X159221483Y-96503397D01*
X159291253Y-96507136D01*
X159347925Y-96548003D01*
X159371617Y-96599882D01*
X159384103Y-96662658D01*
X159384106Y-96662667D01*
X159451983Y-96826540D01*
X159451990Y-96826553D01*
X159550535Y-96974034D01*
X159550538Y-96974038D01*
X159675961Y-97099461D01*
X159675965Y-97099464D01*
X159823446Y-97198009D01*
X159823459Y-97198016D01*
X159935809Y-97244552D01*
X159987334Y-97265894D01*
X159987336Y-97265894D01*
X159987341Y-97265896D01*
X160161304Y-97300499D01*
X160161307Y-97300500D01*
X160161309Y-97300500D01*
X160338693Y-97300500D01*
X160338694Y-97300499D01*
X160407646Y-97286784D01*
X160512658Y-97265896D01*
X160512661Y-97265894D01*
X160512666Y-97265894D01*
X160676547Y-97198013D01*
X160824035Y-97099464D01*
X160949464Y-96974035D01*
X161048013Y-96826547D01*
X161115894Y-96662666D01*
X161128383Y-96599882D01*
X161160768Y-96537971D01*
X161221483Y-96503397D01*
X161291253Y-96507136D01*
X161347925Y-96548003D01*
X161371617Y-96599882D01*
X161384103Y-96662658D01*
X161384106Y-96662667D01*
X161451983Y-96826540D01*
X161451990Y-96826553D01*
X161550535Y-96974034D01*
X161550538Y-96974038D01*
X161675961Y-97099461D01*
X161675965Y-97099464D01*
X161823446Y-97198009D01*
X161823459Y-97198016D01*
X161935809Y-97244552D01*
X161987334Y-97265894D01*
X161987336Y-97265894D01*
X161987341Y-97265896D01*
X162161304Y-97300499D01*
X162161307Y-97300500D01*
X162161309Y-97300500D01*
X162338693Y-97300500D01*
X162338694Y-97300499D01*
X162407646Y-97286784D01*
X162512658Y-97265896D01*
X162512661Y-97265894D01*
X162512666Y-97265894D01*
X162676547Y-97198013D01*
X162824035Y-97099464D01*
X162949464Y-96974035D01*
X163048013Y-96826547D01*
X163115894Y-96662666D01*
X163128383Y-96599882D01*
X163160768Y-96537971D01*
X163221483Y-96503397D01*
X163291253Y-96507136D01*
X163347925Y-96548003D01*
X163371617Y-96599882D01*
X163384103Y-96662658D01*
X163384106Y-96662667D01*
X163451983Y-96826540D01*
X163451990Y-96826553D01*
X163550535Y-96974034D01*
X163550538Y-96974038D01*
X163675961Y-97099461D01*
X163675965Y-97099464D01*
X163823446Y-97198009D01*
X163823459Y-97198016D01*
X163935809Y-97244552D01*
X163987334Y-97265894D01*
X163987336Y-97265894D01*
X163987341Y-97265896D01*
X164161304Y-97300499D01*
X164161307Y-97300500D01*
X164161309Y-97300500D01*
X164338693Y-97300500D01*
X164338694Y-97300499D01*
X164407646Y-97286784D01*
X164512658Y-97265896D01*
X164512661Y-97265894D01*
X164512666Y-97265894D01*
X164676547Y-97198013D01*
X164824035Y-97099464D01*
X164949464Y-96974035D01*
X165048013Y-96826547D01*
X165115894Y-96662666D01*
X165128383Y-96599882D01*
X165160768Y-96537971D01*
X165221483Y-96503397D01*
X165291253Y-96507136D01*
X165347925Y-96548003D01*
X165371617Y-96599882D01*
X165384103Y-96662658D01*
X165384106Y-96662667D01*
X165451983Y-96826540D01*
X165451990Y-96826553D01*
X165550535Y-96974034D01*
X165550538Y-96974038D01*
X165675961Y-97099461D01*
X165675965Y-97099464D01*
X165823446Y-97198009D01*
X165823459Y-97198016D01*
X165935809Y-97244552D01*
X165987334Y-97265894D01*
X165987336Y-97265894D01*
X165987341Y-97265896D01*
X166161304Y-97300499D01*
X166161307Y-97300500D01*
X166161309Y-97300500D01*
X166338693Y-97300500D01*
X166338694Y-97300499D01*
X166407646Y-97286784D01*
X166512658Y-97265896D01*
X166512661Y-97265894D01*
X166512666Y-97265894D01*
X166676547Y-97198013D01*
X166824035Y-97099464D01*
X166949464Y-96974035D01*
X167048013Y-96826547D01*
X167115894Y-96662666D01*
X167128383Y-96599882D01*
X167160768Y-96537971D01*
X167221483Y-96503397D01*
X167291253Y-96507136D01*
X167347925Y-96548003D01*
X167371617Y-96599882D01*
X167384103Y-96662658D01*
X167384106Y-96662667D01*
X167451983Y-96826540D01*
X167451990Y-96826553D01*
X167550535Y-96974034D01*
X167550538Y-96974038D01*
X167675961Y-97099461D01*
X167675965Y-97099464D01*
X167823446Y-97198009D01*
X167823459Y-97198016D01*
X167935809Y-97244552D01*
X167987334Y-97265894D01*
X167987336Y-97265894D01*
X167987341Y-97265896D01*
X168161304Y-97300499D01*
X168161307Y-97300500D01*
X168161309Y-97300500D01*
X168338693Y-97300500D01*
X168338694Y-97300499D01*
X168407646Y-97286784D01*
X168512658Y-97265896D01*
X168512661Y-97265894D01*
X168512666Y-97265894D01*
X168676547Y-97198013D01*
X168824035Y-97099464D01*
X168949464Y-96974035D01*
X169048013Y-96826547D01*
X169115894Y-96662666D01*
X169128383Y-96599882D01*
X169160768Y-96537971D01*
X169221483Y-96503397D01*
X169291253Y-96507136D01*
X169347925Y-96548003D01*
X169371617Y-96599882D01*
X169384103Y-96662658D01*
X169384106Y-96662667D01*
X169451983Y-96826540D01*
X169451990Y-96826553D01*
X169550535Y-96974034D01*
X169550538Y-96974038D01*
X169675961Y-97099461D01*
X169675965Y-97099464D01*
X169823446Y-97198009D01*
X169823459Y-97198016D01*
X169935809Y-97244552D01*
X169987334Y-97265894D01*
X169987336Y-97265894D01*
X169987341Y-97265896D01*
X170161304Y-97300499D01*
X170161307Y-97300500D01*
X170161309Y-97300500D01*
X170338693Y-97300500D01*
X170338694Y-97300499D01*
X170407646Y-97286784D01*
X170512658Y-97265896D01*
X170512661Y-97265894D01*
X170512666Y-97265894D01*
X170676547Y-97198013D01*
X170824035Y-97099464D01*
X170949464Y-96974035D01*
X171048013Y-96826547D01*
X171115894Y-96662666D01*
X171150500Y-96488691D01*
X171150500Y-96311309D01*
X171150500Y-96311306D01*
X171150499Y-96311304D01*
X171115896Y-96137341D01*
X171115893Y-96137332D01*
X171048016Y-95973459D01*
X171048009Y-95973446D01*
X170949464Y-95825965D01*
X170949461Y-95825961D01*
X170824038Y-95700538D01*
X170824034Y-95700535D01*
X170676553Y-95601990D01*
X170676540Y-95601983D01*
X170512667Y-95534106D01*
X170512658Y-95534103D01*
X170338694Y-95499500D01*
X170338691Y-95499500D01*
X170161309Y-95499500D01*
X170161306Y-95499500D01*
X169987341Y-95534103D01*
X169987332Y-95534106D01*
X169823459Y-95601983D01*
X169823446Y-95601990D01*
X169675965Y-95700535D01*
X169675961Y-95700538D01*
X169550538Y-95825961D01*
X169550535Y-95825965D01*
X169451990Y-95973446D01*
X169451983Y-95973459D01*
X169384106Y-96137332D01*
X169384104Y-96137340D01*
X169371617Y-96200118D01*
X169339232Y-96262028D01*
X169278516Y-96296603D01*
X169208747Y-96292863D01*
X169152075Y-96251996D01*
X169128383Y-96200118D01*
X169115895Y-96137340D01*
X169115894Y-96137334D01*
X169076153Y-96041389D01*
X169048016Y-95973459D01*
X169048009Y-95973446D01*
X168949464Y-95825965D01*
X168949461Y-95825961D01*
X168824038Y-95700538D01*
X168824034Y-95700535D01*
X168676553Y-95601990D01*
X168676540Y-95601983D01*
X168512667Y-95534106D01*
X168512658Y-95534103D01*
X168338694Y-95499500D01*
X168338691Y-95499500D01*
X168161309Y-95499500D01*
X168161306Y-95499500D01*
X167987341Y-95534103D01*
X167987332Y-95534106D01*
X167823459Y-95601983D01*
X167823446Y-95601990D01*
X167675965Y-95700535D01*
X167675961Y-95700538D01*
X167550538Y-95825961D01*
X167550535Y-95825965D01*
X167451990Y-95973446D01*
X167451983Y-95973459D01*
X167384106Y-96137332D01*
X167384104Y-96137340D01*
X167371617Y-96200118D01*
X167339232Y-96262028D01*
X167278516Y-96296603D01*
X167208747Y-96292863D01*
X167152075Y-96251996D01*
X167128383Y-96200118D01*
X167115895Y-96137340D01*
X167115894Y-96137334D01*
X167076153Y-96041389D01*
X167048016Y-95973459D01*
X167048009Y-95973446D01*
X166949464Y-95825965D01*
X166949461Y-95825961D01*
X166824038Y-95700538D01*
X166824034Y-95700535D01*
X166676553Y-95601990D01*
X166676540Y-95601983D01*
X166512667Y-95534106D01*
X166512658Y-95534103D01*
X166338694Y-95499500D01*
X166338691Y-95499500D01*
X166161309Y-95499500D01*
X166161306Y-95499500D01*
X165987341Y-95534103D01*
X165987332Y-95534106D01*
X165823459Y-95601983D01*
X165823446Y-95601990D01*
X165675965Y-95700535D01*
X165675961Y-95700538D01*
X165550538Y-95825961D01*
X165550535Y-95825965D01*
X165451990Y-95973446D01*
X165451983Y-95973459D01*
X165384106Y-96137332D01*
X165384104Y-96137340D01*
X165371617Y-96200118D01*
X165339232Y-96262028D01*
X165278516Y-96296603D01*
X165208747Y-96292863D01*
X165152075Y-96251996D01*
X165128383Y-96200118D01*
X165115895Y-96137340D01*
X165115894Y-96137334D01*
X165076153Y-96041389D01*
X165048016Y-95973459D01*
X165048009Y-95973446D01*
X164949464Y-95825965D01*
X164949461Y-95825961D01*
X164824038Y-95700538D01*
X164824034Y-95700535D01*
X164676553Y-95601990D01*
X164676540Y-95601983D01*
X164512667Y-95534106D01*
X164512658Y-95534103D01*
X164338694Y-95499500D01*
X164338691Y-95499500D01*
X164161309Y-95499500D01*
X164161306Y-95499500D01*
X163987341Y-95534103D01*
X163987332Y-95534106D01*
X163823459Y-95601983D01*
X163823446Y-95601990D01*
X163675965Y-95700535D01*
X163675961Y-95700538D01*
X163550538Y-95825961D01*
X163550535Y-95825965D01*
X163451990Y-95973446D01*
X163451983Y-95973459D01*
X163384106Y-96137332D01*
X163384104Y-96137340D01*
X163371617Y-96200118D01*
X163339232Y-96262028D01*
X163278516Y-96296603D01*
X163208747Y-96292863D01*
X163152075Y-96251996D01*
X163128383Y-96200118D01*
X163115895Y-96137340D01*
X163115894Y-96137334D01*
X163076153Y-96041389D01*
X163048016Y-95973459D01*
X163048009Y-95973446D01*
X162949464Y-95825965D01*
X162949461Y-95825961D01*
X162824038Y-95700538D01*
X162824034Y-95700535D01*
X162676553Y-95601990D01*
X162676540Y-95601983D01*
X162512667Y-95534106D01*
X162512658Y-95534103D01*
X162338694Y-95499500D01*
X162338691Y-95499500D01*
X162161309Y-95499500D01*
X162161306Y-95499500D01*
X161987341Y-95534103D01*
X161987332Y-95534106D01*
X161823459Y-95601983D01*
X161823446Y-95601990D01*
X161675965Y-95700535D01*
X161675961Y-95700538D01*
X161550538Y-95825961D01*
X161550535Y-95825965D01*
X161451990Y-95973446D01*
X161451983Y-95973459D01*
X161384106Y-96137332D01*
X161384104Y-96137340D01*
X161371617Y-96200118D01*
X161339232Y-96262028D01*
X161278516Y-96296603D01*
X161208747Y-96292863D01*
X161152075Y-96251996D01*
X161128383Y-96200118D01*
X161115895Y-96137340D01*
X161115894Y-96137334D01*
X161076153Y-96041389D01*
X161048016Y-95973459D01*
X161048009Y-95973446D01*
X160949464Y-95825965D01*
X160949461Y-95825961D01*
X160824038Y-95700538D01*
X160824034Y-95700535D01*
X160676553Y-95601990D01*
X160676540Y-95601983D01*
X160512667Y-95534106D01*
X160512658Y-95534103D01*
X160338694Y-95499500D01*
X160338691Y-95499500D01*
X160161309Y-95499500D01*
X160161306Y-95499500D01*
X159987341Y-95534103D01*
X159987332Y-95534106D01*
X159823459Y-95601983D01*
X159823446Y-95601990D01*
X159675965Y-95700535D01*
X159675961Y-95700538D01*
X159550538Y-95825961D01*
X159550535Y-95825965D01*
X159451990Y-95973446D01*
X159451983Y-95973459D01*
X159384106Y-96137332D01*
X159384104Y-96137340D01*
X159371617Y-96200118D01*
X159339232Y-96262028D01*
X159278516Y-96296603D01*
X159208747Y-96292863D01*
X159152075Y-96251996D01*
X159128383Y-96200118D01*
X159115895Y-96137340D01*
X159115894Y-96137334D01*
X159076153Y-96041389D01*
X159048016Y-95973459D01*
X159048009Y-95973446D01*
X158949464Y-95825965D01*
X158949461Y-95825961D01*
X158824038Y-95700538D01*
X158824034Y-95700535D01*
X158676553Y-95601990D01*
X158676540Y-95601983D01*
X158512667Y-95534106D01*
X158512658Y-95534103D01*
X158338694Y-95499500D01*
X158338691Y-95499500D01*
X158161309Y-95499500D01*
X158161306Y-95499500D01*
X157987341Y-95534103D01*
X157987332Y-95534106D01*
X157823459Y-95601983D01*
X157823446Y-95601990D01*
X157675965Y-95700535D01*
X157675961Y-95700538D01*
X157550538Y-95825961D01*
X157550535Y-95825965D01*
X157451990Y-95973446D01*
X157451983Y-95973459D01*
X157384106Y-96137332D01*
X157384104Y-96137340D01*
X157371617Y-96200118D01*
X157339232Y-96262028D01*
X157278516Y-96296603D01*
X157208747Y-96292863D01*
X157152075Y-96251996D01*
X157128383Y-96200118D01*
X157115895Y-96137340D01*
X157115894Y-96137334D01*
X157076153Y-96041389D01*
X157048016Y-95973459D01*
X157048009Y-95973446D01*
X156949464Y-95825965D01*
X156949461Y-95825961D01*
X156824038Y-95700538D01*
X156824034Y-95700535D01*
X156676553Y-95601990D01*
X156676540Y-95601983D01*
X156512667Y-95534106D01*
X156512658Y-95534103D01*
X156338694Y-95499500D01*
X156338691Y-95499500D01*
X156161309Y-95499500D01*
X156161306Y-95499500D01*
X155987341Y-95534103D01*
X155987332Y-95534106D01*
X155823459Y-95601983D01*
X155823446Y-95601990D01*
X155675965Y-95700535D01*
X155675961Y-95700538D01*
X155550538Y-95825961D01*
X155550535Y-95825965D01*
X155451990Y-95973446D01*
X155451983Y-95973459D01*
X155389061Y-96125371D01*
X155345221Y-96179775D01*
X155278927Y-96201840D01*
X155211227Y-96184561D01*
X155163616Y-96133424D01*
X155150500Y-96077919D01*
X155150500Y-95680249D01*
X155150499Y-95680247D01*
X155138868Y-95621770D01*
X155138867Y-95621769D01*
X155094552Y-95555447D01*
X155028230Y-95511132D01*
X155028229Y-95511131D01*
X154969752Y-95499500D01*
X154969748Y-95499500D01*
X153530252Y-95499500D01*
X153530247Y-95499500D01*
X153471770Y-95511131D01*
X153471769Y-95511132D01*
X153405447Y-95555447D01*
X153361132Y-95621769D01*
X153361131Y-95621770D01*
X153349500Y-95680247D01*
X151390500Y-95680247D01*
X151390500Y-95034108D01*
X187074500Y-95034108D01*
X187074500Y-95165891D01*
X187108608Y-95293187D01*
X187141554Y-95350250D01*
X187174500Y-95407314D01*
X187174502Y-95407316D01*
X187229505Y-95462319D01*
X187262990Y-95523642D01*
X187258006Y-95593334D01*
X187229505Y-95637681D01*
X187174502Y-95692683D01*
X187174500Y-95692686D01*
X187108608Y-95806812D01*
X187074500Y-95934108D01*
X187074500Y-96065891D01*
X187108608Y-96193187D01*
X187131200Y-96232316D01*
X187174500Y-96307314D01*
X187267686Y-96400500D01*
X187381814Y-96466392D01*
X187509108Y-96500500D01*
X187509110Y-96500500D01*
X187640890Y-96500500D01*
X187640892Y-96500500D01*
X187768186Y-96466392D01*
X187882314Y-96400500D01*
X187975500Y-96307314D01*
X188041392Y-96193186D01*
X188075500Y-96065892D01*
X188075500Y-95934108D01*
X188055404Y-95859108D01*
X200324500Y-95859108D01*
X200324500Y-95990891D01*
X200358608Y-96118187D01*
X200369667Y-96137341D01*
X200424500Y-96232314D01*
X200517686Y-96325500D01*
X200631814Y-96391392D01*
X200759108Y-96425500D01*
X200759110Y-96425500D01*
X200890890Y-96425500D01*
X200890892Y-96425500D01*
X201018186Y-96391392D01*
X201132314Y-96325500D01*
X201225500Y-96232314D01*
X201291392Y-96118186D01*
X201325500Y-95990892D01*
X201325500Y-95859108D01*
X201291392Y-95731814D01*
X201225500Y-95617686D01*
X201132314Y-95524500D01*
X201075250Y-95491554D01*
X201018187Y-95458608D01*
X200954539Y-95441554D01*
X200890892Y-95424500D01*
X200759108Y-95424500D01*
X200631812Y-95458608D01*
X200517686Y-95524500D01*
X200517683Y-95524502D01*
X200424502Y-95617683D01*
X200424500Y-95617686D01*
X200358608Y-95731812D01*
X200324500Y-95859108D01*
X188055404Y-95859108D01*
X188041392Y-95806814D01*
X187975500Y-95692686D01*
X187920495Y-95637681D01*
X187887010Y-95576358D01*
X187891994Y-95506666D01*
X187920495Y-95462319D01*
X187924206Y-95458608D01*
X187975500Y-95407314D01*
X188041392Y-95293186D01*
X188075500Y-95165892D01*
X188075500Y-95034108D01*
X188041392Y-94906814D01*
X187975500Y-94792686D01*
X187882314Y-94699500D01*
X187825250Y-94666554D01*
X187768187Y-94633608D01*
X187704539Y-94616554D01*
X187640892Y-94599500D01*
X187509108Y-94599500D01*
X187381812Y-94633608D01*
X187267686Y-94699500D01*
X187267683Y-94699502D01*
X187174502Y-94792683D01*
X187174500Y-94792686D01*
X187108608Y-94906812D01*
X187074500Y-95034108D01*
X151390500Y-95034108D01*
X151390500Y-92334108D01*
X202899500Y-92334108D01*
X202899500Y-92465891D01*
X202933608Y-92593187D01*
X202966554Y-92650250D01*
X202999500Y-92707314D01*
X203092686Y-92800500D01*
X203206814Y-92866392D01*
X203334108Y-92900500D01*
X203334110Y-92900500D01*
X203465890Y-92900500D01*
X203465892Y-92900500D01*
X203593186Y-92866392D01*
X203707314Y-92800500D01*
X203800500Y-92707314D01*
X203866392Y-92593186D01*
X203900500Y-92465892D01*
X203900500Y-92334108D01*
X205299500Y-92334108D01*
X205299500Y-92465891D01*
X205333608Y-92593187D01*
X205366554Y-92650250D01*
X205399500Y-92707314D01*
X205492686Y-92800500D01*
X205606814Y-92866392D01*
X205734108Y-92900500D01*
X205734110Y-92900500D01*
X205865890Y-92900500D01*
X205865892Y-92900500D01*
X205993186Y-92866392D01*
X206107314Y-92800500D01*
X206200500Y-92707314D01*
X206266392Y-92593186D01*
X206300500Y-92465892D01*
X206300500Y-92334108D01*
X206266392Y-92206814D01*
X206200500Y-92092686D01*
X206107314Y-91999500D01*
X206050250Y-91966554D01*
X205993187Y-91933608D01*
X205929539Y-91916554D01*
X205865892Y-91899500D01*
X205734108Y-91899500D01*
X205606812Y-91933608D01*
X205492686Y-91999500D01*
X205492683Y-91999502D01*
X205399502Y-92092683D01*
X205399500Y-92092686D01*
X205333608Y-92206812D01*
X205299500Y-92334108D01*
X203900500Y-92334108D01*
X203866392Y-92206814D01*
X203800500Y-92092686D01*
X203707314Y-91999500D01*
X203650250Y-91966554D01*
X203593187Y-91933608D01*
X203529539Y-91916554D01*
X203465892Y-91899500D01*
X203334108Y-91899500D01*
X203206812Y-91933608D01*
X203092686Y-91999500D01*
X203092683Y-91999502D01*
X202999502Y-92092683D01*
X202999500Y-92092686D01*
X202933608Y-92206812D01*
X202899500Y-92334108D01*
X151390500Y-92334108D01*
X151390500Y-91259108D01*
X186249500Y-91259108D01*
X186249500Y-91390892D01*
X186256580Y-91417314D01*
X186283608Y-91518187D01*
X186298042Y-91543187D01*
X186349500Y-91632314D01*
X186442686Y-91725500D01*
X186556814Y-91791392D01*
X186684108Y-91825500D01*
X186684110Y-91825500D01*
X186815890Y-91825500D01*
X186815892Y-91825500D01*
X186943186Y-91791392D01*
X187057314Y-91725500D01*
X187150500Y-91632314D01*
X187150504Y-91632306D01*
X187155448Y-91625865D01*
X187157632Y-91627541D01*
X187198459Y-91588610D01*
X187267066Y-91575385D01*
X187331931Y-91601351D01*
X187362670Y-91636824D01*
X187374500Y-91657314D01*
X187467686Y-91750500D01*
X187581814Y-91816392D01*
X187709108Y-91850500D01*
X187709110Y-91850500D01*
X187840890Y-91850500D01*
X187840892Y-91850500D01*
X187968186Y-91816392D01*
X188082314Y-91750500D01*
X188175500Y-91657314D01*
X188241392Y-91543186D01*
X188275500Y-91415892D01*
X188275500Y-91284108D01*
X188262103Y-91234108D01*
X198769500Y-91234108D01*
X198769500Y-91365892D01*
X198776199Y-91390892D01*
X198803608Y-91493187D01*
X198818042Y-91518187D01*
X198869500Y-91607314D01*
X198962686Y-91700500D01*
X199076814Y-91766392D01*
X199204108Y-91800500D01*
X199204110Y-91800500D01*
X199335890Y-91800500D01*
X199335892Y-91800500D01*
X199463186Y-91766392D01*
X199577314Y-91700500D01*
X199670500Y-91607314D01*
X199736392Y-91493186D01*
X199770500Y-91365892D01*
X199770500Y-91234108D01*
X199736392Y-91106814D01*
X199670500Y-90992686D01*
X199577314Y-90899500D01*
X199490712Y-90849500D01*
X199463187Y-90833608D01*
X199363188Y-90806814D01*
X199335892Y-90799500D01*
X199204108Y-90799500D01*
X199076812Y-90833608D01*
X198962686Y-90899500D01*
X198962683Y-90899502D01*
X198869502Y-90992683D01*
X198869500Y-90992686D01*
X198803608Y-91106812D01*
X198778505Y-91200499D01*
X198769500Y-91234108D01*
X188262103Y-91234108D01*
X188241392Y-91156814D01*
X188175500Y-91042686D01*
X188082314Y-90949500D01*
X188025250Y-90916554D01*
X187968187Y-90883608D01*
X187903934Y-90866392D01*
X187840892Y-90849500D01*
X187709108Y-90849500D01*
X187581812Y-90883608D01*
X187467686Y-90949500D01*
X187467683Y-90949502D01*
X187374502Y-91042683D01*
X187369552Y-91049135D01*
X187367374Y-91047463D01*
X187326488Y-91086415D01*
X187257876Y-91099608D01*
X187193022Y-91073612D01*
X187162330Y-91038176D01*
X187150500Y-91017686D01*
X187057314Y-90924500D01*
X186986487Y-90883608D01*
X186943187Y-90858608D01*
X186878822Y-90841362D01*
X186815892Y-90824500D01*
X186684108Y-90824500D01*
X186556812Y-90858608D01*
X186442686Y-90924500D01*
X186442683Y-90924502D01*
X186349502Y-91017683D01*
X186349500Y-91017686D01*
X186283608Y-91131812D01*
X186267163Y-91193187D01*
X186249500Y-91259108D01*
X151390500Y-91259108D01*
X151390500Y-90534108D01*
X153739500Y-90534108D01*
X153739500Y-90665892D01*
X153751185Y-90709500D01*
X153773608Y-90793187D01*
X153796946Y-90833608D01*
X153839500Y-90907314D01*
X153932686Y-91000500D01*
X154008217Y-91044108D01*
X154045944Y-91065890D01*
X154046814Y-91066392D01*
X154174108Y-91100500D01*
X154174110Y-91100500D01*
X154305890Y-91100500D01*
X154305892Y-91100500D01*
X154433186Y-91066392D01*
X154547314Y-91000500D01*
X154640500Y-90907314D01*
X154706392Y-90793186D01*
X154740500Y-90665892D01*
X154740500Y-90634108D01*
X201299500Y-90634108D01*
X201299500Y-90765892D01*
X201302067Y-90775471D01*
X201333608Y-90893187D01*
X201362504Y-90943235D01*
X201399500Y-91007314D01*
X201492686Y-91100500D01*
X201606814Y-91166392D01*
X201734108Y-91200500D01*
X201734110Y-91200500D01*
X201865890Y-91200500D01*
X201865892Y-91200500D01*
X201993186Y-91166392D01*
X202107314Y-91100500D01*
X202193202Y-91014611D01*
X202254521Y-90981129D01*
X202324213Y-90986113D01*
X202380147Y-91027984D01*
X202400655Y-91070202D01*
X202433608Y-91193187D01*
X202460923Y-91240497D01*
X202499500Y-91307314D01*
X202592686Y-91400500D01*
X202706814Y-91466392D01*
X202834108Y-91500500D01*
X202834110Y-91500500D01*
X202965890Y-91500500D01*
X202965892Y-91500500D01*
X203093186Y-91466392D01*
X203207314Y-91400500D01*
X203300500Y-91307314D01*
X203366392Y-91193186D01*
X203400500Y-91065892D01*
X203400500Y-90934108D01*
X203366392Y-90806814D01*
X203364010Y-90802689D01*
X203347509Y-90774108D01*
X203300500Y-90692686D01*
X203207314Y-90599500D01*
X203150250Y-90566554D01*
X203093187Y-90533608D01*
X202993188Y-90506814D01*
X202965892Y-90499500D01*
X202834108Y-90499500D01*
X202706812Y-90533608D01*
X202592686Y-90599500D01*
X202506800Y-90685386D01*
X202445476Y-90718870D01*
X202375785Y-90713886D01*
X202319851Y-90672014D01*
X202299345Y-90629801D01*
X202266392Y-90506814D01*
X202200500Y-90392686D01*
X202116893Y-90309079D01*
X206274471Y-90309079D01*
X206274471Y-90440863D01*
X206290183Y-90499500D01*
X206308579Y-90568158D01*
X206323030Y-90593187D01*
X206374471Y-90682285D01*
X206467657Y-90775471D01*
X206581785Y-90841363D01*
X206709079Y-90875471D01*
X206709081Y-90875471D01*
X206840861Y-90875471D01*
X206840863Y-90875471D01*
X206968157Y-90841363D01*
X207082285Y-90775471D01*
X207175471Y-90682285D01*
X207241363Y-90568157D01*
X207275471Y-90440863D01*
X207275471Y-90309079D01*
X207241363Y-90181785D01*
X207175471Y-90067657D01*
X207082285Y-89974471D01*
X206997465Y-89925500D01*
X206968158Y-89908579D01*
X206904010Y-89891391D01*
X206840863Y-89874471D01*
X206709079Y-89874471D01*
X206581783Y-89908579D01*
X206467657Y-89974471D01*
X206467654Y-89974473D01*
X206374473Y-90067654D01*
X206374471Y-90067657D01*
X206308579Y-90181783D01*
X206295040Y-90232313D01*
X206274471Y-90309079D01*
X202116893Y-90309079D01*
X202107314Y-90299500D01*
X202050250Y-90266554D01*
X201993187Y-90233608D01*
X201893188Y-90206814D01*
X201865892Y-90199500D01*
X201734108Y-90199500D01*
X201606812Y-90233608D01*
X201492686Y-90299500D01*
X201492683Y-90299502D01*
X201399502Y-90392683D01*
X201399500Y-90392686D01*
X201333608Y-90506812D01*
X201306094Y-90609500D01*
X201299500Y-90634108D01*
X154740500Y-90634108D01*
X154740500Y-90534108D01*
X154706392Y-90406814D01*
X154640500Y-90292686D01*
X154547314Y-90199500D01*
X154490250Y-90166554D01*
X154433187Y-90133608D01*
X154369539Y-90116554D01*
X154305892Y-90099500D01*
X154174108Y-90099500D01*
X154046812Y-90133608D01*
X153932686Y-90199500D01*
X153932683Y-90199502D01*
X153839502Y-90292683D01*
X153839500Y-90292686D01*
X153773608Y-90406812D01*
X153757778Y-90465892D01*
X153739500Y-90534108D01*
X151390500Y-90534108D01*
X151390500Y-89859108D01*
X194699500Y-89859108D01*
X194699500Y-89990892D01*
X194712792Y-90040499D01*
X194733608Y-90118187D01*
X194746490Y-90140499D01*
X194799500Y-90232314D01*
X194892686Y-90325500D01*
X195006814Y-90391392D01*
X195134108Y-90425500D01*
X195134110Y-90425500D01*
X195265890Y-90425500D01*
X195265892Y-90425500D01*
X195393186Y-90391392D01*
X195507314Y-90325500D01*
X195600500Y-90232314D01*
X195666392Y-90118186D01*
X195693395Y-90017405D01*
X195729760Y-89957746D01*
X195792607Y-89927217D01*
X195813170Y-89925500D01*
X195915890Y-89925500D01*
X195915892Y-89925500D01*
X196043186Y-89891392D01*
X196157314Y-89825500D01*
X196250500Y-89732314D01*
X196316392Y-89618186D01*
X196350500Y-89490892D01*
X196350500Y-89359108D01*
X196316392Y-89231814D01*
X196250500Y-89117686D01*
X196157314Y-89024500D01*
X196100250Y-88991554D01*
X196043187Y-88958608D01*
X195979539Y-88941554D01*
X195915892Y-88924500D01*
X195784108Y-88924500D01*
X195656812Y-88958608D01*
X195542686Y-89024500D01*
X195542683Y-89024502D01*
X195449502Y-89117683D01*
X195449500Y-89117686D01*
X195383608Y-89231812D01*
X195356605Y-89332593D01*
X195320240Y-89392254D01*
X195257393Y-89422783D01*
X195236830Y-89424500D01*
X195134108Y-89424500D01*
X195006812Y-89458608D01*
X194892686Y-89524500D01*
X194892683Y-89524502D01*
X194799502Y-89617683D01*
X194799500Y-89617686D01*
X194733608Y-89731812D01*
X194717163Y-89793187D01*
X194699500Y-89859108D01*
X151390500Y-89859108D01*
X151390500Y-89234108D01*
X189499500Y-89234108D01*
X189499500Y-89365891D01*
X189533608Y-89493187D01*
X189560936Y-89540520D01*
X189599500Y-89607314D01*
X189692686Y-89700500D01*
X189767327Y-89743594D01*
X189806810Y-89766390D01*
X189806814Y-89766392D01*
X189934108Y-89800500D01*
X189934110Y-89800500D01*
X190065890Y-89800500D01*
X190065892Y-89800500D01*
X190193186Y-89766392D01*
X190307314Y-89700500D01*
X190400500Y-89607314D01*
X190466392Y-89493186D01*
X190500500Y-89365892D01*
X190500500Y-89234108D01*
X190466392Y-89106814D01*
X190400500Y-88992686D01*
X190307314Y-88899500D01*
X190249100Y-88865890D01*
X190193187Y-88833608D01*
X190129539Y-88816554D01*
X190065892Y-88799500D01*
X189934108Y-88799500D01*
X189806812Y-88833608D01*
X189692686Y-88899500D01*
X189692683Y-88899502D01*
X189599502Y-88992683D01*
X189599500Y-88992686D01*
X189533608Y-89106812D01*
X189499500Y-89234108D01*
X151390500Y-89234108D01*
X151390500Y-88164108D01*
X197069500Y-88164108D01*
X197069500Y-88295892D01*
X197072561Y-88307316D01*
X197103608Y-88423187D01*
X197128552Y-88466391D01*
X197169500Y-88537314D01*
X197262686Y-88630500D01*
X197376814Y-88696392D01*
X197504108Y-88730500D01*
X197504110Y-88730500D01*
X197635890Y-88730500D01*
X197635892Y-88730500D01*
X197763186Y-88696392D01*
X197850944Y-88645724D01*
X197918842Y-88629252D01*
X197984869Y-88652104D01*
X198028060Y-88707025D01*
X198035184Y-88743986D01*
X198035882Y-88743895D01*
X198036943Y-88751954D01*
X198071051Y-88879250D01*
X198097177Y-88924500D01*
X198136943Y-88993377D01*
X198230129Y-89086563D01*
X198344257Y-89152455D01*
X198471551Y-89186563D01*
X198471553Y-89186563D01*
X198603333Y-89186563D01*
X198603335Y-89186563D01*
X198730629Y-89152455D01*
X198844757Y-89086563D01*
X198937943Y-88993377D01*
X199003835Y-88879249D01*
X199037943Y-88751955D01*
X199037943Y-88620171D01*
X199014883Y-88534108D01*
X203856567Y-88534108D01*
X203856567Y-88665892D01*
X203873621Y-88729539D01*
X203890675Y-88793187D01*
X203894320Y-88799500D01*
X203956567Y-88907314D01*
X204049753Y-89000500D01*
X204163881Y-89066392D01*
X204291175Y-89100500D01*
X204291177Y-89100500D01*
X204422957Y-89100500D01*
X204422959Y-89100500D01*
X204550253Y-89066392D01*
X204664381Y-89000500D01*
X204757567Y-88907314D01*
X204823459Y-88793186D01*
X204839289Y-88734108D01*
X210799500Y-88734108D01*
X210799500Y-88865892D01*
X210815204Y-88924500D01*
X210833608Y-88993187D01*
X210851687Y-89024500D01*
X210899500Y-89107314D01*
X210899502Y-89107316D01*
X210904505Y-89112319D01*
X210937990Y-89173642D01*
X210933006Y-89243334D01*
X210904505Y-89287681D01*
X210899502Y-89292683D01*
X210899500Y-89292686D01*
X210833608Y-89406812D01*
X210799500Y-89534108D01*
X210799500Y-89665891D01*
X210833608Y-89793187D01*
X210866554Y-89850250D01*
X210899500Y-89907314D01*
X210899502Y-89907316D01*
X210904505Y-89912319D01*
X210937990Y-89973642D01*
X210933006Y-90043334D01*
X210904505Y-90087681D01*
X210899502Y-90092683D01*
X210899500Y-90092686D01*
X210833608Y-90206812D01*
X210799500Y-90334108D01*
X210799500Y-90465891D01*
X210833608Y-90593187D01*
X210843027Y-90609500D01*
X210899500Y-90707314D01*
X210992686Y-90800500D01*
X210992689Y-90800501D01*
X210992692Y-90800504D01*
X211000678Y-90805115D01*
X211048892Y-90855683D01*
X211062113Y-90924291D01*
X211036143Y-90989155D01*
X211000678Y-91019885D01*
X210992692Y-91024495D01*
X210992683Y-91024502D01*
X210899502Y-91117683D01*
X210899500Y-91117686D01*
X210833608Y-91231812D01*
X210819596Y-91284108D01*
X210799500Y-91359108D01*
X210799500Y-91490892D01*
X210804753Y-91510497D01*
X210833608Y-91618187D01*
X210856200Y-91657316D01*
X210899500Y-91732314D01*
X210992686Y-91825500D01*
X211106814Y-91891392D01*
X211234108Y-91925500D01*
X211234110Y-91925500D01*
X211365890Y-91925500D01*
X211365892Y-91925500D01*
X211493186Y-91891392D01*
X211607314Y-91825500D01*
X211700500Y-91732314D01*
X211766392Y-91618186D01*
X211800500Y-91490892D01*
X211800500Y-91359108D01*
X211766392Y-91231814D01*
X211700500Y-91117686D01*
X211626922Y-91044108D01*
X212219500Y-91044108D01*
X212219500Y-91175892D01*
X212226094Y-91200500D01*
X212253608Y-91303187D01*
X212255991Y-91307314D01*
X212319500Y-91417314D01*
X212412686Y-91510500D01*
X212526814Y-91576392D01*
X212654108Y-91610500D01*
X212654110Y-91610500D01*
X212785890Y-91610500D01*
X212785892Y-91610500D01*
X212913186Y-91576392D01*
X213027314Y-91510500D01*
X213120500Y-91417314D01*
X213186392Y-91303186D01*
X213220500Y-91175892D01*
X213220500Y-91044108D01*
X213186392Y-90916814D01*
X213120500Y-90802686D01*
X213091922Y-90774108D01*
X217549500Y-90774108D01*
X217549500Y-90905892D01*
X217563625Y-90958608D01*
X217583608Y-91033187D01*
X217604979Y-91070202D01*
X217649500Y-91147314D01*
X217742686Y-91240500D01*
X217856814Y-91306392D01*
X217984108Y-91340500D01*
X217984110Y-91340500D01*
X218115890Y-91340500D01*
X218115892Y-91340500D01*
X218243186Y-91306392D01*
X218357314Y-91240500D01*
X218450500Y-91147314D01*
X218516392Y-91033186D01*
X218550500Y-90905892D01*
X218550500Y-90774108D01*
X218949500Y-90774108D01*
X218949500Y-90905892D01*
X218963625Y-90958608D01*
X218983608Y-91033187D01*
X219004979Y-91070202D01*
X219049500Y-91147314D01*
X219142686Y-91240500D01*
X219256814Y-91306392D01*
X219384108Y-91340500D01*
X219384110Y-91340500D01*
X219515890Y-91340500D01*
X219515892Y-91340500D01*
X219643186Y-91306392D01*
X219757314Y-91240500D01*
X219850500Y-91147314D01*
X219916392Y-91033186D01*
X219950500Y-90905892D01*
X219950500Y-90774108D01*
X219916392Y-90646814D01*
X219850500Y-90532686D01*
X219757314Y-90439500D01*
X219673987Y-90391391D01*
X219643187Y-90373608D01*
X219579539Y-90356554D01*
X219515892Y-90339500D01*
X219384108Y-90339500D01*
X219256812Y-90373608D01*
X219142686Y-90439500D01*
X219142683Y-90439502D01*
X219049502Y-90532683D01*
X219049500Y-90532686D01*
X218983608Y-90646812D01*
X218966811Y-90709500D01*
X218949500Y-90774108D01*
X218550500Y-90774108D01*
X218516392Y-90646814D01*
X218450500Y-90532686D01*
X218357314Y-90439500D01*
X218273987Y-90391391D01*
X218243187Y-90373608D01*
X218179539Y-90356554D01*
X218115892Y-90339500D01*
X217984108Y-90339500D01*
X217856812Y-90373608D01*
X217742686Y-90439500D01*
X217742683Y-90439502D01*
X217649502Y-90532683D01*
X217649500Y-90532686D01*
X217583608Y-90646812D01*
X217566811Y-90709500D01*
X217549500Y-90774108D01*
X213091922Y-90774108D01*
X213027314Y-90709500D01*
X212951783Y-90665892D01*
X212913187Y-90643608D01*
X212849539Y-90626554D01*
X212785892Y-90609500D01*
X212654108Y-90609500D01*
X212526812Y-90643608D01*
X212412686Y-90709500D01*
X212412683Y-90709502D01*
X212319502Y-90802683D01*
X212319500Y-90802686D01*
X212253608Y-90916812D01*
X212222426Y-91033187D01*
X212219500Y-91044108D01*
X211626922Y-91044108D01*
X211607314Y-91024500D01*
X211587162Y-91012865D01*
X211576880Y-91003303D01*
X211565918Y-90984852D01*
X211551108Y-90969320D01*
X211548427Y-90955411D01*
X211541193Y-90943235D01*
X211541946Y-90921787D01*
X211537885Y-90900713D01*
X211543149Y-90887562D01*
X211543647Y-90873408D01*
X211555875Y-90855773D01*
X211563853Y-90835848D01*
X211578487Y-90823167D01*
X211583463Y-90815993D01*
X211589803Y-90813362D01*
X211599324Y-90805113D01*
X211607314Y-90800500D01*
X211700500Y-90707314D01*
X211766392Y-90593186D01*
X211800500Y-90465892D01*
X211800500Y-90334108D01*
X211766392Y-90206814D01*
X211700500Y-90092686D01*
X211695495Y-90087681D01*
X211662010Y-90026358D01*
X211666994Y-89956666D01*
X211695495Y-89912319D01*
X211700500Y-89907314D01*
X211766392Y-89793186D01*
X211800500Y-89665892D01*
X211800500Y-89574108D01*
X216849500Y-89574108D01*
X216849500Y-89705892D01*
X216865710Y-89766390D01*
X216883608Y-89833187D01*
X216898574Y-89859108D01*
X216949500Y-89947314D01*
X217042686Y-90040500D01*
X217156814Y-90106392D01*
X217284108Y-90140500D01*
X217284110Y-90140500D01*
X217415890Y-90140500D01*
X217415892Y-90140500D01*
X217543186Y-90106392D01*
X217657314Y-90040500D01*
X217750500Y-89947314D01*
X217816392Y-89833186D01*
X217850500Y-89705892D01*
X217850500Y-89574108D01*
X218249500Y-89574108D01*
X218249500Y-89705892D01*
X218265710Y-89766390D01*
X218283608Y-89833187D01*
X218298574Y-89859108D01*
X218349500Y-89947314D01*
X218442686Y-90040500D01*
X218556814Y-90106392D01*
X218684108Y-90140500D01*
X218684110Y-90140500D01*
X218815890Y-90140500D01*
X218815892Y-90140500D01*
X218943186Y-90106392D01*
X219057314Y-90040500D01*
X219150500Y-89947314D01*
X219216392Y-89833186D01*
X219250500Y-89705892D01*
X219250500Y-89574108D01*
X219649500Y-89574108D01*
X219649500Y-89705892D01*
X219665710Y-89766390D01*
X219683608Y-89833187D01*
X219698574Y-89859108D01*
X219749500Y-89947314D01*
X219842686Y-90040500D01*
X219956814Y-90106392D01*
X220084108Y-90140500D01*
X220084110Y-90140500D01*
X220215890Y-90140500D01*
X220215892Y-90140500D01*
X220343186Y-90106392D01*
X220457314Y-90040500D01*
X220550500Y-89947314D01*
X220616392Y-89833186D01*
X220650500Y-89705892D01*
X220650500Y-89574108D01*
X220616392Y-89446814D01*
X220550500Y-89332686D01*
X220457314Y-89239500D01*
X220365625Y-89186563D01*
X220343187Y-89173608D01*
X220264237Y-89152454D01*
X220215892Y-89139500D01*
X220084108Y-89139500D01*
X219956812Y-89173608D01*
X219842686Y-89239500D01*
X219842683Y-89239502D01*
X219749502Y-89332683D01*
X219749500Y-89332686D01*
X219683608Y-89446812D01*
X219662792Y-89524500D01*
X219649500Y-89574108D01*
X219250500Y-89574108D01*
X219216392Y-89446814D01*
X219150500Y-89332686D01*
X219057314Y-89239500D01*
X218965625Y-89186563D01*
X218943187Y-89173608D01*
X218864237Y-89152454D01*
X218815892Y-89139500D01*
X218684108Y-89139500D01*
X218556812Y-89173608D01*
X218442686Y-89239500D01*
X218442683Y-89239502D01*
X218349502Y-89332683D01*
X218349500Y-89332686D01*
X218283608Y-89446812D01*
X218262792Y-89524500D01*
X218249500Y-89574108D01*
X217850500Y-89574108D01*
X217816392Y-89446814D01*
X217750500Y-89332686D01*
X217657314Y-89239500D01*
X217565625Y-89186563D01*
X217543187Y-89173608D01*
X217464237Y-89152454D01*
X217415892Y-89139500D01*
X217284108Y-89139500D01*
X217156812Y-89173608D01*
X217042686Y-89239500D01*
X217042683Y-89239502D01*
X216949502Y-89332683D01*
X216949500Y-89332686D01*
X216883608Y-89446812D01*
X216862792Y-89524500D01*
X216849500Y-89574108D01*
X211800500Y-89574108D01*
X211800500Y-89534108D01*
X211766392Y-89406814D01*
X211700500Y-89292686D01*
X211695495Y-89287681D01*
X211662010Y-89226358D01*
X211666994Y-89156666D01*
X211695495Y-89112319D01*
X211700500Y-89107314D01*
X211766392Y-88993186D01*
X211800500Y-88865892D01*
X211800500Y-88734108D01*
X211766392Y-88606814D01*
X211700500Y-88492686D01*
X211607314Y-88399500D01*
X211550250Y-88366554D01*
X211493187Y-88333608D01*
X211429539Y-88316554D01*
X211365892Y-88299500D01*
X211234108Y-88299500D01*
X211106812Y-88333608D01*
X210992686Y-88399500D01*
X210992683Y-88399502D01*
X210899502Y-88492683D01*
X210899500Y-88492686D01*
X210833608Y-88606812D01*
X210817778Y-88665892D01*
X210799500Y-88734108D01*
X204839289Y-88734108D01*
X204857567Y-88665892D01*
X204857567Y-88534108D01*
X204823459Y-88406814D01*
X204757567Y-88292686D01*
X204664381Y-88199500D01*
X204603080Y-88164108D01*
X204550254Y-88133608D01*
X204486606Y-88116554D01*
X204422959Y-88099500D01*
X204291175Y-88099500D01*
X204163879Y-88133608D01*
X204049753Y-88199500D01*
X204049750Y-88199502D01*
X203956569Y-88292683D01*
X203956567Y-88292686D01*
X203890675Y-88406812D01*
X203874711Y-88466392D01*
X203856567Y-88534108D01*
X199014883Y-88534108D01*
X199003835Y-88492877D01*
X198937943Y-88378749D01*
X198844757Y-88285563D01*
X198787693Y-88252617D01*
X198730630Y-88219671D01*
X198665157Y-88202128D01*
X198603335Y-88185563D01*
X198471551Y-88185563D01*
X198344257Y-88219671D01*
X198344256Y-88219671D01*
X198344254Y-88219672D01*
X198344253Y-88219672D01*
X198256500Y-88270337D01*
X198188600Y-88286810D01*
X198122573Y-88263957D01*
X198079382Y-88209036D01*
X198076852Y-88202128D01*
X198070500Y-88183053D01*
X198070500Y-88164108D01*
X198036392Y-88036814D01*
X197977095Y-87934108D01*
X211799500Y-87934108D01*
X211799500Y-88065892D01*
X211808505Y-88099500D01*
X211833608Y-88193187D01*
X211866554Y-88250250D01*
X211899500Y-88307314D01*
X211992686Y-88400500D01*
X212106814Y-88466392D01*
X212234108Y-88500500D01*
X212234110Y-88500500D01*
X212365890Y-88500500D01*
X212365892Y-88500500D01*
X212493186Y-88466392D01*
X212607314Y-88400500D01*
X212700500Y-88307314D01*
X212766392Y-88193186D01*
X212780225Y-88141556D01*
X212816590Y-88081897D01*
X212879436Y-88051368D01*
X212948812Y-88059662D01*
X213002690Y-88104147D01*
X213019773Y-88141555D01*
X213025817Y-88164108D01*
X213033608Y-88193187D01*
X213066554Y-88250250D01*
X213099500Y-88307314D01*
X213192686Y-88400500D01*
X213306814Y-88466392D01*
X213434108Y-88500500D01*
X213434110Y-88500500D01*
X213565890Y-88500500D01*
X213565892Y-88500500D01*
X213693186Y-88466392D01*
X213807314Y-88400500D01*
X213900500Y-88307314D01*
X213966392Y-88193186D01*
X214000500Y-88065892D01*
X214000500Y-87934108D01*
X213966392Y-87806814D01*
X213900500Y-87692686D01*
X213807314Y-87599500D01*
X213693186Y-87533608D01*
X213693185Y-87533607D01*
X213686147Y-87529544D01*
X213687618Y-87526994D01*
X213644212Y-87492003D01*
X213622158Y-87425705D01*
X213639449Y-87358009D01*
X213684079Y-87313914D01*
X213707314Y-87300500D01*
X213800500Y-87207314D01*
X213866392Y-87093186D01*
X213900500Y-86965892D01*
X213900500Y-86834108D01*
X213866392Y-86706814D01*
X213800500Y-86592686D01*
X213707314Y-86499500D01*
X213643635Y-86462735D01*
X213593187Y-86433608D01*
X213527061Y-86415890D01*
X213465892Y-86399500D01*
X213334108Y-86399500D01*
X213206812Y-86433608D01*
X213092686Y-86499500D01*
X213092683Y-86499502D01*
X212999502Y-86592683D01*
X212999500Y-86592686D01*
X212933608Y-86706812D01*
X212904247Y-86816391D01*
X212899500Y-86834108D01*
X212899500Y-86965892D01*
X212903414Y-86980499D01*
X212933608Y-87093187D01*
X212966554Y-87150250D01*
X212999500Y-87207314D01*
X213092686Y-87300500D01*
X213202210Y-87363734D01*
X213213853Y-87370456D01*
X213212378Y-87373009D01*
X213255770Y-87407971D01*
X213277840Y-87474264D01*
X213260565Y-87541965D01*
X213215920Y-87586085D01*
X213192692Y-87599496D01*
X213192683Y-87599502D01*
X213099502Y-87692683D01*
X213099500Y-87692686D01*
X213033608Y-87806812D01*
X213019775Y-87858441D01*
X212983410Y-87918102D01*
X212920563Y-87948631D01*
X212851188Y-87940336D01*
X212797310Y-87895851D01*
X212780225Y-87858441D01*
X212772471Y-87829502D01*
X212766392Y-87806814D01*
X212700500Y-87692686D01*
X212607314Y-87599500D01*
X212507661Y-87541965D01*
X212493187Y-87533608D01*
X212429539Y-87516554D01*
X212365892Y-87499500D01*
X212234108Y-87499500D01*
X212106812Y-87533608D01*
X211992686Y-87599500D01*
X211992683Y-87599502D01*
X211899502Y-87692683D01*
X211899500Y-87692686D01*
X211833608Y-87806812D01*
X211809751Y-87895851D01*
X211799500Y-87934108D01*
X197977095Y-87934108D01*
X197970500Y-87922686D01*
X197877314Y-87829500D01*
X197820250Y-87796554D01*
X197763187Y-87763608D01*
X197699539Y-87746554D01*
X197635892Y-87729500D01*
X197504108Y-87729500D01*
X197376812Y-87763608D01*
X197262686Y-87829500D01*
X197262683Y-87829502D01*
X197169502Y-87922683D01*
X197169500Y-87922686D01*
X197103608Y-88036812D01*
X197091528Y-88081897D01*
X197069500Y-88164108D01*
X151390500Y-88164108D01*
X151390500Y-85885258D01*
X161249500Y-85885258D01*
X161249500Y-86114741D01*
X161268655Y-86260228D01*
X161279452Y-86342238D01*
X161333295Y-86543186D01*
X161338842Y-86563887D01*
X161426650Y-86775876D01*
X161426657Y-86775890D01*
X161541392Y-86974617D01*
X161681081Y-87156661D01*
X161681089Y-87156670D01*
X161843330Y-87318911D01*
X161843338Y-87318918D01*
X162025382Y-87458607D01*
X162025385Y-87458608D01*
X162025388Y-87458611D01*
X162224112Y-87573344D01*
X162224117Y-87573346D01*
X162224123Y-87573349D01*
X162315480Y-87611190D01*
X162436113Y-87661158D01*
X162657762Y-87720548D01*
X162885266Y-87750500D01*
X162885273Y-87750500D01*
X163114727Y-87750500D01*
X163114734Y-87750500D01*
X163342238Y-87720548D01*
X163563887Y-87661158D01*
X163775888Y-87573344D01*
X163974612Y-87458611D01*
X164156661Y-87318919D01*
X164156665Y-87318914D01*
X164156670Y-87318911D01*
X164318911Y-87156670D01*
X164318914Y-87156665D01*
X164318919Y-87156661D01*
X164458611Y-86974612D01*
X164560957Y-86797343D01*
X194862735Y-86797343D01*
X194862735Y-86929126D01*
X194896843Y-87056422D01*
X194910744Y-87080499D01*
X194962735Y-87170549D01*
X195055921Y-87263735D01*
X195170049Y-87329627D01*
X195297343Y-87363735D01*
X195297345Y-87363735D01*
X195429125Y-87363735D01*
X195429127Y-87363735D01*
X195556421Y-87329627D01*
X195670549Y-87263735D01*
X195763735Y-87170549D01*
X195829627Y-87056421D01*
X195863735Y-86929127D01*
X195863735Y-86797343D01*
X195829627Y-86670049D01*
X195773393Y-86572649D01*
X195756921Y-86504752D01*
X195779773Y-86438725D01*
X195793100Y-86422970D01*
X195816570Y-86399500D01*
X195841714Y-86374356D01*
X195893819Y-86284108D01*
X197099500Y-86284108D01*
X197099500Y-86415892D01*
X197112051Y-86462735D01*
X197133608Y-86543187D01*
X197150620Y-86572652D01*
X197199500Y-86657314D01*
X197292686Y-86750500D01*
X197406814Y-86816392D01*
X197534108Y-86850500D01*
X197534110Y-86850500D01*
X197665890Y-86850500D01*
X197665892Y-86850500D01*
X197793186Y-86816392D01*
X197907314Y-86750500D01*
X198000500Y-86657314D01*
X198066392Y-86543186D01*
X198074183Y-86514108D01*
X204009500Y-86514108D01*
X204009500Y-86645892D01*
X204012561Y-86657316D01*
X204043608Y-86773187D01*
X204045169Y-86775890D01*
X204109500Y-86887314D01*
X204202686Y-86980500D01*
X204316814Y-87046392D01*
X204444108Y-87080500D01*
X204444110Y-87080500D01*
X204575890Y-87080500D01*
X204575892Y-87080500D01*
X204703186Y-87046392D01*
X204817314Y-86980500D01*
X204910500Y-86887314D01*
X204976392Y-86773186D01*
X205010500Y-86645892D01*
X205010500Y-86514108D01*
X204976392Y-86386814D01*
X204910500Y-86272686D01*
X204817314Y-86179500D01*
X204736656Y-86132932D01*
X204703187Y-86113608D01*
X204639539Y-86096554D01*
X204575892Y-86079500D01*
X204444108Y-86079500D01*
X204316812Y-86113608D01*
X204202686Y-86179500D01*
X204202683Y-86179502D01*
X204109502Y-86272683D01*
X204109500Y-86272686D01*
X204043608Y-86386812D01*
X204014801Y-86494324D01*
X204009500Y-86514108D01*
X198074183Y-86514108D01*
X198100500Y-86415892D01*
X198100500Y-86284108D01*
X198066392Y-86156814D01*
X198000500Y-86042686D01*
X197907314Y-85949500D01*
X197846013Y-85914108D01*
X202099500Y-85914108D01*
X202099500Y-86045891D01*
X202133608Y-86173187D01*
X202166554Y-86230250D01*
X202199500Y-86287314D01*
X202292686Y-86380500D01*
X202353987Y-86415892D01*
X202406810Y-86446390D01*
X202406814Y-86446392D01*
X202534108Y-86480500D01*
X202534110Y-86480500D01*
X202665890Y-86480500D01*
X202665892Y-86480500D01*
X202793186Y-86446392D01*
X202907314Y-86380500D01*
X203000500Y-86287314D01*
X203066392Y-86173186D01*
X203100500Y-86045892D01*
X203100500Y-85914108D01*
X203066392Y-85786814D01*
X203000500Y-85672686D01*
X202907314Y-85579500D01*
X202850250Y-85546554D01*
X202794053Y-85514108D01*
X210449500Y-85514108D01*
X210449500Y-85645892D01*
X210459224Y-85682183D01*
X210483608Y-85773187D01*
X210516554Y-85830250D01*
X210549500Y-85887314D01*
X210642686Y-85980500D01*
X210741521Y-86037563D01*
X210755944Y-86045890D01*
X210756814Y-86046392D01*
X210884108Y-86080500D01*
X210884110Y-86080500D01*
X211015890Y-86080500D01*
X211015892Y-86080500D01*
X211143186Y-86046392D01*
X211257314Y-85980500D01*
X211350500Y-85887314D01*
X211416392Y-85773186D01*
X211450500Y-85645892D01*
X211450500Y-85514108D01*
X211416392Y-85386814D01*
X211350500Y-85272686D01*
X211257314Y-85179500D01*
X211200250Y-85146554D01*
X211143187Y-85113608D01*
X211065092Y-85092683D01*
X211015892Y-85079500D01*
X210884108Y-85079500D01*
X210756812Y-85113608D01*
X210642686Y-85179500D01*
X210642683Y-85179502D01*
X210549502Y-85272683D01*
X210549500Y-85272686D01*
X210483608Y-85386812D01*
X210462419Y-85465892D01*
X210449500Y-85514108D01*
X202794053Y-85514108D01*
X202793187Y-85513608D01*
X202729539Y-85496554D01*
X202665892Y-85479500D01*
X202534108Y-85479500D01*
X202406812Y-85513608D01*
X202292686Y-85579500D01*
X202292683Y-85579502D01*
X202199502Y-85672683D01*
X202199500Y-85672686D01*
X202133608Y-85786812D01*
X202099500Y-85914108D01*
X197846013Y-85914108D01*
X197822442Y-85900499D01*
X197793187Y-85883608D01*
X197728931Y-85866391D01*
X197665892Y-85849500D01*
X197534108Y-85849500D01*
X197406812Y-85883608D01*
X197292686Y-85949500D01*
X197292683Y-85949502D01*
X197199502Y-86042683D01*
X197199500Y-86042686D01*
X197133608Y-86156812D01*
X197105898Y-86260229D01*
X197099500Y-86284108D01*
X195893819Y-86284108D01*
X195907606Y-86260228D01*
X195941714Y-86132934D01*
X195941714Y-86001150D01*
X195907606Y-85873856D01*
X195841714Y-85759728D01*
X195841712Y-85759726D01*
X195837650Y-85752690D01*
X195840053Y-85751302D01*
X195819731Y-85698769D01*
X195833755Y-85630321D01*
X195855613Y-85600749D01*
X195881041Y-85575322D01*
X195946933Y-85461194D01*
X195981041Y-85333900D01*
X195981041Y-85202116D01*
X195946933Y-85074822D01*
X195881041Y-84960694D01*
X195787855Y-84867508D01*
X195730791Y-84834562D01*
X195673728Y-84801616D01*
X195610080Y-84784562D01*
X195546433Y-84767508D01*
X195414649Y-84767508D01*
X195287353Y-84801616D01*
X195173227Y-84867508D01*
X195173224Y-84867510D01*
X195080043Y-84960691D01*
X195080041Y-84960694D01*
X195014149Y-85074820D01*
X195009363Y-85092683D01*
X194980041Y-85202116D01*
X194980041Y-85333900D01*
X194990634Y-85373433D01*
X195014149Y-85461195D01*
X195016861Y-85465892D01*
X195080041Y-85575322D01*
X195080042Y-85575323D01*
X195084105Y-85582360D01*
X195081701Y-85583747D01*
X195102023Y-85636288D01*
X195087995Y-85704735D01*
X195066138Y-85734304D01*
X195040714Y-85759728D01*
X194974822Y-85873854D01*
X194964036Y-85914110D01*
X194940714Y-86001150D01*
X194940714Y-86132934D01*
X194970443Y-86243887D01*
X194974823Y-86260230D01*
X194974823Y-86260231D01*
X195031054Y-86357626D01*
X195047527Y-86425526D01*
X195024674Y-86491553D01*
X195011349Y-86507306D01*
X194962738Y-86555917D01*
X194962735Y-86555921D01*
X194896843Y-86670047D01*
X194862735Y-86797343D01*
X164560957Y-86797343D01*
X164573344Y-86775888D01*
X164583861Y-86750499D01*
X164587479Y-86741764D01*
X164587479Y-86741763D01*
X164617184Y-86670049D01*
X164661158Y-86563887D01*
X164720548Y-86342238D01*
X164750500Y-86114734D01*
X164750500Y-85885266D01*
X164720548Y-85657762D01*
X164661158Y-85436113D01*
X164618906Y-85334108D01*
X188299500Y-85334108D01*
X188299500Y-85465891D01*
X188333608Y-85593187D01*
X188355048Y-85630321D01*
X188399500Y-85707314D01*
X188492686Y-85800500D01*
X188606814Y-85866392D01*
X188734108Y-85900500D01*
X188734110Y-85900500D01*
X188865890Y-85900500D01*
X188865892Y-85900500D01*
X188993186Y-85866392D01*
X189107314Y-85800500D01*
X189200500Y-85707314D01*
X189266392Y-85593186D01*
X189300500Y-85465892D01*
X189300500Y-85334108D01*
X189266392Y-85206814D01*
X189200500Y-85092686D01*
X189107314Y-84999500D01*
X189040095Y-84960691D01*
X188993187Y-84933608D01*
X188929539Y-84916554D01*
X188865892Y-84899500D01*
X188734108Y-84899500D01*
X188606812Y-84933608D01*
X188492686Y-84999500D01*
X188492683Y-84999502D01*
X188399502Y-85092683D01*
X188399500Y-85092686D01*
X188333608Y-85206812D01*
X188299500Y-85334108D01*
X164618906Y-85334108D01*
X164618820Y-85333900D01*
X164573349Y-85224123D01*
X164573346Y-85224117D01*
X164573344Y-85224112D01*
X164458611Y-85025388D01*
X164458608Y-85025385D01*
X164458607Y-85025382D01*
X164318918Y-84843338D01*
X164318911Y-84843330D01*
X164156670Y-84681089D01*
X164156661Y-84681081D01*
X163974617Y-84541392D01*
X163775890Y-84426657D01*
X163775876Y-84426650D01*
X163563887Y-84338842D01*
X163342238Y-84279452D01*
X163304215Y-84274446D01*
X163114741Y-84249500D01*
X163114734Y-84249500D01*
X162885266Y-84249500D01*
X162885258Y-84249500D01*
X162668715Y-84278009D01*
X162657762Y-84279452D01*
X162564076Y-84304554D01*
X162436112Y-84338842D01*
X162224123Y-84426650D01*
X162224109Y-84426657D01*
X162025382Y-84541392D01*
X161843338Y-84681081D01*
X161681081Y-84843338D01*
X161541392Y-85025382D01*
X161426657Y-85224109D01*
X161426650Y-85224123D01*
X161338842Y-85436112D01*
X161317943Y-85514110D01*
X161289874Y-85618868D01*
X161279453Y-85657759D01*
X161279451Y-85657770D01*
X161249500Y-85885258D01*
X151390500Y-85885258D01*
X151390500Y-81524108D01*
X179809500Y-81524108D01*
X179809500Y-81655892D01*
X179821093Y-81699158D01*
X179843608Y-81783187D01*
X179871178Y-81830938D01*
X179909500Y-81897314D01*
X179909502Y-81897316D01*
X179984505Y-81972319D01*
X180017990Y-82033642D01*
X180013006Y-82103334D01*
X179984505Y-82147681D01*
X179909502Y-82222683D01*
X179909500Y-82222686D01*
X179843608Y-82336812D01*
X179809500Y-82464108D01*
X179809500Y-82595891D01*
X179843608Y-82723187D01*
X179876554Y-82780250D01*
X179909500Y-82837314D01*
X179909502Y-82837316D01*
X179984505Y-82912319D01*
X180017990Y-82973642D01*
X180013006Y-83043334D01*
X179984505Y-83087681D01*
X179939502Y-83132683D01*
X179939500Y-83132686D01*
X179873608Y-83246812D01*
X179839500Y-83374108D01*
X179839500Y-83505891D01*
X179873608Y-83633187D01*
X179906554Y-83690250D01*
X179939500Y-83747314D01*
X180032686Y-83840500D01*
X180146814Y-83906392D01*
X180274108Y-83940500D01*
X180274110Y-83940500D01*
X180405890Y-83940500D01*
X180405892Y-83940500D01*
X180533186Y-83906392D01*
X180647314Y-83840500D01*
X180740500Y-83747314D01*
X180806392Y-83633186D01*
X180814374Y-83603393D01*
X180850738Y-83543734D01*
X180913585Y-83513204D01*
X180966242Y-83515712D01*
X180984108Y-83520500D01*
X180984110Y-83520500D01*
X181115890Y-83520500D01*
X181115892Y-83520500D01*
X181243186Y-83486392D01*
X181357314Y-83420500D01*
X181367567Y-83410247D01*
X216479500Y-83410247D01*
X216479500Y-85449752D01*
X216491131Y-85508229D01*
X216491132Y-85508230D01*
X216535447Y-85574552D01*
X216601769Y-85618867D01*
X216601770Y-85618868D01*
X216660247Y-85630499D01*
X216660250Y-85630500D01*
X216660252Y-85630500D01*
X218699750Y-85630500D01*
X218699751Y-85630499D01*
X218714568Y-85627552D01*
X218758229Y-85618868D01*
X218758229Y-85618867D01*
X218758231Y-85618867D01*
X218824552Y-85574552D01*
X218868867Y-85508231D01*
X218868867Y-85508229D01*
X218868868Y-85508229D01*
X218880499Y-85449752D01*
X218880500Y-85449750D01*
X218880500Y-83410249D01*
X218880499Y-83410247D01*
X218868868Y-83351770D01*
X218868867Y-83351769D01*
X218824552Y-83285447D01*
X218758230Y-83241132D01*
X218758229Y-83241131D01*
X218699752Y-83229500D01*
X218699748Y-83229500D01*
X216660252Y-83229500D01*
X216660247Y-83229500D01*
X216601770Y-83241131D01*
X216601769Y-83241132D01*
X216535447Y-83285447D01*
X216491132Y-83351769D01*
X216491131Y-83351770D01*
X216479500Y-83410247D01*
X181367567Y-83410247D01*
X181450500Y-83327314D01*
X181516392Y-83213186D01*
X181550500Y-83085892D01*
X181550500Y-82954108D01*
X181516392Y-82826814D01*
X181450500Y-82712686D01*
X181360495Y-82622681D01*
X181327010Y-82561358D01*
X181331994Y-82491666D01*
X181360495Y-82447319D01*
X181450500Y-82357314D01*
X181516392Y-82243186D01*
X181550500Y-82115892D01*
X181550500Y-81984108D01*
X181516392Y-81856814D01*
X181450500Y-81742686D01*
X181405495Y-81697681D01*
X181372010Y-81636358D01*
X181376994Y-81566666D01*
X181405495Y-81522319D01*
X181415591Y-81512223D01*
X181430500Y-81497314D01*
X181496392Y-81383186D01*
X181530500Y-81255892D01*
X181530500Y-81124108D01*
X181522462Y-81094108D01*
X188879500Y-81094108D01*
X188879500Y-81225892D01*
X188889858Y-81264548D01*
X188913608Y-81353187D01*
X188938797Y-81396814D01*
X188979500Y-81467314D01*
X189072686Y-81560500D01*
X189186814Y-81626392D01*
X189314108Y-81660500D01*
X189314110Y-81660500D01*
X189445890Y-81660500D01*
X189445892Y-81660500D01*
X189573186Y-81626392D01*
X189687314Y-81560500D01*
X189780500Y-81467314D01*
X189846392Y-81353186D01*
X189880500Y-81225892D01*
X189880500Y-81094108D01*
X189846392Y-80966814D01*
X189792868Y-80874108D01*
X195329500Y-80874108D01*
X195329500Y-81005892D01*
X195341185Y-81049500D01*
X195363608Y-81133187D01*
X195369819Y-81143944D01*
X195429500Y-81247314D01*
X195522686Y-81340500D01*
X195636814Y-81406392D01*
X195764108Y-81440500D01*
X195764110Y-81440500D01*
X195895890Y-81440500D01*
X195895892Y-81440500D01*
X196023186Y-81406392D01*
X196061783Y-81384108D01*
X198369500Y-81384108D01*
X198369500Y-81515892D01*
X198381452Y-81560497D01*
X198403608Y-81643187D01*
X198413604Y-81660500D01*
X198469500Y-81757314D01*
X198562686Y-81850500D01*
X198676814Y-81916392D01*
X198804108Y-81950500D01*
X198804110Y-81950500D01*
X198935889Y-81950500D01*
X198935892Y-81950500D01*
X199015985Y-81929039D01*
X199085831Y-81930702D01*
X199143693Y-81969864D01*
X199155462Y-81986813D01*
X199204854Y-82072362D01*
X199298040Y-82165548D01*
X199412168Y-82231440D01*
X199539462Y-82265548D01*
X199539464Y-82265548D01*
X199671244Y-82265548D01*
X199671246Y-82265548D01*
X199798540Y-82231440D01*
X199912668Y-82165548D01*
X200005854Y-82072362D01*
X200071746Y-81958234D01*
X200105854Y-81830940D01*
X200105854Y-81699156D01*
X200089874Y-81639519D01*
X201569500Y-81639519D01*
X201569500Y-81771302D01*
X201603608Y-81898598D01*
X201622144Y-81930702D01*
X201669500Y-82012725D01*
X201762686Y-82105911D01*
X201876814Y-82171803D01*
X202004108Y-82205911D01*
X202004110Y-82205911D01*
X202135890Y-82205911D01*
X202135892Y-82205911D01*
X202263186Y-82171803D01*
X202377314Y-82105911D01*
X202470500Y-82012725D01*
X202536392Y-81898597D01*
X202570500Y-81771303D01*
X202570500Y-81639519D01*
X202536392Y-81512225D01*
X202470500Y-81398097D01*
X202377314Y-81304911D01*
X202320250Y-81271965D01*
X202263187Y-81239019D01*
X202194068Y-81220499D01*
X202135892Y-81204911D01*
X202004108Y-81204911D01*
X201876812Y-81239019D01*
X201762686Y-81304911D01*
X201762683Y-81304913D01*
X201669502Y-81398094D01*
X201669500Y-81398097D01*
X201603608Y-81512223D01*
X201569500Y-81639519D01*
X200089874Y-81639519D01*
X200071746Y-81571862D01*
X200005854Y-81457734D01*
X199912668Y-81364548D01*
X199854454Y-81330938D01*
X199798541Y-81298656D01*
X199734893Y-81281602D01*
X199671246Y-81264548D01*
X199539462Y-81264548D01*
X199539460Y-81264548D01*
X199459369Y-81286008D01*
X199389519Y-81284345D01*
X199331657Y-81245182D01*
X199319894Y-81228239D01*
X199270500Y-81142686D01*
X199177314Y-81049500D01*
X199101783Y-81005892D01*
X199063187Y-80983608D01*
X198999539Y-80966554D01*
X198935892Y-80949500D01*
X198804108Y-80949500D01*
X198676812Y-80983608D01*
X198562686Y-81049500D01*
X198562683Y-81049502D01*
X198469502Y-81142683D01*
X198469500Y-81142686D01*
X198403608Y-81256812D01*
X198369747Y-81383186D01*
X198369500Y-81384108D01*
X196061783Y-81384108D01*
X196137314Y-81340500D01*
X196230500Y-81247314D01*
X196265419Y-81186832D01*
X196270212Y-81180542D01*
X196292236Y-81164344D01*
X196312024Y-81145477D01*
X196319975Y-81143944D01*
X196326499Y-81139147D01*
X196353781Y-81137428D01*
X196380631Y-81132253D01*
X196389734Y-81135163D01*
X196396230Y-81134754D01*
X196406698Y-81140586D01*
X196430845Y-81148305D01*
X196458626Y-81164344D01*
X196496814Y-81186392D01*
X196624108Y-81220500D01*
X196624110Y-81220500D01*
X196755890Y-81220500D01*
X196755892Y-81220500D01*
X196883186Y-81186392D01*
X196997314Y-81120500D01*
X197090500Y-81027314D01*
X197156392Y-80913186D01*
X197190500Y-80785892D01*
X197190500Y-80654108D01*
X197156392Y-80526814D01*
X197090500Y-80412686D01*
X196997314Y-80319500D01*
X196940250Y-80286554D01*
X196883187Y-80253608D01*
X196819539Y-80236554D01*
X196755892Y-80219500D01*
X196624108Y-80219500D01*
X196496812Y-80253608D01*
X196382686Y-80319500D01*
X196382683Y-80319502D01*
X196289502Y-80412683D01*
X196289496Y-80412692D01*
X196258540Y-80466308D01*
X196207973Y-80514523D01*
X196139366Y-80527745D01*
X196089154Y-80511694D01*
X196023189Y-80473609D01*
X196023186Y-80473608D01*
X195895892Y-80439500D01*
X195764108Y-80439500D01*
X195636812Y-80473608D01*
X195522686Y-80539500D01*
X195522683Y-80539502D01*
X195429502Y-80632683D01*
X195429500Y-80632686D01*
X195363608Y-80746812D01*
X195353137Y-80785891D01*
X195329500Y-80874108D01*
X189792868Y-80874108D01*
X189780500Y-80852686D01*
X189687314Y-80759500D01*
X189625147Y-80723608D01*
X189573187Y-80693608D01*
X189509539Y-80676554D01*
X189445892Y-80659500D01*
X189314108Y-80659500D01*
X189186812Y-80693608D01*
X189072686Y-80759500D01*
X189072683Y-80759502D01*
X188979502Y-80852683D01*
X188979500Y-80852686D01*
X188913608Y-80966812D01*
X188891452Y-81049502D01*
X188879500Y-81094108D01*
X181522462Y-81094108D01*
X181496392Y-80996814D01*
X181488767Y-80983608D01*
X181469075Y-80949500D01*
X181430500Y-80882686D01*
X181337314Y-80789500D01*
X181263380Y-80746814D01*
X181223187Y-80723608D01*
X181111223Y-80693608D01*
X181095892Y-80689500D01*
X180964108Y-80689500D01*
X180836812Y-80723608D01*
X180722686Y-80789500D01*
X180722683Y-80789502D01*
X180629502Y-80882683D01*
X180629500Y-80882686D01*
X180563608Y-80996812D01*
X180559954Y-81010450D01*
X180523586Y-81070109D01*
X180460738Y-81100636D01*
X180408089Y-81098127D01*
X180375892Y-81089500D01*
X180244108Y-81089500D01*
X180116812Y-81123608D01*
X180002686Y-81189500D01*
X180002683Y-81189502D01*
X179909502Y-81282683D01*
X179909500Y-81282686D01*
X179843608Y-81396812D01*
X179812684Y-81512225D01*
X179809500Y-81524108D01*
X151390500Y-81524108D01*
X151390500Y-79684108D01*
X188649500Y-79684108D01*
X188649500Y-79815891D01*
X188683608Y-79943187D01*
X188714858Y-79997313D01*
X188749500Y-80057314D01*
X188842686Y-80150500D01*
X188956814Y-80216392D01*
X189084108Y-80250500D01*
X189084110Y-80250500D01*
X189215890Y-80250500D01*
X189215892Y-80250500D01*
X189343186Y-80216392D01*
X189457314Y-80150500D01*
X189550500Y-80057314D01*
X189616392Y-79943186D01*
X189650500Y-79815892D01*
X189650500Y-79684108D01*
X189634423Y-79624108D01*
X200099500Y-79624108D01*
X200099500Y-79755892D01*
X200105106Y-79776814D01*
X200133608Y-79883187D01*
X200166554Y-79940250D01*
X200199500Y-79997314D01*
X200292686Y-80090500D01*
X200391521Y-80147563D01*
X200396603Y-80150497D01*
X200406814Y-80156392D01*
X200534108Y-80190500D01*
X200534110Y-80190500D01*
X200665890Y-80190500D01*
X200665892Y-80190500D01*
X200793186Y-80156392D01*
X200907314Y-80090500D01*
X201000500Y-79997314D01*
X201054313Y-79904108D01*
X201479500Y-79904108D01*
X201479500Y-80035892D01*
X201494131Y-80090497D01*
X201513608Y-80163187D01*
X201544326Y-80216391D01*
X201579500Y-80277314D01*
X201672686Y-80370500D01*
X201786814Y-80436392D01*
X201914108Y-80470500D01*
X201914110Y-80470500D01*
X202045890Y-80470500D01*
X202045892Y-80470500D01*
X202173186Y-80436392D01*
X202287314Y-80370500D01*
X202380500Y-80277314D01*
X202446392Y-80163186D01*
X202480500Y-80035892D01*
X202480500Y-79904108D01*
X202446392Y-79776814D01*
X202380500Y-79662686D01*
X202287314Y-79569500D01*
X202230250Y-79536554D01*
X202173187Y-79503608D01*
X202109539Y-79486554D01*
X202045892Y-79469500D01*
X201914108Y-79469500D01*
X201786812Y-79503608D01*
X201672686Y-79569500D01*
X201672683Y-79569502D01*
X201579502Y-79662683D01*
X201579500Y-79662686D01*
X201513608Y-79776812D01*
X201503137Y-79815891D01*
X201479500Y-79904108D01*
X201054313Y-79904108D01*
X201066392Y-79883186D01*
X201100500Y-79755892D01*
X201100500Y-79624108D01*
X201066392Y-79496814D01*
X201000500Y-79382686D01*
X200907314Y-79289500D01*
X200822439Y-79240497D01*
X200793187Y-79223608D01*
X200729539Y-79206554D01*
X200665892Y-79189500D01*
X200534108Y-79189500D01*
X200406812Y-79223608D01*
X200292686Y-79289500D01*
X200292683Y-79289502D01*
X200199502Y-79382683D01*
X200199500Y-79382686D01*
X200133608Y-79496812D01*
X200117531Y-79556814D01*
X200099500Y-79624108D01*
X189634423Y-79624108D01*
X189616392Y-79556814D01*
X189550500Y-79442686D01*
X189457314Y-79349500D01*
X189382649Y-79306392D01*
X189343187Y-79283608D01*
X189279539Y-79266554D01*
X189215892Y-79249500D01*
X189084108Y-79249500D01*
X188956812Y-79283608D01*
X188842686Y-79349500D01*
X188842683Y-79349502D01*
X188749502Y-79442683D01*
X188749500Y-79442686D01*
X188683608Y-79556812D01*
X188649500Y-79684108D01*
X151390500Y-79684108D01*
X151390500Y-78984108D01*
X192119500Y-78984108D01*
X192119500Y-79115892D01*
X192127920Y-79147316D01*
X192153608Y-79243187D01*
X192157253Y-79249500D01*
X192219500Y-79357314D01*
X192312686Y-79450500D01*
X192392901Y-79496812D01*
X192426810Y-79516390D01*
X192426814Y-79516392D01*
X192554108Y-79550500D01*
X192554110Y-79550500D01*
X192685890Y-79550500D01*
X192685892Y-79550500D01*
X192813186Y-79516392D01*
X192815042Y-79515320D01*
X192826692Y-79508595D01*
X192826693Y-79508594D01*
X192847099Y-79496812D01*
X192927314Y-79450500D01*
X193020500Y-79357314D01*
X193086392Y-79243186D01*
X193120500Y-79115892D01*
X193120500Y-78984108D01*
X193086392Y-78856814D01*
X193086390Y-78856810D01*
X193069747Y-78827983D01*
X193069746Y-78827982D01*
X193057813Y-78807314D01*
X193038642Y-78774108D01*
X194519500Y-78774108D01*
X194519500Y-78905891D01*
X194553608Y-79033187D01*
X194586554Y-79090250D01*
X194619500Y-79147314D01*
X194712686Y-79240500D01*
X194826814Y-79306392D01*
X194954108Y-79340500D01*
X194954110Y-79340500D01*
X195085890Y-79340500D01*
X195085892Y-79340500D01*
X195213186Y-79306392D01*
X195327314Y-79240500D01*
X195420500Y-79147314D01*
X195486392Y-79033186D01*
X195520500Y-78905892D01*
X195520500Y-78774108D01*
X195486392Y-78646814D01*
X195486390Y-78646810D01*
X195429331Y-78547981D01*
X195426185Y-78542533D01*
X195420500Y-78532686D01*
X195381922Y-78494108D01*
X201579500Y-78494108D01*
X201579500Y-78625892D01*
X201585106Y-78646814D01*
X201613608Y-78753187D01*
X201644858Y-78807313D01*
X201679500Y-78867314D01*
X201772686Y-78960500D01*
X201886814Y-79026392D01*
X202014108Y-79060500D01*
X202014110Y-79060500D01*
X202145890Y-79060500D01*
X202145892Y-79060500D01*
X202273186Y-79026392D01*
X202387314Y-78960500D01*
X202480500Y-78867314D01*
X202546392Y-78753186D01*
X202546392Y-78753184D01*
X202549933Y-78747052D01*
X202600500Y-78698836D01*
X202669107Y-78685613D01*
X202733972Y-78711581D01*
X202764707Y-78747051D01*
X202799500Y-78807314D01*
X202892686Y-78900500D01*
X202991521Y-78957563D01*
X202996603Y-78960497D01*
X203006814Y-78966392D01*
X203134108Y-79000500D01*
X203134110Y-79000500D01*
X203265890Y-79000500D01*
X203265892Y-79000500D01*
X203393186Y-78966392D01*
X203507314Y-78900500D01*
X203600500Y-78807314D01*
X203666392Y-78693186D01*
X203700500Y-78565892D01*
X203700500Y-78434108D01*
X203666392Y-78306814D01*
X203600500Y-78192686D01*
X203507314Y-78099500D01*
X203416929Y-78047316D01*
X203393187Y-78033608D01*
X203329539Y-78016554D01*
X203265892Y-77999500D01*
X203134108Y-77999500D01*
X203006812Y-78033608D01*
X202892686Y-78099500D01*
X202892683Y-78099502D01*
X202799502Y-78192683D01*
X202799500Y-78192686D01*
X202730066Y-78312948D01*
X202679498Y-78361163D01*
X202610891Y-78374385D01*
X202546027Y-78348417D01*
X202515292Y-78312947D01*
X202496558Y-78280499D01*
X202480500Y-78252686D01*
X202387314Y-78159500D01*
X202330250Y-78126554D01*
X202273187Y-78093608D01*
X202196969Y-78073186D01*
X202145892Y-78059500D01*
X202014108Y-78059500D01*
X201886812Y-78093608D01*
X201772686Y-78159500D01*
X201772683Y-78159502D01*
X201679502Y-78252683D01*
X201679500Y-78252686D01*
X201613608Y-78366812D01*
X201595577Y-78434108D01*
X201579500Y-78494108D01*
X195381922Y-78494108D01*
X195327314Y-78439500D01*
X195270250Y-78406554D01*
X195213187Y-78373608D01*
X195119171Y-78348417D01*
X195085892Y-78339500D01*
X194954108Y-78339500D01*
X194826812Y-78373608D01*
X194712686Y-78439500D01*
X194712683Y-78439502D01*
X194619502Y-78532683D01*
X194619500Y-78532686D01*
X194553608Y-78646812D01*
X194519500Y-78774108D01*
X193038642Y-78774108D01*
X193020500Y-78742686D01*
X192927314Y-78649500D01*
X192870250Y-78616554D01*
X192813187Y-78583608D01*
X192747061Y-78565890D01*
X192685892Y-78549500D01*
X192554108Y-78549500D01*
X192426812Y-78583608D01*
X192312686Y-78649500D01*
X192312683Y-78649502D01*
X192219502Y-78742683D01*
X192219500Y-78742686D01*
X192153608Y-78856812D01*
X192125826Y-78960497D01*
X192119500Y-78984108D01*
X151390500Y-78984108D01*
X151390500Y-77674108D01*
X186809500Y-77674108D01*
X186809500Y-77805892D01*
X186816580Y-77832314D01*
X186843608Y-77933187D01*
X186874568Y-77986810D01*
X186909500Y-78047314D01*
X187002686Y-78140500D01*
X187116814Y-78206392D01*
X187244108Y-78240500D01*
X187244110Y-78240500D01*
X187375890Y-78240500D01*
X187375892Y-78240500D01*
X187503186Y-78206392D01*
X187617314Y-78140500D01*
X187643706Y-78114108D01*
X189879500Y-78114108D01*
X189879500Y-78245892D01*
X189881321Y-78252689D01*
X189913608Y-78373187D01*
X189946554Y-78430250D01*
X189979500Y-78487314D01*
X190072686Y-78580500D01*
X190186814Y-78646392D01*
X190314108Y-78680500D01*
X190314110Y-78680500D01*
X190445890Y-78680500D01*
X190445892Y-78680500D01*
X190573186Y-78646392D01*
X190687314Y-78580500D01*
X190780500Y-78487314D01*
X190846392Y-78373186D01*
X190880500Y-78245892D01*
X190880500Y-78114108D01*
X190846392Y-77986814D01*
X190822764Y-77945890D01*
X190780503Y-77872691D01*
X190780502Y-77872690D01*
X190780500Y-77872686D01*
X190721922Y-77814108D01*
X193159500Y-77814108D01*
X193159500Y-77945891D01*
X193193608Y-78073187D01*
X193226554Y-78130250D01*
X193259500Y-78187314D01*
X193352686Y-78280500D01*
X193466814Y-78346392D01*
X193594108Y-78380500D01*
X193594110Y-78380500D01*
X193725890Y-78380500D01*
X193725892Y-78380500D01*
X193853186Y-78346392D01*
X193967314Y-78280500D01*
X194060500Y-78187314D01*
X194126392Y-78073186D01*
X194160500Y-77945892D01*
X194160500Y-77814108D01*
X194126392Y-77686814D01*
X194060500Y-77572686D01*
X193967314Y-77479500D01*
X193931994Y-77459108D01*
X197124500Y-77459108D01*
X197124500Y-77590891D01*
X197158608Y-77718187D01*
X197191554Y-77775250D01*
X197224500Y-77832314D01*
X197317686Y-77925500D01*
X197431814Y-77991392D01*
X197559108Y-78025500D01*
X197559110Y-78025500D01*
X197690890Y-78025500D01*
X197690892Y-78025500D01*
X197818186Y-77991392D01*
X197932314Y-77925500D01*
X198025500Y-77832314D01*
X198091392Y-77718186D01*
X198125500Y-77590892D01*
X198125500Y-77459108D01*
X198103821Y-77378200D01*
X198105484Y-77308354D01*
X198144646Y-77250491D01*
X198208875Y-77222987D01*
X198277777Y-77234573D01*
X198299086Y-77247737D01*
X198302680Y-77250494D01*
X198302686Y-77250500D01*
X198416814Y-77316392D01*
X198544108Y-77350500D01*
X198544110Y-77350500D01*
X198675890Y-77350500D01*
X198675892Y-77350500D01*
X198803186Y-77316392D01*
X198917314Y-77250500D01*
X199010500Y-77157314D01*
X199076392Y-77043186D01*
X199110500Y-76915892D01*
X199110500Y-76784108D01*
X199076392Y-76656814D01*
X199010500Y-76542686D01*
X198917314Y-76449500D01*
X198860250Y-76416554D01*
X198803187Y-76383608D01*
X198739539Y-76366554D01*
X198675892Y-76349500D01*
X198544108Y-76349500D01*
X198416812Y-76383608D01*
X198302686Y-76449500D01*
X198302683Y-76449502D01*
X198209502Y-76542683D01*
X198209500Y-76542686D01*
X198143608Y-76656812D01*
X198109500Y-76784108D01*
X198109500Y-76915891D01*
X198131178Y-76996796D01*
X198129515Y-77066646D01*
X198090352Y-77124508D01*
X198026123Y-77152012D01*
X197957221Y-77140425D01*
X197935914Y-77127263D01*
X197932314Y-77124500D01*
X197818187Y-77058608D01*
X197754539Y-77041554D01*
X197690892Y-77024500D01*
X197559108Y-77024500D01*
X197431812Y-77058608D01*
X197317686Y-77124500D01*
X197317683Y-77124502D01*
X197224502Y-77217683D01*
X197224500Y-77217686D01*
X197158608Y-77331812D01*
X197124500Y-77459108D01*
X193931994Y-77459108D01*
X193886225Y-77432683D01*
X193853187Y-77413608D01*
X193789539Y-77396554D01*
X193725892Y-77379500D01*
X193594108Y-77379500D01*
X193466812Y-77413608D01*
X193352686Y-77479500D01*
X193352683Y-77479502D01*
X193259502Y-77572683D01*
X193259500Y-77572686D01*
X193193608Y-77686812D01*
X193159500Y-77814108D01*
X190721922Y-77814108D01*
X190687314Y-77779500D01*
X190630250Y-77746554D01*
X190573187Y-77713608D01*
X190473188Y-77686814D01*
X190445892Y-77679500D01*
X190314108Y-77679500D01*
X190186812Y-77713608D01*
X190072686Y-77779500D01*
X190072683Y-77779502D01*
X189979502Y-77872683D01*
X189979500Y-77872686D01*
X189913608Y-77986812D01*
X189884993Y-78093608D01*
X189879500Y-78114108D01*
X187643706Y-78114108D01*
X187710500Y-78047314D01*
X187776392Y-77933186D01*
X187810500Y-77805892D01*
X187810500Y-77674108D01*
X187776392Y-77546814D01*
X187710500Y-77432686D01*
X187617314Y-77339500D01*
X187560250Y-77306554D01*
X187503187Y-77273608D01*
X187416937Y-77250498D01*
X187375892Y-77239500D01*
X187244108Y-77239500D01*
X187116812Y-77273608D01*
X187002686Y-77339500D01*
X187002683Y-77339502D01*
X186909502Y-77432683D01*
X186909500Y-77432686D01*
X186843608Y-77546812D01*
X186831797Y-77590892D01*
X186809500Y-77674108D01*
X151390500Y-77674108D01*
X151390500Y-74311304D01*
X153349500Y-74311304D01*
X153349500Y-74488695D01*
X153384103Y-74662658D01*
X153384106Y-74662667D01*
X153451983Y-74826540D01*
X153451990Y-74826553D01*
X153550535Y-74974034D01*
X153550538Y-74974038D01*
X153675961Y-75099461D01*
X153675965Y-75099464D01*
X153823446Y-75198009D01*
X153823459Y-75198016D01*
X153926024Y-75240499D01*
X153987334Y-75265894D01*
X153987336Y-75265894D01*
X153987341Y-75265896D01*
X154161304Y-75300499D01*
X154161307Y-75300500D01*
X154161309Y-75300500D01*
X154338693Y-75300500D01*
X154338694Y-75300499D01*
X154396682Y-75288964D01*
X154512658Y-75265896D01*
X154512661Y-75265894D01*
X154512666Y-75265894D01*
X154676547Y-75198013D01*
X154824035Y-75099464D01*
X154949464Y-74974035D01*
X155048013Y-74826547D01*
X155056569Y-74805892D01*
X155057958Y-74802535D01*
X155115894Y-74662666D01*
X155128383Y-74599882D01*
X155160768Y-74537971D01*
X155221483Y-74503397D01*
X155291253Y-74507136D01*
X155347925Y-74548003D01*
X155371617Y-74599882D01*
X155384103Y-74662658D01*
X155384106Y-74662667D01*
X155451983Y-74826540D01*
X155451990Y-74826553D01*
X155550535Y-74974034D01*
X155550538Y-74974038D01*
X155675961Y-75099461D01*
X155675965Y-75099464D01*
X155823446Y-75198009D01*
X155823459Y-75198016D01*
X155926024Y-75240499D01*
X155987334Y-75265894D01*
X155987336Y-75265894D01*
X155987341Y-75265896D01*
X156161304Y-75300499D01*
X156161307Y-75300500D01*
X156161309Y-75300500D01*
X156338693Y-75300500D01*
X156338694Y-75300499D01*
X156396682Y-75288964D01*
X156512658Y-75265896D01*
X156512661Y-75265894D01*
X156512666Y-75265894D01*
X156676547Y-75198013D01*
X156824035Y-75099464D01*
X156949464Y-74974035D01*
X157048013Y-74826547D01*
X157056569Y-74805892D01*
X157057958Y-74802535D01*
X157115894Y-74662666D01*
X157128383Y-74599882D01*
X157160768Y-74537971D01*
X157221483Y-74503397D01*
X157291253Y-74507136D01*
X157347925Y-74548003D01*
X157371617Y-74599882D01*
X157384103Y-74662658D01*
X157384106Y-74662667D01*
X157451983Y-74826540D01*
X157451990Y-74826553D01*
X157550535Y-74974034D01*
X157550538Y-74974038D01*
X157675961Y-75099461D01*
X157675965Y-75099464D01*
X157823446Y-75198009D01*
X157823459Y-75198016D01*
X157926024Y-75240499D01*
X157987334Y-75265894D01*
X157987336Y-75265894D01*
X157987341Y-75265896D01*
X158161304Y-75300499D01*
X158161307Y-75300500D01*
X158161309Y-75300500D01*
X158338693Y-75300500D01*
X158338694Y-75300499D01*
X158396682Y-75288964D01*
X158512658Y-75265896D01*
X158512661Y-75265894D01*
X158512666Y-75265894D01*
X158676547Y-75198013D01*
X158824035Y-75099464D01*
X158949464Y-74974035D01*
X159048013Y-74826547D01*
X159056569Y-74805892D01*
X159057958Y-74802535D01*
X159115894Y-74662666D01*
X159128383Y-74599882D01*
X159160768Y-74537971D01*
X159221483Y-74503397D01*
X159291253Y-74507136D01*
X159347925Y-74548003D01*
X159371617Y-74599882D01*
X159384103Y-74662658D01*
X159384106Y-74662667D01*
X159451983Y-74826540D01*
X159451990Y-74826553D01*
X159550535Y-74974034D01*
X159550538Y-74974038D01*
X159675961Y-75099461D01*
X159675965Y-75099464D01*
X159823446Y-75198009D01*
X159823459Y-75198016D01*
X159926024Y-75240499D01*
X159987334Y-75265894D01*
X159987336Y-75265894D01*
X159987341Y-75265896D01*
X160161304Y-75300499D01*
X160161307Y-75300500D01*
X160161309Y-75300500D01*
X160338693Y-75300500D01*
X160338694Y-75300499D01*
X160396682Y-75288964D01*
X160512658Y-75265896D01*
X160512661Y-75265894D01*
X160512666Y-75265894D01*
X160676547Y-75198013D01*
X160824035Y-75099464D01*
X160949464Y-74974035D01*
X161048013Y-74826547D01*
X161056569Y-74805892D01*
X161057958Y-74802535D01*
X161115894Y-74662666D01*
X161128383Y-74599882D01*
X161160768Y-74537971D01*
X161221483Y-74503397D01*
X161291253Y-74507136D01*
X161347925Y-74548003D01*
X161371617Y-74599882D01*
X161384103Y-74662658D01*
X161384106Y-74662667D01*
X161451983Y-74826540D01*
X161451990Y-74826553D01*
X161550535Y-74974034D01*
X161550538Y-74974038D01*
X161675961Y-75099461D01*
X161675965Y-75099464D01*
X161823446Y-75198009D01*
X161823459Y-75198016D01*
X161926024Y-75240499D01*
X161987334Y-75265894D01*
X161987336Y-75265894D01*
X161987341Y-75265896D01*
X162161304Y-75300499D01*
X162161307Y-75300500D01*
X162161309Y-75300500D01*
X162338693Y-75300500D01*
X162338694Y-75300499D01*
X162396682Y-75288964D01*
X162512658Y-75265896D01*
X162512661Y-75265894D01*
X162512666Y-75265894D01*
X162676547Y-75198013D01*
X162824035Y-75099464D01*
X162949464Y-74974035D01*
X163048013Y-74826547D01*
X163056569Y-74805892D01*
X163057958Y-74802535D01*
X163115894Y-74662666D01*
X163128383Y-74599882D01*
X163160768Y-74537971D01*
X163221483Y-74503397D01*
X163291253Y-74507136D01*
X163347925Y-74548003D01*
X163371617Y-74599882D01*
X163384103Y-74662658D01*
X163384106Y-74662667D01*
X163451983Y-74826540D01*
X163451990Y-74826553D01*
X163550535Y-74974034D01*
X163550538Y-74974038D01*
X163675961Y-75099461D01*
X163675965Y-75099464D01*
X163823446Y-75198009D01*
X163823459Y-75198016D01*
X163926024Y-75240499D01*
X163987334Y-75265894D01*
X163987336Y-75265894D01*
X163987341Y-75265896D01*
X164161304Y-75300499D01*
X164161307Y-75300500D01*
X164161309Y-75300500D01*
X164338693Y-75300500D01*
X164338694Y-75300499D01*
X164396682Y-75288964D01*
X164512658Y-75265896D01*
X164512661Y-75265894D01*
X164512666Y-75265894D01*
X164676547Y-75198013D01*
X164824035Y-75099464D01*
X164949464Y-74974035D01*
X165048013Y-74826547D01*
X165056569Y-74805892D01*
X165057958Y-74802535D01*
X165115894Y-74662666D01*
X165150500Y-74488691D01*
X165150500Y-74311309D01*
X165150500Y-74311306D01*
X165150499Y-74311304D01*
X167349500Y-74311304D01*
X167349500Y-74488695D01*
X167384103Y-74662658D01*
X167384106Y-74662667D01*
X167451983Y-74826540D01*
X167451990Y-74826553D01*
X167550535Y-74974034D01*
X167550538Y-74974038D01*
X167675961Y-75099461D01*
X167675965Y-75099464D01*
X167823446Y-75198009D01*
X167823459Y-75198016D01*
X167926024Y-75240499D01*
X167987334Y-75265894D01*
X167987336Y-75265894D01*
X167987341Y-75265896D01*
X168161304Y-75300499D01*
X168161307Y-75300500D01*
X168161309Y-75300500D01*
X168338693Y-75300500D01*
X168338694Y-75300499D01*
X168396682Y-75288964D01*
X168512658Y-75265896D01*
X168512661Y-75265894D01*
X168512666Y-75265894D01*
X168676547Y-75198013D01*
X168824035Y-75099464D01*
X168949464Y-74974035D01*
X169048013Y-74826547D01*
X169056569Y-74805892D01*
X169057958Y-74802535D01*
X169115894Y-74662666D01*
X169128383Y-74599882D01*
X169160768Y-74537971D01*
X169221483Y-74503397D01*
X169291253Y-74507136D01*
X169347925Y-74548003D01*
X169371617Y-74599882D01*
X169384103Y-74662658D01*
X169384106Y-74662667D01*
X169451983Y-74826540D01*
X169451990Y-74826553D01*
X169550535Y-74974034D01*
X169550538Y-74974038D01*
X169675961Y-75099461D01*
X169675965Y-75099464D01*
X169823446Y-75198009D01*
X169823459Y-75198016D01*
X169926024Y-75240499D01*
X169987334Y-75265894D01*
X169987336Y-75265894D01*
X169987341Y-75265896D01*
X170161304Y-75300499D01*
X170161307Y-75300500D01*
X170161309Y-75300500D01*
X170338693Y-75300500D01*
X170338694Y-75300499D01*
X170396682Y-75288964D01*
X170512658Y-75265896D01*
X170512661Y-75265894D01*
X170512666Y-75265894D01*
X170676547Y-75198013D01*
X170824035Y-75099464D01*
X170949464Y-74974035D01*
X171048013Y-74826547D01*
X171056569Y-74805892D01*
X171057958Y-74802535D01*
X171115894Y-74662666D01*
X171128383Y-74599882D01*
X171160768Y-74537971D01*
X171221483Y-74503397D01*
X171291253Y-74507136D01*
X171347925Y-74548003D01*
X171371617Y-74599882D01*
X171384103Y-74662658D01*
X171384106Y-74662667D01*
X171451983Y-74826540D01*
X171451990Y-74826553D01*
X171550535Y-74974034D01*
X171550538Y-74974038D01*
X171675961Y-75099461D01*
X171675965Y-75099464D01*
X171823446Y-75198009D01*
X171823459Y-75198016D01*
X171926024Y-75240499D01*
X171987334Y-75265894D01*
X171987336Y-75265894D01*
X171987341Y-75265896D01*
X172161304Y-75300499D01*
X172161307Y-75300500D01*
X172161309Y-75300500D01*
X172338693Y-75300500D01*
X172338694Y-75300499D01*
X172396682Y-75288964D01*
X172512658Y-75265896D01*
X172512661Y-75265894D01*
X172512666Y-75265894D01*
X172676547Y-75198013D01*
X172824035Y-75099464D01*
X172949464Y-74974035D01*
X173048013Y-74826547D01*
X173056569Y-74805892D01*
X173057958Y-74802535D01*
X173111155Y-74674108D01*
X188599500Y-74674108D01*
X188599500Y-74805892D01*
X188605036Y-74826553D01*
X188633608Y-74933187D01*
X188657192Y-74974034D01*
X188699500Y-75047314D01*
X188792686Y-75140500D01*
X188906814Y-75206392D01*
X189034108Y-75240500D01*
X189034110Y-75240500D01*
X189165890Y-75240500D01*
X189165892Y-75240500D01*
X189293186Y-75206392D01*
X189407314Y-75140500D01*
X189500500Y-75047314D01*
X189566392Y-74933186D01*
X189600500Y-74805892D01*
X189600500Y-74674108D01*
X189566392Y-74546814D01*
X189561286Y-74537971D01*
X189541325Y-74503397D01*
X189500500Y-74432686D01*
X189407314Y-74339500D01*
X189350250Y-74306554D01*
X189293187Y-74273608D01*
X189198794Y-74248316D01*
X189165892Y-74239500D01*
X189034108Y-74239500D01*
X188906812Y-74273608D01*
X188792686Y-74339500D01*
X188792683Y-74339502D01*
X188699502Y-74432683D01*
X188699500Y-74432686D01*
X188633608Y-74546812D01*
X188608160Y-74641789D01*
X188599500Y-74674108D01*
X173111155Y-74674108D01*
X173115894Y-74662666D01*
X173147575Y-74503397D01*
X173150500Y-74488693D01*
X173150500Y-74311306D01*
X173150499Y-74311304D01*
X173115896Y-74137341D01*
X173115893Y-74137332D01*
X173048016Y-73973459D01*
X173048006Y-73973441D01*
X173022904Y-73935873D01*
X173022903Y-73935872D01*
X172982301Y-73875108D01*
X175860500Y-73875108D01*
X175860500Y-74006891D01*
X175894608Y-74134187D01*
X175927554Y-74191250D01*
X175960500Y-74248314D01*
X176053686Y-74341500D01*
X176167814Y-74407392D01*
X176295108Y-74441500D01*
X176295110Y-74441500D01*
X176426890Y-74441500D01*
X176426892Y-74441500D01*
X176554186Y-74407392D01*
X176668314Y-74341500D01*
X176761500Y-74248314D01*
X176827392Y-74134186D01*
X176861500Y-74006892D01*
X176861500Y-73875108D01*
X176827392Y-73747814D01*
X176761500Y-73633686D01*
X176668314Y-73540500D01*
X176597300Y-73499500D01*
X176554187Y-73474608D01*
X176490539Y-73457554D01*
X176426892Y-73440500D01*
X176295108Y-73440500D01*
X176167812Y-73474608D01*
X176053686Y-73540500D01*
X176053683Y-73540502D01*
X175960502Y-73633683D01*
X175960500Y-73633686D01*
X175894608Y-73747812D01*
X175860500Y-73875108D01*
X172982301Y-73875108D01*
X172949464Y-73825965D01*
X172949461Y-73825961D01*
X172824038Y-73700538D01*
X172824034Y-73700535D01*
X172676553Y-73601990D01*
X172676540Y-73601983D01*
X172512667Y-73534106D01*
X172512658Y-73534103D01*
X172338694Y-73499500D01*
X172338691Y-73499500D01*
X172161309Y-73499500D01*
X172161306Y-73499500D01*
X171987341Y-73534103D01*
X171987332Y-73534106D01*
X171823459Y-73601983D01*
X171823446Y-73601990D01*
X171675965Y-73700535D01*
X171675961Y-73700538D01*
X171550538Y-73825961D01*
X171550535Y-73825965D01*
X171451990Y-73973446D01*
X171451983Y-73973459D01*
X171384106Y-74137332D01*
X171384104Y-74137340D01*
X171371617Y-74200118D01*
X171339232Y-74262028D01*
X171278516Y-74296603D01*
X171208747Y-74292863D01*
X171152075Y-74251996D01*
X171128383Y-74200118D01*
X171115895Y-74137340D01*
X171115894Y-74137334D01*
X171061864Y-74006892D01*
X171048016Y-73973459D01*
X171048009Y-73973446D01*
X170949464Y-73825965D01*
X170949461Y-73825961D01*
X170824038Y-73700538D01*
X170824034Y-73700535D01*
X170676553Y-73601990D01*
X170676540Y-73601983D01*
X170512667Y-73534106D01*
X170512658Y-73534103D01*
X170338694Y-73499500D01*
X170338691Y-73499500D01*
X170161309Y-73499500D01*
X170161306Y-73499500D01*
X169987341Y-73534103D01*
X169987332Y-73534106D01*
X169823459Y-73601983D01*
X169823446Y-73601990D01*
X169675965Y-73700535D01*
X169675961Y-73700538D01*
X169550538Y-73825961D01*
X169550535Y-73825965D01*
X169451990Y-73973446D01*
X169451983Y-73973459D01*
X169384106Y-74137332D01*
X169384104Y-74137340D01*
X169371617Y-74200118D01*
X169339232Y-74262028D01*
X169278516Y-74296603D01*
X169208747Y-74292863D01*
X169152075Y-74251996D01*
X169128383Y-74200118D01*
X169115895Y-74137340D01*
X169115894Y-74137334D01*
X169061864Y-74006892D01*
X169048016Y-73973459D01*
X169048009Y-73973446D01*
X168949464Y-73825965D01*
X168949461Y-73825961D01*
X168824038Y-73700538D01*
X168824034Y-73700535D01*
X168676553Y-73601990D01*
X168676540Y-73601983D01*
X168512667Y-73534106D01*
X168512658Y-73534103D01*
X168338694Y-73499500D01*
X168338691Y-73499500D01*
X168161309Y-73499500D01*
X168161306Y-73499500D01*
X167987341Y-73534103D01*
X167987332Y-73534106D01*
X167823459Y-73601983D01*
X167823446Y-73601990D01*
X167675965Y-73700535D01*
X167675961Y-73700538D01*
X167550538Y-73825961D01*
X167550535Y-73825965D01*
X167451990Y-73973446D01*
X167451983Y-73973459D01*
X167384106Y-74137332D01*
X167384103Y-74137341D01*
X167349500Y-74311304D01*
X165150499Y-74311304D01*
X165115896Y-74137341D01*
X165115893Y-74137332D01*
X165048016Y-73973459D01*
X165048009Y-73973446D01*
X164949464Y-73825965D01*
X164949461Y-73825961D01*
X164824038Y-73700538D01*
X164824034Y-73700535D01*
X164676553Y-73601990D01*
X164676540Y-73601983D01*
X164512667Y-73534106D01*
X164512658Y-73534103D01*
X164338694Y-73499500D01*
X164338691Y-73499500D01*
X164161309Y-73499500D01*
X164161306Y-73499500D01*
X163987341Y-73534103D01*
X163987332Y-73534106D01*
X163823459Y-73601983D01*
X163823446Y-73601990D01*
X163675965Y-73700535D01*
X163675961Y-73700538D01*
X163550538Y-73825961D01*
X163550535Y-73825965D01*
X163451990Y-73973446D01*
X163451983Y-73973459D01*
X163384106Y-74137332D01*
X163384104Y-74137340D01*
X163371617Y-74200118D01*
X163339232Y-74262028D01*
X163278516Y-74296603D01*
X163208747Y-74292863D01*
X163152075Y-74251996D01*
X163128383Y-74200118D01*
X163115895Y-74137340D01*
X163115894Y-74137334D01*
X163061864Y-74006892D01*
X163048016Y-73973459D01*
X163048009Y-73973446D01*
X162949464Y-73825965D01*
X162949461Y-73825961D01*
X162824038Y-73700538D01*
X162824034Y-73700535D01*
X162676553Y-73601990D01*
X162676540Y-73601983D01*
X162512667Y-73534106D01*
X162512658Y-73534103D01*
X162338694Y-73499500D01*
X162338691Y-73499500D01*
X162161309Y-73499500D01*
X162161306Y-73499500D01*
X161987341Y-73534103D01*
X161987332Y-73534106D01*
X161823459Y-73601983D01*
X161823446Y-73601990D01*
X161675965Y-73700535D01*
X161675961Y-73700538D01*
X161550538Y-73825961D01*
X161550535Y-73825965D01*
X161451990Y-73973446D01*
X161451983Y-73973459D01*
X161384106Y-74137332D01*
X161384104Y-74137340D01*
X161371617Y-74200118D01*
X161339232Y-74262028D01*
X161278516Y-74296603D01*
X161208747Y-74292863D01*
X161152075Y-74251996D01*
X161128383Y-74200118D01*
X161115895Y-74137340D01*
X161115894Y-74137334D01*
X161061864Y-74006892D01*
X161048016Y-73973459D01*
X161048009Y-73973446D01*
X160949464Y-73825965D01*
X160949461Y-73825961D01*
X160824038Y-73700538D01*
X160824034Y-73700535D01*
X160676553Y-73601990D01*
X160676540Y-73601983D01*
X160512667Y-73534106D01*
X160512658Y-73534103D01*
X160338694Y-73499500D01*
X160338691Y-73499500D01*
X160161309Y-73499500D01*
X160161306Y-73499500D01*
X159987341Y-73534103D01*
X159987332Y-73534106D01*
X159823459Y-73601983D01*
X159823446Y-73601990D01*
X159675965Y-73700535D01*
X159675961Y-73700538D01*
X159550538Y-73825961D01*
X159550535Y-73825965D01*
X159451990Y-73973446D01*
X159451983Y-73973459D01*
X159384106Y-74137332D01*
X159384104Y-74137340D01*
X159371617Y-74200118D01*
X159339232Y-74262028D01*
X159278516Y-74296603D01*
X159208747Y-74292863D01*
X159152075Y-74251996D01*
X159128383Y-74200118D01*
X159115895Y-74137340D01*
X159115894Y-74137334D01*
X159061864Y-74006892D01*
X159048016Y-73973459D01*
X159048009Y-73973446D01*
X158949464Y-73825965D01*
X158949461Y-73825961D01*
X158824038Y-73700538D01*
X158824034Y-73700535D01*
X158676553Y-73601990D01*
X158676540Y-73601983D01*
X158512667Y-73534106D01*
X158512658Y-73534103D01*
X158338694Y-73499500D01*
X158338691Y-73499500D01*
X158161309Y-73499500D01*
X158161306Y-73499500D01*
X157987341Y-73534103D01*
X157987332Y-73534106D01*
X157823459Y-73601983D01*
X157823446Y-73601990D01*
X157675965Y-73700535D01*
X157675961Y-73700538D01*
X157550538Y-73825961D01*
X157550535Y-73825965D01*
X157451990Y-73973446D01*
X157451983Y-73973459D01*
X157384106Y-74137332D01*
X157384104Y-74137340D01*
X157371617Y-74200118D01*
X157339232Y-74262028D01*
X157278516Y-74296603D01*
X157208747Y-74292863D01*
X157152075Y-74251996D01*
X157128383Y-74200118D01*
X157115895Y-74137340D01*
X157115894Y-74137334D01*
X157061864Y-74006892D01*
X157048016Y-73973459D01*
X157048009Y-73973446D01*
X156949464Y-73825965D01*
X156949461Y-73825961D01*
X156824038Y-73700538D01*
X156824034Y-73700535D01*
X156676553Y-73601990D01*
X156676540Y-73601983D01*
X156512667Y-73534106D01*
X156512658Y-73534103D01*
X156338694Y-73499500D01*
X156338691Y-73499500D01*
X156161309Y-73499500D01*
X156161306Y-73499500D01*
X155987341Y-73534103D01*
X155987332Y-73534106D01*
X155823459Y-73601983D01*
X155823446Y-73601990D01*
X155675965Y-73700535D01*
X155675961Y-73700538D01*
X155550538Y-73825961D01*
X155550535Y-73825965D01*
X155451990Y-73973446D01*
X155451983Y-73973459D01*
X155384106Y-74137332D01*
X155384104Y-74137340D01*
X155371617Y-74200118D01*
X155339232Y-74262028D01*
X155278516Y-74296603D01*
X155208747Y-74292863D01*
X155152075Y-74251996D01*
X155128383Y-74200118D01*
X155115895Y-74137340D01*
X155115894Y-74137334D01*
X155061864Y-74006892D01*
X155048016Y-73973459D01*
X155048009Y-73973446D01*
X154949464Y-73825965D01*
X154949461Y-73825961D01*
X154824038Y-73700538D01*
X154824034Y-73700535D01*
X154676553Y-73601990D01*
X154676540Y-73601983D01*
X154512667Y-73534106D01*
X154512658Y-73534103D01*
X154338694Y-73499500D01*
X154338691Y-73499500D01*
X154161309Y-73499500D01*
X154161306Y-73499500D01*
X153987341Y-73534103D01*
X153987332Y-73534106D01*
X153823459Y-73601983D01*
X153823446Y-73601990D01*
X153675965Y-73700535D01*
X153675961Y-73700538D01*
X153550538Y-73825961D01*
X153550535Y-73825965D01*
X153451990Y-73973446D01*
X153451983Y-73973459D01*
X153384106Y-74137332D01*
X153384103Y-74137341D01*
X153349500Y-74311304D01*
X151390500Y-74311304D01*
X151390500Y-72604108D01*
X188739500Y-72604108D01*
X188739500Y-72735891D01*
X188773608Y-72863187D01*
X188806554Y-72920250D01*
X188839500Y-72977314D01*
X188932686Y-73070500D01*
X189046814Y-73136392D01*
X189174108Y-73170500D01*
X189174110Y-73170500D01*
X189305890Y-73170500D01*
X189305892Y-73170500D01*
X189433186Y-73136392D01*
X189547314Y-73070500D01*
X189640500Y-72977314D01*
X189706392Y-72863186D01*
X189740500Y-72735892D01*
X189740500Y-72604108D01*
X189706392Y-72476814D01*
X189640500Y-72362686D01*
X189547314Y-72269500D01*
X189462439Y-72220497D01*
X189433187Y-72203608D01*
X189369539Y-72186554D01*
X189305892Y-72169500D01*
X189174108Y-72169500D01*
X189046812Y-72203608D01*
X188932686Y-72269500D01*
X188932683Y-72269502D01*
X188839502Y-72362683D01*
X188839500Y-72362686D01*
X188773608Y-72476812D01*
X188739500Y-72604108D01*
X151390500Y-72604108D01*
X151390500Y-71709108D01*
X176249500Y-71709108D01*
X176249500Y-71840891D01*
X176283608Y-71968187D01*
X176309589Y-72013186D01*
X176349500Y-72082314D01*
X176442686Y-72175500D01*
X176556814Y-72241392D01*
X176684108Y-72275500D01*
X176684110Y-72275500D01*
X176815890Y-72275500D01*
X176815892Y-72275500D01*
X176943186Y-72241392D01*
X177057314Y-72175500D01*
X177150500Y-72082314D01*
X177216392Y-71968186D01*
X177250500Y-71840892D01*
X177250500Y-71709108D01*
X177216392Y-71581814D01*
X177150500Y-71467686D01*
X177057314Y-71374500D01*
X176970033Y-71324108D01*
X195359500Y-71324108D01*
X195359500Y-71455892D01*
X195362660Y-71467686D01*
X195393608Y-71583187D01*
X195418797Y-71626814D01*
X195459500Y-71697314D01*
X195552686Y-71790500D01*
X195666814Y-71856392D01*
X195794108Y-71890500D01*
X195794110Y-71890500D01*
X195925890Y-71890500D01*
X195925892Y-71890500D01*
X196053186Y-71856392D01*
X196167314Y-71790500D01*
X196203706Y-71754108D01*
X196909500Y-71754108D01*
X196909500Y-71885892D01*
X196914859Y-71905891D01*
X196943608Y-72013187D01*
X196974037Y-72065890D01*
X197009500Y-72127314D01*
X197102686Y-72220500D01*
X197216814Y-72286392D01*
X197344108Y-72320500D01*
X197344110Y-72320500D01*
X197475890Y-72320500D01*
X197475892Y-72320500D01*
X197603186Y-72286392D01*
X197717314Y-72220500D01*
X197810500Y-72127314D01*
X197876392Y-72013186D01*
X197897581Y-71934108D01*
X200699500Y-71934108D01*
X200699500Y-72065891D01*
X200733608Y-72193187D01*
X200760923Y-72240497D01*
X200799500Y-72307314D01*
X200892686Y-72400500D01*
X201006814Y-72466392D01*
X201134108Y-72500500D01*
X201134110Y-72500500D01*
X201265890Y-72500500D01*
X201265892Y-72500500D01*
X201393186Y-72466392D01*
X201507314Y-72400500D01*
X201600500Y-72307314D01*
X201666392Y-72193186D01*
X201700500Y-72065892D01*
X201700500Y-71934108D01*
X201666392Y-71806814D01*
X201647509Y-71774108D01*
X203219500Y-71774108D01*
X203219500Y-71905892D01*
X203227061Y-71934110D01*
X203253608Y-72033187D01*
X203281972Y-72082314D01*
X203319500Y-72147314D01*
X203412686Y-72240500D01*
X203526814Y-72306392D01*
X203654108Y-72340500D01*
X203654110Y-72340500D01*
X203785890Y-72340500D01*
X203785892Y-72340500D01*
X203913186Y-72306392D01*
X204027314Y-72240500D01*
X204120500Y-72147314D01*
X204186392Y-72033186D01*
X204220500Y-71905892D01*
X204220500Y-71774108D01*
X204186392Y-71646814D01*
X204120500Y-71532686D01*
X204027314Y-71439500D01*
X203960526Y-71400940D01*
X203913187Y-71373608D01*
X203838544Y-71353608D01*
X203785892Y-71339500D01*
X203654108Y-71339500D01*
X203526812Y-71373608D01*
X203412686Y-71439500D01*
X203412683Y-71439502D01*
X203319502Y-71532683D01*
X203319500Y-71532686D01*
X203253608Y-71646812D01*
X203236916Y-71709110D01*
X203219500Y-71774108D01*
X201647509Y-71774108D01*
X201600500Y-71692686D01*
X201507314Y-71599500D01*
X201450250Y-71566554D01*
X201393187Y-71533608D01*
X201315092Y-71512683D01*
X201265892Y-71499500D01*
X201134108Y-71499500D01*
X201006812Y-71533608D01*
X200892686Y-71599500D01*
X200892683Y-71599502D01*
X200799502Y-71692683D01*
X200799500Y-71692686D01*
X200733608Y-71806812D01*
X200699500Y-71934108D01*
X197897581Y-71934108D01*
X197910500Y-71885892D01*
X197910500Y-71754108D01*
X197876392Y-71626814D01*
X197810500Y-71512686D01*
X197717314Y-71419500D01*
X197660250Y-71386554D01*
X197603187Y-71353608D01*
X197493089Y-71324108D01*
X197475892Y-71319500D01*
X197344108Y-71319500D01*
X197216812Y-71353608D01*
X197102686Y-71419500D01*
X197102683Y-71419502D01*
X197009502Y-71512683D01*
X197009500Y-71512686D01*
X196943608Y-71626812D01*
X196921557Y-71709110D01*
X196909500Y-71754108D01*
X196203706Y-71754108D01*
X196260500Y-71697314D01*
X196326392Y-71583186D01*
X196360500Y-71455892D01*
X196360500Y-71400940D01*
X196380185Y-71333901D01*
X196432989Y-71288146D01*
X196502147Y-71278202D01*
X196511980Y-71280219D01*
X196514106Y-71280499D01*
X196514108Y-71280500D01*
X196514110Y-71280500D01*
X196645890Y-71280500D01*
X196645892Y-71280500D01*
X196773186Y-71246392D01*
X196887314Y-71180500D01*
X196980500Y-71087314D01*
X197046392Y-70973186D01*
X197080500Y-70845892D01*
X197080500Y-70714108D01*
X197075141Y-70694108D01*
X202069500Y-70694108D01*
X202069500Y-70825892D01*
X202076094Y-70850500D01*
X202103608Y-70953187D01*
X202124574Y-70989500D01*
X202169500Y-71067314D01*
X202262686Y-71160500D01*
X202376814Y-71226392D01*
X202504108Y-71260500D01*
X202504110Y-71260500D01*
X202635890Y-71260500D01*
X202635892Y-71260500D01*
X202763186Y-71226392D01*
X202877314Y-71160500D01*
X202970500Y-71067314D01*
X203036392Y-70953186D01*
X203070500Y-70825892D01*
X203070500Y-70694108D01*
X203036392Y-70566814D01*
X202970500Y-70452686D01*
X202877314Y-70359500D01*
X202797827Y-70313608D01*
X202763187Y-70293608D01*
X202727732Y-70284108D01*
X207069500Y-70284108D01*
X207069500Y-70415891D01*
X207103608Y-70543187D01*
X207128797Y-70586814D01*
X207169500Y-70657314D01*
X207262686Y-70750500D01*
X207376814Y-70816392D01*
X207504108Y-70850500D01*
X207504110Y-70850500D01*
X207635890Y-70850500D01*
X207635892Y-70850500D01*
X207763186Y-70816392D01*
X207877314Y-70750500D01*
X207970500Y-70657314D01*
X208036392Y-70543186D01*
X208070500Y-70415892D01*
X208070500Y-70284108D01*
X208036392Y-70156814D01*
X207970500Y-70042686D01*
X207877314Y-69949500D01*
X207820250Y-69916554D01*
X207763187Y-69883608D01*
X207699539Y-69866554D01*
X207635892Y-69849500D01*
X207504108Y-69849500D01*
X207376812Y-69883608D01*
X207262686Y-69949500D01*
X207262683Y-69949502D01*
X207169502Y-70042683D01*
X207169500Y-70042686D01*
X207103608Y-70156812D01*
X207069500Y-70284108D01*
X202727732Y-70284108D01*
X202697009Y-70275876D01*
X202635892Y-70259500D01*
X202504108Y-70259500D01*
X202376812Y-70293608D01*
X202262686Y-70359500D01*
X202262683Y-70359502D01*
X202169502Y-70452683D01*
X202169500Y-70452686D01*
X202103608Y-70566812D01*
X202082285Y-70646392D01*
X202069500Y-70694108D01*
X197075141Y-70694108D01*
X197046392Y-70586814D01*
X196980500Y-70472686D01*
X196887314Y-70379500D01*
X196830250Y-70346554D01*
X196773187Y-70313608D01*
X196698544Y-70293608D01*
X196645892Y-70279500D01*
X196514108Y-70279500D01*
X196386812Y-70313608D01*
X196272686Y-70379500D01*
X196272683Y-70379502D01*
X196179502Y-70472683D01*
X196179500Y-70472686D01*
X196113608Y-70586812D01*
X196079500Y-70714108D01*
X196079500Y-70769059D01*
X196059815Y-70836098D01*
X196007011Y-70881853D01*
X195937853Y-70891797D01*
X195928017Y-70889780D01*
X195925893Y-70889500D01*
X195925892Y-70889500D01*
X195794108Y-70889500D01*
X195666814Y-70923608D01*
X195666813Y-70923608D01*
X195666811Y-70923609D01*
X195666810Y-70923609D01*
X195586576Y-70969932D01*
X195586570Y-70969936D01*
X195552686Y-70989500D01*
X195498573Y-71043612D01*
X195498561Y-71043623D01*
X195459503Y-71082682D01*
X195459500Y-71082686D01*
X195393608Y-71196812D01*
X195369136Y-71288146D01*
X195359500Y-71324108D01*
X176970033Y-71324108D01*
X176943187Y-71308608D01*
X176866820Y-71288146D01*
X176815892Y-71274500D01*
X176684108Y-71274500D01*
X176556812Y-71308608D01*
X176442686Y-71374500D01*
X176442683Y-71374502D01*
X176349502Y-71467683D01*
X176349500Y-71467686D01*
X176283608Y-71581812D01*
X176249500Y-71709108D01*
X151390500Y-71709108D01*
X151390500Y-69385258D01*
X161249500Y-69385258D01*
X161249500Y-69614741D01*
X161274446Y-69804215D01*
X161279452Y-69842238D01*
X161333161Y-70042686D01*
X161338842Y-70063887D01*
X161426650Y-70275876D01*
X161426657Y-70275890D01*
X161541392Y-70474617D01*
X161681081Y-70656661D01*
X161681089Y-70656670D01*
X161843330Y-70818911D01*
X161843338Y-70818918D01*
X161843339Y-70818919D01*
X161858428Y-70830497D01*
X162025382Y-70958607D01*
X162025385Y-70958608D01*
X162025388Y-70958611D01*
X162224112Y-71073344D01*
X162224117Y-71073346D01*
X162224123Y-71073349D01*
X162257838Y-71087314D01*
X162436113Y-71161158D01*
X162657762Y-71220548D01*
X162885266Y-71250500D01*
X162885273Y-71250500D01*
X163114727Y-71250500D01*
X163114734Y-71250500D01*
X163342238Y-71220548D01*
X163563887Y-71161158D01*
X163775888Y-71073344D01*
X163974612Y-70958611D01*
X164156661Y-70818919D01*
X164156665Y-70818914D01*
X164156670Y-70818911D01*
X164318911Y-70656670D01*
X164318914Y-70656665D01*
X164318919Y-70656661D01*
X164458611Y-70474612D01*
X164522410Y-70364108D01*
X194569500Y-70364108D01*
X194569500Y-70495891D01*
X194603608Y-70623187D01*
X194617005Y-70646391D01*
X194669500Y-70737314D01*
X194762686Y-70830500D01*
X194851632Y-70881853D01*
X194876810Y-70896390D01*
X194876814Y-70896392D01*
X195004108Y-70930500D01*
X195004110Y-70930500D01*
X195135890Y-70930500D01*
X195135892Y-70930500D01*
X195263186Y-70896392D01*
X195377314Y-70830500D01*
X195470500Y-70737314D01*
X195536392Y-70623186D01*
X195570500Y-70495892D01*
X195570500Y-70364108D01*
X195536392Y-70236814D01*
X195470500Y-70122686D01*
X195461922Y-70114108D01*
X200579500Y-70114108D01*
X200579500Y-70245891D01*
X200613608Y-70373187D01*
X200638263Y-70415890D01*
X200679500Y-70487314D01*
X200772686Y-70580500D01*
X200886814Y-70646392D01*
X201014108Y-70680500D01*
X201014110Y-70680500D01*
X201145890Y-70680500D01*
X201145892Y-70680500D01*
X201273186Y-70646392D01*
X201387314Y-70580500D01*
X201480500Y-70487314D01*
X201546392Y-70373186D01*
X201580500Y-70245892D01*
X201580500Y-70114108D01*
X201546392Y-69986814D01*
X201480500Y-69872686D01*
X201387314Y-69779500D01*
X201330250Y-69746554D01*
X201273187Y-69713608D01*
X201209539Y-69696554D01*
X201145892Y-69679500D01*
X201014108Y-69679500D01*
X200886812Y-69713608D01*
X200772686Y-69779500D01*
X200772683Y-69779502D01*
X200679502Y-69872683D01*
X200679500Y-69872686D01*
X200613608Y-69986812D01*
X200579500Y-70114108D01*
X195461922Y-70114108D01*
X195377314Y-70029500D01*
X195303380Y-69986814D01*
X195263187Y-69963608D01*
X195199539Y-69946554D01*
X195135892Y-69929500D01*
X195004108Y-69929500D01*
X194876812Y-69963608D01*
X194762686Y-70029500D01*
X194762683Y-70029502D01*
X194669502Y-70122683D01*
X194669500Y-70122686D01*
X194603608Y-70236812D01*
X194569500Y-70364108D01*
X164522410Y-70364108D01*
X164573344Y-70275888D01*
X164661158Y-70063887D01*
X164720548Y-69842238D01*
X164750500Y-69614734D01*
X164750500Y-69385266D01*
X164720548Y-69157762D01*
X164661158Y-68936113D01*
X164573344Y-68724112D01*
X164458611Y-68525388D01*
X164318919Y-68343339D01*
X164318915Y-68343335D01*
X164318912Y-68343331D01*
X164281094Y-68305513D01*
X196770285Y-68305513D01*
X196770285Y-68494486D01*
X196799844Y-68681118D01*
X196858239Y-68860836D01*
X196896595Y-68936113D01*
X196944025Y-69029199D01*
X197055095Y-69182073D01*
X197188712Y-69315690D01*
X197341586Y-69426760D01*
X197421132Y-69467290D01*
X197509948Y-69512545D01*
X197509950Y-69512545D01*
X197509953Y-69512547D01*
X197606282Y-69543846D01*
X197689666Y-69570940D01*
X197876299Y-69600500D01*
X197876304Y-69600500D01*
X198065271Y-69600500D01*
X198251903Y-69570940D01*
X198431617Y-69512547D01*
X198599984Y-69426760D01*
X198752858Y-69315690D01*
X198886475Y-69182073D01*
X198997545Y-69029199D01*
X199083332Y-68860832D01*
X199141725Y-68681118D01*
X199171285Y-68494486D01*
X199171285Y-68305513D01*
X199141725Y-68118881D01*
X199083330Y-67939163D01*
X199038075Y-67850347D01*
X198997545Y-67770801D01*
X198886475Y-67617927D01*
X198752858Y-67484310D01*
X198609628Y-67380247D01*
X201770285Y-67380247D01*
X201770285Y-69419752D01*
X201781916Y-69478229D01*
X201781917Y-69478230D01*
X201826232Y-69544552D01*
X201892554Y-69588867D01*
X201892555Y-69588868D01*
X201951032Y-69600499D01*
X201951035Y-69600500D01*
X201951037Y-69600500D01*
X203990535Y-69600500D01*
X203990536Y-69600499D01*
X204005353Y-69597552D01*
X204049014Y-69588868D01*
X204049014Y-69588867D01*
X204049016Y-69588867D01*
X204115337Y-69544552D01*
X204159652Y-69478231D01*
X204159652Y-69478229D01*
X204159653Y-69478229D01*
X204171284Y-69419752D01*
X204171285Y-69419750D01*
X204171285Y-67380249D01*
X204171284Y-67380247D01*
X204159653Y-67321770D01*
X204159652Y-67321769D01*
X204115337Y-67255447D01*
X204049015Y-67211132D01*
X204049014Y-67211131D01*
X203990537Y-67199500D01*
X203990533Y-67199500D01*
X201951037Y-67199500D01*
X201951032Y-67199500D01*
X201892555Y-67211131D01*
X201892554Y-67211132D01*
X201826232Y-67255447D01*
X201781917Y-67321769D01*
X201781916Y-67321770D01*
X201770285Y-67380247D01*
X198609628Y-67380247D01*
X198599984Y-67373240D01*
X198431621Y-67287454D01*
X198251903Y-67229059D01*
X198065271Y-67199500D01*
X198065266Y-67199500D01*
X197876304Y-67199500D01*
X197876299Y-67199500D01*
X197689666Y-67229059D01*
X197509948Y-67287454D01*
X197341585Y-67373240D01*
X197254364Y-67436610D01*
X197188712Y-67484310D01*
X197188710Y-67484312D01*
X197188709Y-67484312D01*
X197055097Y-67617924D01*
X197055097Y-67617925D01*
X197055095Y-67617927D01*
X197007395Y-67683579D01*
X196944025Y-67770800D01*
X196858239Y-67939163D01*
X196799844Y-68118881D01*
X196770285Y-68305513D01*
X164281094Y-68305513D01*
X164156670Y-68181089D01*
X164156661Y-68181081D01*
X163974617Y-68041392D01*
X163775890Y-67926657D01*
X163775876Y-67926650D01*
X163563887Y-67838842D01*
X163342238Y-67779452D01*
X163304215Y-67774446D01*
X163114741Y-67749500D01*
X163114734Y-67749500D01*
X162885266Y-67749500D01*
X162885258Y-67749500D01*
X162668715Y-67778009D01*
X162657762Y-67779452D01*
X162564076Y-67804554D01*
X162436112Y-67838842D01*
X162224123Y-67926650D01*
X162224109Y-67926657D01*
X162025382Y-68041392D01*
X161843338Y-68181081D01*
X161681081Y-68343338D01*
X161541392Y-68525382D01*
X161426657Y-68724109D01*
X161426650Y-68724123D01*
X161338842Y-68936112D01*
X161279453Y-69157759D01*
X161279451Y-69157770D01*
X161249500Y-69385258D01*
X151390500Y-69385258D01*
X151390500Y-66269108D01*
X211039500Y-66269108D01*
X211039500Y-66400891D01*
X211073608Y-66528187D01*
X211088556Y-66554077D01*
X211139500Y-66642314D01*
X211232686Y-66735500D01*
X211346814Y-66801392D01*
X211474108Y-66835500D01*
X211474110Y-66835500D01*
X211605890Y-66835500D01*
X211605892Y-66835500D01*
X211733186Y-66801392D01*
X211847314Y-66735500D01*
X211904819Y-66677995D01*
X211966142Y-66644510D01*
X212035834Y-66649494D01*
X212080181Y-66677995D01*
X212132686Y-66730500D01*
X212246814Y-66796392D01*
X212374108Y-66830500D01*
X212374110Y-66830500D01*
X212505890Y-66830500D01*
X212505892Y-66830500D01*
X212633186Y-66796392D01*
X212747314Y-66730500D01*
X212840500Y-66637314D01*
X212906392Y-66523186D01*
X212940500Y-66395892D01*
X212940500Y-66264108D01*
X212906392Y-66136814D01*
X212840500Y-66022686D01*
X212747314Y-65929500D01*
X212690250Y-65896554D01*
X212633187Y-65863608D01*
X212524552Y-65834500D01*
X212505892Y-65829500D01*
X212374108Y-65829500D01*
X212246812Y-65863608D01*
X212132686Y-65929500D01*
X212132683Y-65929502D01*
X212075181Y-65987005D01*
X212013858Y-66020490D01*
X211944166Y-66015506D01*
X211899819Y-65987005D01*
X211847316Y-65934502D01*
X211847314Y-65934500D01*
X211790250Y-65901554D01*
X211733187Y-65868608D01*
X211669539Y-65851554D01*
X211605892Y-65834500D01*
X211474108Y-65834500D01*
X211346812Y-65868608D01*
X211232686Y-65934500D01*
X211232683Y-65934502D01*
X211139502Y-66027683D01*
X211139500Y-66027686D01*
X211073608Y-66141812D01*
X211039500Y-66269108D01*
X151390500Y-66269108D01*
X151390500Y-65309108D01*
X202574500Y-65309108D01*
X202574500Y-65440891D01*
X202608608Y-65568187D01*
X202641554Y-65625250D01*
X202674500Y-65682314D01*
X202767686Y-65775500D01*
X202881814Y-65841392D01*
X203009108Y-65875500D01*
X203009110Y-65875500D01*
X203140890Y-65875500D01*
X203140892Y-65875500D01*
X203268186Y-65841392D01*
X203382314Y-65775500D01*
X203475500Y-65682314D01*
X203541392Y-65568186D01*
X203575500Y-65440892D01*
X203575500Y-65309108D01*
X203541392Y-65181814D01*
X203475500Y-65067686D01*
X203382314Y-64974500D01*
X203288867Y-64920548D01*
X203268187Y-64908608D01*
X203204539Y-64891554D01*
X203140892Y-64874500D01*
X203009108Y-64874500D01*
X202881812Y-64908608D01*
X202767686Y-64974500D01*
X202767683Y-64974502D01*
X202674502Y-65067683D01*
X202674500Y-65067686D01*
X202608608Y-65181812D01*
X202574500Y-65309108D01*
X151390500Y-65309108D01*
X151390500Y-63085258D01*
X152149500Y-63085258D01*
X152149500Y-63314741D01*
X152162665Y-63414734D01*
X152179452Y-63542238D01*
X152179453Y-63542240D01*
X152238842Y-63763887D01*
X152326650Y-63975876D01*
X152326657Y-63975890D01*
X152441392Y-64174617D01*
X152581081Y-64356661D01*
X152581089Y-64356670D01*
X152743330Y-64518911D01*
X152743338Y-64518918D01*
X152925382Y-64658607D01*
X152925385Y-64658608D01*
X152925388Y-64658611D01*
X153124112Y-64773344D01*
X153124117Y-64773346D01*
X153124123Y-64773349D01*
X153215480Y-64811190D01*
X153336113Y-64861158D01*
X153557762Y-64920548D01*
X153785266Y-64950500D01*
X153785273Y-64950500D01*
X154014727Y-64950500D01*
X154014734Y-64950500D01*
X154242238Y-64920548D01*
X154463887Y-64861158D01*
X154675888Y-64773344D01*
X154874612Y-64658611D01*
X155056661Y-64518919D01*
X155056665Y-64518914D01*
X155056670Y-64518911D01*
X155218911Y-64356670D01*
X155218914Y-64356665D01*
X155218919Y-64356661D01*
X155358611Y-64174612D01*
X155473344Y-63975888D01*
X155561158Y-63763887D01*
X155620548Y-63542238D01*
X155637457Y-63413796D01*
X155641366Y-63384108D01*
X201524500Y-63384108D01*
X201524500Y-63515891D01*
X201558608Y-63643187D01*
X201591554Y-63700250D01*
X201624500Y-63757314D01*
X201717686Y-63850500D01*
X201831814Y-63916392D01*
X201959108Y-63950500D01*
X201959110Y-63950500D01*
X202090890Y-63950500D01*
X202090892Y-63950500D01*
X202218186Y-63916392D01*
X202332314Y-63850500D01*
X202425500Y-63757314D01*
X202491392Y-63643186D01*
X202525500Y-63515892D01*
X202525500Y-63384108D01*
X202491392Y-63256814D01*
X202450079Y-63185258D01*
X216449500Y-63185258D01*
X216449500Y-63414741D01*
X216474446Y-63604215D01*
X216479452Y-63642238D01*
X216535254Y-63850497D01*
X216538842Y-63863887D01*
X216626650Y-64075876D01*
X216626657Y-64075890D01*
X216741392Y-64274617D01*
X216881081Y-64456661D01*
X216881089Y-64456670D01*
X217043330Y-64618911D01*
X217043338Y-64618918D01*
X217225382Y-64758607D01*
X217225385Y-64758608D01*
X217225388Y-64758611D01*
X217424112Y-64873344D01*
X217424117Y-64873346D01*
X217424123Y-64873349D01*
X217515480Y-64911190D01*
X217636113Y-64961158D01*
X217857762Y-65020548D01*
X218085266Y-65050500D01*
X218085273Y-65050500D01*
X218314727Y-65050500D01*
X218314734Y-65050500D01*
X218542238Y-65020548D01*
X218763887Y-64961158D01*
X218975888Y-64873344D01*
X219174612Y-64758611D01*
X219356661Y-64618919D01*
X219356665Y-64618914D01*
X219356670Y-64618911D01*
X219518911Y-64456670D01*
X219518914Y-64456665D01*
X219518919Y-64456661D01*
X219658611Y-64274612D01*
X219773344Y-64075888D01*
X219861158Y-63863887D01*
X219920548Y-63642238D01*
X219950500Y-63414734D01*
X219950500Y-63185266D01*
X219920548Y-62957762D01*
X219861158Y-62736113D01*
X219773344Y-62524112D01*
X219658611Y-62325388D01*
X219658608Y-62325385D01*
X219658607Y-62325382D01*
X219518918Y-62143338D01*
X219518911Y-62143330D01*
X219356670Y-61981089D01*
X219356661Y-61981081D01*
X219174617Y-61841392D01*
X218975890Y-61726657D01*
X218975876Y-61726650D01*
X218763887Y-61638842D01*
X218718411Y-61626657D01*
X218542238Y-61579452D01*
X218504215Y-61574446D01*
X218314741Y-61549500D01*
X218314734Y-61549500D01*
X218085266Y-61549500D01*
X218085258Y-61549500D01*
X217868715Y-61578009D01*
X217857762Y-61579452D01*
X217764076Y-61604554D01*
X217636112Y-61638842D01*
X217424123Y-61726650D01*
X217424109Y-61726657D01*
X217225382Y-61841392D01*
X217043338Y-61981081D01*
X216881081Y-62143338D01*
X216741392Y-62325382D01*
X216626657Y-62524109D01*
X216626650Y-62524123D01*
X216538842Y-62736112D01*
X216479453Y-62957759D01*
X216479451Y-62957770D01*
X216449500Y-63185258D01*
X202450079Y-63185258D01*
X202425500Y-63142686D01*
X202332314Y-63049500D01*
X202275250Y-63016554D01*
X202218187Y-62983608D01*
X202121715Y-62957759D01*
X202090892Y-62949500D01*
X201959108Y-62949500D01*
X201831812Y-62983608D01*
X201717686Y-63049500D01*
X201717683Y-63049502D01*
X201624502Y-63142683D01*
X201624500Y-63142686D01*
X201558608Y-63256812D01*
X201524500Y-63384108D01*
X155641366Y-63384108D01*
X155644568Y-63359795D01*
X155644568Y-63359794D01*
X155646638Y-63344067D01*
X155650500Y-63314734D01*
X155650500Y-63085266D01*
X155620548Y-62857762D01*
X155561158Y-62636113D01*
X155483667Y-62449034D01*
X155473349Y-62424123D01*
X155473346Y-62424117D01*
X155473344Y-62424112D01*
X155358611Y-62225388D01*
X155358608Y-62225385D01*
X155358607Y-62225382D01*
X155218918Y-62043338D01*
X155218911Y-62043330D01*
X155056670Y-61881089D01*
X155056661Y-61881081D01*
X154874617Y-61741392D01*
X154849093Y-61726656D01*
X154790620Y-61692896D01*
X154675890Y-61626657D01*
X154675876Y-61626650D01*
X154463887Y-61538842D01*
X154242238Y-61479452D01*
X154204215Y-61474446D01*
X154014741Y-61449500D01*
X154014734Y-61449500D01*
X153785266Y-61449500D01*
X153785258Y-61449500D01*
X153568715Y-61478009D01*
X153557762Y-61479452D01*
X153502695Y-61494207D01*
X153336112Y-61538842D01*
X153124123Y-61626650D01*
X153124109Y-61626657D01*
X152925382Y-61741392D01*
X152743338Y-61881081D01*
X152581081Y-62043338D01*
X152441392Y-62225382D01*
X152326657Y-62424109D01*
X152326650Y-62424123D01*
X152238842Y-62636112D01*
X152179453Y-62857759D01*
X152179451Y-62857770D01*
X152149500Y-63085258D01*
X151390500Y-63085258D01*
X151390500Y-62983750D01*
X151390726Y-62976263D01*
X151406448Y-62716339D01*
X151408253Y-62701475D01*
X151440756Y-62524112D01*
X151454515Y-62449026D01*
X151458095Y-62434505D01*
X151534451Y-62189471D01*
X151539753Y-62175489D01*
X151645095Y-61941430D01*
X151652040Y-61928197D01*
X151784826Y-61708542D01*
X151793313Y-61696246D01*
X151951608Y-61494198D01*
X151961523Y-61483007D01*
X152143007Y-61301523D01*
X152154198Y-61291608D01*
X152356246Y-61133313D01*
X152368542Y-61124826D01*
X152588197Y-60992040D01*
X152601430Y-60985095D01*
X152835489Y-60879753D01*
X152849471Y-60874451D01*
X153094505Y-60798095D01*
X153109026Y-60794515D01*
X153361476Y-60748252D01*
X153376335Y-60746448D01*
X153636264Y-60730726D01*
X153643751Y-60730500D01*
X153684170Y-60730500D01*
X218595830Y-60730500D01*
X218636249Y-60730500D01*
X218643736Y-60730726D01*
G37*
%TD.AperFunction*%
%TD*%
M02*
