%TF.GenerationSoftware,KiCad,Pcbnew,9.0.6*%
%TF.CreationDate,2026-01-07T02:43:41-03:00*%
%TF.ProjectId,flight_comp_srad-2026,666c6967-6874-45f6-936f-6d705f737261,rev?*%
%TF.SameCoordinates,Original*%
%TF.FileFunction,Copper,L2,Inr*%
%TF.FilePolarity,Positive*%
%FSLAX46Y46*%
G04 Gerber Fmt 4.6, Leading zero omitted, Abs format (unit mm)*
G04 Created by KiCad (PCBNEW 9.0.6) date 2026-01-07 02:43:41*
%MOMM*%
%LPD*%
G01*
G04 APERTURE LIST*
%TA.AperFunction,ComponentPad*%
%ADD10R,2.000000X2.000000*%
%TD*%
%TA.AperFunction,ComponentPad*%
%ADD11C,2.000000*%
%TD*%
%TA.AperFunction,HeatsinkPad*%
%ADD12C,0.500000*%
%TD*%
%TA.AperFunction,HeatsinkPad*%
%ADD13O,1.700000X1.350000*%
%TD*%
%TA.AperFunction,HeatsinkPad*%
%ADD14O,1.500000X1.100000*%
%TD*%
%TA.AperFunction,ComponentPad*%
%ADD15R,1.400000X1.400000*%
%TD*%
%TA.AperFunction,ComponentPad*%
%ADD16C,1.400000*%
%TD*%
%TA.AperFunction,ViaPad*%
%ADD17C,0.400000*%
%TD*%
%TA.AperFunction,ViaPad*%
%ADD18C,0.600000*%
%TD*%
G04 APERTURE END LIST*
D10*
%TO.N,GND*%
%TO.C,J2*%
X192020000Y-98700000D03*
D11*
%TO.N,/SWDIO*%
X194560000Y-98700000D03*
%TO.N,/SWCLK*%
X197100000Y-98700000D03*
%TD*%
D12*
%TO.N,GND*%
%TO.C,U3*%
X201420000Y-84830000D03*
X198720000Y-84830000D03*
X201420000Y-87530000D03*
X198720000Y-87530000D03*
%TD*%
D13*
%TO.N,GND*%
%TO.C,J3*%
X218300000Y-87200000D03*
D14*
X215300000Y-86890000D03*
X215300000Y-82050000D03*
D13*
X218300000Y-81740000D03*
%TD*%
D10*
%TO.N,VBUS*%
%TO.C,J5*%
X217200000Y-75200000D03*
D11*
%TO.N,GND*%
X217200000Y-77740000D03*
%TD*%
D15*
%TO.N,+3V3*%
%TO.C,U7*%
X154250000Y-96400000D03*
D16*
%TO.N,/UART_Rx0*%
X156250000Y-96400000D03*
%TO.N,/UART_Tx0*%
X158250000Y-96400000D03*
%TO.N,unconnected-(U7-DIO12{slash}SPI_MISO-Pad4)*%
X160250000Y-96400000D03*
%TO.N,unconnected-(U7-~{RESET}-Pad5)*%
X162250000Y-96400000D03*
%TO.N,unconnected-(U7-DIO10{slash}PWM0-Pad6)*%
X164250000Y-96400000D03*
%TO.N,unconnected-(U7-DIO11{slash}PWM1-Pad7)*%
X166250000Y-96400000D03*
%TO.N,N/C*%
X168250000Y-96400000D03*
%TO.N,unconnected-(U7-NDTR{slash}SLEEP_RQ{slash}DIO8-Pad9)*%
X170250000Y-96400000D03*
%TO.N,GND*%
X172250000Y-96400000D03*
%TO.N,unconnected-(U7-DIO4{slash}SPI_MOSI-Pad11)*%
X172250000Y-74400000D03*
%TO.N,unconnected-(U7-NCTS{slash}DIO7-Pad12)*%
X170250000Y-74400000D03*
%TO.N,unconnected-(U7-ON_NSLEEP{slash}DIO9-Pad13)*%
X168250000Y-74400000D03*
%TO.N,GND*%
X166250000Y-74400000D03*
%TO.N,unconnected-(U7-ASSOCIATE{slash}DIO5-Pad15)*%
X164250000Y-74400000D03*
%TO.N,unconnected-(U7-NRTS{slash}DIO6-Pad16)*%
X162250000Y-74400000D03*
%TO.N,unconnected-(U7-AD3{slash}DIO3{slash}SPI_NSSEL-Pad17)*%
X160250000Y-74400000D03*
%TO.N,unconnected-(U7-AD2{slash}DIO2{slash}SPI_CLK-Pad18)*%
X158250000Y-74400000D03*
%TO.N,unconnected-(U7-AD1{slash}DIO1{slash}SPI_NATTN-Pad19)*%
X156250000Y-74400000D03*
%TO.N,unconnected-(U7-AD0{slash}DIO0-Pad20)*%
X154250000Y-74400000D03*
%TD*%
D17*
%TO.N,VBUS*%
X212700000Y-89200000D03*
X203800000Y-96000000D03*
%TO.N,/SD_DAT0*%
X178200000Y-97600000D03*
X187200000Y-94200000D03*
%TO.N,GND*%
X220120000Y-93117500D03*
X219120000Y-93617500D03*
X214925000Y-68270000D03*
X219095000Y-68210000D03*
X202600000Y-65400000D03*
X206800000Y-86200000D03*
X211030000Y-98287500D03*
X198800000Y-75800000D03*
X157000000Y-93600000D03*
X182600000Y-91000000D03*
X189800000Y-77000000D03*
X206600000Y-68600000D03*
X219120000Y-92617500D03*
X200600000Y-70400000D03*
X204200000Y-91800000D03*
X206380000Y-76157500D03*
X195200000Y-84000000D03*
X190800000Y-86600000D03*
X219120000Y-90617500D03*
X220120000Y-90117500D03*
X212030000Y-98287500D03*
X220120000Y-91117500D03*
X219120000Y-91617500D03*
X199550000Y-93170000D03*
X213530000Y-99287500D03*
X194600000Y-71000000D03*
X188600000Y-75200000D03*
X207200000Y-88600000D03*
X202000000Y-77600000D03*
X214030000Y-98287500D03*
X220120000Y-92117500D03*
X212530000Y-99287500D03*
X211530000Y-99287500D03*
X214530000Y-99287500D03*
X213030000Y-98287500D03*
%TO.N,/SD_CLK*%
X180500000Y-97600000D03*
%TO.N,/SD_CMD*%
X183400000Y-97800000D03*
X189000000Y-95100000D03*
%TO.N,/SD_DAT1*%
X177100000Y-97600000D03*
%TO.N,/IIM_CS1*%
X198000000Y-76000000D03*
%TO.N,/IIM_MOSI1*%
X196200000Y-81300000D03*
%TO.N,/IIM_SCLK1*%
X198000000Y-76600000D03*
%TO.N,/IIM_MISO1*%
X198700000Y-81700000D03*
%TO.N,/UART_Rx0*%
X195700000Y-89007108D03*
%TO.N,+3V3*%
X194200000Y-79000000D03*
X208110000Y-92487500D03*
X212825000Y-67150000D03*
X204500000Y-88900000D03*
X181800000Y-100000000D03*
X208110000Y-95487500D03*
X209110000Y-94987500D03*
X203200000Y-78500000D03*
X195653554Y-86480000D03*
X209620000Y-86300000D03*
X208110000Y-93487500D03*
X192600000Y-80800000D03*
X204500000Y-86600000D03*
X208110000Y-91487500D03*
X178200000Y-91000000D03*
X201200000Y-72000000D03*
X208110000Y-94487500D03*
X199300000Y-81700000D03*
X203200000Y-91800000D03*
X198400000Y-72600000D03*
X189853554Y-76253554D03*
X190200000Y-88099000D03*
D18*
X186900000Y-80600000D03*
D17*
X209110000Y-93987500D03*
X209110000Y-92987500D03*
X180800000Y-82400000D03*
X190600000Y-72400000D03*
X209110000Y-91987500D03*
X209110000Y-90987500D03*
X180400000Y-91000000D03*
X204500000Y-89600000D03*
X200150000Y-92200000D03*
%TO.N,+1V1*%
X195656349Y-87108310D03*
X204500000Y-86000000D03*
X204500000Y-88000000D03*
%TO.N,/SWCLK*%
X197500000Y-87000000D03*
%TO.N,/SWDIO*%
X197500000Y-87700000D03*
%TO.N,/UART_Tx0*%
X194700000Y-89300000D03*
%TO.N,/RP_SCL1*%
X200280000Y-77787500D03*
%TO.N,/RP_SDA1*%
X200670000Y-79877500D03*
%TD*%
%TA.AperFunction,Conductor*%
%TO.N,GND*%
G36*
X220832539Y-60750185D02*
G01*
X220878294Y-60802989D01*
X220889500Y-60854500D01*
X220889500Y-100105500D01*
X220869815Y-100172539D01*
X220817011Y-100218294D01*
X220765500Y-100229500D01*
X193495919Y-100229500D01*
X193428880Y-100209815D01*
X193383125Y-100157011D01*
X193373181Y-100087853D01*
X193396653Y-100031189D01*
X193463350Y-99942093D01*
X193463354Y-99942086D01*
X193513596Y-99807379D01*
X193513598Y-99807372D01*
X193519999Y-99747844D01*
X193520000Y-99747827D01*
X193520000Y-99657125D01*
X193539685Y-99590086D01*
X193592489Y-99544331D01*
X193661647Y-99534387D01*
X193725203Y-99563412D01*
X193731681Y-99569444D01*
X193777927Y-99615690D01*
X193930801Y-99726760D01*
X194010347Y-99767290D01*
X194099163Y-99812545D01*
X194099165Y-99812545D01*
X194099168Y-99812547D01*
X194195497Y-99843846D01*
X194278881Y-99870940D01*
X194465514Y-99900500D01*
X194465519Y-99900500D01*
X194654486Y-99900500D01*
X194841118Y-99870940D01*
X195020832Y-99812547D01*
X195189199Y-99726760D01*
X195342073Y-99615690D01*
X195475690Y-99482073D01*
X195586760Y-99329199D01*
X195672547Y-99160832D01*
X195712069Y-99039195D01*
X195751507Y-98981521D01*
X195815866Y-98954323D01*
X195884712Y-98966238D01*
X195936188Y-99013482D01*
X195947931Y-99039196D01*
X195987454Y-99160836D01*
X196073240Y-99329199D01*
X196184310Y-99482073D01*
X196317927Y-99615690D01*
X196470801Y-99726760D01*
X196550347Y-99767290D01*
X196639163Y-99812545D01*
X196639165Y-99812545D01*
X196639168Y-99812547D01*
X196735497Y-99843846D01*
X196818881Y-99870940D01*
X197005514Y-99900500D01*
X197005519Y-99900500D01*
X197194486Y-99900500D01*
X197381118Y-99870940D01*
X197560832Y-99812547D01*
X197729199Y-99726760D01*
X197882073Y-99615690D01*
X198015690Y-99482073D01*
X198126760Y-99329199D01*
X198212547Y-99160832D01*
X198270940Y-98981118D01*
X198275869Y-98950000D01*
X198300500Y-98794486D01*
X198300500Y-98605513D01*
X198270940Y-98418881D01*
X198212545Y-98239163D01*
X198167290Y-98150347D01*
X198126760Y-98070801D01*
X198015690Y-97917927D01*
X197882073Y-97784310D01*
X197729199Y-97673240D01*
X197687851Y-97652172D01*
X197648069Y-97631902D01*
X216749500Y-97631902D01*
X216749500Y-97868097D01*
X216786446Y-98101368D01*
X216859433Y-98325996D01*
X216914343Y-98433761D01*
X216966657Y-98536433D01*
X217105483Y-98727510D01*
X217272490Y-98894517D01*
X217463567Y-99033343D01*
X217562991Y-99084002D01*
X217674003Y-99140566D01*
X217674005Y-99140566D01*
X217674008Y-99140568D01*
X217752049Y-99165925D01*
X217898631Y-99213553D01*
X218131903Y-99250500D01*
X218131908Y-99250500D01*
X218368097Y-99250500D01*
X218601368Y-99213553D01*
X218825992Y-99140568D01*
X219036433Y-99033343D01*
X219227510Y-98894517D01*
X219394517Y-98727510D01*
X219533343Y-98536433D01*
X219640568Y-98325992D01*
X219713553Y-98101368D01*
X219718394Y-98070801D01*
X219750500Y-97868097D01*
X219750500Y-97631902D01*
X219713553Y-97398631D01*
X219648851Y-97199500D01*
X219640568Y-97174008D01*
X219640566Y-97174005D01*
X219640566Y-97174003D01*
X219579588Y-97054328D01*
X219533343Y-96963567D01*
X219394517Y-96772490D01*
X219227510Y-96605483D01*
X219036433Y-96466657D01*
X218825996Y-96359433D01*
X218601368Y-96286446D01*
X218368097Y-96249500D01*
X218368092Y-96249500D01*
X218131908Y-96249500D01*
X218131903Y-96249500D01*
X217898631Y-96286446D01*
X217674003Y-96359433D01*
X217463566Y-96466657D01*
X217365412Y-96537971D01*
X217272490Y-96605483D01*
X217272488Y-96605485D01*
X217272487Y-96605485D01*
X217105485Y-96772487D01*
X217105485Y-96772488D01*
X217105483Y-96772490D01*
X217105301Y-96772741D01*
X216966657Y-96963566D01*
X216859433Y-97174003D01*
X216786446Y-97398631D01*
X216749500Y-97631902D01*
X197648069Y-97631902D01*
X197560836Y-97587454D01*
X197381118Y-97529059D01*
X197194486Y-97499500D01*
X197194481Y-97499500D01*
X197005519Y-97499500D01*
X197005514Y-97499500D01*
X196818881Y-97529059D01*
X196639163Y-97587454D01*
X196470800Y-97673240D01*
X196396320Y-97727354D01*
X196317927Y-97784310D01*
X196317925Y-97784312D01*
X196317924Y-97784312D01*
X196184312Y-97917924D01*
X196184312Y-97917925D01*
X196184310Y-97917927D01*
X196144148Y-97973205D01*
X196073240Y-98070800D01*
X195987454Y-98239163D01*
X195947931Y-98360803D01*
X195908493Y-98418478D01*
X195844134Y-98445676D01*
X195775288Y-98433761D01*
X195723812Y-98386516D01*
X195712069Y-98360803D01*
X195672545Y-98239163D01*
X195627290Y-98150347D01*
X195586760Y-98070801D01*
X195475690Y-97917927D01*
X195342073Y-97784310D01*
X195189199Y-97673240D01*
X195147851Y-97652172D01*
X195020836Y-97587454D01*
X194841118Y-97529059D01*
X194654486Y-97499500D01*
X194654481Y-97499500D01*
X194465519Y-97499500D01*
X194465514Y-97499500D01*
X194278881Y-97529059D01*
X194099163Y-97587454D01*
X193930800Y-97673240D01*
X193856320Y-97727354D01*
X193777927Y-97784310D01*
X193777925Y-97784312D01*
X193777924Y-97784312D01*
X193731681Y-97830556D01*
X193670358Y-97864041D01*
X193600666Y-97859057D01*
X193544733Y-97817185D01*
X193520316Y-97751721D01*
X193520000Y-97742875D01*
X193520000Y-97652172D01*
X193519999Y-97652155D01*
X193513598Y-97592627D01*
X193513596Y-97592620D01*
X193463354Y-97457913D01*
X193463350Y-97457906D01*
X193377190Y-97342812D01*
X193377187Y-97342809D01*
X193262093Y-97256649D01*
X193262086Y-97256645D01*
X193127379Y-97206403D01*
X193127372Y-97206401D01*
X193067844Y-97200000D01*
X192270000Y-97200000D01*
X192270000Y-98266988D01*
X192212993Y-98234075D01*
X192085826Y-98200000D01*
X191954174Y-98200000D01*
X191827007Y-98234075D01*
X191770000Y-98266988D01*
X191770000Y-97200000D01*
X190972155Y-97200000D01*
X190912627Y-97206401D01*
X190912620Y-97206403D01*
X190777913Y-97256645D01*
X190777906Y-97256649D01*
X190662812Y-97342809D01*
X190662809Y-97342812D01*
X190576649Y-97457906D01*
X190576645Y-97457913D01*
X190526403Y-97592620D01*
X190526401Y-97592627D01*
X190520000Y-97652155D01*
X190520000Y-98450000D01*
X191586988Y-98450000D01*
X191554075Y-98507007D01*
X191520000Y-98634174D01*
X191520000Y-98765826D01*
X191554075Y-98892993D01*
X191586988Y-98950000D01*
X190520000Y-98950000D01*
X190520000Y-99747844D01*
X190526401Y-99807372D01*
X190526403Y-99807379D01*
X190576645Y-99942086D01*
X190576649Y-99942093D01*
X190643347Y-100031189D01*
X190667765Y-100096653D01*
X190652914Y-100164926D01*
X190603509Y-100214332D01*
X190544081Y-100229500D01*
X182314734Y-100229500D01*
X182247695Y-100209815D01*
X182201940Y-100157011D01*
X182191996Y-100087853D01*
X182194959Y-100073409D01*
X182200499Y-100052731D01*
X182200500Y-100052725D01*
X182200500Y-99947275D01*
X182200500Y-99947273D01*
X182173207Y-99845413D01*
X182120480Y-99754087D01*
X182045913Y-99679520D01*
X181954587Y-99626793D01*
X181852727Y-99599500D01*
X181747273Y-99599500D01*
X181645413Y-99626793D01*
X181645410Y-99626794D01*
X181554085Y-99679521D01*
X181479521Y-99754085D01*
X181426794Y-99845410D01*
X181426793Y-99845413D01*
X181399500Y-99947273D01*
X181399500Y-100052731D01*
X181405041Y-100073409D01*
X181403377Y-100143259D01*
X181364214Y-100201120D01*
X181299985Y-100228623D01*
X181285266Y-100229500D01*
X151514500Y-100229500D01*
X151447461Y-100209815D01*
X151401706Y-100157011D01*
X151390500Y-100105500D01*
X151390500Y-95680247D01*
X153349500Y-95680247D01*
X153349500Y-97119752D01*
X153361131Y-97178229D01*
X153361132Y-97178230D01*
X153405447Y-97244552D01*
X153471769Y-97288867D01*
X153471770Y-97288868D01*
X153530247Y-97300499D01*
X153530250Y-97300500D01*
X153530252Y-97300500D01*
X154969750Y-97300500D01*
X154969751Y-97300499D01*
X154984568Y-97297552D01*
X155028229Y-97288868D01*
X155028229Y-97288867D01*
X155028231Y-97288867D01*
X155094552Y-97244552D01*
X155138867Y-97178231D01*
X155138867Y-97178229D01*
X155138868Y-97178229D01*
X155150499Y-97119752D01*
X155150500Y-97119750D01*
X155150500Y-96722080D01*
X155170185Y-96655041D01*
X155222989Y-96609286D01*
X155292147Y-96599342D01*
X155355703Y-96628367D01*
X155389061Y-96674628D01*
X155451983Y-96826541D01*
X155451990Y-96826553D01*
X155550535Y-96974034D01*
X155550538Y-96974038D01*
X155675961Y-97099461D01*
X155675965Y-97099464D01*
X155823446Y-97198009D01*
X155823459Y-97198016D01*
X155892937Y-97226794D01*
X155987334Y-97265894D01*
X155987336Y-97265894D01*
X155987341Y-97265896D01*
X156161304Y-97300499D01*
X156161307Y-97300500D01*
X156161309Y-97300500D01*
X156338693Y-97300500D01*
X156338694Y-97300499D01*
X156397174Y-97288867D01*
X156512658Y-97265896D01*
X156512661Y-97265894D01*
X156512666Y-97265894D01*
X156676547Y-97198013D01*
X156824035Y-97099464D01*
X156949464Y-96974035D01*
X157048013Y-96826547D01*
X157115894Y-96662666D01*
X157119288Y-96645606D01*
X157128383Y-96599882D01*
X157160768Y-96537971D01*
X157221483Y-96503397D01*
X157291253Y-96507136D01*
X157347925Y-96548003D01*
X157371617Y-96599882D01*
X157384103Y-96662658D01*
X157384106Y-96662667D01*
X157451983Y-96826540D01*
X157451990Y-96826553D01*
X157550535Y-96974034D01*
X157550538Y-96974038D01*
X157675961Y-97099461D01*
X157675965Y-97099464D01*
X157823446Y-97198009D01*
X157823459Y-97198016D01*
X157892937Y-97226794D01*
X157987334Y-97265894D01*
X157987336Y-97265894D01*
X157987341Y-97265896D01*
X158161304Y-97300499D01*
X158161307Y-97300500D01*
X158161309Y-97300500D01*
X158338693Y-97300500D01*
X158338694Y-97300499D01*
X158397174Y-97288867D01*
X158512658Y-97265896D01*
X158512661Y-97265894D01*
X158512666Y-97265894D01*
X158676547Y-97198013D01*
X158824035Y-97099464D01*
X158949464Y-96974035D01*
X159048013Y-96826547D01*
X159115894Y-96662666D01*
X159119288Y-96645606D01*
X159128383Y-96599882D01*
X159160768Y-96537971D01*
X159221483Y-96503397D01*
X159291253Y-96507136D01*
X159347925Y-96548003D01*
X159371617Y-96599882D01*
X159384103Y-96662658D01*
X159384106Y-96662667D01*
X159451983Y-96826540D01*
X159451990Y-96826553D01*
X159550535Y-96974034D01*
X159550538Y-96974038D01*
X159675961Y-97099461D01*
X159675965Y-97099464D01*
X159823446Y-97198009D01*
X159823459Y-97198016D01*
X159892937Y-97226794D01*
X159987334Y-97265894D01*
X159987336Y-97265894D01*
X159987341Y-97265896D01*
X160161304Y-97300499D01*
X160161307Y-97300500D01*
X160161309Y-97300500D01*
X160338693Y-97300500D01*
X160338694Y-97300499D01*
X160397174Y-97288867D01*
X160512658Y-97265896D01*
X160512661Y-97265894D01*
X160512666Y-97265894D01*
X160676547Y-97198013D01*
X160824035Y-97099464D01*
X160949464Y-96974035D01*
X161048013Y-96826547D01*
X161115894Y-96662666D01*
X161119288Y-96645606D01*
X161128383Y-96599882D01*
X161160768Y-96537971D01*
X161221483Y-96503397D01*
X161291253Y-96507136D01*
X161347925Y-96548003D01*
X161371617Y-96599882D01*
X161384103Y-96662658D01*
X161384106Y-96662667D01*
X161451983Y-96826540D01*
X161451990Y-96826553D01*
X161550535Y-96974034D01*
X161550538Y-96974038D01*
X161675961Y-97099461D01*
X161675965Y-97099464D01*
X161823446Y-97198009D01*
X161823459Y-97198016D01*
X161892937Y-97226794D01*
X161987334Y-97265894D01*
X161987336Y-97265894D01*
X161987341Y-97265896D01*
X162161304Y-97300499D01*
X162161307Y-97300500D01*
X162161309Y-97300500D01*
X162338693Y-97300500D01*
X162338694Y-97300499D01*
X162397174Y-97288867D01*
X162512658Y-97265896D01*
X162512661Y-97265894D01*
X162512666Y-97265894D01*
X162676547Y-97198013D01*
X162824035Y-97099464D01*
X162949464Y-96974035D01*
X163048013Y-96826547D01*
X163115894Y-96662666D01*
X163119288Y-96645606D01*
X163128383Y-96599882D01*
X163160768Y-96537971D01*
X163221483Y-96503397D01*
X163291253Y-96507136D01*
X163347925Y-96548003D01*
X163371617Y-96599882D01*
X163384103Y-96662658D01*
X163384106Y-96662667D01*
X163451983Y-96826540D01*
X163451990Y-96826553D01*
X163550535Y-96974034D01*
X163550538Y-96974038D01*
X163675961Y-97099461D01*
X163675965Y-97099464D01*
X163823446Y-97198009D01*
X163823459Y-97198016D01*
X163892937Y-97226794D01*
X163987334Y-97265894D01*
X163987336Y-97265894D01*
X163987341Y-97265896D01*
X164161304Y-97300499D01*
X164161307Y-97300500D01*
X164161309Y-97300500D01*
X164338693Y-97300500D01*
X164338694Y-97300499D01*
X164397174Y-97288867D01*
X164512658Y-97265896D01*
X164512661Y-97265894D01*
X164512666Y-97265894D01*
X164676547Y-97198013D01*
X164824035Y-97099464D01*
X164949464Y-96974035D01*
X165048013Y-96826547D01*
X165115894Y-96662666D01*
X165119288Y-96645606D01*
X165128383Y-96599882D01*
X165160768Y-96537971D01*
X165221483Y-96503397D01*
X165291253Y-96507136D01*
X165347925Y-96548003D01*
X165371617Y-96599882D01*
X165384103Y-96662658D01*
X165384106Y-96662667D01*
X165451983Y-96826540D01*
X165451990Y-96826553D01*
X165550535Y-96974034D01*
X165550538Y-96974038D01*
X165675961Y-97099461D01*
X165675965Y-97099464D01*
X165823446Y-97198009D01*
X165823459Y-97198016D01*
X165892937Y-97226794D01*
X165987334Y-97265894D01*
X165987336Y-97265894D01*
X165987341Y-97265896D01*
X166161304Y-97300499D01*
X166161307Y-97300500D01*
X166161309Y-97300500D01*
X166338693Y-97300500D01*
X166338694Y-97300499D01*
X166397174Y-97288867D01*
X166512658Y-97265896D01*
X166512661Y-97265894D01*
X166512666Y-97265894D01*
X166676547Y-97198013D01*
X166824035Y-97099464D01*
X166949464Y-96974035D01*
X167048013Y-96826547D01*
X167115894Y-96662666D01*
X167119288Y-96645606D01*
X167128383Y-96599882D01*
X167160768Y-96537971D01*
X167221483Y-96503397D01*
X167291253Y-96507136D01*
X167347925Y-96548003D01*
X167371617Y-96599882D01*
X167384103Y-96662658D01*
X167384106Y-96662667D01*
X167451983Y-96826540D01*
X167451990Y-96826553D01*
X167550535Y-96974034D01*
X167550538Y-96974038D01*
X167675961Y-97099461D01*
X167675965Y-97099464D01*
X167823446Y-97198009D01*
X167823459Y-97198016D01*
X167892937Y-97226794D01*
X167987334Y-97265894D01*
X167987336Y-97265894D01*
X167987341Y-97265896D01*
X168161304Y-97300499D01*
X168161307Y-97300500D01*
X168161309Y-97300500D01*
X168338693Y-97300500D01*
X168338694Y-97300499D01*
X168397174Y-97288867D01*
X168512658Y-97265896D01*
X168512661Y-97265894D01*
X168512666Y-97265894D01*
X168676547Y-97198013D01*
X168824035Y-97099464D01*
X168949464Y-96974035D01*
X169048013Y-96826547D01*
X169115894Y-96662666D01*
X169119288Y-96645606D01*
X169128383Y-96599882D01*
X169160768Y-96537971D01*
X169221483Y-96503397D01*
X169291253Y-96507136D01*
X169347925Y-96548003D01*
X169371617Y-96599882D01*
X169384103Y-96662658D01*
X169384106Y-96662667D01*
X169451983Y-96826540D01*
X169451990Y-96826553D01*
X169550535Y-96974034D01*
X169550538Y-96974038D01*
X169675961Y-97099461D01*
X169675965Y-97099464D01*
X169823446Y-97198009D01*
X169823459Y-97198016D01*
X169892937Y-97226794D01*
X169987334Y-97265894D01*
X169987336Y-97265894D01*
X169987341Y-97265896D01*
X170161304Y-97300499D01*
X170161307Y-97300500D01*
X170161309Y-97300500D01*
X170338693Y-97300500D01*
X170338694Y-97300499D01*
X170397174Y-97288867D01*
X170512658Y-97265896D01*
X170512661Y-97265894D01*
X170512666Y-97265894D01*
X170607063Y-97226794D01*
X170676541Y-97198016D01*
X170676544Y-97198014D01*
X170676547Y-97198013D01*
X170824035Y-97099464D01*
X170949464Y-96974035D01*
X170971624Y-96940869D01*
X171025235Y-96896064D01*
X171094560Y-96887355D01*
X171157588Y-96917509D01*
X171185211Y-96953463D01*
X171223664Y-97028930D01*
X171242116Y-97054328D01*
X171850000Y-96446445D01*
X171850000Y-96452661D01*
X171877259Y-96554394D01*
X171929920Y-96645606D01*
X172004394Y-96720080D01*
X172095606Y-96772741D01*
X172197339Y-96800000D01*
X172203554Y-96800000D01*
X171595669Y-97407882D01*
X171595670Y-97407883D01*
X171621059Y-97426329D01*
X171789362Y-97512085D01*
X171968997Y-97570451D01*
X172155553Y-97600000D01*
X172344447Y-97600000D01*
X172531002Y-97570451D01*
X172602338Y-97547273D01*
X176699500Y-97547273D01*
X176699500Y-97652727D01*
X176726793Y-97754587D01*
X176779520Y-97845913D01*
X176854087Y-97920480D01*
X176945413Y-97973207D01*
X177047273Y-98000500D01*
X177047275Y-98000500D01*
X177152725Y-98000500D01*
X177152727Y-98000500D01*
X177254587Y-97973207D01*
X177345913Y-97920480D01*
X177420480Y-97845913D01*
X177473207Y-97754587D01*
X177500500Y-97652727D01*
X177500500Y-97547273D01*
X177799500Y-97547273D01*
X177799500Y-97652727D01*
X177826793Y-97754587D01*
X177879520Y-97845913D01*
X177954087Y-97920480D01*
X178045413Y-97973207D01*
X178147273Y-98000500D01*
X178147275Y-98000500D01*
X178252725Y-98000500D01*
X178252727Y-98000500D01*
X178354587Y-97973207D01*
X178445913Y-97920480D01*
X178520480Y-97845913D01*
X178573207Y-97754587D01*
X178600500Y-97652727D01*
X178600500Y-97547273D01*
X180099500Y-97547273D01*
X180099500Y-97652727D01*
X180126793Y-97754587D01*
X180179520Y-97845913D01*
X180254087Y-97920480D01*
X180345413Y-97973207D01*
X180447273Y-98000500D01*
X180447275Y-98000500D01*
X180552725Y-98000500D01*
X180552727Y-98000500D01*
X180654587Y-97973207D01*
X180745913Y-97920480D01*
X180820480Y-97845913D01*
X180873207Y-97754587D01*
X180875167Y-97747273D01*
X182999500Y-97747273D01*
X182999500Y-97852727D01*
X183026793Y-97954587D01*
X183079520Y-98045913D01*
X183154087Y-98120480D01*
X183245413Y-98173207D01*
X183347273Y-98200500D01*
X183347275Y-98200500D01*
X183452725Y-98200500D01*
X183452727Y-98200500D01*
X183554587Y-98173207D01*
X183645913Y-98120480D01*
X183720480Y-98045913D01*
X183773207Y-97954587D01*
X183800500Y-97852727D01*
X183800500Y-97747273D01*
X183773207Y-97645413D01*
X183720480Y-97554087D01*
X183645913Y-97479520D01*
X183579059Y-97440922D01*
X183554589Y-97426794D01*
X183554588Y-97426793D01*
X183554587Y-97426793D01*
X183452727Y-97399500D01*
X183347273Y-97399500D01*
X183245413Y-97426793D01*
X183245410Y-97426794D01*
X183154085Y-97479521D01*
X183079521Y-97554085D01*
X183026794Y-97645410D01*
X183026793Y-97645413D01*
X182999500Y-97747273D01*
X180875167Y-97747273D01*
X180900500Y-97652727D01*
X180900500Y-97547273D01*
X180873207Y-97445413D01*
X180820480Y-97354087D01*
X180745913Y-97279520D01*
X180654587Y-97226793D01*
X180552727Y-97199500D01*
X180447273Y-97199500D01*
X180345413Y-97226793D01*
X180345410Y-97226794D01*
X180254085Y-97279521D01*
X180179521Y-97354085D01*
X180126794Y-97445410D01*
X180126793Y-97445413D01*
X180099500Y-97547273D01*
X178600500Y-97547273D01*
X178573207Y-97445413D01*
X178520480Y-97354087D01*
X178445913Y-97279520D01*
X178354587Y-97226793D01*
X178252727Y-97199500D01*
X178147273Y-97199500D01*
X178045413Y-97226793D01*
X178045410Y-97226794D01*
X177954085Y-97279521D01*
X177879521Y-97354085D01*
X177826794Y-97445410D01*
X177826793Y-97445413D01*
X177799500Y-97547273D01*
X177500500Y-97547273D01*
X177473207Y-97445413D01*
X177420480Y-97354087D01*
X177345913Y-97279520D01*
X177254587Y-97226793D01*
X177152727Y-97199500D01*
X177047273Y-97199500D01*
X176945413Y-97226793D01*
X176945410Y-97226794D01*
X176854085Y-97279521D01*
X176779521Y-97354085D01*
X176726794Y-97445410D01*
X176726793Y-97445413D01*
X176699500Y-97547273D01*
X172602338Y-97547273D01*
X172710637Y-97512085D01*
X172874366Y-97428661D01*
X172874367Y-97428660D01*
X172878933Y-97426333D01*
X172878935Y-97426333D01*
X172904328Y-97407883D01*
X172904328Y-97407882D01*
X172296447Y-96800000D01*
X172302661Y-96800000D01*
X172404394Y-96772741D01*
X172495606Y-96720080D01*
X172570080Y-96645606D01*
X172622741Y-96554394D01*
X172650000Y-96452661D01*
X172650000Y-96446446D01*
X173257882Y-97054328D01*
X173257883Y-97054328D01*
X173276331Y-97028937D01*
X173362085Y-96860637D01*
X173420451Y-96681002D01*
X173450000Y-96494447D01*
X173450000Y-96305552D01*
X173420452Y-96118998D01*
X173374465Y-95977464D01*
X173374464Y-95977462D01*
X173364656Y-95947273D01*
X203399500Y-95947273D01*
X203399500Y-96052727D01*
X203426793Y-96154587D01*
X203479520Y-96245913D01*
X203554087Y-96320480D01*
X203645413Y-96373207D01*
X203747273Y-96400500D01*
X203747275Y-96400500D01*
X203852725Y-96400500D01*
X203852727Y-96400500D01*
X203954587Y-96373207D01*
X204045913Y-96320480D01*
X204120480Y-96245913D01*
X204173207Y-96154587D01*
X204200500Y-96052727D01*
X204200500Y-95947273D01*
X204173207Y-95845413D01*
X204120480Y-95754087D01*
X204045913Y-95679520D01*
X203954587Y-95626793D01*
X203852727Y-95599500D01*
X203747273Y-95599500D01*
X203645413Y-95626793D01*
X203645410Y-95626794D01*
X203554085Y-95679521D01*
X203479521Y-95754085D01*
X203426794Y-95845410D01*
X203426793Y-95845413D01*
X203399500Y-95947273D01*
X173364656Y-95947273D01*
X173362086Y-95939364D01*
X173276329Y-95771059D01*
X173257883Y-95745670D01*
X173257882Y-95745669D01*
X172650000Y-96353552D01*
X172650000Y-96347339D01*
X172622741Y-96245606D01*
X172570080Y-96154394D01*
X172495606Y-96079920D01*
X172404394Y-96027259D01*
X172302661Y-96000000D01*
X172296447Y-96000000D01*
X172904328Y-95392116D01*
X172878933Y-95373666D01*
X172710637Y-95287914D01*
X172531002Y-95229548D01*
X172344447Y-95200000D01*
X172155553Y-95200000D01*
X171968997Y-95229548D01*
X171789362Y-95287914D01*
X171621060Y-95373669D01*
X171595670Y-95392116D01*
X171595669Y-95392116D01*
X172203554Y-96000000D01*
X172197339Y-96000000D01*
X172095606Y-96027259D01*
X172004394Y-96079920D01*
X171929920Y-96154394D01*
X171877259Y-96245606D01*
X171850000Y-96347339D01*
X171850000Y-96353553D01*
X171242116Y-95745669D01*
X171242116Y-95745670D01*
X171223669Y-95771060D01*
X171185211Y-95846537D01*
X171137236Y-95897332D01*
X171069414Y-95914126D01*
X171003280Y-95891587D01*
X170971625Y-95859130D01*
X170949467Y-95825969D01*
X170949461Y-95825961D01*
X170824038Y-95700538D01*
X170824034Y-95700535D01*
X170676553Y-95601990D01*
X170676540Y-95601983D01*
X170560545Y-95553937D01*
X170560543Y-95553937D01*
X170512666Y-95534106D01*
X170512659Y-95534104D01*
X170512658Y-95534104D01*
X170512658Y-95534103D01*
X170338694Y-95499500D01*
X170338691Y-95499500D01*
X170161309Y-95499500D01*
X170161306Y-95499500D01*
X169987341Y-95534103D01*
X169987332Y-95534106D01*
X169823459Y-95601983D01*
X169823446Y-95601990D01*
X169675965Y-95700535D01*
X169675961Y-95700538D01*
X169550538Y-95825961D01*
X169550535Y-95825965D01*
X169451990Y-95973446D01*
X169451983Y-95973459D01*
X169384106Y-96137332D01*
X169384104Y-96137340D01*
X169371617Y-96200118D01*
X169339232Y-96262028D01*
X169278516Y-96296603D01*
X169208747Y-96292863D01*
X169152075Y-96251996D01*
X169128383Y-96200118D01*
X169115895Y-96137340D01*
X169115894Y-96137334D01*
X169080848Y-96052725D01*
X169048016Y-95973459D01*
X169048009Y-95973446D01*
X168949464Y-95825965D01*
X168949461Y-95825961D01*
X168824038Y-95700538D01*
X168824034Y-95700535D01*
X168676553Y-95601990D01*
X168676540Y-95601983D01*
X168512667Y-95534106D01*
X168512658Y-95534103D01*
X168338694Y-95499500D01*
X168338691Y-95499500D01*
X168161309Y-95499500D01*
X168161306Y-95499500D01*
X167987341Y-95534103D01*
X167987332Y-95534106D01*
X167823459Y-95601983D01*
X167823446Y-95601990D01*
X167675965Y-95700535D01*
X167675961Y-95700538D01*
X167550538Y-95825961D01*
X167550535Y-95825965D01*
X167451990Y-95973446D01*
X167451983Y-95973459D01*
X167384106Y-96137332D01*
X167384104Y-96137340D01*
X167371617Y-96200118D01*
X167339232Y-96262028D01*
X167278516Y-96296603D01*
X167208747Y-96292863D01*
X167152075Y-96251996D01*
X167128383Y-96200118D01*
X167115895Y-96137340D01*
X167115894Y-96137334D01*
X167080848Y-96052725D01*
X167048016Y-95973459D01*
X167048009Y-95973446D01*
X166949464Y-95825965D01*
X166949461Y-95825961D01*
X166824038Y-95700538D01*
X166824034Y-95700535D01*
X166676553Y-95601990D01*
X166676540Y-95601983D01*
X166512667Y-95534106D01*
X166512658Y-95534103D01*
X166338694Y-95499500D01*
X166338691Y-95499500D01*
X166161309Y-95499500D01*
X166161306Y-95499500D01*
X165987341Y-95534103D01*
X165987332Y-95534106D01*
X165823459Y-95601983D01*
X165823446Y-95601990D01*
X165675965Y-95700535D01*
X165675961Y-95700538D01*
X165550538Y-95825961D01*
X165550535Y-95825965D01*
X165451990Y-95973446D01*
X165451983Y-95973459D01*
X165384106Y-96137332D01*
X165384104Y-96137340D01*
X165371617Y-96200118D01*
X165339232Y-96262028D01*
X165278516Y-96296603D01*
X165208747Y-96292863D01*
X165152075Y-96251996D01*
X165128383Y-96200118D01*
X165115895Y-96137340D01*
X165115894Y-96137334D01*
X165080848Y-96052725D01*
X165048016Y-95973459D01*
X165048009Y-95973446D01*
X164949464Y-95825965D01*
X164949461Y-95825961D01*
X164824038Y-95700538D01*
X164824034Y-95700535D01*
X164676553Y-95601990D01*
X164676540Y-95601983D01*
X164512667Y-95534106D01*
X164512658Y-95534103D01*
X164338694Y-95499500D01*
X164338691Y-95499500D01*
X164161309Y-95499500D01*
X164161306Y-95499500D01*
X163987341Y-95534103D01*
X163987332Y-95534106D01*
X163823459Y-95601983D01*
X163823446Y-95601990D01*
X163675965Y-95700535D01*
X163675961Y-95700538D01*
X163550538Y-95825961D01*
X163550535Y-95825965D01*
X163451990Y-95973446D01*
X163451983Y-95973459D01*
X163384106Y-96137332D01*
X163384104Y-96137340D01*
X163371617Y-96200118D01*
X163339232Y-96262028D01*
X163278516Y-96296603D01*
X163208747Y-96292863D01*
X163152075Y-96251996D01*
X163128383Y-96200118D01*
X163115895Y-96137340D01*
X163115894Y-96137334D01*
X163080848Y-96052725D01*
X163048016Y-95973459D01*
X163048009Y-95973446D01*
X162949464Y-95825965D01*
X162949461Y-95825961D01*
X162824038Y-95700538D01*
X162824034Y-95700535D01*
X162676553Y-95601990D01*
X162676540Y-95601983D01*
X162512667Y-95534106D01*
X162512658Y-95534103D01*
X162338694Y-95499500D01*
X162338691Y-95499500D01*
X162161309Y-95499500D01*
X162161306Y-95499500D01*
X161987341Y-95534103D01*
X161987332Y-95534106D01*
X161823459Y-95601983D01*
X161823446Y-95601990D01*
X161675965Y-95700535D01*
X161675961Y-95700538D01*
X161550538Y-95825961D01*
X161550535Y-95825965D01*
X161451990Y-95973446D01*
X161451983Y-95973459D01*
X161384106Y-96137332D01*
X161384104Y-96137340D01*
X161371617Y-96200118D01*
X161339232Y-96262028D01*
X161278516Y-96296603D01*
X161208747Y-96292863D01*
X161152075Y-96251996D01*
X161128383Y-96200118D01*
X161115895Y-96137340D01*
X161115894Y-96137334D01*
X161080848Y-96052725D01*
X161048016Y-95973459D01*
X161048009Y-95973446D01*
X160949464Y-95825965D01*
X160949461Y-95825961D01*
X160824038Y-95700538D01*
X160824034Y-95700535D01*
X160676553Y-95601990D01*
X160676540Y-95601983D01*
X160512667Y-95534106D01*
X160512658Y-95534103D01*
X160338694Y-95499500D01*
X160338691Y-95499500D01*
X160161309Y-95499500D01*
X160161306Y-95499500D01*
X159987341Y-95534103D01*
X159987332Y-95534106D01*
X159823459Y-95601983D01*
X159823446Y-95601990D01*
X159675965Y-95700535D01*
X159675961Y-95700538D01*
X159550538Y-95825961D01*
X159550535Y-95825965D01*
X159451990Y-95973446D01*
X159451983Y-95973459D01*
X159384106Y-96137332D01*
X159384104Y-96137340D01*
X159371617Y-96200118D01*
X159339232Y-96262028D01*
X159278516Y-96296603D01*
X159208747Y-96292863D01*
X159152075Y-96251996D01*
X159128383Y-96200118D01*
X159115895Y-96137340D01*
X159115894Y-96137334D01*
X159080848Y-96052725D01*
X159048016Y-95973459D01*
X159048009Y-95973446D01*
X158949464Y-95825965D01*
X158949461Y-95825961D01*
X158824038Y-95700538D01*
X158824034Y-95700535D01*
X158676553Y-95601990D01*
X158676540Y-95601983D01*
X158512667Y-95534106D01*
X158512658Y-95534103D01*
X158338694Y-95499500D01*
X158338691Y-95499500D01*
X158161309Y-95499500D01*
X158161306Y-95499500D01*
X157987341Y-95534103D01*
X157987332Y-95534106D01*
X157823459Y-95601983D01*
X157823446Y-95601990D01*
X157675965Y-95700535D01*
X157675961Y-95700538D01*
X157550538Y-95825961D01*
X157550535Y-95825965D01*
X157451990Y-95973446D01*
X157451983Y-95973459D01*
X157384106Y-96137332D01*
X157384104Y-96137340D01*
X157371617Y-96200118D01*
X157339232Y-96262028D01*
X157278516Y-96296603D01*
X157208747Y-96292863D01*
X157152075Y-96251996D01*
X157128383Y-96200118D01*
X157115895Y-96137340D01*
X157115894Y-96137334D01*
X157080848Y-96052725D01*
X157048016Y-95973459D01*
X157048009Y-95973446D01*
X156949464Y-95825965D01*
X156949461Y-95825961D01*
X156824038Y-95700538D01*
X156824034Y-95700535D01*
X156676553Y-95601990D01*
X156676540Y-95601983D01*
X156512667Y-95534106D01*
X156512658Y-95534103D01*
X156338694Y-95499500D01*
X156338691Y-95499500D01*
X156161309Y-95499500D01*
X156161306Y-95499500D01*
X155987341Y-95534103D01*
X155987332Y-95534106D01*
X155823459Y-95601983D01*
X155823446Y-95601990D01*
X155675965Y-95700535D01*
X155675961Y-95700538D01*
X155550538Y-95825961D01*
X155550535Y-95825965D01*
X155451990Y-95973446D01*
X155451983Y-95973459D01*
X155389061Y-96125371D01*
X155345221Y-96179775D01*
X155278927Y-96201840D01*
X155211227Y-96184561D01*
X155163616Y-96133424D01*
X155150500Y-96077919D01*
X155150500Y-95680249D01*
X155150499Y-95680247D01*
X155138868Y-95621770D01*
X155138867Y-95621769D01*
X155094552Y-95555447D01*
X155028230Y-95511132D01*
X155028229Y-95511131D01*
X154969752Y-95499500D01*
X154969748Y-95499500D01*
X153530252Y-95499500D01*
X153530247Y-95499500D01*
X153471770Y-95511131D01*
X153471769Y-95511132D01*
X153405447Y-95555447D01*
X153361132Y-95621769D01*
X153361131Y-95621770D01*
X153349500Y-95680247D01*
X151390500Y-95680247D01*
X151390500Y-95047273D01*
X188599500Y-95047273D01*
X188599500Y-95152727D01*
X188626793Y-95254587D01*
X188679520Y-95345913D01*
X188754087Y-95420480D01*
X188845413Y-95473207D01*
X188947273Y-95500500D01*
X188947275Y-95500500D01*
X189052725Y-95500500D01*
X189052727Y-95500500D01*
X189154587Y-95473207D01*
X189245913Y-95420480D01*
X189320480Y-95345913D01*
X189373207Y-95254587D01*
X189400500Y-95152727D01*
X189400500Y-95047273D01*
X189373207Y-94945413D01*
X189320480Y-94854087D01*
X189245913Y-94779520D01*
X189154587Y-94726793D01*
X189052727Y-94699500D01*
X188947273Y-94699500D01*
X188845413Y-94726793D01*
X188845410Y-94726794D01*
X188754085Y-94779521D01*
X188679521Y-94854085D01*
X188626794Y-94945410D01*
X188626793Y-94945413D01*
X188599500Y-95047273D01*
X151390500Y-95047273D01*
X151390500Y-94147273D01*
X186799500Y-94147273D01*
X186799500Y-94252727D01*
X186826793Y-94354587D01*
X186879520Y-94445913D01*
X186954087Y-94520480D01*
X187045413Y-94573207D01*
X187147273Y-94600500D01*
X187147275Y-94600500D01*
X187252725Y-94600500D01*
X187252727Y-94600500D01*
X187354587Y-94573207D01*
X187445913Y-94520480D01*
X187520480Y-94445913D01*
X187573207Y-94354587D01*
X187600500Y-94252727D01*
X187600500Y-94147273D01*
X187573207Y-94045413D01*
X187520480Y-93954087D01*
X187445913Y-93879520D01*
X187354587Y-93826793D01*
X187252727Y-93799500D01*
X187147273Y-93799500D01*
X187045413Y-93826793D01*
X187045410Y-93826794D01*
X186954085Y-93879521D01*
X186879521Y-93954085D01*
X186826794Y-94045410D01*
X186826793Y-94045413D01*
X186799500Y-94147273D01*
X151390500Y-94147273D01*
X151390500Y-92147273D01*
X199749500Y-92147273D01*
X199749500Y-92252727D01*
X199776793Y-92354587D01*
X199829520Y-92445913D01*
X199904087Y-92520480D01*
X199995413Y-92573207D01*
X200097273Y-92600500D01*
X200097275Y-92600500D01*
X200202725Y-92600500D01*
X200202727Y-92600500D01*
X200304587Y-92573207D01*
X200395913Y-92520480D01*
X200470480Y-92445913D01*
X200523207Y-92354587D01*
X200550500Y-92252727D01*
X200550500Y-92147273D01*
X200523207Y-92045413D01*
X200470480Y-91954087D01*
X200395913Y-91879520D01*
X200304587Y-91826793D01*
X200202727Y-91799500D01*
X200097273Y-91799500D01*
X199995413Y-91826793D01*
X199995410Y-91826794D01*
X199904085Y-91879521D01*
X199829521Y-91954085D01*
X199776794Y-92045410D01*
X199776793Y-92045413D01*
X199749500Y-92147273D01*
X151390500Y-92147273D01*
X151390500Y-91747273D01*
X202799500Y-91747273D01*
X202799500Y-91852727D01*
X202826793Y-91954587D01*
X202879520Y-92045913D01*
X202954087Y-92120480D01*
X203045413Y-92173207D01*
X203147273Y-92200500D01*
X203147275Y-92200500D01*
X203252725Y-92200500D01*
X203252727Y-92200500D01*
X203354587Y-92173207D01*
X203445913Y-92120480D01*
X203520480Y-92045913D01*
X203573207Y-91954587D01*
X203600500Y-91852727D01*
X203600500Y-91747273D01*
X203573207Y-91645413D01*
X203520480Y-91554087D01*
X203445913Y-91479520D01*
X203368409Y-91434773D01*
X207709500Y-91434773D01*
X207709500Y-91540227D01*
X207729346Y-91614292D01*
X207736793Y-91642086D01*
X207736794Y-91642089D01*
X207738713Y-91645413D01*
X207789520Y-91733413D01*
X207864087Y-91807980D01*
X207955413Y-91860707D01*
X207981606Y-91867725D01*
X208041267Y-91904090D01*
X208071796Y-91966937D01*
X208063501Y-92036312D01*
X208019016Y-92090190D01*
X207981607Y-92107274D01*
X207955417Y-92114292D01*
X207955413Y-92114293D01*
X207955410Y-92114294D01*
X207864085Y-92167021D01*
X207789521Y-92241585D01*
X207736794Y-92332910D01*
X207736793Y-92332913D01*
X207709500Y-92434773D01*
X207709500Y-92540227D01*
X207736793Y-92642087D01*
X207789520Y-92733413D01*
X207864087Y-92807980D01*
X207955413Y-92860707D01*
X207981606Y-92867725D01*
X208041267Y-92904090D01*
X208071796Y-92966937D01*
X208063501Y-93036312D01*
X208019016Y-93090190D01*
X207981607Y-93107274D01*
X207955417Y-93114292D01*
X207955413Y-93114293D01*
X207955410Y-93114294D01*
X207864085Y-93167021D01*
X207789521Y-93241585D01*
X207736794Y-93332910D01*
X207736793Y-93332913D01*
X207709500Y-93434773D01*
X207709500Y-93540227D01*
X207736793Y-93642087D01*
X207789520Y-93733413D01*
X207864087Y-93807980D01*
X207955413Y-93860707D01*
X207981606Y-93867725D01*
X208041267Y-93904090D01*
X208071796Y-93966937D01*
X208063501Y-94036312D01*
X208019016Y-94090190D01*
X207981607Y-94107274D01*
X207955417Y-94114292D01*
X207955413Y-94114293D01*
X207955410Y-94114294D01*
X207864085Y-94167021D01*
X207789521Y-94241585D01*
X207736794Y-94332910D01*
X207736793Y-94332913D01*
X207709500Y-94434773D01*
X207709500Y-94540227D01*
X207736793Y-94642087D01*
X207789520Y-94733413D01*
X207864087Y-94807980D01*
X207955413Y-94860707D01*
X207981606Y-94867725D01*
X208041267Y-94904090D01*
X208071796Y-94966937D01*
X208063501Y-95036312D01*
X208019016Y-95090190D01*
X207981607Y-95107274D01*
X207955417Y-95114292D01*
X207955413Y-95114293D01*
X207955410Y-95114294D01*
X207864085Y-95167021D01*
X207789521Y-95241585D01*
X207736794Y-95332910D01*
X207736793Y-95332913D01*
X207709500Y-95434773D01*
X207709500Y-95540227D01*
X207736793Y-95642087D01*
X207789520Y-95733413D01*
X207864087Y-95807980D01*
X207955413Y-95860707D01*
X208057273Y-95888000D01*
X208057275Y-95888000D01*
X208162725Y-95888000D01*
X208162727Y-95888000D01*
X208264587Y-95860707D01*
X208355913Y-95807980D01*
X208430480Y-95733413D01*
X208483207Y-95642087D01*
X208510500Y-95540227D01*
X208510500Y-95434773D01*
X208483207Y-95332913D01*
X208430480Y-95241587D01*
X208355913Y-95167020D01*
X208264587Y-95114293D01*
X208264585Y-95114292D01*
X208248979Y-95110111D01*
X208238393Y-95107274D01*
X208178733Y-95070911D01*
X208148203Y-95008064D01*
X208156497Y-94938688D01*
X208200982Y-94884810D01*
X208238392Y-94867725D01*
X208264587Y-94860707D01*
X208355913Y-94807980D01*
X208430480Y-94733413D01*
X208483207Y-94642087D01*
X208510500Y-94540227D01*
X208510500Y-94434773D01*
X208483207Y-94332913D01*
X208430480Y-94241587D01*
X208355913Y-94167020D01*
X208264587Y-94114293D01*
X208264585Y-94114292D01*
X208248979Y-94110111D01*
X208238393Y-94107274D01*
X208178733Y-94070911D01*
X208148203Y-94008064D01*
X208156497Y-93938688D01*
X208200982Y-93884810D01*
X208238392Y-93867725D01*
X208264587Y-93860707D01*
X208355913Y-93807980D01*
X208430480Y-93733413D01*
X208483207Y-93642087D01*
X208510500Y-93540227D01*
X208510500Y-93434773D01*
X208483207Y-93332913D01*
X208430480Y-93241587D01*
X208355913Y-93167020D01*
X208264587Y-93114293D01*
X208264585Y-93114292D01*
X208248979Y-93110111D01*
X208238393Y-93107274D01*
X208178733Y-93070911D01*
X208148203Y-93008064D01*
X208156497Y-92938688D01*
X208200982Y-92884810D01*
X208238392Y-92867725D01*
X208264587Y-92860707D01*
X208355913Y-92807980D01*
X208430480Y-92733413D01*
X208483207Y-92642087D01*
X208510500Y-92540227D01*
X208510500Y-92434773D01*
X208483207Y-92332913D01*
X208430480Y-92241587D01*
X208355913Y-92167020D01*
X208264587Y-92114293D01*
X208264585Y-92114292D01*
X208248979Y-92110111D01*
X208238393Y-92107274D01*
X208178733Y-92070911D01*
X208148203Y-92008064D01*
X208156497Y-91938688D01*
X208200982Y-91884810D01*
X208238392Y-91867725D01*
X208264587Y-91860707D01*
X208355913Y-91807980D01*
X208430480Y-91733413D01*
X208483207Y-91642087D01*
X208510500Y-91540227D01*
X208510500Y-91434773D01*
X208483207Y-91332913D01*
X208430480Y-91241587D01*
X208355913Y-91167020D01*
X208264587Y-91114293D01*
X208162727Y-91087000D01*
X208057273Y-91087000D01*
X207955413Y-91114293D01*
X207955410Y-91114294D01*
X207864085Y-91167021D01*
X207789521Y-91241585D01*
X207736794Y-91332910D01*
X207736793Y-91332913D01*
X207709500Y-91434773D01*
X203368409Y-91434773D01*
X203354587Y-91426793D01*
X203252727Y-91399500D01*
X203147273Y-91399500D01*
X203045413Y-91426793D01*
X203045410Y-91426794D01*
X202954085Y-91479521D01*
X202879521Y-91554085D01*
X202826794Y-91645410D01*
X202826793Y-91645413D01*
X202799500Y-91747273D01*
X151390500Y-91747273D01*
X151390500Y-90947273D01*
X177799500Y-90947273D01*
X177799500Y-91052727D01*
X177826793Y-91154587D01*
X177879520Y-91245913D01*
X177954087Y-91320480D01*
X178045413Y-91373207D01*
X178147273Y-91400500D01*
X178147275Y-91400500D01*
X178252725Y-91400500D01*
X178252727Y-91400500D01*
X178354587Y-91373207D01*
X178445913Y-91320480D01*
X178520480Y-91245913D01*
X178573207Y-91154587D01*
X178600500Y-91052727D01*
X178600500Y-90947273D01*
X179999500Y-90947273D01*
X179999500Y-91052727D01*
X180026793Y-91154587D01*
X180079520Y-91245913D01*
X180154087Y-91320480D01*
X180245413Y-91373207D01*
X180347273Y-91400500D01*
X180347275Y-91400500D01*
X180452725Y-91400500D01*
X180452727Y-91400500D01*
X180554587Y-91373207D01*
X180645913Y-91320480D01*
X180720480Y-91245913D01*
X180773207Y-91154587D01*
X180800500Y-91052727D01*
X180800500Y-90947273D01*
X180797151Y-90934773D01*
X208709500Y-90934773D01*
X208709500Y-91040227D01*
X208736793Y-91142087D01*
X208789520Y-91233413D01*
X208864087Y-91307980D01*
X208955413Y-91360707D01*
X208981606Y-91367725D01*
X209041267Y-91404090D01*
X209071796Y-91466937D01*
X209063501Y-91536312D01*
X209019016Y-91590190D01*
X208981607Y-91607274D01*
X208955417Y-91614292D01*
X208955413Y-91614293D01*
X208955410Y-91614294D01*
X208864085Y-91667021D01*
X208789521Y-91741585D01*
X208736794Y-91832910D01*
X208736793Y-91832913D01*
X208709500Y-91934773D01*
X208709500Y-92040227D01*
X208736793Y-92142087D01*
X208789520Y-92233413D01*
X208864087Y-92307980D01*
X208955413Y-92360707D01*
X208981606Y-92367725D01*
X209041267Y-92404090D01*
X209071796Y-92466937D01*
X209063501Y-92536312D01*
X209019016Y-92590190D01*
X208981607Y-92607274D01*
X208955417Y-92614292D01*
X208955413Y-92614293D01*
X208955410Y-92614294D01*
X208864085Y-92667021D01*
X208789521Y-92741585D01*
X208736794Y-92832910D01*
X208736793Y-92832913D01*
X208709500Y-92934773D01*
X208709500Y-93040227D01*
X208736793Y-93142087D01*
X208789520Y-93233413D01*
X208864087Y-93307980D01*
X208955413Y-93360707D01*
X208981606Y-93367725D01*
X209041267Y-93404090D01*
X209071796Y-93466937D01*
X209063501Y-93536312D01*
X209019016Y-93590190D01*
X208981607Y-93607274D01*
X208955417Y-93614292D01*
X208955413Y-93614293D01*
X208955410Y-93614294D01*
X208864085Y-93667021D01*
X208789521Y-93741585D01*
X208736794Y-93832910D01*
X208736793Y-93832913D01*
X208709500Y-93934773D01*
X208709500Y-94040227D01*
X208736793Y-94142087D01*
X208789520Y-94233413D01*
X208864087Y-94307980D01*
X208955413Y-94360707D01*
X208981606Y-94367725D01*
X209041267Y-94404090D01*
X209071796Y-94466937D01*
X209063501Y-94536312D01*
X209019016Y-94590190D01*
X208981607Y-94607274D01*
X208955417Y-94614292D01*
X208955413Y-94614293D01*
X208955410Y-94614294D01*
X208864085Y-94667021D01*
X208789521Y-94741585D01*
X208736794Y-94832910D01*
X208736793Y-94832913D01*
X208709500Y-94934773D01*
X208709500Y-95040227D01*
X208736793Y-95142087D01*
X208789520Y-95233413D01*
X208864087Y-95307980D01*
X208955413Y-95360707D01*
X209057273Y-95388000D01*
X209057275Y-95388000D01*
X209162725Y-95388000D01*
X209162727Y-95388000D01*
X209264587Y-95360707D01*
X209355913Y-95307980D01*
X209430480Y-95233413D01*
X209483207Y-95142087D01*
X209510500Y-95040227D01*
X209510500Y-94934773D01*
X209483207Y-94832913D01*
X209430480Y-94741587D01*
X209355913Y-94667020D01*
X209264587Y-94614293D01*
X209264585Y-94614292D01*
X209248979Y-94610111D01*
X209238393Y-94607274D01*
X209178733Y-94570911D01*
X209148203Y-94508064D01*
X209156497Y-94438688D01*
X209200982Y-94384810D01*
X209238392Y-94367725D01*
X209264587Y-94360707D01*
X209355913Y-94307980D01*
X209430480Y-94233413D01*
X209483207Y-94142087D01*
X209510500Y-94040227D01*
X209510500Y-93934773D01*
X209483207Y-93832913D01*
X209430480Y-93741587D01*
X209355913Y-93667020D01*
X209264587Y-93614293D01*
X209264585Y-93614292D01*
X209248979Y-93610111D01*
X209238393Y-93607274D01*
X209178733Y-93570911D01*
X209148203Y-93508064D01*
X209156497Y-93438688D01*
X209200982Y-93384810D01*
X209238392Y-93367725D01*
X209264587Y-93360707D01*
X209355913Y-93307980D01*
X209430480Y-93233413D01*
X209483207Y-93142087D01*
X209510500Y-93040227D01*
X209510500Y-92934773D01*
X209483207Y-92832913D01*
X209430480Y-92741587D01*
X209355913Y-92667020D01*
X209264587Y-92614293D01*
X209264585Y-92614292D01*
X209248979Y-92610111D01*
X209238393Y-92607274D01*
X209178733Y-92570911D01*
X209148203Y-92508064D01*
X209156497Y-92438688D01*
X209200982Y-92384810D01*
X209238392Y-92367725D01*
X209264587Y-92360707D01*
X209355913Y-92307980D01*
X209430480Y-92233413D01*
X209483207Y-92142087D01*
X209510500Y-92040227D01*
X209510500Y-91934773D01*
X209483207Y-91832913D01*
X209430480Y-91741587D01*
X209355913Y-91667020D01*
X209264587Y-91614293D01*
X209264585Y-91614292D01*
X209248979Y-91610111D01*
X209238393Y-91607274D01*
X209178733Y-91570911D01*
X209148203Y-91508064D01*
X209156497Y-91438688D01*
X209200982Y-91384810D01*
X209238392Y-91367725D01*
X209264587Y-91360707D01*
X209355913Y-91307980D01*
X209430480Y-91233413D01*
X209483207Y-91142087D01*
X209510500Y-91040227D01*
X209510500Y-90934773D01*
X209483207Y-90832913D01*
X209430480Y-90741587D01*
X209355913Y-90667020D01*
X209264587Y-90614293D01*
X209162727Y-90587000D01*
X209057273Y-90587000D01*
X208955413Y-90614293D01*
X208955410Y-90614294D01*
X208864085Y-90667021D01*
X208789521Y-90741585D01*
X208736794Y-90832910D01*
X208736793Y-90832913D01*
X208709500Y-90934773D01*
X180797151Y-90934773D01*
X180773207Y-90845413D01*
X180720480Y-90754087D01*
X180645913Y-90679520D01*
X180554587Y-90626793D01*
X180452727Y-90599500D01*
X180347273Y-90599500D01*
X180245413Y-90626793D01*
X180245410Y-90626794D01*
X180154085Y-90679521D01*
X180079521Y-90754085D01*
X180026794Y-90845410D01*
X180026793Y-90845413D01*
X179999500Y-90947273D01*
X178600500Y-90947273D01*
X178573207Y-90845413D01*
X178520480Y-90754087D01*
X178445913Y-90679520D01*
X178354587Y-90626793D01*
X178252727Y-90599500D01*
X178147273Y-90599500D01*
X178045413Y-90626793D01*
X178045410Y-90626794D01*
X177954085Y-90679521D01*
X177879521Y-90754085D01*
X177826794Y-90845410D01*
X177826793Y-90845413D01*
X177799500Y-90947273D01*
X151390500Y-90947273D01*
X151390500Y-89247273D01*
X194299500Y-89247273D01*
X194299500Y-89352727D01*
X194326793Y-89454587D01*
X194379520Y-89545913D01*
X194454087Y-89620480D01*
X194545413Y-89673207D01*
X194647273Y-89700500D01*
X194647275Y-89700500D01*
X194752725Y-89700500D01*
X194752727Y-89700500D01*
X194854587Y-89673207D01*
X194945913Y-89620480D01*
X195020480Y-89545913D01*
X195073207Y-89454587D01*
X195100500Y-89352727D01*
X195100500Y-89247273D01*
X195073207Y-89145413D01*
X195020480Y-89054087D01*
X194945913Y-88979520D01*
X194902371Y-88954381D01*
X195299500Y-88954381D01*
X195299500Y-89059835D01*
X195326793Y-89161695D01*
X195379520Y-89253021D01*
X195454087Y-89327588D01*
X195545413Y-89380315D01*
X195647273Y-89407608D01*
X195647275Y-89407608D01*
X195752725Y-89407608D01*
X195752727Y-89407608D01*
X195854587Y-89380315D01*
X195945913Y-89327588D01*
X196020480Y-89253021D01*
X196073207Y-89161695D01*
X196100500Y-89059835D01*
X196100500Y-88954381D01*
X196073207Y-88852521D01*
X196020480Y-88761195D01*
X195945913Y-88686628D01*
X195854587Y-88633901D01*
X195752727Y-88606608D01*
X195647273Y-88606608D01*
X195545413Y-88633901D01*
X195545410Y-88633902D01*
X195454085Y-88686629D01*
X195379521Y-88761193D01*
X195326794Y-88852518D01*
X195326793Y-88852521D01*
X195299500Y-88954381D01*
X194902371Y-88954381D01*
X194854587Y-88926793D01*
X194752727Y-88899500D01*
X194647273Y-88899500D01*
X194545413Y-88926793D01*
X194545410Y-88926794D01*
X194454085Y-88979521D01*
X194379521Y-89054085D01*
X194326794Y-89145410D01*
X194326793Y-89145413D01*
X194299500Y-89247273D01*
X151390500Y-89247273D01*
X151390500Y-88046273D01*
X189799500Y-88046273D01*
X189799500Y-88151727D01*
X189826793Y-88253587D01*
X189879520Y-88344913D01*
X189954087Y-88419480D01*
X190045413Y-88472207D01*
X190147273Y-88499500D01*
X190147275Y-88499500D01*
X190252725Y-88499500D01*
X190252727Y-88499500D01*
X190354587Y-88472207D01*
X190445913Y-88419480D01*
X190520480Y-88344913D01*
X190573207Y-88253587D01*
X190585535Y-88207577D01*
X198395975Y-88207577D01*
X198501236Y-88251178D01*
X198501240Y-88251179D01*
X198646126Y-88279999D01*
X198646129Y-88280000D01*
X198793871Y-88280000D01*
X198793873Y-88279999D01*
X198938760Y-88251179D01*
X198938775Y-88251175D01*
X199044024Y-88207578D01*
X199044024Y-88207577D01*
X201095975Y-88207577D01*
X201201236Y-88251178D01*
X201201240Y-88251179D01*
X201346126Y-88279999D01*
X201346129Y-88280000D01*
X201493871Y-88280000D01*
X201493873Y-88279999D01*
X201638760Y-88251179D01*
X201638775Y-88251175D01*
X201744024Y-88207578D01*
X201744024Y-88207577D01*
X201483720Y-87947273D01*
X204099500Y-87947273D01*
X204099500Y-88052727D01*
X204126793Y-88154587D01*
X204179520Y-88245913D01*
X204254087Y-88320480D01*
X204292425Y-88342614D01*
X204340639Y-88393180D01*
X204353861Y-88461788D01*
X204327893Y-88526652D01*
X204292426Y-88557384D01*
X204254087Y-88579520D01*
X204254084Y-88579522D01*
X204179521Y-88654085D01*
X204126794Y-88745410D01*
X204126793Y-88745413D01*
X204099500Y-88847273D01*
X204099500Y-88952727D01*
X204126793Y-89054587D01*
X204179231Y-89145413D01*
X204179521Y-89145914D01*
X204195926Y-89162319D01*
X204229411Y-89223642D01*
X204224427Y-89293334D01*
X204195926Y-89337681D01*
X204179521Y-89354085D01*
X204126794Y-89445410D01*
X204126793Y-89445413D01*
X204099500Y-89547273D01*
X204099500Y-89652727D01*
X204126793Y-89754587D01*
X204179520Y-89845913D01*
X204254087Y-89920480D01*
X204345413Y-89973207D01*
X204447273Y-90000500D01*
X204447275Y-90000500D01*
X204552725Y-90000500D01*
X204552727Y-90000500D01*
X204654587Y-89973207D01*
X204745913Y-89920480D01*
X204820480Y-89845913D01*
X204873207Y-89754587D01*
X204900500Y-89652727D01*
X204900500Y-89547273D01*
X204873207Y-89445413D01*
X204820480Y-89354087D01*
X204804074Y-89337681D01*
X204770589Y-89276358D01*
X204775573Y-89206666D01*
X204789402Y-89180000D01*
X204795912Y-89170480D01*
X204819120Y-89147273D01*
X212299500Y-89147273D01*
X212299500Y-89252727D01*
X212326793Y-89354587D01*
X212379520Y-89445913D01*
X212454087Y-89520480D01*
X212545413Y-89573207D01*
X212647273Y-89600500D01*
X212647275Y-89600500D01*
X212752725Y-89600500D01*
X212752727Y-89600500D01*
X212854587Y-89573207D01*
X212945913Y-89520480D01*
X213020480Y-89445913D01*
X213073207Y-89354587D01*
X213100500Y-89252727D01*
X213100500Y-89147273D01*
X213073207Y-89045413D01*
X213020480Y-88954087D01*
X212945913Y-88879520D01*
X212854587Y-88826793D01*
X212752727Y-88799500D01*
X212647273Y-88799500D01*
X212545413Y-88826793D01*
X212545410Y-88826794D01*
X212454085Y-88879521D01*
X212379521Y-88954085D01*
X212326794Y-89045410D01*
X212326793Y-89045413D01*
X212299500Y-89147273D01*
X204819120Y-89147273D01*
X204820480Y-89145913D01*
X204873207Y-89054587D01*
X204900500Y-88952727D01*
X204900500Y-88847273D01*
X204873207Y-88745413D01*
X204820480Y-88654087D01*
X204745913Y-88579520D01*
X204707574Y-88557385D01*
X204659361Y-88506821D01*
X204646137Y-88438214D01*
X204672105Y-88373349D01*
X204707573Y-88342615D01*
X204745913Y-88320480D01*
X204820480Y-88245913D01*
X204873207Y-88154587D01*
X204900500Y-88052727D01*
X204900500Y-87947273D01*
X204873207Y-87845413D01*
X204820480Y-87754087D01*
X204745913Y-87679520D01*
X204654587Y-87626793D01*
X204552727Y-87599500D01*
X204447273Y-87599500D01*
X204345413Y-87626793D01*
X204345410Y-87626794D01*
X204254085Y-87679521D01*
X204179521Y-87754085D01*
X204126794Y-87845410D01*
X204126793Y-87845413D01*
X204099500Y-87947273D01*
X201483720Y-87947273D01*
X201420001Y-87883554D01*
X201420000Y-87883554D01*
X201095975Y-88207577D01*
X199044024Y-88207577D01*
X198720001Y-87883554D01*
X198720000Y-87883554D01*
X198395975Y-88207577D01*
X190585535Y-88207577D01*
X190600500Y-88151727D01*
X190600500Y-88046273D01*
X190573207Y-87944413D01*
X190520480Y-87853087D01*
X190445913Y-87778520D01*
X190354587Y-87725793D01*
X190252727Y-87698500D01*
X190147273Y-87698500D01*
X190045413Y-87725793D01*
X190045410Y-87725794D01*
X189954085Y-87778521D01*
X189879521Y-87853085D01*
X189826794Y-87944410D01*
X189826793Y-87944413D01*
X189799500Y-88046273D01*
X151390500Y-88046273D01*
X151390500Y-85281902D01*
X161499500Y-85281902D01*
X161499500Y-85518097D01*
X161536446Y-85751368D01*
X161609433Y-85975996D01*
X161711925Y-86177146D01*
X161716657Y-86186433D01*
X161855483Y-86377510D01*
X162022490Y-86544517D01*
X162213567Y-86683343D01*
X162305064Y-86729963D01*
X162424003Y-86790566D01*
X162424005Y-86790566D01*
X162424008Y-86790568D01*
X162528954Y-86824667D01*
X162648631Y-86863553D01*
X162881903Y-86900500D01*
X162881908Y-86900500D01*
X163118097Y-86900500D01*
X163351368Y-86863553D01*
X163354926Y-86862397D01*
X163575992Y-86790568D01*
X163786433Y-86683343D01*
X163977510Y-86544517D01*
X164094754Y-86427273D01*
X195253054Y-86427273D01*
X195253054Y-86532727D01*
X195280347Y-86634587D01*
X195333074Y-86725913D01*
X195333075Y-86725914D01*
X195337138Y-86732951D01*
X195334472Y-86734490D01*
X195354393Y-86786064D01*
X195340334Y-86854505D01*
X195338208Y-86858344D01*
X195283142Y-86953722D01*
X195283142Y-86953723D01*
X195255849Y-87055583D01*
X195255849Y-87161037D01*
X195283142Y-87262897D01*
X195335869Y-87354223D01*
X195410436Y-87428790D01*
X195501762Y-87481517D01*
X195603622Y-87508810D01*
X195603624Y-87508810D01*
X195709074Y-87508810D01*
X195709076Y-87508810D01*
X195810936Y-87481517D01*
X195902262Y-87428790D01*
X195976829Y-87354223D01*
X196029556Y-87262897D01*
X196056849Y-87161037D01*
X196056849Y-87055583D01*
X196029556Y-86953723D01*
X196025832Y-86947273D01*
X197099500Y-86947273D01*
X197099500Y-87052727D01*
X197126793Y-87154587D01*
X197161672Y-87215000D01*
X197179521Y-87245914D01*
X197195926Y-87262319D01*
X197229411Y-87323642D01*
X197224427Y-87393334D01*
X197195926Y-87437681D01*
X197179521Y-87454085D01*
X197126794Y-87545410D01*
X197126793Y-87545413D01*
X197099500Y-87647273D01*
X197099500Y-87752727D01*
X197126793Y-87854587D01*
X197179520Y-87945913D01*
X197254087Y-88020480D01*
X197345413Y-88073207D01*
X197447273Y-88100500D01*
X197447275Y-88100500D01*
X197552725Y-88100500D01*
X197552727Y-88100500D01*
X197654587Y-88073207D01*
X197745913Y-88020480D01*
X197820480Y-87945913D01*
X197846502Y-87900840D01*
X197897066Y-87852628D01*
X197965673Y-87839404D01*
X197978078Y-87841226D01*
X198042421Y-87854024D01*
X198366446Y-87530000D01*
X198366446Y-87529999D01*
X198346556Y-87510109D01*
X198620000Y-87510109D01*
X198620000Y-87549891D01*
X198635224Y-87586645D01*
X198663355Y-87614776D01*
X198700109Y-87630000D01*
X198739891Y-87630000D01*
X198776645Y-87614776D01*
X198804776Y-87586645D01*
X198820000Y-87549891D01*
X198820000Y-87529999D01*
X199073554Y-87529999D01*
X199073554Y-87530001D01*
X199397577Y-87854024D01*
X199397578Y-87854024D01*
X199441175Y-87748775D01*
X199441179Y-87748760D01*
X199469999Y-87603873D01*
X199470000Y-87603871D01*
X199470000Y-87456128D01*
X199469999Y-87456126D01*
X200670000Y-87456126D01*
X200670000Y-87603873D01*
X200698820Y-87748759D01*
X200698822Y-87748767D01*
X200742421Y-87854024D01*
X201066446Y-87530000D01*
X201066446Y-87529999D01*
X201046556Y-87510109D01*
X201320000Y-87510109D01*
X201320000Y-87549891D01*
X201335224Y-87586645D01*
X201363355Y-87614776D01*
X201400109Y-87630000D01*
X201439891Y-87630000D01*
X201476645Y-87614776D01*
X201504776Y-87586645D01*
X201520000Y-87549891D01*
X201520000Y-87529999D01*
X201773554Y-87529999D01*
X201773554Y-87530001D01*
X202097577Y-87854024D01*
X202097578Y-87854024D01*
X202141175Y-87748775D01*
X202141179Y-87748760D01*
X202169999Y-87603873D01*
X202170000Y-87603871D01*
X202170000Y-87456128D01*
X202169999Y-87456126D01*
X202141179Y-87311240D01*
X202141178Y-87311236D01*
X202097577Y-87205975D01*
X201773554Y-87529999D01*
X201520000Y-87529999D01*
X201520000Y-87510109D01*
X201504776Y-87473355D01*
X201476645Y-87445224D01*
X201439891Y-87430000D01*
X201400109Y-87430000D01*
X201363355Y-87445224D01*
X201335224Y-87473355D01*
X201320000Y-87510109D01*
X201046556Y-87510109D01*
X200742421Y-87205974D01*
X200742420Y-87205974D01*
X200698823Y-87311228D01*
X200698820Y-87311240D01*
X200670000Y-87456126D01*
X199469999Y-87456126D01*
X199441179Y-87311240D01*
X199441178Y-87311236D01*
X199397577Y-87205975D01*
X199073554Y-87529999D01*
X198820000Y-87529999D01*
X198820000Y-87510109D01*
X198804776Y-87473355D01*
X198776645Y-87445224D01*
X198739891Y-87430000D01*
X198700109Y-87430000D01*
X198663355Y-87445224D01*
X198635224Y-87473355D01*
X198620000Y-87510109D01*
X198346556Y-87510109D01*
X198041696Y-87205249D01*
X197975118Y-87199290D01*
X197919941Y-87156426D01*
X197896698Y-87090536D01*
X197896584Y-87087882D01*
X197895994Y-87069540D01*
X197900500Y-87052727D01*
X197900500Y-86947273D01*
X197875084Y-86852420D01*
X198395974Y-86852420D01*
X198395974Y-86852421D01*
X198720000Y-87176446D01*
X198720001Y-87176446D01*
X199044024Y-86852421D01*
X199044022Y-86852420D01*
X201095974Y-86852420D01*
X201095974Y-86852421D01*
X201420000Y-87176446D01*
X201420001Y-87176446D01*
X201744024Y-86852421D01*
X201638767Y-86808822D01*
X201638759Y-86808820D01*
X201493872Y-86780000D01*
X201346128Y-86780000D01*
X201201240Y-86808820D01*
X201201228Y-86808823D01*
X201095974Y-86852420D01*
X199044022Y-86852420D01*
X198938767Y-86808822D01*
X198938759Y-86808820D01*
X198793872Y-86780000D01*
X198646128Y-86780000D01*
X198501240Y-86808820D01*
X198501228Y-86808823D01*
X198395974Y-86852420D01*
X197875084Y-86852420D01*
X197873207Y-86845413D01*
X197820480Y-86754087D01*
X197745913Y-86679520D01*
X197654587Y-86626793D01*
X197552727Y-86599500D01*
X197447273Y-86599500D01*
X197345413Y-86626793D01*
X197345410Y-86626794D01*
X197254085Y-86679521D01*
X197179521Y-86754085D01*
X197126794Y-86845410D01*
X197126793Y-86845413D01*
X197099500Y-86947273D01*
X196025832Y-86947273D01*
X195976829Y-86862397D01*
X195974722Y-86860290D01*
X195968581Y-86848229D01*
X195964162Y-86824667D01*
X195955514Y-86802314D01*
X195957840Y-86790954D01*
X195955703Y-86779556D01*
X195964724Y-86757345D01*
X195969534Y-86733865D01*
X195971694Y-86729963D01*
X195974029Y-86725917D01*
X195974034Y-86725913D01*
X196026761Y-86634587D01*
X196054054Y-86532727D01*
X196054054Y-86427273D01*
X196026761Y-86325413D01*
X195974034Y-86234087D01*
X195899467Y-86159520D01*
X195808141Y-86106793D01*
X195706281Y-86079500D01*
X195600827Y-86079500D01*
X195498967Y-86106793D01*
X195498964Y-86106794D01*
X195407639Y-86159521D01*
X195333075Y-86234085D01*
X195280348Y-86325410D01*
X195280347Y-86325413D01*
X195253054Y-86427273D01*
X164094754Y-86427273D01*
X164144517Y-86377510D01*
X164283343Y-86186433D01*
X164390568Y-85975992D01*
X164399899Y-85947273D01*
X204099500Y-85947273D01*
X204099500Y-86052727D01*
X204115137Y-86111083D01*
X204126793Y-86154586D01*
X204126794Y-86154589D01*
X204174951Y-86238000D01*
X204191424Y-86305901D01*
X204174951Y-86362000D01*
X204126794Y-86445410D01*
X204126793Y-86445413D01*
X204099500Y-86547273D01*
X204099500Y-86652727D01*
X204126793Y-86754587D01*
X204179520Y-86845913D01*
X204254087Y-86920480D01*
X204345413Y-86973207D01*
X204447273Y-87000500D01*
X204447275Y-87000500D01*
X204552725Y-87000500D01*
X204552727Y-87000500D01*
X204654587Y-86973207D01*
X204745913Y-86920480D01*
X204820480Y-86845913D01*
X204873207Y-86754587D01*
X204900500Y-86652727D01*
X204900500Y-86547273D01*
X204873207Y-86445413D01*
X204825047Y-86361998D01*
X204822218Y-86350335D01*
X204815255Y-86340557D01*
X204814133Y-86317010D01*
X204808575Y-86294100D01*
X204812418Y-86281011D01*
X204811930Y-86270766D01*
X204821335Y-86247273D01*
X209219500Y-86247273D01*
X209219500Y-86352727D01*
X209246793Y-86454587D01*
X209299520Y-86545913D01*
X209374087Y-86620480D01*
X209465413Y-86673207D01*
X209567273Y-86700500D01*
X209567275Y-86700500D01*
X209672725Y-86700500D01*
X209672727Y-86700500D01*
X209774587Y-86673207D01*
X209832103Y-86640000D01*
X214079157Y-86640000D01*
X214890382Y-86640000D01*
X214839936Y-86690446D01*
X214797149Y-86764555D01*
X214775000Y-86847213D01*
X214775000Y-86932787D01*
X214797149Y-87015445D01*
X214839936Y-87089554D01*
X214890382Y-87140000D01*
X214079157Y-87140000D01*
X214090350Y-87196274D01*
X214090351Y-87196276D01*
X214169500Y-87387358D01*
X214169505Y-87387368D01*
X214284410Y-87559335D01*
X214284413Y-87559339D01*
X214430660Y-87705586D01*
X214430664Y-87705589D01*
X214602631Y-87820494D01*
X214602641Y-87820499D01*
X214793725Y-87899649D01*
X214793733Y-87899651D01*
X214996579Y-87939999D01*
X214996583Y-87940000D01*
X215050000Y-87940000D01*
X215050000Y-87213067D01*
X215057213Y-87215000D01*
X215542787Y-87215000D01*
X215550000Y-87213067D01*
X215550000Y-87940000D01*
X215603417Y-87940000D01*
X215603420Y-87939999D01*
X215806266Y-87899651D01*
X215806274Y-87899649D01*
X215997358Y-87820499D01*
X215997368Y-87820494D01*
X216169335Y-87705589D01*
X216169339Y-87705586D01*
X216315586Y-87559339D01*
X216315589Y-87559335D01*
X216430494Y-87387368D01*
X216430499Y-87387358D01*
X216439560Y-87365485D01*
X216509648Y-87196276D01*
X216509649Y-87196274D01*
X216520843Y-87140000D01*
X215709618Y-87140000D01*
X215760064Y-87089554D01*
X215802851Y-87015445D01*
X215820388Y-86949999D01*
X216974950Y-86949999D01*
X216974950Y-86950000D01*
X217805025Y-86950000D01*
X217769930Y-86985095D01*
X217723852Y-87064905D01*
X217700000Y-87153922D01*
X217700000Y-87246078D01*
X217723852Y-87335095D01*
X217769930Y-87414905D01*
X217805025Y-87450000D01*
X216974950Y-87450000D01*
X216978932Y-87475144D01*
X217036082Y-87651037D01*
X217036084Y-87651043D01*
X217120052Y-87815837D01*
X217228754Y-87965454D01*
X217228758Y-87965459D01*
X217359540Y-88096241D01*
X217359545Y-88096245D01*
X217509162Y-88204947D01*
X217673956Y-88288915D01*
X217673959Y-88288916D01*
X217849852Y-88346066D01*
X218032527Y-88375000D01*
X218050000Y-88375000D01*
X218050000Y-87550000D01*
X218550000Y-87550000D01*
X218550000Y-88375000D01*
X218567473Y-88375000D01*
X218750147Y-88346066D01*
X218926040Y-88288916D01*
X218926043Y-88288915D01*
X219090837Y-88204947D01*
X219240454Y-88096245D01*
X219240459Y-88096241D01*
X219371241Y-87965459D01*
X219371245Y-87965454D01*
X219479947Y-87815837D01*
X219563915Y-87651043D01*
X219563917Y-87651037D01*
X219621067Y-87475144D01*
X219625049Y-87450000D01*
X218794975Y-87450000D01*
X218830070Y-87414905D01*
X218876148Y-87335095D01*
X218900000Y-87246078D01*
X218900000Y-87153922D01*
X218876148Y-87064905D01*
X218830070Y-86985095D01*
X218794975Y-86950000D01*
X219625050Y-86950000D01*
X219625049Y-86949999D01*
X219621067Y-86924855D01*
X219563917Y-86748962D01*
X219563915Y-86748956D01*
X219479947Y-86584162D01*
X219371245Y-86434545D01*
X219371241Y-86434540D01*
X219240459Y-86303758D01*
X219240454Y-86303754D01*
X219090837Y-86195052D01*
X218926043Y-86111084D01*
X218926040Y-86111083D01*
X218750147Y-86053933D01*
X218567473Y-86025000D01*
X218550000Y-86025000D01*
X218550000Y-86850000D01*
X218050000Y-86850000D01*
X218050000Y-86025000D01*
X218032527Y-86025000D01*
X217849852Y-86053933D01*
X217673959Y-86111083D01*
X217673956Y-86111084D01*
X217509162Y-86195052D01*
X217359545Y-86303754D01*
X217359540Y-86303758D01*
X217228758Y-86434540D01*
X217228754Y-86434545D01*
X217120052Y-86584162D01*
X217036084Y-86748956D01*
X217036082Y-86748962D01*
X216978932Y-86924855D01*
X216974950Y-86949999D01*
X215820388Y-86949999D01*
X215825000Y-86932787D01*
X215825000Y-86847213D01*
X215802851Y-86764555D01*
X215760064Y-86690446D01*
X215709618Y-86640000D01*
X216520843Y-86640000D01*
X216509649Y-86583725D01*
X216509648Y-86583723D01*
X216430499Y-86392641D01*
X216430494Y-86392631D01*
X216315589Y-86220664D01*
X216315586Y-86220660D01*
X216169339Y-86074413D01*
X216169335Y-86074410D01*
X215997368Y-85959505D01*
X215997358Y-85959500D01*
X215806274Y-85880350D01*
X215806266Y-85880348D01*
X215603420Y-85840000D01*
X215550000Y-85840000D01*
X215550000Y-86566932D01*
X215542787Y-86565000D01*
X215057213Y-86565000D01*
X215050000Y-86566932D01*
X215050000Y-85840000D01*
X214996579Y-85840000D01*
X214793733Y-85880348D01*
X214793725Y-85880350D01*
X214602641Y-85959500D01*
X214602631Y-85959505D01*
X214430664Y-86074410D01*
X214430660Y-86074413D01*
X214284413Y-86220660D01*
X214284410Y-86220664D01*
X214169505Y-86392631D01*
X214169500Y-86392641D01*
X214090351Y-86583723D01*
X214090350Y-86583725D01*
X214079157Y-86640000D01*
X209832103Y-86640000D01*
X209865913Y-86620480D01*
X209940480Y-86545913D01*
X209993207Y-86454587D01*
X210020500Y-86352727D01*
X210020500Y-86247273D01*
X209993207Y-86145413D01*
X209940480Y-86054087D01*
X209865913Y-85979520D01*
X209774587Y-85926793D01*
X209672727Y-85899500D01*
X209567273Y-85899500D01*
X209465413Y-85926793D01*
X209465410Y-85926794D01*
X209374085Y-85979521D01*
X209299521Y-86054085D01*
X209246794Y-86145410D01*
X209246793Y-86145413D01*
X209219500Y-86247273D01*
X204821335Y-86247273D01*
X204825046Y-86238003D01*
X204873207Y-86154587D01*
X204900500Y-86052727D01*
X204900500Y-85947273D01*
X204873207Y-85845413D01*
X204820480Y-85754087D01*
X204745913Y-85679520D01*
X204654587Y-85626793D01*
X204552727Y-85599500D01*
X204447273Y-85599500D01*
X204345413Y-85626793D01*
X204345410Y-85626794D01*
X204254085Y-85679521D01*
X204179521Y-85754085D01*
X204126794Y-85845410D01*
X204126793Y-85845413D01*
X204099500Y-85947273D01*
X164399899Y-85947273D01*
X164463553Y-85751368D01*
X164500500Y-85518097D01*
X164500500Y-85507577D01*
X198395975Y-85507577D01*
X198501236Y-85551178D01*
X198501240Y-85551179D01*
X198646126Y-85579999D01*
X198646129Y-85580000D01*
X198793871Y-85580000D01*
X198793873Y-85579999D01*
X198938760Y-85551179D01*
X198938775Y-85551175D01*
X199044024Y-85507578D01*
X199044024Y-85507577D01*
X201095975Y-85507577D01*
X201201236Y-85551178D01*
X201201240Y-85551179D01*
X201346126Y-85579999D01*
X201346129Y-85580000D01*
X201493871Y-85580000D01*
X201493873Y-85579999D01*
X201638760Y-85551179D01*
X201638775Y-85551175D01*
X201744024Y-85507578D01*
X201744024Y-85507577D01*
X201420001Y-85183554D01*
X201420000Y-85183554D01*
X201095975Y-85507577D01*
X199044024Y-85507577D01*
X198720001Y-85183554D01*
X198720000Y-85183554D01*
X198395975Y-85507577D01*
X164500500Y-85507577D01*
X164500500Y-85281902D01*
X164463553Y-85048631D01*
X164392515Y-84830000D01*
X164390568Y-84824008D01*
X164390566Y-84824005D01*
X164390565Y-84824000D01*
X164381564Y-84806335D01*
X164381563Y-84806334D01*
X164355981Y-84756126D01*
X197970000Y-84756126D01*
X197970000Y-84903873D01*
X197998820Y-85048759D01*
X197998822Y-85048767D01*
X198042421Y-85154024D01*
X198366446Y-84830000D01*
X198366446Y-84829999D01*
X198346556Y-84810109D01*
X198620000Y-84810109D01*
X198620000Y-84849891D01*
X198635224Y-84886645D01*
X198663355Y-84914776D01*
X198700109Y-84930000D01*
X198739891Y-84930000D01*
X198776645Y-84914776D01*
X198804776Y-84886645D01*
X198820000Y-84849891D01*
X198820000Y-84829999D01*
X199073554Y-84829999D01*
X199073554Y-84830001D01*
X199397577Y-85154024D01*
X199397578Y-85154024D01*
X199441175Y-85048775D01*
X199441179Y-85048760D01*
X199469999Y-84903873D01*
X199470000Y-84903871D01*
X199470000Y-84756128D01*
X199469999Y-84756126D01*
X200670000Y-84756126D01*
X200670000Y-84903873D01*
X200698820Y-85048759D01*
X200698822Y-85048767D01*
X200742421Y-85154024D01*
X201066446Y-84830000D01*
X201066446Y-84829999D01*
X201046556Y-84810109D01*
X201320000Y-84810109D01*
X201320000Y-84849891D01*
X201335224Y-84886645D01*
X201363355Y-84914776D01*
X201400109Y-84930000D01*
X201439891Y-84930000D01*
X201476645Y-84914776D01*
X201504776Y-84886645D01*
X201520000Y-84849891D01*
X201520000Y-84829999D01*
X201773554Y-84829999D01*
X201773554Y-84830001D01*
X202097577Y-85154024D01*
X202097578Y-85154024D01*
X202141175Y-85048775D01*
X202141179Y-85048760D01*
X202169999Y-84903873D01*
X202170000Y-84903871D01*
X202170000Y-84756128D01*
X202169999Y-84756126D01*
X202141179Y-84611240D01*
X202141178Y-84611236D01*
X202097577Y-84505975D01*
X201773554Y-84829999D01*
X201520000Y-84829999D01*
X201520000Y-84810109D01*
X201504776Y-84773355D01*
X201476645Y-84745224D01*
X201439891Y-84730000D01*
X201400109Y-84730000D01*
X201363355Y-84745224D01*
X201335224Y-84773355D01*
X201320000Y-84810109D01*
X201046556Y-84810109D01*
X200742421Y-84505974D01*
X200742420Y-84505974D01*
X200698823Y-84611228D01*
X200698820Y-84611240D01*
X200670000Y-84756126D01*
X199469999Y-84756126D01*
X199441179Y-84611240D01*
X199441178Y-84611236D01*
X199397577Y-84505975D01*
X199073554Y-84829999D01*
X198820000Y-84829999D01*
X198820000Y-84810109D01*
X198804776Y-84773355D01*
X198776645Y-84745224D01*
X198739891Y-84730000D01*
X198700109Y-84730000D01*
X198663355Y-84745224D01*
X198635224Y-84773355D01*
X198620000Y-84810109D01*
X198346556Y-84810109D01*
X198042421Y-84505974D01*
X198042420Y-84505974D01*
X197998823Y-84611228D01*
X197998820Y-84611240D01*
X197970000Y-84756126D01*
X164355981Y-84756126D01*
X164283342Y-84613566D01*
X164281649Y-84611236D01*
X164144517Y-84422490D01*
X163977510Y-84255483D01*
X163835656Y-84152420D01*
X198395974Y-84152420D01*
X198395974Y-84152421D01*
X198720000Y-84476446D01*
X198720001Y-84476446D01*
X199044024Y-84152421D01*
X199044022Y-84152420D01*
X201095974Y-84152420D01*
X201095974Y-84152421D01*
X201420000Y-84476446D01*
X201420001Y-84476446D01*
X201744024Y-84152421D01*
X201638767Y-84108822D01*
X201638759Y-84108820D01*
X201493872Y-84080000D01*
X201346128Y-84080000D01*
X201201240Y-84108820D01*
X201201228Y-84108823D01*
X201095974Y-84152420D01*
X199044022Y-84152420D01*
X198938767Y-84108822D01*
X198938759Y-84108820D01*
X198793872Y-84080000D01*
X198646128Y-84080000D01*
X198501240Y-84108820D01*
X198501228Y-84108823D01*
X198395974Y-84152420D01*
X163835656Y-84152420D01*
X163786433Y-84116657D01*
X163714490Y-84080000D01*
X163575996Y-84009433D01*
X163351368Y-83936446D01*
X163118097Y-83899500D01*
X163118092Y-83899500D01*
X162881908Y-83899500D01*
X162881903Y-83899500D01*
X162648631Y-83936446D01*
X162424003Y-84009433D01*
X162213566Y-84116657D01*
X162164342Y-84152421D01*
X162022490Y-84255483D01*
X162022488Y-84255485D01*
X162022487Y-84255485D01*
X161855485Y-84422487D01*
X161855485Y-84422488D01*
X161855483Y-84422490D01*
X161816282Y-84476446D01*
X161716657Y-84613566D01*
X161609433Y-84824003D01*
X161536446Y-85048631D01*
X161499500Y-85281902D01*
X151390500Y-85281902D01*
X151390500Y-82347273D01*
X180399500Y-82347273D01*
X180399500Y-82452727D01*
X180426793Y-82554587D01*
X180479520Y-82645913D01*
X180554087Y-82720480D01*
X180645413Y-82773207D01*
X180747273Y-82800500D01*
X180747275Y-82800500D01*
X180852725Y-82800500D01*
X180852727Y-82800500D01*
X180954587Y-82773207D01*
X181045913Y-82720480D01*
X181120480Y-82645913D01*
X181173207Y-82554587D01*
X181200500Y-82452727D01*
X181200500Y-82347273D01*
X181173207Y-82245413D01*
X181120480Y-82154087D01*
X181045913Y-82079520D01*
X180954587Y-82026793D01*
X180852727Y-81999500D01*
X180747273Y-81999500D01*
X180645413Y-82026793D01*
X180645410Y-82026794D01*
X180554085Y-82079521D01*
X180479521Y-82154085D01*
X180426794Y-82245410D01*
X180426793Y-82245413D01*
X180399500Y-82347273D01*
X151390500Y-82347273D01*
X151390500Y-81247273D01*
X195799500Y-81247273D01*
X195799500Y-81352727D01*
X195826793Y-81454587D01*
X195879520Y-81545913D01*
X195954087Y-81620480D01*
X196045413Y-81673207D01*
X196147273Y-81700500D01*
X196147275Y-81700500D01*
X196252725Y-81700500D01*
X196252727Y-81700500D01*
X196354587Y-81673207D01*
X196399506Y-81647273D01*
X198299500Y-81647273D01*
X198299500Y-81752727D01*
X198326793Y-81854587D01*
X198379520Y-81945913D01*
X198454087Y-82020480D01*
X198545413Y-82073207D01*
X198647273Y-82100500D01*
X198647275Y-82100500D01*
X198752725Y-82100500D01*
X198752727Y-82100500D01*
X198854587Y-82073207D01*
X198938001Y-82025047D01*
X199005900Y-82008575D01*
X199061998Y-82025047D01*
X199145413Y-82073207D01*
X199247273Y-82100500D01*
X199247275Y-82100500D01*
X199352725Y-82100500D01*
X199352727Y-82100500D01*
X199454587Y-82073207D01*
X199545913Y-82020480D01*
X199620480Y-81945913D01*
X199673207Y-81854587D01*
X199687833Y-81800000D01*
X214079157Y-81800000D01*
X214890382Y-81800000D01*
X214839936Y-81850446D01*
X214797149Y-81924555D01*
X214775000Y-82007213D01*
X214775000Y-82092787D01*
X214797149Y-82175445D01*
X214839936Y-82249554D01*
X214890382Y-82300000D01*
X214079157Y-82300000D01*
X214090350Y-82356274D01*
X214090351Y-82356276D01*
X214169500Y-82547358D01*
X214169505Y-82547368D01*
X214284410Y-82719335D01*
X214284413Y-82719339D01*
X214430660Y-82865586D01*
X214430664Y-82865589D01*
X214602631Y-82980494D01*
X214602641Y-82980499D01*
X214793725Y-83059649D01*
X214793733Y-83059651D01*
X214996579Y-83099999D01*
X214996583Y-83100000D01*
X215050000Y-83100000D01*
X215050000Y-82373067D01*
X215057213Y-82375000D01*
X215542787Y-82375000D01*
X215550000Y-82373067D01*
X215550000Y-83100000D01*
X215603417Y-83100000D01*
X215603420Y-83099999D01*
X215806266Y-83059651D01*
X215806274Y-83059649D01*
X215997358Y-82980499D01*
X215997368Y-82980494D01*
X216169335Y-82865589D01*
X216169339Y-82865586D01*
X216315586Y-82719339D01*
X216315589Y-82719335D01*
X216430494Y-82547368D01*
X216430499Y-82547358D01*
X216509648Y-82356276D01*
X216509649Y-82356274D01*
X216520843Y-82300000D01*
X215709618Y-82300000D01*
X215760064Y-82249554D01*
X215802851Y-82175445D01*
X215825000Y-82092787D01*
X215825000Y-82007213D01*
X215802851Y-81924555D01*
X215760064Y-81850446D01*
X215709618Y-81800000D01*
X216520843Y-81800000D01*
X216509649Y-81743725D01*
X216509648Y-81743723D01*
X216439560Y-81574515D01*
X216430499Y-81552641D01*
X216430494Y-81552631D01*
X216388645Y-81489999D01*
X216974950Y-81489999D01*
X216974950Y-81490000D01*
X217805025Y-81490000D01*
X217769930Y-81525095D01*
X217723852Y-81604905D01*
X217700000Y-81693922D01*
X217700000Y-81786078D01*
X217723852Y-81875095D01*
X217769930Y-81954905D01*
X217805025Y-81990000D01*
X216974950Y-81990000D01*
X216978932Y-82015144D01*
X217036082Y-82191037D01*
X217036084Y-82191043D01*
X217120052Y-82355837D01*
X217228754Y-82505454D01*
X217228758Y-82505459D01*
X217359540Y-82636241D01*
X217359545Y-82636245D01*
X217509162Y-82744947D01*
X217673956Y-82828915D01*
X217673959Y-82828916D01*
X217849852Y-82886066D01*
X218032527Y-82915000D01*
X218050000Y-82915000D01*
X218050000Y-82090000D01*
X218550000Y-82090000D01*
X218550000Y-82915000D01*
X218567473Y-82915000D01*
X218750147Y-82886066D01*
X218926040Y-82828916D01*
X218926043Y-82828915D01*
X219090837Y-82744947D01*
X219240454Y-82636245D01*
X219240459Y-82636241D01*
X219371241Y-82505459D01*
X219371245Y-82505454D01*
X219479947Y-82355837D01*
X219563915Y-82191043D01*
X219563917Y-82191037D01*
X219621067Y-82015144D01*
X219625049Y-81990000D01*
X218794975Y-81990000D01*
X218830070Y-81954905D01*
X218876148Y-81875095D01*
X218900000Y-81786078D01*
X218900000Y-81693922D01*
X218876148Y-81604905D01*
X218830070Y-81525095D01*
X218794975Y-81490000D01*
X219625050Y-81490000D01*
X219625049Y-81489999D01*
X219621067Y-81464855D01*
X219563917Y-81288962D01*
X219563915Y-81288956D01*
X219479947Y-81124162D01*
X219371245Y-80974545D01*
X219371241Y-80974540D01*
X219240459Y-80843758D01*
X219240454Y-80843754D01*
X219090837Y-80735052D01*
X218926043Y-80651084D01*
X218926040Y-80651083D01*
X218750147Y-80593933D01*
X218567473Y-80565000D01*
X218550000Y-80565000D01*
X218550000Y-81390000D01*
X218050000Y-81390000D01*
X218050000Y-80565000D01*
X218032527Y-80565000D01*
X217849852Y-80593933D01*
X217673959Y-80651083D01*
X217673956Y-80651084D01*
X217509162Y-80735052D01*
X217359545Y-80843754D01*
X217359540Y-80843758D01*
X217228758Y-80974540D01*
X217228754Y-80974545D01*
X217120052Y-81124162D01*
X217036084Y-81288956D01*
X217036082Y-81288962D01*
X216978932Y-81464855D01*
X216974950Y-81489999D01*
X216388645Y-81489999D01*
X216315589Y-81380664D01*
X216315586Y-81380660D01*
X216169339Y-81234413D01*
X216169335Y-81234410D01*
X215997368Y-81119505D01*
X215997358Y-81119500D01*
X215806274Y-81040350D01*
X215806266Y-81040348D01*
X215603420Y-81000000D01*
X215550000Y-81000000D01*
X215550000Y-81726932D01*
X215542787Y-81725000D01*
X215057213Y-81725000D01*
X215050000Y-81726932D01*
X215050000Y-81000000D01*
X214996579Y-81000000D01*
X214793733Y-81040348D01*
X214793725Y-81040350D01*
X214602641Y-81119500D01*
X214602631Y-81119505D01*
X214430664Y-81234410D01*
X214430660Y-81234413D01*
X214284413Y-81380660D01*
X214284410Y-81380664D01*
X214169505Y-81552631D01*
X214169500Y-81552641D01*
X214090351Y-81743723D01*
X214090350Y-81743725D01*
X214079157Y-81800000D01*
X199687833Y-81800000D01*
X199700500Y-81752727D01*
X199700500Y-81647273D01*
X199673207Y-81545413D01*
X199620480Y-81454087D01*
X199545913Y-81379520D01*
X199454587Y-81326793D01*
X199352727Y-81299500D01*
X199247273Y-81299500D01*
X199145413Y-81326793D01*
X199145410Y-81326794D01*
X199062000Y-81374951D01*
X198994099Y-81391424D01*
X198938000Y-81374951D01*
X198854589Y-81326794D01*
X198854588Y-81326793D01*
X198854587Y-81326793D01*
X198752727Y-81299500D01*
X198647273Y-81299500D01*
X198545413Y-81326793D01*
X198545410Y-81326794D01*
X198454085Y-81379521D01*
X198379521Y-81454085D01*
X198326794Y-81545410D01*
X198326793Y-81545413D01*
X198299500Y-81647273D01*
X196399506Y-81647273D01*
X196445913Y-81620480D01*
X196520480Y-81545913D01*
X196573207Y-81454587D01*
X196600500Y-81352727D01*
X196600500Y-81247273D01*
X196573207Y-81145413D01*
X196520480Y-81054087D01*
X196445913Y-80979520D01*
X196354587Y-80926793D01*
X196252727Y-80899500D01*
X196147273Y-80899500D01*
X196045413Y-80926793D01*
X196045410Y-80926794D01*
X195954085Y-80979521D01*
X195879521Y-81054085D01*
X195826794Y-81145410D01*
X195826793Y-81145413D01*
X195799500Y-81247273D01*
X151390500Y-81247273D01*
X151390500Y-80534108D01*
X186399500Y-80534108D01*
X186399500Y-80665892D01*
X186410529Y-80707052D01*
X186433608Y-80793187D01*
X186462806Y-80843758D01*
X186499500Y-80907314D01*
X186592686Y-81000500D01*
X186706814Y-81066392D01*
X186834108Y-81100500D01*
X186834110Y-81100500D01*
X186965890Y-81100500D01*
X186965892Y-81100500D01*
X187093186Y-81066392D01*
X187207314Y-81000500D01*
X187300500Y-80907314D01*
X187366392Y-80793186D01*
X187378694Y-80747273D01*
X192199500Y-80747273D01*
X192199500Y-80852727D01*
X192226793Y-80954587D01*
X192279520Y-81045913D01*
X192354087Y-81120480D01*
X192445413Y-81173207D01*
X192547273Y-81200500D01*
X192547275Y-81200500D01*
X192652725Y-81200500D01*
X192652727Y-81200500D01*
X192754587Y-81173207D01*
X192845913Y-81120480D01*
X192920480Y-81045913D01*
X192973207Y-80954587D01*
X193000500Y-80852727D01*
X193000500Y-80747273D01*
X192973207Y-80645413D01*
X192920480Y-80554087D01*
X192845913Y-80479520D01*
X192754587Y-80426793D01*
X192652727Y-80399500D01*
X192547273Y-80399500D01*
X192445413Y-80426793D01*
X192445410Y-80426794D01*
X192354085Y-80479521D01*
X192279521Y-80554085D01*
X192226794Y-80645410D01*
X192226793Y-80645413D01*
X192199500Y-80747273D01*
X187378694Y-80747273D01*
X187400500Y-80665892D01*
X187400500Y-80534108D01*
X187366392Y-80406814D01*
X187300500Y-80292686D01*
X187207314Y-80199500D01*
X187150250Y-80166554D01*
X187093187Y-80133608D01*
X187029539Y-80116554D01*
X186965892Y-80099500D01*
X186834108Y-80099500D01*
X186706812Y-80133608D01*
X186592686Y-80199500D01*
X186592683Y-80199502D01*
X186499502Y-80292683D01*
X186499500Y-80292686D01*
X186433608Y-80406812D01*
X186414126Y-80479521D01*
X186399500Y-80534108D01*
X151390500Y-80534108D01*
X151390500Y-79824773D01*
X200269500Y-79824773D01*
X200269500Y-79930227D01*
X200296793Y-80032087D01*
X200349520Y-80123413D01*
X200424087Y-80197980D01*
X200515413Y-80250707D01*
X200617273Y-80278000D01*
X200617275Y-80278000D01*
X200722725Y-80278000D01*
X200722727Y-80278000D01*
X200824587Y-80250707D01*
X200915913Y-80197980D01*
X200990480Y-80123413D01*
X201043207Y-80032087D01*
X201070500Y-79930227D01*
X201070500Y-79824773D01*
X201043207Y-79722913D01*
X200990480Y-79631587D01*
X200915913Y-79557020D01*
X200824587Y-79504293D01*
X200722727Y-79477000D01*
X200617273Y-79477000D01*
X200515413Y-79504293D01*
X200515410Y-79504294D01*
X200424085Y-79557021D01*
X200349521Y-79631585D01*
X200296794Y-79722910D01*
X200296793Y-79722913D01*
X200269500Y-79824773D01*
X151390500Y-79824773D01*
X151390500Y-78947273D01*
X193799500Y-78947273D01*
X193799500Y-79052727D01*
X193826793Y-79154587D01*
X193879520Y-79245913D01*
X193954087Y-79320480D01*
X194045413Y-79373207D01*
X194147273Y-79400500D01*
X194147275Y-79400500D01*
X194252725Y-79400500D01*
X194252727Y-79400500D01*
X194354587Y-79373207D01*
X194445913Y-79320480D01*
X194520480Y-79245913D01*
X194573207Y-79154587D01*
X194600500Y-79052727D01*
X194600500Y-78947273D01*
X194573207Y-78845413D01*
X194520480Y-78754087D01*
X194445913Y-78679520D01*
X194354587Y-78626793D01*
X194252727Y-78599500D01*
X194147273Y-78599500D01*
X194045413Y-78626793D01*
X194045410Y-78626794D01*
X193954085Y-78679521D01*
X193879521Y-78754085D01*
X193826794Y-78845410D01*
X193826793Y-78845413D01*
X193799500Y-78947273D01*
X151390500Y-78947273D01*
X151390500Y-78447273D01*
X202799500Y-78447273D01*
X202799500Y-78552727D01*
X202826793Y-78654587D01*
X202879520Y-78745913D01*
X202954087Y-78820480D01*
X203045413Y-78873207D01*
X203147273Y-78900500D01*
X203147275Y-78900500D01*
X203252725Y-78900500D01*
X203252727Y-78900500D01*
X203354587Y-78873207D01*
X203445913Y-78820480D01*
X203520480Y-78745913D01*
X203573207Y-78654587D01*
X203600500Y-78552727D01*
X203600500Y-78447273D01*
X203573207Y-78345413D01*
X203520480Y-78254087D01*
X203445913Y-78179520D01*
X203354587Y-78126793D01*
X203252727Y-78099500D01*
X203147273Y-78099500D01*
X203045413Y-78126793D01*
X203045410Y-78126794D01*
X202954085Y-78179521D01*
X202879521Y-78254085D01*
X202826794Y-78345410D01*
X202826793Y-78345413D01*
X202799500Y-78447273D01*
X151390500Y-78447273D01*
X151390500Y-77734773D01*
X199879500Y-77734773D01*
X199879500Y-77840227D01*
X199906793Y-77942087D01*
X199959520Y-78033413D01*
X200034087Y-78107980D01*
X200125413Y-78160707D01*
X200227273Y-78188000D01*
X200227275Y-78188000D01*
X200332725Y-78188000D01*
X200332727Y-78188000D01*
X200434587Y-78160707D01*
X200525913Y-78107980D01*
X200600480Y-78033413D01*
X200653207Y-77942087D01*
X200680500Y-77840227D01*
X200680500Y-77734773D01*
X200653207Y-77632913D01*
X200646876Y-77621947D01*
X215700000Y-77621947D01*
X215700000Y-77858052D01*
X215736934Y-78091247D01*
X215809897Y-78315802D01*
X215917087Y-78526174D01*
X215977338Y-78609104D01*
X215977340Y-78609105D01*
X216717037Y-77869408D01*
X216734075Y-77932993D01*
X216799901Y-78047007D01*
X216892993Y-78140099D01*
X217007007Y-78205925D01*
X217070590Y-78222962D01*
X216330893Y-78962658D01*
X216413828Y-79022914D01*
X216624197Y-79130102D01*
X216848752Y-79203065D01*
X216848751Y-79203065D01*
X217081948Y-79240000D01*
X217318052Y-79240000D01*
X217551247Y-79203065D01*
X217775802Y-79130102D01*
X217986163Y-79022918D01*
X217986169Y-79022914D01*
X218069104Y-78962658D01*
X218069105Y-78962658D01*
X217329408Y-78222962D01*
X217392993Y-78205925D01*
X217507007Y-78140099D01*
X217600099Y-78047007D01*
X217665925Y-77932993D01*
X217682962Y-77869409D01*
X218422658Y-78609105D01*
X218422658Y-78609104D01*
X218482914Y-78526169D01*
X218482918Y-78526163D01*
X218590102Y-78315802D01*
X218663065Y-78091247D01*
X218700000Y-77858052D01*
X218700000Y-77621947D01*
X218663065Y-77388752D01*
X218590102Y-77164197D01*
X218482914Y-76953828D01*
X218422658Y-76870894D01*
X218422658Y-76870893D01*
X217682962Y-77610590D01*
X217665925Y-77547007D01*
X217600099Y-77432993D01*
X217507007Y-77339901D01*
X217392993Y-77274075D01*
X217329409Y-77257037D01*
X218075278Y-76511167D01*
X218084798Y-76465852D01*
X218133849Y-76416095D01*
X218194052Y-76400500D01*
X218219750Y-76400500D01*
X218219751Y-76400499D01*
X218234568Y-76397552D01*
X218278229Y-76388868D01*
X218278229Y-76388867D01*
X218278231Y-76388867D01*
X218344552Y-76344552D01*
X218388867Y-76278231D01*
X218388867Y-76278229D01*
X218388868Y-76278229D01*
X218400499Y-76219752D01*
X218400500Y-76219750D01*
X218400500Y-74180249D01*
X218400499Y-74180247D01*
X218388868Y-74121770D01*
X218388867Y-74121769D01*
X218344552Y-74055447D01*
X218278230Y-74011132D01*
X218278229Y-74011131D01*
X218219752Y-73999500D01*
X218219748Y-73999500D01*
X216180252Y-73999500D01*
X216180247Y-73999500D01*
X216121770Y-74011131D01*
X216121769Y-74011132D01*
X216055447Y-74055447D01*
X216011132Y-74121769D01*
X216011131Y-74121770D01*
X215999500Y-74180247D01*
X215999500Y-76219752D01*
X216011131Y-76278229D01*
X216011132Y-76278230D01*
X216055447Y-76344552D01*
X216121769Y-76388867D01*
X216121770Y-76388868D01*
X216180247Y-76400499D01*
X216180250Y-76400500D01*
X216205947Y-76400500D01*
X216272986Y-76420185D01*
X216318741Y-76472989D01*
X216325653Y-76512099D01*
X217070591Y-77257037D01*
X217007007Y-77274075D01*
X216892993Y-77339901D01*
X216799901Y-77432993D01*
X216734075Y-77547007D01*
X216717037Y-77610590D01*
X215977340Y-76870894D01*
X215917084Y-76953830D01*
X215809897Y-77164197D01*
X215736934Y-77388752D01*
X215700000Y-77621947D01*
X200646876Y-77621947D01*
X200600480Y-77541587D01*
X200525913Y-77467020D01*
X200434587Y-77414293D01*
X200332727Y-77387000D01*
X200227273Y-77387000D01*
X200125413Y-77414293D01*
X200125410Y-77414294D01*
X200034085Y-77467021D01*
X199959521Y-77541585D01*
X199906794Y-77632910D01*
X199906793Y-77632913D01*
X199879500Y-77734773D01*
X151390500Y-77734773D01*
X151390500Y-76200827D01*
X189453054Y-76200827D01*
X189453054Y-76306281D01*
X189480347Y-76408141D01*
X189533074Y-76499467D01*
X189607641Y-76574034D01*
X189698967Y-76626761D01*
X189800827Y-76654054D01*
X189800829Y-76654054D01*
X189906279Y-76654054D01*
X189906281Y-76654054D01*
X190008141Y-76626761D01*
X190099467Y-76574034D01*
X190174034Y-76499467D01*
X190226761Y-76408141D01*
X190254054Y-76306281D01*
X190254054Y-76200827D01*
X190226761Y-76098967D01*
X190174034Y-76007641D01*
X190113666Y-75947273D01*
X197599500Y-75947273D01*
X197599500Y-76052726D01*
X197626793Y-76154586D01*
X197626794Y-76154589D01*
X197674951Y-76238000D01*
X197691424Y-76305901D01*
X197674951Y-76362000D01*
X197626794Y-76445410D01*
X197626793Y-76445413D01*
X197599500Y-76547273D01*
X197599500Y-76652727D01*
X197626793Y-76754587D01*
X197679520Y-76845913D01*
X197754087Y-76920480D01*
X197845413Y-76973207D01*
X197947273Y-77000500D01*
X197947275Y-77000500D01*
X198052725Y-77000500D01*
X198052727Y-77000500D01*
X198154587Y-76973207D01*
X198245913Y-76920480D01*
X198320480Y-76845913D01*
X198373207Y-76754587D01*
X198400500Y-76652727D01*
X198400500Y-76547273D01*
X198373207Y-76445413D01*
X198325047Y-76361998D01*
X198308575Y-76294100D01*
X198325047Y-76238001D01*
X198373207Y-76154587D01*
X198400500Y-76052727D01*
X198400500Y-75947273D01*
X198373207Y-75845413D01*
X198320480Y-75754087D01*
X198245913Y-75679520D01*
X198154587Y-75626793D01*
X198052727Y-75599500D01*
X197947273Y-75599500D01*
X197845413Y-75626793D01*
X197845410Y-75626794D01*
X197754085Y-75679521D01*
X197679521Y-75754085D01*
X197626794Y-75845410D01*
X197626793Y-75845413D01*
X197599500Y-75947273D01*
X190113666Y-75947273D01*
X190099467Y-75933074D01*
X190008141Y-75880347D01*
X189906281Y-75853054D01*
X189800827Y-75853054D01*
X189698967Y-75880347D01*
X189698964Y-75880348D01*
X189607639Y-75933075D01*
X189533075Y-76007639D01*
X189480348Y-76098964D01*
X189480347Y-76098967D01*
X189453054Y-76200827D01*
X151390500Y-76200827D01*
X151390500Y-74311304D01*
X153349500Y-74311304D01*
X153349500Y-74488695D01*
X153384103Y-74662658D01*
X153384106Y-74662667D01*
X153451983Y-74826540D01*
X153451990Y-74826553D01*
X153550535Y-74974034D01*
X153550538Y-74974038D01*
X153675961Y-75099461D01*
X153675965Y-75099464D01*
X153823446Y-75198009D01*
X153823459Y-75198016D01*
X153939455Y-75246062D01*
X153987334Y-75265894D01*
X153987336Y-75265894D01*
X153987341Y-75265896D01*
X154161304Y-75300499D01*
X154161307Y-75300500D01*
X154161309Y-75300500D01*
X154338693Y-75300500D01*
X154338694Y-75300499D01*
X154396682Y-75288964D01*
X154512658Y-75265896D01*
X154512661Y-75265894D01*
X154512666Y-75265894D01*
X154676547Y-75198013D01*
X154824035Y-75099464D01*
X154949464Y-74974035D01*
X155048013Y-74826547D01*
X155115894Y-74662666D01*
X155119288Y-74645606D01*
X155128383Y-74599882D01*
X155160768Y-74537971D01*
X155221483Y-74503397D01*
X155291253Y-74507136D01*
X155347925Y-74548003D01*
X155371617Y-74599882D01*
X155384103Y-74662658D01*
X155384106Y-74662667D01*
X155451983Y-74826540D01*
X155451990Y-74826553D01*
X155550535Y-74974034D01*
X155550538Y-74974038D01*
X155675961Y-75099461D01*
X155675965Y-75099464D01*
X155823446Y-75198009D01*
X155823459Y-75198016D01*
X155939455Y-75246062D01*
X155987334Y-75265894D01*
X155987336Y-75265894D01*
X155987341Y-75265896D01*
X156161304Y-75300499D01*
X156161307Y-75300500D01*
X156161309Y-75300500D01*
X156338693Y-75300500D01*
X156338694Y-75300499D01*
X156396682Y-75288964D01*
X156512658Y-75265896D01*
X156512661Y-75265894D01*
X156512666Y-75265894D01*
X156676547Y-75198013D01*
X156824035Y-75099464D01*
X156949464Y-74974035D01*
X157048013Y-74826547D01*
X157115894Y-74662666D01*
X157119288Y-74645606D01*
X157128383Y-74599882D01*
X157160768Y-74537971D01*
X157221483Y-74503397D01*
X157291253Y-74507136D01*
X157347925Y-74548003D01*
X157371617Y-74599882D01*
X157384103Y-74662658D01*
X157384106Y-74662667D01*
X157451983Y-74826540D01*
X157451990Y-74826553D01*
X157550535Y-74974034D01*
X157550538Y-74974038D01*
X157675961Y-75099461D01*
X157675965Y-75099464D01*
X157823446Y-75198009D01*
X157823459Y-75198016D01*
X157939455Y-75246062D01*
X157987334Y-75265894D01*
X157987336Y-75265894D01*
X157987341Y-75265896D01*
X158161304Y-75300499D01*
X158161307Y-75300500D01*
X158161309Y-75300500D01*
X158338693Y-75300500D01*
X158338694Y-75300499D01*
X158396682Y-75288964D01*
X158512658Y-75265896D01*
X158512661Y-75265894D01*
X158512666Y-75265894D01*
X158676547Y-75198013D01*
X158824035Y-75099464D01*
X158949464Y-74974035D01*
X159048013Y-74826547D01*
X159115894Y-74662666D01*
X159119288Y-74645606D01*
X159128383Y-74599882D01*
X159160768Y-74537971D01*
X159221483Y-74503397D01*
X159291253Y-74507136D01*
X159347925Y-74548003D01*
X159371617Y-74599882D01*
X159384103Y-74662658D01*
X159384106Y-74662667D01*
X159451983Y-74826540D01*
X159451990Y-74826553D01*
X159550535Y-74974034D01*
X159550538Y-74974038D01*
X159675961Y-75099461D01*
X159675965Y-75099464D01*
X159823446Y-75198009D01*
X159823459Y-75198016D01*
X159939455Y-75246062D01*
X159987334Y-75265894D01*
X159987336Y-75265894D01*
X159987341Y-75265896D01*
X160161304Y-75300499D01*
X160161307Y-75300500D01*
X160161309Y-75300500D01*
X160338693Y-75300500D01*
X160338694Y-75300499D01*
X160396682Y-75288964D01*
X160512658Y-75265896D01*
X160512661Y-75265894D01*
X160512666Y-75265894D01*
X160676547Y-75198013D01*
X160824035Y-75099464D01*
X160949464Y-74974035D01*
X161048013Y-74826547D01*
X161115894Y-74662666D01*
X161119288Y-74645606D01*
X161128383Y-74599882D01*
X161160768Y-74537971D01*
X161221483Y-74503397D01*
X161291253Y-74507136D01*
X161347925Y-74548003D01*
X161371617Y-74599882D01*
X161384103Y-74662658D01*
X161384106Y-74662667D01*
X161451983Y-74826540D01*
X161451990Y-74826553D01*
X161550535Y-74974034D01*
X161550538Y-74974038D01*
X161675961Y-75099461D01*
X161675965Y-75099464D01*
X161823446Y-75198009D01*
X161823459Y-75198016D01*
X161939455Y-75246062D01*
X161987334Y-75265894D01*
X161987336Y-75265894D01*
X161987341Y-75265896D01*
X162161304Y-75300499D01*
X162161307Y-75300500D01*
X162161309Y-75300500D01*
X162338693Y-75300500D01*
X162338694Y-75300499D01*
X162396682Y-75288964D01*
X162512658Y-75265896D01*
X162512661Y-75265894D01*
X162512666Y-75265894D01*
X162676547Y-75198013D01*
X162824035Y-75099464D01*
X162949464Y-74974035D01*
X163048013Y-74826547D01*
X163115894Y-74662666D01*
X163119288Y-74645606D01*
X163128383Y-74599882D01*
X163160768Y-74537971D01*
X163221483Y-74503397D01*
X163291253Y-74507136D01*
X163347925Y-74548003D01*
X163371617Y-74599882D01*
X163384103Y-74662658D01*
X163384106Y-74662667D01*
X163451983Y-74826540D01*
X163451990Y-74826553D01*
X163550535Y-74974034D01*
X163550538Y-74974038D01*
X163675961Y-75099461D01*
X163675965Y-75099464D01*
X163823446Y-75198009D01*
X163823459Y-75198016D01*
X163939455Y-75246062D01*
X163987334Y-75265894D01*
X163987336Y-75265894D01*
X163987341Y-75265896D01*
X164161304Y-75300499D01*
X164161307Y-75300500D01*
X164161309Y-75300500D01*
X164338693Y-75300500D01*
X164338694Y-75300499D01*
X164396682Y-75288964D01*
X164512658Y-75265896D01*
X164512661Y-75265894D01*
X164512666Y-75265894D01*
X164576642Y-75239394D01*
X164676541Y-75198016D01*
X164676544Y-75198014D01*
X164676547Y-75198013D01*
X164824035Y-75099464D01*
X164949464Y-74974035D01*
X164971626Y-74940868D01*
X165025235Y-74896064D01*
X165094560Y-74887355D01*
X165157588Y-74917509D01*
X165185211Y-74953463D01*
X165223664Y-75028930D01*
X165242116Y-75054328D01*
X165850000Y-74446445D01*
X165850000Y-74452661D01*
X165877259Y-74554394D01*
X165929920Y-74645606D01*
X166004394Y-74720080D01*
X166095606Y-74772741D01*
X166197339Y-74800000D01*
X166203554Y-74800000D01*
X165595669Y-75407882D01*
X165595670Y-75407883D01*
X165621059Y-75426329D01*
X165789362Y-75512085D01*
X165968997Y-75570451D01*
X166155553Y-75600000D01*
X166344447Y-75600000D01*
X166531002Y-75570451D01*
X166710637Y-75512085D01*
X166878937Y-75426331D01*
X166904328Y-75407883D01*
X166904328Y-75407882D01*
X166296447Y-74800000D01*
X166302661Y-74800000D01*
X166404394Y-74772741D01*
X166495606Y-74720080D01*
X166570080Y-74645606D01*
X166622741Y-74554394D01*
X166650000Y-74452661D01*
X166650000Y-74446446D01*
X167257882Y-75054328D01*
X167257883Y-75054328D01*
X167276331Y-75028937D01*
X167314787Y-74953464D01*
X167362761Y-74902668D01*
X167430582Y-74885873D01*
X167496717Y-74908410D01*
X167528374Y-74940868D01*
X167550535Y-74974034D01*
X167550538Y-74974038D01*
X167675961Y-75099461D01*
X167675965Y-75099464D01*
X167823446Y-75198009D01*
X167823459Y-75198016D01*
X167939455Y-75246062D01*
X167987334Y-75265894D01*
X167987336Y-75265894D01*
X167987341Y-75265896D01*
X168161304Y-75300499D01*
X168161307Y-75300500D01*
X168161309Y-75300500D01*
X168338693Y-75300500D01*
X168338694Y-75300499D01*
X168396682Y-75288964D01*
X168512658Y-75265896D01*
X168512661Y-75265894D01*
X168512666Y-75265894D01*
X168676547Y-75198013D01*
X168824035Y-75099464D01*
X168949464Y-74974035D01*
X169048013Y-74826547D01*
X169115894Y-74662666D01*
X169119288Y-74645606D01*
X169128383Y-74599882D01*
X169160768Y-74537971D01*
X169221483Y-74503397D01*
X169291253Y-74507136D01*
X169347925Y-74548003D01*
X169371617Y-74599882D01*
X169384103Y-74662658D01*
X169384106Y-74662667D01*
X169451983Y-74826540D01*
X169451990Y-74826553D01*
X169550535Y-74974034D01*
X169550538Y-74974038D01*
X169675961Y-75099461D01*
X169675965Y-75099464D01*
X169823446Y-75198009D01*
X169823459Y-75198016D01*
X169939455Y-75246062D01*
X169987334Y-75265894D01*
X169987336Y-75265894D01*
X169987341Y-75265896D01*
X170161304Y-75300499D01*
X170161307Y-75300500D01*
X170161309Y-75300500D01*
X170338693Y-75300500D01*
X170338694Y-75300499D01*
X170396682Y-75288964D01*
X170512658Y-75265896D01*
X170512661Y-75265894D01*
X170512666Y-75265894D01*
X170676547Y-75198013D01*
X170824035Y-75099464D01*
X170949464Y-74974035D01*
X171048013Y-74826547D01*
X171115894Y-74662666D01*
X171119288Y-74645606D01*
X171128383Y-74599882D01*
X171160768Y-74537971D01*
X171221483Y-74503397D01*
X171291253Y-74507136D01*
X171347925Y-74548003D01*
X171371617Y-74599882D01*
X171384103Y-74662658D01*
X171384106Y-74662667D01*
X171451983Y-74826540D01*
X171451990Y-74826553D01*
X171550535Y-74974034D01*
X171550538Y-74974038D01*
X171675961Y-75099461D01*
X171675965Y-75099464D01*
X171823446Y-75198009D01*
X171823459Y-75198016D01*
X171939455Y-75246062D01*
X171987334Y-75265894D01*
X171987336Y-75265894D01*
X171987341Y-75265896D01*
X172161304Y-75300499D01*
X172161307Y-75300500D01*
X172161309Y-75300500D01*
X172338693Y-75300500D01*
X172338694Y-75300499D01*
X172396682Y-75288964D01*
X172512658Y-75265896D01*
X172512661Y-75265894D01*
X172512666Y-75265894D01*
X172676547Y-75198013D01*
X172824035Y-75099464D01*
X172949464Y-74974035D01*
X173048013Y-74826547D01*
X173115894Y-74662666D01*
X173119288Y-74645606D01*
X173150499Y-74488695D01*
X173150500Y-74488693D01*
X173150500Y-74311306D01*
X173150499Y-74311304D01*
X173128032Y-74198351D01*
X173115895Y-74137340D01*
X173115894Y-74137334D01*
X173081976Y-74055447D01*
X173048016Y-73973459D01*
X173048009Y-73973446D01*
X172949464Y-73825965D01*
X172949461Y-73825961D01*
X172824038Y-73700538D01*
X172824034Y-73700535D01*
X172676553Y-73601990D01*
X172676540Y-73601983D01*
X172512667Y-73534106D01*
X172512658Y-73534103D01*
X172338694Y-73499500D01*
X172338691Y-73499500D01*
X172161309Y-73499500D01*
X172161306Y-73499500D01*
X171987341Y-73534103D01*
X171987332Y-73534106D01*
X171823459Y-73601983D01*
X171823446Y-73601990D01*
X171675965Y-73700535D01*
X171675961Y-73700538D01*
X171550538Y-73825961D01*
X171550535Y-73825965D01*
X171451990Y-73973446D01*
X171451983Y-73973459D01*
X171384106Y-74137332D01*
X171384104Y-74137340D01*
X171371617Y-74200118D01*
X171339232Y-74262028D01*
X171278516Y-74296603D01*
X171208747Y-74292863D01*
X171152075Y-74251996D01*
X171128383Y-74200118D01*
X171115895Y-74137340D01*
X171115894Y-74137334D01*
X171081976Y-74055447D01*
X171048016Y-73973459D01*
X171048009Y-73973446D01*
X170949464Y-73825965D01*
X170949461Y-73825961D01*
X170824038Y-73700538D01*
X170824034Y-73700535D01*
X170676553Y-73601990D01*
X170676540Y-73601983D01*
X170512667Y-73534106D01*
X170512658Y-73534103D01*
X170338694Y-73499500D01*
X170338691Y-73499500D01*
X170161309Y-73499500D01*
X170161306Y-73499500D01*
X169987341Y-73534103D01*
X169987332Y-73534106D01*
X169823459Y-73601983D01*
X169823446Y-73601990D01*
X169675965Y-73700535D01*
X169675961Y-73700538D01*
X169550538Y-73825961D01*
X169550535Y-73825965D01*
X169451990Y-73973446D01*
X169451983Y-73973459D01*
X169384106Y-74137332D01*
X169384104Y-74137340D01*
X169371617Y-74200118D01*
X169339232Y-74262028D01*
X169278516Y-74296603D01*
X169208747Y-74292863D01*
X169152075Y-74251996D01*
X169128383Y-74200118D01*
X169115895Y-74137340D01*
X169115894Y-74137334D01*
X169081976Y-74055447D01*
X169048016Y-73973459D01*
X169048009Y-73973446D01*
X168949464Y-73825965D01*
X168949461Y-73825961D01*
X168824038Y-73700538D01*
X168824034Y-73700535D01*
X168676553Y-73601990D01*
X168676540Y-73601983D01*
X168512667Y-73534106D01*
X168512658Y-73534103D01*
X168338694Y-73499500D01*
X168338691Y-73499500D01*
X168161309Y-73499500D01*
X168161306Y-73499500D01*
X167987341Y-73534103D01*
X167987332Y-73534106D01*
X167823459Y-73601983D01*
X167823446Y-73601990D01*
X167675965Y-73700535D01*
X167675961Y-73700538D01*
X167550538Y-73825961D01*
X167550533Y-73825967D01*
X167528373Y-73859132D01*
X167474760Y-73903937D01*
X167405435Y-73912643D01*
X167342408Y-73882487D01*
X167314787Y-73846535D01*
X167276329Y-73771059D01*
X167257883Y-73745670D01*
X167257882Y-73745669D01*
X166650000Y-74353552D01*
X166650000Y-74347339D01*
X166622741Y-74245606D01*
X166570080Y-74154394D01*
X166495606Y-74079920D01*
X166404394Y-74027259D01*
X166302661Y-74000000D01*
X166296447Y-74000000D01*
X166904328Y-73392116D01*
X166878933Y-73373666D01*
X166710637Y-73287914D01*
X166531002Y-73229548D01*
X166344447Y-73200000D01*
X166155553Y-73200000D01*
X165968997Y-73229548D01*
X165789362Y-73287914D01*
X165621060Y-73373669D01*
X165595670Y-73392116D01*
X165595669Y-73392116D01*
X166203554Y-74000000D01*
X166197339Y-74000000D01*
X166095606Y-74027259D01*
X166004394Y-74079920D01*
X165929920Y-74154394D01*
X165877259Y-74245606D01*
X165850000Y-74347339D01*
X165850000Y-74353553D01*
X165242116Y-73745669D01*
X165242116Y-73745670D01*
X165223669Y-73771060D01*
X165185211Y-73846537D01*
X165137236Y-73897332D01*
X165069414Y-73914126D01*
X165003280Y-73891587D01*
X164971625Y-73859130D01*
X164949467Y-73825969D01*
X164949461Y-73825961D01*
X164824038Y-73700538D01*
X164824034Y-73700535D01*
X164676553Y-73601990D01*
X164676540Y-73601983D01*
X164560545Y-73553937D01*
X164560543Y-73553937D01*
X164512666Y-73534106D01*
X164512659Y-73534104D01*
X164512658Y-73534104D01*
X164512658Y-73534103D01*
X164338694Y-73499500D01*
X164338691Y-73499500D01*
X164161309Y-73499500D01*
X164161306Y-73499500D01*
X163987341Y-73534103D01*
X163987332Y-73534106D01*
X163823459Y-73601983D01*
X163823446Y-73601990D01*
X163675965Y-73700535D01*
X163675961Y-73700538D01*
X163550538Y-73825961D01*
X163550535Y-73825965D01*
X163451990Y-73973446D01*
X163451983Y-73973459D01*
X163384106Y-74137332D01*
X163384104Y-74137340D01*
X163371617Y-74200118D01*
X163339232Y-74262028D01*
X163278516Y-74296603D01*
X163208747Y-74292863D01*
X163152075Y-74251996D01*
X163128383Y-74200118D01*
X163115895Y-74137340D01*
X163115894Y-74137334D01*
X163081976Y-74055447D01*
X163048016Y-73973459D01*
X163048009Y-73973446D01*
X162949464Y-73825965D01*
X162949461Y-73825961D01*
X162824038Y-73700538D01*
X162824034Y-73700535D01*
X162676553Y-73601990D01*
X162676540Y-73601983D01*
X162512667Y-73534106D01*
X162512658Y-73534103D01*
X162338694Y-73499500D01*
X162338691Y-73499500D01*
X162161309Y-73499500D01*
X162161306Y-73499500D01*
X161987341Y-73534103D01*
X161987332Y-73534106D01*
X161823459Y-73601983D01*
X161823446Y-73601990D01*
X161675965Y-73700535D01*
X161675961Y-73700538D01*
X161550538Y-73825961D01*
X161550535Y-73825965D01*
X161451990Y-73973446D01*
X161451983Y-73973459D01*
X161384106Y-74137332D01*
X161384104Y-74137340D01*
X161371617Y-74200118D01*
X161339232Y-74262028D01*
X161278516Y-74296603D01*
X161208747Y-74292863D01*
X161152075Y-74251996D01*
X161128383Y-74200118D01*
X161115895Y-74137340D01*
X161115894Y-74137334D01*
X161081976Y-74055447D01*
X161048016Y-73973459D01*
X161048009Y-73973446D01*
X160949464Y-73825965D01*
X160949461Y-73825961D01*
X160824038Y-73700538D01*
X160824034Y-73700535D01*
X160676553Y-73601990D01*
X160676540Y-73601983D01*
X160512667Y-73534106D01*
X160512658Y-73534103D01*
X160338694Y-73499500D01*
X160338691Y-73499500D01*
X160161309Y-73499500D01*
X160161306Y-73499500D01*
X159987341Y-73534103D01*
X159987332Y-73534106D01*
X159823459Y-73601983D01*
X159823446Y-73601990D01*
X159675965Y-73700535D01*
X159675961Y-73700538D01*
X159550538Y-73825961D01*
X159550535Y-73825965D01*
X159451990Y-73973446D01*
X159451983Y-73973459D01*
X159384106Y-74137332D01*
X159384104Y-74137340D01*
X159371617Y-74200118D01*
X159339232Y-74262028D01*
X159278516Y-74296603D01*
X159208747Y-74292863D01*
X159152075Y-74251996D01*
X159128383Y-74200118D01*
X159115895Y-74137340D01*
X159115894Y-74137334D01*
X159081976Y-74055447D01*
X159048016Y-73973459D01*
X159048009Y-73973446D01*
X158949464Y-73825965D01*
X158949461Y-73825961D01*
X158824038Y-73700538D01*
X158824034Y-73700535D01*
X158676553Y-73601990D01*
X158676540Y-73601983D01*
X158512667Y-73534106D01*
X158512658Y-73534103D01*
X158338694Y-73499500D01*
X158338691Y-73499500D01*
X158161309Y-73499500D01*
X158161306Y-73499500D01*
X157987341Y-73534103D01*
X157987332Y-73534106D01*
X157823459Y-73601983D01*
X157823446Y-73601990D01*
X157675965Y-73700535D01*
X157675961Y-73700538D01*
X157550538Y-73825961D01*
X157550535Y-73825965D01*
X157451990Y-73973446D01*
X157451983Y-73973459D01*
X157384106Y-74137332D01*
X157384104Y-74137340D01*
X157371617Y-74200118D01*
X157339232Y-74262028D01*
X157278516Y-74296603D01*
X157208747Y-74292863D01*
X157152075Y-74251996D01*
X157128383Y-74200118D01*
X157115895Y-74137340D01*
X157115894Y-74137334D01*
X157081976Y-74055447D01*
X157048016Y-73973459D01*
X157048009Y-73973446D01*
X156949464Y-73825965D01*
X156949461Y-73825961D01*
X156824038Y-73700538D01*
X156824034Y-73700535D01*
X156676553Y-73601990D01*
X156676540Y-73601983D01*
X156512667Y-73534106D01*
X156512658Y-73534103D01*
X156338694Y-73499500D01*
X156338691Y-73499500D01*
X156161309Y-73499500D01*
X156161306Y-73499500D01*
X155987341Y-73534103D01*
X155987332Y-73534106D01*
X155823459Y-73601983D01*
X155823446Y-73601990D01*
X155675965Y-73700535D01*
X155675961Y-73700538D01*
X155550538Y-73825961D01*
X155550535Y-73825965D01*
X155451990Y-73973446D01*
X155451983Y-73973459D01*
X155384106Y-74137332D01*
X155384104Y-74137340D01*
X155371617Y-74200118D01*
X155339232Y-74262028D01*
X155278516Y-74296603D01*
X155208747Y-74292863D01*
X155152075Y-74251996D01*
X155128383Y-74200118D01*
X155115895Y-74137340D01*
X155115894Y-74137334D01*
X155081976Y-74055447D01*
X155048016Y-73973459D01*
X155048009Y-73973446D01*
X154949464Y-73825965D01*
X154949461Y-73825961D01*
X154824038Y-73700538D01*
X154824034Y-73700535D01*
X154676553Y-73601990D01*
X154676540Y-73601983D01*
X154512667Y-73534106D01*
X154512658Y-73534103D01*
X154338694Y-73499500D01*
X154338691Y-73499500D01*
X154161309Y-73499500D01*
X154161306Y-73499500D01*
X153987341Y-73534103D01*
X153987332Y-73534106D01*
X153823459Y-73601983D01*
X153823446Y-73601990D01*
X153675965Y-73700535D01*
X153675961Y-73700538D01*
X153550538Y-73825961D01*
X153550535Y-73825965D01*
X153451990Y-73973446D01*
X153451983Y-73973459D01*
X153384106Y-74137332D01*
X153384103Y-74137341D01*
X153349500Y-74311304D01*
X151390500Y-74311304D01*
X151390500Y-72347273D01*
X190199500Y-72347273D01*
X190199500Y-72452727D01*
X190226793Y-72554587D01*
X190279520Y-72645913D01*
X190354087Y-72720480D01*
X190445413Y-72773207D01*
X190547273Y-72800500D01*
X190547275Y-72800500D01*
X190652725Y-72800500D01*
X190652727Y-72800500D01*
X190754587Y-72773207D01*
X190845913Y-72720480D01*
X190920480Y-72645913D01*
X190973207Y-72554587D01*
X190975167Y-72547273D01*
X197999500Y-72547273D01*
X197999500Y-72652727D01*
X198026793Y-72754587D01*
X198079520Y-72845913D01*
X198154087Y-72920480D01*
X198245413Y-72973207D01*
X198347273Y-73000500D01*
X198347275Y-73000500D01*
X198452725Y-73000500D01*
X198452727Y-73000500D01*
X198554587Y-72973207D01*
X198645913Y-72920480D01*
X198720480Y-72845913D01*
X198773207Y-72754587D01*
X198800500Y-72652727D01*
X198800500Y-72547273D01*
X198773207Y-72445413D01*
X198720480Y-72354087D01*
X198645913Y-72279520D01*
X198554587Y-72226793D01*
X198452727Y-72199500D01*
X198347273Y-72199500D01*
X198245413Y-72226793D01*
X198245410Y-72226794D01*
X198154085Y-72279521D01*
X198079521Y-72354085D01*
X198026794Y-72445410D01*
X198026793Y-72445413D01*
X197999500Y-72547273D01*
X190975167Y-72547273D01*
X191000500Y-72452727D01*
X191000500Y-72347273D01*
X190973207Y-72245413D01*
X190920480Y-72154087D01*
X190845913Y-72079520D01*
X190754587Y-72026793D01*
X190652727Y-71999500D01*
X190547273Y-71999500D01*
X190445413Y-72026793D01*
X190445410Y-72026794D01*
X190354085Y-72079521D01*
X190279521Y-72154085D01*
X190226794Y-72245410D01*
X190226793Y-72245413D01*
X190199500Y-72347273D01*
X151390500Y-72347273D01*
X151390500Y-71947273D01*
X200799500Y-71947273D01*
X200799500Y-72052727D01*
X200826793Y-72154587D01*
X200879520Y-72245913D01*
X200954087Y-72320480D01*
X201045413Y-72373207D01*
X201147273Y-72400500D01*
X201147275Y-72400500D01*
X201252725Y-72400500D01*
X201252727Y-72400500D01*
X201354587Y-72373207D01*
X201445913Y-72320480D01*
X201520480Y-72245913D01*
X201573207Y-72154587D01*
X201600500Y-72052727D01*
X201600500Y-71947273D01*
X201573207Y-71845413D01*
X201520480Y-71754087D01*
X201445913Y-71679520D01*
X201354587Y-71626793D01*
X201252727Y-71599500D01*
X201147273Y-71599500D01*
X201045413Y-71626793D01*
X201045410Y-71626794D01*
X200954085Y-71679521D01*
X200879521Y-71754085D01*
X200826794Y-71845410D01*
X200826793Y-71845413D01*
X200799500Y-71947273D01*
X151390500Y-71947273D01*
X151390500Y-67097273D01*
X212424500Y-67097273D01*
X212424500Y-67202727D01*
X212451793Y-67304587D01*
X212504520Y-67395913D01*
X212579087Y-67470480D01*
X212670413Y-67523207D01*
X212772273Y-67550500D01*
X212772275Y-67550500D01*
X212877725Y-67550500D01*
X212877727Y-67550500D01*
X212979587Y-67523207D01*
X213070913Y-67470480D01*
X213145480Y-67395913D01*
X213198207Y-67304587D01*
X213225500Y-67202727D01*
X213225500Y-67097273D01*
X213198207Y-66995413D01*
X213145480Y-66904087D01*
X213070913Y-66829520D01*
X212979587Y-66776793D01*
X212877727Y-66749500D01*
X212772273Y-66749500D01*
X212670413Y-66776793D01*
X212670410Y-66776794D01*
X212579085Y-66829521D01*
X212504521Y-66904085D01*
X212451794Y-66995410D01*
X212451793Y-66995413D01*
X212424500Y-67097273D01*
X151390500Y-67097273D01*
X151390500Y-63111902D01*
X152389500Y-63111902D01*
X152389500Y-63348097D01*
X152426446Y-63581368D01*
X152499433Y-63805996D01*
X152606657Y-64016433D01*
X152745483Y-64207510D01*
X152912490Y-64374517D01*
X153103567Y-64513343D01*
X153202991Y-64564002D01*
X153314003Y-64620566D01*
X153314005Y-64620566D01*
X153314008Y-64620568D01*
X153434412Y-64659689D01*
X153538631Y-64693553D01*
X153771903Y-64730500D01*
X153771908Y-64730500D01*
X154008097Y-64730500D01*
X154241368Y-64693553D01*
X154465992Y-64620568D01*
X154676433Y-64513343D01*
X154867510Y-64374517D01*
X155034517Y-64207510D01*
X155173343Y-64016433D01*
X155280568Y-63805992D01*
X155353553Y-63581368D01*
X155387332Y-63368097D01*
X155390500Y-63348097D01*
X155390500Y-63131902D01*
X216749500Y-63131902D01*
X216749500Y-63368097D01*
X216786446Y-63601368D01*
X216859433Y-63825996D01*
X216956466Y-64016433D01*
X216966657Y-64036433D01*
X217105483Y-64227510D01*
X217272490Y-64394517D01*
X217463567Y-64533343D01*
X217562991Y-64584002D01*
X217674003Y-64640566D01*
X217674005Y-64640566D01*
X217674008Y-64640568D01*
X217794412Y-64679689D01*
X217898631Y-64713553D01*
X218131903Y-64750500D01*
X218131908Y-64750500D01*
X218368097Y-64750500D01*
X218601368Y-64713553D01*
X218662921Y-64693553D01*
X218825992Y-64640568D01*
X219036433Y-64533343D01*
X219227510Y-64394517D01*
X219394517Y-64227510D01*
X219533343Y-64036433D01*
X219640568Y-63825992D01*
X219713553Y-63601368D01*
X219716721Y-63581368D01*
X219750500Y-63368097D01*
X219750500Y-63131902D01*
X219713553Y-62898631D01*
X219640566Y-62674003D01*
X219533342Y-62463566D01*
X219518811Y-62443566D01*
X219394517Y-62272490D01*
X219227510Y-62105483D01*
X219036433Y-61966657D01*
X218997181Y-61946657D01*
X218825996Y-61859433D01*
X218601368Y-61786446D01*
X218368097Y-61749500D01*
X218368092Y-61749500D01*
X218131908Y-61749500D01*
X218131903Y-61749500D01*
X217898631Y-61786446D01*
X217674003Y-61859433D01*
X217463566Y-61966657D01*
X217354550Y-62045862D01*
X217272490Y-62105483D01*
X217272488Y-62105485D01*
X217272487Y-62105485D01*
X217105485Y-62272487D01*
X217105485Y-62272488D01*
X217105483Y-62272490D01*
X217045862Y-62354550D01*
X216966657Y-62463566D01*
X216859433Y-62674003D01*
X216786446Y-62898631D01*
X216749500Y-63131902D01*
X155390500Y-63131902D01*
X155390500Y-63111902D01*
X155353553Y-62878631D01*
X155287066Y-62674008D01*
X155280568Y-62654008D01*
X155280566Y-62654005D01*
X155280566Y-62654003D01*
X155224002Y-62542991D01*
X155173343Y-62443567D01*
X155034517Y-62252490D01*
X154867510Y-62085483D01*
X154676433Y-61946657D01*
X154465996Y-61839433D01*
X154241368Y-61766446D01*
X154008097Y-61729500D01*
X154008092Y-61729500D01*
X153771908Y-61729500D01*
X153771903Y-61729500D01*
X153538631Y-61766446D01*
X153314003Y-61839433D01*
X153103566Y-61946657D01*
X153076039Y-61966657D01*
X152912490Y-62085483D01*
X152912488Y-62085485D01*
X152912487Y-62085485D01*
X152745485Y-62252487D01*
X152745485Y-62252488D01*
X152745483Y-62252490D01*
X152685862Y-62334550D01*
X152606657Y-62443566D01*
X152499433Y-62654003D01*
X152426446Y-62878631D01*
X152389500Y-63111902D01*
X151390500Y-63111902D01*
X151390500Y-60854500D01*
X151410185Y-60787461D01*
X151462989Y-60741706D01*
X151514500Y-60730500D01*
X220765500Y-60730500D01*
X220832539Y-60750185D01*
G37*
%TD.AperFunction*%
%TD*%
M02*
