%TF.GenerationSoftware,KiCad,Pcbnew,9.0.4*%
%TF.CreationDate,2026-02-10T01:04:34-03:00*%
%TF.ProjectId,flight_comp_srad-2026,666c6967-6874-45f6-936f-6d705f737261,rev?*%
%TF.SameCoordinates,Original*%
%TF.FileFunction,Soldermask,Top*%
%TF.FilePolarity,Negative*%
%FSLAX46Y46*%
G04 Gerber Fmt 4.6, Leading zero omitted, Abs format (unit mm)*
G04 Created by KiCad (PCBNEW 9.0.4) date 2026-02-10 01:04:34*
%MOMM*%
%LPD*%
G01*
G04 APERTURE LIST*
G04 Aperture macros list*
%AMRoundRect*
0 Rectangle with rounded corners*
0 $1 Rounding radius*
0 $2 $3 $4 $5 $6 $7 $8 $9 X,Y pos of 4 corners*
0 Add a 4 corners polygon primitive as box body*
4,1,4,$2,$3,$4,$5,$6,$7,$8,$9,$2,$3,0*
0 Add four circle primitives for the rounded corners*
1,1,$1+$1,$2,$3*
1,1,$1+$1,$4,$5*
1,1,$1+$1,$6,$7*
1,1,$1+$1,$8,$9*
0 Add four rect primitives between the rounded corners*
20,1,$1+$1,$2,$3,$4,$5,0*
20,1,$1+$1,$4,$5,$6,$7,0*
20,1,$1+$1,$6,$7,$8,$9,0*
20,1,$1+$1,$8,$9,$2,$3,0*%
G04 Aperture macros list end*
%ADD10C,0.010000*%
%ADD11RoundRect,0.250000X-0.262500X-0.450000X0.262500X-0.450000X0.262500X0.450000X-0.262500X0.450000X0*%
%ADD12RoundRect,0.250000X-0.450000X0.262500X-0.450000X-0.262500X0.450000X-0.262500X0.450000X0.262500X0*%
%ADD13RoundRect,0.250000X0.250000X0.475000X-0.250000X0.475000X-0.250000X-0.475000X0.250000X-0.475000X0*%
%ADD14RoundRect,0.250000X-0.475000X0.250000X-0.475000X-0.250000X0.475000X-0.250000X0.475000X0.250000X0*%
%ADD15C,3.000000*%
%ADD16RoundRect,0.100000X0.130000X0.100000X-0.130000X0.100000X-0.130000X-0.100000X0.130000X-0.100000X0*%
%ADD17R,1.050000X0.650000*%
%ADD18RoundRect,0.135000X0.185000X-0.135000X0.185000X0.135000X-0.185000X0.135000X-0.185000X-0.135000X0*%
%ADD19R,2.000000X2.000000*%
%ADD20C,2.000000*%
%ADD21RoundRect,0.135000X-0.135000X-0.185000X0.135000X-0.185000X0.135000X0.185000X-0.135000X0.185000X0*%
%ADD22RoundRect,0.140000X-0.140000X-0.170000X0.140000X-0.170000X0.140000X0.170000X-0.140000X0.170000X0*%
%ADD23RoundRect,0.076200X0.350000X0.550000X-0.350000X0.550000X-0.350000X-0.550000X0.350000X-0.550000X0*%
%ADD24RoundRect,0.076200X0.450000X0.465000X-0.450000X0.465000X-0.450000X-0.465000X0.450000X-0.465000X0*%
%ADD25RoundRect,0.076200X0.525000X0.390000X-0.525000X0.390000X-0.525000X-0.390000X0.525000X-0.390000X0*%
%ADD26RoundRect,0.076200X0.570000X0.915000X-0.570000X0.915000X-0.570000X-0.915000X0.570000X-0.915000X0*%
%ADD27RoundRect,0.076200X0.430000X1.400000X-0.430000X1.400000X-0.430000X-1.400000X0.430000X-1.400000X0*%
%ADD28RoundRect,0.076200X0.350000X1.665000X-0.350000X1.665000X-0.350000X-1.665000X0.350000X-1.665000X0*%
%ADD29RoundRect,0.150000X-0.150000X0.950000X-0.150000X-0.950000X0.150000X-0.950000X0.150000X0.950000X0*%
%ADD30RoundRect,0.537500X-1.187500X0.537500X-1.187500X-0.537500X1.187500X-0.537500X1.187500X0.537500X0*%
%ADD31RoundRect,0.050000X-0.050000X0.387500X-0.050000X-0.387500X0.050000X-0.387500X0.050000X0.387500X0*%
%ADD32RoundRect,0.050000X-0.387500X0.050000X-0.387500X-0.050000X0.387500X-0.050000X0.387500X0.050000X0*%
%ADD33R,3.200000X3.200000*%
%ADD34RoundRect,0.250000X0.262500X0.450000X-0.262500X0.450000X-0.262500X-0.450000X0.262500X-0.450000X0*%
%ADD35RoundRect,0.102000X0.350000X-0.900000X0.350000X0.900000X-0.350000X0.900000X-0.350000X-0.900000X0*%
%ADD36RoundRect,0.102000X0.400000X-0.900000X0.400000X0.900000X-0.400000X0.900000X-0.400000X-0.900000X0*%
%ADD37RoundRect,0.218750X0.218750X0.256250X-0.218750X0.256250X-0.218750X-0.256250X0.218750X-0.256250X0*%
%ADD38RoundRect,0.135000X-0.185000X0.135000X-0.185000X-0.135000X0.185000X-0.135000X0.185000X0.135000X0*%
%ADD39RoundRect,0.102000X0.525000X0.650000X-0.525000X0.650000X-0.525000X-0.650000X0.525000X-0.650000X0*%
%ADD40R,1.650000X0.400000*%
%ADD41R,0.700000X1.825000*%
%ADD42R,1.500000X2.000000*%
%ADD43R,2.000000X1.350000*%
%ADD44O,1.700000X1.350000*%
%ADD45O,1.500000X1.100000*%
%ADD46R,2.500000X1.430000*%
%ADD47RoundRect,0.102000X0.700000X-0.700000X0.700000X0.700000X-0.700000X0.700000X-0.700000X-0.700000X0*%
%ADD48C,1.604000*%
%ADD49RoundRect,0.162500X-0.162500X0.650000X-0.162500X-0.650000X0.162500X-0.650000X0.162500X0.650000X0*%
G04 APERTURE END LIST*
D10*
%TO.C,AE1*%
X186850000Y-61900000D02*
X186000000Y-61900000D01*
X186000000Y-61150000D01*
X186850000Y-61150000D01*
X186850000Y-61900000D01*
G36*
X186850000Y-61900000D02*
G01*
X186000000Y-61900000D01*
X186000000Y-61150000D01*
X186850000Y-61150000D01*
X186850000Y-61900000D01*
G37*
X186850000Y-62850000D02*
X186000000Y-62850000D01*
X186000000Y-62100000D01*
X186850000Y-62100000D01*
X186850000Y-62850000D01*
G36*
X186850000Y-62850000D02*
G01*
X186000000Y-62850000D01*
X186000000Y-62100000D01*
X186850000Y-62100000D01*
X186850000Y-62850000D01*
G37*
X190000000Y-62850000D02*
X189150000Y-62850000D01*
X189150000Y-61150000D01*
X190000000Y-61150000D01*
X190000000Y-62850000D01*
G36*
X190000000Y-62850000D02*
G01*
X189150000Y-62850000D01*
X189150000Y-61150000D01*
X190000000Y-61150000D01*
X190000000Y-62850000D01*
G37*
%TD*%
D11*
%TO.C,R_RST1*%
X191187500Y-89300000D03*
X193012500Y-89300000D03*
%TD*%
D12*
%TO.C,RX_1*%
X188700000Y-82487500D03*
X188700000Y-84312500D03*
%TD*%
D13*
%TO.C,CX_2*%
X192450000Y-82700000D03*
X190550000Y-82700000D03*
%TD*%
%TO.C,CPS_3*%
X209950000Y-90100000D03*
X208050000Y-90100000D03*
%TD*%
D14*
%TO.C,CPS_1*%
X214900000Y-92050000D03*
X214900000Y-93950000D03*
%TD*%
D15*
%TO.C,H8*%
X218100000Y-97500000D03*
%TD*%
D16*
%TO.C,R3*%
X207135000Y-87192500D03*
X207775000Y-87192500D03*
%TD*%
%TO.C,R4*%
X207135000Y-87900000D03*
X207775000Y-87900000D03*
%TD*%
D17*
%TO.C,S1*%
X219100000Y-71400000D03*
X214950000Y-71400000D03*
X219100000Y-69250000D03*
X214950000Y-69250000D03*
%TD*%
D18*
%TO.C,RI2C_4*%
X195200000Y-80000000D03*
X195200000Y-78980000D03*
%TD*%
D19*
%TO.C,J2*%
X191320000Y-98700000D03*
D20*
X193860000Y-98700000D03*
X196400000Y-98700000D03*
%TD*%
D21*
%TO.C,RI2C_2*%
X200670000Y-80787500D03*
X201690000Y-80787500D03*
%TD*%
D15*
%TO.C,H1*%
X163500000Y-69200000D03*
%TD*%
D22*
%TO.C,CGPS_2*%
X182242418Y-82400000D03*
X183202418Y-82400000D03*
%TD*%
D15*
%TO.C,H7*%
X218200000Y-63300000D03*
%TD*%
D22*
%TO.C,C16*%
X202740000Y-81400000D03*
X203700000Y-81400000D03*
%TD*%
D23*
%TO.C,J1*%
X184820000Y-98865000D03*
X183720000Y-98865000D03*
X182620000Y-98865000D03*
X181520000Y-98865000D03*
X180420000Y-98865000D03*
X179320000Y-98865000D03*
X178220000Y-98865000D03*
X177120000Y-98865000D03*
D24*
X186610000Y-86400000D03*
D25*
X182345000Y-86325000D03*
D26*
X188700000Y-98850000D03*
D27*
X176040000Y-98365000D03*
D28*
X188920000Y-87600000D03*
X175960000Y-87600000D03*
%TD*%
D29*
%TO.C,U8*%
X212540000Y-92700000D03*
X211270000Y-92700000D03*
X210000000Y-92700000D03*
X208730000Y-92700000D03*
X207460000Y-92700000D03*
D30*
X210000000Y-99000000D03*
%TD*%
D31*
%TO.C,U3*%
X202670000Y-82742500D03*
X202270000Y-82742500D03*
X201870000Y-82742500D03*
X201470000Y-82742500D03*
X201070000Y-82742500D03*
X200670000Y-82742500D03*
X200270000Y-82742500D03*
X199870000Y-82742500D03*
X199470000Y-82742500D03*
X199070000Y-82742500D03*
X198670000Y-82742500D03*
X198270000Y-82742500D03*
X197870000Y-82742500D03*
X197470000Y-82742500D03*
D32*
X196632500Y-83580000D03*
X196632500Y-83980000D03*
X196632500Y-84380000D03*
X196632500Y-84780000D03*
X196632500Y-85180000D03*
X196632500Y-85580000D03*
X196632500Y-85980000D03*
X196632500Y-86380000D03*
X196632500Y-86780000D03*
X196632500Y-87180000D03*
X196632500Y-87580000D03*
X196632500Y-87980000D03*
X196632500Y-88380000D03*
X196632500Y-88780000D03*
D31*
X197470000Y-89617500D03*
X197870000Y-89617500D03*
X198270000Y-89617500D03*
X198670000Y-89617500D03*
X199070000Y-89617500D03*
X199470000Y-89617500D03*
X199870000Y-89617500D03*
X200270000Y-89617500D03*
X200670000Y-89617500D03*
X201070000Y-89617500D03*
X201470000Y-89617500D03*
X201870000Y-89617500D03*
X202270000Y-89617500D03*
X202670000Y-89617500D03*
D32*
X203507500Y-88780000D03*
X203507500Y-88380000D03*
X203507500Y-87980000D03*
X203507500Y-87580000D03*
X203507500Y-87180000D03*
X203507500Y-86780000D03*
X203507500Y-86380000D03*
X203507500Y-85980000D03*
X203507500Y-85580000D03*
X203507500Y-85180000D03*
X203507500Y-84780000D03*
X203507500Y-84380000D03*
X203507500Y-83980000D03*
X203507500Y-83580000D03*
D33*
X200070000Y-86180000D03*
%TD*%
D34*
%TO.C,RL_2*%
X204625000Y-99100000D03*
X202800000Y-99100000D03*
%TD*%
D22*
%TO.C,CGPS_3*%
X182244837Y-83406049D03*
X183204837Y-83406049D03*
%TD*%
%TO.C,CGPS_1*%
X182242418Y-81400000D03*
X183202418Y-81400000D03*
%TD*%
D35*
%TO.C,U5*%
X174550000Y-78787500D03*
D36*
X175650000Y-78787500D03*
X176750000Y-78787500D03*
X177850000Y-78787500D03*
X178950000Y-78787500D03*
X180050000Y-78787500D03*
X181150000Y-78787500D03*
X182250000Y-78787500D03*
D35*
X183350000Y-78787500D03*
X183350000Y-69287500D03*
D36*
X182250000Y-69287500D03*
X181150000Y-69287500D03*
X180050000Y-69287500D03*
X178950000Y-69287500D03*
X177850000Y-69287500D03*
X176750000Y-69287500D03*
X175650000Y-69287500D03*
D35*
X174550000Y-69287500D03*
%TD*%
D37*
%TO.C,D1*%
X200687500Y-97500000D03*
X199112500Y-97500000D03*
%TD*%
D21*
%TO.C,RI2C_1*%
X200270000Y-78877500D03*
X201290000Y-78877500D03*
%TD*%
D38*
%TO.C,RFLASH_1*%
X212835000Y-68050000D03*
X212835000Y-69070000D03*
%TD*%
D18*
%TO.C,RI2C_3*%
X194100000Y-81600000D03*
X194100000Y-80580000D03*
%TD*%
D15*
%TO.C,H6*%
X153900000Y-63200000D03*
%TD*%
D38*
%TO.C,RFLASH_2*%
X212835000Y-70090000D03*
X212835000Y-71110000D03*
%TD*%
D39*
%TO.C,Y1*%
X192375000Y-87150000D03*
X192375000Y-84850000D03*
X190625000Y-84850000D03*
X190625000Y-87150000D03*
%TD*%
D37*
%TO.C,D2*%
X204500000Y-97200000D03*
X202925000Y-97200000D03*
%TD*%
D40*
%TO.C,J3*%
X216035000Y-78925000D03*
X216035000Y-78275000D03*
X216035000Y-77625000D03*
X216035000Y-76975000D03*
X216035000Y-76325000D03*
D41*
X217235000Y-80575000D03*
D42*
X215935000Y-80475000D03*
D43*
X217985000Y-80355000D03*
D44*
X218915000Y-80355000D03*
D45*
X215915000Y-80045000D03*
D46*
X219185000Y-78585000D03*
X219185000Y-76665000D03*
D45*
X215915000Y-75205000D03*
D44*
X218915000Y-74895000D03*
D43*
X217985000Y-74875000D03*
D42*
X215915000Y-74725000D03*
D41*
X217235000Y-74625000D03*
%TD*%
D19*
%TO.C,J5*%
X217680000Y-84430000D03*
D20*
X217680000Y-86970000D03*
%TD*%
D34*
%TO.C,RL_1*%
X200912500Y-99400000D03*
X199087500Y-99400000D03*
%TD*%
D47*
%TO.C,U7*%
X154250000Y-96400000D03*
D48*
X156250000Y-96400000D03*
X158250000Y-96400000D03*
X160250000Y-96400000D03*
X162250000Y-96400000D03*
X164250000Y-96400000D03*
X166250000Y-96400000D03*
X168250000Y-96400000D03*
X170250000Y-96400000D03*
X172250000Y-96400000D03*
X172250000Y-74400000D03*
X170250000Y-74400000D03*
X168250000Y-74400000D03*
X166250000Y-74400000D03*
X164250000Y-74400000D03*
X162250000Y-74400000D03*
X160250000Y-74400000D03*
X158250000Y-74400000D03*
X156250000Y-74400000D03*
X154250000Y-74400000D03*
%TD*%
D49*
%TO.C,U6*%
X211275000Y-76142500D03*
X210005000Y-76142500D03*
X208735000Y-76142500D03*
X207465000Y-76142500D03*
X207465000Y-83317500D03*
X208735000Y-83317500D03*
X210005000Y-83317500D03*
X211275000Y-83317500D03*
%TD*%
D17*
%TO.C,S2*%
X191150000Y-91950000D03*
X195300000Y-91950000D03*
X191150000Y-94100000D03*
X195300000Y-94100000D03*
%TD*%
D15*
%TO.C,H5*%
X163000000Y-85400000D03*
%TD*%
M02*
