%TF.GenerationSoftware,KiCad,Pcbnew,9.0.6*%
%TF.CreationDate,2026-02-22T15:43:58-03:00*%
%TF.ProjectId,flight_comp_srad-2026,666c6967-6874-45f6-936f-6d705f737261,rev?*%
%TF.SameCoordinates,Original*%
%TF.FileFunction,Copper,L4,Bot*%
%TF.FilePolarity,Positive*%
%FSLAX46Y46*%
G04 Gerber Fmt 4.6, Leading zero omitted, Abs format (unit mm)*
G04 Created by KiCad (PCBNEW 9.0.6) date 2026-02-22 15:43:58*
%MOMM*%
%LPD*%
G01*
G04 APERTURE LIST*
G04 Aperture macros list*
%AMRoundRect*
0 Rectangle with rounded corners*
0 $1 Rounding radius*
0 $2 $3 $4 $5 $6 $7 $8 $9 X,Y pos of 4 corners*
0 Add a 4 corners polygon primitive as box body*
4,1,4,$2,$3,$4,$5,$6,$7,$8,$9,$2,$3,0*
0 Add four circle primitives for the rounded corners*
1,1,$1+$1,$2,$3*
1,1,$1+$1,$4,$5*
1,1,$1+$1,$6,$7*
1,1,$1+$1,$8,$9*
0 Add four rect primitives between the rounded corners*
20,1,$1+$1,$2,$3,$4,$5,0*
20,1,$1+$1,$4,$5,$6,$7,0*
20,1,$1+$1,$6,$7,$8,$9,0*
20,1,$1+$1,$8,$9,$2,$3,0*%
%AMFreePoly0*
4,1,19,0.398209,0.132453,0.423861,0.088024,0.425000,0.075000,0.425000,0.031066,0.407453,-0.017143,0.403033,-0.021967,0.296967,-0.128033,0.250471,-0.149715,0.243934,-0.150000,-0.350000,-0.150000,-0.398209,-0.132453,-0.423861,-0.088024,-0.425000,-0.075000,-0.425000,0.075000,-0.407453,0.123209,-0.363024,0.148861,-0.350000,0.150000,0.350000,0.150000,0.398209,0.132453,0.398209,0.132453,
$1*%
%AMFreePoly1*
4,1,19,0.292143,0.132453,0.296967,0.128033,0.403033,0.021967,0.424715,-0.024529,0.425000,-0.031066,0.425000,-0.075000,0.407453,-0.123209,0.363024,-0.148861,0.350000,-0.150000,-0.350000,-0.150000,-0.398209,-0.132453,-0.423861,-0.088024,-0.425000,-0.075000,-0.425000,0.075000,-0.407453,0.123209,-0.363024,0.148861,-0.350000,0.150000,0.243934,0.150000,0.292143,0.132453,0.292143,0.132453,
$1*%
%AMFreePoly2*
4,1,19,0.123209,0.407453,0.148861,0.363024,0.150000,0.350000,0.150000,-0.350000,0.132453,-0.398209,0.088024,-0.423861,0.075000,-0.425000,0.031066,-0.425000,-0.017143,-0.407453,-0.021967,-0.403033,-0.128033,-0.296967,-0.149715,-0.250471,-0.150000,-0.243934,-0.150000,0.350000,-0.132453,0.398209,-0.088024,0.423861,-0.075000,0.425000,0.075000,0.425000,0.123209,0.407453,0.123209,0.407453,
$1*%
%AMFreePoly3*
4,1,19,0.123209,0.407453,0.148861,0.363024,0.150000,0.350000,0.150000,-0.243934,0.132453,-0.292143,0.128033,-0.296967,0.021967,-0.403033,-0.024529,-0.424715,-0.031066,-0.425000,-0.075000,-0.425000,-0.123209,-0.407453,-0.148861,-0.363024,-0.150000,-0.350000,-0.150000,0.350000,-0.132453,0.398209,-0.088024,0.423861,-0.075000,0.425000,0.075000,0.425000,0.123209,0.407453,0.123209,0.407453,
$1*%
%AMFreePoly4*
4,1,19,0.398209,0.132453,0.423861,0.088024,0.425000,0.075000,0.425000,-0.075000,0.407453,-0.123209,0.363024,-0.148861,0.350000,-0.150000,-0.350000,-0.150000,-0.398209,-0.132453,-0.423861,-0.088024,-0.425000,-0.075000,-0.425000,-0.031066,-0.407453,0.017143,-0.403033,0.021967,-0.296967,0.128033,-0.250471,0.149715,-0.243934,0.150000,0.350000,0.150000,0.398209,0.132453,0.398209,0.132453,
$1*%
%AMFreePoly5*
4,1,19,0.398209,0.132453,0.423861,0.088024,0.425000,0.075000,0.425000,-0.075000,0.407453,-0.123209,0.363024,-0.148861,0.350000,-0.150000,-0.243934,-0.150000,-0.292143,-0.132453,-0.296967,-0.128033,-0.403033,-0.021967,-0.424715,0.024529,-0.425000,0.031066,-0.425000,0.075000,-0.407453,0.123209,-0.363024,0.148861,-0.350000,0.150000,0.350000,0.150000,0.398209,0.132453,0.398209,0.132453,
$1*%
%AMFreePoly6*
4,1,19,0.017143,0.407453,0.021967,0.403033,0.128033,0.296967,0.149715,0.250471,0.150000,0.243934,0.150000,-0.350000,0.132453,-0.398209,0.088024,-0.423861,0.075000,-0.425000,-0.075000,-0.425000,-0.123209,-0.407453,-0.148861,-0.363024,-0.150000,-0.350000,-0.150000,0.350000,-0.132453,0.398209,-0.088024,0.423861,-0.075000,0.425000,-0.031066,0.425000,0.017143,0.407453,0.017143,0.407453,
$1*%
%AMFreePoly7*
4,1,19,0.123209,0.407453,0.148861,0.363024,0.150000,0.350000,0.150000,-0.350000,0.132453,-0.398209,0.088024,-0.423861,0.075000,-0.425000,-0.075000,-0.425000,-0.123209,-0.407453,-0.148861,-0.363024,-0.150000,-0.350000,-0.150000,0.243934,-0.132453,0.292143,-0.128033,0.296967,-0.021967,0.403033,0.024529,0.424715,0.031066,0.425000,0.075000,0.425000,0.123209,0.407453,0.123209,0.407453,
$1*%
G04 Aperture macros list end*
%TA.AperFunction,ComponentPad*%
%ADD10R,2.000000X2.000000*%
%TD*%
%TA.AperFunction,ComponentPad*%
%ADD11C,2.000000*%
%TD*%
%TA.AperFunction,HeatsinkPad*%
%ADD12C,0.600000*%
%TD*%
%TA.AperFunction,HeatsinkPad*%
%ADD13R,3.200000X3.200000*%
%TD*%
%TA.AperFunction,HeatsinkPad*%
%ADD14O,1.700000X1.350000*%
%TD*%
%TA.AperFunction,HeatsinkPad*%
%ADD15O,1.500000X1.100000*%
%TD*%
%TA.AperFunction,ComponentPad*%
%ADD16R,1.400000X1.400000*%
%TD*%
%TA.AperFunction,ComponentPad*%
%ADD17C,1.400000*%
%TD*%
%TA.AperFunction,SMDPad,CuDef*%
%ADD18RoundRect,0.250000X-0.450000X0.262500X-0.450000X-0.262500X0.450000X-0.262500X0.450000X0.262500X0*%
%TD*%
%TA.AperFunction,SMDPad,CuDef*%
%ADD19RoundRect,0.250000X0.262500X0.450000X-0.262500X0.450000X-0.262500X-0.450000X0.262500X-0.450000X0*%
%TD*%
%TA.AperFunction,SMDPad,CuDef*%
%ADD20RoundRect,0.140000X-0.140000X-0.170000X0.140000X-0.170000X0.140000X0.170000X-0.140000X0.170000X0*%
%TD*%
%TA.AperFunction,SMDPad,CuDef*%
%ADD21RoundRect,0.250000X0.450000X-0.262500X0.450000X0.262500X-0.450000X0.262500X-0.450000X-0.262500X0*%
%TD*%
%TA.AperFunction,SMDPad,CuDef*%
%ADD22RoundRect,0.140000X0.140000X0.170000X-0.140000X0.170000X-0.140000X-0.170000X0.140000X-0.170000X0*%
%TD*%
%TA.AperFunction,SMDPad,CuDef*%
%ADD23RoundRect,0.140000X-0.170000X0.140000X-0.170000X-0.140000X0.170000X-0.140000X0.170000X0.140000X0*%
%TD*%
%TA.AperFunction,SMDPad,CuDef*%
%ADD24R,0.600000X1.100000*%
%TD*%
%TA.AperFunction,SMDPad,CuDef*%
%ADD25RoundRect,0.250000X0.475000X-0.250000X0.475000X0.250000X-0.475000X0.250000X-0.475000X-0.250000X0*%
%TD*%
%TA.AperFunction,SMDPad,CuDef*%
%ADD26RoundRect,0.140000X0.170000X-0.140000X0.170000X0.140000X-0.170000X0.140000X-0.170000X-0.140000X0*%
%TD*%
%TA.AperFunction,SMDPad,CuDef*%
%ADD27RoundRect,0.250000X-0.250000X-0.475000X0.250000X-0.475000X0.250000X0.475000X-0.250000X0.475000X0*%
%TD*%
%TA.AperFunction,SMDPad,CuDef*%
%ADD28FreePoly0,90.000000*%
%TD*%
%TA.AperFunction,SMDPad,CuDef*%
%ADD29RoundRect,0.075000X0.075000X-0.350000X0.075000X0.350000X-0.075000X0.350000X-0.075000X-0.350000X0*%
%TD*%
%TA.AperFunction,SMDPad,CuDef*%
%ADD30FreePoly1,90.000000*%
%TD*%
%TA.AperFunction,SMDPad,CuDef*%
%ADD31FreePoly2,90.000000*%
%TD*%
%TA.AperFunction,SMDPad,CuDef*%
%ADD32RoundRect,0.075000X0.350000X-0.075000X0.350000X0.075000X-0.350000X0.075000X-0.350000X-0.075000X0*%
%TD*%
%TA.AperFunction,SMDPad,CuDef*%
%ADD33FreePoly3,90.000000*%
%TD*%
%TA.AperFunction,SMDPad,CuDef*%
%ADD34FreePoly4,90.000000*%
%TD*%
%TA.AperFunction,SMDPad,CuDef*%
%ADD35FreePoly5,90.000000*%
%TD*%
%TA.AperFunction,SMDPad,CuDef*%
%ADD36FreePoly6,90.000000*%
%TD*%
%TA.AperFunction,SMDPad,CuDef*%
%ADD37FreePoly7,90.000000*%
%TD*%
%TA.AperFunction,HeatsinkPad*%
%ADD38R,3.250000X3.250000*%
%TD*%
%TA.AperFunction,SMDPad,CuDef*%
%ADD39RoundRect,0.150000X0.587500X0.150000X-0.587500X0.150000X-0.587500X-0.150000X0.587500X-0.150000X0*%
%TD*%
%TA.AperFunction,SMDPad,CuDef*%
%ADD40RoundRect,0.150000X-0.150000X0.325000X-0.150000X-0.325000X0.150000X-0.325000X0.150000X0.325000X0*%
%TD*%
%TA.AperFunction,SMDPad,CuDef*%
%ADD41RoundRect,0.150000X-0.325000X0.150000X-0.325000X-0.150000X0.325000X-0.150000X0.325000X0.150000X0*%
%TD*%
%TA.AperFunction,SMDPad,CuDef*%
%ADD42RoundRect,0.225000X-0.225000X-0.250000X0.225000X-0.250000X0.225000X0.250000X-0.225000X0.250000X0*%
%TD*%
%TA.AperFunction,ViaPad*%
%ADD43C,0.600000*%
%TD*%
%TA.AperFunction,ViaPad*%
%ADD44C,1.000000*%
%TD*%
%TA.AperFunction,Conductor*%
%ADD45C,0.400000*%
%TD*%
%TA.AperFunction,Conductor*%
%ADD46C,0.200000*%
%TD*%
%TA.AperFunction,Conductor*%
%ADD47C,0.500000*%
%TD*%
%TA.AperFunction,Conductor*%
%ADD48C,1.000000*%
%TD*%
%TA.AperFunction,Conductor*%
%ADD49C,0.300000*%
%TD*%
G04 APERTURE END LIST*
D10*
%TO.P,J2,1,1*%
%TO.N,GND*%
X191320000Y-98700000D03*
D11*
%TO.P,J2,2,2*%
%TO.N,/SWDIO*%
X193860000Y-98700000D03*
%TO.P,J2,3,3*%
%TO.N,/SWCLK*%
X196400000Y-98700000D03*
%TD*%
D12*
%TO.P,U3,57,GND*%
%TO.N,GND*%
X201420000Y-84830000D03*
X198720000Y-84830000D03*
D13*
X200070000Y-86180000D03*
D12*
X201420000Y-87530000D03*
X198720000Y-87530000D03*
%TD*%
D10*
%TO.P,bruh,1*%
%TO.N,+3V3*%
X202970785Y-68400000D03*
D11*
%TO.P,bruh,2*%
%TO.N,Net-(Q1-C)*%
X197970785Y-68400000D03*
%TD*%
D14*
%TO.P,J3,6,Shield*%
%TO.N,GND*%
X219405000Y-80355000D03*
D15*
X216405000Y-80045000D03*
X216405000Y-75205000D03*
D14*
X219405000Y-74895000D03*
%TD*%
D10*
%TO.P,J5,1,1*%
%TO.N,VBUS*%
X217680000Y-84430000D03*
D11*
%TO.P,J5,2,2*%
%TO.N,GND*%
X217680000Y-86970000D03*
%TD*%
D16*
%TO.P,U7,1,VCC*%
%TO.N,+3V3*%
X154250000Y-96400000D03*
D17*
%TO.P,U7,2,DOUT/DIO13*%
%TO.N,/UART_Rx0*%
X156250000Y-96400000D03*
%TO.P,U7,3,DIN/NCONFIG/DIO14*%
%TO.N,/UART_Tx0*%
X158250000Y-96400000D03*
%TO.P,U7,4,DIO12/SPI_MISO*%
%TO.N,unconnected-(U7-DIO12{slash}SPI_MISO-Pad4)*%
X160250000Y-96400000D03*
%TO.P,U7,5,~{RESET}*%
%TO.N,unconnected-(U7-~{RESET}-Pad5)*%
X162250000Y-96400000D03*
%TO.P,U7,6,DIO10/PWM0*%
%TO.N,unconnected-(U7-DIO10{slash}PWM0-Pad6)*%
X164250000Y-96400000D03*
%TO.P,U7,7,DIO11/PWM1*%
%TO.N,unconnected-(U7-DIO11{slash}PWM1-Pad7)*%
X166250000Y-96400000D03*
%TO.P,U7,8*%
%TO.N,N/C*%
X168250000Y-96400000D03*
%TO.P,U7,9,NDTR/SLEEP_RQ/DIO8*%
%TO.N,unconnected-(U7-NDTR{slash}SLEEP_RQ{slash}DIO8-Pad9)*%
X170250000Y-96400000D03*
%TO.P,U7,10,GND*%
%TO.N,GND*%
X172250000Y-96400000D03*
%TO.P,U7,11,DIO4/SPI_MOSI*%
%TO.N,unconnected-(U7-DIO4{slash}SPI_MOSI-Pad11)*%
X172250000Y-74400000D03*
%TO.P,U7,12,NCTS/DIO7*%
%TO.N,unconnected-(U7-NCTS{slash}DIO7-Pad12)*%
X170250000Y-74400000D03*
%TO.P,U7,13,ON_NSLEEP/DIO9*%
%TO.N,unconnected-(U7-ON_NSLEEP{slash}DIO9-Pad13)*%
X168250000Y-74400000D03*
%TO.P,U7,14,VREF*%
%TO.N,GND*%
X166250000Y-74400000D03*
%TO.P,U7,15,ASSOCIATE/DIO5*%
%TO.N,unconnected-(U7-ASSOCIATE{slash}DIO5-Pad15)*%
X164250000Y-74400000D03*
%TO.P,U7,16,NRTS/DIO6*%
%TO.N,unconnected-(U7-NRTS{slash}DIO6-Pad16)*%
X162250000Y-74400000D03*
%TO.P,U7,17,AD3/DIO3/SPI_NSSEL*%
%TO.N,unconnected-(U7-AD3{slash}DIO3{slash}SPI_NSSEL-Pad17)*%
X160250000Y-74400000D03*
%TO.P,U7,18,AD2/DIO2/SPI_CLK*%
%TO.N,unconnected-(U7-AD2{slash}DIO2{slash}SPI_CLK-Pad18)*%
X158250000Y-74400000D03*
%TO.P,U7,19,AD1/DIO1/SPI_NATTN*%
%TO.N,unconnected-(U7-AD1{slash}DIO1{slash}SPI_NATTN-Pad19)*%
X156250000Y-74400000D03*
%TO.P,U7,20,AD0/DIO0*%
%TO.N,unconnected-(U7-AD0{slash}DIO0-Pad20)*%
X154250000Y-74400000D03*
%TD*%
D18*
%TO.P,R2,1*%
%TO.N,Net-(Q1-C)*%
X195550000Y-64430000D03*
%TO.P,R2,2*%
%TO.N,+3V3*%
X195550000Y-66255000D03*
%TD*%
D19*
%TO.P,R1,1*%
%TO.N,/BUZZER*%
X209212500Y-72400000D03*
%TO.P,R1,2*%
%TO.N,Net-(Q1-B)*%
X207387500Y-72400000D03*
%TD*%
D20*
%TO.P,C8,1*%
%TO.N,+1V1*%
X205240000Y-87600000D03*
%TO.P,C8,2*%
%TO.N,GND*%
X206200000Y-87600000D03*
%TD*%
%TO.P,C10,1*%
%TO.N,+3V3*%
X205240000Y-88600000D03*
%TO.P,C10,2*%
%TO.N,GND*%
X206200000Y-88600000D03*
%TD*%
D21*
%TO.P,Div_res_reg1a1,1*%
%TO.N,NR_Reg*%
X200800000Y-99525000D03*
%TO.P,Div_res_reg1a1,2*%
%TO.N,+3V3*%
X200800000Y-97700000D03*
%TD*%
D18*
%TO.P,R6,1*%
%TO.N,+3V3*%
X180500000Y-93275000D03*
%TO.P,R6,2*%
%TO.N,/SD_DAT0*%
X180500000Y-95100000D03*
%TD*%
D22*
%TO.P,CBAR_2,1*%
%TO.N,+3V3*%
X203680000Y-77600000D03*
%TO.P,CBAR_2,2*%
%TO.N,GND*%
X202720000Y-77600000D03*
%TD*%
%TO.P,CIIM_1,1*%
%TO.N,Net-(U1-REGOUT)*%
X190680000Y-74600000D03*
%TO.P,CIIM_1,2*%
%TO.N,GND*%
X189720000Y-74600000D03*
%TD*%
D23*
%TO.P,C14,1*%
%TO.N,+3V3*%
X199000000Y-92140000D03*
%TO.P,C14,2*%
%TO.N,GND*%
X199000000Y-93100000D03*
%TD*%
D18*
%TO.P,Div_res_bat1,1*%
%TO.N,/ADC_BAT*%
X201500000Y-91887500D03*
%TO.P,Div_res_bat1,2*%
%TO.N,VBUS*%
X201500000Y-93712500D03*
%TD*%
D21*
%TO.P,R8,1*%
%TO.N,/SD_CLK*%
X182800000Y-95100000D03*
%TO.P,R8,2*%
%TO.N,GND*%
X182800000Y-93275000D03*
%TD*%
D24*
%TO.P,A1,1,VDD*%
%TO.N,+3V3*%
X200250000Y-73900000D03*
%TO.P,A1,2,PS*%
X201500000Y-73900000D03*
%TO.P,A1,3,GND*%
%TO.N,GND*%
X202750000Y-73900000D03*
%TO.P,A1,4,~{CSB}*%
%TO.N,+3V3*%
X204000000Y-73900000D03*
%TO.P,A1,5,~{CSB__1}*%
X204000000Y-76100000D03*
%TO.P,A1,6,SDO*%
%TO.N,unconnected-(A1-SDO-Pad6)*%
X202750000Y-76100000D03*
%TO.P,A1,7,SDI/SDA*%
%TO.N,/RP_SDA1*%
X201500000Y-76100000D03*
%TO.P,A1,8,SCLK*%
%TO.N,/RP_SCL1*%
X200250000Y-76100000D03*
%TD*%
D25*
%TO.P,CX_1,1*%
%TO.N,GND*%
X194300000Y-84750000D03*
%TO.P,CX_1,2*%
%TO.N,/XIN*%
X194300000Y-82850000D03*
%TD*%
D22*
%TO.P,C6,1*%
%TO.N,+1V1*%
X194680000Y-87700000D03*
%TO.P,C6,2*%
%TO.N,GND*%
X193720000Y-87700000D03*
%TD*%
D26*
%TO.P,CADXL_1,1*%
%TO.N,+3V3*%
X204000000Y-65080000D03*
%TO.P,CADXL_1,2*%
%TO.N,GND*%
X204000000Y-64120000D03*
%TD*%
D20*
%TO.P,C11,1*%
%TO.N,+3V3*%
X203720000Y-91000000D03*
%TO.P,C11,2*%
%TO.N,GND*%
X204680000Y-91000000D03*
%TD*%
D23*
%TO.P,CIIM_2,1*%
%TO.N,+3V3*%
X198400000Y-73920000D03*
%TO.P,CIIM_2,2*%
%TO.N,GND*%
X198400000Y-74880000D03*
%TD*%
D27*
%TO.P,CADXL_2,1*%
%TO.N,+3V3*%
X211540000Y-65010000D03*
%TO.P,CADXL_2,2*%
%TO.N,GND*%
X213440000Y-65010000D03*
%TD*%
D28*
%TO.P,U1,1,MOSI*%
%TO.N,/IIM_MOSI1*%
X196175000Y-77425000D03*
D29*
%TO.P,U1,2,GND*%
%TO.N,GND*%
X195525000Y-77425000D03*
%TO.P,U1,3,GND__1*%
X194875000Y-77425000D03*
%TO.P,U1,4,GND__2*%
X194225000Y-77425000D03*
%TO.P,U1,5,GND__3*%
X193575000Y-77425000D03*
D30*
%TO.P,U1,6,FL*%
%TO.N,unconnected-(U1-FL-Pad6)*%
X192925000Y-77425000D03*
D31*
%TO.P,U1,7,GND__4*%
%TO.N,GND*%
X192100000Y-76600000D03*
D32*
%TO.P,U1,8,VDDIO*%
%TO.N,+3V3*%
X192100000Y-75950000D03*
%TO.P,U1,9,MISO*%
%TO.N,/IIM_MISO1*%
X192100000Y-75300000D03*
%TO.P,U1,10,REGOUT*%
%TO.N,Net-(U1-REGOUT)*%
X192100000Y-74650000D03*
%TO.P,U1,11,VDD*%
%TO.N,+3V3*%
X192100000Y-74000000D03*
D33*
%TO.P,U1,12,ODR*%
%TO.N,unconnected-(U1-ODR-Pad12)*%
X192100000Y-73350000D03*
D34*
%TO.P,U1,13,FL__1*%
%TO.N,unconnected-(U1-FL__1-Pad13)*%
X192925000Y-72525000D03*
D29*
%TO.P,U1,14,GND__5*%
%TO.N,GND*%
X193575000Y-72525000D03*
%TO.P,U1,15,GND__6*%
X194225000Y-72525000D03*
%TO.P,U1,16,GND__7*%
X194875000Y-72525000D03*
%TO.P,U1,17,GND__8*%
X195525000Y-72525000D03*
D35*
%TO.P,U1,18,~{RESET}*%
%TO.N,+3V3*%
X196175000Y-72525000D03*
D36*
%TO.P,U1,19,FL__2*%
%TO.N,unconnected-(U1-FL__2-Pad19)*%
X197000000Y-73350000D03*
D32*
%TO.P,U1,20,VPP*%
%TO.N,+3V3*%
X197000000Y-74000000D03*
%TO.P,U1,21,FL__3*%
%TO.N,unconnected-(U1-FL__3-Pad21)*%
X197000000Y-74650000D03*
%TO.P,U1,22,GND__9*%
%TO.N,GND*%
X197000000Y-75300000D03*
%TO.P,U1,23,NCS*%
%TO.N,/IIM_CS1*%
X197000000Y-75950000D03*
D37*
%TO.P,U1,24,SCLK*%
%TO.N,/IIM_SCLK1*%
X197000000Y-76600000D03*
D38*
%TO.P,U1,25,EXP*%
%TO.N,unconnected-(U1-EXP-Pad25)*%
X194550000Y-74975000D03*
%TD*%
D39*
%TO.P,Q1,1,B*%
%TO.N,Net-(Q1-B)*%
X200155000Y-63460000D03*
%TO.P,Q1,2,E*%
%TO.N,GND*%
X200155000Y-65360000D03*
%TO.P,Q1,3,C*%
%TO.N,Net-(Q1-C)*%
X198280000Y-64410000D03*
%TD*%
D22*
%TO.P,CIIM_3,1*%
%TO.N,+3V3*%
X190680000Y-73400000D03*
%TO.P,CIIM_3,2*%
%TO.N,GND*%
X189720000Y-73400000D03*
%TD*%
%TO.P,C13,1*%
%TO.N,+3V3*%
X194680000Y-86500000D03*
%TO.P,C13,2*%
%TO.N,GND*%
X193720000Y-86500000D03*
%TD*%
D40*
%TO.P,U4,1,VDDI/O*%
%TO.N,+3V3*%
X205500000Y-65100000D03*
%TO.P,U4,2,GND*%
%TO.N,GND*%
X206300000Y-65100000D03*
%TO.P,U4,3,RESERVED*%
%TO.N,unconnected-(U4-RESERVED-Pad3)*%
X207100000Y-65100000D03*
%TO.P,U4,4,GND*%
%TO.N,GND*%
X207900000Y-65100000D03*
%TO.P,U4,5,GND*%
X208700000Y-65100000D03*
%TO.P,U4,6,VS*%
%TO.N,+3V3*%
X209500000Y-65100000D03*
D41*
%TO.P,U4,7,\u002ACS*%
X209500000Y-66100000D03*
D40*
%TO.P,U4,8,INT1*%
%TO.N,unconnected-(U4-INT1-Pad8)*%
X209500000Y-67100000D03*
%TO.P,U4,9,INT2*%
%TO.N,unconnected-(U4-INT2-Pad9)*%
X208700000Y-67100000D03*
%TO.P,U4,10,NC*%
%TO.N,unconnected-(U4-NC-Pad10)*%
X207900000Y-67100000D03*
%TO.P,U4,11,RESERVED*%
%TO.N,unconnected-(U4-RESERVED-Pad11)*%
X207100000Y-67100000D03*
%TO.P,U4,12,SDO/ALTADDRESS*%
%TO.N,GND*%
X206300000Y-67100000D03*
%TO.P,U4,13,SDA/SDI/SDIO*%
%TO.N,/RP_SDA1*%
X205500000Y-67100000D03*
D41*
%TO.P,U4,14,SCL/SCLK*%
%TO.N,/RP_SCL1*%
X205500000Y-66100000D03*
%TD*%
D18*
%TO.P,R7,1*%
%TO.N,+3V3*%
X178300000Y-93275000D03*
%TO.P,R7,2*%
%TO.N,/SD_DAT1*%
X178300000Y-95100000D03*
%TD*%
D20*
%TO.P,C9,1*%
%TO.N,+3V3*%
X205240000Y-86600000D03*
%TO.P,C9,2*%
%TO.N,GND*%
X206200000Y-86600000D03*
%TD*%
%TO.P,C7,1*%
%TO.N,+1V1*%
X205240000Y-85600000D03*
%TO.P,C7,2*%
%TO.N,GND*%
X206200000Y-85600000D03*
%TD*%
D27*
%TO.P,CPS_2,1*%
%TO.N,+3V3*%
X213050000Y-89700000D03*
%TO.P,CPS_2,2*%
%TO.N,GND*%
X214950000Y-89700000D03*
%TD*%
D19*
%TO.P,Div_res_reg1b1,1*%
%TO.N,NR_Reg*%
X205325000Y-98700000D03*
%TO.P,Div_res_reg1b1,2*%
%TO.N,+3V3*%
X203500000Y-98700000D03*
%TD*%
%TO.P,Div_res_reg2b1,1*%
%TO.N,NR_Reg*%
X205300000Y-96095000D03*
%TO.P,Div_res_reg2b1,2*%
%TO.N,GND*%
X203475000Y-96095000D03*
%TD*%
D42*
%TO.P,CXB_2,1*%
%TO.N,+3V3*%
X154150000Y-92800000D03*
%TO.P,CXB_2,2*%
%TO.N,GND*%
X155700000Y-92800000D03*
%TD*%
%TO.P,CXB_1,1*%
%TO.N,+3V3*%
X154143391Y-94396604D03*
%TO.P,CXB_1,2*%
%TO.N,GND*%
X155693391Y-94396604D03*
%TD*%
D26*
%TO.P,CBAR_1,1*%
%TO.N,+3V3*%
X200200000Y-72280000D03*
%TO.P,CBAR_1,2*%
%TO.N,GND*%
X200200000Y-71320000D03*
%TD*%
D19*
%TO.P,Div_res_bat2,1*%
%TO.N,/ADC_BAT*%
X199512500Y-95500000D03*
%TO.P,Div_res_bat2,2*%
%TO.N,GND*%
X197687500Y-95500000D03*
%TD*%
D22*
%TO.P,CFLASH_1,1*%
%TO.N,+3V3*%
X210130000Y-85560000D03*
%TO.P,CFLASH_1,2*%
%TO.N,GND*%
X209170000Y-85560000D03*
%TD*%
D19*
%TO.P,Div_res_reg2a1,1*%
%TO.N,NR_Reg*%
X205300000Y-94105000D03*
%TO.P,Div_res_reg2a1,2*%
%TO.N,GND*%
X203475000Y-94105000D03*
%TD*%
D20*
%TO.P,C12,1*%
%TO.N,+3V3*%
X205240000Y-89600000D03*
%TO.P,C12,2*%
%TO.N,GND*%
X206200000Y-89600000D03*
%TD*%
D23*
%TO.P,CIIM_4,1*%
%TO.N,+3V3*%
X190800000Y-75920000D03*
%TO.P,CIIM_4,2*%
%TO.N,GND*%
X190800000Y-76880000D03*
%TD*%
D43*
%TO.N,VBUS*%
X218750000Y-89640000D03*
X203400000Y-92400000D03*
X217350000Y-89640000D03*
X212720000Y-91110000D03*
X220150000Y-89640000D03*
X205800000Y-92400000D03*
X219450000Y-90840000D03*
X218050000Y-90840000D03*
%TO.N,/SD_DAT0*%
X178200000Y-97600000D03*
X187575000Y-95100000D03*
%TO.N,GND*%
X162920000Y-99340000D03*
X202000000Y-95100000D03*
D44*
X157225000Y-92950000D03*
D43*
X214200000Y-96600000D03*
X214925000Y-68270000D03*
X177670000Y-61410000D03*
X211725000Y-96575000D03*
X192980000Y-61410000D03*
X183425000Y-64950000D03*
X173420000Y-99340000D03*
X152160000Y-94360000D03*
X174625000Y-98475000D03*
X189600000Y-65100000D03*
X188600000Y-65100000D03*
X212480000Y-61410000D03*
X158170000Y-61410000D03*
X194480000Y-61410000D03*
X161420000Y-99340000D03*
X208125000Y-79600000D03*
X198554517Y-75555931D03*
X174670000Y-61410000D03*
X158050000Y-64380000D03*
X214300000Y-62930000D03*
X165920000Y-99340000D03*
X191480000Y-61410000D03*
X190400000Y-61450000D03*
X207800000Y-95150000D03*
X152160000Y-71860000D03*
X203480000Y-61410000D03*
X174375000Y-89325000D03*
X214200000Y-99000000D03*
X206525000Y-76150000D03*
X190410000Y-64400000D03*
X167170000Y-61410000D03*
X190430000Y-62480000D03*
X200600000Y-70400000D03*
X209480000Y-61410000D03*
X204980000Y-61410000D03*
X157520000Y-65580000D03*
X207100000Y-80950000D03*
X181450000Y-62970000D03*
X188150000Y-87525000D03*
X207050000Y-86180000D03*
X176170000Y-61410000D03*
X203610000Y-79240000D03*
X211775000Y-95125000D03*
X170420000Y-99340000D03*
X209875000Y-95125000D03*
X152160000Y-89860000D03*
X187025000Y-92625000D03*
X220090000Y-67470000D03*
X156570000Y-66660000D03*
X183350000Y-61425000D03*
X184525000Y-61225000D03*
X152160000Y-68860000D03*
X197480000Y-61410000D03*
X210075000Y-79600000D03*
X183920000Y-63900000D03*
X152160000Y-91360000D03*
X215070000Y-65890000D03*
X152160000Y-95860000D03*
X183350000Y-67400000D03*
X152160000Y-73360000D03*
X213980000Y-61410000D03*
X155420000Y-99340000D03*
X198980000Y-61410000D03*
X152160000Y-88360000D03*
D44*
X160375000Y-92975000D03*
D43*
X152160000Y-85360000D03*
X190420000Y-63470000D03*
X152160000Y-76360000D03*
X164420000Y-99340000D03*
X217350000Y-67370000D03*
X168920000Y-99340000D03*
X180670000Y-61410000D03*
X186600000Y-84875000D03*
X193720000Y-87100000D03*
X164170000Y-61410000D03*
X206480000Y-61410000D03*
X165670000Y-61410000D03*
X186100000Y-92625000D03*
X159670000Y-61410000D03*
X179611765Y-97736765D03*
X152160000Y-92860000D03*
X200480000Y-61410000D03*
X189875000Y-76875000D03*
X174625000Y-97250000D03*
X216150000Y-66840000D03*
X207980000Y-61410000D03*
X201980000Y-61410000D03*
X194600000Y-71500000D03*
X190125000Y-94100000D03*
X158140000Y-62890000D03*
X153610000Y-67430000D03*
X208925000Y-80950000D03*
X161170000Y-61410000D03*
X162670000Y-61410000D03*
X174375000Y-86675000D03*
X188925000Y-74000000D03*
X153920000Y-99340000D03*
X181190000Y-66970000D03*
X181040000Y-65640000D03*
X159920000Y-99340000D03*
X173170000Y-61410000D03*
X152160000Y-67360000D03*
X197647148Y-96951381D03*
X152160000Y-70360000D03*
X179170000Y-61410000D03*
X214200000Y-97800000D03*
X218840000Y-67460000D03*
X152160000Y-77860000D03*
X207020000Y-89070000D03*
X187560000Y-65100000D03*
X156920000Y-99340000D03*
X174350000Y-87925000D03*
X202000000Y-77600000D03*
X201950000Y-65350000D03*
X152160000Y-74860000D03*
X152150000Y-97500000D03*
X192425000Y-83775000D03*
X152160000Y-79360000D03*
X185630000Y-61060000D03*
X158420000Y-99340000D03*
X199300000Y-78725000D03*
X210980000Y-61410000D03*
X184900000Y-63650000D03*
X195800000Y-93375000D03*
X209075000Y-78175000D03*
X181125000Y-64275000D03*
X209825000Y-96575000D03*
X168670000Y-61410000D03*
X214200000Y-95400000D03*
X195980000Y-61410000D03*
X152160000Y-86860000D03*
X170170000Y-61410000D03*
X171920000Y-99340000D03*
X210850000Y-78175000D03*
X152420000Y-99340000D03*
X204000000Y-62750000D03*
X167420000Y-99340000D03*
X152160000Y-80860000D03*
X155170000Y-67240000D03*
X152160000Y-82360000D03*
X186450000Y-65100000D03*
X206310000Y-68280000D03*
D44*
X158775000Y-92975000D03*
D43*
X185600000Y-64500000D03*
X183360000Y-66170000D03*
X182125000Y-61850000D03*
X152160000Y-83860000D03*
X207750000Y-96600000D03*
X171670000Y-61410000D03*
X210700000Y-80950000D03*
%TO.N,/SD_CLK*%
X180500000Y-97600000D03*
%TO.N,/SD_DAT1*%
X177100000Y-97600000D03*
X187575000Y-96000000D03*
X177125000Y-99800000D03*
%TO.N,/RP_SCL0*%
X175675000Y-71775000D03*
X188900000Y-80875000D03*
%TO.N,/RP_SDA0*%
X176750000Y-71775000D03*
X188975000Y-79925000D03*
%TO.N,/IIM_CS1*%
X198295756Y-77960992D03*
%TO.N,/IIM_MOSI1*%
X196200000Y-80875000D03*
%TO.N,/IIM_SCLK1*%
X197625000Y-77525000D03*
%TO.N,/IIM_MISO1*%
X198870000Y-81450000D03*
%TO.N,/UART_Rx0*%
X195850000Y-89425000D03*
%TO.N,+3V3*%
X196175000Y-71250000D03*
D44*
X153250000Y-91375000D03*
D43*
X180000000Y-82875000D03*
D44*
X156750000Y-91400000D03*
D43*
X211300000Y-89600000D03*
X203200000Y-78500000D03*
X187775000Y-91350000D03*
X202900000Y-91000000D03*
X186750000Y-91325000D03*
X198425000Y-72950000D03*
X213500000Y-88000000D03*
X200825000Y-95925000D03*
X203075000Y-65375000D03*
X213400000Y-86900000D03*
X204510000Y-86580000D03*
X195075000Y-79050000D03*
X211300000Y-90400000D03*
X199605354Y-81765048D03*
X210950000Y-85580000D03*
X201200000Y-72000000D03*
X181520000Y-97490000D03*
X180650000Y-83400000D03*
X181225000Y-82875000D03*
X195363235Y-86863235D03*
X199270000Y-91300000D03*
X211300000Y-91425000D03*
X189875000Y-75925000D03*
X190000000Y-89300000D03*
X192875000Y-79050000D03*
X204357067Y-88600000D03*
X211300000Y-88800000D03*
D44*
X154975000Y-91400000D03*
D43*
X212300000Y-88000000D03*
X211540000Y-66335000D03*
X190680000Y-72480000D03*
X190400000Y-78100000D03*
%TO.N,+1V1*%
X197600000Y-86350000D03*
X202600000Y-85980000D03*
%TO.N,/XIN*%
X195480541Y-85268008D03*
%TO.N,/XOUT*%
X195441214Y-86067042D03*
X188800000Y-85400000D03*
%TO.N,/SWCLK*%
X198537443Y-88686063D03*
%TO.N,/SWDIO*%
X197570000Y-88230000D03*
%TO.N,/UART_Tx0*%
X195200000Y-89925000D03*
%TO.N,/ADC_BAT*%
X201800000Y-90700000D03*
%TO.N,/RP_SCL1*%
X200280000Y-77787500D03*
%TO.N,/RP_SDA1*%
X201500000Y-79850000D03*
%TO.N,NR_Reg*%
X206774971Y-90374971D03*
%TO.N,Net-(Q1-B)*%
X202025000Y-63450000D03*
X208700000Y-69700000D03*
%TO.N,/BUZZER*%
X202070000Y-81705411D03*
%TD*%
D45*
%TO.N,VBUS*%
X202712500Y-92500000D02*
X201500000Y-93712500D01*
X211430000Y-92400000D02*
X212720000Y-91110000D01*
X202712500Y-92487500D02*
X202800000Y-92400000D01*
X205800000Y-92400000D02*
X211430000Y-92400000D01*
X202800000Y-92400000D02*
X203400000Y-92400000D01*
X202712500Y-92500000D02*
X202712500Y-92487500D01*
D46*
%TO.N,/SD_DAT0*%
X181400000Y-94200000D02*
X186675000Y-94200000D01*
X186675000Y-94200000D02*
X187575000Y-95100000D01*
X178200000Y-97600000D02*
X178900000Y-97600000D01*
X180500000Y-96000000D02*
X180500000Y-95100000D01*
X180500000Y-95100000D02*
X181400000Y-94200000D01*
X178900000Y-97600000D02*
X180500000Y-96000000D01*
%TO.N,GND*%
X202750000Y-73900000D02*
X202750000Y-72350000D01*
D47*
X203475000Y-94105000D02*
X203475000Y-95100000D01*
D45*
X204000000Y-64120000D02*
X206300000Y-64120000D01*
D46*
X205300000Y-91000000D02*
X206200000Y-90100000D01*
X200200000Y-70800000D02*
X200600000Y-70400000D01*
D47*
X215070000Y-65890000D02*
X214320000Y-65890000D01*
D46*
X206400000Y-88400000D02*
X206200000Y-88600000D01*
X198400000Y-74880000D02*
X198400000Y-75401414D01*
X207670000Y-85560000D02*
X207050000Y-86180000D01*
X191400000Y-76600000D02*
X192100000Y-76600000D01*
X201720000Y-71320000D02*
X200200000Y-71320000D01*
D45*
X206300000Y-67100000D02*
X206300000Y-68270000D01*
D47*
X203475000Y-95100000D02*
X203475000Y-96095000D01*
D46*
X192100000Y-76600000D02*
X192100000Y-77875000D01*
X206200000Y-90100000D02*
X206200000Y-89600000D01*
D45*
X206300000Y-68270000D02*
X206310000Y-68280000D01*
D46*
X193514000Y-78161000D02*
X193575000Y-78100000D01*
X193400000Y-84750000D02*
X194300000Y-84750000D01*
X197647148Y-95252852D02*
X197647148Y-96951381D01*
X207170000Y-86300000D02*
X207050000Y-86180000D01*
D45*
X204000000Y-64120000D02*
X204000000Y-62750000D01*
D46*
X198787500Y-94112500D02*
X197675000Y-95225000D01*
X198400000Y-75401414D02*
X198554517Y-75555931D01*
X197980000Y-75300000D02*
X197000000Y-75300000D01*
X192100000Y-77875000D02*
X192386000Y-78161000D01*
X192425000Y-83775000D02*
X193400000Y-84750000D01*
D45*
X193720000Y-87100000D02*
X193720000Y-86500000D01*
X193720000Y-87100000D02*
X193720000Y-87700000D01*
X208700000Y-64375000D02*
X208700000Y-65100000D01*
D46*
X192386000Y-78161000D02*
X193514000Y-78161000D01*
X191120000Y-76880000D02*
X191400000Y-76600000D01*
D45*
X208445000Y-64120000D02*
X208700000Y-64375000D01*
D46*
X198400000Y-74880000D02*
X197980000Y-75300000D01*
X202750000Y-72350000D02*
X201720000Y-71320000D01*
X204680000Y-91000000D02*
X205300000Y-91000000D01*
D47*
X214320000Y-65890000D02*
X213440000Y-65010000D01*
D46*
X189880000Y-76880000D02*
X189875000Y-76875000D01*
D45*
X207900000Y-65100000D02*
X207900000Y-64120000D01*
D46*
X206200000Y-88600000D02*
X206400000Y-88800000D01*
X190800000Y-76880000D02*
X189880000Y-76880000D01*
D45*
X207900000Y-64120000D02*
X208445000Y-64120000D01*
D46*
X190800000Y-76880000D02*
X191120000Y-76880000D01*
D45*
X203475000Y-95100000D02*
X202000000Y-95100000D01*
D46*
X199000000Y-93100000D02*
X199000000Y-93900000D01*
D47*
X155700000Y-92800000D02*
X155693391Y-92806609D01*
D46*
X209170000Y-85560000D02*
X207670000Y-85560000D01*
X202720000Y-77600000D02*
X202000000Y-77600000D01*
D45*
X206300000Y-65100000D02*
X206300000Y-64120000D01*
D46*
X206400000Y-86600000D02*
X206200000Y-86600000D01*
X200200000Y-71320000D02*
X200200000Y-70800000D01*
X199000000Y-93900000D02*
X198787500Y-94112500D01*
D45*
X206300000Y-64120000D02*
X207900000Y-64120000D01*
D46*
X200337500Y-65350000D02*
X201950000Y-65350000D01*
X198787500Y-94112500D02*
X197647148Y-95252852D01*
X197687500Y-95500000D02*
X197687500Y-95355394D01*
%TO.N,/SD_CLK*%
X182300000Y-96470000D02*
X182800000Y-95970000D01*
X182800000Y-95970000D02*
X182800000Y-95100000D01*
X180500000Y-97600000D02*
X180500000Y-97180000D01*
X180500000Y-97180000D02*
X181210000Y-96470000D01*
X181210000Y-96470000D02*
X182300000Y-96470000D01*
%TO.N,/SD_DAT1*%
X181175000Y-99800000D02*
X181475000Y-99500000D01*
X178200000Y-95200000D02*
X178300000Y-95100000D01*
X177125000Y-99800000D02*
X181175000Y-99800000D01*
X181475000Y-99500000D02*
X181475000Y-98525000D01*
X177100000Y-97600000D02*
X178200000Y-96500000D01*
X181475000Y-98525000D02*
X184000000Y-96000000D01*
X184000000Y-96000000D02*
X187575000Y-96000000D01*
X178200000Y-96500000D02*
X178200000Y-95200000D01*
%TO.N,unconnected-(U1-EXP-Pad25)*%
X195475000Y-75350000D02*
X194825000Y-75350000D01*
%TO.N,/RP_SCL0*%
X188900000Y-80875000D02*
X184775000Y-80875000D01*
X184775000Y-80875000D02*
X175675000Y-71775000D01*
%TO.N,/RP_SDA0*%
X184900000Y-79925000D02*
X188975000Y-79925000D01*
X176750000Y-71775000D02*
X184900000Y-79925000D01*
%TO.N,Net-(U1-REGOUT)*%
X192100000Y-74650000D02*
X190730000Y-74650000D01*
X190730000Y-74650000D02*
X190680000Y-74600000D01*
X192050000Y-74600000D02*
X192100000Y-74650000D01*
%TO.N,/IIM_CS1*%
X198100057Y-75950000D02*
X197000000Y-75950000D01*
X197050000Y-76000000D02*
X197000000Y-75950000D01*
X198295756Y-77960992D02*
X198295756Y-76145699D01*
X198295756Y-76145699D02*
X198100057Y-75950000D01*
%TO.N,/IIM_MOSI1*%
X196200000Y-77450000D02*
X196175000Y-77425000D01*
X196200000Y-80875000D02*
X196175000Y-80850000D01*
X196175000Y-80850000D02*
X196175000Y-77425000D01*
%TO.N,/IIM_SCLK1*%
X197525000Y-76600000D02*
X197000000Y-76600000D01*
X197625000Y-76700000D02*
X197525000Y-76600000D01*
X197625000Y-77525000D02*
X197625000Y-76700000D01*
%TO.N,/IIM_MISO1*%
X196758521Y-81450000D02*
X196407521Y-81801000D01*
X188825000Y-78725000D02*
X188825000Y-76025000D01*
X191901000Y-81801000D02*
X188825000Y-78725000D01*
X196407521Y-81801000D02*
X191901000Y-81801000D01*
X188825000Y-76025000D02*
X189550000Y-75300000D01*
X189550000Y-75300000D02*
X192100000Y-75300000D01*
X198870000Y-81450000D02*
X196758521Y-81450000D01*
%TO.N,/UART_Rx0*%
X195374000Y-88599000D02*
X195850000Y-89075000D01*
X167126000Y-88599000D02*
X195374000Y-88599000D01*
X156250000Y-96400000D02*
X158575000Y-94075000D01*
X195850000Y-89075000D02*
X195850000Y-89425000D01*
X161650000Y-94075000D02*
X167126000Y-88599000D01*
X158575000Y-94075000D02*
X161650000Y-94075000D01*
D47*
%TO.N,+3V3*%
X210400000Y-65725000D02*
X210025000Y-66100000D01*
D46*
X195000000Y-86500000D02*
X195363235Y-86863235D01*
D47*
X212950000Y-89600000D02*
X213050000Y-89700000D01*
D46*
X204000000Y-76100000D02*
X204500000Y-76100000D01*
X190800000Y-75920000D02*
X189880000Y-75920000D01*
X205240000Y-86600000D02*
X204530000Y-86600000D01*
X204700000Y-73900000D02*
X204000000Y-73900000D01*
D45*
X204000000Y-65080000D02*
X205480000Y-65080000D01*
D46*
X203680000Y-78020000D02*
X203200000Y-78500000D01*
X191280000Y-74000000D02*
X192100000Y-74000000D01*
D48*
X154200000Y-92850000D02*
X154150000Y-92800000D01*
D46*
X196175000Y-71250000D02*
X196175000Y-71055000D01*
X205240000Y-88600000D02*
X205240000Y-88560000D01*
D45*
X203370000Y-65080000D02*
X203075000Y-65375000D01*
D46*
X198425000Y-73895000D02*
X198400000Y-73920000D01*
X204020000Y-65100000D02*
X204000000Y-65080000D01*
X204500000Y-76100000D02*
X205000000Y-75600000D01*
X203680000Y-77600000D02*
X204000000Y-77280000D01*
X203680000Y-77600000D02*
X203680000Y-78020000D01*
D48*
X154250000Y-96400000D02*
X154200000Y-96350000D01*
D46*
X210150000Y-85580000D02*
X210130000Y-85560000D01*
X198320000Y-74000000D02*
X198400000Y-73920000D01*
X196175000Y-71055000D02*
X195550000Y-70430000D01*
D47*
X209500000Y-65100000D02*
X210400000Y-65100000D01*
D46*
X199000000Y-92140000D02*
X199000000Y-91525000D01*
X190680000Y-73400000D02*
X190680000Y-72480000D01*
D47*
X211450000Y-65100000D02*
X211540000Y-65010000D01*
X210400000Y-65100000D02*
X210400000Y-65725000D01*
D46*
X190680000Y-73400000D02*
X191280000Y-74000000D01*
X200920000Y-72280000D02*
X201200000Y-72000000D01*
D47*
X210400000Y-65100000D02*
X211450000Y-65100000D01*
D46*
X200250000Y-72800000D02*
X200250000Y-72330000D01*
X200250000Y-73900000D02*
X200250000Y-72800000D01*
X200200000Y-72280000D02*
X200920000Y-72280000D01*
X190800000Y-75920000D02*
X192070000Y-75920000D01*
X197000000Y-74000000D02*
X198320000Y-74000000D01*
D45*
X205480000Y-65080000D02*
X205500000Y-65100000D01*
X204000000Y-65080000D02*
X203370000Y-65080000D01*
D46*
X209600000Y-65000000D02*
X209500000Y-65100000D01*
X205000000Y-74200000D02*
X204700000Y-73900000D01*
D45*
X200800000Y-97100000D02*
X200800000Y-97700000D01*
D47*
X210025000Y-66100000D02*
X209500000Y-66100000D01*
D46*
X200250000Y-72800000D02*
X201200000Y-72800000D01*
X202900000Y-91000000D02*
X203720000Y-91000000D01*
D47*
X211540000Y-66335000D02*
X211540000Y-65010000D01*
D46*
X205000000Y-75600000D02*
X205000000Y-74200000D01*
D45*
X200900000Y-97000000D02*
X200800000Y-97100000D01*
D47*
X213050000Y-89700000D02*
X211400000Y-89700000D01*
D45*
X200800000Y-97700000D02*
X200800000Y-95950000D01*
D46*
X210950000Y-85580000D02*
X210150000Y-85580000D01*
X200250000Y-72330000D02*
X200200000Y-72280000D01*
X199225000Y-91300000D02*
X199270000Y-91300000D01*
X199000000Y-91525000D02*
X199225000Y-91300000D01*
D45*
X200800000Y-97700000D02*
X202500000Y-97700000D01*
X202500000Y-97700000D02*
X203500000Y-98700000D01*
D46*
X201200000Y-72800000D02*
X201500000Y-73100000D01*
X204000000Y-77280000D02*
X204000000Y-76100000D01*
X196175000Y-71250000D02*
X196175000Y-72525000D01*
X194680000Y-86500000D02*
X195000000Y-86500000D01*
X189880000Y-75920000D02*
X189875000Y-75925000D01*
D45*
X200800000Y-95950000D02*
X200825000Y-95925000D01*
D47*
X211400000Y-89700000D02*
X211300000Y-89600000D01*
D46*
X192070000Y-75920000D02*
X192100000Y-75950000D01*
X201500000Y-73100000D02*
X201500000Y-73900000D01*
X205240000Y-88560000D02*
X205300000Y-88500000D01*
X198425000Y-72950000D02*
X198425000Y-73895000D01*
X204530000Y-86600000D02*
X204510000Y-86580000D01*
X195550000Y-70430000D02*
X195550000Y-66255000D01*
D45*
X205175604Y-88535604D02*
X205240000Y-88600000D01*
D46*
%TO.N,+1V1*%
X195375000Y-87700000D02*
X194680000Y-87700000D01*
X202600000Y-84200000D02*
X202200000Y-83800000D01*
X202600000Y-85830000D02*
X202600000Y-85930000D01*
X205240000Y-87600000D02*
X204400000Y-87600000D01*
X202600000Y-85980000D02*
X202980000Y-85600000D01*
X202200000Y-83800000D02*
X198000000Y-83800000D01*
X202600000Y-85830000D02*
X202600000Y-85400000D01*
X202980000Y-85600000D02*
X205240000Y-85600000D01*
X202600000Y-87600000D02*
X202600000Y-85830000D01*
X197600000Y-86350000D02*
X197175000Y-86775000D01*
X203000000Y-88000000D02*
X202600000Y-87600000D01*
X204400000Y-87600000D02*
X204000000Y-88000000D01*
X204000000Y-88000000D02*
X203000000Y-88000000D01*
X196300000Y-86775000D02*
X195375000Y-87700000D01*
X202600000Y-85400000D02*
X202600000Y-85600000D01*
X202600000Y-85400000D02*
X202600000Y-84200000D01*
X197600000Y-84200000D02*
X197600000Y-86350000D01*
X197175000Y-86775000D02*
X196300000Y-86775000D01*
X198000000Y-83800000D02*
X197600000Y-84200000D01*
%TO.N,/XIN*%
X195575000Y-85173549D02*
X195575000Y-84125000D01*
X195575000Y-84125000D02*
X194300000Y-82850000D01*
X195480541Y-85268008D02*
X195575000Y-85173549D01*
%TO.N,/XOUT*%
X189289000Y-85889000D02*
X188800000Y-85400000D01*
X195244605Y-85889000D02*
X189289000Y-85889000D01*
X195441214Y-86067042D02*
X195263172Y-85889000D01*
%TO.N,/SWCLK*%
X196400000Y-90410000D02*
X198090000Y-88720000D01*
X198503506Y-88720000D02*
X198537443Y-88686063D01*
X197100000Y-98700000D02*
X196400000Y-98000000D01*
X198090000Y-88720000D02*
X198503506Y-88720000D01*
X196400000Y-98000000D02*
X196400000Y-90425000D01*
X196400000Y-90425000D02*
X196400000Y-90410000D01*
%TO.N,/SWDIO*%
X197570000Y-88630000D02*
X193860000Y-92340000D01*
X193860000Y-92340000D02*
X193860000Y-98700000D01*
X197570000Y-88230000D02*
X197570000Y-88630000D01*
%TO.N,/UART_Tx0*%
X195200000Y-89925000D02*
X167250000Y-89925000D01*
X162150000Y-95025000D02*
X159625000Y-95025000D01*
X167250000Y-89925000D02*
X162150000Y-95025000D01*
X159625000Y-95025000D02*
X158250000Y-96400000D01*
%TO.N,/ADC_BAT*%
X199512500Y-95500000D02*
X200200000Y-94812500D01*
X201500000Y-91000000D02*
X201800000Y-90700000D01*
X201500000Y-91887500D02*
X201500000Y-91000000D01*
X200200000Y-94812500D02*
X200200000Y-92500000D01*
X200200000Y-92500000D02*
X200812500Y-91887500D01*
X200812500Y-91887500D02*
X201500000Y-91887500D01*
%TO.N,/RP_SCL1*%
X200280000Y-76130000D02*
X200250000Y-76100000D01*
X199800000Y-76100000D02*
X199337500Y-75637500D01*
X202700000Y-66100000D02*
X205500000Y-66100000D01*
X200280000Y-77787500D02*
X200280000Y-76130000D01*
X199337500Y-75637500D02*
X199337500Y-69462500D01*
X199337500Y-69462500D02*
X202700000Y-66100000D01*
X200250000Y-76100000D02*
X199800000Y-76100000D01*
%TO.N,/RP_SDA1*%
X205500000Y-67100000D02*
X205699000Y-67299000D01*
X201500000Y-79850000D02*
X201399000Y-79749000D01*
X201399000Y-79749000D02*
X201399000Y-76201000D01*
X205500000Y-67100000D02*
X205500000Y-68900000D01*
X201399000Y-76201000D02*
X201500000Y-76100000D01*
X204150000Y-79850000D02*
X201500000Y-79850000D01*
X205500000Y-68900000D02*
X205400000Y-69000000D01*
X205400000Y-78600000D02*
X204150000Y-79850000D01*
X205400000Y-69000000D02*
X205400000Y-78600000D01*
%TO.N,Net-(Q1-C)*%
X198300000Y-64562500D02*
X198462500Y-64400000D01*
X198300000Y-68600000D02*
X198300000Y-64562500D01*
X198462500Y-68437500D02*
X198300000Y-68600000D01*
X195580000Y-64400000D02*
X195550000Y-64430000D01*
X198462500Y-64400000D02*
X195580000Y-64400000D01*
D45*
%TO.N,NR_Reg*%
X205325000Y-96120000D02*
X205300000Y-96095000D01*
X205325000Y-98700000D02*
X205325000Y-96120000D01*
D49*
X205300000Y-93300000D02*
X205300000Y-94105000D01*
D45*
X205100000Y-99900000D02*
X205325000Y-99675000D01*
X205325000Y-99675000D02*
X205325000Y-98700000D01*
X201175000Y-99900000D02*
X205100000Y-99900000D01*
X205000000Y-93805000D02*
X205300000Y-94105000D01*
X200800000Y-99525000D02*
X201175000Y-99900000D01*
D47*
X205300000Y-96095000D02*
X205300000Y-94105000D01*
D49*
X205300000Y-93300000D02*
X204800000Y-92800000D01*
X206762954Y-90374971D02*
X206774971Y-90374971D01*
X204800000Y-92337925D02*
X206762954Y-90374971D01*
X204800000Y-92800000D02*
X204800000Y-92337925D01*
D46*
%TO.N,Net-(Q1-B)*%
X207387500Y-71012500D02*
X208700000Y-69700000D01*
X202025000Y-63450000D02*
X200337500Y-63450000D01*
X207387500Y-72400000D02*
X207387500Y-71012500D01*
%TO.N,/BUZZER*%
X209212500Y-72400000D02*
X207012500Y-74600000D01*
X205800000Y-80225000D02*
X204325000Y-81700000D01*
X206075000Y-74600000D02*
X205800000Y-74875000D01*
X204325000Y-81700000D02*
X202075411Y-81700000D01*
X205800000Y-74875000D02*
X205800000Y-80225000D01*
X207012500Y-74600000D02*
X206075000Y-74600000D01*
X202075411Y-81700000D02*
X202070000Y-81705411D01*
%TD*%
%TA.AperFunction,Conductor*%
%TO.N,GND*%
G36*
X207047989Y-88706725D02*
G01*
X207050922Y-88714397D01*
X207050922Y-89520276D01*
X207047602Y-89528359D01*
X206706486Y-89873534D01*
X206701282Y-89876559D01*
X206581786Y-89908578D01*
X206512711Y-89948459D01*
X206506961Y-89950000D01*
X206012422Y-89950000D01*
X206004290Y-89946632D01*
X206000922Y-89938500D01*
X206000922Y-88240005D01*
X206000922Y-88240000D01*
X206630000Y-88240000D01*
X207047989Y-88706725D01*
G37*
%TD.AperFunction*%
%TD*%
%TA.AperFunction,Conductor*%
%TO.N,GND*%
G36*
X219503486Y-85659685D02*
G01*
X219549241Y-85712489D01*
X219560446Y-85763552D01*
X219569550Y-88285551D01*
X219550108Y-88352661D01*
X219497469Y-88398607D01*
X219445551Y-88409999D01*
X216758098Y-88409999D01*
X216752651Y-96338380D01*
X216732920Y-96405406D01*
X216727027Y-96413781D01*
X216641388Y-96525388D01*
X216526657Y-96724108D01*
X216526650Y-96724123D01*
X216438842Y-96936112D01*
X216379453Y-97157759D01*
X216379451Y-97157770D01*
X216349500Y-97385258D01*
X216349500Y-97614741D01*
X216374446Y-97804215D01*
X216379452Y-97842238D01*
X216379453Y-97842240D01*
X216438842Y-98063887D01*
X216526650Y-98275876D01*
X216526657Y-98275891D01*
X216641385Y-98474607D01*
X216725433Y-98584139D01*
X216750627Y-98649308D01*
X216751057Y-98659711D01*
X216750085Y-100076085D01*
X216730354Y-100143111D01*
X216677519Y-100188830D01*
X216626085Y-100200000D01*
X213724000Y-100200000D01*
X213656961Y-100180315D01*
X213611206Y-100127511D01*
X213600000Y-100076000D01*
X213600000Y-95024000D01*
X213619685Y-94956961D01*
X213672489Y-94911206D01*
X213724000Y-94900000D01*
X214399999Y-94900000D01*
X214400000Y-94900000D01*
X214409866Y-85763865D01*
X214429623Y-85696848D01*
X214482476Y-85651150D01*
X214533866Y-85640000D01*
X219436447Y-85640000D01*
X219503486Y-85659685D01*
G37*
%TD.AperFunction*%
%TD*%
%TA.AperFunction,Conductor*%
%TO.N,GND*%
G36*
X160821692Y-92324655D02*
G01*
X160888643Y-92344635D01*
X160933343Y-92395855D01*
X161416800Y-93423201D01*
X161427534Y-93492241D01*
X161399238Y-93556125D01*
X161340896Y-93594570D01*
X161304602Y-93600000D01*
X157725000Y-93600000D01*
X156486586Y-94886979D01*
X156425918Y-94921637D01*
X156397235Y-94925000D01*
X155343638Y-94925000D01*
X155276599Y-94905315D01*
X155230844Y-94852511D01*
X155219638Y-94801000D01*
X155219638Y-92424547D01*
X155239323Y-92357508D01*
X155292127Y-92311753D01*
X155344183Y-92300548D01*
X160821692Y-92324655D01*
G37*
%TD.AperFunction*%
%TD*%
%TA.AperFunction,Conductor*%
%TO.N,+3V3*%
G36*
X205356632Y-88273368D02*
G01*
X205360000Y-88281500D01*
X205360000Y-89918500D01*
X205356632Y-89926632D01*
X205348500Y-89930000D01*
X204854764Y-89930000D01*
X204846632Y-89926632D01*
X204673368Y-89753368D01*
X204670000Y-89745236D01*
X204670000Y-88949999D01*
X204359725Y-88901519D01*
X204352210Y-88896936D01*
X204350000Y-88890157D01*
X204350000Y-88310472D01*
X204353368Y-88302340D01*
X204360425Y-88299022D01*
X204669467Y-88270050D01*
X204670540Y-88270000D01*
X205348500Y-88270000D01*
X205356632Y-88273368D01*
G37*
%TD.AperFunction*%
%TD*%
%TA.AperFunction,Conductor*%
%TO.N,GND*%
G36*
X195705021Y-77428368D02*
G01*
X195708389Y-77436500D01*
X195708389Y-78092709D01*
X195705021Y-78100841D01*
X195701795Y-78103110D01*
X194915719Y-78473901D01*
X194910813Y-78475000D01*
X194101574Y-78475000D01*
X194095657Y-78473361D01*
X193403972Y-78058349D01*
X193398732Y-78051277D01*
X193398389Y-78048488D01*
X193398389Y-77436500D01*
X193401757Y-77428368D01*
X193409889Y-77425000D01*
X195696889Y-77425000D01*
X195705021Y-77428368D01*
G37*
%TD.AperFunction*%
%TD*%
%TA.AperFunction,Conductor*%
%TO.N,GND*%
G36*
X195004343Y-71376639D02*
G01*
X195696028Y-71791650D01*
X195701268Y-71798722D01*
X195701611Y-71801511D01*
X195701611Y-72413500D01*
X195698243Y-72421632D01*
X195690111Y-72425000D01*
X193403111Y-72425000D01*
X193394979Y-72421632D01*
X193391611Y-72413500D01*
X193391611Y-71757290D01*
X193394979Y-71749158D01*
X193398202Y-71746890D01*
X194184281Y-71376098D01*
X194189187Y-71375000D01*
X194998426Y-71375000D01*
X195004343Y-71376639D01*
G37*
%TD.AperFunction*%
%TD*%
%TA.AperFunction,Conductor*%
%TO.N,GND*%
G36*
X187365677Y-92294685D02*
G01*
X187386319Y-92311319D01*
X187463681Y-92388681D01*
X187497166Y-92450004D01*
X187500000Y-92476362D01*
X187500000Y-92800400D01*
X187491765Y-92828442D01*
X187486249Y-92857156D01*
X187481284Y-92864135D01*
X187480315Y-92867439D01*
X187465795Y-92885914D01*
X187391665Y-92963752D01*
X187386721Y-92968943D01*
X187326232Y-93003913D01*
X187296754Y-93007425D01*
X182051259Y-93000071D01*
X181984247Y-92980292D01*
X181963752Y-92963752D01*
X181936319Y-92936319D01*
X181902834Y-92874996D01*
X181900000Y-92848638D01*
X181900000Y-92441362D01*
X181902255Y-92433681D01*
X181900983Y-92425779D01*
X181911958Y-92400637D01*
X181919685Y-92374323D01*
X181926447Y-92367445D01*
X181928936Y-92361745D01*
X181955213Y-92338190D01*
X182018762Y-92295824D01*
X182085461Y-92275017D01*
X182087544Y-92275000D01*
X187298638Y-92275000D01*
X187365677Y-92294685D01*
G37*
%TD.AperFunction*%
%TD*%
%TA.AperFunction,Conductor*%
%TO.N,GND*%
G36*
X206630000Y-88240000D02*
G01*
X206000922Y-88240000D01*
X206000000Y-86950000D01*
X206630000Y-86950000D01*
X206630000Y-88240000D01*
G37*
%TD.AperFunction*%
%TD*%
%TA.AperFunction,Conductor*%
%TO.N,GND*%
G36*
X189921632Y-73076757D02*
G01*
X189925000Y-73084889D01*
X189925000Y-74921889D01*
X189921632Y-74930021D01*
X189913500Y-74933389D01*
X189256047Y-74933389D01*
X189247915Y-74930021D01*
X189246573Y-74928408D01*
X188877026Y-74391333D01*
X188875000Y-74384814D01*
X188875000Y-73577578D01*
X188877693Y-73570182D01*
X189291553Y-73077491D01*
X189299363Y-73073432D01*
X189300359Y-73073389D01*
X189913500Y-73073389D01*
X189921632Y-73076757D01*
G37*
%TD.AperFunction*%
%TD*%
%TA.AperFunction,Conductor*%
%TO.N,+3V3*%
G36*
X157568039Y-90669685D02*
G01*
X157613794Y-90722489D01*
X157625000Y-90774000D01*
X157625000Y-91950785D01*
X157605315Y-92017824D01*
X157552511Y-92063579D01*
X157500786Y-92074785D01*
X154725000Y-92070000D01*
X154725000Y-94975000D01*
X154899559Y-95126195D01*
X155028761Y-95238104D01*
X155066547Y-95296874D01*
X155071577Y-95331603D01*
X155074769Y-97050770D01*
X155055209Y-97117846D01*
X155002490Y-97163699D01*
X154950769Y-97175000D01*
X153549995Y-97175000D01*
X153482956Y-97155315D01*
X153437201Y-97102511D01*
X153425999Y-97050009D01*
X153438391Y-95500000D01*
X153438389Y-95499998D01*
X153438389Y-95499997D01*
X153125999Y-95126195D01*
X153124060Y-95123816D01*
X152676450Y-94560159D01*
X152650177Y-94495423D01*
X152653783Y-94450957D01*
X152660500Y-94425892D01*
X152660500Y-94294108D01*
X152626392Y-94166814D01*
X152560500Y-94052686D01*
X152486319Y-93978505D01*
X152452834Y-93917182D01*
X152450000Y-93890824D01*
X152450000Y-93329176D01*
X152469685Y-93262137D01*
X152486319Y-93241495D01*
X152560500Y-93167314D01*
X152626392Y-93053186D01*
X152660500Y-92925892D01*
X152660500Y-92794108D01*
X152626392Y-92666814D01*
X152560500Y-92552686D01*
X152486319Y-92478505D01*
X152452834Y-92417182D01*
X152450000Y-92390824D01*
X152450000Y-91829176D01*
X152469685Y-91762137D01*
X152486319Y-91741495D01*
X152560500Y-91667314D01*
X152626392Y-91553186D01*
X152660500Y-91425892D01*
X152660500Y-91294108D01*
X152626392Y-91166814D01*
X152560500Y-91052686D01*
X152486319Y-90978505D01*
X152471615Y-90951577D01*
X152455023Y-90925759D01*
X152454131Y-90919558D01*
X152452834Y-90917182D01*
X152450000Y-90890824D01*
X152450000Y-90774000D01*
X152469685Y-90706961D01*
X152522489Y-90661206D01*
X152574000Y-90650000D01*
X157501000Y-90650000D01*
X157568039Y-90669685D01*
G37*
%TD.AperFunction*%
%TD*%
%TA.AperFunction,Conductor*%
%TO.N,+3V3*%
G36*
X188340639Y-90845001D02*
G01*
X188361420Y-90861686D01*
X188438579Y-90938665D01*
X188472135Y-90999946D01*
X188475000Y-91026447D01*
X188475000Y-91648638D01*
X188466355Y-91678075D01*
X188459832Y-91708066D01*
X188456076Y-91713082D01*
X188455315Y-91715677D01*
X188438685Y-91736314D01*
X188361510Y-91813490D01*
X188300186Y-91846974D01*
X188273366Y-91849807D01*
X181625002Y-91824999D01*
X181624999Y-91825000D01*
X181450000Y-91999999D01*
X181450000Y-92786387D01*
X181430315Y-92853426D01*
X181428078Y-92856786D01*
X181236966Y-93133899D01*
X181182701Y-93177911D01*
X181134888Y-93187500D01*
X177712732Y-93187500D01*
X177690464Y-93180961D01*
X177667348Y-93178896D01*
X177657569Y-93171302D01*
X177645693Y-93167815D01*
X177630497Y-93150278D01*
X177612164Y-93136041D01*
X177603023Y-93118571D01*
X177599938Y-93115011D01*
X177595801Y-93104769D01*
X177557069Y-92995027D01*
X177550000Y-92953758D01*
X177550000Y-91179547D01*
X177569685Y-91112508D01*
X177590206Y-91088143D01*
X177814569Y-90882477D01*
X177877287Y-90851689D01*
X177898054Y-90849886D01*
X188273553Y-90825474D01*
X188340639Y-90845001D01*
G37*
%TD.AperFunction*%
%TD*%
%TA.AperFunction,Conductor*%
%TO.N,GND*%
G36*
X206677596Y-85243368D02*
G01*
X206678453Y-85244328D01*
X206757532Y-85343440D01*
X207047489Y-85706853D01*
X207050000Y-85714024D01*
X207050000Y-86520276D01*
X207046680Y-86528359D01*
X206630000Y-86950000D01*
X206000000Y-86950000D01*
X206000000Y-85251500D01*
X206003368Y-85243368D01*
X206011500Y-85240000D01*
X206669464Y-85240000D01*
X206677596Y-85243368D01*
G37*
%TD.AperFunction*%
%TD*%
%TA.AperFunction,Conductor*%
%TO.N,+3V3*%
G36*
X211666525Y-88433413D02*
G01*
X211669999Y-88441501D01*
X211670000Y-88441650D01*
X211670000Y-89260000D01*
X212152846Y-89457080D01*
X212159102Y-89463271D01*
X212160000Y-89467727D01*
X212160000Y-89942417D01*
X212156632Y-89950549D01*
X212153030Y-89952987D01*
X211670001Y-90159999D01*
X211670000Y-90160001D01*
X211670000Y-90768500D01*
X211666632Y-90776632D01*
X211658500Y-90780000D01*
X210911500Y-90780000D01*
X210903368Y-90776632D01*
X210900000Y-90768500D01*
X210900000Y-88451351D01*
X210903368Y-88443219D01*
X210911349Y-88439852D01*
X211658351Y-88430151D01*
X211666525Y-88433413D01*
G37*
%TD.AperFunction*%
%TD*%
M02*
