%TF.GenerationSoftware,KiCad,Pcbnew,9.0.6*%
%TF.CreationDate,2026-02-11T12:54:48-03:00*%
%TF.ProjectId,flight_comp_srad-2026,666c6967-6874-45f6-936f-6d705f737261,rev?*%
%TF.SameCoordinates,Original*%
%TF.FileFunction,Legend,Top*%
%TF.FilePolarity,Positive*%
%FSLAX46Y46*%
G04 Gerber Fmt 4.6, Leading zero omitted, Abs format (unit mm)*
G04 Created by KiCad (PCBNEW 9.0.6) date 2026-02-11 12:54:48*
%MOMM*%
%LPD*%
G01*
G04 APERTURE LIST*
%ADD10C,0.100000*%
%ADD11C,0.175000*%
%ADD12C,0.200000*%
%ADD13C,0.125000*%
%ADD14C,0.150000*%
%ADD15C,0.254000*%
%ADD16C,0.120000*%
%ADD17C,0.000000*%
%ADD18C,0.127000*%
G04 APERTURE END LIST*
D10*
X157632455Y-64155211D02*
X157632455Y-63455211D01*
X157632455Y-63455211D02*
X157899122Y-63455211D01*
X157899122Y-63455211D02*
X157965789Y-63488544D01*
X157965789Y-63488544D02*
X157999122Y-63521878D01*
X157999122Y-63521878D02*
X158032455Y-63588544D01*
X158032455Y-63588544D02*
X158032455Y-63688544D01*
X158032455Y-63688544D02*
X157999122Y-63755211D01*
X157999122Y-63755211D02*
X157965789Y-63788544D01*
X157965789Y-63788544D02*
X157899122Y-63821878D01*
X157899122Y-63821878D02*
X157632455Y-63821878D01*
X158599122Y-64121878D02*
X158532455Y-64155211D01*
X158532455Y-64155211D02*
X158399122Y-64155211D01*
X158399122Y-64155211D02*
X158332455Y-64121878D01*
X158332455Y-64121878D02*
X158299122Y-64055211D01*
X158299122Y-64055211D02*
X158299122Y-63788544D01*
X158299122Y-63788544D02*
X158332455Y-63721878D01*
X158332455Y-63721878D02*
X158399122Y-63688544D01*
X158399122Y-63688544D02*
X158532455Y-63688544D01*
X158532455Y-63688544D02*
X158599122Y-63721878D01*
X158599122Y-63721878D02*
X158632455Y-63788544D01*
X158632455Y-63788544D02*
X158632455Y-63855211D01*
X158632455Y-63855211D02*
X158299122Y-63921878D01*
X158932455Y-63688544D02*
X158932455Y-64155211D01*
X158932455Y-63755211D02*
X158965789Y-63721878D01*
X158965789Y-63721878D02*
X159032455Y-63688544D01*
X159032455Y-63688544D02*
X159132455Y-63688544D01*
X159132455Y-63688544D02*
X159199122Y-63721878D01*
X159199122Y-63721878D02*
X159232455Y-63788544D01*
X159232455Y-63788544D02*
X159232455Y-64155211D01*
X159532455Y-64121878D02*
X159599122Y-64155211D01*
X159599122Y-64155211D02*
X159732455Y-64155211D01*
X159732455Y-64155211D02*
X159799122Y-64121878D01*
X159799122Y-64121878D02*
X159832455Y-64055211D01*
X159832455Y-64055211D02*
X159832455Y-64021878D01*
X159832455Y-64021878D02*
X159799122Y-63955211D01*
X159799122Y-63955211D02*
X159732455Y-63921878D01*
X159732455Y-63921878D02*
X159632455Y-63921878D01*
X159632455Y-63921878D02*
X159565788Y-63888544D01*
X159565788Y-63888544D02*
X159532455Y-63821878D01*
X159532455Y-63821878D02*
X159532455Y-63788544D01*
X159532455Y-63788544D02*
X159565788Y-63721878D01*
X159565788Y-63721878D02*
X159632455Y-63688544D01*
X159632455Y-63688544D02*
X159732455Y-63688544D01*
X159732455Y-63688544D02*
X159799122Y-63721878D01*
X160432455Y-64155211D02*
X160432455Y-63788544D01*
X160432455Y-63788544D02*
X160399122Y-63721878D01*
X160399122Y-63721878D02*
X160332455Y-63688544D01*
X160332455Y-63688544D02*
X160199122Y-63688544D01*
X160199122Y-63688544D02*
X160132455Y-63721878D01*
X160432455Y-64121878D02*
X160365789Y-64155211D01*
X160365789Y-64155211D02*
X160199122Y-64155211D01*
X160199122Y-64155211D02*
X160132455Y-64121878D01*
X160132455Y-64121878D02*
X160099122Y-64055211D01*
X160099122Y-64055211D02*
X160099122Y-63988544D01*
X160099122Y-63988544D02*
X160132455Y-63921878D01*
X160132455Y-63921878D02*
X160199122Y-63888544D01*
X160199122Y-63888544D02*
X160365789Y-63888544D01*
X160365789Y-63888544D02*
X160432455Y-63855211D01*
X161299121Y-64155211D02*
X161299121Y-63455211D01*
X161299121Y-63455211D02*
X161565788Y-63455211D01*
X161565788Y-63455211D02*
X161632455Y-63488544D01*
X161632455Y-63488544D02*
X161665788Y-63521878D01*
X161665788Y-63521878D02*
X161699121Y-63588544D01*
X161699121Y-63588544D02*
X161699121Y-63688544D01*
X161699121Y-63688544D02*
X161665788Y-63755211D01*
X161665788Y-63755211D02*
X161632455Y-63788544D01*
X161632455Y-63788544D02*
X161565788Y-63821878D01*
X161565788Y-63821878D02*
X161299121Y-63821878D01*
X161999121Y-64155211D02*
X161999121Y-63688544D01*
X161999121Y-63455211D02*
X161965788Y-63488544D01*
X161965788Y-63488544D02*
X161999121Y-63521878D01*
X161999121Y-63521878D02*
X162032455Y-63488544D01*
X162032455Y-63488544D02*
X161999121Y-63455211D01*
X161999121Y-63455211D02*
X161999121Y-63521878D01*
X162632454Y-64121878D02*
X162565788Y-64155211D01*
X162565788Y-64155211D02*
X162432454Y-64155211D01*
X162432454Y-64155211D02*
X162365788Y-64121878D01*
X162365788Y-64121878D02*
X162332454Y-64088544D01*
X162332454Y-64088544D02*
X162299121Y-64021878D01*
X162299121Y-64021878D02*
X162299121Y-63821878D01*
X162299121Y-63821878D02*
X162332454Y-63755211D01*
X162332454Y-63755211D02*
X162365788Y-63721878D01*
X162365788Y-63721878D02*
X162432454Y-63688544D01*
X162432454Y-63688544D02*
X162565788Y-63688544D01*
X162565788Y-63688544D02*
X162632454Y-63721878D01*
X163232454Y-64121878D02*
X163165788Y-64155211D01*
X163165788Y-64155211D02*
X163032454Y-64155211D01*
X163032454Y-64155211D02*
X162965788Y-64121878D01*
X162965788Y-64121878D02*
X162932454Y-64088544D01*
X162932454Y-64088544D02*
X162899121Y-64021878D01*
X162899121Y-64021878D02*
X162899121Y-63821878D01*
X162899121Y-63821878D02*
X162932454Y-63755211D01*
X162932454Y-63755211D02*
X162965788Y-63721878D01*
X162965788Y-63721878D02*
X163032454Y-63688544D01*
X163032454Y-63688544D02*
X163165788Y-63688544D01*
X163165788Y-63688544D02*
X163232454Y-63721878D01*
X163632454Y-64155211D02*
X163565788Y-64121878D01*
X163565788Y-64121878D02*
X163532454Y-64088544D01*
X163532454Y-64088544D02*
X163499121Y-64021878D01*
X163499121Y-64021878D02*
X163499121Y-63821878D01*
X163499121Y-63821878D02*
X163532454Y-63755211D01*
X163532454Y-63755211D02*
X163565788Y-63721878D01*
X163565788Y-63721878D02*
X163632454Y-63688544D01*
X163632454Y-63688544D02*
X163732454Y-63688544D01*
X163732454Y-63688544D02*
X163799121Y-63721878D01*
X163799121Y-63721878D02*
X163832454Y-63755211D01*
X163832454Y-63755211D02*
X163865788Y-63821878D01*
X163865788Y-63821878D02*
X163865788Y-64021878D01*
X163865788Y-64021878D02*
X163832454Y-64088544D01*
X163832454Y-64088544D02*
X163799121Y-64121878D01*
X163799121Y-64121878D02*
X163732454Y-64155211D01*
X163732454Y-64155211D02*
X163632454Y-64155211D01*
X164265787Y-64155211D02*
X164199121Y-64121878D01*
X164199121Y-64121878D02*
X164165787Y-64055211D01*
X164165787Y-64055211D02*
X164165787Y-63455211D01*
X164632454Y-64155211D02*
X164565788Y-64121878D01*
X164565788Y-64121878D02*
X164532454Y-64088544D01*
X164532454Y-64088544D02*
X164499121Y-64021878D01*
X164499121Y-64021878D02*
X164499121Y-63821878D01*
X164499121Y-63821878D02*
X164532454Y-63755211D01*
X164532454Y-63755211D02*
X164565788Y-63721878D01*
X164565788Y-63721878D02*
X164632454Y-63688544D01*
X164632454Y-63688544D02*
X164732454Y-63688544D01*
X164732454Y-63688544D02*
X164799121Y-63721878D01*
X164799121Y-63721878D02*
X164832454Y-63755211D01*
X164832454Y-63755211D02*
X164865788Y-63821878D01*
X164865788Y-63821878D02*
X164865788Y-64021878D01*
X164865788Y-64021878D02*
X164832454Y-64088544D01*
X164832454Y-64088544D02*
X164799121Y-64121878D01*
X164799121Y-64121878D02*
X164732454Y-64155211D01*
X164732454Y-64155211D02*
X164632454Y-64155211D01*
X165199121Y-64121878D02*
X165199121Y-64155211D01*
X165199121Y-64155211D02*
X165165787Y-64221878D01*
X165165787Y-64221878D02*
X165132454Y-64255211D01*
X165932453Y-63455211D02*
X166165787Y-64155211D01*
X166165787Y-64155211D02*
X166399120Y-63455211D01*
X166632453Y-64155211D02*
X166632453Y-63688544D01*
X166632453Y-63455211D02*
X166599120Y-63488544D01*
X166599120Y-63488544D02*
X166632453Y-63521878D01*
X166632453Y-63521878D02*
X166665787Y-63488544D01*
X166665787Y-63488544D02*
X166632453Y-63455211D01*
X166632453Y-63455211D02*
X166632453Y-63521878D01*
X166865786Y-63688544D02*
X167132453Y-63688544D01*
X166965786Y-63455211D02*
X166965786Y-64055211D01*
X166965786Y-64055211D02*
X166999120Y-64121878D01*
X166999120Y-64121878D02*
X167065786Y-64155211D01*
X167065786Y-64155211D02*
X167132453Y-64155211D01*
X167465786Y-64155211D02*
X167399120Y-64121878D01*
X167399120Y-64121878D02*
X167365786Y-64088544D01*
X167365786Y-64088544D02*
X167332453Y-64021878D01*
X167332453Y-64021878D02*
X167332453Y-63821878D01*
X167332453Y-63821878D02*
X167365786Y-63755211D01*
X167365786Y-63755211D02*
X167399120Y-63721878D01*
X167399120Y-63721878D02*
X167465786Y-63688544D01*
X167465786Y-63688544D02*
X167565786Y-63688544D01*
X167565786Y-63688544D02*
X167632453Y-63721878D01*
X167632453Y-63721878D02*
X167665786Y-63755211D01*
X167665786Y-63755211D02*
X167699120Y-63821878D01*
X167699120Y-63821878D02*
X167699120Y-64021878D01*
X167699120Y-64021878D02*
X167665786Y-64088544D01*
X167665786Y-64088544D02*
X167632453Y-64121878D01*
X167632453Y-64121878D02*
X167565786Y-64155211D01*
X167565786Y-64155211D02*
X167465786Y-64155211D01*
X157632455Y-65282172D02*
X157632455Y-64582172D01*
X157632455Y-64582172D02*
X157899122Y-64582172D01*
X157899122Y-64582172D02*
X157965789Y-64615505D01*
X157965789Y-64615505D02*
X157999122Y-64648839D01*
X157999122Y-64648839D02*
X158032455Y-64715505D01*
X158032455Y-64715505D02*
X158032455Y-64815505D01*
X158032455Y-64815505D02*
X157999122Y-64882172D01*
X157999122Y-64882172D02*
X157965789Y-64915505D01*
X157965789Y-64915505D02*
X157899122Y-64948839D01*
X157899122Y-64948839D02*
X157632455Y-64948839D01*
X158599122Y-65248839D02*
X158532455Y-65282172D01*
X158532455Y-65282172D02*
X158399122Y-65282172D01*
X158399122Y-65282172D02*
X158332455Y-65248839D01*
X158332455Y-65248839D02*
X158299122Y-65182172D01*
X158299122Y-65182172D02*
X158299122Y-64915505D01*
X158299122Y-64915505D02*
X158332455Y-64848839D01*
X158332455Y-64848839D02*
X158399122Y-64815505D01*
X158399122Y-64815505D02*
X158532455Y-64815505D01*
X158532455Y-64815505D02*
X158599122Y-64848839D01*
X158599122Y-64848839D02*
X158632455Y-64915505D01*
X158632455Y-64915505D02*
X158632455Y-64982172D01*
X158632455Y-64982172D02*
X158299122Y-65048839D01*
X158532455Y-64548839D02*
X158432455Y-64648839D01*
X158932455Y-65282172D02*
X158932455Y-64815505D01*
X158932455Y-64948839D02*
X158965789Y-64882172D01*
X158965789Y-64882172D02*
X158999122Y-64848839D01*
X158999122Y-64848839D02*
X159065789Y-64815505D01*
X159065789Y-64815505D02*
X159132455Y-64815505D01*
X159632455Y-65248839D02*
X159565788Y-65282172D01*
X159565788Y-65282172D02*
X159432455Y-65282172D01*
X159432455Y-65282172D02*
X159365788Y-65248839D01*
X159365788Y-65248839D02*
X159332455Y-65182172D01*
X159332455Y-65182172D02*
X159332455Y-64915505D01*
X159332455Y-64915505D02*
X159365788Y-64848839D01*
X159365788Y-64848839D02*
X159432455Y-64815505D01*
X159432455Y-64815505D02*
X159565788Y-64815505D01*
X159565788Y-64815505D02*
X159632455Y-64848839D01*
X159632455Y-64848839D02*
X159665788Y-64915505D01*
X159665788Y-64915505D02*
X159665788Y-64982172D01*
X159665788Y-64982172D02*
X159332455Y-65048839D01*
X159899122Y-64815505D02*
X160265788Y-64815505D01*
X160265788Y-64815505D02*
X159899122Y-65282172D01*
X159899122Y-65282172D02*
X160265788Y-65282172D01*
X161399122Y-65282172D02*
X161065788Y-65282172D01*
X161065788Y-65282172D02*
X161065788Y-64582172D01*
X161732455Y-65282172D02*
X161665789Y-65248839D01*
X161665789Y-65248839D02*
X161632455Y-65215505D01*
X161632455Y-65215505D02*
X161599122Y-65148839D01*
X161599122Y-65148839D02*
X161599122Y-64948839D01*
X161599122Y-64948839D02*
X161632455Y-64882172D01*
X161632455Y-64882172D02*
X161665789Y-64848839D01*
X161665789Y-64848839D02*
X161732455Y-64815505D01*
X161732455Y-64815505D02*
X161832455Y-64815505D01*
X161832455Y-64815505D02*
X161899122Y-64848839D01*
X161899122Y-64848839D02*
X161932455Y-64882172D01*
X161932455Y-64882172D02*
X161965789Y-64948839D01*
X161965789Y-64948839D02*
X161965789Y-65148839D01*
X161965789Y-65148839D02*
X161932455Y-65215505D01*
X161932455Y-65215505D02*
X161899122Y-65248839D01*
X161899122Y-65248839D02*
X161832455Y-65282172D01*
X161832455Y-65282172D02*
X161732455Y-65282172D01*
X162232455Y-65248839D02*
X162299122Y-65282172D01*
X162299122Y-65282172D02*
X162432455Y-65282172D01*
X162432455Y-65282172D02*
X162499122Y-65248839D01*
X162499122Y-65248839D02*
X162532455Y-65182172D01*
X162532455Y-65182172D02*
X162532455Y-65148839D01*
X162532455Y-65148839D02*
X162499122Y-65082172D01*
X162499122Y-65082172D02*
X162432455Y-65048839D01*
X162432455Y-65048839D02*
X162332455Y-65048839D01*
X162332455Y-65048839D02*
X162265788Y-65015505D01*
X162265788Y-65015505D02*
X162232455Y-64948839D01*
X162232455Y-64948839D02*
X162232455Y-64915505D01*
X162232455Y-64915505D02*
X162265788Y-64848839D01*
X162265788Y-64848839D02*
X162332455Y-64815505D01*
X162332455Y-64815505D02*
X162432455Y-64815505D01*
X162432455Y-64815505D02*
X162499122Y-64848839D01*
X163132455Y-65282172D02*
X163132455Y-64915505D01*
X163132455Y-64915505D02*
X163099122Y-64848839D01*
X163099122Y-64848839D02*
X163032455Y-64815505D01*
X163032455Y-64815505D02*
X162899122Y-64815505D01*
X162899122Y-64815505D02*
X162832455Y-64848839D01*
X163132455Y-65248839D02*
X163065789Y-65282172D01*
X163065789Y-65282172D02*
X162899122Y-65282172D01*
X162899122Y-65282172D02*
X162832455Y-65248839D01*
X162832455Y-65248839D02*
X162799122Y-65182172D01*
X162799122Y-65182172D02*
X162799122Y-65115505D01*
X162799122Y-65115505D02*
X162832455Y-65048839D01*
X162832455Y-65048839D02*
X162899122Y-65015505D01*
X162899122Y-65015505D02*
X163065789Y-65015505D01*
X163065789Y-65015505D02*
X163132455Y-64982172D01*
X163765788Y-65282172D02*
X163765788Y-64582172D01*
X163765788Y-65248839D02*
X163699122Y-65282172D01*
X163699122Y-65282172D02*
X163565788Y-65282172D01*
X163565788Y-65282172D02*
X163499122Y-65248839D01*
X163499122Y-65248839D02*
X163465788Y-65215505D01*
X163465788Y-65215505D02*
X163432455Y-65148839D01*
X163432455Y-65148839D02*
X163432455Y-64948839D01*
X163432455Y-64948839D02*
X163465788Y-64882172D01*
X163465788Y-64882172D02*
X163499122Y-64848839D01*
X163499122Y-64848839D02*
X163565788Y-64815505D01*
X163565788Y-64815505D02*
X163699122Y-64815505D01*
X163699122Y-64815505D02*
X163765788Y-64848839D01*
X164399121Y-65282172D02*
X164399121Y-64915505D01*
X164399121Y-64915505D02*
X164365788Y-64848839D01*
X164365788Y-64848839D02*
X164299121Y-64815505D01*
X164299121Y-64815505D02*
X164165788Y-64815505D01*
X164165788Y-64815505D02*
X164099121Y-64848839D01*
X164399121Y-65248839D02*
X164332455Y-65282172D01*
X164332455Y-65282172D02*
X164165788Y-65282172D01*
X164165788Y-65282172D02*
X164099121Y-65248839D01*
X164099121Y-65248839D02*
X164065788Y-65182172D01*
X164065788Y-65182172D02*
X164065788Y-65115505D01*
X164065788Y-65115505D02*
X164099121Y-65048839D01*
X164099121Y-65048839D02*
X164165788Y-65015505D01*
X164165788Y-65015505D02*
X164332455Y-65015505D01*
X164332455Y-65015505D02*
X164399121Y-64982172D01*
X164765788Y-65248839D02*
X164765788Y-65282172D01*
X164765788Y-65282172D02*
X164732454Y-65348839D01*
X164732454Y-65348839D02*
X164699121Y-65382172D01*
X165799120Y-64582172D02*
X165799120Y-65082172D01*
X165799120Y-65082172D02*
X165765787Y-65182172D01*
X165765787Y-65182172D02*
X165699120Y-65248839D01*
X165699120Y-65248839D02*
X165599120Y-65282172D01*
X165599120Y-65282172D02*
X165532454Y-65282172D01*
X166432453Y-65282172D02*
X166432453Y-64915505D01*
X166432453Y-64915505D02*
X166399120Y-64848839D01*
X166399120Y-64848839D02*
X166332453Y-64815505D01*
X166332453Y-64815505D02*
X166199120Y-64815505D01*
X166199120Y-64815505D02*
X166132453Y-64848839D01*
X166432453Y-65248839D02*
X166365787Y-65282172D01*
X166365787Y-65282172D02*
X166199120Y-65282172D01*
X166199120Y-65282172D02*
X166132453Y-65248839D01*
X166132453Y-65248839D02*
X166099120Y-65182172D01*
X166099120Y-65182172D02*
X166099120Y-65115505D01*
X166099120Y-65115505D02*
X166132453Y-65048839D01*
X166132453Y-65048839D02*
X166199120Y-65015505D01*
X166199120Y-65015505D02*
X166365787Y-65015505D01*
X166365787Y-65015505D02*
X166432453Y-64982172D01*
X166699120Y-64815505D02*
X166865786Y-65282172D01*
X166865786Y-65282172D02*
X167032453Y-64815505D01*
X167299119Y-65282172D02*
X167299119Y-64815505D01*
X167299119Y-64582172D02*
X167265786Y-64615505D01*
X167265786Y-64615505D02*
X167299119Y-64648839D01*
X167299119Y-64648839D02*
X167332453Y-64615505D01*
X167332453Y-64615505D02*
X167299119Y-64582172D01*
X167299119Y-64582172D02*
X167299119Y-64648839D01*
X167899119Y-65248839D02*
X167832452Y-65282172D01*
X167832452Y-65282172D02*
X167699119Y-65282172D01*
X167699119Y-65282172D02*
X167632452Y-65248839D01*
X167632452Y-65248839D02*
X167599119Y-65182172D01*
X167599119Y-65182172D02*
X167599119Y-64915505D01*
X167599119Y-64915505D02*
X167632452Y-64848839D01*
X167632452Y-64848839D02*
X167699119Y-64815505D01*
X167699119Y-64815505D02*
X167832452Y-64815505D01*
X167832452Y-64815505D02*
X167899119Y-64848839D01*
X167899119Y-64848839D02*
X167932452Y-64915505D01*
X167932452Y-64915505D02*
X167932452Y-64982172D01*
X167932452Y-64982172D02*
X167599119Y-65048839D01*
X168232452Y-65282172D02*
X168232452Y-64815505D01*
X168232452Y-64948839D02*
X168265786Y-64882172D01*
X168265786Y-64882172D02*
X168299119Y-64848839D01*
X168299119Y-64848839D02*
X168365786Y-64815505D01*
X168365786Y-64815505D02*
X168432452Y-64815505D01*
X169432452Y-64915505D02*
X169532452Y-64948839D01*
X169532452Y-64948839D02*
X169565785Y-64982172D01*
X169565785Y-64982172D02*
X169599118Y-65048839D01*
X169599118Y-65048839D02*
X169599118Y-65148839D01*
X169599118Y-65148839D02*
X169565785Y-65215505D01*
X169565785Y-65215505D02*
X169532452Y-65248839D01*
X169532452Y-65248839D02*
X169465785Y-65282172D01*
X169465785Y-65282172D02*
X169199118Y-65282172D01*
X169199118Y-65282172D02*
X169199118Y-64582172D01*
X169199118Y-64582172D02*
X169432452Y-64582172D01*
X169432452Y-64582172D02*
X169499118Y-64615505D01*
X169499118Y-64615505D02*
X169532452Y-64648839D01*
X169532452Y-64648839D02*
X169565785Y-64715505D01*
X169565785Y-64715505D02*
X169565785Y-64782172D01*
X169565785Y-64782172D02*
X169532452Y-64848839D01*
X169532452Y-64848839D02*
X169499118Y-64882172D01*
X169499118Y-64882172D02*
X169432452Y-64915505D01*
X169432452Y-64915505D02*
X169199118Y-64915505D01*
X170199118Y-65282172D02*
X170199118Y-64915505D01*
X170199118Y-64915505D02*
X170165785Y-64848839D01*
X170165785Y-64848839D02*
X170099118Y-64815505D01*
X170099118Y-64815505D02*
X169965785Y-64815505D01*
X169965785Y-64815505D02*
X169899118Y-64848839D01*
X170199118Y-65248839D02*
X170132452Y-65282172D01*
X170132452Y-65282172D02*
X169965785Y-65282172D01*
X169965785Y-65282172D02*
X169899118Y-65248839D01*
X169899118Y-65248839D02*
X169865785Y-65182172D01*
X169865785Y-65182172D02*
X169865785Y-65115505D01*
X169865785Y-65115505D02*
X169899118Y-65048839D01*
X169899118Y-65048839D02*
X169965785Y-65015505D01*
X169965785Y-65015505D02*
X170132452Y-65015505D01*
X170132452Y-65015505D02*
X170199118Y-64982172D01*
X170632451Y-65282172D02*
X170565785Y-65248839D01*
X170565785Y-65248839D02*
X170532451Y-65182172D01*
X170532451Y-65182172D02*
X170532451Y-64582172D01*
X170799118Y-64815505D02*
X171065785Y-64815505D01*
X170899118Y-64582172D02*
X170899118Y-65182172D01*
X170899118Y-65182172D02*
X170932452Y-65248839D01*
X170932452Y-65248839D02*
X170999118Y-65282172D01*
X170999118Y-65282172D02*
X171065785Y-65282172D01*
X171599118Y-65282172D02*
X171599118Y-64915505D01*
X171599118Y-64915505D02*
X171565785Y-64848839D01*
X171565785Y-64848839D02*
X171499118Y-64815505D01*
X171499118Y-64815505D02*
X171365785Y-64815505D01*
X171365785Y-64815505D02*
X171299118Y-64848839D01*
X171599118Y-65248839D02*
X171532452Y-65282172D01*
X171532452Y-65282172D02*
X171365785Y-65282172D01*
X171365785Y-65282172D02*
X171299118Y-65248839D01*
X171299118Y-65248839D02*
X171265785Y-65182172D01*
X171265785Y-65182172D02*
X171265785Y-65115505D01*
X171265785Y-65115505D02*
X171299118Y-65048839D01*
X171299118Y-65048839D02*
X171365785Y-65015505D01*
X171365785Y-65015505D02*
X171532452Y-65015505D01*
X171532452Y-65015505D02*
X171599118Y-64982172D01*
X171899118Y-65248839D02*
X171965785Y-65282172D01*
X171965785Y-65282172D02*
X172099118Y-65282172D01*
X172099118Y-65282172D02*
X172165785Y-65248839D01*
X172165785Y-65248839D02*
X172199118Y-65182172D01*
X172199118Y-65182172D02*
X172199118Y-65148839D01*
X172199118Y-65148839D02*
X172165785Y-65082172D01*
X172165785Y-65082172D02*
X172099118Y-65048839D01*
X172099118Y-65048839D02*
X171999118Y-65048839D01*
X171999118Y-65048839D02*
X171932451Y-65015505D01*
X171932451Y-65015505D02*
X171899118Y-64948839D01*
X171899118Y-64948839D02*
X171899118Y-64915505D01*
X171899118Y-64915505D02*
X171932451Y-64848839D01*
X171932451Y-64848839D02*
X171999118Y-64815505D01*
X171999118Y-64815505D02*
X172099118Y-64815505D01*
X172099118Y-64815505D02*
X172165785Y-64848839D01*
X172799118Y-65282172D02*
X172799118Y-64915505D01*
X172799118Y-64915505D02*
X172765785Y-64848839D01*
X172765785Y-64848839D02*
X172699118Y-64815505D01*
X172699118Y-64815505D02*
X172565785Y-64815505D01*
X172565785Y-64815505D02*
X172499118Y-64848839D01*
X172799118Y-65248839D02*
X172732452Y-65282172D01*
X172732452Y-65282172D02*
X172565785Y-65282172D01*
X172565785Y-65282172D02*
X172499118Y-65248839D01*
X172499118Y-65248839D02*
X172465785Y-65182172D01*
X172465785Y-65182172D02*
X172465785Y-65115505D01*
X172465785Y-65115505D02*
X172499118Y-65048839D01*
X172499118Y-65048839D02*
X172565785Y-65015505D01*
X172565785Y-65015505D02*
X172732452Y-65015505D01*
X172732452Y-65015505D02*
X172799118Y-64982172D01*
X173132451Y-65282172D02*
X173132451Y-64815505D01*
X173132451Y-64948839D02*
X173165785Y-64882172D01*
X173165785Y-64882172D02*
X173199118Y-64848839D01*
X173199118Y-64848839D02*
X173265785Y-64815505D01*
X173265785Y-64815505D02*
X173332451Y-64815505D01*
X157599122Y-66375800D02*
X157699122Y-66409133D01*
X157699122Y-66409133D02*
X157865789Y-66409133D01*
X157865789Y-66409133D02*
X157932455Y-66375800D01*
X157932455Y-66375800D02*
X157965789Y-66342466D01*
X157965789Y-66342466D02*
X157999122Y-66275800D01*
X157999122Y-66275800D02*
X157999122Y-66209133D01*
X157999122Y-66209133D02*
X157965789Y-66142466D01*
X157965789Y-66142466D02*
X157932455Y-66109133D01*
X157932455Y-66109133D02*
X157865789Y-66075800D01*
X157865789Y-66075800D02*
X157732455Y-66042466D01*
X157732455Y-66042466D02*
X157665789Y-66009133D01*
X157665789Y-66009133D02*
X157632455Y-65975800D01*
X157632455Y-65975800D02*
X157599122Y-65909133D01*
X157599122Y-65909133D02*
X157599122Y-65842466D01*
X157599122Y-65842466D02*
X157632455Y-65775800D01*
X157632455Y-65775800D02*
X157665789Y-65742466D01*
X157665789Y-65742466D02*
X157732455Y-65709133D01*
X157732455Y-65709133D02*
X157899122Y-65709133D01*
X157899122Y-65709133D02*
X157999122Y-65742466D01*
X158199122Y-65942466D02*
X158465789Y-65942466D01*
X158299122Y-65709133D02*
X158299122Y-66309133D01*
X158299122Y-66309133D02*
X158332456Y-66375800D01*
X158332456Y-66375800D02*
X158399122Y-66409133D01*
X158399122Y-66409133D02*
X158465789Y-66409133D01*
X158965789Y-66375800D02*
X158899122Y-66409133D01*
X158899122Y-66409133D02*
X158765789Y-66409133D01*
X158765789Y-66409133D02*
X158699122Y-66375800D01*
X158699122Y-66375800D02*
X158665789Y-66309133D01*
X158665789Y-66309133D02*
X158665789Y-66042466D01*
X158665789Y-66042466D02*
X158699122Y-65975800D01*
X158699122Y-65975800D02*
X158765789Y-65942466D01*
X158765789Y-65942466D02*
X158899122Y-65942466D01*
X158899122Y-65942466D02*
X158965789Y-65975800D01*
X158965789Y-65975800D02*
X158999122Y-66042466D01*
X158999122Y-66042466D02*
X158999122Y-66109133D01*
X158999122Y-66109133D02*
X158665789Y-66175800D01*
X159199122Y-65942466D02*
X159465789Y-65942466D01*
X159299122Y-66409133D02*
X159299122Y-65809133D01*
X159299122Y-65809133D02*
X159332456Y-65742466D01*
X159332456Y-65742466D02*
X159399122Y-65709133D01*
X159399122Y-65709133D02*
X159465789Y-65709133D01*
X159799122Y-66409133D02*
X159732456Y-66375800D01*
X159732456Y-66375800D02*
X159699122Y-66342466D01*
X159699122Y-66342466D02*
X159665789Y-66275800D01*
X159665789Y-66275800D02*
X159665789Y-66075800D01*
X159665789Y-66075800D02*
X159699122Y-66009133D01*
X159699122Y-66009133D02*
X159732456Y-65975800D01*
X159732456Y-65975800D02*
X159799122Y-65942466D01*
X159799122Y-65942466D02*
X159899122Y-65942466D01*
X159899122Y-65942466D02*
X159965789Y-65975800D01*
X159965789Y-65975800D02*
X159999122Y-66009133D01*
X159999122Y-66009133D02*
X160032456Y-66075800D01*
X160032456Y-66075800D02*
X160032456Y-66275800D01*
X160032456Y-66275800D02*
X159999122Y-66342466D01*
X159999122Y-66342466D02*
X159965789Y-66375800D01*
X159965789Y-66375800D02*
X159899122Y-66409133D01*
X159899122Y-66409133D02*
X159799122Y-66409133D01*
X160332455Y-65942466D02*
X160332455Y-66409133D01*
X160332455Y-66009133D02*
X160365789Y-65975800D01*
X160365789Y-65975800D02*
X160432455Y-65942466D01*
X160432455Y-65942466D02*
X160532455Y-65942466D01*
X160532455Y-65942466D02*
X160599122Y-65975800D01*
X160599122Y-65975800D02*
X160632455Y-66042466D01*
X160632455Y-66042466D02*
X160632455Y-66409133D01*
X160965788Y-66409133D02*
X160965788Y-65942466D01*
X160965788Y-65709133D02*
X160932455Y-65742466D01*
X160932455Y-65742466D02*
X160965788Y-65775800D01*
X160965788Y-65775800D02*
X160999122Y-65742466D01*
X160999122Y-65742466D02*
X160965788Y-65709133D01*
X160965788Y-65709133D02*
X160965788Y-65775800D01*
X162232454Y-66409133D02*
X161999121Y-66075800D01*
X161832454Y-66409133D02*
X161832454Y-65709133D01*
X161832454Y-65709133D02*
X162099121Y-65709133D01*
X162099121Y-65709133D02*
X162165788Y-65742466D01*
X162165788Y-65742466D02*
X162199121Y-65775800D01*
X162199121Y-65775800D02*
X162232454Y-65842466D01*
X162232454Y-65842466D02*
X162232454Y-65942466D01*
X162232454Y-65942466D02*
X162199121Y-66009133D01*
X162199121Y-66009133D02*
X162165788Y-66042466D01*
X162165788Y-66042466D02*
X162099121Y-66075800D01*
X162099121Y-66075800D02*
X161832454Y-66075800D01*
X162799121Y-66375800D02*
X162732454Y-66409133D01*
X162732454Y-66409133D02*
X162599121Y-66409133D01*
X162599121Y-66409133D02*
X162532454Y-66375800D01*
X162532454Y-66375800D02*
X162499121Y-66309133D01*
X162499121Y-66309133D02*
X162499121Y-66042466D01*
X162499121Y-66042466D02*
X162532454Y-65975800D01*
X162532454Y-65975800D02*
X162599121Y-65942466D01*
X162599121Y-65942466D02*
X162732454Y-65942466D01*
X162732454Y-65942466D02*
X162799121Y-65975800D01*
X162799121Y-65975800D02*
X162832454Y-66042466D01*
X162832454Y-66042466D02*
X162832454Y-66109133D01*
X162832454Y-66109133D02*
X162499121Y-66175800D01*
X163065788Y-65942466D02*
X163232454Y-66409133D01*
X163399121Y-65942466D02*
X163232454Y-66409133D01*
X163232454Y-66409133D02*
X163165788Y-66575800D01*
X163165788Y-66575800D02*
X163132454Y-66609133D01*
X163132454Y-66609133D02*
X163065788Y-66642466D01*
X164199120Y-66409133D02*
X164199120Y-65709133D01*
X164532453Y-66409133D02*
X164532453Y-65942466D01*
X164532453Y-66075800D02*
X164565787Y-66009133D01*
X164565787Y-66009133D02*
X164599120Y-65975800D01*
X164599120Y-65975800D02*
X164665787Y-65942466D01*
X164665787Y-65942466D02*
X164732453Y-65942466D01*
X165265786Y-66409133D02*
X165265786Y-66042466D01*
X165265786Y-66042466D02*
X165232453Y-65975800D01*
X165232453Y-65975800D02*
X165165786Y-65942466D01*
X165165786Y-65942466D02*
X165032453Y-65942466D01*
X165032453Y-65942466D02*
X164965786Y-65975800D01*
X165265786Y-66375800D02*
X165199120Y-66409133D01*
X165199120Y-66409133D02*
X165032453Y-66409133D01*
X165032453Y-66409133D02*
X164965786Y-66375800D01*
X164965786Y-66375800D02*
X164932453Y-66309133D01*
X164932453Y-66309133D02*
X164932453Y-66242466D01*
X164932453Y-66242466D02*
X164965786Y-66175800D01*
X164965786Y-66175800D02*
X165032453Y-66142466D01*
X165032453Y-66142466D02*
X165199120Y-66142466D01*
X165199120Y-66142466D02*
X165265786Y-66109133D01*
X165699119Y-66409133D02*
X165632453Y-66375800D01*
X165632453Y-66375800D02*
X165599119Y-66342466D01*
X165599119Y-66342466D02*
X165565786Y-66275800D01*
X165565786Y-66275800D02*
X165565786Y-66075800D01*
X165565786Y-66075800D02*
X165599119Y-66009133D01*
X165599119Y-66009133D02*
X165632453Y-65975800D01*
X165632453Y-65975800D02*
X165699119Y-65942466D01*
X165699119Y-65942466D02*
X165799119Y-65942466D01*
X165799119Y-65942466D02*
X165865786Y-65975800D01*
X165865786Y-65975800D02*
X165899119Y-66009133D01*
X165899119Y-66009133D02*
X165932453Y-66075800D01*
X165932453Y-66075800D02*
X165932453Y-66275800D01*
X165932453Y-66275800D02*
X165899119Y-66342466D01*
X165899119Y-66342466D02*
X165865786Y-66375800D01*
X165865786Y-66375800D02*
X165799119Y-66409133D01*
X165799119Y-66409133D02*
X165699119Y-66409133D01*
X166332452Y-66409133D02*
X166265786Y-66375800D01*
X166265786Y-66375800D02*
X166232452Y-66309133D01*
X166232452Y-66309133D02*
X166232452Y-65709133D01*
X166899119Y-66409133D02*
X166899119Y-66042466D01*
X166899119Y-66042466D02*
X166865786Y-65975800D01*
X166865786Y-65975800D02*
X166799119Y-65942466D01*
X166799119Y-65942466D02*
X166665786Y-65942466D01*
X166665786Y-65942466D02*
X166599119Y-65975800D01*
X166899119Y-66375800D02*
X166832453Y-66409133D01*
X166832453Y-66409133D02*
X166665786Y-66409133D01*
X166665786Y-66409133D02*
X166599119Y-66375800D01*
X166599119Y-66375800D02*
X166565786Y-66309133D01*
X166565786Y-66309133D02*
X166565786Y-66242466D01*
X166565786Y-66242466D02*
X166599119Y-66175800D01*
X166599119Y-66175800D02*
X166665786Y-66142466D01*
X166665786Y-66142466D02*
X166832453Y-66142466D01*
X166832453Y-66142466D02*
X166899119Y-66109133D01*
X167265786Y-66375800D02*
X167265786Y-66409133D01*
X167265786Y-66409133D02*
X167232452Y-66475800D01*
X167232452Y-66475800D02*
X167199119Y-66509133D01*
X168099118Y-66409133D02*
X168099118Y-65709133D01*
X168099118Y-65709133D02*
X168365785Y-65709133D01*
X168365785Y-65709133D02*
X168432452Y-65742466D01*
X168432452Y-65742466D02*
X168465785Y-65775800D01*
X168465785Y-65775800D02*
X168499118Y-65842466D01*
X168499118Y-65842466D02*
X168499118Y-65942466D01*
X168499118Y-65942466D02*
X168465785Y-66009133D01*
X168465785Y-66009133D02*
X168432452Y-66042466D01*
X168432452Y-66042466D02*
X168365785Y-66075800D01*
X168365785Y-66075800D02*
X168099118Y-66075800D01*
X169065785Y-66375800D02*
X168999118Y-66409133D01*
X168999118Y-66409133D02*
X168865785Y-66409133D01*
X168865785Y-66409133D02*
X168799118Y-66375800D01*
X168799118Y-66375800D02*
X168765785Y-66309133D01*
X168765785Y-66309133D02*
X168765785Y-66042466D01*
X168765785Y-66042466D02*
X168799118Y-65975800D01*
X168799118Y-65975800D02*
X168865785Y-65942466D01*
X168865785Y-65942466D02*
X168999118Y-65942466D01*
X168999118Y-65942466D02*
X169065785Y-65975800D01*
X169065785Y-65975800D02*
X169099118Y-66042466D01*
X169099118Y-66042466D02*
X169099118Y-66109133D01*
X169099118Y-66109133D02*
X168765785Y-66175800D01*
X169699118Y-66409133D02*
X169699118Y-65709133D01*
X169699118Y-66375800D02*
X169632452Y-66409133D01*
X169632452Y-66409133D02*
X169499118Y-66409133D01*
X169499118Y-66409133D02*
X169432452Y-66375800D01*
X169432452Y-66375800D02*
X169399118Y-66342466D01*
X169399118Y-66342466D02*
X169365785Y-66275800D01*
X169365785Y-66275800D02*
X169365785Y-66075800D01*
X169365785Y-66075800D02*
X169399118Y-66009133D01*
X169399118Y-66009133D02*
X169432452Y-65975800D01*
X169432452Y-65975800D02*
X169499118Y-65942466D01*
X169499118Y-65942466D02*
X169632452Y-65942466D01*
X169632452Y-65942466D02*
X169699118Y-65975800D01*
X170032451Y-66409133D02*
X170032451Y-65942466D01*
X170032451Y-66075800D02*
X170065785Y-66009133D01*
X170065785Y-66009133D02*
X170099118Y-65975800D01*
X170099118Y-65975800D02*
X170165785Y-65942466D01*
X170165785Y-65942466D02*
X170232451Y-65942466D01*
X170565784Y-66409133D02*
X170499118Y-66375800D01*
X170499118Y-66375800D02*
X170465784Y-66342466D01*
X170465784Y-66342466D02*
X170432451Y-66275800D01*
X170432451Y-66275800D02*
X170432451Y-66075800D01*
X170432451Y-66075800D02*
X170465784Y-66009133D01*
X170465784Y-66009133D02*
X170499118Y-65975800D01*
X170499118Y-65975800D02*
X170565784Y-65942466D01*
X170565784Y-65942466D02*
X170665784Y-65942466D01*
X170665784Y-65942466D02*
X170732451Y-65975800D01*
X170732451Y-65975800D02*
X170765784Y-66009133D01*
X170765784Y-66009133D02*
X170799118Y-66075800D01*
X170799118Y-66075800D02*
X170799118Y-66275800D01*
X170799118Y-66275800D02*
X170765784Y-66342466D01*
X170765784Y-66342466D02*
X170732451Y-66375800D01*
X170732451Y-66375800D02*
X170665784Y-66409133D01*
X170665784Y-66409133D02*
X170565784Y-66409133D01*
D11*
X214648464Y-67671900D02*
X214748464Y-67705233D01*
X214748464Y-67705233D02*
X214915131Y-67705233D01*
X214915131Y-67705233D02*
X214981797Y-67671900D01*
X214981797Y-67671900D02*
X215015131Y-67638566D01*
X215015131Y-67638566D02*
X215048464Y-67571900D01*
X215048464Y-67571900D02*
X215048464Y-67505233D01*
X215048464Y-67505233D02*
X215015131Y-67438566D01*
X215015131Y-67438566D02*
X214981797Y-67405233D01*
X214981797Y-67405233D02*
X214915131Y-67371900D01*
X214915131Y-67371900D02*
X214781797Y-67338566D01*
X214781797Y-67338566D02*
X214715131Y-67305233D01*
X214715131Y-67305233D02*
X214681797Y-67271900D01*
X214681797Y-67271900D02*
X214648464Y-67205233D01*
X214648464Y-67205233D02*
X214648464Y-67138566D01*
X214648464Y-67138566D02*
X214681797Y-67071900D01*
X214681797Y-67071900D02*
X214715131Y-67038566D01*
X214715131Y-67038566D02*
X214781797Y-67005233D01*
X214781797Y-67005233D02*
X214948464Y-67005233D01*
X214948464Y-67005233D02*
X215048464Y-67038566D01*
X215281798Y-67005233D02*
X215448464Y-67705233D01*
X215448464Y-67705233D02*
X215581798Y-67205233D01*
X215581798Y-67205233D02*
X215715131Y-67705233D01*
X215715131Y-67705233D02*
X215881798Y-67005233D01*
X216148464Y-67705233D02*
X216148464Y-67005233D01*
X216381797Y-67005233D02*
X216781797Y-67005233D01*
X216581797Y-67705233D02*
X216581797Y-67005233D01*
X217415130Y-67638566D02*
X217381797Y-67671900D01*
X217381797Y-67671900D02*
X217281797Y-67705233D01*
X217281797Y-67705233D02*
X217215130Y-67705233D01*
X217215130Y-67705233D02*
X217115130Y-67671900D01*
X217115130Y-67671900D02*
X217048464Y-67605233D01*
X217048464Y-67605233D02*
X217015130Y-67538566D01*
X217015130Y-67538566D02*
X216981797Y-67405233D01*
X216981797Y-67405233D02*
X216981797Y-67305233D01*
X216981797Y-67305233D02*
X217015130Y-67171900D01*
X217015130Y-67171900D02*
X217048464Y-67105233D01*
X217048464Y-67105233D02*
X217115130Y-67038566D01*
X217115130Y-67038566D02*
X217215130Y-67005233D01*
X217215130Y-67005233D02*
X217281797Y-67005233D01*
X217281797Y-67005233D02*
X217381797Y-67038566D01*
X217381797Y-67038566D02*
X217415130Y-67071900D01*
X217715130Y-67705233D02*
X217715130Y-67005233D01*
X217715130Y-67338566D02*
X218115130Y-67338566D01*
X218115130Y-67705233D02*
X218115130Y-67005233D01*
X219348463Y-67705233D02*
X218948463Y-67705233D01*
X219148463Y-67705233D02*
X219148463Y-67005233D01*
X219148463Y-67005233D02*
X219081796Y-67105233D01*
X219081796Y-67105233D02*
X219015130Y-67171900D01*
X219015130Y-67171900D02*
X218948463Y-67205233D01*
D12*
X213156590Y-78003006D02*
X213156590Y-77669673D01*
X212632780Y-77669673D02*
X213632780Y-77669673D01*
X213632780Y-77669673D02*
X213632780Y-78145863D01*
X212632780Y-79003006D02*
X212632780Y-78526816D01*
X212632780Y-78526816D02*
X213632780Y-78526816D01*
X212918495Y-79288721D02*
X212918495Y-79764911D01*
X212632780Y-79193483D02*
X213632780Y-79526816D01*
X213632780Y-79526816D02*
X212632780Y-79860149D01*
X212680400Y-80145864D02*
X212632780Y-80288721D01*
X212632780Y-80288721D02*
X212632780Y-80526816D01*
X212632780Y-80526816D02*
X212680400Y-80622054D01*
X212680400Y-80622054D02*
X212728019Y-80669673D01*
X212728019Y-80669673D02*
X212823257Y-80717292D01*
X212823257Y-80717292D02*
X212918495Y-80717292D01*
X212918495Y-80717292D02*
X213013733Y-80669673D01*
X213013733Y-80669673D02*
X213061352Y-80622054D01*
X213061352Y-80622054D02*
X213108971Y-80526816D01*
X213108971Y-80526816D02*
X213156590Y-80336340D01*
X213156590Y-80336340D02*
X213204209Y-80241102D01*
X213204209Y-80241102D02*
X213251828Y-80193483D01*
X213251828Y-80193483D02*
X213347066Y-80145864D01*
X213347066Y-80145864D02*
X213442304Y-80145864D01*
X213442304Y-80145864D02*
X213537542Y-80193483D01*
X213537542Y-80193483D02*
X213585161Y-80241102D01*
X213585161Y-80241102D02*
X213632780Y-80336340D01*
X213632780Y-80336340D02*
X213632780Y-80574435D01*
X213632780Y-80574435D02*
X213585161Y-80717292D01*
X212632780Y-81145864D02*
X213632780Y-81145864D01*
X213156590Y-81145864D02*
X213156590Y-81717292D01*
X212632780Y-81717292D02*
X213632780Y-81717292D01*
D11*
X168018201Y-71378272D02*
X168018201Y-70678272D01*
X168018201Y-70678272D02*
X168251535Y-71178272D01*
X168251535Y-71178272D02*
X168484868Y-70678272D01*
X168484868Y-70678272D02*
X168484868Y-71378272D01*
X168784868Y-71178272D02*
X169118201Y-71178272D01*
X168718201Y-71378272D02*
X168951535Y-70678272D01*
X168951535Y-70678272D02*
X169184868Y-71378272D01*
X169351535Y-70678272D02*
X169818201Y-71378272D01*
X169818201Y-70678272D02*
X169351535Y-71378272D01*
X170618201Y-71378272D02*
X170618201Y-70678272D01*
X170618201Y-70678272D02*
X170851535Y-71178272D01*
X170851535Y-71178272D02*
X171084868Y-70678272D01*
X171084868Y-70678272D02*
X171084868Y-71378272D01*
X171784868Y-71378272D02*
X171384868Y-71378272D01*
X171584868Y-71378272D02*
X171584868Y-70678272D01*
X171584868Y-70678272D02*
X171518201Y-70778272D01*
X171518201Y-70778272D02*
X171451535Y-70844939D01*
X171451535Y-70844939D02*
X171384868Y-70878272D01*
X172218202Y-70678272D02*
X172284868Y-70678272D01*
X172284868Y-70678272D02*
X172351535Y-70711605D01*
X172351535Y-70711605D02*
X172384868Y-70744939D01*
X172384868Y-70744939D02*
X172418202Y-70811605D01*
X172418202Y-70811605D02*
X172451535Y-70944939D01*
X172451535Y-70944939D02*
X172451535Y-71111605D01*
X172451535Y-71111605D02*
X172418202Y-71244939D01*
X172418202Y-71244939D02*
X172384868Y-71311605D01*
X172384868Y-71311605D02*
X172351535Y-71344939D01*
X172351535Y-71344939D02*
X172284868Y-71378272D01*
X172284868Y-71378272D02*
X172218202Y-71378272D01*
X172218202Y-71378272D02*
X172151535Y-71344939D01*
X172151535Y-71344939D02*
X172118202Y-71311605D01*
X172118202Y-71311605D02*
X172084868Y-71244939D01*
X172084868Y-71244939D02*
X172051535Y-71111605D01*
X172051535Y-71111605D02*
X172051535Y-70944939D01*
X172051535Y-70944939D02*
X172084868Y-70811605D01*
X172084868Y-70811605D02*
X172118202Y-70744939D01*
X172118202Y-70744939D02*
X172151535Y-70711605D01*
X172151535Y-70711605D02*
X172218202Y-70678272D01*
X172751535Y-71378272D02*
X172751535Y-70678272D01*
X172751535Y-70678272D02*
X172984869Y-71178272D01*
X172984869Y-71178272D02*
X173218202Y-70678272D01*
X173218202Y-70678272D02*
X173218202Y-71378272D01*
X171851535Y-71838566D02*
X171784868Y-71805233D01*
X171784868Y-71805233D02*
X171684868Y-71805233D01*
X171684868Y-71805233D02*
X171584868Y-71838566D01*
X171584868Y-71838566D02*
X171518202Y-71905233D01*
X171518202Y-71905233D02*
X171484868Y-71971900D01*
X171484868Y-71971900D02*
X171451535Y-72105233D01*
X171451535Y-72105233D02*
X171451535Y-72205233D01*
X171451535Y-72205233D02*
X171484868Y-72338566D01*
X171484868Y-72338566D02*
X171518202Y-72405233D01*
X171518202Y-72405233D02*
X171584868Y-72471900D01*
X171584868Y-72471900D02*
X171684868Y-72505233D01*
X171684868Y-72505233D02*
X171751535Y-72505233D01*
X171751535Y-72505233D02*
X171851535Y-72471900D01*
X171851535Y-72471900D02*
X171884868Y-72438566D01*
X171884868Y-72438566D02*
X171884868Y-72205233D01*
X171884868Y-72205233D02*
X171751535Y-72205233D01*
X172184868Y-72505233D02*
X172184868Y-71805233D01*
X172184868Y-71805233D02*
X172451535Y-71805233D01*
X172451535Y-71805233D02*
X172518202Y-71838566D01*
X172518202Y-71838566D02*
X172551535Y-71871900D01*
X172551535Y-71871900D02*
X172584868Y-71938566D01*
X172584868Y-71938566D02*
X172584868Y-72038566D01*
X172584868Y-72038566D02*
X172551535Y-72105233D01*
X172551535Y-72105233D02*
X172518202Y-72138566D01*
X172518202Y-72138566D02*
X172451535Y-72171900D01*
X172451535Y-72171900D02*
X172184868Y-72171900D01*
X172851535Y-72471900D02*
X172951535Y-72505233D01*
X172951535Y-72505233D02*
X173118202Y-72505233D01*
X173118202Y-72505233D02*
X173184868Y-72471900D01*
X173184868Y-72471900D02*
X173218202Y-72438566D01*
X173218202Y-72438566D02*
X173251535Y-72371900D01*
X173251535Y-72371900D02*
X173251535Y-72305233D01*
X173251535Y-72305233D02*
X173218202Y-72238566D01*
X173218202Y-72238566D02*
X173184868Y-72205233D01*
X173184868Y-72205233D02*
X173118202Y-72171900D01*
X173118202Y-72171900D02*
X172984868Y-72138566D01*
X172984868Y-72138566D02*
X172918202Y-72105233D01*
X172918202Y-72105233D02*
X172884868Y-72071900D01*
X172884868Y-72071900D02*
X172851535Y-72005233D01*
X172851535Y-72005233D02*
X172851535Y-71938566D01*
X172851535Y-71938566D02*
X172884868Y-71871900D01*
X172884868Y-71871900D02*
X172918202Y-71838566D01*
X172918202Y-71838566D02*
X172984868Y-71805233D01*
X172984868Y-71805233D02*
X173151535Y-71805233D01*
X173151535Y-71805233D02*
X173251535Y-71838566D01*
D13*
X203751878Y-96232309D02*
X203513783Y-96232309D01*
X203513783Y-96232309D02*
X203513783Y-95732309D01*
X203918545Y-95970404D02*
X204085212Y-95970404D01*
X204156640Y-96232309D02*
X203918545Y-96232309D01*
X203918545Y-96232309D02*
X203918545Y-95732309D01*
X203918545Y-95732309D02*
X204156640Y-95732309D01*
X204370926Y-96232309D02*
X204370926Y-95732309D01*
X204370926Y-95732309D02*
X204489974Y-95732309D01*
X204489974Y-95732309D02*
X204561402Y-95756119D01*
X204561402Y-95756119D02*
X204609021Y-95803738D01*
X204609021Y-95803738D02*
X204632831Y-95851357D01*
X204632831Y-95851357D02*
X204656640Y-95946595D01*
X204656640Y-95946595D02*
X204656640Y-96018023D01*
X204656640Y-96018023D02*
X204632831Y-96113261D01*
X204632831Y-96113261D02*
X204609021Y-96160880D01*
X204609021Y-96160880D02*
X204561402Y-96208500D01*
X204561402Y-96208500D02*
X204489974Y-96232309D01*
X204489974Y-96232309D02*
X204370926Y-96232309D01*
X204847117Y-95779928D02*
X204870926Y-95756119D01*
X204870926Y-95756119D02*
X204918545Y-95732309D01*
X204918545Y-95732309D02*
X205037593Y-95732309D01*
X205037593Y-95732309D02*
X205085212Y-95756119D01*
X205085212Y-95756119D02*
X205109021Y-95779928D01*
X205109021Y-95779928D02*
X205132831Y-95827547D01*
X205132831Y-95827547D02*
X205132831Y-95875166D01*
X205132831Y-95875166D02*
X205109021Y-95946595D01*
X205109021Y-95946595D02*
X204823307Y-96232309D01*
X204823307Y-96232309D02*
X205132831Y-96232309D01*
X191677474Y-91108500D02*
X191748902Y-91132309D01*
X191748902Y-91132309D02*
X191867950Y-91132309D01*
X191867950Y-91132309D02*
X191915569Y-91108500D01*
X191915569Y-91108500D02*
X191939378Y-91084690D01*
X191939378Y-91084690D02*
X191963188Y-91037071D01*
X191963188Y-91037071D02*
X191963188Y-90989452D01*
X191963188Y-90989452D02*
X191939378Y-90941833D01*
X191939378Y-90941833D02*
X191915569Y-90918023D01*
X191915569Y-90918023D02*
X191867950Y-90894214D01*
X191867950Y-90894214D02*
X191772712Y-90870404D01*
X191772712Y-90870404D02*
X191725093Y-90846595D01*
X191725093Y-90846595D02*
X191701283Y-90822785D01*
X191701283Y-90822785D02*
X191677474Y-90775166D01*
X191677474Y-90775166D02*
X191677474Y-90727547D01*
X191677474Y-90727547D02*
X191701283Y-90679928D01*
X191701283Y-90679928D02*
X191725093Y-90656119D01*
X191725093Y-90656119D02*
X191772712Y-90632309D01*
X191772712Y-90632309D02*
X191891759Y-90632309D01*
X191891759Y-90632309D02*
X191963188Y-90656119D01*
X192129854Y-90632309D02*
X192248902Y-91132309D01*
X192248902Y-91132309D02*
X192344140Y-90775166D01*
X192344140Y-90775166D02*
X192439378Y-91132309D01*
X192439378Y-91132309D02*
X192558426Y-90632309D01*
X192748902Y-91132309D02*
X192748902Y-90632309D01*
X192915569Y-90632309D02*
X193201283Y-90632309D01*
X193058426Y-91132309D02*
X193058426Y-90632309D01*
X193653663Y-91084690D02*
X193629854Y-91108500D01*
X193629854Y-91108500D02*
X193558425Y-91132309D01*
X193558425Y-91132309D02*
X193510806Y-91132309D01*
X193510806Y-91132309D02*
X193439378Y-91108500D01*
X193439378Y-91108500D02*
X193391759Y-91060880D01*
X193391759Y-91060880D02*
X193367949Y-91013261D01*
X193367949Y-91013261D02*
X193344140Y-90918023D01*
X193344140Y-90918023D02*
X193344140Y-90846595D01*
X193344140Y-90846595D02*
X193367949Y-90751357D01*
X193367949Y-90751357D02*
X193391759Y-90703738D01*
X193391759Y-90703738D02*
X193439378Y-90656119D01*
X193439378Y-90656119D02*
X193510806Y-90632309D01*
X193510806Y-90632309D02*
X193558425Y-90632309D01*
X193558425Y-90632309D02*
X193629854Y-90656119D01*
X193629854Y-90656119D02*
X193653663Y-90679928D01*
X193867949Y-91132309D02*
X193867949Y-90632309D01*
X193867949Y-90870404D02*
X194153663Y-90870404D01*
X194153663Y-91132309D02*
X194153663Y-90632309D01*
X194748902Y-90679928D02*
X194772711Y-90656119D01*
X194772711Y-90656119D02*
X194820330Y-90632309D01*
X194820330Y-90632309D02*
X194939378Y-90632309D01*
X194939378Y-90632309D02*
X194986997Y-90656119D01*
X194986997Y-90656119D02*
X195010806Y-90679928D01*
X195010806Y-90679928D02*
X195034616Y-90727547D01*
X195034616Y-90727547D02*
X195034616Y-90775166D01*
X195034616Y-90775166D02*
X195010806Y-90846595D01*
X195010806Y-90846595D02*
X194725092Y-91132309D01*
X194725092Y-91132309D02*
X195034616Y-91132309D01*
X198839378Y-96632309D02*
X198601283Y-96632309D01*
X198601283Y-96632309D02*
X198601283Y-96132309D01*
X199006045Y-96370404D02*
X199172712Y-96370404D01*
X199244140Y-96632309D02*
X199006045Y-96632309D01*
X199006045Y-96632309D02*
X199006045Y-96132309D01*
X199006045Y-96132309D02*
X199244140Y-96132309D01*
X199458426Y-96632309D02*
X199458426Y-96132309D01*
X199458426Y-96132309D02*
X199577474Y-96132309D01*
X199577474Y-96132309D02*
X199648902Y-96156119D01*
X199648902Y-96156119D02*
X199696521Y-96203738D01*
X199696521Y-96203738D02*
X199720331Y-96251357D01*
X199720331Y-96251357D02*
X199744140Y-96346595D01*
X199744140Y-96346595D02*
X199744140Y-96418023D01*
X199744140Y-96418023D02*
X199720331Y-96513261D01*
X199720331Y-96513261D02*
X199696521Y-96560880D01*
X199696521Y-96560880D02*
X199648902Y-96608500D01*
X199648902Y-96608500D02*
X199577474Y-96632309D01*
X199577474Y-96632309D02*
X199458426Y-96632309D01*
X200220331Y-96632309D02*
X199934617Y-96632309D01*
X200077474Y-96632309D02*
X200077474Y-96132309D01*
X200077474Y-96132309D02*
X200029855Y-96203738D01*
X200029855Y-96203738D02*
X199982236Y-96251357D01*
X199982236Y-96251357D02*
X199934617Y-96275166D01*
D14*
X157789160Y-62222200D02*
X157932017Y-62269819D01*
X157932017Y-62269819D02*
X158170112Y-62269819D01*
X158170112Y-62269819D02*
X158265350Y-62222200D01*
X158265350Y-62222200D02*
X158312969Y-62174580D01*
X158312969Y-62174580D02*
X158360588Y-62079342D01*
X158360588Y-62079342D02*
X158360588Y-61984104D01*
X158360588Y-61984104D02*
X158312969Y-61888866D01*
X158312969Y-61888866D02*
X158265350Y-61841247D01*
X158265350Y-61841247D02*
X158170112Y-61793628D01*
X158170112Y-61793628D02*
X157979636Y-61746009D01*
X157979636Y-61746009D02*
X157884398Y-61698390D01*
X157884398Y-61698390D02*
X157836779Y-61650771D01*
X157836779Y-61650771D02*
X157789160Y-61555533D01*
X157789160Y-61555533D02*
X157789160Y-61460295D01*
X157789160Y-61460295D02*
X157836779Y-61365057D01*
X157836779Y-61365057D02*
X157884398Y-61317438D01*
X157884398Y-61317438D02*
X157979636Y-61269819D01*
X157979636Y-61269819D02*
X158217731Y-61269819D01*
X158217731Y-61269819D02*
X158360588Y-61317438D01*
X159360588Y-62269819D02*
X159027255Y-61793628D01*
X158789160Y-62269819D02*
X158789160Y-61269819D01*
X158789160Y-61269819D02*
X159170112Y-61269819D01*
X159170112Y-61269819D02*
X159265350Y-61317438D01*
X159265350Y-61317438D02*
X159312969Y-61365057D01*
X159312969Y-61365057D02*
X159360588Y-61460295D01*
X159360588Y-61460295D02*
X159360588Y-61603152D01*
X159360588Y-61603152D02*
X159312969Y-61698390D01*
X159312969Y-61698390D02*
X159265350Y-61746009D01*
X159265350Y-61746009D02*
X159170112Y-61793628D01*
X159170112Y-61793628D02*
X158789160Y-61793628D01*
X159741541Y-61984104D02*
X160217731Y-61984104D01*
X159646303Y-62269819D02*
X159979636Y-61269819D01*
X159979636Y-61269819D02*
X160312969Y-62269819D01*
X160646303Y-62269819D02*
X160646303Y-61269819D01*
X160646303Y-61269819D02*
X160884398Y-61269819D01*
X160884398Y-61269819D02*
X161027255Y-61317438D01*
X161027255Y-61317438D02*
X161122493Y-61412676D01*
X161122493Y-61412676D02*
X161170112Y-61507914D01*
X161170112Y-61507914D02*
X161217731Y-61698390D01*
X161217731Y-61698390D02*
X161217731Y-61841247D01*
X161217731Y-61841247D02*
X161170112Y-62031723D01*
X161170112Y-62031723D02*
X161122493Y-62126961D01*
X161122493Y-62126961D02*
X161027255Y-62222200D01*
X161027255Y-62222200D02*
X160884398Y-62269819D01*
X160884398Y-62269819D02*
X160646303Y-62269819D01*
X162741541Y-61746009D02*
X162408208Y-61746009D01*
X162408208Y-62269819D02*
X162408208Y-61269819D01*
X162408208Y-61269819D02*
X162884398Y-61269819D01*
X163408208Y-62269819D02*
X163312970Y-62222200D01*
X163312970Y-62222200D02*
X163265351Y-62126961D01*
X163265351Y-62126961D02*
X163265351Y-61269819D01*
X163789161Y-62269819D02*
X163789161Y-61603152D01*
X163789161Y-61269819D02*
X163741542Y-61317438D01*
X163741542Y-61317438D02*
X163789161Y-61365057D01*
X163789161Y-61365057D02*
X163836780Y-61317438D01*
X163836780Y-61317438D02*
X163789161Y-61269819D01*
X163789161Y-61269819D02*
X163789161Y-61365057D01*
X164693922Y-61603152D02*
X164693922Y-62412676D01*
X164693922Y-62412676D02*
X164646303Y-62507914D01*
X164646303Y-62507914D02*
X164598684Y-62555533D01*
X164598684Y-62555533D02*
X164503446Y-62603152D01*
X164503446Y-62603152D02*
X164360589Y-62603152D01*
X164360589Y-62603152D02*
X164265351Y-62555533D01*
X164693922Y-62222200D02*
X164598684Y-62269819D01*
X164598684Y-62269819D02*
X164408208Y-62269819D01*
X164408208Y-62269819D02*
X164312970Y-62222200D01*
X164312970Y-62222200D02*
X164265351Y-62174580D01*
X164265351Y-62174580D02*
X164217732Y-62079342D01*
X164217732Y-62079342D02*
X164217732Y-61793628D01*
X164217732Y-61793628D02*
X164265351Y-61698390D01*
X164265351Y-61698390D02*
X164312970Y-61650771D01*
X164312970Y-61650771D02*
X164408208Y-61603152D01*
X164408208Y-61603152D02*
X164598684Y-61603152D01*
X164598684Y-61603152D02*
X164693922Y-61650771D01*
X165170113Y-62269819D02*
X165170113Y-61269819D01*
X165598684Y-62269819D02*
X165598684Y-61746009D01*
X165598684Y-61746009D02*
X165551065Y-61650771D01*
X165551065Y-61650771D02*
X165455827Y-61603152D01*
X165455827Y-61603152D02*
X165312970Y-61603152D01*
X165312970Y-61603152D02*
X165217732Y-61650771D01*
X165217732Y-61650771D02*
X165170113Y-61698390D01*
X165932018Y-61603152D02*
X166312970Y-61603152D01*
X166074875Y-61269819D02*
X166074875Y-62126961D01*
X166074875Y-62126961D02*
X166122494Y-62222200D01*
X166122494Y-62222200D02*
X166217732Y-62269819D01*
X166217732Y-62269819D02*
X166312970Y-62269819D01*
X167979637Y-62174580D02*
X167932018Y-62222200D01*
X167932018Y-62222200D02*
X167789161Y-62269819D01*
X167789161Y-62269819D02*
X167693923Y-62269819D01*
X167693923Y-62269819D02*
X167551066Y-62222200D01*
X167551066Y-62222200D02*
X167455828Y-62126961D01*
X167455828Y-62126961D02*
X167408209Y-62031723D01*
X167408209Y-62031723D02*
X167360590Y-61841247D01*
X167360590Y-61841247D02*
X167360590Y-61698390D01*
X167360590Y-61698390D02*
X167408209Y-61507914D01*
X167408209Y-61507914D02*
X167455828Y-61412676D01*
X167455828Y-61412676D02*
X167551066Y-61317438D01*
X167551066Y-61317438D02*
X167693923Y-61269819D01*
X167693923Y-61269819D02*
X167789161Y-61269819D01*
X167789161Y-61269819D02*
X167932018Y-61317438D01*
X167932018Y-61317438D02*
X167979637Y-61365057D01*
X168551066Y-62269819D02*
X168455828Y-62222200D01*
X168455828Y-62222200D02*
X168408209Y-62174580D01*
X168408209Y-62174580D02*
X168360590Y-62079342D01*
X168360590Y-62079342D02*
X168360590Y-61793628D01*
X168360590Y-61793628D02*
X168408209Y-61698390D01*
X168408209Y-61698390D02*
X168455828Y-61650771D01*
X168455828Y-61650771D02*
X168551066Y-61603152D01*
X168551066Y-61603152D02*
X168693923Y-61603152D01*
X168693923Y-61603152D02*
X168789161Y-61650771D01*
X168789161Y-61650771D02*
X168836780Y-61698390D01*
X168836780Y-61698390D02*
X168884399Y-61793628D01*
X168884399Y-61793628D02*
X168884399Y-62079342D01*
X168884399Y-62079342D02*
X168836780Y-62174580D01*
X168836780Y-62174580D02*
X168789161Y-62222200D01*
X168789161Y-62222200D02*
X168693923Y-62269819D01*
X168693923Y-62269819D02*
X168551066Y-62269819D01*
X169312971Y-62269819D02*
X169312971Y-61603152D01*
X169312971Y-61698390D02*
X169360590Y-61650771D01*
X169360590Y-61650771D02*
X169455828Y-61603152D01*
X169455828Y-61603152D02*
X169598685Y-61603152D01*
X169598685Y-61603152D02*
X169693923Y-61650771D01*
X169693923Y-61650771D02*
X169741542Y-61746009D01*
X169741542Y-61746009D02*
X169741542Y-62269819D01*
X169741542Y-61746009D02*
X169789161Y-61650771D01*
X169789161Y-61650771D02*
X169884399Y-61603152D01*
X169884399Y-61603152D02*
X170027256Y-61603152D01*
X170027256Y-61603152D02*
X170122495Y-61650771D01*
X170122495Y-61650771D02*
X170170114Y-61746009D01*
X170170114Y-61746009D02*
X170170114Y-62269819D01*
X170646304Y-61603152D02*
X170646304Y-62603152D01*
X170646304Y-61650771D02*
X170741542Y-61603152D01*
X170741542Y-61603152D02*
X170932018Y-61603152D01*
X170932018Y-61603152D02*
X171027256Y-61650771D01*
X171027256Y-61650771D02*
X171074875Y-61698390D01*
X171074875Y-61698390D02*
X171122494Y-61793628D01*
X171122494Y-61793628D02*
X171122494Y-62079342D01*
X171122494Y-62079342D02*
X171074875Y-62174580D01*
X171074875Y-62174580D02*
X171027256Y-62222200D01*
X171027256Y-62222200D02*
X170932018Y-62269819D01*
X170932018Y-62269819D02*
X170741542Y-62269819D01*
X170741542Y-62269819D02*
X170646304Y-62222200D01*
X171979637Y-61603152D02*
X171979637Y-62269819D01*
X171551066Y-61603152D02*
X171551066Y-62126961D01*
X171551066Y-62126961D02*
X171598685Y-62222200D01*
X171598685Y-62222200D02*
X171693923Y-62269819D01*
X171693923Y-62269819D02*
X171836780Y-62269819D01*
X171836780Y-62269819D02*
X171932018Y-62222200D01*
X171932018Y-62222200D02*
X171979637Y-62174580D01*
X172312971Y-61603152D02*
X172693923Y-61603152D01*
X172455828Y-61269819D02*
X172455828Y-62126961D01*
X172455828Y-62126961D02*
X172503447Y-62222200D01*
X172503447Y-62222200D02*
X172598685Y-62269819D01*
X172598685Y-62269819D02*
X172693923Y-62269819D01*
X173408209Y-62222200D02*
X173312971Y-62269819D01*
X173312971Y-62269819D02*
X173122495Y-62269819D01*
X173122495Y-62269819D02*
X173027257Y-62222200D01*
X173027257Y-62222200D02*
X172979638Y-62126961D01*
X172979638Y-62126961D02*
X172979638Y-61746009D01*
X172979638Y-61746009D02*
X173027257Y-61650771D01*
X173027257Y-61650771D02*
X173122495Y-61603152D01*
X173122495Y-61603152D02*
X173312971Y-61603152D01*
X173312971Y-61603152D02*
X173408209Y-61650771D01*
X173408209Y-61650771D02*
X173455828Y-61746009D01*
X173455828Y-61746009D02*
X173455828Y-61841247D01*
X173455828Y-61841247D02*
X172979638Y-61936485D01*
X173884400Y-62269819D02*
X173884400Y-61603152D01*
X173884400Y-61793628D02*
X173932019Y-61698390D01*
X173932019Y-61698390D02*
X173979638Y-61650771D01*
X173979638Y-61650771D02*
X174074876Y-61603152D01*
X174074876Y-61603152D02*
X174170114Y-61603152D01*
X175217734Y-61365057D02*
X175265353Y-61317438D01*
X175265353Y-61317438D02*
X175360591Y-61269819D01*
X175360591Y-61269819D02*
X175598686Y-61269819D01*
X175598686Y-61269819D02*
X175693924Y-61317438D01*
X175693924Y-61317438D02*
X175741543Y-61365057D01*
X175741543Y-61365057D02*
X175789162Y-61460295D01*
X175789162Y-61460295D02*
X175789162Y-61555533D01*
X175789162Y-61555533D02*
X175741543Y-61698390D01*
X175741543Y-61698390D02*
X175170115Y-62269819D01*
X175170115Y-62269819D02*
X175789162Y-62269819D01*
X176408210Y-61269819D02*
X176503448Y-61269819D01*
X176503448Y-61269819D02*
X176598686Y-61317438D01*
X176598686Y-61317438D02*
X176646305Y-61365057D01*
X176646305Y-61365057D02*
X176693924Y-61460295D01*
X176693924Y-61460295D02*
X176741543Y-61650771D01*
X176741543Y-61650771D02*
X176741543Y-61888866D01*
X176741543Y-61888866D02*
X176693924Y-62079342D01*
X176693924Y-62079342D02*
X176646305Y-62174580D01*
X176646305Y-62174580D02*
X176598686Y-62222200D01*
X176598686Y-62222200D02*
X176503448Y-62269819D01*
X176503448Y-62269819D02*
X176408210Y-62269819D01*
X176408210Y-62269819D02*
X176312972Y-62222200D01*
X176312972Y-62222200D02*
X176265353Y-62174580D01*
X176265353Y-62174580D02*
X176217734Y-62079342D01*
X176217734Y-62079342D02*
X176170115Y-61888866D01*
X176170115Y-61888866D02*
X176170115Y-61650771D01*
X176170115Y-61650771D02*
X176217734Y-61460295D01*
X176217734Y-61460295D02*
X176265353Y-61365057D01*
X176265353Y-61365057D02*
X176312972Y-61317438D01*
X176312972Y-61317438D02*
X176408210Y-61269819D01*
X177122496Y-61365057D02*
X177170115Y-61317438D01*
X177170115Y-61317438D02*
X177265353Y-61269819D01*
X177265353Y-61269819D02*
X177503448Y-61269819D01*
X177503448Y-61269819D02*
X177598686Y-61317438D01*
X177598686Y-61317438D02*
X177646305Y-61365057D01*
X177646305Y-61365057D02*
X177693924Y-61460295D01*
X177693924Y-61460295D02*
X177693924Y-61555533D01*
X177693924Y-61555533D02*
X177646305Y-61698390D01*
X177646305Y-61698390D02*
X177074877Y-62269819D01*
X177074877Y-62269819D02*
X177693924Y-62269819D01*
X178551067Y-61269819D02*
X178360591Y-61269819D01*
X178360591Y-61269819D02*
X178265353Y-61317438D01*
X178265353Y-61317438D02*
X178217734Y-61365057D01*
X178217734Y-61365057D02*
X178122496Y-61507914D01*
X178122496Y-61507914D02*
X178074877Y-61698390D01*
X178074877Y-61698390D02*
X178074877Y-62079342D01*
X178074877Y-62079342D02*
X178122496Y-62174580D01*
X178122496Y-62174580D02*
X178170115Y-62222200D01*
X178170115Y-62222200D02*
X178265353Y-62269819D01*
X178265353Y-62269819D02*
X178455829Y-62269819D01*
X178455829Y-62269819D02*
X178551067Y-62222200D01*
X178551067Y-62222200D02*
X178598686Y-62174580D01*
X178598686Y-62174580D02*
X178646305Y-62079342D01*
X178646305Y-62079342D02*
X178646305Y-61841247D01*
X178646305Y-61841247D02*
X178598686Y-61746009D01*
X178598686Y-61746009D02*
X178551067Y-61698390D01*
X178551067Y-61698390D02*
X178455829Y-61650771D01*
X178455829Y-61650771D02*
X178265353Y-61650771D01*
X178265353Y-61650771D02*
X178170115Y-61698390D01*
X178170115Y-61698390D02*
X178122496Y-61746009D01*
X178122496Y-61746009D02*
X178074877Y-61841247D01*
D12*
X218070863Y-93592219D02*
X217594673Y-93592219D01*
X217594673Y-93592219D02*
X217594673Y-92592219D01*
X218356578Y-93544600D02*
X218499435Y-93592219D01*
X218499435Y-93592219D02*
X218737530Y-93592219D01*
X218737530Y-93592219D02*
X218832768Y-93544600D01*
X218832768Y-93544600D02*
X218880387Y-93496980D01*
X218880387Y-93496980D02*
X218928006Y-93401742D01*
X218928006Y-93401742D02*
X218928006Y-93306504D01*
X218928006Y-93306504D02*
X218880387Y-93211266D01*
X218880387Y-93211266D02*
X218832768Y-93163647D01*
X218832768Y-93163647D02*
X218737530Y-93116028D01*
X218737530Y-93116028D02*
X218547054Y-93068409D01*
X218547054Y-93068409D02*
X218451816Y-93020790D01*
X218451816Y-93020790D02*
X218404197Y-92973171D01*
X218404197Y-92973171D02*
X218356578Y-92877933D01*
X218356578Y-92877933D02*
X218356578Y-92782695D01*
X218356578Y-92782695D02*
X218404197Y-92687457D01*
X218404197Y-92687457D02*
X218451816Y-92639838D01*
X218451816Y-92639838D02*
X218547054Y-92592219D01*
X218547054Y-92592219D02*
X218785149Y-92592219D01*
X218785149Y-92592219D02*
X218928006Y-92639838D01*
X219642292Y-92592219D02*
X219642292Y-93306504D01*
X219642292Y-93306504D02*
X219594673Y-93449361D01*
X219594673Y-93449361D02*
X219499435Y-93544600D01*
X219499435Y-93544600D02*
X219356578Y-93592219D01*
X219356578Y-93592219D02*
X219261340Y-93592219D01*
D15*
X216057380Y-70838842D02*
X216238809Y-70899318D01*
X216238809Y-70899318D02*
X216541190Y-70899318D01*
X216541190Y-70899318D02*
X216662142Y-70838842D01*
X216662142Y-70838842D02*
X216722618Y-70778365D01*
X216722618Y-70778365D02*
X216783095Y-70657413D01*
X216783095Y-70657413D02*
X216783095Y-70536461D01*
X216783095Y-70536461D02*
X216722618Y-70415508D01*
X216722618Y-70415508D02*
X216662142Y-70355032D01*
X216662142Y-70355032D02*
X216541190Y-70294556D01*
X216541190Y-70294556D02*
X216299285Y-70234080D01*
X216299285Y-70234080D02*
X216178333Y-70173603D01*
X216178333Y-70173603D02*
X216117856Y-70113127D01*
X216117856Y-70113127D02*
X216057380Y-69992175D01*
X216057380Y-69992175D02*
X216057380Y-69871222D01*
X216057380Y-69871222D02*
X216117856Y-69750270D01*
X216117856Y-69750270D02*
X216178333Y-69689794D01*
X216178333Y-69689794D02*
X216299285Y-69629318D01*
X216299285Y-69629318D02*
X216601666Y-69629318D01*
X216601666Y-69629318D02*
X216783095Y-69689794D01*
X217992619Y-70899318D02*
X217266904Y-70899318D01*
X217629761Y-70899318D02*
X217629761Y-69629318D01*
X217629761Y-69629318D02*
X217508809Y-69810746D01*
X217508809Y-69810746D02*
X217387857Y-69931699D01*
X217387857Y-69931699D02*
X217266904Y-69992175D01*
D14*
X188444819Y-99033333D02*
X189159104Y-99033333D01*
X189159104Y-99033333D02*
X189301961Y-99080952D01*
X189301961Y-99080952D02*
X189397200Y-99176190D01*
X189397200Y-99176190D02*
X189444819Y-99319047D01*
X189444819Y-99319047D02*
X189444819Y-99414285D01*
X188540057Y-98604761D02*
X188492438Y-98557142D01*
X188492438Y-98557142D02*
X188444819Y-98461904D01*
X188444819Y-98461904D02*
X188444819Y-98223809D01*
X188444819Y-98223809D02*
X188492438Y-98128571D01*
X188492438Y-98128571D02*
X188540057Y-98080952D01*
X188540057Y-98080952D02*
X188635295Y-98033333D01*
X188635295Y-98033333D02*
X188730533Y-98033333D01*
X188730533Y-98033333D02*
X188873390Y-98080952D01*
X188873390Y-98080952D02*
X189444819Y-98652380D01*
X189444819Y-98652380D02*
X189444819Y-98033333D01*
X176154819Y-75049404D02*
X176964342Y-75049404D01*
X176964342Y-75049404D02*
X177059580Y-75001785D01*
X177059580Y-75001785D02*
X177107200Y-74954166D01*
X177107200Y-74954166D02*
X177154819Y-74858928D01*
X177154819Y-74858928D02*
X177154819Y-74668452D01*
X177154819Y-74668452D02*
X177107200Y-74573214D01*
X177107200Y-74573214D02*
X177059580Y-74525595D01*
X177059580Y-74525595D02*
X176964342Y-74477976D01*
X176964342Y-74477976D02*
X176154819Y-74477976D01*
X176154819Y-73525595D02*
X176154819Y-74001785D01*
X176154819Y-74001785D02*
X176631009Y-74049404D01*
X176631009Y-74049404D02*
X176583390Y-74001785D01*
X176583390Y-74001785D02*
X176535771Y-73906547D01*
X176535771Y-73906547D02*
X176535771Y-73668452D01*
X176535771Y-73668452D02*
X176583390Y-73573214D01*
X176583390Y-73573214D02*
X176631009Y-73525595D01*
X176631009Y-73525595D02*
X176726247Y-73477976D01*
X176726247Y-73477976D02*
X176964342Y-73477976D01*
X176964342Y-73477976D02*
X177059580Y-73525595D01*
X177059580Y-73525595D02*
X177107200Y-73573214D01*
X177107200Y-73573214D02*
X177154819Y-73668452D01*
X177154819Y-73668452D02*
X177154819Y-73906547D01*
X177154819Y-73906547D02*
X177107200Y-74001785D01*
X177107200Y-74001785D02*
X177059580Y-74049404D01*
X219354819Y-86033333D02*
X220069104Y-86033333D01*
X220069104Y-86033333D02*
X220211961Y-86080952D01*
X220211961Y-86080952D02*
X220307200Y-86176190D01*
X220307200Y-86176190D02*
X220354819Y-86319047D01*
X220354819Y-86319047D02*
X220354819Y-86414285D01*
X219354819Y-85080952D02*
X219354819Y-85557142D01*
X219354819Y-85557142D02*
X219831009Y-85604761D01*
X219831009Y-85604761D02*
X219783390Y-85557142D01*
X219783390Y-85557142D02*
X219735771Y-85461904D01*
X219735771Y-85461904D02*
X219735771Y-85223809D01*
X219735771Y-85223809D02*
X219783390Y-85128571D01*
X219783390Y-85128571D02*
X219831009Y-85080952D01*
X219831009Y-85080952D02*
X219926247Y-85033333D01*
X219926247Y-85033333D02*
X220164342Y-85033333D01*
X220164342Y-85033333D02*
X220259580Y-85080952D01*
X220259580Y-85080952D02*
X220307200Y-85128571D01*
X220307200Y-85128571D02*
X220354819Y-85223809D01*
X220354819Y-85223809D02*
X220354819Y-85461904D01*
X220354819Y-85461904D02*
X220307200Y-85557142D01*
X220307200Y-85557142D02*
X220259580Y-85604761D01*
D16*
X191119999Y-61598674D02*
X191348571Y-61598674D01*
X191074285Y-61735817D02*
X191234285Y-61255817D01*
X191234285Y-61255817D02*
X191394285Y-61735817D01*
X191554285Y-61484388D02*
X191714285Y-61484388D01*
X191782857Y-61735817D02*
X191554285Y-61735817D01*
X191554285Y-61735817D02*
X191554285Y-61255817D01*
X191554285Y-61255817D02*
X191782857Y-61255817D01*
X192240000Y-61735817D02*
X191965714Y-61735817D01*
X192102857Y-61735817D02*
X192102857Y-61255817D01*
X192102857Y-61255817D02*
X192057143Y-61324388D01*
X192057143Y-61324388D02*
X192011428Y-61370102D01*
X192011428Y-61370102D02*
X191965714Y-61392960D01*
D15*
X192257380Y-93538842D02*
X192438809Y-93599318D01*
X192438809Y-93599318D02*
X192741190Y-93599318D01*
X192741190Y-93599318D02*
X192862142Y-93538842D01*
X192862142Y-93538842D02*
X192922618Y-93478365D01*
X192922618Y-93478365D02*
X192983095Y-93357413D01*
X192983095Y-93357413D02*
X192983095Y-93236461D01*
X192983095Y-93236461D02*
X192922618Y-93115508D01*
X192922618Y-93115508D02*
X192862142Y-93055032D01*
X192862142Y-93055032D02*
X192741190Y-92994556D01*
X192741190Y-92994556D02*
X192499285Y-92934080D01*
X192499285Y-92934080D02*
X192378333Y-92873603D01*
X192378333Y-92873603D02*
X192317856Y-92813127D01*
X192317856Y-92813127D02*
X192257380Y-92692175D01*
X192257380Y-92692175D02*
X192257380Y-92571222D01*
X192257380Y-92571222D02*
X192317856Y-92450270D01*
X192317856Y-92450270D02*
X192378333Y-92389794D01*
X192378333Y-92389794D02*
X192499285Y-92329318D01*
X192499285Y-92329318D02*
X192801666Y-92329318D01*
X192801666Y-92329318D02*
X192983095Y-92389794D01*
X193466904Y-92450270D02*
X193527380Y-92389794D01*
X193527380Y-92389794D02*
X193648333Y-92329318D01*
X193648333Y-92329318D02*
X193950714Y-92329318D01*
X193950714Y-92329318D02*
X194071666Y-92389794D01*
X194071666Y-92389794D02*
X194132142Y-92450270D01*
X194132142Y-92450270D02*
X194192619Y-92571222D01*
X194192619Y-92571222D02*
X194192619Y-92692175D01*
X194192619Y-92692175D02*
X194132142Y-92873603D01*
X194132142Y-92873603D02*
X193406428Y-93599318D01*
X193406428Y-93599318D02*
X194192619Y-93599318D01*
D14*
X162238095Y-81904819D02*
X162238095Y-80904819D01*
X162238095Y-81381009D02*
X162809523Y-81381009D01*
X162809523Y-81904819D02*
X162809523Y-80904819D01*
X163761904Y-80904819D02*
X163285714Y-80904819D01*
X163285714Y-80904819D02*
X163238095Y-81381009D01*
X163238095Y-81381009D02*
X163285714Y-81333390D01*
X163285714Y-81333390D02*
X163380952Y-81285771D01*
X163380952Y-81285771D02*
X163619047Y-81285771D01*
X163619047Y-81285771D02*
X163714285Y-81333390D01*
X163714285Y-81333390D02*
X163761904Y-81381009D01*
X163761904Y-81381009D02*
X163809523Y-81476247D01*
X163809523Y-81476247D02*
X163809523Y-81714342D01*
X163809523Y-81714342D02*
X163761904Y-81809580D01*
X163761904Y-81809580D02*
X163714285Y-81857200D01*
X163714285Y-81857200D02*
X163619047Y-81904819D01*
X163619047Y-81904819D02*
X163380952Y-81904819D01*
X163380952Y-81904819D02*
X163285714Y-81857200D01*
X163285714Y-81857200D02*
X163238095Y-81809580D01*
D12*
%TO.C,S1*%
X214925000Y-70525000D02*
X214925000Y-70125000D01*
X218025000Y-68725000D02*
X216025000Y-68725000D01*
X218025000Y-71925000D02*
X216025000Y-71925000D01*
X219125000Y-70525000D02*
X219125000Y-70125000D01*
X220025000Y-71400000D02*
X220025000Y-71400000D01*
X220125000Y-71400000D02*
X220125000Y-71400000D01*
X220125000Y-71400000D02*
X220125000Y-71400000D01*
X220025000Y-71400000D02*
G75*
G02*
X220125000Y-71400000I50000J0D01*
G01*
X220025000Y-71400000D02*
G75*
G02*
X220125000Y-71400000I50000J0D01*
G01*
X220125000Y-71400000D02*
G75*
G02*
X220025000Y-71400000I-50000J0D01*
G01*
D16*
%TO.C,J2*%
X189990000Y-100030000D02*
X189990000Y-98700000D01*
X191320000Y-100030000D02*
X189990000Y-100030000D01*
X192590000Y-97370000D02*
X197730000Y-97370000D01*
X192590000Y-100030000D02*
X192590000Y-97370000D01*
X192590000Y-100030000D02*
X197730000Y-100030000D01*
X197730000Y-100030000D02*
X197730000Y-97370000D01*
%TO.C,RI2C_2*%
X201026359Y-80407500D02*
X201333641Y-80407500D01*
X201026359Y-81167500D02*
X201333641Y-81167500D01*
D17*
%TO.C,G\u002A\u002A\u002A*%
G36*
X198009574Y-71621749D02*
G01*
X198394662Y-71623892D01*
X198496441Y-71739309D01*
X198598220Y-71854726D01*
X198420593Y-71856947D01*
X198242966Y-71859169D01*
X198240817Y-72214755D01*
X198238669Y-72570341D01*
X198100581Y-72456885D01*
X197962492Y-72343429D01*
X197962492Y-72101138D01*
X197962492Y-71858848D01*
X197793489Y-71858848D01*
X197624485Y-71858848D01*
X197624485Y-71739227D01*
X197624485Y-71619607D01*
X198009574Y-71621749D01*
G37*
G36*
X198819876Y-73421100D02*
G01*
X198819876Y-73466443D01*
X198737435Y-73466443D01*
X198654995Y-73466443D01*
X198654995Y-73697277D01*
X198654995Y-73928111D01*
X198609652Y-73928111D01*
X198564310Y-73928111D01*
X198564310Y-73697277D01*
X198564310Y-73466443D01*
X198481869Y-73466443D01*
X198399428Y-73466443D01*
X198399428Y-73421100D01*
X198399428Y-73375758D01*
X198609652Y-73375758D01*
X198819876Y-73375758D01*
X198819876Y-73421100D01*
G37*
G36*
X200625329Y-73421100D02*
G01*
X200625329Y-73466443D01*
X200542888Y-73466443D01*
X200460447Y-73466443D01*
X200460447Y-73697277D01*
X200460447Y-73928111D01*
X200415105Y-73928111D01*
X200369763Y-73928111D01*
X200369763Y-73697277D01*
X200369763Y-73466443D01*
X200287322Y-73466443D01*
X200204881Y-73466443D01*
X200204881Y-73421100D01*
X200204881Y-73375758D01*
X200415105Y-73375758D01*
X200625329Y-73375758D01*
X200625329Y-73421100D01*
G37*
G36*
X198104703Y-72614680D02*
G01*
X198242791Y-72703287D01*
X198242791Y-72792200D01*
X198242791Y-72881113D01*
X198106505Y-72881113D01*
X198052665Y-72880782D01*
X198013508Y-72879698D01*
X197987237Y-72877727D01*
X197972059Y-72874734D01*
X197966179Y-72870586D01*
X197965057Y-72859442D01*
X197964276Y-72834475D01*
X197963862Y-72798346D01*
X197963844Y-72753719D01*
X197964248Y-72703254D01*
X197964377Y-72693066D01*
X197966614Y-72526074D01*
X198104703Y-72614680D01*
G37*
G36*
X197525556Y-71801139D02*
G01*
X197525467Y-71853816D01*
X197525217Y-71900466D01*
X197524834Y-71938737D01*
X197524343Y-71966280D01*
X197523771Y-71980744D01*
X197523495Y-71982359D01*
X197516790Y-71977349D01*
X197499226Y-71963433D01*
X197472706Y-71942141D01*
X197439136Y-71915004D01*
X197400420Y-71883555D01*
X197387617Y-71873125D01*
X197253799Y-71764041D01*
X197253650Y-71691905D01*
X197253502Y-71619770D01*
X197389529Y-71619770D01*
X197525556Y-71619770D01*
X197525556Y-71801139D01*
G37*
G36*
X197269713Y-72079702D02*
G01*
X197290208Y-72092311D01*
X197319926Y-72110942D01*
X197356550Y-72134142D01*
X197396667Y-72159757D01*
X197525313Y-72242197D01*
X197525435Y-72561655D01*
X197525556Y-72881113D01*
X197389529Y-72881113D01*
X197253502Y-72881113D01*
X197253502Y-72476467D01*
X197253645Y-72393032D01*
X197254058Y-72316275D01*
X197254716Y-72247598D01*
X197255592Y-72188406D01*
X197256663Y-72140103D01*
X197257901Y-72104095D01*
X197259283Y-72081785D01*
X197260761Y-72074568D01*
X197269713Y-72079702D01*
G37*
G36*
X198707622Y-71978964D02*
G01*
X198720517Y-71993827D01*
X198742523Y-72019061D01*
X198771871Y-72052646D01*
X198806795Y-72092562D01*
X198845528Y-72136787D01*
X198883730Y-72180367D01*
X199031944Y-72349370D01*
X198995985Y-72351883D01*
X198960026Y-72354396D01*
X198960026Y-72498525D01*
X198960026Y-72642654D01*
X199122846Y-72641553D01*
X199285667Y-72640452D01*
X199370769Y-72736026D01*
X199455871Y-72831600D01*
X199432599Y-72840596D01*
X199409307Y-72848975D01*
X199385524Y-72855924D01*
X199359399Y-72861603D01*
X199329083Y-72866173D01*
X199292724Y-72869794D01*
X199248472Y-72872625D01*
X199194476Y-72874828D01*
X199128886Y-72876561D01*
X199049851Y-72877985D01*
X198990941Y-72878815D01*
X198679727Y-72882877D01*
X198679727Y-72414721D01*
X198679727Y-71946565D01*
X198707622Y-71978964D01*
G37*
G36*
X199245913Y-62452681D02*
G01*
X199325698Y-62580140D01*
X199340807Y-62815096D01*
X199369932Y-63264220D01*
X199398491Y-63696893D01*
X199426484Y-64113144D01*
X199453915Y-64512999D01*
X199480785Y-64896488D01*
X199507096Y-65263637D01*
X199532851Y-65614474D01*
X199558051Y-65949027D01*
X199582699Y-66267324D01*
X199606796Y-66569393D01*
X199630346Y-66855261D01*
X199653349Y-67124956D01*
X199675809Y-67378506D01*
X199697726Y-67615939D01*
X199719104Y-67837283D01*
X199727187Y-67918179D01*
X199757143Y-68196313D01*
X199790673Y-68473176D01*
X199827499Y-68747156D01*
X199867345Y-69016642D01*
X199909933Y-69280022D01*
X199954986Y-69535685D01*
X200002227Y-69782019D01*
X200051379Y-70017413D01*
X200102164Y-70240255D01*
X200154307Y-70448934D01*
X200176827Y-70532999D01*
X200221591Y-70696526D01*
X200219419Y-70967244D01*
X200217247Y-71237962D01*
X199691687Y-70858999D01*
X199166127Y-70480036D01*
X199166127Y-66402630D01*
X199166127Y-62325223D01*
X199245913Y-62452681D01*
G37*
G36*
X199596045Y-73494928D02*
G01*
X199621466Y-73533884D01*
X199643840Y-73567525D01*
X199661635Y-73593601D01*
X199673321Y-73609863D01*
X199677260Y-73614297D01*
X199682902Y-73607820D01*
X199695979Y-73589739D01*
X199714951Y-73562277D01*
X199738276Y-73527660D01*
X199759701Y-73495297D01*
X199838020Y-73376099D01*
X199889545Y-73375928D01*
X199916244Y-73376371D01*
X199934865Y-73377694D01*
X199941071Y-73379401D01*
X199936506Y-73386879D01*
X199923718Y-73405820D01*
X199904060Y-73434270D01*
X199878890Y-73470273D01*
X199849562Y-73511872D01*
X199833898Y-73533971D01*
X199726725Y-73684897D01*
X199726725Y-73806504D01*
X199726725Y-73928111D01*
X199677260Y-73928111D01*
X199627796Y-73928111D01*
X199627796Y-73806504D01*
X199627796Y-73684897D01*
X199520623Y-73533971D01*
X199489737Y-73490321D01*
X199462336Y-73451299D01*
X199439775Y-73418860D01*
X199423411Y-73394960D01*
X199414600Y-73381554D01*
X199413450Y-73379401D01*
X199420966Y-73377533D01*
X199440605Y-73376219D01*
X199466200Y-73375758D01*
X199518951Y-73375758D01*
X199596045Y-73494928D01*
G37*
G36*
X197377163Y-73491175D02*
G01*
X197377163Y-73606592D01*
X197450248Y-73606592D01*
X197487935Y-73605937D01*
X197513344Y-73603489D01*
X197530650Y-73598522D01*
X197544029Y-73590312D01*
X197544033Y-73590309D01*
X197555498Y-73577024D01*
X197572134Y-73552267D01*
X197591859Y-73519372D01*
X197612590Y-73481674D01*
X197616135Y-73474892D01*
X197667536Y-73375758D01*
X197716696Y-73375758D01*
X197765857Y-73375758D01*
X197709326Y-73484781D01*
X197684378Y-73531642D01*
X197664247Y-73566163D01*
X197647086Y-73591085D01*
X197631048Y-73609150D01*
X197617947Y-73620382D01*
X197583100Y-73646961D01*
X197612408Y-73660868D01*
X197630671Y-73672063D01*
X197648554Y-73689030D01*
X197667469Y-73713784D01*
X197688827Y-73748337D01*
X197714038Y-73794703D01*
X197734984Y-73835766D01*
X197781662Y-73928912D01*
X197729867Y-73926450D01*
X197678072Y-73923989D01*
X197624485Y-73822035D01*
X197599647Y-73775866D01*
X197579223Y-73742442D01*
X197560405Y-73719687D01*
X197540388Y-73705521D01*
X197516366Y-73697868D01*
X197485532Y-73694648D01*
X197451360Y-73693841D01*
X197381285Y-73693155D01*
X197378997Y-73810633D01*
X197376710Y-73928111D01*
X197331594Y-73928111D01*
X197286478Y-73928111D01*
X197286478Y-73651934D01*
X197286478Y-73375758D01*
X197331820Y-73375758D01*
X197377163Y-73375758D01*
X197377163Y-73491175D01*
G37*
G36*
X200081265Y-71874996D02*
G01*
X200092626Y-71893222D01*
X200109473Y-71921422D01*
X200130498Y-71957404D01*
X200154079Y-71998433D01*
X200229253Y-72130207D01*
X200184091Y-72246047D01*
X200168313Y-72287033D01*
X200154938Y-72322764D01*
X200145020Y-72350346D01*
X200139612Y-72366884D01*
X200138928Y-72370055D01*
X200146884Y-72373404D01*
X200169624Y-72375993D01*
X200205454Y-72377702D01*
X200252683Y-72378410D01*
X200256407Y-72378419D01*
X200373885Y-72378613D01*
X200437521Y-72491775D01*
X200501157Y-72604937D01*
X200272925Y-72609059D01*
X200044693Y-72613181D01*
X199992215Y-72747147D01*
X199939738Y-72881113D01*
X199799293Y-72881113D01*
X199748108Y-72880999D01*
X199711202Y-72880499D01*
X199686369Y-72879382D01*
X199671401Y-72877412D01*
X199664091Y-72874359D01*
X199662231Y-72869987D01*
X199662798Y-72866686D01*
X199666472Y-72857074D01*
X199675787Y-72833945D01*
X199690102Y-72798847D01*
X199708773Y-72753326D01*
X199731160Y-72698930D01*
X199756621Y-72637206D01*
X199784514Y-72569700D01*
X199814196Y-72497961D01*
X199845027Y-72423535D01*
X199876365Y-72347970D01*
X199907567Y-72272811D01*
X199937992Y-72199608D01*
X199966998Y-72129906D01*
X199993943Y-72065253D01*
X200018186Y-72007196D01*
X200039084Y-71957282D01*
X200055996Y-71917059D01*
X200068280Y-71888073D01*
X200075295Y-71871871D01*
X200076701Y-71868936D01*
X200081265Y-71874996D01*
G37*
G36*
X197162817Y-73419096D02*
G01*
X197162817Y-73464715D01*
X197032973Y-73467669D01*
X196972410Y-73469787D01*
X196925821Y-73473595D01*
X196890715Y-73479943D01*
X196864597Y-73489679D01*
X196844977Y-73503650D01*
X196829362Y-73522706D01*
X196818954Y-73540514D01*
X196806163Y-73577180D01*
X196799525Y-73623250D01*
X196799049Y-73672825D01*
X196804743Y-73720008D01*
X196816616Y-73758901D01*
X196818627Y-73763066D01*
X196832459Y-73786405D01*
X196848560Y-73804064D01*
X196869391Y-73816882D01*
X196897412Y-73825699D01*
X196935085Y-73831355D01*
X196984870Y-73834688D01*
X197032973Y-73836200D01*
X197162817Y-73839154D01*
X197162817Y-73883632D01*
X197162817Y-73928111D01*
X197049461Y-73927141D01*
X197004041Y-73926301D01*
X196961040Y-73924697D01*
X196924934Y-73922549D01*
X196900198Y-73920078D01*
X196897840Y-73919709D01*
X196838043Y-73902355D01*
X196788712Y-73872394D01*
X196750192Y-73830080D01*
X196731376Y-73796644D01*
X196723973Y-73778170D01*
X196718979Y-73758339D01*
X196715940Y-73733392D01*
X196714403Y-73699568D01*
X196713913Y-73653108D01*
X196713911Y-73651934D01*
X196714110Y-73606467D01*
X196715242Y-73573693D01*
X196717806Y-73549822D01*
X196722298Y-73531066D01*
X196729217Y-73513636D01*
X196733146Y-73505434D01*
X196757901Y-73467552D01*
X196791378Y-73432709D01*
X196828539Y-73405542D01*
X196855094Y-73393223D01*
X196873974Y-73389418D01*
X196905758Y-73385635D01*
X196946865Y-73382195D01*
X196993713Y-73379415D01*
X197024729Y-73378140D01*
X197162817Y-73373478D01*
X197162817Y-73419096D01*
G37*
G36*
X201591897Y-73378915D02*
G01*
X201623916Y-73392221D01*
X201636522Y-73402158D01*
X201646038Y-73416762D01*
X201660606Y-73446358D01*
X201679961Y-73490333D01*
X201703839Y-73548073D01*
X201731976Y-73618962D01*
X201751001Y-73668095D01*
X201774017Y-73728232D01*
X201795006Y-73783483D01*
X201813263Y-73831957D01*
X201828080Y-73871764D01*
X201838753Y-73901012D01*
X201844574Y-73917810D01*
X201845452Y-73921057D01*
X201837976Y-73924832D01*
X201818598Y-73927392D01*
X201797610Y-73928111D01*
X201749767Y-73928111D01*
X201662698Y-73699338D01*
X201637340Y-73633035D01*
X201616936Y-73580611D01*
X201600756Y-73540464D01*
X201588070Y-73510995D01*
X201578147Y-73490605D01*
X201570260Y-73477693D01*
X201563676Y-73470661D01*
X201557668Y-73467907D01*
X201557075Y-73467806D01*
X201538554Y-73469229D01*
X201529533Y-73474033D01*
X201524262Y-73483757D01*
X201513800Y-73506801D01*
X201499002Y-73541143D01*
X201480724Y-73584762D01*
X201459820Y-73635639D01*
X201437145Y-73691753D01*
X201432441Y-73703504D01*
X201344336Y-73923989D01*
X201292942Y-73926470D01*
X201264129Y-73927079D01*
X201249098Y-73925074D01*
X201245285Y-73920009D01*
X201245779Y-73918226D01*
X201280886Y-73829649D01*
X201314401Y-73745918D01*
X201345780Y-73668345D01*
X201374479Y-73598238D01*
X201399954Y-73536908D01*
X201421659Y-73485664D01*
X201439052Y-73445816D01*
X201451588Y-73418673D01*
X201458723Y-73405546D01*
X201458871Y-73405353D01*
X201482818Y-73386976D01*
X201516323Y-73376383D01*
X201554358Y-73373666D01*
X201591897Y-73378915D01*
G37*
G36*
X200479239Y-71724882D02*
G01*
X200490380Y-71750563D01*
X200507437Y-71789787D01*
X200529727Y-71840985D01*
X200556566Y-71902591D01*
X200587272Y-71973037D01*
X200621160Y-72050756D01*
X200657549Y-72134180D01*
X200695753Y-72221741D01*
X200735091Y-72311872D01*
X200752270Y-72351224D01*
X200790383Y-72438587D01*
X200826495Y-72521481D01*
X200860073Y-72598676D01*
X200890584Y-72668941D01*
X200917495Y-72731046D01*
X200940273Y-72783758D01*
X200958386Y-72825849D01*
X200971300Y-72856086D01*
X200978482Y-72873239D01*
X200979824Y-72876784D01*
X200972040Y-72878244D01*
X200950524Y-72879495D01*
X200918034Y-72880444D01*
X200877325Y-72881003D01*
X200847660Y-72881113D01*
X200797777Y-72880951D01*
X200761946Y-72880293D01*
X200737735Y-72878886D01*
X200722709Y-72876473D01*
X200714435Y-72872799D01*
X200710479Y-72867609D01*
X200710109Y-72866686D01*
X200706157Y-72856963D01*
X200696355Y-72833203D01*
X200681193Y-72796589D01*
X200661163Y-72748302D01*
X200636757Y-72689526D01*
X200608465Y-72621443D01*
X200576778Y-72545236D01*
X200542189Y-72462087D01*
X200505189Y-72373178D01*
X200466268Y-72279693D01*
X200454086Y-72250441D01*
X200414693Y-72155801D01*
X200377093Y-72065377D01*
X200341777Y-71980350D01*
X200309233Y-71901903D01*
X200279951Y-71831218D01*
X200254420Y-71769478D01*
X200233129Y-71717864D01*
X200216568Y-71677560D01*
X200205225Y-71649748D01*
X200199591Y-71635609D01*
X200199083Y-71634197D01*
X200198565Y-71628563D01*
X200202570Y-71624616D01*
X200213464Y-71622060D01*
X200233613Y-71620598D01*
X200265382Y-71619933D01*
X200311136Y-71619770D01*
X200314238Y-71619770D01*
X200433763Y-71619770D01*
X200479239Y-71724882D01*
G37*
G36*
X196398340Y-73382186D02*
G01*
X196459868Y-73397535D01*
X196510737Y-73422606D01*
X196538182Y-73444894D01*
X196567490Y-73484796D01*
X196588767Y-73535688D01*
X196601666Y-73593972D01*
X196605836Y-73656049D01*
X196600931Y-73718320D01*
X196586600Y-73777187D01*
X196573468Y-73809101D01*
X196547960Y-73850028D01*
X196515377Y-73880913D01*
X196473686Y-73902787D01*
X196420854Y-73916680D01*
X196354848Y-73923622D01*
X196346653Y-73924007D01*
X196306155Y-73924648D01*
X196266157Y-73923491D01*
X196233423Y-73920787D01*
X196224781Y-73919495D01*
X196165858Y-73902788D01*
X196118567Y-73875563D01*
X196082505Y-73837243D01*
X196057268Y-73787251D01*
X196042453Y-73725012D01*
X196038772Y-73668915D01*
X196125716Y-73668915D01*
X196126653Y-73682500D01*
X196136673Y-73737621D01*
X196156687Y-73779935D01*
X196187162Y-73810090D01*
X196228560Y-73828731D01*
X196232249Y-73829717D01*
X196261442Y-73834034D01*
X196299524Y-73835361D01*
X196341651Y-73834021D01*
X196382976Y-73830337D01*
X196418657Y-73824633D01*
X196443846Y-73817232D01*
X196447607Y-73815346D01*
X196476546Y-73791209D01*
X196496485Y-73756456D01*
X196507967Y-73709698D01*
X196511535Y-73651484D01*
X196508355Y-73594893D01*
X196498165Y-73551378D01*
X196479991Y-73518674D01*
X196452858Y-73494513D01*
X196441133Y-73487691D01*
X196413821Y-73478560D01*
X196375723Y-73472495D01*
X196331714Y-73469553D01*
X196286668Y-73469790D01*
X196245458Y-73473263D01*
X196212960Y-73480029D01*
X196201049Y-73484907D01*
X196165563Y-73513321D01*
X196141073Y-73553741D01*
X196127738Y-73605746D01*
X196125716Y-73668915D01*
X196038772Y-73668915D01*
X196037658Y-73651934D01*
X196042189Y-73578154D01*
X196056517Y-73517275D01*
X196081283Y-73468484D01*
X196117131Y-73430970D01*
X196164701Y-73403921D01*
X196224635Y-73386523D01*
X196250776Y-73382276D01*
X196328020Y-73376963D01*
X196398340Y-73382186D01*
G37*
G36*
X195647968Y-73377485D02*
G01*
X195716058Y-73379198D01*
X195769901Y-73381739D01*
X195811735Y-73385591D01*
X195843798Y-73391235D01*
X195868326Y-73399155D01*
X195887557Y-73409831D01*
X195903730Y-73423748D01*
X195913653Y-73434749D01*
X195936203Y-73472767D01*
X195947117Y-73516458D01*
X195947042Y-73562190D01*
X195936626Y-73606329D01*
X195916519Y-73645245D01*
X195887367Y-73675303D01*
X195868779Y-73686259D01*
X195848785Y-73696831D01*
X195837026Y-73705657D01*
X195835733Y-73708023D01*
X195839636Y-73717118D01*
X195850517Y-73737693D01*
X195866902Y-73767070D01*
X195887315Y-73802573D01*
X195897116Y-73819318D01*
X195958712Y-73923989D01*
X195916648Y-73926518D01*
X195890508Y-73927278D01*
X195870653Y-73926402D01*
X195864705Y-73925257D01*
X195857226Y-73917111D01*
X195843333Y-73897270D01*
X195824760Y-73868377D01*
X195803238Y-73833073D01*
X195793957Y-73817346D01*
X195733087Y-73713227D01*
X195650338Y-73715557D01*
X195567588Y-73717887D01*
X195565281Y-73822999D01*
X195562973Y-73928111D01*
X195517153Y-73928111D01*
X195471333Y-73928111D01*
X195474118Y-73796419D01*
X195475137Y-73742507D01*
X195476953Y-73701482D01*
X195481576Y-73671529D01*
X195491015Y-73650833D01*
X195507277Y-73637578D01*
X195532371Y-73629948D01*
X195568306Y-73626128D01*
X195617090Y-73624302D01*
X195665891Y-73623080D01*
X195720604Y-73621410D01*
X195761257Y-73619621D01*
X195790277Y-73617434D01*
X195810091Y-73614575D01*
X195823126Y-73610766D01*
X195831810Y-73605731D01*
X195833947Y-73603924D01*
X195852533Y-73576659D01*
X195856656Y-73542771D01*
X195851471Y-73518401D01*
X195844596Y-73502129D01*
X195834692Y-73489612D01*
X195819710Y-73480369D01*
X195797604Y-73473921D01*
X195766327Y-73469790D01*
X195723831Y-73467494D01*
X195668068Y-73466555D01*
X195629683Y-73466443D01*
X195472781Y-73466443D01*
X195472781Y-73420280D01*
X195472781Y-73374118D01*
X195647968Y-73377485D01*
G37*
G36*
X199085748Y-73377485D02*
G01*
X199153838Y-73379198D01*
X199207681Y-73381739D01*
X199249515Y-73385591D01*
X199281578Y-73391235D01*
X199306106Y-73399155D01*
X199325337Y-73409831D01*
X199341510Y-73423748D01*
X199351433Y-73434749D01*
X199373983Y-73472767D01*
X199384897Y-73516458D01*
X199384822Y-73562190D01*
X199374406Y-73606329D01*
X199354299Y-73645245D01*
X199325147Y-73675303D01*
X199306559Y-73686259D01*
X199286565Y-73696831D01*
X199274806Y-73705657D01*
X199273513Y-73708023D01*
X199277416Y-73717118D01*
X199288297Y-73737693D01*
X199304682Y-73767070D01*
X199325095Y-73802573D01*
X199334896Y-73819318D01*
X199396492Y-73923989D01*
X199354428Y-73926518D01*
X199328288Y-73927278D01*
X199308432Y-73926402D01*
X199302485Y-73925257D01*
X199295006Y-73917111D01*
X199281113Y-73897270D01*
X199262540Y-73868377D01*
X199241018Y-73833073D01*
X199231737Y-73817346D01*
X199170867Y-73713227D01*
X199088118Y-73715557D01*
X199005368Y-73717887D01*
X199003061Y-73822999D01*
X199000753Y-73928111D01*
X198954933Y-73928111D01*
X198909112Y-73928111D01*
X198911898Y-73796419D01*
X198912917Y-73742507D01*
X198914733Y-73701482D01*
X198919356Y-73671529D01*
X198928795Y-73650833D01*
X198945057Y-73637578D01*
X198970151Y-73629948D01*
X199006086Y-73626128D01*
X199054870Y-73624302D01*
X199103671Y-73623080D01*
X199158384Y-73621410D01*
X199199037Y-73619621D01*
X199228057Y-73617434D01*
X199247871Y-73614575D01*
X199260906Y-73610766D01*
X199269590Y-73605731D01*
X199271727Y-73603924D01*
X199290313Y-73576659D01*
X199294436Y-73542771D01*
X199289251Y-73518401D01*
X199282376Y-73502129D01*
X199272472Y-73489612D01*
X199257490Y-73480369D01*
X199235384Y-73473921D01*
X199204107Y-73469790D01*
X199161611Y-73467494D01*
X199105848Y-73466555D01*
X199067463Y-73466443D01*
X198910561Y-73466443D01*
X198910561Y-73420280D01*
X198910561Y-73374118D01*
X199085748Y-73377485D01*
G37*
G36*
X201161194Y-73419536D02*
G01*
X201161194Y-73465182D01*
X200999706Y-73467873D01*
X200838219Y-73470565D01*
X200818337Y-73493696D01*
X200801601Y-73522855D01*
X200798755Y-73552572D01*
X200809724Y-73578943D01*
X200820177Y-73589505D01*
X200828829Y-73595500D01*
X200838995Y-73599906D01*
X200853191Y-73602966D01*
X200873935Y-73604921D01*
X200903744Y-73606016D01*
X200945134Y-73606492D01*
X200997424Y-73606592D01*
X201152950Y-73606592D01*
X201152950Y-73647812D01*
X201152950Y-73689033D01*
X201014862Y-73689079D01*
X200949022Y-73689664D01*
X200897853Y-73691798D01*
X200859562Y-73696122D01*
X200832356Y-73703277D01*
X200814442Y-73713905D01*
X200804027Y-73728647D01*
X200799319Y-73748144D01*
X200798455Y-73766488D01*
X200805734Y-73797488D01*
X200826588Y-73820114D01*
X200857765Y-73832388D01*
X200874335Y-73834079D01*
X200904018Y-73835529D01*
X200943440Y-73836634D01*
X200989224Y-73837289D01*
X201022075Y-73837426D01*
X201161194Y-73837426D01*
X201161194Y-73882769D01*
X201161194Y-73928111D01*
X201014862Y-73927141D01*
X200964258Y-73926451D01*
X200916545Y-73925154D01*
X200875349Y-73923395D01*
X200844296Y-73921321D01*
X200829855Y-73919650D01*
X200779566Y-73904693D01*
X200741641Y-73878837D01*
X200716025Y-73842027D01*
X200702690Y-73794422D01*
X200703598Y-73756778D01*
X200714530Y-73718808D01*
X200733187Y-73686361D01*
X200752341Y-73668170D01*
X200769777Y-73653949D01*
X200771716Y-73643566D01*
X200758356Y-73635806D01*
X200757644Y-73635576D01*
X200737491Y-73621437D01*
X200720483Y-73595340D01*
X200708856Y-73561790D01*
X200704850Y-73529349D01*
X200710567Y-73480155D01*
X200729530Y-73440615D01*
X200762101Y-73410091D01*
X200778177Y-73400695D01*
X200792400Y-73393760D01*
X200806180Y-73388522D01*
X200822128Y-73384689D01*
X200842855Y-73381967D01*
X200870973Y-73380064D01*
X200909091Y-73378688D01*
X200959821Y-73377545D01*
X200989706Y-73376989D01*
X201161194Y-73373889D01*
X201161194Y-73419536D01*
G37*
G36*
X198308743Y-73420254D02*
G01*
X198308743Y-73466443D01*
X198170655Y-73466489D01*
X198122108Y-73467009D01*
X198077119Y-73468418D01*
X198039241Y-73470534D01*
X198012032Y-73473178D01*
X198001895Y-73475053D01*
X197971416Y-73490167D01*
X197952368Y-73513228D01*
X197945899Y-73540650D01*
X197953157Y-73568847D01*
X197966240Y-73586357D01*
X197973593Y-73593297D01*
X197981410Y-73598435D01*
X197992115Y-73602043D01*
X198008136Y-73604391D01*
X198031899Y-73605749D01*
X198065831Y-73606388D01*
X198112357Y-73606580D01*
X198147609Y-73606592D01*
X198308743Y-73606592D01*
X198308743Y-73647182D01*
X198308743Y-73687772D01*
X198148630Y-73690463D01*
X198093417Y-73691461D01*
X198052235Y-73692538D01*
X198022626Y-73694003D01*
X198002135Y-73696161D01*
X197988305Y-73699322D01*
X197978680Y-73703790D01*
X197970803Y-73709874D01*
X197967260Y-73713141D01*
X197950264Y-73736990D01*
X197946004Y-73763229D01*
X197951560Y-73792523D01*
X197967260Y-73813318D01*
X197975146Y-73820210D01*
X197983699Y-73825351D01*
X197995377Y-73829049D01*
X198012636Y-73831610D01*
X198037932Y-73833342D01*
X198073721Y-73834552D01*
X198122461Y-73835547D01*
X198148630Y-73835995D01*
X198308743Y-73838687D01*
X198308743Y-73883399D01*
X198308743Y-73928111D01*
X198162411Y-73927155D01*
X198114262Y-73926702D01*
X198071349Y-73926039D01*
X198036598Y-73925232D01*
X198012929Y-73924346D01*
X198003713Y-73923582D01*
X197987690Y-73920569D01*
X197964257Y-73916540D01*
X197959939Y-73915828D01*
X197920623Y-73901979D01*
X197889604Y-73876684D01*
X197867525Y-73843100D01*
X197855025Y-73804384D01*
X197852748Y-73763693D01*
X197861333Y-73724184D01*
X197881422Y-73689012D01*
X197908860Y-73664330D01*
X197930333Y-73650244D01*
X197908921Y-73636214D01*
X197878355Y-73606758D01*
X197860464Y-73566926D01*
X197855350Y-73523309D01*
X197861042Y-73478022D01*
X197879155Y-73442131D01*
X197911140Y-73413357D01*
X197933650Y-73400495D01*
X197948493Y-73393471D01*
X197962823Y-73388191D01*
X197979321Y-73384353D01*
X198000668Y-73381653D01*
X198029543Y-73379789D01*
X198068628Y-73378457D01*
X198120603Y-73377356D01*
X198141801Y-73376978D01*
X198308743Y-73374065D01*
X198308743Y-73420254D01*
G37*
G36*
X199002986Y-62340891D02*
G01*
X199003418Y-62364546D01*
X199003842Y-62403698D01*
X199004256Y-62457853D01*
X199004661Y-62526517D01*
X199005054Y-62609192D01*
X199005436Y-62705386D01*
X199005805Y-62814602D01*
X199006161Y-62936345D01*
X199006503Y-63070121D01*
X199006829Y-63215434D01*
X199007140Y-63371789D01*
X199007434Y-63538691D01*
X199007710Y-63715645D01*
X199007968Y-63902156D01*
X199008207Y-64097729D01*
X199008426Y-64301868D01*
X199008624Y-64514079D01*
X199008800Y-64733867D01*
X199008954Y-64960735D01*
X199009084Y-65194191D01*
X199009190Y-65433737D01*
X199009271Y-65678880D01*
X199009326Y-65929123D01*
X199009355Y-66183973D01*
X199009358Y-66401681D01*
X199009225Y-70477965D01*
X198488871Y-70853070D01*
X198406430Y-70912480D01*
X198327729Y-70969157D01*
X198253811Y-71022353D01*
X198185720Y-71071318D01*
X198124501Y-71115303D01*
X198071196Y-71153558D01*
X198026851Y-71185333D01*
X197992508Y-71209878D01*
X197969213Y-71226445D01*
X197958009Y-71234284D01*
X197957260Y-71234769D01*
X197954122Y-71234363D01*
X197951607Y-71228090D01*
X197949650Y-71214461D01*
X197948187Y-71191991D01*
X197947155Y-71159192D01*
X197946490Y-71114577D01*
X197946128Y-71056659D01*
X197946006Y-70983951D01*
X197946004Y-70972411D01*
X197946004Y-70703460D01*
X197974277Y-70603079D01*
X198025531Y-70412180D01*
X198075950Y-70206815D01*
X198125148Y-69988996D01*
X198172736Y-69760740D01*
X198218328Y-69524061D01*
X198261536Y-69280974D01*
X198301972Y-69033494D01*
X198339249Y-68783635D01*
X198372979Y-68533412D01*
X198374161Y-68524119D01*
X198391860Y-68379053D01*
X198410214Y-68217705D01*
X198429208Y-68040270D01*
X198448825Y-67846939D01*
X198469051Y-67637908D01*
X198489869Y-67413368D01*
X198511265Y-67173514D01*
X198533222Y-66918538D01*
X198555726Y-66648634D01*
X198578759Y-66363995D01*
X198602308Y-66064814D01*
X198626356Y-65751285D01*
X198650888Y-65423600D01*
X198675888Y-65081954D01*
X198701341Y-64726540D01*
X198727230Y-64357550D01*
X198753541Y-63975178D01*
X198780259Y-63579617D01*
X198807366Y-63171061D01*
X198816057Y-63038581D01*
X198845933Y-62581931D01*
X198920767Y-62461496D01*
X198945767Y-62421449D01*
X198968050Y-62386107D01*
X198986042Y-62357936D01*
X198998170Y-62339404D01*
X199002546Y-62333229D01*
X199002986Y-62340891D01*
G37*
G36*
X199005987Y-71621938D02*
G01*
X199089885Y-71622910D01*
X199159037Y-71623941D01*
X199215183Y-71625117D01*
X199260067Y-71626521D01*
X199295429Y-71628236D01*
X199323010Y-71630347D01*
X199344554Y-71632936D01*
X199361800Y-71636088D01*
X199375902Y-71639713D01*
X199448657Y-71666860D01*
X199507393Y-71701737D01*
X199552983Y-71744996D01*
X199586301Y-71797295D01*
X199586335Y-71797365D01*
X199601319Y-71841935D01*
X199609537Y-71895602D01*
X199610777Y-71952334D01*
X199604831Y-72006099D01*
X199594881Y-72042598D01*
X199568201Y-72092316D01*
X199528578Y-72138015D01*
X199479551Y-72176084D01*
X199446309Y-72194123D01*
X199396778Y-72216858D01*
X199445112Y-72230089D01*
X199512323Y-72255464D01*
X199567704Y-72291943D01*
X199612369Y-72340414D01*
X199639535Y-72385231D01*
X199663515Y-72449736D01*
X199672875Y-72517255D01*
X199668063Y-72584917D01*
X199649526Y-72649855D01*
X199617711Y-72709199D01*
X199582444Y-72751269D01*
X199561682Y-72770986D01*
X199545495Y-72785053D01*
X199537383Y-72790428D01*
X199537379Y-72790428D01*
X199531026Y-72784087D01*
X199516824Y-72766552D01*
X199496496Y-72740054D01*
X199471764Y-72706824D01*
X199453316Y-72681531D01*
X199424148Y-72641097D01*
X199403464Y-72611637D01*
X199390079Y-72590768D01*
X199382807Y-72576111D01*
X199380462Y-72565282D01*
X199381860Y-72555900D01*
X199385737Y-72545768D01*
X199396081Y-72502470D01*
X199391185Y-72461776D01*
X199372283Y-72425559D01*
X199340605Y-72395689D01*
X199297386Y-72374038D01*
X199267334Y-72365949D01*
X199219714Y-72356569D01*
X199135801Y-72241675D01*
X199051888Y-72126780D01*
X199139923Y-72121890D01*
X199204768Y-72115011D01*
X199255270Y-72101946D01*
X199292639Y-72081984D01*
X199318086Y-72054413D01*
X199332820Y-72018524D01*
X199335143Y-72007169D01*
X199334958Y-71963282D01*
X199320118Y-71924093D01*
X199292260Y-71891778D01*
X199253023Y-71868514D01*
X199224080Y-71859670D01*
X199199495Y-71856206D01*
X199163183Y-71853353D01*
X199119903Y-71851393D01*
X199074413Y-71850607D01*
X199071236Y-71850604D01*
X198960667Y-71850604D01*
X198958285Y-71922294D01*
X198955903Y-71993985D01*
X198840966Y-71833670D01*
X198807430Y-71786943D01*
X198775978Y-71743207D01*
X198748253Y-71704742D01*
X198725897Y-71673824D01*
X198710554Y-71652732D01*
X198705558Y-71645955D01*
X198685087Y-71618554D01*
X199005987Y-71621938D01*
G37*
G36*
X202093202Y-73375873D02*
G01*
X202111439Y-73381512D01*
X202126984Y-73388849D01*
X202140909Y-73399626D01*
X202154285Y-73415582D01*
X202168184Y-73438458D01*
X202183679Y-73469994D01*
X202201841Y-73511929D01*
X202223741Y-73566004D01*
X202247497Y-73626396D01*
X202270793Y-73684978D01*
X202292219Y-73736877D01*
X202310961Y-73780257D01*
X202326210Y-73813280D01*
X202337153Y-73834111D01*
X202342158Y-73840699D01*
X202360071Y-73845254D01*
X202371012Y-73840624D01*
X202375623Y-73836293D01*
X202379247Y-73828468D01*
X202382064Y-73815145D01*
X202384253Y-73794321D01*
X202385996Y-73763992D01*
X202387474Y-73722153D01*
X202388865Y-73666801D01*
X202389561Y-73634564D01*
X202391411Y-73562708D01*
X202393658Y-73506365D01*
X202396369Y-73464567D01*
X202399610Y-73436342D01*
X202403447Y-73420721D01*
X202404233Y-73419125D01*
X202425997Y-73396095D01*
X202458435Y-73379705D01*
X202496531Y-73371535D01*
X202535265Y-73373167D01*
X202543841Y-73375123D01*
X202560505Y-73380420D01*
X202575129Y-73387667D01*
X202588585Y-73398415D01*
X202601743Y-73414218D01*
X202615473Y-73436628D01*
X202630649Y-73467198D01*
X202648139Y-73507480D01*
X202668815Y-73559027D01*
X202693549Y-73623392D01*
X202714957Y-73680135D01*
X202808400Y-73928856D01*
X202758916Y-73926422D01*
X202709433Y-73923989D01*
X202628727Y-73708741D01*
X202602914Y-73639992D01*
X202582153Y-73585126D01*
X202565730Y-73542578D01*
X202552932Y-73510783D01*
X202543047Y-73488177D01*
X202535361Y-73473195D01*
X202529162Y-73464272D01*
X202523736Y-73459843D01*
X202518371Y-73458344D01*
X202514581Y-73458199D01*
X202503874Y-73459159D01*
X202495649Y-73463313D01*
X202489582Y-73472568D01*
X202485348Y-73488834D01*
X202482621Y-73514017D01*
X202481076Y-73550026D01*
X202480389Y-73598770D01*
X202480233Y-73659766D01*
X202480075Y-73720854D01*
X202479501Y-73767786D01*
X202478353Y-73802895D01*
X202476470Y-73828512D01*
X202473692Y-73846967D01*
X202469859Y-73860592D01*
X202465806Y-73869816D01*
X202440229Y-73903232D01*
X202405350Y-73924596D01*
X202364147Y-73932858D01*
X202319597Y-73926972D01*
X202311243Y-73924254D01*
X202285841Y-73911402D01*
X202264925Y-73894565D01*
X202261844Y-73890932D01*
X202254366Y-73877430D01*
X202242044Y-73850894D01*
X202225893Y-73813704D01*
X202206929Y-73768237D01*
X202186168Y-73716871D01*
X202170136Y-73676184D01*
X202149056Y-73622633D01*
X202129428Y-73573787D01*
X202112182Y-73531884D01*
X202098251Y-73499160D01*
X202088565Y-73477851D01*
X202084559Y-73470599D01*
X202066820Y-73459406D01*
X202047851Y-73461683D01*
X202035356Y-73474145D01*
X202032643Y-73487636D01*
X202030390Y-73516284D01*
X202028645Y-73558763D01*
X202027458Y-73613748D01*
X202026875Y-73679912D01*
X202026822Y-73709101D01*
X202026822Y-73928111D01*
X201981480Y-73928111D01*
X201936137Y-73928111D01*
X201936334Y-73707582D01*
X201936663Y-73647101D01*
X201937488Y-73590488D01*
X201938731Y-73540312D01*
X201940314Y-73499144D01*
X201942159Y-73469551D01*
X201944003Y-73454839D01*
X201960224Y-73418192D01*
X201987971Y-73391007D01*
X202024298Y-73374843D01*
X202066259Y-73371259D01*
X202093202Y-73375873D01*
G37*
G36*
X199188648Y-61667407D02*
G01*
X199273420Y-61668194D01*
X199352659Y-61669501D01*
X199423616Y-61671328D01*
X199483537Y-61673676D01*
X199528867Y-61676480D01*
X199763673Y-61698228D01*
X199985724Y-61724809D01*
X200198203Y-61756828D01*
X200404290Y-61794886D01*
X200607168Y-61839589D01*
X200810018Y-61891538D01*
X201016022Y-61951338D01*
X201075225Y-61969736D01*
X201359457Y-62067269D01*
X201644851Y-62181143D01*
X201931499Y-62311393D01*
X202051554Y-62370621D01*
X202321933Y-62514577D01*
X202580234Y-62667654D01*
X202828245Y-62831133D01*
X203067750Y-63006299D01*
X203300537Y-63194434D01*
X203528391Y-63396820D01*
X203674524Y-63536452D01*
X203895348Y-63762986D01*
X204101033Y-63994237D01*
X204292581Y-64231569D01*
X204470996Y-64476346D01*
X204637283Y-64729932D01*
X204792444Y-64993692D01*
X204911937Y-65218244D01*
X205054841Y-65516961D01*
X205181804Y-65819768D01*
X205292881Y-66126862D01*
X205388125Y-66438440D01*
X205467594Y-66754699D01*
X205531340Y-67075836D01*
X205579421Y-67402046D01*
X205610273Y-67712077D01*
X205614604Y-67781296D01*
X205618111Y-67863616D01*
X205620781Y-67955830D01*
X205622601Y-68054733D01*
X205623557Y-68157120D01*
X205623636Y-68259785D01*
X205622826Y-68359524D01*
X205621113Y-68453130D01*
X205618484Y-68537400D01*
X205614925Y-68609126D01*
X205614006Y-68623048D01*
X205583066Y-68950872D01*
X205536334Y-69274939D01*
X205474055Y-69594750D01*
X205396474Y-69909806D01*
X205303834Y-70219608D01*
X205196381Y-70523658D01*
X205074359Y-70821455D01*
X204938011Y-71112502D01*
X204787583Y-71396298D01*
X204623319Y-71672346D01*
X204445462Y-71940146D01*
X204254258Y-72199199D01*
X204049951Y-72449007D01*
X203832786Y-72689069D01*
X203603006Y-72918888D01*
X203434309Y-73073820D01*
X203390300Y-73112443D01*
X203344108Y-73152291D01*
X203297510Y-73191899D01*
X203252283Y-73229803D01*
X203210206Y-73264539D01*
X203173056Y-73294642D01*
X203142609Y-73318647D01*
X203120643Y-73335090D01*
X203108936Y-73342506D01*
X203107892Y-73342782D01*
X203100011Y-73337293D01*
X203083463Y-73322540D01*
X203061058Y-73301096D01*
X203046515Y-73286634D01*
X202990798Y-73230487D01*
X203063224Y-73173306D01*
X203133184Y-73116620D01*
X203210892Y-73051114D01*
X203292750Y-72979933D01*
X203375159Y-72906222D01*
X203454522Y-72833124D01*
X203480493Y-72808665D01*
X203710244Y-72579676D01*
X203927092Y-72340533D01*
X204130795Y-72091644D01*
X204321113Y-71833415D01*
X204497805Y-71566253D01*
X204660628Y-71290566D01*
X204809343Y-71006761D01*
X204943708Y-70715245D01*
X205063481Y-70416425D01*
X205168422Y-70110709D01*
X205254143Y-69814317D01*
X205308673Y-69594279D01*
X205354062Y-69381469D01*
X205390817Y-69172155D01*
X205419444Y-68962603D01*
X205440450Y-68749080D01*
X205454342Y-68527855D01*
X205461628Y-68295193D01*
X205461798Y-68285041D01*
X205462911Y-68118713D01*
X205460455Y-67963437D01*
X205454180Y-67814113D01*
X205443834Y-67665642D01*
X205429163Y-67512923D01*
X205419446Y-67427657D01*
X205373643Y-67113244D01*
X205311876Y-66801358D01*
X205234485Y-66492812D01*
X205141809Y-66188420D01*
X205034185Y-65888995D01*
X204911953Y-65595350D01*
X204775451Y-65308299D01*
X204625018Y-65028656D01*
X204460993Y-64757234D01*
X204283715Y-64494846D01*
X204093522Y-64242306D01*
X204092739Y-64241321D01*
X203929988Y-64045470D01*
X203754439Y-63850739D01*
X203569597Y-63660708D01*
X203378968Y-63478956D01*
X203186057Y-63309063D01*
X203152113Y-63280642D01*
X202904399Y-63085551D01*
X202646264Y-62903008D01*
X202378365Y-62733351D01*
X202101358Y-62576915D01*
X201815901Y-62434037D01*
X201522650Y-62305055D01*
X201222262Y-62190305D01*
X200915395Y-62090123D01*
X200722770Y-62035634D01*
X200474426Y-61974587D01*
X200228568Y-61924753D01*
X199981971Y-61885696D01*
X199731412Y-61856981D01*
X199473665Y-61838172D01*
X199205507Y-61828833D01*
X199190860Y-61828593D01*
X199061984Y-61827401D01*
X198943757Y-61828180D01*
X198831792Y-61831152D01*
X198721706Y-61836534D01*
X198609114Y-61844548D01*
X198489630Y-61855414D01*
X198358871Y-61869350D01*
X198343335Y-61871112D01*
X198046329Y-61912898D01*
X197747664Y-61970618D01*
X197448481Y-62043954D01*
X197149918Y-62132592D01*
X196853114Y-62236215D01*
X196559208Y-62354508D01*
X196486803Y-62386121D01*
X196435005Y-62409935D01*
X196372005Y-62440247D01*
X196300953Y-62475437D01*
X196224994Y-62513881D01*
X196147278Y-62553958D01*
X196070952Y-62594044D01*
X195999163Y-62632518D01*
X195935061Y-62667758D01*
X195884985Y-62696275D01*
X195618872Y-62860942D01*
X195360304Y-63039871D01*
X195110052Y-63232291D01*
X194868886Y-63437433D01*
X194637575Y-63654526D01*
X194416890Y-63882800D01*
X194207600Y-64121486D01*
X194010476Y-64369813D01*
X193826288Y-64627011D01*
X193655804Y-64892310D01*
X193606421Y-64975115D01*
X193570637Y-65038059D01*
X193530071Y-65112554D01*
X193486374Y-65195325D01*
X193441194Y-65283097D01*
X193396182Y-65372595D01*
X193352986Y-65460542D01*
X193313256Y-65543664D01*
X193278641Y-65618684D01*
X193253511Y-65675898D01*
X193133683Y-65977512D01*
X193029923Y-66280758D01*
X192941973Y-66586699D01*
X192869574Y-66896400D01*
X192812468Y-67210925D01*
X192770397Y-67531337D01*
X192750854Y-67745054D01*
X192747467Y-67801600D01*
X192744744Y-67871596D01*
X192742685Y-67952140D01*
X192741288Y-68040330D01*
X192740553Y-68133263D01*
X192740479Y-68228036D01*
X192741064Y-68321747D01*
X192742309Y-68411494D01*
X192744212Y-68494375D01*
X192746773Y-68567486D01*
X192749990Y-68627926D01*
X192751122Y-68643658D01*
X192783308Y-68963862D01*
X192829614Y-69276686D01*
X192890396Y-69583485D01*
X192966012Y-69885616D01*
X193056817Y-70184434D01*
X193163168Y-70481294D01*
X193285421Y-70777553D01*
X193349335Y-70918823D01*
X193447612Y-71118292D01*
X193558341Y-71321752D01*
X193679360Y-71525841D01*
X193808505Y-71727199D01*
X193943614Y-71922464D01*
X194082523Y-72108274D01*
X194223070Y-72281270D01*
X194235458Y-72295784D01*
X194320635Y-72392746D01*
X194413556Y-72494191D01*
X194511519Y-72597390D01*
X194611824Y-72699611D01*
X194711770Y-72798124D01*
X194808655Y-72890200D01*
X194899779Y-72973109D01*
X194942115Y-73010082D01*
X195058606Y-73110196D01*
X194999822Y-73168395D01*
X194941038Y-73226594D01*
X194821499Y-73122154D01*
X194714054Y-73025443D01*
X194601032Y-72918508D01*
X194485641Y-72804639D01*
X194371089Y-72687124D01*
X194260584Y-72569250D01*
X194157333Y-72454308D01*
X194067680Y-72349370D01*
X193869170Y-72097203D01*
X193683563Y-71835118D01*
X193511169Y-71563841D01*
X193352299Y-71284097D01*
X193207263Y-70996611D01*
X193076371Y-70702109D01*
X192959934Y-70401315D01*
X192858261Y-70094956D01*
X192771663Y-69783757D01*
X192700451Y-69468442D01*
X192644933Y-69149738D01*
X192620232Y-68965177D01*
X192595120Y-68704712D01*
X192580498Y-68435840D01*
X192576364Y-68162874D01*
X192582718Y-67890125D01*
X192599557Y-67621908D01*
X192620694Y-67412521D01*
X192667047Y-67092557D01*
X192729468Y-66774951D01*
X192807646Y-66461102D01*
X192899398Y-66158069D01*
X193011407Y-65844379D01*
X193137388Y-65539422D01*
X193277321Y-65243231D01*
X193431187Y-64955841D01*
X193598965Y-64677285D01*
X193780635Y-64407598D01*
X193976179Y-64146815D01*
X194185575Y-63894968D01*
X194282938Y-63786070D01*
X194509055Y-63550839D01*
X194746132Y-63327789D01*
X194993695Y-63117223D01*
X195251272Y-62919443D01*
X195518387Y-62734751D01*
X195794568Y-62563449D01*
X196079340Y-62405841D01*
X196372229Y-62262227D01*
X196672762Y-62132911D01*
X196980464Y-62018195D01*
X197133963Y-61967326D01*
X197347355Y-61903301D01*
X197559625Y-61847547D01*
X197773635Y-61799522D01*
X197992246Y-61758685D01*
X198218320Y-61724494D01*
X198454719Y-61696408D01*
X198671483Y-61676480D01*
X198717935Y-61673622D01*
X198778117Y-61671285D01*
X198849275Y-61669468D01*
X198928658Y-61668172D01*
X199013516Y-61667397D01*
X199101097Y-61667142D01*
X199188648Y-61667407D01*
G37*
D16*
%TO.C,CGPS_2*%
X182614582Y-82040000D02*
X182830254Y-82040000D01*
X182614582Y-82760000D02*
X182830254Y-82760000D01*
%TO.C,CX_2*%
X191761252Y-81965000D02*
X191238748Y-81965000D01*
X191761252Y-83435000D02*
X191238748Y-83435000D01*
%TO.C,C16*%
X203112164Y-81040000D02*
X203327836Y-81040000D01*
X203112164Y-81760000D02*
X203327836Y-81760000D01*
%TO.C,RFLASH_1*%
X211340000Y-68347936D02*
X211340000Y-68802064D01*
X212810000Y-68347936D02*
X212810000Y-68802064D01*
D18*
%TO.C,J1*%
X181566000Y-86215000D02*
X176564000Y-86215000D01*
X188316000Y-86215000D02*
X187314000Y-86215000D01*
X188990000Y-91665000D02*
X188990000Y-89565000D01*
X188990000Y-97565000D02*
X188990000Y-94665000D01*
X188990000Y-100265000D02*
X175890000Y-100265000D01*
D12*
X184920000Y-100715000D02*
G75*
G02*
X184720000Y-100715000I-100000J0D01*
G01*
X184720000Y-100715000D02*
G75*
G02*
X184920000Y-100715000I100000J0D01*
G01*
D16*
%TO.C,U8*%
X206590000Y-93950000D02*
X206590000Y-97710000D01*
X206590000Y-97710000D02*
X207850000Y-97710000D01*
X213410000Y-93950000D02*
X213410000Y-97710000D01*
X213410000Y-97710000D02*
X212150000Y-97710000D01*
X213450000Y-92887500D02*
X213120000Y-92647500D01*
X213450000Y-92407500D01*
X213450000Y-92887500D01*
G36*
X213450000Y-92887500D02*
G01*
X213120000Y-92647500D01*
X213450000Y-92407500D01*
X213450000Y-92887500D01*
G37*
%TO.C,U3*%
X196460000Y-82570000D02*
X197110000Y-82570000D01*
X196460000Y-83220000D02*
X196460000Y-82570000D01*
X196460000Y-89140000D02*
X196460000Y-89790000D01*
X196460000Y-89790000D02*
X197110000Y-89790000D01*
X203030000Y-82570000D02*
X203440000Y-82570000D01*
X203680000Y-83220000D02*
X203680000Y-82870000D01*
X203680000Y-89140000D02*
X203680000Y-89790000D01*
X203680000Y-89790000D02*
X203030000Y-89790000D01*
X204010000Y-82810000D02*
X203680000Y-82570000D01*
X204010000Y-82330000D01*
X204010000Y-82810000D01*
G36*
X204010000Y-82810000D02*
G01*
X203680000Y-82570000D01*
X204010000Y-82330000D01*
X204010000Y-82810000D01*
G37*
%TO.C,CPS_3*%
X209261252Y-89365000D02*
X208738748Y-89365000D01*
X209261252Y-90835000D02*
X208738748Y-90835000D01*
%TO.C,RL_2*%
X203939564Y-98365000D02*
X203485436Y-98365000D01*
X203939564Y-99835000D02*
X203485436Y-99835000D01*
%TO.C,CGPS_3*%
X182617001Y-83046049D02*
X182832673Y-83046049D01*
X182617001Y-83766049D02*
X182832673Y-83766049D01*
%TO.C,R_RST1*%
X191872936Y-88565000D02*
X192327064Y-88565000D01*
X191872936Y-90035000D02*
X192327064Y-90035000D01*
%TO.C,CGPS_1*%
X182614582Y-81040000D02*
X182830254Y-81040000D01*
X182614582Y-81760000D02*
X182830254Y-81760000D01*
%TO.C,CPS_1*%
X214165000Y-92738748D02*
X214165000Y-93261252D01*
X215635000Y-92738748D02*
X215635000Y-93261252D01*
D18*
%TO.C,U5*%
X173900000Y-77527500D02*
X173900000Y-70547500D01*
X184300000Y-77527500D02*
X184300000Y-70547500D01*
D12*
X174650000Y-80787500D02*
G75*
G02*
X174450000Y-80787500I-100000J0D01*
G01*
X174450000Y-80787500D02*
G75*
G02*
X174650000Y-80787500I100000J0D01*
G01*
D16*
%TO.C,D1*%
X199100000Y-98235000D02*
X201385000Y-98235000D01*
X201385000Y-96765000D02*
X199100000Y-96765000D01*
X201385000Y-98235000D02*
X201385000Y-96765000D01*
%TO.C,RI2C_1*%
X200626359Y-78497500D02*
X200933641Y-78497500D01*
X200626359Y-79257500D02*
X200933641Y-79257500D01*
%TO.C,RI2C_3*%
X193215000Y-80189564D02*
X193215000Y-79735436D01*
X194685000Y-80189564D02*
X194685000Y-79735436D01*
%TO.C,RFLASH_2*%
X211110436Y-70790000D02*
X211564564Y-70790000D01*
X211110436Y-72260000D02*
X211564564Y-72260000D01*
D18*
%TO.C,Y1*%
X190250000Y-86085000D02*
X190250000Y-85915000D01*
X192750000Y-86085000D02*
X192750000Y-85915000D01*
D12*
X193745000Y-87150000D02*
G75*
G02*
X193545000Y-87150000I-100000J0D01*
G01*
X193545000Y-87150000D02*
G75*
G02*
X193745000Y-87150000I100000J0D01*
G01*
D16*
%TO.C,RX_1*%
X187965000Y-83172936D02*
X187965000Y-83627064D01*
X189435000Y-83172936D02*
X189435000Y-83627064D01*
%TO.C,D2*%
X202912500Y-97935000D02*
X205197500Y-97935000D01*
X205197500Y-96465000D02*
X202912500Y-96465000D01*
X205197500Y-97935000D02*
X205197500Y-96465000D01*
%TO.C,J3*%
X214485000Y-78525000D02*
X214935000Y-78925000D01*
X214485000Y-79325000D02*
X214485000Y-78525000D01*
X214935000Y-78925000D02*
X214485000Y-79325000D01*
X217735000Y-73475000D02*
X216185000Y-73475000D01*
X217735000Y-73775000D02*
X217735000Y-73475000D01*
X217735000Y-81775000D02*
X216185000Y-81775000D01*
X217735000Y-81775000D02*
X217735000Y-81475000D01*
X220535000Y-73775000D02*
X217735000Y-73775000D01*
X220535000Y-81475000D02*
X217735000Y-81475000D01*
%TO.C,J5*%
X214690000Y-83050000D02*
X214690000Y-88350000D01*
X214690000Y-84430000D02*
X215690000Y-84430000D01*
X214690000Y-84680000D02*
X215690000Y-84680000D01*
X214690000Y-86720000D02*
X215690000Y-86720000D01*
X214690000Y-88350000D02*
X220710000Y-88350000D01*
X215690000Y-84430000D02*
X215690000Y-86970000D01*
X215690000Y-84430000D02*
X216220000Y-84680000D01*
X215690000Y-86970000D02*
X214690000Y-86970000D01*
X216220000Y-84680000D02*
X216220000Y-86720000D01*
X216220000Y-86720000D02*
X215690000Y-86970000D01*
X219680000Y-82760000D02*
X215680000Y-82760000D01*
X220110000Y-83630000D02*
X220110000Y-85230000D01*
X220110000Y-85230000D02*
X220710000Y-85230000D01*
X220110000Y-86170000D02*
X220110000Y-87770000D01*
X220110000Y-87770000D02*
X220710000Y-87770000D01*
X220710000Y-83050000D02*
X214690000Y-83050000D01*
X220710000Y-83630000D02*
X220110000Y-83630000D01*
X220710000Y-86170000D02*
X220110000Y-86170000D01*
X220710000Y-88350000D02*
X220710000Y-83050000D01*
%TO.C,RL_1*%
X200227064Y-98665000D02*
X199772936Y-98665000D01*
X200227064Y-100135000D02*
X199772936Y-100135000D01*
D12*
%TO.C,U7*%
X146530000Y-90000000D02*
X146530000Y-80800000D01*
X153060000Y-73210000D02*
X146530000Y-80800000D01*
X153060000Y-73210000D02*
X179470000Y-73210000D01*
X153060000Y-97590000D02*
X146530000Y-90000000D01*
X179470000Y-73210000D02*
X179470000Y-97590000D01*
X179470000Y-97590000D02*
X153060000Y-97590000D01*
D16*
%TO.C,RI2C_4*%
X190685000Y-79244564D02*
X190685000Y-78790436D01*
X192155000Y-79244564D02*
X192155000Y-78790436D01*
D18*
%TO.C,AE1*%
X187113500Y-61100000D02*
X188886500Y-61100000D01*
X187113500Y-62900000D02*
X188886500Y-62900000D01*
D12*
X185550000Y-62500000D02*
G75*
G02*
X185350000Y-62500000I-100000J0D01*
G01*
X185350000Y-62500000D02*
G75*
G02*
X185550000Y-62500000I100000J0D01*
G01*
D16*
%TO.C,U6*%
X206610000Y-76970000D02*
X206880000Y-76970000D01*
X206610000Y-79730000D02*
X206610000Y-76970000D01*
X206610000Y-79730000D02*
X206610000Y-82490000D01*
X206610000Y-82490000D02*
X206880000Y-82490000D01*
X212130000Y-76970000D02*
X211860000Y-76970000D01*
X212130000Y-79730000D02*
X212130000Y-76970000D01*
X212130000Y-79730000D02*
X212130000Y-82490000D01*
X212130000Y-82490000D02*
X211860000Y-82490000D01*
X212190000Y-76445000D02*
X211860000Y-76205000D01*
X212190000Y-75965000D01*
X212190000Y-76445000D01*
G36*
X212190000Y-76445000D02*
G01*
X211860000Y-76205000D01*
X212190000Y-75965000D01*
X212190000Y-76445000D01*
G37*
D12*
%TO.C,S2*%
X190125000Y-91950000D02*
X190125000Y-91950000D01*
X190125000Y-91950000D02*
X190125000Y-91950000D01*
X190225000Y-91950000D02*
X190225000Y-91950000D01*
X191125000Y-92825000D02*
X191125000Y-93225000D01*
X192225000Y-91425000D02*
X194225000Y-91425000D01*
X192225000Y-94625000D02*
X194225000Y-94625000D01*
X195325000Y-92825000D02*
X195325000Y-93225000D01*
X190125000Y-91950000D02*
G75*
G02*
X190225000Y-91950000I50000J0D01*
G01*
X190225000Y-91950000D02*
G75*
G02*
X190125000Y-91950000I-50000J0D01*
G01*
X190225000Y-91950000D02*
G75*
G02*
X190125000Y-91950000I-50000J0D01*
G01*
%TD*%
M02*
